<svg xmlns="http://www.w3.org/2000/svg" id="libre-check-no" viewBox="0 0 14 14"><path d="m 13,10.65657 q 0,0.40404 -0.28283,0.68686 l -1.37374,1.37374 Q 11.06061,13 10.65657,13 10.25253,13 9.9697,12.71717 L 7,9.74747 4.0303,12.71717 Q 3.74747,13 3.34343,13 2.93939,13 2.65657,12.71717 L 1.28283,11.34343 Q 1,11.06061 1,10.65657 1,10.25253 1.28283,9.9697 L 4.25253,7 1.28283,4.0303 Q 1,3.74747 1,3.34343 1,2.93939 1.28283,2.65657 L 2.65657,1.28283 Q 2.93939,1 3.34343,1 3.74747,1 4.0303,1.28283 L 7,4.25253 9.9697,1.28283 Q 10.25253,1 10.65657,1 q 0.40404,0 0.68686,0.28283 l 1.37374,1.37374 Q 13,2.93939 13,3.34343 13,3.74747 12.71717,4.0303 L 9.74747,7 12.71717,9.9697 Q 13,10.25253 13,10.65657 z"/></svg> 