<svg xmlns="http://www.w3.org/2000/svg" viewBox="0 0 14 14" id="libre-wysiwyg-arrow-circle-up"><path d="m 11.03125,6.9922 q 0,-0.2109 -0.14063,-0.3516 L 8.0625,3.8125 7.35156,3.1016 Q 7.21094,2.9609 7,2.9609 q -0.21094,0 -0.35156,0.1407 L 5.9375,3.8125 3.10937,6.6406 q -0.14062,0.1407 -0.14062,0.3516 0,0.2109 0.14062,0.3516 l 0.71094,0.7109 q 0.14063,0.1406 0.35156,0.1406 0.21094,0 0.35157,-0.1406 L 6,6.5781 6,10.5 Q 6,10.7031 6.14844,10.8516 6.29687,11 6.5,11 l 1,0 Q 7.70312,11 7.85156,10.8516 8,10.7031 8,10.5 L 8,6.5781 9.47656,8.0547 q 0.14844,0.1484 0.35156,0.1484 0.20313,0 0.35157,-0.1484 L 10.89062,7.3438 Q 11.03125,7.2031 11.03125,6.9922 Z M 13,7 q 0,1.6328 -0.80469,3.0117 -0.80469,1.3789 -2.18359,2.1836 Q 8.63281,13 7,13 5.36719,13 3.98828,12.1953 2.60937,11.3906 1.80469,10.0117 1,8.6328 1,7 1,5.3672 1.80469,3.9883 2.60937,2.6094 3.98828,1.8047 5.36719,1 7,1 8.63281,1 10.01172,1.8047 11.39062,2.6094 12.19531,3.9883 13,5.3672 13,7 Z"/></svg>