<svg xmlns="http://www.w3.org/2000/svg" viewBox="0 0 14 14" id="libre-brand-vim"><path d="m 7.8351369,8.5701105 c 0.01916,0.01916 0.05703,0.0479 0.08577,0.0479 l 0.505951,0 c 0.02874,0 0.06661,-0.02874 0.08577,-0.0479 l 0.133673,-0.143254 c 0.01916,-0.01916 0.02874,-0.03832 0.02874,-0.05703 l 0.143254,-0.48679 c 0.0096,-0.0479 0,-0.09535 -0.02874,-0.124093 l -0.10493,-0.08577 c -0.01916,-0.01916 -0.05703,-0.0096 -0.08577,-0.0096 l -0.458049,0 -0.02874,-0.02874 c -0.01916,0 -0.03832,-0.0096 -0.05748,0.0096 l -0.181583,0.11451 c -0.01916,0 -0.02874,0.0479 -0.03832,0.06661 l -0.152835,0.467629 c -0.01916,0.0479 -0.0096,0.104931 0.02874,0.143254 l 0.124093,0.133673 z m 0.07619,2.5201785 -0.03832,0.0096 -0.114512,0 0.687529,-2.0142275 c 0.01916,-0.06661 -0.0096,-0.143254 -0.07619,-0.162416 l -0.03832,-0.0096 -1.1551583,0 c -0.047904,0.0096 -0.08577,0.0479 -0.095351,0.09535 l -0.066609,0.238605 c -0.019161,0.06661 0.028742,0.124093 0.095351,0.143255 l 0.028742,-0.0096 0.1719963,0 -0.6971096,1.9950655 c -0.019161,0.06661 0.00958,0.152834 0.076189,0.181578 l 0.038323,0.02874 1.0693876,0 c 0.05703,0 0.104932,-0.0479 0.124093,-0.104932 l 0.06661,-0.229024 c 0.02874,-0.06707 -0.0096,-0.143255 -0.07619,-0.162416 l 0,0 z m 5.0695561,-1.8805525 -0.181577,-0.238605 0,-0.0096 c -0.02874,-0.02874 -0.05703,-0.05703 -0.09535,-0.05703 l -0.687528,0 c -0.03832,0 -0.06661,0.03832 -0.09535,0.05703 l -0.191158,0.229024 -0.296089,0 -0.200282,-0.229024 0,-0.0096 c -0.01916,-0.02874 -0.05748,-0.0479 -0.09535,-0.0479 l -0.381859,0 1.928457,-1.928457 -2.157481,-2.13832 1.928457,-1.985485 0,-0.859069 -0.267347,-0.343536 -3.9043611,0 -0.315251,0.333956 0,0.276927 -1.0789687,-1.088093 -0.7349762,0.715815 -0.2290242,-0.238605 -3.8569141,0 -0.3056698,0.353117 0,0.897392 0.2865084,0.276927 0.2865084,0 0,2.491437 -1.33628276,1.336314 1.33627876,1.336735 0,3.0548735 0.4963713,0.276928 1.1072546,0 0.8686497,-0.906974 2.0621305,2.062132 1.3841821,-1.384183 c 0.0096,0.03832 0.03832,0.0479 0.08577,0.06661 l 0.03832,-0.01916 0.897392,0 c 0.05748,0 0.104931,-0.0096 0.114512,-0.05703 l 0.06661,-0.190701 c 0.01916,-0.06661 -0.0096,-0.124093 -0.07619,-0.143255 l -0.03832,0.0096 -0.03832,0 0.324831,-1.021485 0.219443,-0.2194435 0.4772101,0 -0.4772101,1.5178565 c -0.01916,0.06661 0.01916,0.104931 0.08577,0.133673 l 0.03832,-0.01916 0.8686501,0 c 0.0479,0 0.09535,-0.0096 0.114512,-0.05703 l 0.07619,-0.171996 c 0.02874,-0.06661 -0.0096,-0.124093 -0.06661,-0.152835 -0.0096,-0.0096 -0.02874,0 -0.0479,0 l -0.03832,0 0.401021,-1.2409285 0.582141,0 -0.48679,1.5178555 c -0.01916,0.06661 0.01916,0.104932 0.08577,0.124093 l 0.03832,-0.02874 0.954876,0 c 0.0479,0 0.09535,-0.0096 0.114513,-0.05703 l 0.07619,-0.190701 c 0.02874,-0.06661 -0.0096,-0.124093 -0.07619,-0.143254 -0.0096,-0.0096 -0.02874,0.0096 -0.0479,0.0096 l -0.06661,0 0.534694,-1.7660415 c 0.01916,-0.0479 0.0096,-0.104932 -0.0096,-0.133674 l 0,0 z m -6.0910408,-7.856626 1.0789687,1.078969 0,0.448924 0.324375,0.391439 0.152835,0 -2.7683647,2.673014 0,-2.673014 0.3152504,0 0.2577664,-0.40102 0,-0.849488 -0.019161,-0.02874 0.6587868,-0.639625 z m -5.7087255,5.651241 1.155158,-1.155158 0,2.310316 -1.155158,-1.155158 z m 3.7136598,3.6566315 5.5750525,-5.7278865 2.042969,2.05255 -1.928457,1.928457 -0.0096,0 c -0.02874,0.0096 -0.0479,0.02874 -0.06661,0.0479 l -0.200282,0.229025 -0.276927,0 -0.2098631,-0.229025 c -0.01916,-0.02874 -0.05748,-0.05703 -0.09535,-0.05703 l -0.839908,0 c -0.05703,0 -0.104931,0.03832 -0.124092,0.09535 l -0.07619,0.238605 c -0.01916,0.06661 0.0096,0.124093 0.07619,0.152835 l 0.143254,0 -0.610884,1.8043635 -1.441666,1.451247 -1.9571992,-1.985485 z"/></svg>