<svg role="img" focusable="false" aria-hidden="true" xmlns="http://www.w3.org/2000/svg" viewBox="0 0 14 14"><path d="m 1,6.7517455 0,-0.178522 c 0,-0.05579 0.016736,-0.100418 0.055788,-0.13947 0.039052,-0.03905 0.083682,-0.05579 0.13947,-0.05579 l 4.2287308,0 c 0.055788,0 0.1004185,0.01674 0.1394701,0.05579 0.039052,0.03905 0.055788,0.08368 0.055788,0.13947 l 0,0.178522 c 0,0.05579 -0.016736,0.100418 -0.055788,0.13947 -0.039052,0.03905 -0.083682,0.05579 -0.1394701,0.05579 l -0.2454672,0 0,0.920502 1.1827057,0 c 0.011158,-0.156207 0.078103,-0.290098 0.1952581,-0.396095 0.1171548,-0.105997 0.2566246,-0.161785 0.4184096,-0.161785 0.161786,0 0.295677,0.05579 0.412832,0.161785 0.117154,0.105997 0.178521,0.239888 0.195258,0.396095 l 0.736401,0 0,-1.891214 c -0.0781,-0.0056 -0.13947,-0.03347 -0.195258,-0.08926 -0.05579,-0.05579 -0.08368,-0.128313 -0.08368,-0.206416 l 0,-0.172943 c 0,-0.0781 0.02789,-0.150628 0.08926,-0.211994 0.06137,-0.06137 0.133891,-0.08926 0.217573,-0.08926 l 1.110182,0 c 0.08368,0 0.156206,0.02789 0.211994,0.08926 0.05579,0.06137 0.08368,0.128312 0.08368,0.211994 l 0,0.172943 c 0,0.0781 -0.02789,0.150628 -0.0781,0.206416 -0.05021,0.05579 -0.111576,0.08926 -0.189679,0.08926 l 0,1.891214 0.870293,0 c 0.150627,0 0.284518,0.05579 0.396094,0.167364 0.111576,0.111576 0.167364,0.245467 0.167364,0.396095 l 0,1.6345875 L 13,12.782429 l -2.644351,0 0,-1.695955 -0.396095,0 c 0.06137,0.145048 0.08926,0.301255 0.08926,0.46304 0,0.340307 -0.117155,0.624826 -0.357044,0.870293 -0.239887,0.239888 -0.529985,0.362622 -0.864713,0.362622 -0.340307,0 -0.624825,-0.122734 -0.870293,-0.362622 -0.239888,-0.239889 -0.362622,-0.529987 -0.362622,-0.870293 0,-0.161785 0.02789,-0.317992 0.08926,-0.46304 l -0.55788,0 c 0.06137,0.150627 0.09484,0.306833 0.09484,0.46304 0,0.340306 -0.122734,0.624825 -0.362622,0.870293 -0.2398878,0.245467 -0.5299855,0.362622 -0.8702923,0.362622 -0.3403068,0 -0.6248257,-0.122734 -0.8647141,-0.362622 -0.2398884,-0.239889 -0.3570432,-0.529987 -0.3570432,-0.870293 0,-0.161785 0.027894,-0.317992 0.089261,-0.46304 l -0.6638773,0 c 0.066946,0.161784 0.1004184,0.317991 0.1004184,0.46304 0,0.340306 -0.1227336,0.624825 -0.362622,0.870293 -0.2398886,0.245467 -0.5299863,0.362622 -0.8702931,0.362622 -0.3403068,0 -0.6248257,-0.122734 -0.8702929,-0.362622 -0.2454672,-0.239889 -0.362622,-0.529987 -0.362622,-0.870293 0,-0.161785 0.033473,-0.317992 0.09484,-0.46862 C 1.7866109,11.05858 1.6694561,10.997213 1.5801953,10.891216 1.4909344,10.785218 1.446304,10.662485 1.446304,10.523014 l 0,-0.479776 -0.011158,0 0,-3.0962345 -0.2398884,0 c -0.055788,0 -0.1004184,-0.01674 -0.13947,-0.05579 C 1.0167364,6.8521635 1,6.8075335 1,6.7517455 Z m 1.1436541,2.198047 c 0,0.117155 0.039052,0.217573 0.1227336,0.301255 0.083682,0.08368 0.1841004,0.122734 0.3012553,0.122734 l 0.8033472,0 c 0.1171548,0 0.2175733,-0.03905 0.2956765,-0.122734 0.078103,-0.08368 0.1227336,-0.1841 0.1227336,-0.301255 l 0,-1.283124 c 0,-0.117155 -0.039052,-0.211995 -0.1227336,-0.295677 C 3.5829847,7.2873095 3.488145,7.2482585 3.3709902,7.2482585 l -0.7977684,0 c -0.1171549,0 -0.2175733,0.03905 -0.3012553,0.128312 -0.083682,0.08368 -0.1227336,0.178522 -0.1227336,0.290098 l 0,1.283124 z M 7.432357,2.7071145 c 0,0.228731 0.08926,0.423989 0.262204,0.580195 0,0.111576 0.05021,0.239889 0.145048,0.379359 0.09484,0.13947 0.200837,0.223152 0.312413,0.245467 0.02232,0.122734 0.08368,0.228731 0.172943,0.317992 0.08926,0.08368 0.200837,0.13947 0.329149,0.167364 -0.06137,0.06137 -0.08926,0.133891 -0.08926,0.217573 0,0.100418 0.03347,0.1841 0.100418,0.251046 0.06695,0.06695 0.150628,0.100418 0.251046,0.100418 0.100418,0 0.1841,-0.03347 0.256625,-0.105997 0.07252,-0.06695 0.105997,-0.156206 0.105997,-0.251046 0,-0.01116 0,-0.02789 -0.0056,-0.05021 -0.0056,-0.02231 -0.0056,-0.04463 -0.0056,-0.05579 l 0.01674,0 c 0.117155,0 0.217573,-0.04463 0.301255,-0.128312 0.08368,-0.08368 0.128312,-0.18968 0.128312,-0.306834 0,-0.05579 -0.02232,-0.122734 -0.06695,-0.211995 0.09484,-0.05021 0.172943,-0.13947 0.228731,-0.262204 l 0.251046,0 c 0.217573,-0.01116 0.407252,-0.09484 0.55788,-0.251046 0.156206,-0.156206 0.234309,-0.340306 0.234309,-0.563458 0,-0.18968 -0.06137,-0.357044 -0.1841,-0.502092 -0.122734,-0.145049 -0.27894,-0.239889 -0.46304,-0.290098 -0.04463,-0.223152 -0.161786,-0.407253 -0.345886,-0.552301 -0.184101,-0.145049 -0.396095,-0.217574 -0.624826,-0.217574 -0.228731,0 -0.429567,0.07253 -0.60251,0.211995 -0.172943,0.13947 -0.290098,0.32357 -0.345886,0.541144 l -0.06137,0 c -0.22873,0 -0.429567,0.07252 -0.60251,0.217573 -0.172943,0.13947 -0.256625,0.317991 -0.256625,0.518828 z"/></svg>