<svg xmlns="http://www.w3.org/2000/svg" viewBox="0 0 14 14" id="libre-wysiwyg-superscript"><path d="m 9.39019,2.78035 c 0.41867,-0.3814 0.88385,-0.5582 1.28391,-0.5582 0.66056,0 1.00479,0.2884 1.00479,0.9025 0,0.4931 -0.35354,1.0234 -1.0234,1.7119 l -1.64675,1.6746 0,0.9583 3.91684,0 0,-1.042 -2.44686,0 1.11644,-1.0513 c 0.88384,-0.8281 1.40485,-1.563 1.40485,-2.419 0,-0.949 -0.64195,-1.777 -2.09332,-1.777 -0.59544,0 -1.09783,0.1582 -1.57232,0.4931 l 0.0558,1.1071 m -4.19977,6.3098 2.41332,-3.8174 -1.67835,0 -1.5906,2.7424 -1.42606,-2.7424 -1.73321,0 2.22684,3.7187 -2.40235,3.8284 1.65642,0 1.56866,-2.7314 1.52478,2.7314 1.75515,0 -2.3146,-3.7297"/></svg>