<svg xmlns="http://www.w3.org/2000/svg" id="libre-brand-delicious" viewBox="0 0 14 14"><path d="M 12.5,10.75 V 7 H 7 V 1.5 H 3.25 Q 2.52344,1.5 2.01172,2.011719 1.5,2.523438 1.5,3.25 V 7 H 7 v 5.5 h 3.75 q 0.72656,0 1.23828,-0.511719 Q 12.5,11.476562 12.5,10.75 z M 13,3.25 v 7.5 q 0,0.929687 -0.66016,1.589844 Q 11.67969,13 10.75,13 H 3.25 Q 2.32031,13 1.660156,12.339844 1,11.679687 1,10.75 V 3.25 Q 1,2.320313 1.660156,1.660156 2.32031,1 3.25,1 h 7.5 Q 11.67969,1 12.33984,1.660156 13,2.320313 13,3.25 z"/></svg>