<svg aria-labelledby="gui-border-left" role="img" focusable="false" aria-hidden="true" xmlns="http://www.w3.org/2000/svg" viewBox="0 0 14 14"><path d="m 1,1 1.3333333,0 0,12 L 1,13 1,1 Z M 3.6666667,1 5,1 l 0,1.3333333 -1.3333333,0 0,-1.3333333 z m 0,5.333333 1.3333333,0 0,1.333334 -1.3333333,0 0,-1.333334 z m 0,5.333334 L 5,11.666667 5,13 l -1.3333333,0 0,-1.333333 z M 6.3333333,1 l 1.3333334,0 0,1.3333333 -1.3333334,0 0,-1.3333333 z m 0,2.6666667 1.3333334,0 0,1.3333333 -1.3333334,0 0,-1.3333333 z m 0,2.6666663 1.3333334,0 0,1.333334 -1.3333334,0 0,-1.333334 z m 0,2.666667 1.3333334,0 0,1.333333 -1.3333334,0 0,-1.333333 z m 0,2.666667 1.3333334,0 0,1.333333 -1.3333334,0 0,-1.333333 z M 9,1 l 1.333333,0 0,1.3333333 L 9,2.3333333 9,1 Z m 0,5.333333 1.333333,0 0,1.333334 -1.333333,0 0,-1.333334 z m 0,5.333334 1.333333,0 0,1.333333 L 9,13 9,11.666667 Z M 11.666667,1 13,1 l 0,1.3333333 -1.333333,0 0,-1.3333333 z m 0,2.6666667 1.333333,0 L 13,5 l -1.333333,0 0,-1.3333333 z m 0,2.6666663 1.333333,0 0,1.333334 -1.333333,0 0,-1.333334 z M 11.666667,9 13,9 l 0,1.333333 -1.333333,0 0,-1.333333 z m 0,2.666667 1.333333,0 L 13,13 l -1.333333,0 0,-1.333333 z"/></svg>