<svg aria-labelledby="gui-th-list" role="img" focusable="false" aria-hidden="true" xmlns="http://www.w3.org/2000/svg" viewBox="0 0 14 14"><path d="m 4.42857,9.785715 v 1.28571 q 0,0.26786 -0.1875,0.45536 -0.1875,0.1875 -0.45536,0.1875 H 1.642857 q -0.267857,0 -0.455357,-0.1875 Q 1,11.339285 1,11.071425 v -1.28571 q 0,-0.26786 0.1875,-0.45536 0.1875,-0.1875 0.455357,-0.1875 H 3.78571 q 0.26786,0 0.45536,0.1875 0.1875,0.1875 0.1875,0.45536 z m 0,-3.42857 v 1.28571 q 0,0.26786 -0.1875,0.45536 -0.1875,0.1875 -0.45536,0.1875 H 1.642857 Q 1.375,8.285715 1.1875,8.098215 1,7.910715 1,7.642855 v -1.28571 q 0,-0.26786 0.1875,-0.45536 0.1875,-0.1875 0.455357,-0.1875 H 3.78571 q 0.26786,0 0.45536,0.1875 0.1875,0.1875 0.1875,0.45536 z M 13,9.785715 v 1.28571 q 0,0.26786 -0.1875,0.45536 -0.1875,0.1875 -0.45536,0.1875 H 5.92857 q -0.26786,0 -0.45536,-0.1875 -0.1875,-0.1875 -0.1875,-0.45536 v -1.28571 q 0,-0.26786 0.1875,-0.45536 0.1875,-0.1875 0.45536,-0.1875 h 6.42857 q 0.26786,0 0.45536,0.1875 Q 13,9.517855 13,9.785715 z M 4.42857,2.928575 v 1.28571 q 0,0.26786 -0.1875,0.45536 -0.1875,0.1875 -0.45536,0.1875 H 1.642857 Q 1.375,4.857145 1.1875,4.669645 1,4.482145 1,4.214285 v -1.28571 q 0,-0.26786 0.1875,-0.45536 0.1875,-0.1875 0.455357,-0.1875 H 3.78571 q 0.26786,0 0.45536,0.1875 0.1875,0.1875 0.1875,0.45536 z M 13,6.357145 v 1.28571 q 0,0.26786 -0.1875,0.45536 -0.1875,0.1875 -0.45536,0.1875 H 5.92857 q -0.26786,0 -0.45536,-0.1875 -0.1875,-0.1875 -0.1875,-0.45536 v -1.28571 q 0,-0.26786 0.1875,-0.45536 0.1875,-0.1875 0.45536,-0.1875 h 6.42857 q 0.26786,0 0.45536,0.1875 Q 13,6.089285 13,6.357145 z m 0,-3.42857 v 1.28571 q 0,0.26786 -0.1875,0.45536 -0.1875,0.1875 -0.45536,0.1875 H 5.92857 q -0.26786,0 -0.45536,-0.1875 -0.1875,-0.1875 -0.1875,-0.45536 v -1.28571 q 0,-0.26786 0.1875,-0.45536 0.1875,-0.1875 0.45536,-0.1875 h 6.42857 q 0.26786,0 0.45536,0.1875 Q 13,2.660715 13,2.928575 z"/></svg>