<svg role="img" focusable="false" aria-hidden="true" xmlns="http://www.w3.org/2000/svg" viewBox="0 0 14 14"><path d="m 11.00002,7.4998 0,-0.9996 q 0,-0.204 -0.1482,-0.354 -0.1482,-0.15 -0.3516,-0.15 l -3.92184,0 1.47654,-1.4766 q 0.1482,-0.15 0.1482,-0.354 0,-0.204 -0.1482,-0.354 L 7.34398,3.1006 q -0.1404,-0.144 -0.3516,-0.144 -0.2112,0 -0.3516,0.144 l -2.8281,2.8278 -0.71094,0.711 q -0.1404,0.138 -0.1404,0.354 0,0.21 0.1404,0.354 l 0.71094,0.711 2.8281,2.8278 q 0.1404,0.144 0.3516,0.144 0.2106,0 0.3516,-0.144 l 0.71094,-0.711 q 0.1404,-0.138 0.1404,-0.354 0,-0.21 -0.1404,-0.354 l -1.47654,-1.4766 3.92184,0 q 0.2034,0 0.3516,-0.15 0.1482,-0.15 0.1482,-0.354 z M 13,7 q 0,1.6326 -0.80466,3.012 -0.80472,1.3788 -2.18364,2.1834 Q 8.63284,13 7,13 5.36716,13 3.9883,12.1954 2.60938,11.3908 1.80466,10.012 1,8.6326 1,7 1,5.3674 1.80466,3.988 2.60938,2.6092 3.9883,1.8046 5.36716,1 7,1 8.63284,1 10.0117,1.8046 11.39062,2.6092 12.19534,3.988 13,5.3674 13,7 Z"/></svg>