<svg aria-labelledby="gui-list" role="img" focusable="false" aria-hidden="true" xmlns="http://www.w3.org/2000/svg" viewBox="0 0 14 14"><path d="M 2.71429,10.21429 V 11.5 q 0,0.0871 -0.0636,0.15067 -0.0636,0.0636 -0.15067,0.0636 H 1.214306 q -0.08705,0 -0.15067,-0.0636 Q 1,11.58706 1,11.5 v -1.28571 q 0,-0.0871 0.06362,-0.15067 0.06362,-0.0636 0.15067,-0.0636 H 2.5 q 0.0871,0 0.15067,0.0636 0.0636,0.0636 0.0636,0.15067 z m 0,-2.57143 v 1.28572 q 0,0.087 -0.0636,0.15067 -0.0636,0.0636 -0.15067,0.0636 H 1.214306 q -0.08705,0 -0.15067,-0.0636 Q 1,9.01563 1,8.92858 V 7.64286 Q 1,7.55586 1.06362,7.49219 1.12724,7.42859 1.21429,7.42859 H 2.5 q 0.0871,0 0.15067,0.0636 0.0636,0.0636 0.0636,0.15067 z m 0,-2.57143 v 1.28572 q 0,0.087 -0.0636,0.15067 -0.0636,0.0636 -0.15067,0.0636 H 1.214306 q -0.08705,0 -0.15067,-0.0636 Q 1,6.4442 1,6.35715 V 5.07143 Q 1,4.98443 1.06362,4.92076 1.12724,4.85716 1.21429,4.85716 H 2.5 q 0.0871,0 0.15067,0.0636 0.0636,0.0636 0.0636,0.15067 z M 13,10.21429 V 11.5 q 0,0.0871 -0.0636,0.15067 -0.0636,0.0636 -0.15067,0.0636 h -9 q -0.087,0 -0.15067,-0.0636 Q 3.57146,11.58707 3.57146,11.5 v -1.28571 q 0,-0.0871 0.0636,-0.15067 0.0636,-0.0636 0.15067,-0.0636 h 9 q 0.0871,0 0.15067,0.0636 Q 13,10.12722 13,10.21429 z M 2.71429,2.5 v 1.28572 q 0,0.0871 -0.0636,0.15067 -0.0636,0.0636 -0.15067,0.0636 H 1.214306 q -0.08705,0 -0.15067,-0.0636 Q 1,3.87277 1,3.78572 V 2.5 Q 1,2.4129 1.06362,2.34933 1.12724,2.28573 1.21429,2.28573 H 2.5 q 0.0871,0 0.15067,0.0636 0.0636,0.0636 0.0636,0.15067 z M 13,7.64286 v 1.28572 q 0,0.087 -0.0636,0.15067 -0.0636,0.0636 -0.15067,0.0636 h -9 q -0.087,0 -0.15067,-0.0636 -0.0636,-0.0636 -0.0636,-0.15067 V 7.64286 q 0,-0.087 0.0636,-0.15067 0.0636,-0.0636 0.15067,-0.0636 h 9 q 0.0871,0 0.15067,0.0636 Q 13,7.55579 13,7.64286 z m 0,-2.57143 v 1.28572 q 0,0.087 -0.0636,0.15067 -0.0636,0.0636 -0.15067,0.0636 h -9 q -0.087,0 -0.15067,-0.0636 -0.0636,-0.0636 -0.0636,-0.15067 V 5.07143 q 0,-0.087 0.0636,-0.15067 0.0636,-0.0636 0.15067,-0.0636 h 9 q 0.0871,0 0.15067,0.0636 Q 13,4.98436 13,5.07143 z M 13,2.5 v 1.28572 q 0,0.0871 -0.0636,0.15067 -0.0636,0.0636 -0.15067,0.0636 h -9 q -0.087,0 -0.15067,-0.0636 -0.0636,-0.0636 -0.0636,-0.15067 V 2.5 q 0,-0.0871 0.0636,-0.15067 0.0636,-0.0636 0.15067,-0.0636 h 9 q 0.0871,0 0.15067,0.0636 Q 13,2.41293 13,2.5 z"/></svg>