<svg xmlns="http://www.w3.org/2000/svg" viewBox="0 0 14 14" id="libre-wysiwyg-list-ul"><path d="m 3.57143,10.428575 q 0,0.53571 -0.375,0.91071 -0.375,0.375 -0.91072,0.375 -0.53571,0 -0.91071,-0.375 Q 1,10.964285 1,10.428575 q 0,-0.53572 0.375,-0.91072 0.375,-0.375 0.91071,-0.375 0.53572,0 0.91072,0.375 0.375,0.375 0.375,0.91072 z m 0,-3.42858 q 0,0.53572 -0.375,0.91072 -0.375,0.375 -0.91072,0.375 -0.53571,0 -0.91071,-0.375 Q 1,7.535715 1,6.999995 q 0,-0.53571 0.375,-0.91071 0.375,-0.375 0.91071,-0.375 0.53572,0 0.91072,0.375 0.375,0.375 0.375,0.91071 z M 13,9.785715 v 1.28571 q 0,0.0871 -0.0636,0.15067 -0.0636,0.0636 -0.15067,0.0636 H 4.64288 q -0.0871,0 -0.15067,-0.0636 -0.0636,-0.0636 -0.0636,-0.15067 v -1.28571 q 0,-0.0871 0.0636,-0.15067 0.0636,-0.0636 0.15067,-0.0636 h 8.14285 q 0.0871,0 0.15067,0.0636 Q 13,9.698645 13,9.785715 z M 3.57143,3.571425 q 0,0.53572 -0.375,0.91072 -0.375,0.375 -0.91072,0.375 -0.53571,0 -0.91071,-0.375 Q 1,4.107145 1,3.571425 q 0,-0.53571 0.375,-0.91071 0.375,-0.375 0.91071,-0.375 0.53572,0 0.91072,0.375 0.375,0.375 0.375,0.91071 z M 13,6.357145 v 1.28571 q 0,0.0871 -0.0636,0.15067 -0.0636,0.0636 -0.15067,0.0636 H 4.64288 q -0.0871,0 -0.15067,-0.0636 -0.0636,-0.0636 -0.0636,-0.15067 v -1.28571 q 0,-0.0871 0.0636,-0.15067 0.0636,-0.0636 0.15067,-0.0636 h 8.14285 q 0.0871,0 0.15067,0.0636 Q 13,6.270075 13,6.357145 z m 0,-3.42857 v 1.28571 q 0,0.087 -0.0636,0.15067 -0.0636,0.0636 -0.15067,0.0636 H 4.64288 q -0.0871,0 -0.15067,-0.0636 -0.0636,-0.0636 -0.0636,-0.15067 v -1.28571 q 0,-0.0871 0.0636,-0.15067 0.0636,-0.0636 0.15067,-0.0636 h 8.14285 q 0.0871,0 0.15067,0.0636 Q 13,2.841505 13,2.928575 z"/></svg>