<svg xmlns="http://www.w3.org/2000/svg" id="libre-spinner-5" viewBox="0 0 14 14"><path d="M 7,0 C 3.1338125,0 0,3.1338125 0,7 c 0,3.866187 3.1338125,7 7,7 3.866188,0 7,-3.133813 7,-7 C 14,3.1338125 10.866188,0 7,0 z m 0,3.5 c 1.932875,0 3.5,1.567125 3.5,3.5 0,1.932875 -1.567125,3.5 -3.5,3.5 C 5.067125,10.5 3.5,8.932875 3.5,7 3.5,5.067125 5.067125,3.5 7,3.5 z m 4.176375,7.676375 C 10.06075,12.292 8.577625,12.90625 7,12.90625 5.422375,12.90625 3.93925,12.292 2.823625,11.176375 1.708,10.06075 1.09375,8.577625 1.09375,7 1.09375,5.422375 1.708,3.93925 2.823625,2.823625 l 0.9279375,0.9279375 c 0,0 0,0 0,0 -1.791125,1.791125 -1.791125,4.7053125 0,6.4964375 0.8675625,0.867563 2.02125,1.345313 3.2484375,1.345313 1.2271875,0 2.3804375,-0.47775 3.248438,-1.345313 1.791125,-1.791125 1.791125,-4.7053125 0,-6.4964375 L 11.176375,2.823625 C 12.292,3.93925 12.90625,5.422375 12.90625,7 c 0,1.577625 -0.61425,3.06075 -1.729875,4.176375 z"/></svg>