<svg role="img" focusable="false" aria-hidden="true" xmlns="http://www.w3.org/2000/svg" viewBox="0 0 14 14"><path d="M 13,7.84 Q 13,8.035 12.8575,8.1775 12.715,8.32 12.52,8.32 h -1.68 q 0,1.2825 -0.5025,2.175 l 1.56,1.5675 Q 12.04,12.205 12.04,12.4 q 0,0.195 -0.1425,0.3375 -0.135,0.1425 -0.3375,0.1425 -0.2025,0 -0.3375,-0.1425 L 9.7375,11.26 Q 9.7,11.2975 9.625,11.3575 9.55,11.4175 9.31,11.57125 9.07,11.725 8.8225,11.845 8.575,11.965 8.2075,12.0625 7.84,12.16 7.48,12.16 V 5.44 H 6.52 v 6.72 Q 6.1375,12.16 5.75875,12.05875 5.38,11.9575 5.10625,11.81125 4.8325,11.665 4.61125,11.51875 4.39,11.3725 4.285,11.275 L 4.1725,11.17 2.8,12.7225 Q 2.65,12.88 2.44,12.88 2.26,12.88 2.1175,12.76 1.975,12.625 1.96375,12.42625 1.9525,12.2275 2.08,12.0775 L 3.595,10.375 Q 3.16,9.52 3.16,8.32 H 1.48 Q 1.285,8.32 1.1425,8.1775 1,8.035 1,7.84 1,7.645 1.1425,7.5025 1.285,7.36 1.48,7.36 H 3.16 V 5.155 L 1.8625,3.8575 Q 1.72,3.715 1.72,3.52 1.72,3.325 1.8625,3.1825 2.005,3.04 2.2,3.04 q 0.195,0 0.3375,0.1425 L 3.835,4.48 h 6.33 L 11.4625,3.1825 Q 11.605,3.04 11.8,3.04 q 0.195,0 0.3375,0.1425 Q 12.28,3.325 12.28,3.52 q 0,0.195 -0.1425,0.3375 L 10.84,5.155 V 7.36 h 1.68 q 0.195,0 0.3375,0.1425 Q 13,7.645 13,7.84 z M 9.4,3.52 H 4.6 Q 4.6,2.5225 5.30125,1.82125 6.0025,1.12 7,1.12 7.9975,1.12 8.69875,1.82125 9.4,2.5225 9.4,3.52 z"/></svg>