<svg xmlns="http://www.w3.org/2000/svg" viewBox="0 0 14 14" id="libre-qrcode"><path d="m 4.27273,9.727272 v 1.09091 H 3.18182 v -1.09091 h 1.09091 z m 0,-6.545454 V 4.272727 H 3.18182 V 3.181818 h 1.09091 z m 6.54545,0 V 4.272727 H 9.72727 V 3.181818 h 1.09091 z m -8.72727,8.71875 H 5.36364 V 8.636363 H 2.09091 v 3.264205 z m 0,-6.536931 H 5.36364 V 2.090909 H 2.09091 v 3.272728 z m 6.54545,0 h 3.27273 V 2.090909 H 8.63636 V 5.363637 z M 6.45455,7.545454 V 13 H 1 V 7.545454 h 5.45455 z m 4.36363,4.363637 V 13 H 9.72727 v -1.090909 h 1.09091 z m 2.18182,0 V 13 H 11.90909 V 11.909091 H 13 z m 0,-4.363637 v 3.272728 H 9.72727 V 9.727272 H 8.63636 V 13 H 7.54545 V 7.545454 h 3.27273 v 1.090909 h 1.09091 V 7.545454 H 13 z M 6.45455,1 V 6.454546 H 1 V 1 H 6.45455 z M 13,1 V 6.454546 H 7.54545 V 1 H 13 z"/></svg>