<svg xmlns="http://www.w3.org/2000/svg" id="libre-dashboard" viewBox="0 0 14 14"><path d="m 10.900462,4.493335 c -1.04862,-0.89934 -2.40948,-1.44636 -3.90126,-1.44636 -3.31316,0 -5.999163,2.686 -5.999163,6.00084 0,0.0888 0.0087,0.91837 0.01269,1.00687 v 0.89834 h 11.962933 v -0.83288 l 0.0113,-0.0655 c 0.004,-0.0888 0.013,-0.91804 0.013,-1.00687 3.4e-4,-2.94148 -2.09958,-4.55448 -2.09958,-4.55448 z m -8.44104,5.56135 c -0.005,-0.0548 0.002,-0.85125 -0.002,-0.90602 h 1.23062 v -0.3974 h -1.14413 c 0,-0.005 -0.0865,0 -0.0865,0 0.0484,-1.03026 0.44082,-2.05817 1.18187,-2.86868 l 0.0311,-0.0334 0.0554,0.0481 0.81886,0.81952 0.25714,-0.25781 -0.86995,-0.86928 c 0.78747,-0.72001 1.78666,-1.13311 2.85264,-1.18054 l 0.0618,-3.3e-4 c 0,0 0.0257,0 0.0241,0.0154 v 1.21359 h 0.32761 v -1.22862 c 0.16163,0.007 0.32327,0.0257 0.48256,0.0508 0.91537,0.12089 1.76629,0.51596 2.45524,1.14547 l -0.86828,0.86895 0.24145,0.24245 0.83388,-0.83422 0.0461,-0.0371 0.0394,0.0521 c 0.721,0.78813 1.13344,1.78666 1.18186,2.85297 h -1.22929 v 0.39741 l 1.23497,0 c 0,0 0.001,0.85526 -0.003,0.90468 l -9.15337,0.003 z m 6.15479,-2.86734 c 0,0 -1.95163,0.59845 -2.32533,0.97148 -0.37436,0.3747 -0.37436,0.98016 6.7e-4,1.35485 0.37303,0.37437 0.97915,0.37437 1.35385,0 0.37336,-0.37469 0.97081,-2.32633 0.97081,-2.32633 z"/></svg>