<svg xmlns="http://www.w3.org/2000/svg" id="libre-brand-tumblr" viewBox="0 0 14 14"><g transform="matrix(0.02525109,0,0,0.02525109,17.915885,-16.87564)"/><path d="m 11.142202,1.00077 -8.283848,0 C 1.832604,1.00077 1,1.83183 1,2.85809 l 0,8.2841 c 0,1.02575 0.832604,1.85704 1.858354,1.85704 l 8.28357,0 C 12.167674,12.99923 13,12.16794 13,11.14219 l 0,-8.2841 C 13,1.83206 12.167674,1.00077 11.142151,1.00077 Z M 7.150408,12.3673 C 6.569153,12.26619 6.053804,12.19922 5.62951,11.86591 5.225618,11.54684 4.990304,11.0532 4.92051,10.3838 4.89958,10.20151 4.88922,9.82426 4.88922,9.25515 l 0,-3.62439 -1.0635,0.0165 0,-1.06764 C 4.572471,4.50072 5.90593,3.56629 6.169678,1.59469 l 1.104609,0 0.02689,2.7936 2.40754,0.0147 -0.02611,1.2445 -2.408323,-0.0165 0,3.74257 c 0,0.32321 0.01863,0.5611 0.05507,0.71261 0.07421,0.30796 0.244607,0.40907 0.437247,0.5686 0.360965,0.29786 1.504637,0.57482 2.299213,-0.0817 l 0.109388,1.25846 c -0.329931,0.39225 -2.162175,0.68469 -3.024778,0.53578 z"/></svg>