<svg xmlns="http://www.w3.org/2000/svg" id="libre-brand-behance" viewBox="0 0 14 14"><g transform="matrix(0.02525157,0,0,0.02525327,0.53559808,0.53503661)"><path d="m 380.979,235.806 c -20.163,0 -31.785,11.51 -34.857,32.236 l 64.645,0 c -0.01,-17.797 -12.329,-32.236 -29.788,-32.236 z"/><path d="m 158.69,273.623 -47.175,0 0,49.255 44.103,0 c 15.739,0 29.419,-4.813 29.419,-25.19 -0.01,-15.555 -8.571,-24.064 -26.347,-24.064 z"/><path d="m 176.845,202.506 c 0,-13.343 -10.281,-18.166 -25.692,-18.166 l -39.65,0 0,39.966 39.65,0 c 15.749,0 25.692,-4.782 25.692,-21.801 z"/><path d="m 420.055,18.412 -328.089,0 c -40.622,0 -73.575,32.932 -73.575,73.564 l 0,328.079 c 0,40.642 32.953,73.543 73.575,73.543 l 328.1,0 c 40.601,0 73.543,-32.901 73.543,-73.543 l 0,-328.089 C 493.599,51.344 460.657,18.412 420.055,18.412 Z m -104.295,112.455 117.596,0 0,35.994 -117.596,0 0,-35.993 z m -140.953,254.976 -138.558,0 0,-264.458 133.734,0 c 64.286,0 77.988,39.23 77.988,66.294 0,26.665 -11.97,41.103 -30.116,51.856 21.913,8.12 42.404,27.034 42.404,65.915 -0.01,52.982 -42.414,80.394 -85.453,80.394 z m 170.977,-79.657 c 1.7,21.863 13.342,37.397 34.539,37.397 10.937,0 22.897,-4.444 28.375,-13.68 l 63.303,0 c -13.701,41.462 -50.995,60.743 -91.341,60.743 -56.801,0 -99.563,-36.301 -99.563,-100.382 0,-55.952 37.642,-101.488 93.757,-101.488 70.441,0 100.885,42.608 100.885,117.412 l -129.956,0 z"/></g></svg>