<svg role="img" focusable="false" aria-hidden="true" xmlns="http://www.w3.org/2000/svg" viewBox="0 0 14 14"><path d="m 11.03906,7 q 0,-0.2109 -0.14062,-0.3516 L 10.1875,5.9375 7.35937,3.1094 Q 7.21875,2.9688 7.00781,2.9688 q -0.21094,0 -0.35156,0.1406 L 5.94531,3.8203 q -0.14062,0.1406 -0.14062,0.3516 0,0.2109 0.14062,0.3515 L 7.42187,6 3.5,6 Q 3.29687,6 3.14844,6.1484 3,6.2969 3,6.5 l 0,1 Q 3,7.7031 3.14844,7.8516 3.29687,8 3.5,8 L 7.42187,8 5.94531,9.4766 Q 5.79687,9.625 5.79687,9.8281 q 0,0.2032 0.14844,0.3516 l 0.71094,0.7109 q 0.14062,0.1407 0.35156,0.1407 0.21094,0 0.35156,-0.1407 L 10.1875,8.0625 10.89844,7.3516 Q 11.03906,7.2109 11.03906,7 Z M 13,7 q 0,1.6328 -0.80469,3.0117 -0.80469,1.3789 -2.18359,2.1836 Q 8.63281,13 7,13 5.36719,13 3.98828,12.1953 2.60937,11.3906 1.80469,10.0117 1,8.6328 1,7 1,5.3672 1.80469,3.9883 2.60937,2.6094 3.98828,1.8047 5.36719,1 7,1 8.63281,1 10.01172,1.8047 11.39062,2.6094 12.19531,3.9883 13,5.3672 13,7 Z"/></svg>