<svg aria-labelledby="gui-address-book" role="img" focusable="false" aria-hidden="true" xmlns="http://www.w3.org/2000/svg" viewBox="0 0 14 14"><path d="m 1.75,6.25 1.125,0 0,1.875 -1.125,0 z m 0,-2.25 1.125,0 0,1.875 -1.125,0 z m 0,4.5 1.125,0 0,1.875 -1.125,0 z m 0,2.25 1.125,0 0,1.875 -1.125,0 z M 3.25,1 l 0,12 9,0 0,-12 -9,0 z m 4.5,3.00387 c 0.826289,0 1.496133,0.66984 1.496133,1.49613 0,0.82629 -0.669844,1.49613 -1.496133,1.49613 C 6.923711,6.99613 6.253867,6.32629 6.253867,5.5 6.253867,4.67371 6.923711,4.00387 7.75,4.00387 Z M 10,10 5.5,10 5.5,9.25 C 5.5,8.42155 6.171578,7.75 7,7.75 l 0,0 1.5,0 c 0.828469,0 1.5,0.67155 1.5,1.5 L 10,10 Z m -8.25,-8.25 1.125,0 0,1.875 -1.125,0 z"/></svg>