<svg role="img" focusable="false" aria-hidden="true" xmlns="http://www.w3.org/2000/svg" viewBox="0 0 14 14"><path d="m 11.330685,7.6726949 c -0.419881,0.002 -0.783527,0.10309 -1.087191,0.25305 -0.110593,-0.22306 -0.224936,-0.41801 -0.2436805,-0.56421 -0.022494,-0.17058 -0.046862,-0.2718 -0.020619,-0.47424 0.026243,-0.20245 0.1443335,-0.48924 0.1424595,-0.50986 -0.0019,-0.0206 -0.02624,-0.12371 -0.2680488,-0.12559 -0.2418062,-0.002 -0.449872,0.0469 -0.47424,0.1106 -0.024368,0.0637 -0.07123,0.20806 -0.099347,0.35802 -0.043113,0.21931 -0.4836124,1.00284 -0.7329165,1.41147 -0.082477,-0.15933 -0.1518318,-0.29991 -0.1668275,-0.41238 -0.022494,-0.17058 -0.046862,-0.2718 -0.020619,-0.47424 0.026243,-0.20244 0.1443339,-0.48924 0.1424594,-0.50986 -0.00187,-0.0206 -0.026243,-0.12371 -0.2680487,-0.12558 -0.2418062,-0.002 -0.449872,0.0469 -0.4742401,0.11059 -0.024368,0.0637 -0.050611,0.21369 -0.099347,0.35802 -0.048736,0.14434 -0.6354442,1.44896 -0.7891505,1.78824 -0.078728,0.17245 -0.1462084,0.31116 -0.1949445,0.40489 -0.048736,0.0937 -0.00375,0.006 -0.0075,0.0169 -0.041238,0.0806 -0.065606,0.12559 -0.065606,0.12559 l 0,0.002 c -0.031866,0.06 -0.067481,0.11434 -0.084351,0.11434 -0.011247,0 -0.035615,-0.15745 0.00562,-0.37301 0.0881,-0.45363 0.2961657,-1.15843 0.2942912,-1.18279 -0.00187,-0.0131 0.039364,-0.13496 -0.136836,-0.20057 -0.1705765,-0.0619 -0.2324339,0.0412 -0.2474296,0.0412 -0.014996,0 -0.026243,0.0375 -0.026243,0.0375 0,0 0.1893212,-0.79478 -0.3636465,-0.79478 -0.3449019,0 -0.8247654,0.37864 -1.0609482,0.72167 -0.1480828,0.0806 -0.4686166,0.25493 -0.8060206,0.4405 -0.1293382,0.0712 -0.2624254,0.14434 -0.3880146,0.21369 -0.00937,-0.009 -0.01687,-0.0187 -0.026243,-0.0281 -0.6710591,-0.71604 -1.9100815,-1.22215 -1.8575965,-2.18375 0.018745,-0.35052 0.140585,-1.27089 2.3824472,-2.38807 1.8369774,-0.91474 3.3065593,-0.66356 3.5596123,-0.10497 0.3636465,0.79665 -0.7854016,2.27935 -2.6936087,2.49304 -0.7272931,0.0806 -1.1096843,-0.20057 -1.2052821,-0.30554 -0.099347,-0.11059 -0.1143424,-0.11621 -0.1518318,-0.0956 -0.061857,0.0337 -0.022494,0.13122 0,0.18933 0.056234,0.14808 0.2905424,0.4105 0.6898038,0.54172 0.3505252,0.11434 1.2034076,0.17807 2.2343643,-0.22119 1.1584204,-0.44612 2.0600389,-1.68889 1.7957391,-2.72922 -0.2699232,-1.0572 -2.0225496,-1.40398 -3.6814526,-0.8154 -0.987844,0.35053 -2.05629,0.90162 -2.8248213,1.61954 -0.9128653,0.85476 -1.05907373,1.59892 -0.9990908,1.91008 0.2136892,1.10406 1.7357562,1.82386 2.3449578,2.35621 -0.029991,0.0169 -0.058108,0.0319 -0.084351,0.0469 -0.305538,0.15183 -1.4658329,0.75916 -1.7563753,1.4002301 -0.3280316,0.72729 0.05436,1.24839 0.3055381,1.31962 0.7835271,0.21744 1.5857988,-0.17432 2.0169262,-0.81727 0.4311273,-0.6429401 0.3786423,-1.4827001 0.1799488,-1.8650901 -0.00187,-0.006 -0.00562,-0.009 -0.0075,-0.015 0.078728,-0.0469 0.1593297,-0.0937 0.2399318,-0.14058 0.1555807,-0.0919 0.3074125,-0.1762 0.4404996,-0.24931 -0.074979,0.20245 -0.1293382,0.44613 -0.1574552,0.79853 -0.03374,0.41238 0.1368361,0.9466001 0.3580232,1.1565401 0.097472,0.0918 0.2155636,0.0937 0.2886678,0.0937 0.2586765,0 0.3748934,-0.21369 0.5042316,-0.4686201 0.1593297,-0.31116 0.2999147,-0.67293 0.2999147,-0.67293 0,0 -0.1761999,0.9784701 0.305538,0.9784701 0.1761999,0 0.3523998,-0.22681 0.4311274,-0.3430301 l 0,0.002 c 0,0 0.00375,-0.007 0.013121,-0.0225 0.018745,-0.0281 0.028117,-0.045 0.028117,-0.045 l 0,-0.006 c 0.07123,-0.12184 0.2268105,-0.40113 0.4611189,-0.86225 0.3036636,-0.59608 0.5942059,-1.34025 0.5942059,-1.34025 0,0 0.026243,0.18183 0.1162169,0.48362 0.052485,0.17807 0.1630786,0.37301 0.2511786,0.56234 -0.07123,0.0975 -0.1143425,0.1537 -0.1143425,0.1537 0,0 0,0.002 0.00187,0.004 -0.056234,0.075 -0.1199659,0.15558 -0.1855722,0.23431 -0.2399318,0.28492 -0.5248507,0.61107 -0.56234,0.7048 -0.044987,0.11059 -0.03374,0.19307 0.052485,0.2568001 0.063732,0.0487 0.1761999,0.0562 0.2942913,0.0469 0.2155637,-0.015 0.3673955,-0.0675 0.4404997,-0.1012201 0.1162169,-0.0412 0.2511785,-0.10684 0.3786422,-0.19869 0.2343084,-0.17245 0.3767678,-0.41988 0.3636466,-0.74604 -0.0075,-0.17995 -0.065606,-0.3599 -0.1368361,-0.5286 0.020619,-0.03 0.043113,-0.0619 0.063732,-0.0937 0.3711444,-0.54172 0.6579378,-1.13593 0.6579378,-1.13593 0,0 0.026243,0.18182 0.1162169,0.48361 0.044987,0.15183 0.1330872,0.31866 0.2136892,0.48174 -0.3486508,0.28304 -0.5642144,0.61108 -0.6391931,0.82664 -0.1387105,0.39926 -0.029991,0.57921 0.1743254,0.62045 0.091849,0.0187 0.2230615,-0.0244 0.3205338,-0.0656 0.1218403,-0.0412 0.2680487,-0.10684 0.4048848,-0.20806 0.234308,-0.17245 0.461119,-0.41426 0.446123,-0.74229 -0.0056,-0.14809 -0.04686,-0.29617 -0.101221,-0.43863 0.294291,-0.12371 0.676682,-0.19119 1.164043,-0.13496 1.044078,0.12184 1.248395,0.77416 1.209031,1.04595 -0.03936,0.27367 -0.258676,0.42363 -0.33178,0.46862 -0.0731,0.045 -0.0956,0.0619 -0.08998,0.0956 0.0094,0.0487 0.04311,0.0469 0.104971,0.0356 0.08622,-0.015 0.547344,-0.22118 0.567963,-0.72542 0.02999,-0.63732 -0.582959,-1.33837 -1.668275,-1.33274 z M 3.2835993,10.385045 c -0.3449018,0.37677 -0.8285142,0.51923 -1.03658,0.39926 -0.2230616,-0.12934 -0.1349616,-0.68418 0.2905423,-1.0853101 0.2586764,-0.24368 0.5923315,-0.46862 0.8135185,-0.60733 0.050611,-0.03 0.1237148,-0.075 0.2136892,-0.12934 0.014996,-0.009 0.022494,-0.0131 0.022494,-0.0131 0.01687,-0.0112 0.035615,-0.0206 0.054359,-0.0319 0.1555807,0.56984 0.00562,1.0722 -0.3580232,1.4677101 z M 5.8028826,8.6717849 c -0.1199659,0.29429 -0.3730189,1.04408 -0.5267252,1.00471 -0.1312126,-0.0337 -0.2118147,-0.60545 -0.026242,-1.16779 0.093723,-0.28304 0.2924168,-0.62045 0.4105082,-0.75166 0.1893212,-0.21182 0.397387,-0.2793 0.4461231,-0.19495 0.065606,0.1106 -0.2286849,0.92599 -0.3036636,1.10969 z m 2.080658,0.99347 c -0.050611,0.0262 -0.097472,0.0431 -0.1199658,0.03 -0.01687,-0.009 0.020619,-0.045 0.020619,-0.045 0,0 0.2605509,-0.2793 0.3636465,-0.40676 0.059983,-0.075 0.1293382,-0.16308 0.2043169,-0.26055 0,0.009 0.00187,0.0187 0.00187,0.03 -0.00187,0.33553 -0.3242828,0.56234 -0.4704912,0.65232 z m 1.6045435,-0.36553 c -0.037489,-0.0262 -0.031866,-0.11434 0.093723,-0.38801 0.048736,-0.10684 0.1612041,-0.28679 0.3561486,-0.45924 0.022494,0.0712 0.035615,0.13871 0.035615,0.20244 -0.00187,0.42175 -0.3036636,0.57921 -0.4854869,0.64481 z"/></svg>