<svg xmlns="http://www.w3.org/2000/svg" viewBox="0 0 14 14" id="libre-settings"><path d="m 5.2119132,8.903985 0,-0.32334 c 0.1414959,-0.0589 0.2689294,-0.13987 0.3893438,-0.23177 l 0.28609,0.16473 c 0.047924,0.0281 0.1015353,0.0426 0.1566234,0.0426 0.026987,0 0.053975,-0.004 0.080139,-0.0107 0.080139,-0.0219 0.1492896,-0.0745 0.1902668,-0.146 l 0.3818648,-0.6596 c 0.08636,-0.14949 0.03466,-0.34154 -0.1153557,-0.42778 L 6.2936577,7.145915 c 0.00864,-0.0741 0.02188,-0.14694 0.02188,-0.22338 0,-0.0766 -0.01324,-0.14989 -0.02188,-0.22393 l 0.2872276,-0.1657 c 0.071958,-0.042 0.1242386,-0.1102 0.1465546,-0.1907 0.021566,-0.0808 0.00937,-0.16575 -0.031199,-0.23778 L 6.3143761,5.445185 c -0.057339,-0.10043 -0.1628922,-0.15656 -0.2711562,-0.15656 -0.053612,0 -0.1067392,0.0133 -0.1558489,0.042 l -0.28609,0.16509 C 5.4808666,5.404015 5.3530459,5.322785 5.2119372,5.263625 l 0,-0.32239 c 0,-0.17333 -0.1402616,-0.31366 -0.3134163,-0.31366 l -0.7611398,0 c -0.1735419,0 -0.3134646,0.14033 -0.3134646,0.31366 l 0,0.32239 C 3.683195,5.322825 3.5545997,5.404055 3.4351051,5.495715 L 3.1486763,5.330265 c -0.047754,-0.0278 -0.1012691,-0.0417 -0.1555827,-0.0417 -0.027326,0 -0.055064,0.004 -0.082075,0.0107 -0.080139,0.0213 -0.1480552,0.0735 -0.1902668,0.1454 l -0.3810661,0.65967 c -0.085658,0.14999 -0.034805,0.34174 0.1148717,0.42848 l 0.2876149,0.1657 c -0.00857,0.074 -0.021929,0.14731 -0.021929,0.22394 0,0.0764 0.013385,0.14924 0.021929,0.22311 l -0.2876149,0.16592 c -0.1496769,0.0863 -0.2005293,0.27842 -0.1148717,0.42831 l 0.3810177,0.6596 c 0.042212,0.0715 0.1101519,0.12412 0.1902668,0.146 0.026624,0.007 0.053975,0.0107 0.080889,0.0107 0.055161,0 0.1086755,-0.0145 0.1567686,-0.0426 l 0.285727,-0.16473 c 0.1202207,0.0919 0.2487918,0.17294 0.3895375,0.23178 l 0,0.32334 c 0,0.17274 0.1399227,0.31322 0.3134646,0.31322 l 0.7611398,0 c 0.1731547,7e-5 0.3134163,-0.14043 0.3134163,-0.31318 z M 3.6534971,6.922515 c 0,-0.47776 0.3873107,-0.86464 0.8636433,-0.86464 0.4783657,0 0.865628,0.38685 0.865628,0.86464 0,0.47694 -0.3872623,0.86381 -0.865628,0.86381 -0.4763326,-2e-5 -0.8636433,-0.38687 -0.8636433,-0.86381 z m 3.5276206,-3.81984 c -0.060122,-0.0352 -0.1289583,-0.0527 -0.1972617,-0.0527 -0.034466,0 -0.068788,0.004 -0.1023825,0.0133 -0.1012691,0.0273 -0.1868298,0.0932 -0.2395701,0.18421 l -0.4799632,0.83049 c -0.1089175,0.18894 -0.044898,0.43005 0.1446182,0.53943 l 0.3623565,0.20891 c -0.00472,0.0326 -0.00903,0.0648 -0.013385,0.0973 0.070724,0.0637 0.1348157,0.13443 0.1829572,0.219 l 0.3818164,0.66064 c 0.1223507,0.2128 0.1543483,0.45978 0.090232,0.69913 -0.044584,0.16178 -0.1297571,0.30541 -0.248574,0.4197 0.055161,0.053 0.1012207,0.11395 0.1414475,0.1786 l 0.3376201,-0.1948 c 0.1512744,0.11509 0.3118672,0.2175 0.4900805,0.29207 l 0,0.40706 c 0,0.21767 0.1770272,0.39426 0.3951043,0.39426 l 0.9590309,0 c 0.2176414,0 0.3946445,-0.17659 0.3946445,-0.39426 l 0,-0.40706 c 0.1782133,-0.0746 0.3388547,-0.177 0.4897417,-0.29207 l 0.360977,0.20794 c 0.06065,0.0349 0.129055,0.053 0.197746,0.053 0.03367,0 0.06726,-0.005 0.10122,-0.0133 0.100833,-0.0271 0.188016,-0.0934 0.240054,-0.18421 l 0.479455,-0.83066 c 0.109063,-0.18876 0.04458,-0.43042 -0.144618,-0.53945 l -0.362163,-0.20927 c 0.01201,-0.0933 0.02926,-0.18485 0.02926,-0.28159 0,-0.0961 -0.01726,-0.1885 -0.02926,-0.28193 l 0.362163,-0.2089 c 0.09147,-0.0523 0.157131,-0.13874 0.183659,-0.23952 0.02737,-0.10139 0.01329,-0.20907 -0.03904,-0.29991 l -0.479455,-0.83027 c -0.07312,-0.12663 -0.206023,-0.19774 -0.341976,-0.19774 -0.06726,0 -0.134816,0.017 -0.197044,0.0529 l -0.360977,0.20791 C 10.118744,3.195575 9.9572559,3.093195 9.7798898,3.018955 l 0,-0.40667 c 0,-0.21805 -0.1770031,-0.39511 -0.3946445,-0.39511 l -0.9590309,0 c -0.2180771,0 -0.3951043,0.17706 -0.3951043,0.39511 l 0,0.40665 C 7.8533567,3.093135 7.692304,3.195545 7.5410296,3.310805 L 7.1811177,3.102675 Z m 1.7245759,0.5731 c 0.7898456,0 1.4322414,0.64252 1.4322414,1.43246 0,0.79002 -0.6423958,1.43268 -1.4322414,1.43268 -0.7897489,0 -1.4322412,-0.64269 -1.4322412,-1.43268 0,-0.78994 0.6424923,-1.43246 1.4322412,-1.43246 z m 3.1001794,-1.86675 -2.0320858,0 c 0.2316798,0.17057 0.3904328,0.43592 0.4090458,0.74052 0.137599,-0.0685 0.290059,-0.1047 0.444795,-0.1047 0.197746,0 0.385713,0.0645 0.546717,0.17056 l 0.631528,0 c 0.103521,0 0.187629,0.0844 0.187629,0.18799 l 0,1.01642 c 0.114121,0.22299 0.144086,0.47464 0.07927,0.713 -0.01881,0.0705 -0.04652,0.1368 -0.07927,0.20029 l 0,0.75404 c 0.140964,0.27779 0.151226,0.61394 0,0.90874 l 0,2.25726 c 0,0.10354 -0.08411,0.18799 -0.187629,0.18799 l -5.2675171,0 c -0.1187927,0.13752 -0.2778365,0.23991 -0.4552026,0.28797 -0.078227,0.0213 -0.1587534,0.0319 -0.2392071,0.0319 -0.086795,0 -0.1719445,-0.0121 -0.2539957,-0.0356 -0.010625,0.0409 -0.025099,0.0801 -0.040275,0.1188 -0.087497,0.21786 -0.2564161,0.39292 -0.4689989,0.49121 l 0,0.53268 c -0.6326171,0.0685 -1.1282161,0.59949 -1.1282161,1.24977 l 0,0.37047 c 0,0.16705 0.1357113,0.30269 0.302113,0.30269 l 5.0913375,0 c 0.1664017,0 0.3019435,-0.13561 0.3019435,-0.30269 l 0,-0.37047 c 0,-0.65028 -0.4954779,-1.18122 -1.1280708,-1.24977 l 0,-0.62058 3.2861143,0 C 12.553801,9.647465 13,9.201555 13,8.653115 l 0,-5.84974 c -2.4e-5,-0.54849 -0.446223,-0.99435 -0.994127,-0.99435 z m -2.7625593,9.70879 0,0.068 -4.4862643,0 0,-0.068 c 0,-0.36284 0.2954569,-0.6583 0.6588542,-0.6583 l 3.1685317,0 c 0.3635667,0 0.6588784,0.29546 0.6588784,0.6583 z M 3.2458551,9.125185 c -0.082075,0.0238 -0.1676362,0.0358 -0.2539957,0.0358 -0.080042,0 -0.1601571,-0.0104 -0.2406593,-0.0321 -0.1786005,-0.0487 -0.3344494,-0.14909 -0.4541618,-0.28781 l -0.3028392,0 c -0.1036168,0 -0.1875801,-0.0844 -0.1875801,-0.18799 l 0,-0.63034 c -0.1540094,-0.28275 -0.1433839,-0.61238 0,-0.87797 l 0,-0.44584 c -0.142682,-0.26479 -0.1531623,-0.59328 0,-0.877 l 0,-3.01859 c 0,-0.10355 0.083963,-0.18799 0.1875801,-0.18799 l 4.4377355,0 c 0.089216,-0.059 0.1860796,-0.10783 0.2932302,-0.13659 0.083963,-0.0223 0.1710731,-0.034 0.2586912,-0.034 0.1550501,0 0.3078977,0.0362 0.4442625,0.10432 0.019145,-0.30463 0.1782132,-0.56954 0.4095783,-0.74011 l -5.8434977,0 C 1.4462956,1.809025 1,2.254885 1,2.803375 l 0,5.84974 c 0,0.54844 0.4462956,0.99435 0.9941991,0.99435 l 1.6092685,0 C 3.429127,9.522225 3.2989826,9.339365 3.2458551,9.125185 Z m 5.6598385,-2.9876 c 0.5674118,0 1.0294158,-0.46148 1.0294158,-1.02935 0,-0.56763 -0.462004,-1.02912 -1.0294158,-1.02912 -0.5677992,0 -1.028956,0.46147 -1.028956,1.02912 0,0.56787 0.4611568,1.02935 1.028956,1.02935 z"/></svg>