<svg xmlns="http://www.w3.org/2000/svg" id="libre-pin" viewBox="0 0 14 14"><g transform="matrix(0.02290824,0,0,0.02290824,1.0000003,0.99998861)"><path d="M 519.572,109.974 413.849,4.327 c -5.737,-5.737 -15.07,-5.737 -20.808,0 l -12.164,12.164 c -5.737,5.738 -5.737,15.071 0,20.808 l 4.896,4.896 -120.564,120.64 C 236.14,146.923 199.037,151.207 174.48,175.763 l -43.452,43.452 c -5.737,5.737 -5.737,15.07 0,20.808 l 53.321,53.32 L 3.962,492.704 c -5.432,6.043 -5.278,15.605 0.459,21.344 l 5.278,5.278 c 5.738,5.737 15.3,6.043 21.344,0.459 l 199.206,-180.158 52.861,52.862 c 5.737,5.737 15.07,5.737 20.808,0 l 43.452,-43.452 c 24.48,-24.48 28.917,-61.2 13.312,-90.271 l 120.641,-120.64 4.896,4.896 c 5.737,5.737 15.07,5.737 20.809,0 l 12.163,-12.164 c 6.119,-5.737 6.119,-15.07 0.381,-20.884 z"/></g></svg>