<svg role="img" focusable="false" aria-hidden="true" xmlns="http://www.w3.org/2000/svg" viewBox="0 0 14 14"><path d="M 9.52535,5.25901 11.67318,3.111179 10.88882,2.326817 8.74099,4.474649 z m 3.27673,-2.147831 q 0,0.197923 -0.13195,0.329871 l -9.427,9.427001 Q 3.11118,13 2.91326,13 2.71533,13 2.58338,12.868051 L 1.131949,11.416616 Q 1,11.284667 1,11.086744 1,10.888821 1.131949,10.756872 l 9.427001,-9.427 q 0.13195,-0.131949 0.32987,-0.131949 0.19792,0 0.32987,0.131949 l 1.45144,1.451435 q 0.13195,0.131949 0.13195,0.329872 z M 2.89859,1.718387 3.61698,1.938302 2.89859,2.158216 2.67868,2.876603 2.45877,2.158216 1.740379,1.938302 2.45877,1.718387 2.67868,1 z M 5.46426,2.905926 6.90104,3.345754 5.46426,3.785583 5.02443,5.222358 4.58461,3.785583 3.14783,3.345754 4.58461,2.905926 5.02443,1.469151 z M 12.28161,6.409896 13,6.62981 12.28161,6.849725 12.0617,7.568112 11.84178,6.849725 11.1234,6.62981 11.84178,6.409896 12.0617,5.691509 z M 7.5901,1.718387 8.30849,1.938302 7.5901,2.158216 7.37019,2.876603 7.15028,2.158216 6.43189,1.938302 7.15028,1.718387 7.37019,1 z"/></svg>