<svg aria-labelledby="gui-plugin-loremipsum" role="img" focusable="false" aria-hidden="true" xmlns="http://www.w3.org/2000/svg" viewBox="0 0 14 14"><path d="m 8.723427,10.008177 c 0.31103,-2.6465002 0.26145,-2.9171002 -0.42943,-2.3437002 -0.47899,0.3975 -0.78107,0.4395 -0.78107,0.1084 0,-0.2968 0.72779,-1.058 1.6173,-1.6914 l 1.61729,-1.1516 -0.34186,2.9087 c -0.34448,2.9309002 -0.0812,3.4439002 1.1646,2.2686002 0.54381,-0.5130002 0.63853,-0.5078002 0.47761,0.026 -0.1104,0.3664 -0.98269,1.1613 -1.93841,1.7664 l -1.73767,1.1003 0.35164,-2.992 z m -6.84211,1.0862 c 0,-0.6538 0.37915,-2.3015002 0.84256,-3.6615002 0.62803,-1.8432 0.70145,-2.6987 0.28837,-3.3602 -0.43953,-0.7038 -0.31575,-1.1114 0.59834,-1.9701 1.26364,-1.18709998 2.84314,-1.53729998 1.99723,-0.4428 -0.62949,0.8145 -2.19061,6.4936 -2.19061,7.969 0,1.2666002 0.17785,1.3332002 1.56956,0.5884002 1.65088,-0.8835002 1.10741,-0.038 -0.67362,1.0476 -2.13027,1.2988 -2.43183,1.2777 -2.43183,-0.1704 z m 8.46055,-9.0294002 c -0.18371,-0.2972 0.0361,-0.6824 0.48847,-0.856 1.12627,-0.43219998 1.47663,0.043 0.58028,0.7867 -0.50458,0.4187 -0.83937,0.4405 -1.06875,0.069 z"/></svg>