<svg xmlns="http://www.w3.org/2000/svg" viewBox="0 0 14 14" id="libre-brand-twitter"><path d="m 13,3.278335 c -0.441495,0.19585 -0.91599,0.32823 -1.41399,0.38767 0.508223,-0.30469 0.89866,-0.78713 1.082446,-1.36206 -0.475718,0.28215 -1.002582,0.48702 -1.563378,0.59741 -0.449068,-0.47848 -1.088913,-0.77741 -1.797029,-0.77741 -1.589127,0 -2.757321,1.48299 -2.398166,3.02293 -2.046116,-0.10264 -3.860213,-1.08283 -5.074456,-2.57226 -0.644912,1.10631 -0.334514,2.55411 0.761884,3.2869 -0.403515,-0.0128 -0.783233,-0.12353 -1.115097,-0.30798 -0.02671,1.14064 0.79066,2.20721 1.974611,2.44511 -0.346485,0.0943 -0.726,0.11587 -1.111747,0.0421 0.313223,0.97806 1.222485,1.68984 2.299805,1.70968 -1.035058,0.81113 -2.338689,1.17344 -3.644883,1.0195 1.089495,0.69851 2.383602,1.10613 3.773913,1.10613 4.570835,0 7.153252,-3.86071 6.997602,-7.32335 0.481077,-0.3471 0.898427,-0.7807 1.228485,-1.27442 z"/></svg>