<svg xmlns="http://www.w3.org/2000/svg" viewBox="0 0 14 14" id="libre-brand-digital-ocean"><path d="m 10.928838,5.8803265 0.67185,0 0,0.671849 -0.67185,0 0,-0.671849 z m -2.3649265,1.371505 0.678577,0 0,0.67185 -0.678577,0 0,-0.67185 z m 1.42084,-0.06324 0.6718495,0 0,0.671849 -0.6718495,0 0,-0.671849 z m -0.448049,-1.329347 0.6718495,0 0,0.67185 -0.6718495,0 0,-0.67185 z m 2.1828385,0.790702 1.210494,0 0,1.210494 -1.210494,0 0,-1.210494 z m -3.5121855,-2.098969 1.210495,0 0,1.210495 -1.210495,0 0,-1.210495 z m 2.5115875,3.351174 0.699656,0 0,0.699656 -0.699656,0 0,-0.699656 z m -3.6099576,-2.518762 0.9095531,0 0,0.909553 -0.9095531,0 0,-0.909553 z m 2.9035736,4.240095 c 0.979519,-0.04216 1.350426,-0.727911 1.350426,-0.727911 0,0 -0.307669,0.357004 -1.322171,0.448049 -1.0216775,0.09104 -2.0989685,-0.461953 -2.0989685,-0.461953 0,0.02108 1.091643,0.776798 2.0711615,0.741815 z m 2.939901,-1.08357 C 12.99103,8.4484245 13,8.3923595 13,8.3923595 c 0,0 -0.01256,0.05606 -0.04754,0.147555 z m -1.855435,1.244581 C 9.3478855,10.218192 7.9135895,9.2525775 5.6464349,8.5461935 4.1560776,8.0842415 2.917776,8.7278355 2.2459266,9.2247705 c -0.349828,0.258783 -0.5458215,0.475856 -0.5458215,0.475856 0,0.0072 0.2027209,-0.112125 0.5458215,-0.258783 0.7135596,-0.300942 2.0361788,-0.69248 3.3933324,-0.195994 2.0218265,0.7557185 3.6104055,1.0844665 5.331738,0.7907005 1.370609,-0.2341145 1.84512,-1.1378375 1.981463,-1.4966355 -0.120647,0.286142 -0.530125,0.915832 -1.855435,1.244581 z m -7.4867689,-2.88967 c 0,-0.0139 -0.00718,-0.02108 -0.00718,-0.03498 0.00718,0.02108 0.013903,0.03498 0.013903,0.03498 0,0 -0.1188518,-1.014501 0.6086112,-1.52534 0.7207355,-0.510839 1.7912991,-0.195993 1.7912991,-0.195993 0,0 -1.1266258,-0.664674 -1.9729406,-0.06279 -0.013903,0.0139 -0.034983,0.02781 -0.056062,0.04216 0.357004,-0.42697 0.8956495,-0.699656 1.5042607,-0.699656 0.6157871,0 1.1683361,0.279862 1.5253401,0.720735 l 0.8046049,0 c -0.3987146,-0.87457 -1.2876367,-1.483181 -2.322769,-1.483181 -1.3993124,0 -2.5398416,1.126626 -2.546569,2.518762 0,0.153835 0.013903,0.308118 0.042159,0.454777 0.2309763,0.02108 0.4408731,0.104948 0.6157871,0.230976 z m -1.3643295,2.112874 c 0.1260279,-0.083869 0.2516072,-0.16101 0.3709075,-0.2238 C 2.5607719,8.7489165 2.5047097,8.7067575 2.4558235,8.6578715 2.3647785,8.5668265 2.2948129,8.4690545 2.2459266,8.3708335 l 0,-0.0067 C 2.0221264,7.9232325 2.0988195,7.4262975 2.0988195,7.4262975 c 0,0 -0.3848109,0.881746 0.1471071,1.406488 l 0,0.0072 0.013903,0.0072 c 0.021079,0.02108 0.048886,0.04216 0.069966,0.06279 -0.027807,-0.0139 -0.056062,-0.02826 -0.083869,-0.04216 -0.357004,-0.209897 -0.5947077,-0.58798 -0.5947077,-1.021677 0,-0.440874 0.2377037,-0.818508 0.5947077,-1.021678 0.1610107,-0.09105 0.3498281,-0.147107 0.552549,-0.153834 -0.027807,-0.147108 -0.042159,-0.300942 -0.042159,-0.461953 0,-0.09777 0.00718,-0.188817 0.013903,-0.279862 -0.18209,0.0072 -0.3570041,0.04216 -0.5247422,0.09777 -0.7274622,0.244835 -1.2454769,0.923411 -1.2454769,1.728016 0,0.643594 0.3359247,1.210495 0.8467633,1.539244 0.1188519,-0.08387 0.2587831,-0.188818 0.3987143,-0.28659 z M 1.7211845,10.029377 C 3.3792799,9.4835555 5.8491558,9.6373905 7.5355065,10.309239 6.3182842,9.6445665 3.8762152,8.6439685 1.7211845,10.029377 Z"/></svg>