<svg xmlns="http://www.w3.org/2000/svg" id="libre-strikethrough" viewBox="0 0 14 14"><g transform="matrix(0.00631579,0,0,0.00631579,0.53263117,0.53263113)"><path d="M 462.02375,1868.9022 C 573.12698,1923.1619 743.65794,1949 862.51256,1949 c 403.07224,0 723.46364,-191.2015 723.46364,-560.6844 0,-222.2065 -121.4388,-387.5699 -408.2402,-478.00276 -224.79025,-69.7625 -312.63964,-149.86048 -312.63964,-294.55307 0,-139.525 118.85494,-227.3743 304.88824,-227.3743 118.8547,0 258.38,41.34085 353.9805,103.35196 l 25.838,-307.47206 C 1472.2892,137.75703 1330.18,99.000005 1175.1522,99.000005 c -343.64488,0 -669.20387,160.195905 -669.20387,534.846355 0,253.21203 118.85503,413.40794 405.65641,503.84074 201.53606,64.5949 307.47206,147.2767 307.47206,286.8017 0,144.6926 -139.5253,235.1257 -348.81284,235.1257 -111.10324,0 -266.13139,-31.0056 -382.40223,-90.433 l -25.83798,299.7207"/><path d="m 1910.9217,956.60866 c 9.5809,0 17.451,4.55403 23.6102,13.66207 6.1592,9.1079 9.2387,20.74594 9.2387,34.91417 l 0,97.1523 c 0,14.1681 -3.0795,25.8061 -9.2387,34.9142 -6.1592,9.108 -14.0293,13.662 -23.6102,13.662 l -1773.8434,0 c -9.58093,0 -17.451,-4.554 -23.61018,-13.662 -6.15917,-9.1081 -9.23876,-20.7461 -9.23876,-34.9142 l 0,-97.1523 c 0,-14.16823 3.07959,-25.80627 9.23876,-34.91417 6.15918,-9.10804 14.02925,-13.66207 23.61018,-13.66207 z"/></g></svg>