<svg role="img" focusable="false" aria-hidden="true" xmlns="http://www.w3.org/2000/svg" viewBox="0 0 14 14"><path d="M 3.7049962,4.1783 C 2.2774163,5.06695 1.4615038,6.32976 1.4615038,6.32976 c 0,0 0.2114289,-2.6479 2.2434924,-4.19729 C 4.5131722,1.51626 5.6180914,1 7.1042168,1 7.6625073,1 8.8332469,1.0971 9.8877906,1.74729 10.942334,2.39745 11.368394,2.94206 11.84349,3.7394 c 0.205005,0.34406 0.371973,0.78607 0.476128,1.21242 0.195147,0.79883 0.218878,1.7542 0.218878,1.7542 l 0,1.25852 -7.5366082,0 c 0,0 -0.1840658,2.5321 3.2819629,2.5321 1.20544,0 1.6275464,-0.18937 2.0240163,-0.30677 0.620665,-0.1838 1.21998,-0.59348 1.21998,-0.59348 l 0.0011,2.52987 c 0,0 -1.418514,0.87374 -3.561515,0.87374 C 7.3639482,13 6.7279627,12.9494 6.1146171,12.75039 5.5786606,12.5765 4.4562184,12.10747 3.7049542,11.00821 3.4392044,10.61936 3.1512414,10.10193 3.0086154,9.59639 2.8544238,9.04985 2.8563151,8.5189 2.8563151,8.22639 c 0,-1.09404 0.3737746,-2.13857 1.0223703,-2.89368 0.8401266,-0.97809 1.9020133,-1.4087 1.9020133,-1.4087 0,0 -0.3458849,0.40325 -0.558643,0.90529 C 5.0092976,5.33135 4.9510971,5.83647 4.9510971,5.83647 l 4.2556019,0 c 0,0 0.2488975,-2.54292 -2.4079815,-2.54292 -1.0010981,0 -2.2306373,0.34747 -3.0937633,0.88475 z"/></svg>