<svg xmlns="http://www.w3.org/2000/svg" viewBox="0 0 14 14" id="libre-brand-google-analytics"><path d="m 13,11.940296 c 0,0.58262 -0.47654,1.05916 -1.05916,1.05916 l -9.8805925,0 c -0.5826193,0 -1.0591595,-0.47654 -1.0591595,-1.05916 l 0,-9.880592 c 0,-0.58262 0.4765402,-1.05916 1.0591595,-1.05916 l 9.8805925,0 c 0.58262,0 1.05916,0.47654 1.05916,1.05916 l 0,9.880592 z M 13,4.770434 11.916361,4.040392 c 0.02176,-0.09357 0.03482,-0.190943 0.03482,-0.291582 0,-0.70393 -0.570651,-1.275126 -1.275125,-1.275126 -0.704475,0 -1.275126,0.570652 -1.275126,1.275126 0,0.276894 0.08921,0.532572 0.239358,0.74201 L 7.297299,8.073575 c -0.0952,-0.02285 -0.194751,-0.03645 -0.297022,-0.03645 -0.313885,0 -0.600571,0.113695 -0.823065,0.301917 L 4.6088671,7.436557 c 0.00816,-0.05766 0.0136,-0.115872 0.0136,-0.175711 0,-0.70393 -0.5706514,-1.275126 -1.2751258,-1.275126 -0.7044743,0 -1.2751258,0.570652 -1.2751258,1.275126 0,0.174623 0.03536,0.341085 0.099007,0.49286 L 1,8.840065 1,9.996056 2.7396981,8.382021 c 0.1806065,0.09792 0.3873249,0.153407 0.6070991,0.153407 0.3372773,0 0.6430029,-0.131647 0.8709371,-0.345982 L 5.747994,9.070175 C 5.732762,9.148515 5.724602,9.229022 5.724602,9.31171 c 0,0.70393 0.570652,1.274581 1.275126,1.274581 0.704474,0 1.275126,-0.570651 1.275126,-1.274581 0,-0.293214 -0.100095,-0.562492 -0.266558,-0.777914 l 2.326669,-3.557732 c 0.108799,0.02992 0.222495,0.04733 0.340542,0.04733 0.295389,0 0.566299,-0.101183 0.782809,-0.269822 l 1.54114,1.038488 0,-1.021624 z"/></svg>