<svg xmlns="http://www.w3.org/2000/svg" id="libre-spinner-8" viewBox="0 0 14 14"><path d="M 7,0 C 3.1889375,0 0.08925,3.0454375 0.0021875,6.8355 0.083125,3.528875 2.5974375,0.875 5.6875,0.875 c 3.1412498,0 5.6875,2.74225 5.6875,6.125 0,0.7249375 0.587562,1.3125 1.3125,1.3125 C 13.412438,8.3125 14,7.7249375 14,7 14,3.1338125 10.866187,0 7,0 z m 0,14 c 3.811062,0 6.91075,-3.045437 6.997813,-6.8355 C 13.916875,10.471125 11.402562,13.125 8.3125,13.125 5.1712502,13.125 2.625,10.38275 2.625,7 2.625,6.2750625 2.0374375,5.6875 1.3125,5.6875 0.58756249,5.6875 0,6.2750625 0,7 c 0,3.866188 3.1338125,7 7,7 z"/></svg>