<svg role="img" focusable="false" aria-hidden="true" xmlns="http://www.w3.org/2000/svg" viewBox="0 0 14 14"><path d="m 11.03125,7.0078 q 0,-0.2109 -0.14063,-0.3515 L 10.17969,5.9453 Q 10.03906,5.8047 9.82812,5.8047 q -0.21093,0 -0.35156,0.1406 L 8,7.4219 8,3.5 Q 8,3.2969 7.85156,3.1484 7.70312,3 7.5,3 l -1,0 Q 6.29687,3 6.14844,3.1484 6,3.2969 6,3.5 L 6,7.4219 4.52344,5.9453 Q 4.375,5.7969 4.17187,5.7969 q -0.20312,0 -0.35156,0.1484 l -0.71094,0.711 q -0.14062,0.1406 -0.14062,0.3515 0,0.211 0.14062,0.3516 l 2.82813,2.8281 0.71094,0.7109 Q 6.78906,11.0391 7,11.0391 q 0.21094,0 0.35156,-0.1407 L 8.0625,10.1875 10.89062,7.3594 Q 11.03125,7.2188 11.03125,7.0078 Z M 13,7 q 0,1.6328 -0.80469,3.0117 -0.80469,1.3789 -2.18359,2.1836 Q 8.63281,13 7,13 5.36719,13 3.98828,12.1953 2.60937,11.3906 1.80469,10.0117 1,8.6328 1,7 1,5.3672 1.80469,3.9883 2.60937,2.6094 3.98828,1.8047 5.36719,1 7,1 8.63281,1 10.01172,1.8047 11.39062,2.6094 12.19531,3.9883 13,5.3672 13,7 Z"/></svg>