<svg xmlns="http://www.w3.org/2000/svg" viewBox="0 0 14 14" id="libre-bank"><path d="m 1,2.7142857 0,6 c 0,0.5375306 0.3631963,0.8571426 0.8571429,0.8571426 l 10.2857141,0 C 12.636804,9.5714283 13,9.2082323 13,8.7142857 l 0,-6 -12,0 z m 2.5714286,0.8571429 6.8571424,0 c 0,0.8571428 0.857143,1.7142857 1.714286,1.7142857 l 0,1.7142857 c -0.857143,0 -1.714286,0.8571429 -1.714286,1.7142857 l -6.8571424,0 C 3.5714286,7.8571429 2.7142857,7 1.8571429,7 l 0,-1.7142857 c 0.8571428,0 1.7142857,-0.8571429 1.7142857,-1.7142857 z M 7,4.4285714 c -1.4201606,0 -2.5714286,0.7675119 -2.5714286,1.7142858 0,0.9467742 1.151268,1.7142857 2.5714286,1.7142857 1.4201614,0 2.5714286,-0.7675115 2.5714286,-1.7142857 C 9.5714286,5.1960833 8.4201614,4.4285714 7,4.4285714 Z M 1,10 c 0,0.965637 0.3845966,1.285714 0.8571429,1.285714 l 10.2857141,0 C 12.615403,11.285714 13,10.904 13,10 c -0.246974,0.232445 -0.479419,0.428571 -0.857143,0.428571 l -10.2857141,0 C 1.4794189,10.428571 1.2324451,10.217917 1,10 Z"/></svg>