<svg xmlns="http://www.w3.org/2000/svg" viewBox="0 0 14 14" id="libre-license-mit"><path d="M 7,1 C 3.6864045,1 1,3.686526 1,7 c 0,3.313474 2.6864045,6 6,6 3.313595,0 6,-2.686526 6,-6 l 0,0 C 13,3.68598 10.313595,1 7,1 Z m 5.506312,6.000547 c 0,3.041268 -2.465171,5.506422 -5.506312,5.506422 -3.0411407,0 -5.5063119,-2.465154 -5.5063119,-5.506422 0,-3.041269 2.4651712,-5.506423 5.5063119,-5.506423 3.041141,0 5.506312,2.465154 5.506312,5.506423 l 0,0 z m -9.6138408,2.393003 0,-4.704564 1.1246935,0 0.675143,3.209074 0.6675143,-3.209074 1.127418,0 0,4.704564 -0.6980292,0 0,-3.703197 -0.7388975,3.703197 -0.72364,0 -0.7361729,-3.703197 0,3.703197 -0.6980292,0 z m 4.3184088,0 0,-4.704564 0.75143,0 0,4.704564 -0.75143,0 z m 2.304968,0 0,-3.908718 -1.104532,0 0,-0.795846 2.957769,0 0,0.795846 -1.101807,0 0,3.908718 -0.75143,0 z"/></svg>