<svg xmlns="http://www.w3.org/2000/svg" viewBox="0 0 14 14" id="libre-firewall"><path d="m 2.8372537,6.8657 -1.8372535,0 0,-1.92169 1.8372535,0 0,1.92169 z m -1.8372535,5.55103 1.8372535,0 0,-1.92169 -1.8372535,0 0,1.92169 z m 0.016723,-2.6969 4.8548803,0 0,-1.92195 -4.8548803,0 0,1.92195 z m 6.0686202,-1.92195 0,1.92195 0.9911813,0 C 7.9056697,8.94912 7.9207257,8.32015 8.0558327,7.79788 l -0.9704892,0 z m -3.0343762,2.69716 0,1.92169 4.8549332,0 0,-0.49653 C 8.6450006,11.40348 8.4457271,10.93016 8.2974957,10.49504 l -4.2465285,0 z m 4.8549332,-4.12626 0,-1.42474 -4.8549332,0 0,1.92169 4.4312753,0 C 8.6087762,6.68291 8.7518213,6.5182 8.9059004,6.36878 Z M 12.650474,5.39194 C 11.980523,3.79722 10.459392,3.31802 11.770136,1.58327 11.124369,2.00056 10.576638,2.96575 11.189647,4.19161 13.014755,7.98784 11.117987,8.78292 10.420099,8.46987 8.8615527,7.69378 10.524326,6.2786 10.707221,5.93983 c 0.28048,-0.37855 0.282809,-0.7246 0.06501,-1.30464 0.01307,0.52826 -0.08465,0.95888 -0.8214909,1.46723 -1.2263086,0.82859 -2.4458963,2.21104 -0.3719013,6.04568 2.64e-5,2.9e-4 4.7205412,-2.83195 3.0716322,-6.75616 z"/></svg>