<svg xmlns="http://www.w3.org/2000/svg" id="libre-brand-vimeo" viewBox="0 0 14 14"><path d="M 10.79688,4.976563 Q 10.92188,4.3125 10.63281,3.945312 10.22656,3.4375 9.17187,3.59375 9.03906,3.61719 8.85156,3.69141 8.66406,3.76563 8.40234,3.929692 8.14063,4.093754 7.89844,4.308598 7.65625,4.523441 7.43359,4.855473 7.21094,5.187504 7.08594,5.570316 7.71094,5.515626 7.97266,5.695317 8.23438,5.875004 8.17969,6.468754 8.14059,6.875004 7.77344,7.585941 7.4375,8.195316 7.21875,8.359379 6.875,8.609379 6.53906,8.250004 6.35938,8.062504 6.24609,7.746098 6.13281,7.429692 6.09766,7.175785 6.06246,6.921879 6.01956,6.519535 5.97656,6.117191 5.95316,5.960942 5.77347,4.953129 5.68753,4.679692 5.59383,4.390629 5.41019,4.140629 5.22659,3.890629 5.01565,3.828129 4.57034,3.703129 4.02347,4.023442 3.60159,4.273441 2.95706,4.851566 2.31253,5.429692 2.00003,5.648441 v 0.05469 q 0.125,0.0625 0.19922,0.203125 0.0742,0.140625 0.16797,0.15625 0.16406,0.02344 0.42578,-0.06641 0.26172,-0.08984 0.45312,-0.08203 0.19141,0.0078 0.32422,0.234375 0.0859,0.140625 0.14453,0.300782 0.0586,0.160156 0.11719,0.375 0.0586,0.214843 0.0977,0.316406 0.13281,0.359375 0.41406,1.460938 0.28125,1.140624 0.44531,1.539062 0.32813,0.773438 0.80469,0.976563 0.33594,0.09375 0.66406,0.01172 0.32813,-0.08203 0.59375,-0.246093 Q 7.87507,10.281256 8.80476,9.031256 9.61726,7.945319 10.15241,6.7461 10.68757,5.546881 10.79695,4.976569 z M 13,3.25 v 7.5 q 0,0.929687 -0.66016,1.589844 Q 11.67969,13 10.75,13 H 3.25 Q 2.32031,13 1.660156,12.339844 1,11.679687 1,10.75 V 3.25 Q 1,2.320313 1.660156,1.660156 2.32031,1 3.25,1 h 7.5 Q 11.67969,1 12.33984,1.660156 13,2.320313 13,3.25 z"/></svg>