<svg xmlns="http://www.w3.org/2000/svg" viewBox="0 0 14 14" id="libre-action-add"><path d="m 14,10.590909 0,0.818182 q 0,0.170455 -0.11932,0.289773 -0.119315,0.119318 -0.28977,0.119318 l -1.77273,0 0,1.772727 q 0,0.170455 -0.119315,0.289773 Q 11.579545,14 11.40909,14 l -0.81818,0 Q 10.420455,14 10.301135,13.880682 10.18182,13.761364 10.18182,13.590909 l 0,-1.772727 -1.772729,0 q -0.1704545,0 -0.289773,-0.119318 Q 8,11.579546 8,11.409091 l 0,-0.818182 q 0,-0.170454 0.119318,-0.289773 0.1193185,-0.119317 0.289773,-0.119317 l 1.772729,0 0,-1.772728 q 0,-0.170455 0.119315,-0.2897725 Q 10.420455,8 10.59091,8 l 0.81818,0 q 0.170455,0 0.289775,0.1193185 0.119315,0.1193175 0.119315,0.2897725 l 0,1.772728 1.77273,0 q 0.170455,0 0.28977,0.119317 Q 14,10.420455 14,10.590909 Z"/></svg>