<?xml version="1.0" encoding="utf-8"?><!--Generator: Adobe Illustrator 21.0.0, SVG Export Plug-In . SVG Version: 6.00 Build 0)--><svg version="1.1" id="Layer_1" xmlns="http://www.w3.org/2000/svg" xmlns:xlink="http://www.w3.org/1999/xlink" x="0px" y="0px" viewBox="0 0 100 100" style="enable-background:new 0 0 100 100;" xml:space="preserve"><style type="text/css">.st0{fill:#000101;} .st1{fill:#FFFFFF;} .st2{fill:#28A7DA;} .st3{fill:#672C91;}</style><path class="st0" d="M50,10c4.285,0,32.5,16.285,34.64,20c2.15,3.715,2.15,36.285,0,40S54.29,90,50,90s-32.5-16.285-34.65-20 c-2.135-3.715-2.135-36.285,0-40C17.5,26.285,45.715,10,50,10z M57.649,32.66c-0.47,0-0.86,0.385-0.86,0.86v12.915H43.21v-13.41 h2.335c0.47,0,0.85-0.385,0.85-0.86c0-0.31-0.165-0.585-0.41-0.735l-5.245-5.03c-0.16-0.21-0.47-0.365-0.75-0.365 c-0.28,0-0.535,0.15-0.69,0.36l-5.6,5.035c-0.24,0.15-0.4,0.42-0.4,0.73c0,0.475,0.38,0.86,0.85,0.86h2.35l0.02,33.45 c0,0.48,0.375,0.86,0.85,0.86h4.975c0.47,0,0.86-0.385,0.86-0.85V53.13h13.58v13.84H54.45c-0.47,0-0.85,0.385-0.85,0.86 c0,0.31,0.16,0.58,0.4,0.73l5.26,5.035c0.15,0.2,0.47,0.365,0.75,0.365s0.53-0.15,0.69-0.365l5.6-5.035c0.24-0.15,0.4-0.42,0.4-0.73 c0-0.475-0.385-0.86-0.85-0.86h-2.35l-0.02-33.45c0-0.48-0.38-0.865-0.85-0.865h-4.98V32.66z"/><metadata xmlns:d="https://loading.io/stock/">
<d:name>hackerrank</d:name>
<d:tags>hackerrank,brand wb</d:tags>
<d:license>cc0</d:license>
<d:slug>jx8u6r</d:slug>
</metadata></svg>