<svg xmlns="http://www.w3.org/2000/svg" id="libre-spinner-12" viewBox="0 0 14 14"><g transform="matrix(0.8766986,0,0,0.88188976,-0.87669857,-0.02733855)"><g transform="translate(1,0)"><path d="m 8.968,1.866 c 0,1.012 -0.437,4.061 -0.976,4.061 -0.537,0 -0.977,-3.049 -0.977,-4.061 0,-1.014 0.439,-1.835 0.977,-1.835 0.539,0 0.976,0.822 0.976,1.835 l 0,0 z"/><path d="m 7.016,14.088 c 0,-1.006 0.438,-4.031 0.977,-4.031 0.538,0 0.975,3.025 0.975,4.031 0,1.004 -0.437,1.818 -0.975,1.818 -0.54,0 -0.977,-0.814 -0.977,-1.818 l 0,0 z"/><path d="m 1.859,7.03 c 1.025,0 4.113,0.431 4.113,0.961 0,0.53 -3.088,0.959 -4.113,0.961 C 0.832,8.95 0,8.521 0,7.991 0,7.461 0.832,7.031 1.859,7.03 l 0,0 z"/><path d="m 14.123,8.982 c -1.021,0 -4.092,-0.44 -4.092,-0.983 0,-0.543 3.07,-0.983 4.092,-0.983 1.019,-0.002 1.846,0.44 1.846,0.983 0,0.543 -0.827,0.983 -1.846,0.983 l 0,0 z"/></g><g transform="translate(2,2)"><path d="M 11.182,2.193 C 10.467,2.908 8.002,4.755 7.621,4.375 7.241,3.994 9.086,1.527 9.801,0.813 10.518,0.096 11.41,-0.173 11.79,0.206 c 0.382,0.382 0.108,1.271 -0.608,1.987 l 0,0 z"/><path d="M 0.816,9.846 C 1.527,9.134 3.976,7.304 4.357,7.686 4.738,8.066 2.907,10.514 2.195,11.225 1.486,11.935 0.601,12.202 0.22,11.822 -0.16,11.439 0.106,10.555 0.816,9.846 l 0,0 z"/><path d="M 2.176,0.818 C 2.902,1.543 4.78,4.031 4.405,4.406 4.03,4.781 1.544,2.9 0.817,2.177 0.091,1.449 -0.194,0.558 0.181,0.183 0.556,-0.192 1.449,0.092 2.176,0.818 l 0,0 z"/><path d="M 9.812,11.198 C 9.089,10.476 7.23,7.993 7.614,7.609 c 0.384,-0.385 2.867,1.476 3.588,2.198 0.723,0.719 0.994,1.616 0.61,2.001 -0.384,0.383 -1.281,0.11 -2,-0.61 l 0,0 z"/></g></g></svg>