<svg class="social-instagram" role="img" focusable="false" aria-hidden="true" xmlns="http://www.w3.org/2000/svg" viewBox="0 0 14 14"><path d="m 11.615773,6.076465 -1.04473,0 c 0.07611,0.29548 0.121048,0.60419 0.121048,0.92327 0,2.03951 -1.652974,3.69243 -3.692076,3.69243 -2.039102,0 -3.692136,-1.65292 -3.692136,-3.69243 0,-0.31908 0.04512,-0.62781 0.121224,-0.92327 l -1.044731,0 0,5.07723 c 0,0.25463 0.20668,0.46113 0.461943,0.46113 l 8.30737,0 c 0.255321,0 0.462059,-0.2065 0.462059,-0.46113 l 0,-5.07723 z m 0,-3.23051 c 0,-0.25486 -0.206767,-0.46154 -0.462059,-0.46154 l -1.384256,0 c -0.25503,0 -0.461535,0.20668 -0.461535,0.46154 l 0,1.3848 c 0,0.25469 0.206505,0.46154 0.461535,0.46154 l 1.384256,0 c 0.255321,0 0.462059,-0.20685 0.462059,-0.46154 l 0,-1.3848 z m -4.615758,1.84634 c -1.274654,0 -2.307763,1.03291 -2.307763,2.30747 0,1.27445 1.033138,2.30797 2.307763,2.30797 1.274537,0 2.307879,-1.03352 2.307879,-2.30797 0,-1.27459 -1.033342,-2.30747 -2.307879,-2.30747 m 4.615758,8.30769 -9.231401,0 C 1.619924,12.999985 1,12.379915 1,11.614825 l 0,-9.23041 c 0,-0.76468 0.619924,-1.3844 1.384372,-1.3844 l 9.231372,0 C 12.380309,1.000015 13,1.619735 13,2.384415 l 0,9.23041 c 2.9e-5,0.76509 -0.619662,1.38516 -1.384227,1.38516"/></svg>