<svg xmlns="http://www.w3.org/2000/svg" id="libre-seo-ppc" viewBox="0 0 14 14"><g transform="matrix(0.12514992,0,0,0.12514992,0.74256657,-243.04954)"><path d="m 97.942,2023.222 c -0.389,-0.301 -49.533,-27.235 -49.98,-27.425 l 27.422,50 c 0.055,-7.521 0.01,-15.046 0.021,-22.568 7.512,-0.01 15.026,0 22.537,-0.01 z"/><path d="m 50.752,2009.202 c -1.783,0.636 -3.694,1.001 -5.693,1.001 -9.374,0 -17,-7.626 -17,-17 0,-9.374 7.626,-17 17,-17 9.374,0 17,7.626 17,17 0,1.844 -0.305,3.615 -0.85,5.278 1.68,0.918 3.473,1.899 5.335,2.918 0.975,-2.548 1.515,-5.31 1.515,-8.196 0,-12.682 -10.317,-23 -23,-23 -12.683,0 -23,10.318 -23,23 0,12.682 10.317,23 23,23 3.044,0 5.95,-0.6 8.612,-1.679 l -2.919,-5.322 z"/><path d="m 60.429,2026.847 c -4.685,2.148 -9.888,3.356 -15.37,3.356 -20.402,0 -37.001,-16.598 -37.001,-37 0,-20.402 16.599,-37 37.001,-37 20.402,0 37,16.598 37,37 0,5.322 -1.139,10.382 -3.171,14.959 1.797,0.985 3.567,1.957 5.273,2.895 2.495,-5.442 3.897,-11.485 3.897,-17.854 0,-23.71 -19.29,-43 -43,-43 -23.711,0 -43.001,19.29 -43.001,43 0,23.71 19.29,43 43.001,43 6.527,0 12.716,-1.469 18.263,-4.082 l -2.892,-5.274 z"/></g></svg>