<svg aria-labelledby="brand-projecthoneypot" role="img" focusable="false" aria-hidden="true" xmlns="http://www.w3.org/2000/svg" viewBox="0 0 14 14"><g fill="none" stroke="#000" transform="translate(0 -1038.362)"><ellipse cx="6.801" cy="1045.034" stroke-width=".176" rx="3.112" ry="3.112"/><circle cx="6.78" cy="1045.046" r="2.042" stroke-width=".115"/><path stroke-width=".107" d="M1.132 1046.693l11.333-3.326"/><path stroke-width=".105" d="M5.174 1039.416l3.219 11.209"/><path stroke-width=".107" d="M5.156 1040.86l.79-.23"/><path stroke-width=".103" d="M5.03 1040.43l.8-.209M5.276 1041.25l.801-.209M4.92 1040.022l.8-.21M7.767 1049.93l.801-.21M7.629 1049.51l.8-.21M7.499 1049.06l.801-.21M7.868 1050.327l.801-.21"/><path stroke-width=".114" d="M11.289 1043.13l.332 1.083M11.75 1042.99l.333 1.085M10.834 1043.261l.332 1.084M10.368 1043.398l.332 1.084M2.843 1045.585l.332 1.084M2.384 1045.715l.332 1.084M1.908 1045.858l.333 1.084M1.449 1045.997l.332 1.085"/></g></svg>