<svg role="img" focusable="false" aria-hidden="true" xmlns="http://www.w3.org/2000/svg" viewBox="0 0 14 14"><path d="m 5.3165569,14.0019 c 0.2900213,0 0.5227581,-0.1688 0.5227581,-0.3789 l 0,-13.2422 c 0,-0.21 -0.2327368,-0.3789 -0.5227581,-0.3789 l -4.7914999,0 C 0.235136,0.0019 0,0.1708 0,0.3808 L 0,13.623 c 0,0.2101 0.235136,0.3789 0.525057,0.3789 l 4.7914999,0 z m -0.6868135,-1.1582 -3.4201714,0 0,-3.2168 3.4201714,0 0,3.2168 z m 0,-4.2852 -3.4201714,0 0,-3.2148 3.4201714,0 0,3.2148 z m 0,-4.2832 -3.4201714,0 0,-3.2148 3.4201714,0 0,3.2148 z m 5.3395506,6.7583 q -0.2639283,0 -0.4656736,-0.1915 L 9.1155258,10.4539 Q 8.9190791,10.2573 8.9190791,9.983 q 0,-0.2795 0.1964467,-0.4658 l 1.5159882,-1.5217 -3.642611,0 q -0.269027,0 -0.4370814,-0.194 Q 6.3835673,7.6074 6.3835673,7.3331 l 0,-0.6625 q 0,-0.2743 0.1682543,-0.4684 Q 6.719876,6.0081 6.988903,6.0081 l 3.642611,0 L 9.1155258,4.4865 Q 8.9190791,4.3002 8.9190791,4.0207 q 0,-0.2795 0.1964467,-0.4658 L 9.5036204,3.1667 Q 9.7002671,2.9701 9.969294,2.9701 q 0.274126,0 0.470872,0.1966 L 13.808452,6.536 Q 14,6.7172 14,7.0018 q 0,0.2795 -0.191548,0.471 l -3.368286,3.3693 q -0.201845,0.1915 -0.470872,0.1915 z"/></svg>