<svg role="img" focusable="false" aria-hidden="true" xmlns="http://www.w3.org/2000/svg" viewBox="0 0 14 14"><path d="M 7.9550781 1.1582031 C 5.7846892 1.1582031 3.7285156 2.1689427 3.7285156 4.5351562 C 3.7285156 5.3681869 3.9374961 6.0392283 4.3886719 6.5742188 L 1.3984375 6.5742188 C 1.3379264 6.5742187 1.2889001 6.6026318 1.25 6.6601562 C 1.2111 6.7176798 1.1914062 6.7913758 1.1914062 6.8808594 L 1.1914062 7.4941406 C 1.1914062 7.5836234 1.2111 7.6573189 1.25 7.7148438 C 1.2889001 7.772368 1.3379264 7.8007812 1.3984375 7.8007812 L 6.5 7.8007812 C 7.6230142 8.1975885 8.2324219 8.7028964 8.2324219 9.5292969 C 8.2324219 10.443145 7.351113 11.013672 6.0292969 11.013672 C 5.3275921 11.013672 4.3476235 10.81869 3.6132812 10.443359 L 3.4511719 12.335938 C 4.1528765 12.67863 5.2298079 12.841797 5.9804688 12.841797 C 8.5261884 12.841797 10.548828 11.634358 10.548828 9.3007812 C 10.548828 8.7403216 10.420516 8.2394519 10.158203 7.8007812 L 12.601562 7.8007812 C 12.662073 7.8007812 12.7111 7.772368 12.75 7.7148438 C 12.7889 7.6573189 12.808594 7.5836234 12.808594 7.4941406 L 12.808594 6.8808594 C 12.808594 6.7913758 12.7889 6.7176798 12.75 6.6601562 C 12.7111 6.6026318 12.662073 6.5742188 12.601562 6.5742188 L 8.7109375 6.5742188 C 8.4847726 6.4672686 8.2431926 6.3671701 7.9707031 6.28125 C 6.5509751 5.8406447 5.9960937 5.335723 5.9960938 4.421875 C 5.9960938 3.5406644 6.7469277 2.9863281 7.921875 2.9863281 C 8.6725363 2.9863281 9.5544104 3.2470227 10.158203 3.6386719 L 10.320312 1.6972656 C 9.830751 1.4035287 8.9342012 1.1582031 7.9550781 1.1582031 z "/></svg>