<svg xmlns="http://www.w3.org/2000/svg" id="libre-table" viewBox="0 0 14 14"><path d="m 4.69231,10.923075 v -1.38461 q 0,-0.10096 -0.0649,-0.16587 -0.0649,-0.0649 -0.16586,-0.0649 H 2.15386 q -0.10097,0 -0.165869,0.0649 -0.0649,0.0649 -0.0649,0.16587 v 1.38461 q 0,0.10097 0.0649,0.16587 0.0649,0.0649 0.165869,0.0649 h 2.30769 q 0.10096,0 0.16586,-0.0649 0.0649,-0.0649 0.0649,-0.16587 z m 0,-2.76923 v -1.38461 q 0,-0.10096 -0.0649,-0.16587 -0.0649,-0.0649 -0.16586,-0.0649 H 2.15386 q -0.10097,0 -0.165869,0.0649 -0.0649,0.0649 -0.0649,0.16587 v 1.38461 q 0,0.10096 0.0649,0.16587 0.0649,0.0649 0.165869,0.0649 h 2.30769 q 0.10096,0 0.16586,-0.0649 0.0649,-0.0649 0.0649,-0.16587 z m 3.69231,2.76923 v -1.38461 q 0,-0.10096 -0.0649,-0.16587 -0.0649,-0.0649 -0.16586,-0.0649 h -2.3077 q -0.10096,0 -0.16586,0.0649 -0.0649,0.0649 -0.0649,0.16587 v 1.38461 q 0,0.10097 0.0649,0.16587 0.0649,0.0649 0.16586,0.0649 h 2.3077 q 0.10096,0 0.16586,-0.0649 0.0649,-0.0649 0.0649,-0.16587 z M 4.69231,5.384615 v -1.38461 q 0,-0.10096 -0.0649,-0.16587 -0.0649,-0.0649 -0.16586,-0.0649 H 2.15386 q -0.10097,0 -0.165869,0.0649 -0.0649,0.0649 -0.0649,0.16587 v 1.38461 q 0,0.10096 0.0649,0.16587 0.0649,0.0649 0.165869,0.0649 h 2.30769 q 0.10096,0 0.16586,-0.0649 0.0649,-0.0649 0.0649,-0.16587 z m 3.69231,2.76923 v -1.38461 q 0,-0.10096 -0.0649,-0.16587 -0.0649,-0.0649 -0.16586,-0.0649 h -2.3077 q -0.10096,0 -0.16586,0.0649 -0.0649,0.0649 -0.0649,0.16587 v 1.38461 q 0,0.10096 0.0649,0.16587 0.0649,0.0649 0.16586,0.0649 h 2.3077 q 0.10096,0 0.16586,-0.0649 0.0649,-0.0649 0.0649,-0.16587 z m 3.6923,2.76923 v -1.38461 q 0,-0.10096 -0.0649,-0.16587 -0.0649,-0.0649 -0.16587,-0.0649 H 9.53846 q -0.10096,0 -0.16586,0.0649 -0.0649,0.0649 -0.0649,0.16587 v 1.38461 q 0,0.10097 0.0649,0.16587 0.0649,0.0649 0.16586,0.0649 h 2.30769 q 0.10097,0 0.16587,-0.0649 0.0649,-0.0649 0.0649,-0.16587 z m -3.6923,-5.53846 v -1.38461 q 0,-0.10096 -0.0649,-0.16587 -0.0649,-0.0649 -0.16586,-0.0649 h -2.3077 q -0.10096,0 -0.16586,0.0649 -0.0649,0.0649 -0.0649,0.16587 v 1.38461 q 0,0.10096 0.0649,0.16587 0.0649,0.0649 0.16586,0.0649 h 2.3077 q 0.10096,0 0.16586,-0.0649 0.0649,-0.0649 0.0649,-0.16587 z m 3.6923,2.76923 v -1.38461 q 0,-0.10096 -0.0649,-0.16587 -0.0649,-0.0649 -0.16587,-0.0649 H 9.53846 q -0.10096,0 -0.16586,0.0649 -0.0649,0.0649 -0.0649,0.16587 v 1.38461 q 0,0.10096 0.0649,0.16587 0.0649,0.0649 0.16586,0.0649 h 2.30769 q 0.10097,0 0.16587,-0.0649 0.0649,-0.0649 0.0649,-0.16587 z m 0,-2.76923 v -1.38461 q 0,-0.10096 -0.0649,-0.16587 -0.0649,-0.0649 -0.16587,-0.0649 H 9.53846 q -0.10096,0 -0.16586,0.0649 -0.0649,0.0649 -0.0649,0.16587 v 1.38461 q 0,0.10096 0.0649,0.16587 0.0649,0.0649 0.16586,0.0649 h 2.30769 q 0.10097,0 0.16587,-0.0649 0.0649,-0.0649 0.0649,-0.16587 z M 13,3.076925 v 7.84615 q 0,0.47597 -0.33894,0.81491 -0.33894,0.33894 -0.81491,0.33894 h -9.6923 q -0.475965,0 -0.814908,-0.33894 Q 1,11.399045 1,10.923075 v -7.84615 q 0,-0.47596 0.338942,-0.8149 0.338943,-0.33895 0.814908,-0.33895 h 9.6923 q 0.47597,0 0.81491,0.33895 Q 13,2.600965 13,3.076925 z"/></svg>