<svg xmlns="http://www.w3.org/2000/svg" id="libre-bookmark" viewBox="0 0 14 14"><path d="m 11.15598,1 q 0.18242,0 0.34897,0.07138 0.26174,0.103107 0.4164,0.325182 0.15466,0.222075 0.15466,0.491739 v 10.223396 q 0,0.269664 -0.15466,0.491739 -0.15466,0.222075 -0.4164,0.325182 -0.15069,0.06345 -0.34897,0.06345 -0.3807,0 -0.6583,-0.253801 L 7,9.375412 3.50231,12.738267 Q 3.21679,13 2.84402,13 2.6616,13 2.49504,12.92862 2.23331,12.825513 2.07865,12.603438 1.92399,12.381363 1.92399,12.111699 V 1.888303 q 0,-0.269664 0.15466,-0.491739 Q 2.23331,1.174489 2.49504,1.071382 2.6616,1 2.84402,1 h 8.31196 z"/></svg>