<svg xmlns="http://www.w3.org/2000/svg" viewBox="0 0 14 14" id="libre-laptop"><path d="M 3.6,9.4 Q 3.1875,9.4 2.89375,9.10625 2.6,8.8125 2.6,8.4 V 4 Q 2.6,3.5875 2.89375,3.29375 3.1875,3 3.6,3 h 6.8 Q 10.8125,3 11.10625,3.29375 11.4,3.5875 11.4,4 v 4.4 q 0,0.4125 -0.29375,0.70625 Q 10.8125,9.4 10.4,9.4 H 3.6 z M 3.4,4 v 4.4 q 0,0.0812 0.0594,0.14063 0.0594,0.0594 0.14062,0.0594 h 6.8 q 0.0812,0 0.14063,-0.0594 0.0594,-0.0594 0.0594,-0.14063 V 4 q 0,-0.0813 -0.0594,-0.14063 -0.0594,-0.0594 -0.14063,-0.0594 h -6.8 q -0.0812,0 -0.14062,0.0594 Q 3.4,3.91877 3.4,4 z M 12,9.8 h 1 v 0.6 q 0,0.25 -0.29375,0.425 Q 12.4125,11 12,11 H 2 Q 1.5875,11 1.29375,10.825 1,10.65 1,10.4 V 9.8 h 11 z m -4.5,0.6 q 0.1,0 0.1,-0.1 0,-0.1 -0.1,-0.1 h -1 q -0.1,0 -0.1,0.1 0,0.1 0.1,0.1 h 1 z"/></svg>