<svg role="img" focusable="false" aria-hidden="true" xmlns="http://www.w3.org/2000/svg" viewBox="0 0 14 14"><path style="fill-rule:evenodd" d="m 8.8,11.8 -3.6,0 0,0.600626 C 5.2,12.731651 4.9344038,13 4.600626,13 L 3.999374,13 C 3.6683489,13 3.4,12.734404 3.4,12.400626 L 3.4,11.8 3.39644,11.8 C 2.7356627,11.8 2.2,11.264426 2.2,10.602947 l 0,-8.4058934 C 2.2,1.5359391 2.7367083,1 3.3964362,1 L 10.603564,1 C 11.264337,1 11.8,1.5355737 11.8,2.1970536 l 0,8.4058934 C 11.8,11.264061 11.263292,11.8 10.603564,11.8 l -0.0036,0 0,0.600626 C 10.6,12.731651 10.334404,13 10.000626,13 L 9.3993742,13 C 9.0683488,13 8.8,12.734404 8.8,12.400626 L 8.8,11.8 Z M 3.4,4 l 3,0 0,3.6 -3,0 0,-3.6 z m 4.2,0 3,0 0,3.6 -3,0 0,-3.6 z M 4,2.2 l 6,0 0,0.6 -6,0 0,-0.6 z m 0.3,8.4 c 0.4970563,0 0.9,-0.402944 0.9,-0.9 0,-0.497056 -0.4029437,-0.9 -0.9,-0.9 -0.4970563,0 -0.9,0.402944 -0.9,0.9 0,0.497056 0.4029437,0.9 0.9,0.9 z m 5.4,0 c 0.497056,0 0.9,-0.402944 0.9,-0.9 0,-0.497056 -0.402944,-0.9 -0.9,-0.9 -0.4970562,0 -0.9,0.402944 -0.9,0.9 0,0.497056 0.4029438,0.9 0.9,0.9 z"/></svg>