<svg aria-labelledby="gui-table-row-above" role="img" focusable="false" aria-hidden="true" xmlns="http://www.w3.org/2000/svg" viewBox="0 0 14 14"><path d="m 13.9999,8.6819 c 0,-0.2901 -0.1688,-0.5229 -0.3789,-0.5229 l -13.242,0 c -0.21,0 -0.3789,0.2328 -0.3789,0.5229 l 0,4.7928 c 0,0.29 0.1689,0.5252 0.3789,0.5252 l 13.242,0 c 0.2101,0 0.3789,-0.2352 0.3789,-0.5252 l 0,-4.7928 z m -1.1582,0.687 0,3.4211 -3.2168,0 0,-3.4211 3.2168,0 z m -4.2852,0 0,3.4211 -3.2148,0 0,-3.4211 3.2148,0 z m -4.2832,0 0,3.4211 -3.2148,0 0,-3.4211 3.2148,0 z m 6.7266,-5.337 q 0,0.264 -0.1915,0.4658 l -0.3882,0.3882 q -0.1966,0.1965 -0.4709,0.1965 -0.2795,0 -0.4658,-0.1965 l -1.5217,-1.5164 0,3.6436 q 0,0.2691 -0.194,0.4372 -0.1941,0.1683 -0.4684,0.1683 l -0.6625,0 Q 6.3626,7.6186 6.1685,7.4503 5.9744,7.2822 5.9744,7.0131 l 0,-3.6436 -1.5216,1.5164 Q 4.2665,5.0824 3.987,5.0824 3.7075,5.0824 3.5212,4.8859 L 3.133,4.4977 Q 2.9364,4.301 2.9364,4.0319 q 0,-0.2742 0.1966,-0.471 L 6.5023,0.1917 Q 6.6835,1e-4 6.9681,1e-4 q 0.2795,0 0.471,0.1916 l 3.3693,3.3692 q 0.1915,0.2019 0.1915,0.471 z"/></svg>