<svg xmlns="http://www.w3.org/2000/svg" id="libre-brand-dribble" viewBox="0 0 14 14"><g transform="matrix(0.02525263,0,0,0.02525263,0.5356045,0.53520046)"><path d="m 277.863,250.44 c -4.721,-10.496 -9.595,-20.736 -14.562,-30.628 -83.927,30.259 -164.894,21.504 -200.304,15.114 -0.758,6.953 -1.218,13.968 -1.218,21.095 0,50.227 19.343,95.928 50.77,130.427 21.504,-33.188 77.127,-106.189 165.315,-136.007 z"/><path d="m 380.313,106.957 c -33.7,-28.18 -77.066,-45.189 -124.314,-45.189 -18.913,0 -37.141,2.878 -54.405,7.936 16.988,22.712 46.039,64.205 74.301,117.043 36.423,-16.487 72.612,-41.84 104.418,-79.79 z"/><path d="M 251.259,196.649 C 221.368,141.312 190.925,98.796 176.046,79.196 122.532,103.475 82.043,151.327 67.655,209.439 c 31.969,5.816 106.23,14.357 183.603,-12.79 z"/><path d="m 131.42,404.798 c 33.751,28.303 77.22,45.425 124.58,45.425 25.406,0 49.613,-5.038 71.895,-13.937 C 324.465,380.171 308.582,324.384 287.969,273.87 200.57,301.712 148.296,376.782 131.42,404.798 Z"/><path d="m 313.661,267.182 c 19.456,48.64 34.745,102.124 39.465,156.764 51.139,-29.726 87.501,-82.043 95.334,-143.288 -50.913,-18.544 -95.887,-20.921 -134.8,-13.476 z"/><path d="m 287.774,209.797 c 5.417,10.814 10.711,22.006 15.8,33.536 42.343,-9.411 91.259,-8.387 146.514,10.404 -0.594,-49.593 -19.906,-94.638 -51.087,-128.686 -34.007,40.161 -72.448,67.082 -111.227,84.746 z"/><path d="m 420.034,18.412 -328.069,0 c -40.612,0 -73.575,32.932 -73.575,73.564 l 0,328.079 c 0,40.591 32.962,73.543 73.575,73.543 l 328.059,0 c 40.622,0 73.564,-32.952 73.564,-73.543 l 0,-328.089 c 0,-40.622 -32.942,-73.554 -73.554,-73.554 z M 256,476.221 C 134.584,476.221 35.799,377.425 35.799,256.01 35.799,134.595 134.584,35.82 256,35.82 c 121.385,0 220.18,98.775 220.18,220.19 0,121.406 -98.796,220.211 -220.18,220.211 z"/></g></svg>