<svg xmlns="http://www.w3.org/2000/svg" viewBox="0 0 14 14" id="libre-purge"><path d="m 10.126807,5.884535 c 0.716391,-1.77767 -0.2060992,-3.85726 -2.1049912,-4.4642 l -0.0056,0.2248 c 1.289803,0.5961 1.770912,2.15453 1.082452,3.36599 -0.65511,1.15288 -2.120806,1.55639 -3.273657,0.9012 -1.152879,-0.65511 -1.556337,-2.12075 -0.901198,-3.27363 0.256952,-0.45219 0.638915,-0.78848 1.0775,-0.99141 l -6.7e-4,-0.23391 c -0.789091,0.24469 -1.490454,0.77817 -1.930815,1.55308 -0.527129,0.92753 -0.565692,1.99926 -0.19803,2.91825 -1.876786,0.27711 -3.20544296,2.09375 -2.798053,4.02981 l 0.198205,-0.10617 c -0.118952,-1.41592 0.998306,-2.60413 2.391711,-2.60413 1.325977,0 2.400944,1.07494 2.400944,2.40095 0,1.32601 -1.074938,2.40088 -2.400944,2.40088 -0.52011,0 -1.00116,-0.16587 -1.394308,-0.44697 l -0.202982,0.11616 c 0.602566,0.56511 1.41292,0.91139 2.304216,0.91139 1.063636,0 2.011932,-0.49299 2.629381,-1.26274 0.617508,0.76975 1.565833,1.26274 2.629441,1.26274 0.8913242,0 1.7016782,-0.34628 2.3042152,-0.91139 l -0.202982,-0.11616 c -0.393147,0.28107 -0.874198,0.44697 -1.394308,0.44697 -1.3259772,0 -2.4009432,-1.07487 -2.4009432,-2.40088 0,-1.32601 1.074937,-2.40095 2.4009432,-2.40095 1.393405,0 2.510663,1.18821 2.391711,2.60413 l 0.198205,0.10617 c 0.407507,-1.93647 -0.921907,-3.75351 -2.799421,-4.02998 z m -3.1268612,2.55033 c -0.414205,0 -0.750003,-0.33574 -0.750003,-0.75 0,-0.41421 0.335798,-0.74998 0.750003,-0.74998 0.414265,0 0.750004,0.33577 0.750004,0.74998 0,0.41423 -0.335739,0.75 -0.750004,0.75 z m 1.731825,2.02478 c -0.147671,-0.27624 -0.223749,-0.58795 -0.212244,-0.91815 0.461012,-0.36676 0.786877,-0.89587 0.890509,-1.50024 0.265953,-0.15816 0.575362,-0.25026 0.9057712,-0.25395 -0.054,1.13167 -0.6744202,2.11486 -1.5840362,2.67234 z m -3.251347,-0.91707 c 0.01121,0.32755 -0.06349,0.63912 -0.212593,0.91771 -0.910198,-0.55739 -1.531056,-1.5409 -1.584998,-2.67301 0.330235,0.003 0.639586,0.0953 0.905539,0.25313 0.103602,0.60534 0.430138,1.13517 0.892052,1.50217 z m -0.0607,-4.83728 c 0.988024,-0.53534 2.190098,-0.53263 3.176812,0.01 -0.143127,0.25789 -0.362041,0.49247 -0.638042,0.66097 -0.607168,-0.25975 -1.297259,-0.26141 -1.904864,-0.006 -0.268224,-0.16581 -0.484692,-0.39411 -0.633906,-0.66501 z"/></svg>