<svg aria-labelledby="gui-table-col-before" role="img" focusable="false" aria-hidden="true" xmlns="http://www.w3.org/2000/svg" viewBox="0 0 14 14"><path d="M 8.6819,1e-4 C 8.3918,1e-4 8.159,0.1689 8.159,0.379 l 0,13.242 c 0,0.21 0.2328,0.3789 0.5229,0.3789 l 4.7928,0 c 0.29,0 0.5252,-0.1689 0.5252,-0.3789 l 0,-13.242 c 0,-0.2101 -0.2352,-0.3789 -0.5252,-0.3789 l -4.7928,0 z m 0.687,1.1582 3.4211,0 0,3.2168 -3.4211,0 0,-3.2168 z m 0,4.2852 3.4211,0 0,3.2148 -3.4211,0 0,-3.2148 z m 0,4.2832 3.4211,0 0,3.2148 -3.4211,0 0,-3.2148 z M 4.0319,3.0001 q 0.264,0 0.4658,0.1915 l 0.3882,0.3882 q 0.1965,0.1966 0.1965,0.4709 0,0.2795 -0.1965,0.4658 l -1.5164,1.5217 3.6436,0 q 0.2691,0 0.4372,0.194 0.1683,0.1941 0.1683,0.4684 l 0,0.6625 q 0,0.2743 -0.1683,0.4684 -0.1681,0.1941 -0.4372,0.1941 l -3.6436,0 1.5164,1.5216 q 0.1965,0.1863 0.1965,0.4658 0,0.2795 -0.1965,0.4658 L 4.4977,10.867 q -0.1967,0.1966 -0.4658,0.1966 -0.2742,0 -0.471,-0.1966 L 0.1917,7.4977 Q 1e-4,7.3165 1e-4,7.0319 1e-4,6.7524 0.1917,6.5609 L 3.5609,3.1916 Q 3.7628,3.0001 4.0319,3.0001 Z"/></svg>