<svg xmlns="http://www.w3.org/2000/svg" id="libre-spinner-11" viewBox="0 0 14 14"><path d="M 14,7.2257598 C 13.981938,6.2824541 13.777382,5.3418578 13.398976,4.4816388 13.022376,3.6209683 12.475087,2.8411268 11.80362,2.1967528 11.132604,1.5519273 10.336958,1.0421177 9.475384,0.70570665 8.6147135,0.3679409 7.6890186,0.2067345 6.7746126,0.2266031 5.8602067,0.2446654 4.9494132,0.44335116 4.1171908,0.81001667 3.2840654,1.1753275 2.5290596,1.7054572 1.9054573,2.356153 1.281855,3.0068488 0.7883016,3.7772076 0.463631,4.6112361 0.1376058,5.4448131 -0.01818191,6.3402536 0.00168667,7.2257598 0.019749,8.1112661 0.213016,8.9918051 0.567941,9.7969339 c 0.3540219,0.8055801 0.8674439,1.5357511 1.497368,2.1385811 0.6294726,0.603282 1.3754472,1.079677 2.1819307,1.393058 0.8060319,0.314737 1.671218,0.464202 2.5278245,0.444785 0.8566064,-0.01806 1.7068911,-0.205459 2.4844748,-0.549095 0.778035,-0.342733 1.48337,-0.839447 2.065429,-1.448599 0.58251,-0.608702 1.042197,-1.329841 1.344289,-2.1087789 0.183785,-0.4723302 0.308866,-0.9649805 0.374342,-1.4648558 0.01761,9.031e-4 0.03522,0.00181 0.05328,0.00181 0.498972,0 0.903117,-0.4041449 0.903117,-0.903117 0,-0.025287 -0.0014,-0.050575 -0.0032,-0.07541 h 0.0032 z M 12.564947,9.623987 c -0.330992,0.750942 -0.810999,1.430989 -1.39938,1.992276 -0.58838,0.561288 -1.284232,1.004718 -2.035625,1.29507 C 8.379,13.20304 7.5734196,13.341217 6.7750642,13.3218 5.9762572,13.303286 5.1860298,13.128081 4.4635362,12.807023 3.7401395,12.48732 3.0849281,12.024021 2.5444126,11.456412 2.0038971,10.888802 1.5776258,10.217786 1.2981111,9.4939382 1.0176933,8.7700899 0.8858382,7.9952155 0.9048037,7.2253083 0.9233176,6.455401 1.0931036,5.6954281 1.4024211,5.000028 1.7108356,4.3041763 2.1574269,3.6738007 2.7042643,3.1540568 3.2511016,2.634313 3.8972819,2.2247494 4.5935851,1.9565237 5.2898883,1.6873948 6.0349598,1.56141 6.7755157,1.5803755 7.5165232,1.5988894 8.2462418,1.7628051 8.9140968,2.0608337 9.582403,2.3579592 10.187492,2.7873913 10.686915,3.313457 c 0.499424,0.5260656 0.891828,1.1469586 1.148314,1.8157167 0.257388,0.6687582 0.377954,1.3835753 0.358537,2.095683 h 0.0032 c -0.0023,0.024836 -0.0032,0.049671 -0.0032,0.07541 0,0.4660084 0.352667,0.84893 0.805581,0.8976983 -0.08805,0.4912956 -0.233456,0.9713023 -0.4344,1.4251186 z"/></svg>