<svg xmlns="http://www.w3.org/2000/svg" id="libre-text-width" viewBox="0 0 14 14"><g transform="matrix(0.00713721,0,0,0.00713721,-0.30850304,-0.68203506)"><path d="m 1566,1539 c 8,0 22,6.5 42,19.5 20,13 39.1667,26.8333 57.5,41.5 18.3333,14.6667 38.1667,31 59.5,49 21.3333,18 33.3333,28 36,30 17.3333,14 26,30.3333 26,49 0,18.6667 -8.6667,35 -26,49 -2.6667,2 -14.6667,12 -36,30 -21.3333,18 -41.1667,34.3333 -59.5,49 -18.3333,14.6667 -37.5,28.5 -57.5,41.5 -20,13 -34,19.5 -42,19.5 -8.6667,0 -15.5,-3.5 -20.5,-10.5 -5,-7 -8.3333,-16.5 -10,-28.5 -1.6667,-12 -2.5,-23.1667 -2.5,-33.5 0,-10.3333 0.5,-21.3333 1.5,-33 1,-11.6667 1.5,-18.1667 1.5,-19.5 l -1024,0 c 0,1.3333 0.5,7.8333 1.5,19.5 1,11.6667 1.5,22.6667 1.5,33 0,10.3333 -0.83333,21.5 -2.5,33.5 -1.66667,12 -5,21.5 -10,28.5 -5,7 -11.83333,10.5 -20.5,10.5 -8,0 -22,-6.5 -42,-19.5 -20,-13 -39.16667,-26.8333 -57.5,-41.5 -18.33333,-14.6667 -38.16667,-31 -59.5,-49 -21.33333,-18 -33.33333,-28 -36,-30 -17.33333,-14 -26,-30.3333 -26,-49 0,-18.6667 8.66667,-35 26,-49 2.66667,-2 14.66667,-12 36,-30 21.33333,-18 41.16667,-34.3333 59.5,-49 18.33333,-14.6667 37.5,-28.5 57.5,-41.5 20,-13 34,-19.5 42,-19.5 8.66667,0 15.5,3.5 20.5,10.5 5,7 8.33333,16.5 10,28.5 1.66667,12 2.5,23.1667 2.5,33.5 0,10.3333 -0.5,21.3333 -1.5,33 -1,11.6667 -1.5,18.1667 -1.5,19.5 l 1024,0 c 0,-1.3333 -0.5,-7.8333 -1.5,-19.5 -1,-11.6667 -1.5,-22.6667 -1.5,-33 0,-10.3333 0.8333,-21.5 2.5,-33.5 1.6667,-12 5,-21.5 10,-28.5 5,-7 11.8333,-10.5 20.5,-10.5 z"/><path d="m 1542.4843,448.53723 0,-212.86551 -1041.52051,0 0,212.86551 395.32165,0 0,1087.13457 250.87716,0 0,-1087.13457 395.3217,0"/></g></svg>