<svg role="img" focusable="false" aria-hidden="true" xmlns="http://www.w3.org/2000/svg" viewBox="0 0 14 14"><path d="m 6.93226,4.06239 q 0,-0.57041 -0.39928,-0.9697 -0.39929,-0.39928 -0.9697,-0.39928 -0.57041,0 -0.9697,0.39928 -0.39928,0.39929 -0.39928,0.9697 0,0.29946 0.13547,0.5918 -0.29234,-0.13547 -0.5918,-0.13547 -0.57041,0 -0.9697,0.39928 -0.39929,0.39929 -0.39929,0.9697 0,0.57041 0.39929,0.9697 0.39929,0.39928 0.9697,0.39928 0.57041,0 0.96969,-0.39928 0.39929,-0.39929 0.39929,-0.9697 0,-0.29946 -0.13547,-0.5918 0.29233,0.13547 0.5918,0.13547 0.57041,0 0.9697,-0.39928 Q 6.93226,4.6328 6.93226,4.06239 z M 13,9.082 q 0,0.12121 -0.34938,0.47059 -0.34937,0.34937 -0.47058,0.34937 -0.0642,0 -0.20321,-0.11408 Q 11.83779,9.6738 11.71658,9.55259 11.59537,9.43137 11.44207,9.26738 11.28877,9.10339 11.26738,9.082 l -0.68449,0.68449 1.56863,1.56863 q 0.19964,0.19964 0.19964,0.48485 0,0.29946 -0.27808,0.57753 -0.27807,0.27808 -0.57754,0.27808 -0.2852,0 -0.48484,-0.19964 L 6.22638,7.69162 Q 4.97148,8.62567 3.62389,8.62567 2.46168,8.62567 1.730838,7.89483 1,7.16399 1,6.00178 1,4.86096 1.677362,3.77005 2.35472,2.67915 3.44563,2.00178 4.53654,1.32442 5.67736,1.32442 q 1.16221,0 1.89305,0.73084 0.73084,0.73084 0.73084,1.89305 0,1.34759 -0.93405,2.60249 L 9.8984,9.082 10.58289,8.39751 Q 10.56149,8.37611 10.3975,8.22282 10.23351,8.06952 10.1123,7.94831 9.99109,7.8271 9.87701,7.68806 9.76292,7.54902 9.76292,7.48485 q 0,-0.12121 0.34938,-0.47059 0.34938,-0.34937 0.47059,-0.34937 0.0927,0 0.16399,0.0713 0.0428,0.0428 0.32799,0.31729 0.2852,0.27451 0.58467,0.56684 0.29946,0.29234 0.61675,0.61319 0.31729,0.32086 0.5205,0.55615 Q 13,9.02496 13,9.082 z"/></svg>