<svg role="img" focusable="false" aria-hidden="true" xmlns="http://www.w3.org/2000/svg" viewBox="0 0 14 14"><path d="M 5,5 Q 5,5.5 4.65,5.85 4.3,6.2 3.8,6.2 3.3,6.2 2.95,5.85 2.6,5.5 2.6,5 2.6,4.5 2.95,4.15 3.3,3.8 3.8,3.8 4.3,3.8 4.65,4.15 5,4.5 5,5 z m 6.4,2.4 v 2.8 H 2.6 V 9 l 2,-2 1,1 3.2,-3.2 z M 12,3 H 2 Q 1.91875,3 1.859375,3.0594 1.8,3.11875 1.8,3.2 v 7.6 q 0,0.0813 0.05938,0.14062 Q 1.91875,11 2,11 h 10 q 0.0812,0 0.14062,-0.0594 Q 12.2,10.88125 12.2,10.8 V 3.2 Q 12.2,3.1188 12.1406,3.05938 12.08125,3 12,3 z m 1,0.2 v 7.6 q 0,0.4125 -0.29375,0.70625 Q 12.4125,11.8 12,11.8 H 2 Q 1.5875,11.8 1.29375,11.50625 1,11.2125 1,10.8 V 3.2 Q 1,2.7875 1.29375,2.49375 1.5875,2.2 2,2.2 h 10 q 0.4125,0 0.70625,0.29375 Q 13,2.7875 13,3.2 z"/></svg>