<svg role="img" focusable="false" aria-hidden="true" xmlns="http://www.w3.org/2000/svg" viewBox="0 0 14 14"><path d="m 8.4807575,11.403515 c -0.01443,-0.0377 -0.01982,-1.54981 -0.012,-3.36019 0.01259,-2.91155 0.02398,-3.29349 0.09866,-3.30787 0.120658,-0.0232 4.4109205,3.20462 4.4323305,3.33473 0.01336,0.0812 -0.475111,0.47362 -2.182256,1.75325 -1.2097065,0.90677 -2.2244505,1.64867 -2.2549875,1.64867 -0.03054,0 -0.06732,-0.0309 -0.08175,-0.0686 z m -1.451884,-3.32906 0,-4.82434 -0.795652,-1.02685 c -0.437608,-0.56476 -0.795651,-1.04827 -0.795651,-1.07446 0,-0.0262 0.839549,-0.0476 1.865666,-0.0476 1.026116,0 1.865666,0.0214 1.865666,0.0476 0,0.0262 -0.358043,0.5097 -0.795652,1.07446 l -0.795651,1.02685 0,4.82434 0,4.82434 -0.274363,0 -0.274363,0 z m -4.366154,3.38012 c -0.0156,-0.0407 -0.0211,-0.28177 -0.0123,-0.53578 l 0.0161,-0.46183 1.755919,0 1.755921,0 0,0.52129 0,0.52129 -1.743629,0.0145 c -1.421731,0.0118 -1.748871,8.2e-4 -1.772001,-0.0595 z m -1.64627,-1.92077 c -0.0156,-0.0405 -0.0211,-0.28154 -0.0122,-0.53555 l 0.0161,-0.46183 2.579011,0 2.579009,0 0,0.52129 0,0.52129 -2.566805,0.0143 c -2.107975,0.0117 -2.571865,10e-4 -2.595095,-0.0595 z m 1.0975,-1.9204 c -0.0156,-0.0406 -0.0211,-0.28168 -0.0123,-0.53569 l 0.0161,-0.46183 2.030286,0 2.030284,0 0,0.52129 0,0.52129 -2.018028,0.0144 c -1.650502,0.0118 -2.023192,9.3e-4 -2.046372,-0.0595 z m 1.371932,-1.92024 c -0.01565,-0.0408 -0.02122,-0.28198 -0.01237,-0.53599 l 0.01608,-0.46182 1.344378,0 1.344377,0 0,0.52128 0,0.52129 -1.332006,0.0147 c -1.078504,0.0119 -1.337421,6e-4 -1.360462,-0.0595 z"/></svg>