<svg xmlns="http://www.w3.org/2000/svg" id="libre-license-trademark" viewBox="0 0 14 14"><g transform="matrix(0.02020499,0,0,0.02020499,1.8679426,1.8073075)"><path d="m 216.16222,186.47336 0,-34.64491 -169.512583,0 0,34.64491 64.340543,0 0,176.93649 40.8315,0 0,-176.93649 64.34054,0 z"/><path d="m 296.47673,150.59114 -57.84462,0 -4.33062,212.81871 40.21284,0 1.23732,-104.55338 c 0.30933,-21.65307 -0.92799,-47.63675 -3.71195,-74.23909 5.2586,30.93296 11.75452,55.67932 18.25044,74.23909 l 35.57289,101.46009 42.68748,0 34.64491,-101.46009 c 6.49592,-18.55977 14.22915,-49.49272 19.17843,-80.42568 -2.78397,26.91167 -4.02129,58.77261 -3.71196,80.42568 l 1.23732,104.55338 41.45016,0 -4.33062,-212.81871 -57.84462,0 -41.75948,136.41432 c -3.71196,12.06385 -7.11458,24.43703 -9.58922,39.59418 -2.47464,-15.15715 -5.87726,-27.53033 -9.58922,-39.59418 L 296.47673,150.59114 Z"/></g><path d="m 6.9918471,1.0000001 c -1.646085,0 -3.094609,0.608341 -4.2139921,1.74247 -1.152373,1.167075 -1.77785505,2.6795 -1.77785505,4.257436 0,1.594596 0.60898705,3.0740769 1.76136015,4.2246789 C 3.9137331,12.375377 5.411553,13 6.9918471,13 8.5719521,13 10.102951,12.375377 11.288125,11.208303 12.407508,10.106928 13,8.6439201 13,6.9999061 13,5.3725521 12.407508,3.8932611 11.27163,2.7589431 10.119446,1.6081511 8.6379321,1.0000001 6.9918471,1.0000001 Z m 0.0163,1.084902 c 1.349934,0 2.5516021,0.509506 3.4897299,1.446725 0.921823,0.920368 1.415535,2.13686 1.415535,3.468279 0,1.347891 -0.477406,2.531627 -1.39904,3.4357119 -0.9713069,0.953313 -2.2222708,1.463008 -3.5062249,1.463008 -1.300259,0 -2.518422,-0.509507 -3.45674,-1.446725 C 2.61309,9.5148711 2.086388,8.2820961 2.086388,6.9999061 c 0,-1.298474 0.526702,-2.531249 1.465019,-3.48494 0.921823,-0.93684 2.106996,-1.430064 3.45674,-1.430064 z"/></g></svg>