<svg xmlns="http://www.w3.org/2000/svg" id="libre-license-registered" viewBox="0 0 14 14"><path d="M 7,2 C 6.32292,2 5.6757833,2.1328123 5.05859,2.398437 4.4414033,2.6640623 3.9101533,3.019531 3.46484,3.464843 3.0195333,3.9101563 2.6640667,4.4414067 2.39844,5.058594 2.1328133,5.6757813 2,6.3229167 2,7 c 0,0.6770833 0.1328133,1.3242187 0.39844,1.941406 0.2656267,0.6171873 0.6210933,1.148438 1.0664,1.593751 0.4453133,0.445312 0.9765633,0.800781 1.59375,1.066406 C 5.6757833,11.867188 6.32292,12 7,12 c 0.67708,0 1.3242167,-0.132812 1.94141,-0.398437 0.6171867,-0.265625 1.148437,-0.621094 1.59375,-1.066406 0.445313,-0.445313 0.80078,-0.9765637 1.0664,-1.593751 C 11.867187,8.3242187 12,7.6770833 12,7 12,6.3229167 11.867187,5.6757813 11.60156,5.058594 11.33594,4.4414067 10.980473,3.9101563 10.53516,3.464843 10.089847,3.019531 9.5585967,2.6640623 8.94141,2.398437 8.3242167,2.1328123 7.67708,2 7,2 Z m 6,5 c 0,1.088542 -0.26823,2.092448 -0.80469,3.011718 -0.53646,0.919271 -1.264323,1.647136 -2.18359,2.183594 C 9.0924467,12.731771 8.08854,13 7,13 5.91146,13 4.9075533,12.731771 3.98828,12.195312 3.0690133,11.658854 2.3411493,10.930989 1.804688,10.011718 1.2682293,9.092448 1,8.088542 1,7 1,5.911458 1.2682293,4.907552 1.804688,3.988282 2.3411493,3.0690107 3.0690133,2.341146 3.98828,1.804688 4.9075533,1.2682293 5.91146,1 7,1 8.08854,1 9.0924467,1.2682293 10.01172,1.804688 10.930987,2.341146 11.65885,3.0690107 12.19531,3.988282 12.73177,4.907552 13,5.911458 13,7 Z"/><path d="m 4.685,10.49 1.32,0 0,-2.6700002 0.47,0 c 0.73,0 0.87,0.36 0.97,0.86 0.1,0.5 0.27,1.27 0.43,1.8100002 l 1.44,0 c -0.17,-0.45 -0.4,-1.2800002 -0.53,-1.8900002 -0.16,-0.78 -0.45,-1.45 -1.08,-1.54 0.85,-0.17 1.45,-0.71 1.45,-1.63 0,-1.16 -0.86,-1.92 -2.57,-1.92 -0.54,0 -1.32,0.04 -1.9,0.12 l 0,6.8600002 z m 1.32,-3.7400002 0,-2.09 c 0.22,-0.02 0.42,-0.03 0.6,-0.03 0.79,0 1.13,0.43 1.13,1.02 0,0.62 -0.49,1.1 -1.38,1.1 l -0.35,0 z"/></svg>