<svg aria-labelledby="gui-table-col-remove" role="img" focusable="false" aria-hidden="true" xmlns="http://www.w3.org/2000/svg" viewBox="0 0 14 14"><path d="m 5.31971,13.9999 c 0.29019,0 0.52307,-0.1688 0.52307,-0.3789 l 0,-13.242 C 5.84278,0.169 5.6099,1e-4 5.31971,1e-4 l -4.79434,0 C 0.23528,1e-4 0,0.169 0,0.379 l 0,13.242 c 0,0.2101 0.23528,0.3789 0.52537,0.3789 l 4.79434,0 z m -0.68722,-1.1582 -3.4222,0 0,-3.2168 3.4222,0 0,3.2168 z m 0,-4.2852 -3.4222,0 0,-3.2148 3.4222,0 0,3.2148 z m 0,-4.2832 -3.4222,0 0,-3.2148 3.4222,0 0,3.2148 z m 1.76757,0.4266 q 0,-0.2558 0.17911,-0.4348 L 7.4492,3.3953 q 0.17912,-0.1791 0.43501,-0.1791 0.2559,0 0.43501,0.1791 l 1.88081,1.8802 1.8808,-1.8802 q 0.17912,-0.1791 0.43501,-0.1791 0.2559,0 0.43501,0.1791 l 0.87003,0.8698 Q 14,4.4441 14,4.6999 14,4.9557 13.82088,5.1348 l -1.8808,1.8802 1.8808,1.8802 Q 14,9.0742 14,9.33 14,9.5858 13.82088,9.7649 l -0.87003,0.8698 q -0.17911,0.179 -0.43501,0.179 -0.25589,0 -0.43501,-0.179 l -1.8808,-1.8802 -1.88081,1.8802 q -0.17911,0.179 -0.43501,0.179 -0.25589,0 -0.43501,-0.179 L 6.57917,9.7649 Q 6.40006,9.5858 6.40006,9.33 q 0,-0.2558 0.17911,-0.4348 L 8.45998,7.015 6.57917,5.1348 Q 6.40006,4.9557 6.40006,4.6999 Z"/></svg>