<svg xmlns="http://www.w3.org/2000/svg" id="libre-file-code" viewBox="0 0 14 14"><path d="m 11.687505,3.544643 q 0.1875,0.1875 0.32143,0.508928 0.13392,0.321429 0.13392,0.589286 v 7.714286 q 0,0.267857 -0.1875,0.455357 Q 11.767855,13 11.500005,13 h -9 q -0.26786,0 -0.45536,-0.1875 -0.1875,-0.1875 -0.1875,-0.455357 V 1.642857 Q 1.857145,1.375 2.044645,1.1875 2.232145,1 2.500005,1 h 6 q 0.26785,0 0.58928,0.133928 0.32143,0.133929 0.50893,0.321429 z M 8.714285,1.910714 v 2.517857 h 2.51786 q -0.067,-0.194196 -0.14732,-0.274553 L 8.988845,2.058035 q -0.0804,-0.08036 -0.27456,-0.147321 z m 2.57143,10.232143 V 5.285714 h -2.78571 q -0.26786,0 -0.45536,-0.1875 -0.1875,-0.1875 -0.1875,-0.455357 V 1.857143 h -5.14286 v 10.285714 h 8.57143 z m -6.21428,-6 q 0.0536,-0.07366 0.14062,-0.08371 0.0871,-0.01004 0.16072,0.04353 l 0.34151,0.254465 q 0.0737,0.05357 0.0837,0.140625 0.01,0.08705 -0.0435,0.160714 l -1.21875,1.627232 1.21875,1.627232 q 0.0536,0.07366 0.0435,0.160715 -0.0101,0.08705 -0.0837,0.140625 l -0.34151,0.254464 q -0.0737,0.05357 -0.16072,0.04353 -0.0871,-0.01004 -0.14062,-0.08371 l -1.5134,-2.015625 q -0.0937,-0.127232 0,-0.254464 z m 5.37053,2.015625 q 0.0937,0.127232 0,0.254464 l -1.51339,2.015625 q -0.0536,0.07366 -0.14063,0.08371 -0.087,0.01005 -0.16071,-0.04353 l -0.34152,-0.254464 q -0.0737,-0.05357 -0.0837,-0.140625 -0.0101,-0.08705 0.0435,-0.160715 L 9.464265,8.285715 8.245515,6.658483 q -0.0536,-0.07366 -0.0435,-0.160714 0.01,-0.08705 0.0837,-0.140625 l 0.34152,-0.254465 q 0.0737,-0.05357 0.16071,-0.04353 0.0871,0.01004 0.14063,0.08371 z m -4.15178,3.087054 q -0.0871,-0.01339 -0.13728,-0.08705 -0.0502,-0.07366 -0.0368,-0.160714 l 0.92411,-5.564733 q 0.0134,-0.08705 0.0871,-0.137276 0.0737,-0.05022 0.16071,-0.03683 l 0.42188,0.06696 q 0.0871,0.01339 0.13728,0.08705 0.0502,0.07366 0.0368,0.160715 l -0.92411,5.564732 q -0.0134,0.08705 -0.0871,0.137276 -0.0737,0.05022 -0.16072,0.03683 z"/></svg>