<svg role="img" focusable="false" aria-hidden="true" xmlns="http://www.w3.org/2000/svg" viewBox="0 0 14 14"><path d="M7.112367 7.7831146c.3706965 0 .6711547-.3004583.6711547-.6711547 0-.3706496-.3004582-.6711078-.6711547-.6711078-.3706495 0-.6711078.3004582-.6711078.6711078 0 .3706964.3004583.6711547.6711078.6711547zm2.3333339 0c.3706496 0 .6711551-.3004583.6711551-.6711547 0-.3706496-.3005055-.6711078-.6711551-.6711078-.3706495 0-.6711078.3004582-.6711078.6711078 0 .3706964.3004583.6711547.6711078.6711547zm-4.6667616-.0001407c.3706027 0 .671014-.3004114.671014-.6709671 0-.3706027-.3004113-.6710609-.6709671-.6710609-.3706496 0-.6710609.3004582-.6710609.671014 0 .3706027.3004113.671014.671014.671014zM2.6015627 1.8985146c-.9623187.0401616-1.6015624.4062501-1.6015624.4062501s1.5230998 1.2508524 1.2753905 2.3476564c-.6814231.6760779-1.0507811 1.4911711-1.0507811 2.3398438v.01562c0 .8486726.3692174 1.6639065 1.0507811 2.3398438.2477093 1.0969033-1.2753905 2.3476613-1.2753905 2.3476613s1.6376556.935922 3.613281-.02148c.3697588-.198711.7189485-.451157 1.0175782-.730469.4812582.08421.979126.126954 1.4824217.126953 1.5068394 0 2.9345738-.381901 4.0214848-1.0761719.562843-.3596817 1.010724-.7851985 1.330078-1.2675822C12.820489 8.189538 13 7.6102599 13 7.0078899v-.015623c0-.6026534-.179464-1.1815564-.535156-1.7187521-.319307-.4821492-.767235-.9078535-1.330078-1.2675782-1.086864-.6942236-2.5147392-1.0761719-4.0214848-1.0761719-.5032957 0-1.0012572.042648-1.4824217.1269531-.298489-.2794524-.6477726-.5317574-1.0175782-.7304687-.7408594-.35908-1.4343273-.4518313-2.0117186-.4277344zm4.5117185 1.8828126c2.79007 0 5.0507808 1.4443502 5.0507808 3.2265627 0 1.7820718-2.2607108 3.2265631-5.0507808 3.2265631-.6212659 0-1.2179569-.07021-1.767578-.201172-.5586704.671999-1.7866066 1.604693-2.9804686 1.302735.3883263-.417069.9629716-1.120305.8398437-2.2812511-.7156045-.5567011-1.1445311-1.2703161-1.1445311-2.046875-.0001407-1.7823532 2.2625704-3.2265627 5.052734-3.2265627z"/></svg>