<svg xmlns="http://www.w3.org/2000/svg" viewBox="0 0 14 14" id="libre-random"><path d="M 5.459789,4.64957 Q 5.058009,5.26564 4.542379,6.4777 4.395059,6.17636 4.294609,5.9922 4.194169,5.80805 4.023409,5.56698 3.852649,5.32591 3.681889,5.18863 3.511129,5.05136 3.260009,4.95426 3.008899,4.85716 2.714259,4.85716 H 1.214255 q -0.09375,0 -0.154018,-0.0603 Q 0.999969,4.73666 0.999969,4.64287 V 3.35716 q 0,-0.0937 0.06027,-0.15402 0.06027,-0.0603 0.154018,-0.0603 h 1.500004 q 1.6741,0 2.74553,1.5067 z m 7.54018,5.35045 q 0,0.0937 -0.0603,0.15402 l -2.14285,2.14285 q -0.0603,0.0603 -0.15402,0.0603 -0.0871,0 -0.15067,-0.0636 -0.0636,-0.0636 -0.0636,-0.15067 v -1.28571 q -0.21428,0 -0.5692,0.003 -0.35491,0.003 -0.54241,0.007 -0.1875,0.003 -0.48884,-0.007 -0.30133,-0.0101 -0.47544,-0.0335 -0.17411,-0.0234 -0.42857,-0.0703 -0.25447,-0.0469 -0.42188,-0.12388 -0.16741,-0.077 -0.38839,-0.19085 -0.22098,-0.11384 -0.39509,-0.26786 -0.17411,-0.15401 -0.3683,-0.35825 -0.1942,-0.20425 -0.375,-0.46541 0.39509,-0.62276 0.91071,-1.82812 0.14732,0.30134 0.24777,0.48549 0.10044,0.18415 0.2712,0.42522 0.17076,0.24107 0.34152,0.37835 0.17076,0.13728 0.42188,0.23438 0.25111,0.0971 0.54576,0.0971 h 1.71428 V 7.85687 q 0,-0.0937 0.0603,-0.15402 0.0603,-0.0603 0.15402,-0.0603 0.0803,0 0.16071,0.067 l 2.13616,2.13616 q 0.0603,0.0603 0.0603,0.15402 z m 0,-6 q 0,0.0937 -0.0603,0.15401 l -2.14285,2.14286 q -0.0603,0.0603 -0.15402,0.0603 -0.0871,0 -0.15067,-0.0636 -0.0636,-0.0636 -0.0636,-0.15067 V 4.85721 h -1.71428 q -0.32143,0 -0.58259,0.10045 -0.26116,0.10044 -0.46206,0.30134 -0.20089,0.20089 -0.34152,0.41183 -0.14062,0.21093 -0.30133,0.51897 -0.21429,0.41518 -0.52233,1.14509 -0.19419,0.44196 -0.33147,0.7433 -0.13728,0.30134 -0.36161,0.70313 -0.22433,0.40178 -0.42857,0.66964 -0.20424,0.26786 -0.49553,0.5558 -0.2913,0.28795 -0.60268,0.45871 -0.31139,0.17076 -0.71317,0.28125 -0.40179,0.11049 -0.85714,0.11049 H 1.214245 q -0.09375,0 -0.154018,-0.0603 -0.060258,-0.0603 -0.060258,-0.15404 V 9.35716 q 0,-0.0937 0.06027,-0.15402 0.06027,-0.0603 0.154018,-0.0603 h 1.500004 q 0.32142,0 0.58258,-0.10044 0.26117,-0.10045 0.46206,-0.30134 0.20089,-0.20089 0.34152,-0.41183 0.14062,-0.21094 0.30134,-0.51898 0.21428,-0.41517 0.52232,-1.14508 0.19419,-0.44197 0.33147,-0.74331 0.13728,-0.30134 0.36161,-0.70312 0.22433,-0.40179 0.42857,-0.66965 0.20424,-0.26785 0.49553,-0.5558 0.2913,-0.28795 0.60268,-0.45871 0.31139,-0.17075 0.71317,-0.28124 0.40179,-0.1105 0.85715,-0.1105 h 1.71428 V 1.85713 q 0,-0.0937 0.0603,-0.15402 0.0603,-0.0603 0.15402,-0.0603 0.0803,0 0.16071,0.067 l 2.13616,2.13616 q 0.0603,0.0603 0.0603,0.15402 z"/></svg>