<svg xmlns="http://www.w3.org/2000/svg" id="libre-tooltip" viewBox="0 0 14 14"><path d="M 11.8835,1.4856299 H 2.1160005 C 1.4996049,1.4856299 1,1.9857339 1,2.6016304 V 8.8344633 C 1,9.4503598 1.4996049,9.9504638 2.1160005,9.9504638 H 3.9771659 L 3.977665,12.51437 6.8245643,9.9504638 H 11.884 c 0.616894,0 1.116,-0.500104 1.116,-1.1160005 V 2.6016304 C 12.999501,1.9857339 12.500395,1.4856299 11.8835,1.4856299 z M 4.0051158,5.9860666 c -0.2760055,0 -0.4991057,-0.2235993 -0.4991057,-0.4991057 0,-0.2760055 0.2231002,-0.4991058 0.4991057,-0.4991058 0.2755064,0 0.4991058,0.2231003 0.4991058,0.4991058 0,0.2755064 -0.2235994,0.4991057 -0.4991058,0.4991057 z m 1.9964231,-0.020962 c -0.2760055,0 -0.4991058,-0.2235994 -0.4991058,-0.4991058 0,-0.2760055 0.2231003,-0.4991057 0.4991058,-0.4991057 0.2755064,0 0.4991058,0.2231002 0.4991058,0.4991057 0,0.2755064 -0.2235994,0.4991058 -0.4991058,0.4991058 z m 2.0064051,0.010481 c -0.275506,0 -0.499106,-0.2231003 -0.499106,-0.4991057 0,-0.2755064 0.2236,-0.4991058 0.499106,-0.4991058 0.276006,0 0.499106,0.2235994 0.499106,0.4991058 0,0.2755063 -0.2236,0.4991057 -0.499106,0.4991057 z m 1.986441,0.010481 c -0.276005,0 -0.499106,-0.2235993 -0.499106,-0.4991057 0,-0.2760055 0.223101,-0.4991058 0.499106,-0.4991058 0.275506,0 0.499106,0.2231003 0.499106,0.4991058 0,0.2755064 -0.2236,0.4991057 -0.499106,0.4991057 z"/></svg>