<svg xmlns="http://www.w3.org/2000/svg" id="libre-picture-rounded" viewBox="0 0 14 14"><g transform="matrix(0.00626482,0,0,0.00626482,0.58482441,0.58482419)"><path d="m 683.0909,683.09092 c 0,56.81818 -19.88636,105.11363 -59.6591,144.88636 -39.77273,39.77274 -88.06818,59.6591 -144.88636,59.6591 -56.81818,0 -105.11365,-19.88636 -144.88637,-59.6591 -39.77273,-39.77273 -59.65909,-88.06818 -59.65909,-144.88636 0,-56.81818 19.88636,-105.11365 59.65909,-144.88637 39.77272,-39.77273 88.06819,-59.65909 144.88637,-59.65909 56.81818,0 105.11364,19.88636 144.88636,59.65909 39.77274,39.77272 59.6591,88.06819 59.6591,144.88637 z M 1774,1092.1818 l 0,477.2727 -1500.00001,0 0,-204.5455 L 614.90909,1024 785.36364,1194.4546 1330.8182,649 z"/><path d="m 413.875,284.90625 c -191.15131,0 -347.59375,153.87406 -347.59375,343.71875 l 0,790.75 c 0,189.8446 156.44243,343.7188 347.59375,343.7188 l 1220.25,0 c 191.1513,0 347.5938,-153.8742 347.5938,-343.7188 l 0,-790.75 c 0,-189.84468 -156.4425,-343.71875 -347.5938,-343.71875 l -1220.25,0 z m 0,115.71875 1220.25,0 c 129.8799,0 231.9063,101.09392 231.9062,228 l 0,790.75 c 0,126.906 -102.0263,228 -231.9062,228 l -1220.25,0 c -129.87984,0 -231.90625,-101.094 -231.90625,-228 l 0,-790.75 c 0,-126.90607 102.0264,-228 231.90625,-228 z"/></g></svg>