<svg xmlns="http://www.w3.org/2000/svg" viewBox="0 0 14 14" id="libre-question"><path d="M 3.9152543,3.7288136 C 4.508474,3.2203396 5.2881365,2.8983052 6.1355932,2.8983052 c 0.9830499,0 1.5762712,0.5084752 1.5762712,1.1694915 0,0.7288128 -0.2372893,1.2203404 -1.4067797,2.677966 C 5.457628,7.796609 5.2033898,8.457628 5.1694916,9.4406778 l 2.2542372,0 C 7.4745762,8.6271194 7.7966108,8.0169483 8.4406779,7.2372881 9.6440665,5.7966116 10.152542,5.016948 10.152542,3.8305085 c 0,-1.6610152 -1.4406797,-2.8305084 -3.4576268,-2.8305084 -1.1186429,0 -2.1694921,0.3220344 -2.8474575,0.8135593 l 0.067797,1.9152542 m 2.3898304,6.6949154 c -0.7118636,0 -1.2881355,0.576272 -1.2881355,1.288135 0,0.711864 0.5762719,1.288136 1.2881355,1.288136 0.7118637,0 1.2881356,-0.576272 1.2881356,-1.288136 0,-0.711863 -0.5762719,-1.288135 -1.2881356,-1.288135"/></svg>