<svg xmlns="http://www.w3.org/2000/svg" id="libre-brand-flickr" viewBox="0 0 14 14"><g transform="matrix(0.02525109,0,0,0.02525109,0.53558208,0.53575884)"><path d="m 380.754,373.279 c -65.7,0 -119.193,-53.504 -119.193,-119.225 0,-65.731 53.494,-119.204 119.193,-119.204 52.398,0 96.901,33.976 112.855,81.049 l 0,-123.945 c 0,-40.612 -32.942,-73.564 -73.584,-73.564 l -328.038,0 c -40.633,0 -73.595,32.942 -73.595,73.564 l 0,328.069 c 0,40.642 32.962,73.584 73.595,73.584 l 328.048,0 c 40.642,0 73.584,-32.942 73.584,-73.584 l 0,-127.795 c -15.964,47.053 -60.467,81.05 -112.865,81.05 z M 138.957,372.798 C 74.425,372.798 22.149,320.523 22.149,256 c 0,-64.532 52.275,-116.818 116.808,-116.818 64.502,0 116.828,52.275 116.828,116.818 0,64.522 -52.327,116.798 -116.828,116.798 z"/><path d="m 380.754,155.095 c -54.538,0 -98.918,44.4 -98.918,98.97 0,54.558 44.38,98.939 98.918,98.939 54.579,0 98.959,-44.38 98.959,-98.939 0,-54.569 -44.38,-98.97 -98.959,-98.97 z"/></g></svg>