<svg role="img" focusable="false" aria-hidden="true" xmlns="http://www.w3.org/2000/svg" viewBox="0 0 14 14"><path d="m 12.587883,4.2617765 -0.232705,0.463633 -0.03079,-0.05448 c -0.05092,-0.08882 -0.162243,-0.254022 -0.223823,-0.330406 -0.165795,-0.206059 -0.391395,-0.357051 -0.619363,-0.413895 -0.09178,-0.0225 -0.270009,-0.02309 -0.353498,-5.92e-4 -0.162835,0.04441 -0.317379,0.139741 -0.461858,0.285404 -0.172308,0.172901 -0.313826,0.404421 -0.431659,0.704036 -0.129675,0.329222 -0.195401,0.653114 -0.217309,1.075891 -0.02428,0.459489 0.03967,0.905359 0.18415,1.292608 0.03612,0.09474 0.08467,0.20902 0.08823,0.205468 0.0012,-0.0012 -0.0024,-0.02546 -0.0077,-0.05448 -0.03434,-0.180006 -0.04855,-0.544162 -0.03197,-0.804105 0.01776,-0.270009 0.06987,-0.525807 0.171716,-0.839633 0.104214,-0.324484 0.227968,-0.537649 0.428698,-0.744301 0.202507,-0.207836 0.383697,-0.299023 0.622323,-0.312642 0.170532,-0.0089 0.302576,0.03375 0.492056,0.159874 0.178821,0.120201 0.345801,0.309681 0.481397,0.5489 0.02072,0.03612 0.03967,0.06276 0.04263,0.0598 0.01066,-0.01184 0.460081,-0.879305 0.463042,-0.892924 0.0024,-0.01184 -0.118425,-0.776868 -0.127307,-0.804697 -0.0012,-0.0036 -0.107175,0.201914 -0.235074,0.456528 z M 1.0041472,3.8520255 c 0.00178,0.0095 0.4251455,1.438271 0.9402941,3.17675 l 0.9361492,3.1607625 0.08349,0 0.5862035,-1.9628945 c 0.3221158,-1.080035 0.5879798,-1.963486 0.5897562,-1.963486 0.00178,0 0.2676404,0.883451 0.5897562,1.963486 l 0.5862029,1.9628945 0.08231,0 0.806473,-2.7214065 c 0.795816,-2.685878 0.807066,-2.721997 0.843186,-2.784762 l 0.0373,-0.06395 1.32932,0 -0.02369,0.04026 c -0.01362,0.0225 -0.260535,0.450014 -0.549492,0.950952 l -0.526399,0.909504 0,0.378367 0.2072439,0 c 0.2190861,0 0.311458,0.0065 0.4221851,0.02842 0.409158,0.08349 0.673838,0.352314 0.770354,0.783973 0.05388,0.239219 0.05981,0.533505 0.01776,0.782197 -0.06632,0.391987 -0.261719,0.724761 -0.500345,0.852068 -0.09533,0.05151 -0.141518,0.06158 -0.275338,0.0604 -0.101846,-5.92e-4 -0.124939,-0.003 -0.184151,-0.01835 -0.159282,-0.04323 -0.264088,-0.104807 -0.390803,-0.233298 -0.123754,-0.124938 -0.209612,-0.254613 -0.293693,-0.44054 -0.02132,-0.04737 -0.0373,-0.07579 -0.04323,-0.07402 -0.0083,0.0024 -0.519293,0.213165 -0.599822,0.247508 l -0.03375,0.01421 0.02842,0.07875 c 0.173493,0.486134 0.490871,0.872792 0.873976,1.0640485 0.18119,0.09119 0.353499,0.136189 0.564295,0.148031 0.373039,0.02132 0.709365,-0.07461 0.982335,-0.2824435 0.07698,-0.05803 0.213165,-0.190665 0.277706,-0.270601 0.254022,-0.313827 0.402053,-0.670878 0.463042,-1.114971 0.02072,-0.150992 0.02605,-0.471332 0.01066,-0.631205 -0.06277,-0.655482 -0.344024,-1.172999 -0.798184,-1.469654 -0.08763,-0.05744 -0.22856,-0.127899 -0.335143,-0.166979 -0.04441,-0.01717 -0.08408,-0.03316 -0.08645,-0.03553 -0.003,-0.003 0.254614,-0.453567 0.573177,-1.002467 l 0.579098,-0.99773 0,-0.384289 -3.087338,0 -0.567848,1.929735 c -0.31205,1.061087 -0.56844,1.929734 -0.570808,1.929734 -0.0024,0 -0.2433631,-0.815356 -0.5352806,-1.811902 -0.2924981,-0.995945 -0.5482959,-1.864 -0.5672439,-1.929726 l -0.035527,-0.117833 -0.4121188,0 c -0.3896181,0 -0.4121189,5.92e-4 -0.4085661,0.01184 0.00237,0.0071 0.087042,0.291325 0.1877035,0.631205 l 0.1841508,0.618178 -0.3831047,1.299121 c -0.2107964,0.714695 -0.3842889,1.29853 -0.3866574,1.29853 -0.00237,0 -0.2587585,-0.868647 -0.5708083,-1.929735 l -0.5672555,-1.929734 -0.8236455,0 0.00355,0.01539 z m 8.7237741,4.445673 c 0,0.01184 0.114872,0.347577 0.14507,0.425146 0.04086,0.10599 0.1486237,0.325076 0.2143487,0.439356 0.117833,0.203099 0.266457,0.400276 0.416264,0.550084 0.247508,0.249877 0.494424,0.3854735 0.797,0.4387645 0.07046,0.01184 0.324484,0.01184 0.394947,0 0.210204,-0.0373 0.394947,-0.11428 0.55719,-0.2332975 0.281259,-0.205467 0.52403,-0.487318 0.704036,-0.817132 l 0.04322,-0.07875 -0.05921,-0.307313 c -0.03257,-0.16994 -0.05981,-0.309681 -0.06217,-0.311458 -0.0012,-0.0012 -0.03197,0.04737 -0.06869,0.108359 -0.08527,0.143886 -0.184151,0.29251 -0.244548,0.368302 -0.02605,0.03257 -0.100069,0.111911 -0.16461,0.176453 -0.180598,0.18119 -0.320932,0.28718 -0.488503,0.365933 -0.249285,0.118425 -0.434028,0.158097 -0.664956,0.141518 -0.165795,-0.01125 -0.258759,-0.03197 -0.399684,-0.08882 -0.204876,-0.08171 -0.360012,-0.188888 -0.566072,-0.39021 -0.182966,-0.180006 -0.261719,-0.288957 -0.4713307,-0.652522 -0.07994,-0.137965 -0.08349,-0.144478 -0.08349,-0.135596 z"/></svg>