<svg xmlns="http://www.w3.org/2000/svg" id="libre-brand-stumbleupon" viewBox="0 0 14 14"><g transform="matrix(0.02525168,0,0,0.02525168,0.53562042,0.53544366)"><path d="m 209.776,405.596 c 3.072,-7.199 7.966,-23.9 -2.447,-28.375 -69.817,-30.065 -88.402,-43.582 -88.402,-43.582 -3.328,-3.277 -32.563,-33.198 -27.034,-70.799 2.427,-16.425 12.636,-39.864 47.555,-58.204 l 11.305,-2.806 168.386,0 4.158,1.607 c 16.425,6.195 44.421,26.9 45.281,65.065 0.563,25.498 0.215,103.957 0.082,136.776 -0.041,8.202 22.917,24.76 43.663,23.644 18.258,-0.983 33.065,-18.616 33.065,-18.616 l 0,-376.074 20.142,0 C 452.965,24.34 437.206,18.401 420.033,18.401 l -328.089,0 c -40.602,0 -73.554,32.942 -73.554,73.564 l 0,322.529 176.528,0.205 c 0.102,-0.021 11.326,-0.798 14.858,-9.103 z"/><path d="m 416.983,477.42 c -48.681,4.7 -86.835,-36.915 -91.065,-41.697 l -6.062,-16.24 c 0,-1.198 0.697,-118.723 0,-149.924 -0.297,-14.142 -8.981,-19.067 -8.981,-19.067 l -148.808,-2.744 c -9.175,4.854 -20.531,12.616 -21.986,22.067 -1.731,11.284 9.155,25.2 12.994,29.061 0,0 93.358,46.06 94.761,46.94 l 10.772,14.878 c 7.229,29.563 4.158,54.139 -9.103,73.103 -17.561,25.098 -45.639,28.877 -48.825,29.225 l -1.3,0.144 -166.942,0 c 13.404,18.442 35.011,30.443 59.505,30.443 l 328.079,0 c 40.601,0 73.584,-32.942 73.584,-73.584 l 0,-7.895 -2.837,10.445 c -19.63,33.546 -44.493,51.988 -73.789,54.846 z"/></g></svg>