<svg xmlns="http://www.w3.org/2000/svg" viewBox="0 0 14 14" id="libre-brand-composer"><path d="m 7.1611391,12.640113 c 0.2288315,-0.107226 0.3952171,-0.258411 0.3952171,-0.369335 0,-0.04437 0.5870741,-0.631443 0.6647207,-0.664721 0.011092,-0.0037 0.088739,0.01849 0.1626882,0.04807 l 0.1405034,0.05916 -0.2621087,0.165975 C 8.117959,11.968002 7.9852613,12.041947 7.9630766,12.041947 Z M 8.2909178,12.00867 8.5419341,11.882956 c 0.5061409,-0.254714 1.8721459,-0.72388 2.3893789,-0.823711 0.228832,-0.04067 0.177067,-0.07765 -0.06286,-0.04437 -0.125713,0.01479 -0.251016,0.04067 -0.280596,0.04807 -0.103528,0.04067 0.08134,-0.129411 0.302781,-0.280596 0.122016,-0.07765 0.191857,-0.144201 0.158991,-0.144201 -0.177067,0 -1.776423,0.638839 -2.0792037,0.834393 -0.1146211,0.07395 -0.1220161,0.07025 -0.1220161,-0.08874 0,-0.133108 0.011092,-0.140503 0.2510163,-0.273201 0.2103443,-0.114621 1.5028105,-0.6943 1.5471805,-0.6943 0.0074,0 -0.02958,0.07765 -0.08504,0.173369 l -0.103529,0.177068 0.280596,-0.258412 c 0.155294,-0.1442 0.280596,-0.269503 0.284294,-0.280596 0,-0.01479 -0.08874,-0.0037 -0.199252,0.02219 -0.110513,0.02588 -0.210344,0.03697 -0.217739,0.02219 -0.03697,-0.05916 0.04807,-0.4802586 0.125713,-0.6314436 0.04437,-0.08874 0.103529,-0.295385 0.129411,-0.458074 0.107227,-0.642535 0.239924,-1.163055 0.387823,-1.5176 0.313873,-0.742368 0.343452,-0.852881 0.295385,-1.059938 -0.02588,-0.09983 -0.03697,-0.228832 -0.02218,-0.291689 0.01109,-0.05916 0.0037,-0.151595 -0.01479,-0.202949 -0.02588,-0.07025 -0.02588,-0.114621 0.0037,-0.147898 0.03328,-0.04437 0.01109,-0.09244 -0.114621,-0.239924 -0.08504,-0.09983 -0.151596,-0.18816 -0.144201,-0.191857 0.0074,-0.0074 0.07395,-0.03697 0.144201,-0.06655 l 0.129411,-0.05916 0.03697,-0.50573 c 0.02218,-0.276898 0.03328,-0.502443 0.03328,-0.502443 -0.0037,0 -0.165975,0.04807 -0.365638,0.110924 -0.199252,0.05916 -0.380427,0.110923 -0.406309,0.110923 -0.05176,0 -0.09983,-0.09613 -0.258411,-0.539007 -0.103529,-0.280596 -0.122017,-0.369335 -0.103529,-0.553797 0.02219,-0.254714 -0.06655,-0.841788 -0.177067,-1.170451 -0.147899,-0.443284 -0.6129564,-1.248097 -0.7645521,-1.314651 -0.129411,-0.06286 -0.2214367,-0.04807 -0.2695036,0.03697 -0.048067,0.09244 -0.04437,0.103529 0.129411,0.505731 L 9.5135438,1.8936584 9.2847122,1.7124834 C 8.7715873,1.3135684 8.2765388,1.0440654 7.9959429,1.0107874 c -0.177478,-0.02218 -0.1844621,-0.01849 -0.2251341,0.09244 -0.025882,0.06286 -0.073949,0.122016 -0.1109237,0.129411 -0.048067,0.01479 -0.066554,0.05546 -0.066554,0.15858 0,0.129411 0.02958,0.166385 0.3804273,0.502032 0.2066468,0.195555 0.36194,0.358243 0.3471502,0.36194 -0.01479,0 -0.1589907,-0.08504 -0.3138731,-0.191857 -0.232529,-0.155293 -0.313873,-0.191857 -0.4469815,-0.195554 -0.3101756,0 -0.3027807,0.214042 0.01479,0.439587 0.1109238,0.08134 0.3323604,0.276898 0.4876536,0.439586 l 0.2879909,0.295386 -0.2584112,0.04437 c -0.4063095,0.07395 -0.5685868,0.125714 -0.6092589,0.206647 -0.077647,0.144201 -0.02958,0.184462 0.3989146,0.324966 0.2288315,0.07765 0.450679,0.173369 0.4983351,0.214041 0.1478983,0.136806 0.4839561,0.332361 0.683208,0.398915 0.129411,0.04067 0.2103443,0.09244 0.2362265,0.147898 0.022185,0.04807 0.077647,0.103529 0.1257135,0.125714 0.059159,0.02588 0.1035288,0.09613 0.1478983,0.243621 0.033277,0.114621 0.051764,0.217739 0.040672,0.228832 -0.011092,0.0074 -0.1626882,0.06286 -0.3360578,0.114621 l -0.3175706,0.09983 0.2695036,0.479848 c 0.2473188,0.446982 0.273201,0.480259 0.3693349,0.469166 0.1220161,-0.01109 0.1220161,-0.01109 0.018487,0.162689 l -0.081344,0.136805 0.085042,0.155294 c 0.055462,0.107226 0.073949,0.188159 0.059159,0.239924 -0.022185,0.07025 -0.036975,0.05916 -0.1109237,-0.09983 C 9.4732826,6.5290374 9.2111739,6.1855854 9.0525941,6.0524764 8.779393,5.8310404 8.6647719,5.7866704 8.3102268,5.7829734 L 7.9778664,5.7755784 7.8044967,5.6091924 C 7.7120603,5.5167564 7.5386906,5.3951504 7.420372,5.3359914 7.2174226,5.2361604 7.1804481,5.2287654 6.7445589,5.2287654 l -0.4617714,0 -0.3508476,0.184462 c -0.450679,0.232529 -0.915737,0.690603 -1.2074253,1.181543 -0.1072263,0.180765 -0.1955545,0.310176 -0.1955545,0.291688 -0.0037,-0.01849 -0.018487,-0.103528 -0.033277,-0.188159 -0.02958,-0.151185 -0.02958,-0.154883 0.081344,-0.166386 0.1072263,-0.01109 0.1146212,-0.02219 0.191857,-0.343453 0.04437,-0.184462 0.092436,-0.369334 0.1072262,-0.410006 0.022185,-0.07395 0,-0.08504 -0.3101756,-0.162689 -0.2510163,-0.06286 -0.3323603,-0.09613 -0.3323603,-0.1442 0,-0.114622 0.1072262,-0.454377 0.1585798,-0.516823 0.02958,-0.03328 0.062857,-0.09244 0.070252,-0.133108 0.00739,-0.04067 0.085041,-0.114621 0.1807646,-0.166386 0.2584112,-0.140503 0.273201,-0.15858 0.5427046,-0.67951 0.1955544,-0.380428 0.3027807,-0.542705 0.513125,-0.76825 0.1478983,-0.15858 0.2695035,-0.302781 0.2695035,-0.31757 0,-0.06286 -0.1515957,-0.228832 -0.2066468,-0.228832 -0.1109237,0 -0.02958,-0.06655 0.4728638,-0.387822 0.6610232,-0.417402 0.6795105,-0.435889 0.6166537,-0.483956 -0.040672,-0.03328 -0.2658061,0.09244 -0.956409,0.524217 -0.4983351,0.313873 -0.915737,0.568587 -0.9268294,0.568587 -0.011092,0 -0.055462,-0.110924 -0.099831,-0.243622 l -0.077647,-0.239924 0.2547137,-0.239923 c 0.2695036,-0.254714 0.3286629,-0.354546 0.2584112,-0.439587 -0.033277,-0.04067 -0.099831,-0.02219 -0.3804273,0.114621 -0.1881595,0.09244 -0.4765612,0.206647 -0.6462334,0.262109 -0.2842934,0.08874 -0.3101756,0.08874 -0.3730324,0.03328 -0.1552932,-0.140503 -0.2547137,-0.05546 -0.6388385,0.539007 -0.077647,0.118319 -0.1515957,0.214042 -0.1659747,0.214042 -0.018487,0 -0.1109238,-0.144201 -0.2103443,-0.324966 -0.099831,-0.177067 -0.2140417,-0.358242 -0.2547137,-0.406309 -0.099831,-0.107226 -0.1955545,-0.103529 -0.2251341,0.0074 -0.036975,0.147898 0.129411,0.823711 0.3952171,1.639617 0.085041,0.254714 0.088739,0.269503 0.025882,0.30278 -0.059159,0.02958 -0.062857,0.05176 -0.025882,0.147899 0.02958,0.08134 0.059159,0.103529 0.1072263,0.08874 0.055462,-0.01479 0.088739,0.02588 0.1733697,0.217739 0.1072262,0.236226 0.1072262,0.239924 0.048067,0.454376 -0.033277,0.122016 -0.059159,0.221437 -0.062857,0.225134 0,0.0037 -0.092436,-0.01479 -0.2029493,-0.04437 -0.3360578,-0.08874 -0.3138731,-0.114621 -0.36194,0.432192 -0.025882,0.269503 -0.04437,0.516822 -0.04437,0.550099 0,0.04437 0.048067,0.07025 0.1696722,0.08874 l 0.1696722,0.02219 -0.025882,0.221437 c -0.022185,0.177067 -0.01479,0.236226 0.033277,0.28799 0.062857,0.06656 0.081344,0.469167 0.092436,1.912818 l 0.0037,0.52052 0.1405034,0.04437 c 0.1737805,0.05916 0.2658061,0.136806 0.2658061,0.236226 0,0.04807 0.059159,0.118319 0.1585799,0.18816 0.085041,0.05916 0.4100069,0.295386 0.7164851,0.5242166 0.5353097,0.395217 0.5611919,0.421099 0.5242173,0.502033 -0.033277,0.07765 -0.025882,0.103528 0.066554,0.195554 0.088739,0.09244 0.096134,0.107226 0.036975,0.118319 -0.033277,0.0074 -0.1515957,-0.0074 -0.2584112,-0.02958 -0.2473188,-0.05546 -1.0969124,-0.09613 -1.0932149,-0.05176 0,0.01849 0.1770671,0.122016 0.3952171,0.228831 0.21815,0.106816 0.36194,0.165975 0.321268,0.129411 -0.044369,-0.03697 -0.1442009,-0.122016 -0.2214366,-0.188159 l -0.1478983,-0.125714 0.2177391,0.02588 c 0.3989146,0.04807 1.6728942,0.398915 1.7579357,0.487654 0.051764,0.05176 0.02958,0.05546 -0.2029494,0.03328 -0.683208,-0.06286 -0.9785937,-0.06655 -1.44776,-0.02219 -0.280596,0.02588 -0.5316122,0.05916 -0.5574944,0.07395 -0.066554,0.03328 0.5131249,0.07395 1.1006098,0.07395 0.4617714,0 1.0155684,0.08504 2.0459265,0.313873 l 0.2695036,0.05916 -0.062857,0.136806 C 6.8291896,12.383345 6.6632148,12.959738 6.689097,12.999999 Z M 8.5271443,1.3217854 c 0.5168224,0.280596 0.8565776,0.553797 0.8565776,0.686905 -0.0037,0.07395 0.01479,0.09983 0.066554,0.09983 0.036974,0 0.099831,0.01849 0.1405034,0.03698 0.055462,0.02958 0.070252,0.02588 0.070252,-0.01109 0,-0.07395 -0.088739,-0.324966 -0.2288316,-0.642536 -0.1183186,-0.273201 -0.1183186,-0.380428 0,-0.380428 0.092436,0 0.1442009,0.06655 0.36194,0.443285 0.2251343,0.391519 0.3693343,0.705392 0.4617713,1.02666 0.09244,0.313873 0.133108,0.878763 0.07765,1.041451 -0.03328,0.09244 -0.02958,0.144201 0.01479,0.251016 0.129411,0.299083 0.310176,0.764552 0.310176,0.801527 0,0.03697 -0.7423672,0.276898 -0.8454852,0.276898 -0.018487,0 -0.048067,-0.03697 -0.062857,-0.08504 -0.085042,-0.276899 -0.1733697,-0.469167 -0.2177392,-0.469167 -0.02958,0 -0.077647,-0.04807 -0.1109237,-0.110923 C 9.3549639,4.1540374 9.2958046,4.1244584 9.033696,4.0694064 8.89689,4.0398274 8.7235203,3.9547854 8.4983863,3.8072984 8.2399751,3.6376264 8.1142615,3.5821644 7.926102,3.5451894 7.7929935,3.5230044 7.6565984,3.4860304 7.6233213,3.4675434 c -0.085041,-0.04067 -0.085041,-0.129411 0.0037,-0.17337 0.077647,-0.04437 0.8159056,-0.110924 0.9416192,-0.08874 0.055462,0.01109 0.1442008,-0.02219 0.2436213,-0.08504 0.1696722,-0.114621 0.1478983,-0.165974 -0.033277,-0.07395 -0.1733697,0.09244 -0.2473188,0.07395 -0.3915197,-0.103529 -0.073952,-0.092436 -0.3064807,-0.31757 -0.5205224,-0.502032 -0.3730324,-0.328663 -0.4395866,-0.424797 -0.3323604,-0.465469 0.062857,-0.02588 0.1881595,0.03698 0.5870741,0.295386 0.1659748,0.107226 0.4026121,0.251016 0.5242173,0.31757 0.2029494,0.114621 0.2140417,0.118319 0.1478983,0.03328 C 8.6019151,2.3891174 8.0772869,1.8127254 7.9187071,1.6615404 7.7416399,1.4918684 7.6898755,1.3513644 7.7929935,1.3106924 c 0.081344,-0.02958 0.2584112,0.07765 0.8343929,0.509428 0.3434528,0.254714 0.4654689,0.336058 0.3434528,0.217739 -0.191857,-0.180765 -0.6758131,-0.5501 -0.9046446,-0.686905 -0.066554,-0.04067 -0.1257136,-0.110924 -0.1331085,-0.15858 -0.022185,-0.140504 0.1663856,-0.09983 0.594469,0.129411 z m -3.3712597,0.583376 c 0,0.06656 -0.073949,0.151596 -0.2953858,0.336058 -0.1626881,0.136806 -0.2953857,0.251016 -0.2953857,0.254714 0,0.0037 0.036974,0.0037 0.077647,0.0037 0.062857,-0.0037 0.096134,0.03328 0.1478983,0.180765 0.092436,0.265806 0.088739,0.343453 -0.025882,0.373032 -0.077647,0.01849 -0.1220161,-0.0037 -0.2399239,-0.118318 -0.1626882,-0.15858 -0.1807646,-0.273201 -0.059159,-0.36194 0.070252,-0.04807 0.059159,-0.04807 -0.059159,0.0037 L 4.2623324,2.6434204 4.1551061,2.5140094 c -0.059159,-0.07025 -0.1035288,-0.151595 -0.096134,-0.180764 0.0037,-0.02588 0.1478983,-0.110924 0.321268,-0.184462 0.1733697,-0.07354 0.3878222,-0.177067 0.4802586,-0.232529 0.2177392,-0.125714 0.2953858,-0.129411 0.2953858,-0.01109 z m -1.215231,0.431781 c 0.044369,0.06655 0.2140417,0.258411 0.3730324,0.4211 0.2879908,0.30278 0.3360578,0.395217 0.2288315,0.435889 -0.1552932,0.05916 -0.3323604,-0.01109 -0.5722843,-0.225134 -0.081344,-0.07395 -0.1552932,-0.125714 -0.1626881,-0.114622 -0.011092,0.0074 -0.025882,0.07395 -0.040672,0.144201 -0.01479,0.09983 -0.011092,0.114621 0.022185,0.05916 0.022185,-0.03328 0.055462,-0.06286 0.077647,-0.06286 0.070252,0 0.4026121,0.243621 0.4026121,0.295386 0,0.04807 -1.1006099,0.701695 -1.237005,0.731275 -0.066554,0.01479 -0.4358892,-1.126493 -0.5168224,-1.591551 -0.018487,-0.118318 -0.011092,-0.136805 0.048067,-0.136805 0.085042,0 0.1992519,0.165974 0.4284943,0.620351 0.096134,0.188159 0.1770671,0.339755 0.1807646,0.339755 0.00739,0 0.00739,-0.04437 0,-0.103529 -0.011092,-0.07395 0.048067,-0.199252 0.2473188,-0.516822 0.2990832,-0.469166 0.3730324,-0.509428 0.5205199,-0.295386 z m 1.8355822,0.524628 c 0.011092,0.08504 -0.022185,0.140504 -0.1511849,0.276899 -0.1770671,0.184462 -0.4839561,0.624049 -0.6166538,0.889855 -0.1035288,0.206646 -0.3101756,0.428494 -0.4876535,0.520519 -0.1109238,0.05546 -0.136806,0.09613 -0.1585799,0.214042 -0.01479,0.08134 -0.048067,0.166386 -0.073949,0.18816 -0.025882,0.02177 -0.077647,0.147898 -0.1146212,0.280596 -0.036975,0.132697 -0.088739,0.251016 -0.1146212,0.262108 -0.025882,0.01109 -0.232529,-0.02588 -0.4580739,-0.08134 l -0.4100071,-0.103533 0.018487,-0.140503 c 0.011092,-0.07765 0.04437,-0.191857 0.077647,-0.258411 0.055462,-0.110924 0.055462,-0.125714 -0.077647,-0.395217 -0.088739,-0.184462 -0.1220161,-0.295386 -0.099831,-0.324966 0.055462,-0.08134 1.3405338,-0.863972 1.4144829,-0.863972 0.040672,0 0.1220161,-0.04067 0.1844621,-0.09244 0.1696722,-0.144201 0.8602751,-0.491351 0.9638039,-0.487653 0.073949,0.0074 0.096134,0.02958 0.1035288,0.114621 z m 5.6723102,2.134255 c -0.01479,0.18816 -0.03328,0.354545 -0.04807,0.369335 -0.02958,0.03328 -1.717263,0.620351 -1.7875147,0.620351 -0.055462,0 -0.4063095,-0.609259 -0.3841248,-0.675813 0.01479,-0.04437 2.0126495,-0.646233 2.1601365,-0.649931 0.08504,-0.0037 0.08504,0 0.05916,0.336058 z m -7.7034469,0.535721 c 0.5205199,0.133108 0.963804,0.258411 0.9822913,0.273201 0.02958,0.02588 -0.066554,0.454376 -0.1220161,0.546402 -0.018487,0.02958 -0.2916883,0.0037 -1.004476,-0.09244 -0.5353097,-0.07395 -0.9859887,-0.144201 -0.9970811,-0.154882 -0.01479,-0.01479 -0.00739,-0.20295 0.01479,-0.424797 0.033277,-0.34715 0.048067,-0.395217 0.1072262,-0.395217 0.040672,0 0.4983352,0.110924 1.0192658,0.247319 z m 3.5672249,-0.08874 c 0.3323604,0.15899 0.5205199,0.34715 0.5944691,0.590771 0.070252,0.236227 0.073949,0.598167 0.0037,0.661023 -0.033277,0.02958 -0.04437,0.09613 -0.033277,0.180765 0.040672,0.291688 -0.1626881,0.624049 -0.5353097,0.878762 -0.4617714,0.310176 -0.5796792,0.343453 -1.5767602,0.446982 -0.771947,0.07765 -0.8861574,0.114621 -1.0229633,0.295386 -0.044369,0.06286 -0.1035288,0.110923 -0.129411,0.110923 -0.066554,0 -0.059159,-0.169672 0.011092,-0.291688 0.1109237,-0.191857 0.2842934,-0.265806 0.9305268,-0.413704 0.7053927,-0.162688 0.9638039,-0.247319 1.2887694,-0.424797 0.225134,-0.125714 0.3434527,-0.239924 0.3434527,-0.339755 0,-0.02958 -0.062857,-0.0037 -0.1733697,0.07025 -0.3064781,0.214042 -0.6943004,0.324966 -1.4769289,0.4211 -0.4543764,0.05916 -0.8052241,0.162688 -1.0155683,0.299083 -0.1478983,0.09613 -0.2510163,0.114621 -0.2510163,0.04807 0,-0.02218 0.092436,-0.188571 0.2066468,-0.369335 0.3582425,-0.564889 0.9675014,-1.052543 1.5360882,-1.233308 0.3878222,-0.122016 1.1006099,-0.133108 1.3516261,-0.01849 0.085042,0.04067 0.1478983,0.05546 0.136806,0.03697 -0.040672,-0.06656 -0.4469816,-0.191857 -0.683208,-0.210345 -0.594469,-0.04807 -1.3922982,0.243622 -1.7912128,0.653629 -0.1220161,0.125713 -0.3175705,0.258411 -0.3767298,0.258411 -0.048067,0 0.066554,-0.214042 0.3101756,-0.583377 0.4321917,-0.646233 0.8639726,-1.000778 1.3775083,-1.130189 0.4909402,-0.122016 0.6055614,-0.114621 0.9748963,0.06286 z m 3.932862,0.254713 c 0.129411,0.133109 0.151596,0.177067 0.133109,0.265806 -0.01109,0.05916 0,0.129411 0.02218,0.155294 0.02588,0.02958 0.03328,0.103528 0.01479,0.184462 -0.02588,0.144201 -0.0037,0.140503 -0.336058,0.07025 -0.07025,-0.01479 -0.03328,0.01849 0.114622,0.09983 0.210344,0.114621 0.221436,0.129411 0.232529,0.276898 0.01109,0.151185 -0.08874,0.432192 -0.339756,0.971199 -0.05176,0.110924 -0.09613,0.247319 -0.09613,0.302781 0,0.05176 -0.01849,0.103529 -0.03697,0.110923 -0.05546,0.01849 -0.136806,0.350848 -0.20295,0.808511 -0.03697,0.265806 -0.08874,0.472864 -0.165974,0.642536 -0.07724,0.169672 -0.118319,0.339755 -0.136806,0.5205196 -0.01849,0.232529 -0.03328,0.276899 -0.118319,0.339755 -0.151596,0.110924 -1.3183486,0.605562 -1.3922978,0.590772 -0.04437,-0.0074 -0.1035288,-0.09244 -0.1589906,-0.232529 -0.1257136,-0.313873 -0.1363951,-0.49094 -0.048067,-0.668418 0.040672,-0.07765 0.096134,-0.2177386 0.1220161,-0.3064776 0.025882,-0.08504 0.070252,-0.165975 0.096134,-0.177068 0.025882,-0.01109 0.081344,-0.07395 0.1257136,-0.1442 0.040672,-0.07025 0.096134,-0.125714 0.1220161,-0.125714 0.025882,0 0.062857,0.114621 0.088739,0.295386 0.025882,0.15899 0.070252,0.3471496 0.099831,0.4137036 0.051764,0.122016 0.051764,0.118319 0.055462,-0.1552926 0.00739,-0.380427 0.044369,-0.568587 0.1146211,-0.583377 0.048067,-0.0074 0.062857,0.02958 0.077647,0.184462 0.011092,0.107227 0.044369,0.254714 0.073949,0.324966 0.051764,0.122016 0.055462,0.114621 0.036975,-0.243622 -0.00739,-0.206646 0.0037,-0.483956 0.02958,-0.635141 0.051764,-0.321268 0.096134,-0.336057 0.3471505,-0.114621 0.09244,0.08134 0.169672,0.136806 0.169672,0.122016 0,-0.07765 -0.251017,-0.402612 -0.3915197,-0.502443 -0.2362265,-0.169672 -0.2140417,-0.214042 0.1072267,-0.214042 0.1442,0 0.324965,0.01479 0.395216,0.03698 l 0.129411,0.03328 -0.147898,-0.129411 c -0.08134,-0.07025 -0.221436,-0.155293 -0.313873,-0.18857 L 9.9021877,7.9677594 9.8171461,7.6132144 c -0.099831,-0.413704 -0.099831,-0.454376 -0.022185,-0.675813 0.051764,-0.158991 0.051764,-0.17337 -0.018487,-0.291688 -0.096134,-0.154883 -0.096134,-0.243622 -0.00739,-0.37673 0.036975,-0.05916 0.059159,-0.136806 0.051764,-0.177067 -0.01479,-0.04807 0.00739,-0.08134 0.066554,-0.107226 0.1770669,-0.08134 1.1227939,-0.439587 1.1630549,-0.439587 0.02588,-0.0037 0.110924,0.06655 0.195555,0.151596 z m -2.6625799,0.236638 c 0.1659748,0.04807 0.2510163,0.103528 0.4026121,0.254713 0.1035288,0.107227 0.2214366,0.258412 0.2658061,0.343453 l 0.073949,0.147898 -0.081344,-0.01849 C 9.1992599,6.6506434 9.0809412,6.5988784 8.9778233,6.5471144 8.8262275,6.4694674 8.726807,6.4472834 8.4240263,6.4287954 l -0.3693349,-0.01849 -0.011092,-0.236227 c -0.00739,-0.166385 0.0037,-0.247318 0.036975,-0.265806 0.077647,-0.04807 0.2768984,-0.03697 0.5020325,0.02588 z m -4.9040612,0.424386 c 0.3138731,0.04437 0.5907716,0.09983 0.6129563,0.122016 0.022185,0.02218 0.077647,0.239924 0.1220161,0.480258 0.066554,0.387823 0.070252,0.450679 0.022185,0.502033 -0.1146212,0.125713 -0.4983352,1.063635 -0.4983352,1.21482 0,0.02958 0.070252,-0.05916 0.1585799,-0.199252 0.085041,-0.144201 0.1881595,-0.262108 0.2251341,-0.269503 0.062857,-0.01479 0.066554,0.0037 0.048067,0.151595 -0.040672,0.276899 0.055462,0.697998 0.191857,0.871368 0.066554,0.08504 0.1257135,0.151596 0.129411,0.151596 0.0037,0 0.0037,-0.05176 -0.00739,-0.110924 -0.018487,-0.125714 0.059159,-0.151596 0.1442008,-0.05176 0.025882,0.03328 0.136806,0.110923 0.2436214,0.169672 0.2288315,0.129411 0.2510163,0.199252 0.2251341,0.6573256 l -0.018487,0.28799 0.1109237,-0.133108 c 0.059159,-0.07395 0.129411,-0.165975 0.1552932,-0.2066466 0.036975,-0.05176 0.073949,-0.06286 0.1478983,-0.04437 0.1072263,0.02588 0.4617714,0.3397546 0.4617714,0.4063086 0,0.02219 -0.033277,0.103529 -0.070252,0.17337 -0.059159,0.107226 -0.070252,0.181175 -0.051764,0.336058 0.018487,0.180764 0.011092,0.210344 -0.077647,0.299083 -0.051764,0.05176 -0.096134,0.114621 -0.096134,0.136806 0,0.01849 -0.02958,0.03697 -0.062857,0.03697 -0.1146212,0 -0.8233005,-0.202949 -0.8233005,-0.232529 0,-0.01849 -0.025882,-0.08874 -0.059159,-0.15899 -0.033277,-0.07025 -0.051764,-0.177067 -0.044369,-0.239924 0.018487,-0.110924 0,-0.129411 -0.4654689,-0.476561 C 4.1366245,10.03669 3.8227515,9.8111454 3.7044328,9.7339094 3.4719038,9.5786164 3.3314004,9.3867594 3.3535852,9.2573484 c 0.01479,-0.06655 0.0037,-0.08134 -0.059159,-0.07025 -0.044369,0.01109 -0.1257135,-0.0037 -0.184462,-0.02588 l -0.1072263,-0.04067 0.025882,-0.265806 c 0.055462,-0.620351 0.059159,-0.85288 0.022185,-1.440365 -0.025882,-0.413704 -0.059159,-0.649931 -0.092436,-0.701695 -0.070252,-0.110924 -0.00739,-0.432192 0.085042,-0.432192 0.033277,0 0.3212679,0.03698 0.635141,0.07765 z m 5.0519595,0.162688 c 0.232529,0.07025 0.6462334,0.321268 0.7238801,0.443284 0.1146211,0.169672 0.062857,0.247319 -0.099831,0.15899 -0.051764,-0.02588 -0.018487,0.02588 0.077647,0.133109 0.1626881,0.177067 0.2842934,0.406309 0.3101756,0.575982 0.00739,0.07765 -0.0037,0.09613 -0.096134,0.103528 -0.062857,0.0074 -0.2510163,-0.03328 -0.4210993,-0.08874 -0.2695036,-0.08504 -0.4876536,-0.210344 -0.8089216,-0.469166 -0.025882,-0.01849 -0.048067,-0.02588 -0.048067,-0.01479 0,0.01479 0.1257135,0.129411 0.2768985,0.262109 0.2399239,0.202949 0.313873,0.243621 0.5279148,0.295386 0.1918569,0.04437 0.7497622,0.133108 0.8417875,0.133108 0.0074,0 0.01479,0.02219 0.01479,0.04807 0,0.06655 -0.9859882,0.118319 -1.1889375,0.06286 -0.3693359,-0.103533 -0.7497632,-0.336062 -0.8861583,-0.546406 -0.044369,-0.06655 -0.066554,-0.169672 -0.066554,-0.302781 0,-0.225134 0.040672,-0.31757 0.1220161,-0.284293 0.04437,0.01479 0.048067,-0.01109 0.033277,-0.140504 -0.0074,-0.08874 -0.0037,-0.221436 0.00739,-0.291688 l 0.025882,-0.133108 0.232529,0 c 0.1257135,0 0.3175705,0.02588 0.4210993,0.05546 z m -0.72388,1.273979 c 0.191857,0.273201 0.9711989,0.775645 1.2111228,0.775645 0.055462,0 0.129411,0.03328 0.1659747,0.07765 0.059159,0.06286 0.062857,0.09244 0.025882,0.191857 -0.040672,0.110924 -0.036975,0.114621 0.01479,0.04437 0.02958,-0.04067 0.066554,-0.118319 0.077647,-0.177067 0.01479,-0.07395 0.040672,-0.09983 0.1072262,-0.09983 0.1072263,0 0.1146212,0.08504 0.033277,0.287991 -0.085042,0.195555 -0.1992519,0.302781 -0.321268,0.302781 -0.081344,0 -0.1220161,0.02588 -0.1696722,0.114621 -0.1146212,0.210344 -0.280596,0.37673 -0.4691663,0.465469 -0.1811754,0.08134 -0.1811754,0.08504 -0.04437,0.06286 0.1589907,-0.02588 0.1626881,-0.01479 0.066554,0.2473176 -0.2288315,0.598167 -0.6906029,0.89725 -1.4440626,0.94162 -0.2990832,0.01849 -0.3212679,0.01479 -0.5024434,-0.09244 C 6.6176128,10.856706 6.5366796,10.775773 6.4553355,10.631572 6.3407144,10.428623 5.905236,9.9890364 5.6427165,9.8193644 5.557675,9.7639024 5.4582545,9.6533894 5.413885,9.5720454 5.3547257,9.4537264 5.3140536,9.4204494 5.2109357,9.3986754 5.0630374,9.3727934 4.948827,9.2433824 4.8268109,8.9775764 4.7047948,8.7080724 4.7195846,8.6267284 4.9266423,8.4973174 c 0.2510162,-0.15899 0.4728637,-0.214041 1.0192658,-0.258411 0.5168224,-0.04067 0.826998,-0.103529 1.045148,-0.214042 0.077647,-0.04067 0.1881595,-0.08134 0.2473188,-0.09613 0.099831,-0.02588 0.1035288,-0.02218 0.059159,0.04067 -0.025882,0.03697 -0.092436,0.103528 -0.1442008,0.147898 l -0.092436,0.08134 0.1405034,-0.03328 c 0.1844621,-0.04067 0.4174019,-0.206647 0.5316122,-0.37673 0.048067,-0.07765 0.1109238,-0.140503 0.1331085,-0.140503 0.022185,0.0037 0.085041,0.07025 0.1405034,0.147898 z M 6.3891921,10.66074 c 0.059159,0.09613 0.191857,0.225134 0.3064782,0.302781 0.2214366,0.147898 0.2140417,0.169672 -0.088739,0.210344 -0.3360578,0.04437 -0.2288315,0.09983 0.1368059,0.07025 0.2362265,-0.01849 0.3323604,-0.01109 0.3323604,0.01849 0,0.02219 -0.018487,0.04067 -0.040672,0.04067 -0.081344,0 -0.6499309,0.295386 -0.7386699,0.384125 -0.1405034,0.136395 -0.2547137,0.09613 -0.2547137,-0.09244 0,-0.07765 -0.018487,-0.181175 -0.040672,-0.232529 -0.036975,-0.07765 -0.02958,-0.110924 0.04437,-0.214042 0.059159,-0.08134 0.088739,-0.177067 0.092436,-0.28799 0.0037,-0.169673 0.066554,-0.369335 0.1146212,-0.369335 0.018487,0 0.077647,0.07765 0.136806,0.169672 z m 2.3117327,0.17378 c 0.066554,0.169673 0.073949,0.221437 0.036974,0.265806 -0.02958,0.03698 -0.036974,0.110924 -0.022185,0.214042 0.022185,0.144201 0.01479,0.165975 -0.070252,0.210344 -0.081344,0.04437 -0.1109237,0.04067 -0.2510163,-0.02588 -0.085041,-0.04067 -0.2658061,-0.114621 -0.402612,-0.15899 -0.2547138,-0.08134 -0.3249655,-0.147899 -0.1622773,-0.147899 0.048067,0 0.2251341,0.04067 0.3952171,0.08874 0.1696722,0.05176 0.3175705,0.08504 0.3249654,0.07765 0.073949,-0.07395 -0.273201,-0.239924 -0.5024434,-0.239924 -0.1257135,0 -0.1035288,-0.06286 0.04437,-0.110924 0.073949,-0.02588 0.2029494,-0.125713 0.3027807,-0.239924 0.096134,-0.107226 0.1881595,-0.184462 0.1992519,-0.169672 0.011092,0.01109 0.059159,0.118319 0.1072263,0.236227 z m -0.8713675,0.598168 c 0.1146212,0.05176 0.2066468,0.09983 0.2066468,0.107226 0,0.0074 -0.1183187,0.110924 -0.2584112,0.225134 L 7.5156842,11.97909 7.1944162,11.827494 C 7.0173491,11.742453 6.8250813,11.664806 6.765922,11.650427 c -0.088739,-0.02219 -0.096134,-0.02958 -0.04437,-0.05916 0.1405034,-0.07765 0.4983351,-0.191857 0.6869054,-0.214042 0.1109238,-0.01479 0.2066468,-0.02958 0.2066468,-0.03328 0.0037,0 0.099831,0.03697 0.2140417,0.08874 z M 7.0169383,8.4858144 6.9060145,8.6226204 6.5181923,8.5782514 c -0.553797,-0.06286 -0.6721156,-0.05916 -0.7571571,0.03328 l -0.070252,0.08134 0.129411,-0.02219 c 0.2177392,-0.03328 0.9675014,0.07765 1.0488455,0.155293 0.096134,0.09613 0.129411,0.531612 0.048067,0.624049 -0.055462,0.05916 -0.048067,0.07395 0.1072263,0.199252 0.092436,0.07395 0.1881595,0.129411 0.2177391,0.118318 0.059159,-0.02218 0.3619401,-0.421099 0.321268,-0.421099 -0.01479,0 -0.096134,0.06655 -0.1733697,0.147898 -0.077236,0.08134 -0.1626881,0.147899 -0.1881595,0.147899 -0.096134,0 -0.1442008,-0.125714 -0.1442008,-0.365638 0,-0.162277 -0.022185,-0.287991 -0.066554,-0.380427 -0.070252,-0.136806 -0.070252,-0.136806 0.022185,-0.258411 0.081344,-0.107227 0.1626881,-0.287991 0.129411,-0.287991 -0.00739,0 -0.062857,0.06286 -0.1257135,0.136806 z m 0.2214366,0.022185 c 0.018487,0.151596 0.1035288,0.247319 0.273201,0.31757 0.055462,0.02219 0.1220161,0.08874 0.1478983,0.147899 0.033277,0.07765 0.085041,0.114621 0.2214366,0.147898 0.3397553,0.08874 0.4026121,0.09244 0.4728638,0.0074 0.036975,-0.04437 0.088739,-0.07765 0.1109237,-0.07765 0.025882,0 0.055462,-0.02588 0.066554,-0.05916 0.022185,-0.05176 0.011092,-0.05176 -0.077647,0.0074 -0.1515957,0.09983 -0.6240486,0.09983 -0.6979978,0 -0.085041,-0.114621 -0.062857,-0.140503 0.099831,-0.118319 0.1405034,0.01849 0.5283256,-0.05916 0.594469,-0.122016 0.01479,-0.01109 -0.1109237,-0.01479 -0.2768985,-0.01109 -0.1659748,0.0074 -0.4174019,-0.0037 -0.553797,-0.02958 -0.2473178,-0.04438 -0.2547127,-0.04808 -0.3249644,-0.19926 l -0.070252,-0.151596 0.01479,0.140504 z m -1.5381424,0.427672 c 0.1647423,-0.128178 0.3796057,-0.05916 0.5640677,-0.03204 0.1442009,-0.02629 0.2892234,-0.05341 0.4379433,-0.03739 0.020541,0.01274 0.062446,0.03697 0.082987,0.0493 -0.098599,0.01027 -0.1967869,0.02547 -0.2953858,0.03615 -0.1076371,0.04889 -0.2082901,0.123659 -0.3340036,0.103939 -0.046013,-0.02876 -0.091204,-0.05916 -0.1326977,-0.09367 -0.1055829,-0.02876 -0.2152742,-0.01684 -0.3233221,-0.02629 z m 1.7324643,0.891499 c 0.1240703,0.0037 0.251838,8.21e-4 0.3574209,-0.07354 0.010682,0.03985 0.029169,0.076 0.05464,0.108459 -0.03451,0.0074 -0.068608,0.0152 -0.1027071,0.02301 -0.1930895,-0.07477 -0.3631725,0.09696 -0.5521537,0.107638 -0.063268,-0.0062 -0.1113345,-0.04725 -0.1548824,-0.08915 -0.075182,-0.0033 -0.1540607,-0.01233 -0.2218474,0.02752 -0.1022964,0.05464 -0.2185609,0.04684 -0.3307171,0.04232 0.036975,-0.03656 0.073949,-0.07354 0.1113346,-0.110103 0.063268,-8.21e-4 0.1261244,-0.0021 0.1898028,-0.0037 0.023006,-0.02424 0.046013,-0.04889 0.06943,-0.07272 0.1133887,-0.01479 0.2275991,0.0226 0.3003158,0.112978 0.1031179,0.01931 0.1865162,-0.04478 0.2793634,-0.07272 z M 7.1216996,10.124199 c 0.08422,-0.0021 0.1663856,-0.02013 0.2477296,-0.03903 0.1121562,0.01233 0.2202042,0.06573 0.304424,0.140914 -0.072717,-0.0152 -0.1454333,-0.02876 -0.2193825,-0.03615 -0.1918569,-0.08545 -0.3717999,0.06614 -0.5443479,0.13393 -0.052997,0.09778 -0.098188,0.201717 -0.099421,0.315517 -0.023417,-0.02547 -0.046424,-0.05012 -0.069841,-0.07518 -0.00616,-0.127357 0.015201,-0.277309 0.1322868,-0.351669 0.07929,-0.03821 0.165564,-0.06039 0.2485514,-0.08915 z"/></svg>