<svg role="img" focusable="false" aria-hidden="true" xmlns="http://www.w3.org/2000/svg" viewBox="0 0 14 14"><path d="m 5.82583,8.865 -2.34016,0 -0.58201,2.17576 -1.90366,0 2.48567,-8.08357 2.42503,0 2.10115,6.67167 1.37299,-4.40184 1.76365,0 1.85151,5.81579 -1.45468,0 -0.45856,-1.58238 -1.70192,0 -0.42328,1.58238 -2.50523,-0.003 -0.6305,-2.17576 z m -2.07341,-1.31452 1.80666,0 L 5.04981,5.83291 4.83458,5.05225 4.63755,4.27171 l -0.0242,0 -0.18339,0.78756 -0.19249,0.79396 z m 5.82643,0.95395 1.31391,0 -0.37037,-1.24913 -0.15651,-0.56776 -0.14332,-0.56766 -0.0176,0 -0.13337,0.57276 -0.14,0.57742 z"/></svg>