<svg xmlns="http://www.w3.org/2000/svg" id="libre-brand-paypal" viewBox="0 0 14 14"><path d="m 6.626544,6.50914 -0.572563,0 0.426262,-1.92062 0.643543,0 c 0.557855,0 1.037884,0.15443 1.037884,0.73637 -2.9e-5,0.8573 -0.70302,1.18425 -1.535126,1.18425 z M 13,1 13,13 1,13 1,1 13,1 Z m -9.134825,8.80354 1.457446,0 0.46369,-2.02974 0.605155,0 c 2.075796,0 3.299243,-1.10118 3.299243,-2.49062 0,-1.08486 -0.704855,-1.89177 -1.986204,-1.89177 l -2.415845,0 -1.423485,6.41213 z M 10.109981,5.01336 C 10.385311,7.18606 8.329583,8.30191 6.181728,8.272 l -0.469019,1.99538 -1.009282,0 -0.114,0.516 1.55933,0 0.450233,-1.99229 c 3.139806,-0.0949 4.347845,-2.3855 3.510991,-3.77773 z"/></svg>