<svg role="img" focusable="false" aria-hidden="true" xmlns="http://www.w3.org/2000/svg" viewBox="0 0 14 14"><path d="m 13,10.840314 q 0,0.918848 -0.67714,1.539267 Q 11.64571,13 10.64286,13 9.48571,13 8.62857,12.21466 L 1.968571,6.120419 Q 1,5.217277 1,3.992147 1,2.743455 1.942857,1.871728 2.88571,1 4.24857,1 q 1.35429,0 2.34,0.887434 l 5.18572,4.759163 q 0.0857,0.07853 0.0857,0.172774 0,0.125655 -0.26143,0.365184 -0.26143,0.239529 -0.39857,0.239529 -0.11143,0 -0.19714,-0.07853 L 5.80856,2.578538 Q 5.13142,1.973826 4.25713,1.973826 q -0.90857,0 -1.53428,0.589005 -0.62572,0.589005 -0.62572,1.421466 0,0.824608 0.65143,1.421466 l 6.65143,6.102094 q 0.54,0.494765 1.24286,0.494765 0.54857,0 0.90857,-0.329843 0.36,-0.329843 0.36,-0.832461 0,-0.643979 -0.54,-1.138744 l -4.98,-4.562826 Q 6.16856,4.950266 5.87713,4.950266 q -0.24857,0 -0.41143,0.149214 -0.16285,0.149215 -0.16285,0.376964 0,0.251309 0.21428,0.46335 L 9.03142,9.15969 q 0.0857,0.07853 0.0857,0.172775 0,0.125654 -0.26571,0.369109 Q 8.58569,9.94503 8.44855,9.94503 8.34569,9.94503 8.25998,9.8665 L 4.74569,6.646605 q -0.54,-0.479058 -0.54,-1.170157 0,-0.643979 0.48858,-1.091623 0.48857,-0.447644 1.19142,-0.447644 0.75429,0 1.27715,0.494764 l 4.98,4.562828 Q 13,9.764398 13,10.840314 z"/></svg>