<svg role="img" focusable="false" aria-hidden="true" xmlns="http://www.w3.org/2000/svg" viewBox="0 0 14 14"><path d="m 12.902481,3.5192977 -2.421927,-2.42018 c -0.131425,-0.13142996 -0.345228,-0.13142996 -0.476675,0 l -0.2786558,0.27865 c -0.1314246,0.13145 -0.1314246,0.34525 0,0.47668 l 0.1121587,0.11216 -2.7619087,2.76365 c -0.6659195,-0.36452 -1.5158838,-0.26638 -2.0784414,0.29615 l -0.9954087,0.99541 c -0.1314245,0.13143 -0.1314245,0.34523 0,0.47668 l 1.2214901,1.22146 -4.1323481,4.5670103 c -0.12443753,0.13844 -0.12090966,0.35749 0.010515,0.48896 l 0.1209097,0.12091 c 0.1314474,0.13142 0.350496,0.13843 0.4889534,0.0105 l 4.5634582,-4.1271003 1.2109523,1.21097 c 0.1314245,0.1314303 0.3452271,0.1314303 0.4766746,0 l 0.9954087,-0.9954 c 0.5607936,-0.5608 0.6624375,-1.40199 0.3049544,-2.06795 l 2.7636726,-2.76365 0.112159,0.11216 c 0.131424,0.13142 0.345227,0.13142 0.476697,0 l 0.278633,-0.27866 c 0.140175,-0.13142 0.140175,-0.34523 0.0087,-0.47842 z"/></svg>