<svg aria-labelledby="gui-table-row-remove" role="img" focusable="false" aria-hidden="true" xmlns="http://www.w3.org/2000/svg" viewBox="0 0 14 14"><path d="m 13.9999,8.68029 c 0,-0.29019 -0.1688,-0.52307 -0.3789,-0.52307 l -13.242,0 c -0.21,0 -0.3789,0.23288 -0.3789,0.52307 l 0,4.79434 C 1e-4,13.76472 0.169,14 0.379,14 l 13.242,0 c 0.2101,0 0.3789,-0.23528 0.3789,-0.52537 l 0,-4.79434 z m -1.1582,0.68722 0,3.4222 -3.2168,0 0,-3.4222 3.2168,0 z m -4.2852,0 0,3.4222 -3.2148,0 0,-3.4222 3.2148,0 z m -4.2832,0 0,3.4222 -3.2148,0 0,-3.4222 3.2148,0 z M 4.6999,7.59994 q -0.2558,0 -0.4348,-0.17911 L 3.3953,6.5508 Q 3.2162,6.37168 3.2162,6.11579 q 0,-0.2559 0.1791,-0.43501 L 5.2755,3.79997 3.3953,1.91917 Q 3.2162,1.74005 3.2162,1.48416 q 0,-0.2559 0.1791,-0.43501 L 4.2651,0.17912 Q 4.4441,0 4.6999,0 4.9557,0 5.1348,0.17912 L 7.015,2.05992 8.8952,0.17912 Q 9.0742,0 9.33,0 9.5858,0 9.7649,0.17912 l 0.8698,0.87003 q 0.179,0.17911 0.179,0.43501 0,0.25589 -0.179,0.43501 l -1.8802,1.8808 1.8802,1.88081 q 0.179,0.17911 0.179,0.43501 0,0.25589 -0.179,0.43501 L 9.7649,7.42083 Q 9.5858,7.59994 9.33,7.59994 q -0.2558,0 -0.4348,-0.17911 L 7.015,5.54002 5.1348,7.42083 Q 4.9557,7.59994 4.6999,7.59994 Z"/></svg>