<svg role="img" focusable="false" aria-hidden="true" xmlns="http://www.w3.org/2000/svg" viewBox="0 0 14 14"><path d="m 3.238277,10.4303 c 0,-2.3155 -0.07538,-2.5696 -0.762295,-2.5696 -0.705828,0 -0.762294,-0.2542 -0.762294,-3.4304 l 0,-3.4303 2.66803,0 c 1.467417,0 2.668031,0.081 2.668031,0.1797 0,0.099 -0.428791,1.1493 -0.952868,2.3343 C 4.923025,6.1683 4.922515,6.2569 6.080201,6.406 7.013751,6.5263 7.011059,6.5358 5.127334,9.7633 L 3.238273,13 l 0,-2.5697 z M 7.944569,5.4785 C 8.052397,5.2164 8.441045,4.1016 8.808231,3.001 9.250512,1.6754 9.686145,1 10.098926,1 c 0.412781,0 0.848414,0.6754 1.290695,2.001 0.367186,1.1006 0.755835,2.2154 0.863662,2.4775 0.107828,0.262 -0.05717,0.4764 -0.366654,0.4764 -0.309487,0 -0.66143,-0.2573 -0.782094,-0.5717 C 10.98387,5.0688 10.531346,4.8115 10.098926,4.8115 9.666506,4.8115 9.213982,5.0688 9.093317,5.3832 8.972653,5.6976 8.62071,5.9549 8.311223,5.9549 8.001735,5.9549 7.836741,5.7405 7.944569,5.4785 Z m 2.535504,-2.001 c 0,-0.5241 -0.171516,-0.9529 -0.381147,-0.9529 -0.209631,0 -0.381147,0.4288 -0.381147,0.9529 0,0.524 0.171516,0.9528 0.381147,0.9528 0.209631,0 0.381147,-0.4288 0.381147,-0.9528 z"/></svg>