<svg xmlns="http://www.w3.org/2000/svg" id="libre-content" viewBox="0 0 14 14"><g transform="matrix(0.37572913,0,0,0.37572913,1.0000001,0.99998152)"><path d="m 20.564,28.065 -18.145,0 0,-24.193 18.146,0 0,4.123 2.418,-2.696 0,-1.383 c 0,-1.36 -1.103,-2.463 -2.463,-2.463 l -18.057,0 C 1.103,1.453 0,2.555 0,3.916 l 0,24.105 c 0,1.361 1.103,2.464 2.463,2.464 l 18.059,0 c 1.359,0 2.463,-1.103 2.463,-2.464 l 0,-7.938 -2.42,2.697 0,5.285 -0.001,0 z"/><path d="m 18.512,8.308 c 0,-0.668 -0.541,-1.209 -1.209,-1.209 l -11.636,0 C 5,7.098 4.458,7.64 4.458,8.308 4.458,8.975 5,9.517 5.667,9.517 l 11.635,0 c 0.669,0 1.21,-0.542 1.21,-1.209 z"/><path d="m 16.846,12.167 -11.179,0 c -0.668,0 -1.209,0.542 -1.209,1.209 0,0.668 0.542,1.21 1.209,1.21 l 9.008,0 2.171,-2.419 z"/><path d="m 12.324,17.177 -6.657,0 c -0.668,0 -1.209,0.543 -1.209,1.211 0,0.666 0.542,1.209 1.209,1.209 l 5.287,0 1.37,-2.42 z"/><path d="m 4.458,23.457 c 0,0.668 0.542,1.209 1.209,1.209 l 3.872,0 c 0.015,-0.173 0.04,-0.268 0.078,-0.398 l 0.582,-2.021 -4.532,0 C 5,22.248 4.458,22.789 4.458,23.457 Z"/><path d="m 22.615,8.424 -8.447,9.416 -0.653,0.729 4.651,4.171 0.652,-0.729 8.447,-9.416 0.762,-0.85 -4.649,-4.171 -0.763,0.85 z m -0.402,4.253 -5.539,6.174 c -0.068,0.078 -0.167,0.125 -0.271,0.13 -0.104,0.006 -0.205,-0.03 -0.282,-0.099 l -0.274,-0.246 c -0.161,-0.146 -0.174,-0.393 -0.03,-0.553 l 5.54,-6.176 c 0.069,-0.078 0.166,-0.125 0.271,-0.13 0.103,-0.005 0.205,0.03 0.282,0.1 l 0.273,0.247 c 0.163,0.144 0.174,0.392 0.03,0.553 z m 1.61,-2.934 0.274,0.246 c 0.16,0.144 0.174,0.392 0.029,0.553 l -0.07,0.079 -0.396,0.441 -0.017,0.018 c -0.068,0.078 -0.166,0.124 -0.271,0.129 -0.104,0.006 -0.205,-0.029 -0.282,-0.1 l -0.275,-0.246 c -0.078,-0.069 -0.123,-0.167 -0.129,-0.27 -0.006,-0.104 0.03,-0.206 0.101,-0.283 l 0.481,-0.537 c 0.146,-0.161 0.394,-0.175 0.555,-0.03 z"/><path d="M 31.936,6.795 C 31.916,6.437 31.755,6.101 31.489,5.861 L 28.854,3.497 C 28.586,3.257 28.235,3.134 27.877,3.153 27.52,3.173 27.182,3.333 26.943,3.601 l -1.555,1.732 4.65,4.169 1.553,-1.732 c 0.24,-0.265 0.364,-0.616 0.345,-0.975 z m -1.993,0.971 -2.817,-2.527 0.813,-0.906 2.815,2.526 -0.811,0.907 z"/><path d="m 11.557,25.429 c 0.192,0.172 0.466,0.219 0.705,0.121 l 5.345,-2.189 -4.648,-4.17 -1.599,5.551 c -0.072,0.248 0.005,0.515 0.197,0.687 z m 1.828,-4.756 2.7,2.424 -2.1,0.861 -1.229,-1.103 0.629,-2.182 z"/></g></svg>