<svg xmlns="http://www.w3.org/2000/svg" id="libre-comments" viewBox="0 0 14 14"><path d="m 10.42857,5.7139228 q 0,0.9308 -0.62946,1.72098 -0.62947,0.79018 -1.71764,1.24889 -1.08817,0.4587 -2.36718,0.4587 -0.5759,0 -1.17858,-0.10714 -0.83035,0.58928 -1.8616,0.85714 -0.24107,0.0603 -0.5759,0.10714 h -0.0201 q -0.0737,0 -0.137282,-0.0536 -0.06362,-0.0536 -0.07701,-0.14062 -0.0067,-0.0201 -0.0067,-0.0435 0,-0.0234 0.0033,-0.0435 0.0033,-0.0201 0.01339,-0.0402 l 0.01674,-0.0335 0.02344,-0.0368 0.02679,-0.0335 0.03013,-0.0335 0.02679,-0.0301 q 0.03348,-0.0402 0.154022,-0.16741 0.12053,-0.12723 0.1741,-0.19754 0.0536,-0.0703 0.15067,-0.1942 0.0971,-0.12388 0.16741,-0.25781 0.0703,-0.13393 0.13728,-0.29464 Q 1.950823,7.9170628 1.475376,7.2139428 1,6.5107928 1,5.7139228 q 0,-0.9308 0.629464,-1.72098 0.629466,-0.79018 1.717636,-1.24889 1.08817,-0.4587 2.36719,-0.4587 1.27901,0 2.36718,0.4587 1.08817,0.45871 1.71764,1.24889 0.62946,0.79018 0.62946,1.72098 z M 13,7.4282128 q 0,0.80357 -0.47545,1.50334 -0.47544,0.69978 -1.3058,1.1819202 0.067,0.16072 0.13728,0.29465 0.0703,0.13392 0.16741,0.25781 0.0971,0.12388 0.15067,0.19419 0.0536,0.0703 0.1741,0.19755 0.12054,0.12723 0.15402,0.16741 0.007,0.007 0.0268,0.0301 0.0201,0.0234 0.0301,0.0335 0.01,0.01 0.0268,0.0335 0.0167,0.0234 0.0234,0.0368 l 0.0168,0.0335 0.0134,0.0402 0.003,0.0435 -0.007,0.0435 q -0.0201,0.0937 -0.0871,0.14732 -0.067,0.0536 -0.14732,0.0469 -0.33483,-0.0469 -0.5759,-0.10714 -1.03125,-0.26786 -1.8616,-0.85715 -0.60268,0.10715 -1.17858,0.10715 -1.81473,0 -3.16071,-0.8839302 0.38839,0.0268 0.58929,0.0268 1.07812,0 2.06919,-0.30134 0.99107,-0.30134 1.76786,-0.86383 0.83705,-0.61608 1.28571,-1.41965 0.44866,-0.80357 0.44866,-1.70089 0,-0.51563 -0.15401,-1.01786 0.86384,0.47545 1.36607,1.19197 0.50223,0.71651 0.50223,1.54018 z"/></svg>