<svg xmlns="http://www.w3.org/2000/svg" id="libre-alien" viewBox="0 0 14 14"><g transform="matrix(0.75676357,0,0,0.75676357,0.17739803,0.89178284)"><path d="M 9.014,0.143 C 5.159,0.143 2.031,3.122 2.031,6.794 2.031,10.469 7.209,16 9.014,16 10.822,16 16,10.469 16,6.794 16,3.122 12.873,0.143 9.014,0.143 l 0,0 z M 7.895,10.895 C 7.579,11.213 6.481,10.624 5.447,9.574 4.411,8.528 3.829,7.42 4.145,7.1 4.46,6.779 5.557,7.369 6.592,8.417 c 1.033,1.048 1.619,2.155 1.303,2.478 l 0,0 z m 2.219,-0.008 c -0.32,-0.32 0.27,-1.426 1.321,-2.473 1.049,-1.047 2.158,-1.636 2.48,-1.314 0.32,0.318 -0.271,1.424 -1.32,2.47 -1.05,1.047 -2.161,1.634 -2.481,1.317 l 0,0 z"/></g></svg>