<svg xmlns="http://www.w3.org/2000/svg" id="libre-text-height" viewBox="0 0 14 14"><g transform="matrix(0.00677614,0,0,0.00677614,0.01154542,0.10818231)"><path d="m 1872,1536 c 22,0 36,6.1667 42,18.5 6,12.3333 2.3333,27.1667 -11,44.5 l -126,162 c -13.3333,17.3333 -29.6667,26 -49,26 -19.3333,0 -35.6667,-8.6667 -49,-26 l -126,-162 c -13.3333,-17.3333 -17,-32.1667 -11,-44.5 6,-12.3333 20,-18.5 42,-18.5 l 80,0 0,-1024 -80,0 c -22,0 -36,-6.16667 -42,-18.5 -6,-12.33333 -2.3333,-27.16667 11,-44.5 l 126,-162 c 13.3333,-17.33333 29.6667,-26 49,-26 19.3333,0 35.6667,8.66667 49,26 l 126,162 c 13.3333,17.33333 17,32.16667 11,44.5 -6,12.33333 -20,18.5 -42,18.5 l -80,0 0,1024 z"/><path d="m 1387.6851,495.87251 0,-253.80116 -1241.81285,0 0,253.80116 471.34501,0 0,1296.19879 299.1228,0 0,-1296.19879 471.34504,0"/></g></svg>