<svg role="img" focusable="false" aria-hidden="true" xmlns="http://www.w3.org/2000/svg" viewBox="0 0 14 14"><path d="m 11.96875,4.75 -9.9375,0 C 1.8765625,4.75 1.75,4.62344 1.75,4.46875 L 1.75,3.625 C 1.75,3.00391 2.2539063,2.5 2.875,2.5 L 4,2.5 4,1.28125 C 4,1.12656 4.1265625,1 4.28125,1 l 0.9375,0 C 5.3734375,1 5.5,1.12656 5.5,1.28125 l 0,1.21875 3,0 0,-1.21875 C 8.5,1.12656 8.6265625,1 8.78125,1 l 0.9375,0 C 9.8734375,1 10,1.12656 10,1.28125 L 10,2.5 l 1.125,0 c 0.621094,0 1.125,0.50391 1.125,1.125 l 0,0.84375 C 12.25,4.62344 12.123438,4.75 11.96875,4.75 Z m -9.9375,0.75 9.9375,0 C 12.123438,5.5 12.25,5.62656 12.25,5.78125 l 0,6.09375 C 12.25,12.49609 11.746094,13 11.125,13 l -8.25,0 C 2.2539063,13 1.75,12.49609 1.75,11.875 l 0,-6.09375 C 1.75,5.62656 1.8765625,5.5 2.03125,5.5 Z M 4.75,10.28125 C 4.75,10.12656 4.6234375,10 4.46875,10 l -0.9375,0 C 3.3765625,10 3.25,10.12656 3.25,10.28125 l 0,0.9375 C 3.25,11.37344 3.3765625,11.5 3.53125,11.5 l 0.9375,0 C 4.6234375,11.5 4.75,11.37344 4.75,11.21875 l 0,-0.9375 z m 0,-3 C 4.75,7.12656 4.6234375,7 4.46875,7 L 3.53125,7 C 3.3765625,7 3.25,7.12656 3.25,7.28125 l 0,0.9375 C 3.25,8.37344 3.3765625,8.5 3.53125,8.5 l 0.9375,0 C 4.6234375,8.5 4.75,8.37344 4.75,8.21875 l 0,-0.9375 z m 3,3 C 7.75,10.12656 7.6234375,10 7.46875,10 l -0.9375,0 C 6.3765625,10 6.25,10.12656 6.25,10.28125 l 0,0.9375 C 6.25,11.37344 6.3765625,11.5 6.53125,11.5 l 0.9375,0 C 7.6234375,11.5 7.75,11.37344 7.75,11.21875 l 0,-0.9375 z m 0,-3 C 7.75,7.12656 7.6234375,7 7.46875,7 L 6.53125,7 C 6.3765625,7 6.25,7.12656 6.25,7.28125 l 0,0.9375 C 6.25,8.37344 6.3765625,8.5 6.53125,8.5 l 0.9375,0 C 7.6234375,8.5 7.75,8.37344 7.75,8.21875 l 0,-0.9375 z m 3,3 C 10.75,10.12656 10.623438,10 10.46875,10 l -0.9375,0 C 9.3765625,10 9.25,10.12656 9.25,10.28125 l 0,0.9375 C 9.25,11.37344 9.3765625,11.5 9.53125,11.5 l 0.9375,0 c 0.154688,0 0.28125,-0.12656 0.28125,-0.28125 l 0,-0.9375 z m 0,-3 C 10.75,7.12656 10.623438,7 10.46875,7 L 9.53125,7 C 9.3765625,7 9.25,7.12656 9.25,7.28125 l 0,0.9375 C 9.25,8.37344 9.3765625,8.5 9.53125,8.5 l 0.9375,0 C 10.623438,8.5 10.75,8.37344 10.75,8.21875 l 0,-0.9375 z"/></svg>