<svg xmlns="http://www.w3.org/2000/svg" id="libre-subscript" viewBox="0 0 14 14"><g transform="matrix(0.00832058,0,0,0.00832058,-1.705168,-4.1584914)"><path d="m 824.827,1220.0958 287.7907,-455.23251 -200.14535,0 -189.68024,327.03491 -170.05813,-327.03491 -206.68605,0 265.55232,443.45931 -286.48255,456.5407 197.52907,0 187.06395,-325.7268 181.83139,325.7268 209.30229,0 -276.0174,-444.7675"/><path d="m 1336.8515,1358.1078 c 49.926,-45.4881 105.3995,-66.568 153.1065,-66.568 78.7721,0 119.8225,34.3936 119.8225,107.6183 0,58.8018 -42.1598,122.0415 -122.0414,204.142 l -196.3758,199.7042 0,114.2751 467.0858,0 0,-124.2603 -291.7899,0 133.1361,-125.3698 c 105.3993,-98.7425 167.5296,-186.3907 167.5296,-288.4616 0,-113.1655 -76.5535,-211.9082 -249.6302,-211.9082 -71.0058,0 -130.9172,18.8609 -187.5,58.8017 l 6.6568,132.0266"/></g></svg>