<svg role="img" focusable="false" aria-hidden="true" xmlns="http://www.w3.org/2000/svg" viewBox="0 0 14 14"><path d="m 12,3 0,8 -10,0 0,-8.0000001 10,0 z m 1,-1.0000004 -12,0 L 1,12 13,12 13,1.9999996 Z m -2.5,6.5460001 0,-3.0919998 c 0.2905,-0.1035 0.5,-0.378 0.5,-0.7039997 0,-0.4139999 -0.336,-0.75 -0.75,-0.75 -0.3260003,0 -0.6005003,0.2094995 -0.704,0.4999998 l -5.092,0 C 4.3505,4.2094996 4.076,4.0000002 3.75,4.0000002 3.336,4.0000002 3,4.3360003 3,4.7500002 3,5.0759999 3.2095,5.3505 3.5,5.4539999 l 0,3.0919998 C 3.2095,8.6494997 3,8.9239997 3,9.2500004 3,9.6640004 3.336,10 3.75,10 4.076,10 4.3505,9.7905004 4.454,9.4999994 l 5.092,0 C 9.6494997,9.7905004 9.9239997,10 10.25,10 10.664,10 11,9.6640004 11,9.2500004 11,8.9239997 10.7905,8.6494997 10.5,8.5459997 Z M 9.546,9 4.454,9 C 4.379,8.7880003 4.212,8.6215003 4,8.5459997 L 4,5.4539999 C 4.212,5.3785027 4.3785,5.2120002 4.454,4.9999996 l 5.092,0 C 9.6215,5.2120002 9.7880003,5.3785002 10,5.4539999 l 0,3.0919997 C 9.7880003,8.6215003 9.6209997,8.7880003 9.546,9 Z"/></svg>