<svg role="img" focusable="false" aria-hidden="true" xmlns="http://www.w3.org/2000/svg" viewBox="0 0 14 14"><path d="m 1.6249445,1.0000002 10.7501115,0 0,1.26471 -10.7501115,0 0,-1.26471 z M 6.9501336,13 C 5.5316439,13 4.3958485,12.53344 3.5425585,11.60034 2.6892684,10.66695 2.2625604,9.4534699 2.2625604,7.9587402 c 0,-1.60653 0.4348966,-2.88791 1.3045428,-3.84434 0.8698141,-0.95625 2.0533131,-1.43438 3.5510009,-1.43438 1.3809693,0 2.4937737,0.46423 3.3382449,1.39302 0.844178,0.92863 1.266288,2.14255 1.266288,3.64147 0,1.6290897 -0.432608,2.9172498 -1.297782,3.8645598 C 9.559702,12.52637 8.4011886,13 6.9501336,13 Z m 0.082746,-9.3166298 c -1.0316117,0 -1.8695955,0.3828699 -2.5138672,1.1489399 -0.6442298,0.76588 -0.9664182,1.77217 -0.9664182,3.01897 0,1.2452797 0.3138739,2.2475299 0.9417685,3.0064899 0.6278737,0.75958 1.4471917,1.13905 2.457933,1.13905 1.0780765,0 1.9275033,-0.36219 2.5487421,-1.08625 0.6212602,-0.72405 0.9318792,-1.7374402 0.9318792,-3.0392099 0,-1.3348 -0.30199,-2.36641 -0.9050039,-3.09511 -0.6030351,-0.7287 -1.4348669,-1.09288 -2.4950335,-1.09288 z"/></svg>