<svg xmlns="http://www.w3.org/2000/svg" id="libre-brand-google-plus" viewBox="0 0 14 14"><path d="m 7.47656,9.515625 q 0,0.59375 -0.45703,0.878906 -0.45703,0.285157 -1.08984,0.285157 -0.32031,0 -0.62891,-0.07422 Q 4.99219,10.531248 4.71094,10.382811 4.42969,10.234374 4.25781,9.968749 4.08594,9.703124 4.08594,9.359374 q 0,-0.359375 0.19531,-0.625 Q 4.47656,8.468749 4.79297,8.33203 5.10938,8.195311 5.43359,8.136717 q 0.32422,-0.05859 0.66016,-0.05859 0.15625,0 0.24219,0.01563 0.0156,0.0078 0.17968,0.128906 0.16407,0.121094 0.20313,0.148438 0.0391,0.02734 0.17969,0.140624 0.14062,0.113282 0.1914,0.171876 0.0508,0.05859 0.14844,0.175781 0.0977,0.117188 0.13281,0.203125 0.0352,0.08594 0.0703,0.207031 0.0352,0.121094 0.0352,0.246094 z M 6.89844,5.257813 q 0,0.46875 -0.25781,0.777344 Q 6.38281,6.34375 5.92188,6.34375 5.50781,6.34375 5.19531,6.011719 4.88281,5.679687 4.74609,5.257813 4.60937,4.835938 4.60937,4.429688 q 0,-0.476563 0.25001,-0.8125 0.25,-0.335938 0.71874,-0.335938 0.41407,0 0.73047,0.351562 0.31641,0.351563 0.45313,0.789063 0.13672,0.4375 0.13672,0.835938 z M 7.72656,3.25 8.41406,2.75 H 6.34375 Q 5.67969,2.75 5.08594,3 4.49219,3.25 4.08984,3.765625 3.6875,4.28125 3.6875,4.960937 q 0,0.726563 0.50391,1.207032 0.5039,0.480469 1.23828,0.480469 0.17187,0 0.33593,-0.02344 -0.10156,0.226563 -0.10156,0.421875 0,0.34375 0.3125,0.734375 -1.36719,0.09375 -2.00781,0.492187 -0.36719,0.226563 -0.58984,0.570313 -0.22266,0.34375 -0.22266,0.742188 0,0.335937 0.14453,0.605468 0.14453,0.269532 0.37891,0.441407 0.23437,0.171875 0.53906,0.289062 0.30469,0.117187 0.60547,0.164063 0.30078,0.04687 0.59766,0.04687 0.46875,0 0.9414,-0.121093 Q 6.83594,10.890619 7.25,10.652338 7.66406,10.414056 7.92188,10.007806 8.17969,9.601556 8.17969,9.093744 8.17969,8.710931 8.02344,8.394525 7.86719,8.078119 7.64062,7.874994 7.41406,7.671869 7.1875,7.5039 6.96094,7.335932 6.80469,7.160151 6.64844,6.984369 6.64844,6.812494 6.64844,6.640619 6.76953,6.480463 6.89062,6.320306 7.0625,6.171869 7.23437,6.023431 7.40625,5.843744 7.57812,5.664057 7.69922,5.3789 7.82031,5.093744 7.82031,4.734369 7.82031,4.265619 7.64453,3.957025 7.46875,3.648432 7.07813,3.249994 H 7.72656 z M 10,6.75 h 1 v -0.5 h -1 v -1 H 9.5 v 1 h -1 v 0.5 h 1 V 8 H 10 V 6.75 z m 3,-3.5 v 7.5 q 0,0.929687 -0.66016,1.589844 Q 11.67969,13 10.75,13 H 3.25 Q 2.32031,13 1.660156,12.339844 1,11.679687 1,10.75 V 3.25 Q 1,2.320313 1.660156,1.660156 2.32031,1 3.25,1 h 7.5 Q 11.67969,1 12.33984,1.660156 13,2.320313 13,3.25 z"/></svg>