<svg xmlns="http://www.w3.org/2000/svg" id="libre-brand-blogger" viewBox="0 0 14 14"><g transform="matrix(0.02525215,0,0,0.02525215,0.53558849,0.53531071)"><path d="m 302.438,156.651 c -3.625,-5.11 -11.704,-12.073 -28.385,-12.073 l -127.519,-0.952 c -1.423,0.071 -5.714,0.86 -8.99,1.925 l 0.133,71.311 164.772,0 0,-60.211 z"/><path d="m 138.005,360.366 c 1.946,2.652 7.803,8.028 23.04,8.028 l 187.924,0 c 5.878,-0.973 25.866,-5.519 25.559,-22.784 l -0.276,-42.742 -236.37,0 0.123,57.498 z"/><path d="m 420.055,18.422 -328.1,0 c -40.622,0 -73.564,32.932 -73.564,73.595 l 0,328.059 c 0,40.601 32.942,73.513 73.564,73.513 l 328.1,0 c 40.612,0 73.543,-32.911 73.543,-73.513 l 0,-328.069 c 0,-40.653 -32.932,-73.585 -73.543,-73.585 z m -64.43,424.98 -2.068,0.215 -192.512,0 c -64.973,0 -92.099,-44.759 -97.372,-68.423 l -0.88,-3.983 -0.02,-4.075 -0.461,-224.563 0.051,2.222 c -1.167,-18.934 4.802,-36.025 17.193,-49.428 22.938,-24.832 59.413,-26.808 67.522,-26.951 0,0 127.559,0.932 127.273,0.932 62.341,0 93.01,41.738 101.356,66.416 l 1.966,5.816 0,84.941 71.383,-0.901 0.226,37.878 c 0,0 0.481,81.685 0.481,81.244 1.239,69.735 -61.02,95.017 -94.137,98.663 z"/><path d="m 137.543,141.322 -0.102,-1.075 c 0.123,2.018 -1.628,5.571 -3.256,6.727 0.727,-0.522 1.976,-0.994 3.358,-1.413 l 0,-4.239 z"/><path d="m 304.384,159.774 -1.935,-12.032 0,8.909 c 1.188,1.69 1.935,3.205 2.325,4.167 -0.01,0 -0.164,-0.358 -0.389,-1.044 z"/><path d="m 351.529,368.404 -2.57,0 c -0.891,0.144 -1.423,0.205 -1.557,0.215 l 4.127,-0.215 z"/><path d="m 138.025,366.981 -0.02,-6.615 c -0.645,-0.87 -0.85,-1.474 -0.85,-1.495 l 0.87,8.11 z"/><path d="m 374.241,301.773 2.325,0 0,1.106 -2.325,0 0,-1.106 z"/></g></svg>