<svg role="img" focusable="false" aria-hidden="true" xmlns="http://www.w3.org/2000/svg" viewBox="0 0 14 14"><path d="M 12.988722,11.119194 C 12.836726,10.15372 11.051775,10.8972 10.940779,9.8397291 c -0.156496,-1.498959 2.074943,-4.729371 1.898447,-5.985837 -0.156495,-1.127469 -0.920474,-1.364962 -1.582456,-1.377962 -0.641982,-0.01 -0.811478,0.091 -1.028972,0.217494 -0.126496,0.073 -0.3059916,0.217494 -0.5559848,-0.0205 -0.1669954,-0.158996 -0.2784924,-0.267993 -0.4524876,-0.409489 -0.090998,-0.071 -0.2329936,-0.161996 -0.4724871,-0.197495 -0.2379935,-0.0355 -0.548985,0 -0.7459796,0.0835 -0.1974946,0.086 -0.3509904,0.232994 -0.512986,0.37449 -0.1614956,0.141496 -0.5734843,0.598983 -0.9554739,0.429488 -0.1674954,-0.0725 -0.7289801,-0.35299 -1.1359689,-0.527486 -0.7814787,-0.33849 -1.9109478,0.209995 -2.3179367,0.932975 -0.6064834,1.07447 -1.7999508,5.301355 -1.9819458,5.85734 -0.40448896,1.2509659 0.5159859,2.2699379 1.754452,2.2119389 0.5259856,-0.0255 0.8749761,-0.214994 1.2059671,-0.818977 0.1919947,-0.346491 1.9894456,-5.0433619 2.1239419,-5.2713559 0.098497,-0.161496 0.4219885,-0.37649 0.694981,-0.237494 0.2754925,0.141496 0.330991,0.434488 0.2904921,0.710481 -0.067998,0.447488 -1.3344635,3.314409 -1.3854621,3.6374 -0.080998,0.551485 0.179495,0.8569769 0.7534794,0.8869759 0.3919892,0.0205 0.7834785,-0.118497 1.0919701,-0.7049809 0.1744953,-0.325991 2.1744406,-4.332881 2.3509358,-4.600874 0.1949951,-0.292992 0.3514901,-0.389489 0.5514851,-0.378989 0.154496,0.0075 0.399489,0.048 0.338991,0.507986 -0.061,0.452487 -1.6714548,3.389907 -1.8379502,4.110387 -0.2279938,0.9634739 0.3009917,1.9369469 1.1704682,2.3639359 0.555985,0.272992 2.984918,0.73798 2.788423,-0.513486 z"/></svg>