<svg aria-labelledby="gui-unfold" role="img" focusable="false" aria-hidden="true" xmlns="http://www.w3.org/2000/svg" viewBox="0 0 14 14"><path d="M 10.857143,7 13,9 c 0,0.44 -0.385714,0.8 -0.857143,0.8 l -3.4285713,0 0,-0.8 L 11.714286,9 10,7.4 4,7.4 2.2857143,9 l 3,0 0,0.8 -3.4285714,0 C 1.3857143,9.8 1,9.44 1,9 L 3.1428571,7 1,5 C 1,4.56 1.3857143,4.2 1.8571429,4.2 l 3.4285714,0 0,0.8 -3,0 L 4,6.6 l 6,0 1.714286,-1.6 -3.0000003,0 0,-0.8 3.4285713,0 C 12.614286,4.2 13,4.56 13,5 l -2.142857,2 z m -4.7142859,-1.2 1.7142858,0 0,-2.4 1.7142857,0 L 7,1 4.4285714,3.4 l 1.7142857,0 0,2.4 z m 1.7142858,2.4 -1.7142858,0 0,2.4 -1.7142857,0 L 7,13 l 2.5714286,-2.4 -1.7142857,0 0,-2.4 z"/></svg>