<svg xmlns="http://www.w3.org/2000/svg" viewBox="0 0 14 14" id="libre-wysiwyg-special-character"><path d="m 10.746374,7.92958 q 0.379987,0.35363 0.892,0.35342 0.589345,0 0.961761,-0.35342 0.372417,-0.35342 0.372315,-0.92195 0,-0.56826 -0.395585,-0.92187 -0.395509,-0.35336 -0.938427,-0.35342 -0.54321,0 -0.907498,0.37643 -0.364718,0.37672 -0.364604,0.91425 -6.3e-5,0.55319 0.380038,0.90656 z m -9.3542824,0 q 0.364363,0.35363 0.938541,0.35342 0.542855,0 0.899775,-0.35342 0.356653,-0.35328 0.356767,-0.92195 0,-0.56826 -0.372327,-0.92187 -0.372239,-0.35336 -0.884215,-0.35342 -0.589687,0 -0.946264,0.37643 -0.357097,0.37678 -0.356818,0.91431 0,0.55313 0.364541,0.9065 z m 4.475487,-5.13187 a 1.4139817,1.4139817 0 0 0 0.286956,0.40716 1.3172476,1.3172476 0 0 0 0.922994,0.37644 q 0.573747,0 0.930818,-0.37644 0.356742,-0.37634 0.356831,-0.91424 0,-0.55313 -0.387824,-0.92188 Q 7.5895296,1 7.0775666,1 6.4878786,1 6.1235276,1.37644 5.7588986,1.75308 5.7589876,2.29062 a 1.1738077,1.1738077 0 0 0 0.108591,0.50709 z m 0.27922,9.84892 q 0.387621,0.35328 0.930818,0.35337 0.558479,0 0.923045,-0.35337 0.364275,-0.35365 0.364554,-0.93726 0,-0.53769 -0.387824,-0.88348 -0.387824,-0.34578 -0.899825,-0.34576 -0.589688,0 -0.954039,0.36106 -0.364629,0.36121 -0.36454,0.88347 0,0.56839 0.387811,0.92197 z M 12.168941,1.10003 7.0052316,6.2172 1.8305786,1.10003 1.0623106,1.87 l 5.163709,5.10634 -5.163709,5.10628 0.768268,0.76996 5.174653,-5.11712 5.1637094,5.11712 0.75726,-0.76996 L 7.7625426,6.97634 12.926201,1.87 Z"/></svg>