<svg xmlns="http://www.w3.org/2000/svg" viewBox="0 0 14 14" id="libre-clock"><path d="m 8,4.25 v 3.5 Q 8,7.859375 7.9297,7.929687 7.85938,8 7.75,8 H 5.25 Q 5.14062,8 5.07031,7.92969 5,7.859375 5,7.75 V 7.25 Q 5,7.140625 5.0703,7.070312 5.14062,7 5.25,7 H 7 V 4.25 Q 7,4.140625 7.0703,4.070312 7.14063,4 7.25,4 h 0.5 Q 7.85938,4 7.92969,4.07031 8,4.140625 8,4.25 z M 11.25,7 Q 11.25,5.84375 10.67969,4.867187 10.10938,3.890625 9.13281,3.320312 8.15625,2.75 7,2.75 5.84375,2.75 4.86719,3.320312 3.89062,3.890625 3.32031,4.867187 2.75,5.84375 2.75,7 q 0,1.15625 0.57031,2.132813 0.57031,0.976562 1.54688,1.546875 Q 5.84375,11.25 7,11.25 q 1.15625,0 2.13281,-0.570312 0.97657,-0.570313 1.54688,-1.546875 Q 11.25,8.15625 11.25,7 z M 13,7 q 0,1.632813 -0.80469,3.011718 -0.80469,1.378907 -2.18359,2.183594 Q 8.63281,13 7,13 5.36719,13 3.98828,12.195312 2.60938,11.390625 1.804688,10.011718 1,8.632813 1,7 1,5.367187 1.804688,3.988282 2.60938,2.609375 3.98828,1.804688 5.36719,1 7,1 8.63281,1 10.01172,1.804688 11.39062,2.609375 12.19531,3.988282 13,5.367187 13,7 z"/></svg>