<svg xmlns="http://www.w3.org/2000/svg" viewBox="0 0 14 14" id="libre-browse-computer"><g><path d="M 2 1.8007812 C 1.725 1.8007812 1.4888021 1.8979167 1.2929688 2.09375 C 1.0971354 2.2895833 1 2.5257813 1 2.8007812 L 1 9.5996094 C 1 9.8746094 1.0971354 10.110807 1.2929688 10.306641 C 1.4888021 10.502474 1.725 10.599609 2 10.599609 L 5.4003906 10.599609 C 5.4003906 10.757943 5.3674479 10.921224 5.3007812 11.087891 C 5.2341146 11.254557 5.166276 11.400391 5.0996094 11.525391 C 5.0329427 11.650391 5 11.742448 5 11.800781 C 5 11.909115 5.039974 12.002865 5.1191406 12.082031 C 5.1983073 12.161198 5.2920573 12.199219 5.4003906 12.199219 L 6.3671875 12.199219 L 6.3671875 9.1953125 A 2.7780557 2.7780557 0 0 1 6.5527344 8.1992188 L 2 8.1992188 C 1.9458367 8.1992187 1.8989617 8.180225 1.859375 8.140625 C 1.8197883 8.101005 1.8007812 8.0541333 1.8007812 8 L 1.8007812 2.8007812 C 1.8007812 2.7466279 1.8197883 2.6997563 1.859375 2.6601562 C 1.8989583 2.6205562 1.9458333 2.5996094 2 2.5996094 L 12 2.5996094 C 12.054147 2.5996094 12.101025 2.6205562 12.140625 2.6601562 C 12.180225 2.6997763 12.199219 2.7466479 12.199219 2.8007812 L 12.199219 6.4160156 L 13 6.4160156 L 13 2.8007812 C 13 2.5257813 12.902865 2.2895833 12.707031 2.09375 C 12.511198 1.8979167 12.275 1.8007812 12 1.8007812 L 2 1.8007812 z "/><path d="m 3.2330416,3.4337016 q 0,0.1080293 -0.081095,0.1836498 -0.081095,0.07562 -0.1969459,0.07562 -0.1158504,0 -0.1969458,-0.07562 -0.081095,-0.07562 -0.081095,-0.1836498 0,-0.1080292 0.081095,-0.1836497 0.081095,-0.07562 0.1969458,-0.07562 0.1158505,0 0.1969459,0.07562 0.081095,0.075621 0.081095,0.1836497 z m 1.4828863,0.5185405 0,0.6049639 -2.0389686,0 0,-0.2592703 0.4634019,-0.432117 0.231701,0.2160585 0.7414431,-0.6913873 z m 0.1390206,-0.9506575 -2.3170098,0 q -0.018826,0 -0.032583,0.012834 -0.013757,0.012823 -0.013757,0.030378 l 0,1.6420449 q 0,0.017566 0.013758,0.030382 0.013756,0.012829 0.032582,0.012829 l 2.3170098,0 q 0.018814,0 0.032582,-0.012834 0.013758,-0.012823 0.013758,-0.030378 l 0,-1.6420449 q 0,-0.017544 -0.013763,-0.030382 -0.013751,-0.012829 -0.032577,-0.012829 z m 0.231701,0.043211 0,1.6420449 q 0,0.089124 -0.068062,0.1525913 -0.068062,0.063467 -0.1636387,0.063467 l -2.3170098,0 q -0.095577,0 -0.1636388,-0.063467 -0.068062,-0.063467 -0.068062,-0.1525913 l 0,-1.6420449 q 0,-0.089124 0.068062,-0.1525913 0.068062,-0.063467 0.1636388,-0.063467 l 2.3170098,0 q 0.095577,0 0.1636387,0.063467 0.068062,0.063467 0.068062,0.1525913 z"/><path d="m 6.5365878,3.4337017 q 0,0.1080293 -0.081095,0.1836498 -0.081095,0.07562 -0.1969459,0.07562 -0.1158504,0 -0.1969458,-0.07562 -0.081095,-0.07562 -0.081095,-0.1836498 0,-0.1080293 0.081095,-0.1836498 0.081095,-0.07562 0.1969458,-0.07562 0.1158505,0 0.1969459,0.07562 0.081095,0.075621 0.081095,0.1836498 z m 1.4828863,0.5185404 0,0.6049639 -2.0389686,0 0,-0.2592703 0.4634019,-0.432117 0.231701,0.2160585 L 7.4170515,3.39049 Z m 0.1390206,-0.9506575 -2.3170098,0 q -0.018826,0 -0.032583,0.012834 -0.013757,0.012823 -0.013757,0.030378 l 0,1.6420449 q 0,0.017566 0.013758,0.030382 0.013756,0.012829 0.032582,0.012829 l 2.3170098,0 q 0.018814,0 0.032582,-0.012834 0.013758,-0.012823 0.013758,-0.030378 l 0,-1.6420449 q 0,-0.017544 -0.013763,-0.030382 -0.013751,-0.012829 -0.032577,-0.012829 z m 0.231701,0.043211 0,1.6420449 q 0,0.089124 -0.068062,0.1525913 -0.068062,0.063467 -0.1636387,0.063467 l -2.3170098,0 q -0.095577,0 -0.1636388,-0.063467 -0.068062,-0.063467 -0.068062,-0.1525913 l 0,-1.6420449 q 0,-0.089124 0.068062,-0.1525913 0.068062,-0.063467 0.1636388,-0.063467 l 2.3170098,0 q 0.095577,0 0.1636387,0.063467 0.068062,0.063467 0.068062,0.1525913 z"/><path d="m 9.8401343,3.4337016 q 0,0.1080293 -0.08109,0.1836498 -0.0811,0.07562 -0.1969453,0.07562 -0.1158509,0 -0.1969463,-0.07562 -0.081095,-0.07562 -0.081095,-0.1836498 0,-0.1080292 0.081095,-0.1836497 0.081095,-0.07562 0.1969463,-0.07562 0.11585,0 0.1969453,0.07562 0.08109,0.075621 0.08109,0.1836497 z m 1.4828977,0.5185405 0,0.6049639 -2.0389811,0 0,-0.2592703 0.4634019,-0.432117 0.2317049,0.2160585 0.7414483,-0.6913873 z m 0.139024,-0.9506575 -2.3170257,0 q -0.018826,0 -0.032583,0.012834 -0.013757,0.012823 -0.013757,0.030378 l 0,1.6420449 q 0,0.017566 0.013758,0.030382 0.013756,0.012829 0.032582,0.012829 l 2.3170257,0 q 0.01881,0 0.03258,-0.012834 0.01376,-0.012823 0.01376,-0.030378 l 0,-1.6420449 q 0,-0.017544 -0.01376,-0.030382 -0.01375,-0.012829 -0.03258,-0.012829 z m 0.231705,0.043211 0,1.6420449 q 0,0.089124 -0.06806,0.1525913 -0.06806,0.063467 -0.163642,0.063467 l -2.3170255,0 q -0.095577,0 -0.1636388,-0.063467 -0.068062,-0.063467 -0.068062,-0.1525913 l 0,-1.6420449 q 0,-0.089124 0.068062,-0.1525913 0.068062,-0.063467 0.1636388,-0.063467 l 2.3170255,0 q 0.09558,0 0.163642,0.063467 0.06806,0.063467 0.06806,0.1525913 z"/><path d="m 3.2330416,6.2690428 q 0,0.1080293 -0.081095,0.1836498 -0.081095,0.07562 -0.1969459,0.07562 -0.1158504,0 -0.1969458,-0.07562 -0.081095,-0.07562 -0.081095,-0.1836498 0,-0.1080292 0.081095,-0.1836497 0.081095,-0.07562 0.1969458,-0.07562 0.1158505,0 0.1969459,0.07562 0.081095,0.075621 0.081095,0.1836497 z m 1.4828863,0.5185405 0,0.6049639 -2.0389686,0 0,-0.2592703 0.4634019,-0.432117 0.231701,0.2160585 0.7414431,-0.6913873 z m 0.1390206,-0.9506575 -2.3170098,0 q -0.018826,0 -0.032583,0.012834 -0.013757,0.012823 -0.013757,0.030378 l 0,1.6420449 q 0,0.017566 0.013758,0.030382 0.013756,0.012829 0.032582,0.012829 l 2.3170098,0 q 0.018814,0 0.032582,-0.012834 0.013758,-0.012823 0.013758,-0.030378 l 0,-1.6420449 q 0,-0.017544 -0.013763,-0.030382 -0.013751,-0.012829 -0.032577,-0.012829 z m 0.231701,0.043211 0,1.6420449 q 0,0.089124 -0.068062,0.1525913 Q 4.9505255,7.73824 4.8549488,7.73824 l -2.3170098,0 q -0.095577,0 -0.1636388,-0.063467 -0.068062,-0.063467 -0.068062,-0.1525913 l 0,-1.6420449 q 0,-0.089124 0.068062,-0.1525913 0.068062,-0.063467 0.1636388,-0.063467 l 2.3170098,0 q 0.095577,0 0.1636387,0.063467 0.068062,0.063467 0.068062,0.1525913 z"/><path d="m 6.5365877,6.2690429 q 0,0.1080293 -0.08109,0.1836498 -0.0811,0.07562 -0.196946,0.07562 -0.11585,0 -0.196946,-0.07562 -0.08109,-0.07562 -0.08109,-0.1836498 0,-0.1080293 0.08109,-0.1836498 0.0811,-0.07562 0.196946,-0.07562 0.115851,0 0.196946,0.07562 0.08109,0.075621 0.08109,0.1836498 z m 1.482886,0.5185404 0,0.6049639 -2.038968,0 0,-0.2592703 0.463402,-0.432117 0.231701,0.2160585 0.741443,-0.6913872 z m 0.139021,-0.9506575 -2.31701,0 q -0.01883,0 -0.03258,0.012834 -0.01376,0.012823 -0.01376,0.030378 l 0,1.6420449 q 0,0.017566 0.01376,0.030382 0.01376,0.012829 0.03258,0.012829 l 2.31701,0 q 0.01881,0 0.03258,-0.012834 0.01376,-0.012823 0.01376,-0.030378 l 0,-1.6420449 q 0,-0.017544 -0.01376,-0.030382 -0.01375,-0.012829 -0.03258,-0.012829 z m 0.231701,0.043211 0,1.6420449 q 0,0.089124 -0.06806,0.1525913 -0.06806,0.063467 -0.163639,0.063467 l -2.317009,0 q -0.09558,0 -0.163639,-0.063467 -0.06806,-0.063467 -0.06806,-0.1525913 l 0,-1.6420449 q 0,-0.089124 0.06806,-0.1525913 0.06806,-0.063467 0.163639,-0.063467 l 2.317009,0 q 0.09558,0 0.163639,0.063467 0.06806,0.063467 0.06806,0.1525913 z"/><path d="m 9.8401343,6.2690428 q 0,0.1080293 -0.08109,0.1836498 -0.0811,0.07562 -0.1969451,0.07562 -0.115851,0 -0.1969465,-0.07562 -0.081095,-0.07562 -0.081095,-0.1836498 0,-0.1080292 0.081095,-0.1836497 0.081095,-0.07562 0.1969465,-0.07562 0.11585,0 0.1969451,0.07562 0.08109,0.075621 0.08109,0.1836497 z m 1.4828987,0.5185405 0,0.6049639 -2.0389821,0 0,-0.2592703 0.4634019,-0.432117 0.2317049,0.2160585 0.7414483,-0.6913873 z m 0.139024,-0.9506575 -2.3170267,0 q -0.018826,0 -0.032583,0.012834 -0.013757,0.012823 -0.013757,0.030378 l 0,1.6420449 q 0,0.017566 0.013758,0.030382 0.013756,0.012829 0.032582,0.012829 l 2.3170267,0 q 0.01881,0 0.03258,-0.012834 0.01376,-0.012823 0.01376,-0.030378 l 0,-1.6420449 q 0,-0.017544 -0.01376,-0.030382 -0.01375,-0.012829 -0.03258,-0.012829 z m 0.231705,0.043211 0,1.6420449 q 0,0.089124 -0.06806,0.1525913 -0.06806,0.063467 -0.163642,0.063467 l -2.3170265,0 q -0.095577,0 -0.1636388,-0.063467 -0.068062,-0.063467 -0.068062,-0.1525913 l 0,-1.6420449 q 0,-0.089124 0.068062,-0.1525913 0.068062,-0.063467 0.1636388,-0.063467 l 2.3170265,0 q 0.09558,0 0.163642,0.063467 0.06806,0.063467 0.06806,0.1525913 z"/><path d="m 8.2515964,11.20937 c 0.2815739,0.175014 1.1676549,0.66213 2.0725346,1.739599 0.817999,-0.33423 1.600915,-0.653431 2.377526,-0.970093 -0.352194,-0.86475 -0.08478,-1.348129 -0.43533,-2.2070484 -0.239359,-0.586146 -0.442405,-0.642738 -0.831337,-0.662802 l 0.122832,0.30288 c 0.07476,0.18234 -0.200952,0.293484 -0.27447,0.112164 L 11.17306,9.2544116 C 11.08364,9.0342418 10.796217,9.0904376 10.544697,9.0889676 l 0.149568,0.366798 c 0.07396,0.181518 -0.200532,0.294306 -0.27489,0.112164 L 10.289889,9.2497736 C 10.197979,9.0248218 9.8984418,9.0897896 9.6448578,9.0941516 l 0.15834,0.388326 c 0.07476,0.183192 -0.201354,0.29346 -0.274896,0.112614 L 8.8853403,8.0219864 C 8.6856543,7.5327759 7.9278061,7.8226962 8.1341943,8.3288267 l 0.94836,2.3249003 C 8.9438523,10.561399 8.6881683,10.447363 8.5135323,10.406395 7.9729142,10.278157 7.6253518,10.819993 8.2515964,11.20937 Z"/></g></svg>