<svg aria-labelledby="camera" role="img" focusable="false" aria-hidden="true" xmlns="http://www.w3.org/2000/svg" viewBox="0 0 14 14"><path d="m 12.503106,4.03105 -3.087752,0 -0.09237,-0.72049 c 0,-0.41163 -0.333714,-0.74534 -0.745341,-0.74534 l -3.180124,0 c -0.411628,0 -0.745342,0.33372 -0.745342,0.74534 l -0.09237,0.72049 -3.062907,0 C 1.22246,4.03105 1,4.24109 1,4.51553 l 0,6.40993 c 0,0.27444 0.22246,0.50932 0.496894,0.50932 l 11.006212,0 C 12.77754,11.43478 13,11.1999 13,10.92546 L 13,4.51553 C 13,4.24109 12.77754,4.03105 12.503106,4.03105 Z M 7.00236,10.77794 c -1.687652,0 -3.055751,-1.3681 -3.055751,-3.05573 0,-1.68765 1.368099,-3.05574 3.055751,-3.05574 1.687652,0 3.055752,1.3681 3.055752,3.05574 0,1.6876 -1.3681,3.05573 -3.055752,3.05573 z m 5.426211,-5.43012 -2.608695,0 0,-0.77017 2.608695,0 0,0.77017 z M 8.876472,7.71575 A 1.8687454,1.8687454 0 0 1 7.007727,9.58449 1.8687454,1.8687454 0 0 1 5.138981,7.71575 1.8687454,1.8687454 0 0 1 7.007727,5.84701 1.8687454,1.8687454 0 0 1 8.876472,7.71575 Z"/></svg>