<svg role="img" focusable="false" aria-hidden="true" xmlns="http://www.w3.org/2000/svg" viewBox="0 0 14 14"><path d="M5.0856173 12.9366c-.3486478-.031-.3695398-.073-.3706106-.7495-.0005063-.3239.013364-.5883.030837-.5875.017473 0 .073149.032.1237245.071.1557202.1178.1754786.081.1416525-.262-.018127-.184-.01413-.3314.00897-.3312.022909 0 .1359394.075.2511821.167.1152428.092.2324888.1592.2605466.1501.028058-.01.092944-.1002.1441909-.2025.074059-.1479.093161-.2833.093102-.6598-.0000469-.432-.013204-.5018-.1491551-.7929-.2609382-.5587-.7719765-1.0035-1.2854591-1.1188-.1783703-.04-.1927555-.035-.2386118.082-.026838.068-.062417.2029-.079066.2989-.023515.1354-.047721.1682-.1085121.1466-.1673244-.059-.6771601-.4532-.8422993-.6507-.095521-.1143-.3776376-.3427-.6269253-.5075-.972543-.6431-1.356004-1.1633-1.4217785-1.9287-.0319828-.3721-.0288863-.3899.087067-.4985.3831014-.3587 1.0461983-.6532 2.0387982-.9054.1728135-.044.5157731-.1969.7816395-.3487.4635626-.2647.5723228-.3198 1.0303433-.522.1237593-.055.3210513-.1422.4384267-.1944.278811-.1243 1.1201391-.3665 1.5757859-.4537.198057-.038.3646871-.073.3702896-.08.0056-.01.077672-.2561.1601557-.5558.082484-.2996.1812979-.5871.2195865-.639.069028-.093.071479-.093.2908414.024.154968.083.2815365.2067.4225931.414l.2013678.2961.116886-.3671c.2175855-.6835.502293-1.1962.6642435-1.1962.08489 0 .8449887.3951 1.0555737.5486.532467.3883 1.209294 1.1972 1.560803 1.8655.126723.2409.157114.2664.443861.3722.169303.062.355787.1322.414409.1549.106243.041.106589.045.106589 1.1287 0 1.0726-.0017 1.0915-.12666 1.3866-.232371.5489-.600318.9983-1.018859 1.2443l-.157215.092.07105-.097c.03908-.053.150885-.2017.248449-.3292.440657-.576.680333-1.3286.638909-2.0062-.04119-.674-.103081-.663-.129405.023-.02215.5771-.03372.6375-.17819.9307-.198536.4028-.625768.8087-1.088477 1.0339l-.340579.1658-.0017.4444c-.003.7945-.187064 1.7008-.453262 2.2321-.370672.74-1.2525565 1.6224-1.892281 1.8936-.2572424.1089-1.5319648.5417-1.9433331.6597-.3271777.094-1.0437014.2022-1.2304315.186-.052792-.01-.191877-.016-.3090754-.027zm1.7790317-1.7412c.2631225-.3454.525903-.8283.6657596-1.2233.058286-.1646.054976-.1993-.03624-.379-.2403536-.4735-.5921137-.9514-.9442447-1.2826-.4060796-.382-.7066256-.5738-1.2699659-.8104l-.3602291-.1513-.1193092-.3031c-.2237739-.5687-.5244604-1.0776-.8224103-1.3922-.1749309-.1846-.3298677-.3073-.3858694-.3056-.051465 0-.2532384.05-.448383.1066l-.3548106.1037-.031046.2177c-.043325.3039-.1404599.4694-.4264293.7265l-.2472776.2223.084828.151c.2459464.4378.7582454.7107 2.3243587 1.2384 1.2734683.4292 1.8157801.7127 2.2085708 1.1548.201564.2269.3703215.5363.372168.6825.0018.1435-.2770215.9571-.4608225 1.3446-.097384.2053-.1853737.3924-.1955325.4159-.024645.057.2660167-.279.4468849-.5165zM4.0078162 7.3032c-.070777-.029-.079287-.2348-.011417-.2767.0929-.058.2364374.028.2364374.1404 0 .085-.1015958.1904-.1578343.164-.00439-.01-.034615-.014-.067184-.028zm-.8783321-.235c-.062738-.063-.033922-.2444.043483-.2741.1049861-.041.2148577.06.1976128.1811-.014006.098-.1742377.1599-.2410956.093zm.5532902-.5592c-.047167-.123.018944-.2246.135342-.208.078293.011.1067989.047.1067989.1336 0 .087-.028505.1224-.1067989.1335-.06406.01-.1182202-.014-.135342-.059zm3.3286625-.3345c.2923503-.087.6044696-.3069.7015462-.4946.1013741-.196.093633-.2233-.081202-.2865-.6719103-.2424-1.5550375-.082-1.9839973.3607-.1429286.1474-.1492301.1663-.078902.2367.2247188.2247.9804003.3209 1.4425548.1837zm-.8955626-.2214c-.1656694-.061-.1636512-.098.013316-.2468.2730765-.2298.6905955-.2792 1.0355891-.1227.2032766.092.2060955.097.1229314.1884-.1118381.1236-.16671.1191-.1527758-.013.00895-.084-.015712-.1097-.1189886-.1216-.094435-.01-.1302731.01-.1302731.062 0 .042-.052325.1287-.116277.1927-.12681.1268-.4030725.1527-.65352.062zm5.0265688.1778c.298488-.1884.406831-.4981.407607-1.1649.00075-.631-.08427-.9363-.415454-1.4922-.210649-.3536-.76705-.9419-1.13224-1.1972l-.2217484-.1551-.1241865.212c-.1948072.3324-.342624.7663-.4441402 1.3036l-.093498.4949.4111942.4303c.444684.4653.8452369.9784 1.1010349 1.4104.182411.308.243937.327.511431.1582zm-.08803-.5381c-.232397-.074-.406386-.1917-.526599-.3576-.174391-.2408-.171689-.2848.02176-.3548.08833-.032.182608-.1105.213175-.1775.08496-.1865.06561-.656-.03934-.9545-.05178-.1474-.08747-.2746-.07931-.2827.03509-.035.412048.6977.501666.9752.166212.5147.110607 1.2158-.09136 1.1519zm.238254 5.6683c.49419-.5742 1.295816-1.7104 1.567087-2.2211l.11323-.2132.01347.4832c.01134.4065.000093.4995-.07105.5866-.363772.4457-.781327.8816-1.091274 1.1392-.345216.2869-.734376.5623-.794599.5623-.0148 0 .103608-.1517.263141-.337zm1.557473-.1227c.11969-.2095.145038-.2324.145803-.132.000375.053-.04318.1226-.09684.1562-.0879.055-.09275.053-.04896-.024zm-1.41675-1.7883c0-.013.157709-.2247.350463-.4713.396016-.5065.819679-1.1724 1.040316-1.6349l.148815-.3119.01351.5154.01351.5156-.250371.2896c-.313755.363-.436929.485-.702285.6956-.242962.1928-.613956.4357-.613956.4019z"/></svg>