<svg xmlns="http://www.w3.org/2000/svg" id="libre-align-left" viewBox="0 0 14 14"><path d="m 13,10.428575 v 0.85714 q 0,0.17411 -0.12723,0.30134 -0.12723,0.12723 -0.30134,0.12723 H 1.428571 q -0.174107,0 -0.301339,-0.12723 Q 1,11.459825 1,11.285715 v -0.85714 q 0,-0.17411 0.127232,-0.30134 0.127232,-0.12724 0.301339,-0.12724 H 12.57143 q 0.17411,0 0.30134,0.12724 Q 13,10.254465 13,10.428575 z m -2.57143,-2.57143 v 0.85714 q 0,0.17411 -0.12723,0.30134 Q 10.17411,9.142855 10,9.142855 H 1.428571 q -0.174107,0 -0.301339,-0.12723 Q 1,8.888395 1,8.714285 V 7.857145 Q 1,7.683035 1.127232,7.555805 1.254464,7.428575 1.428571,7.428575 H 10 q 0.17411,0 0.30134,0.12723 0.12723,0.12723 0.12723,0.30134 z m 1.71429,-2.57143 v 0.85714 q 0,0.17411 -0.12723,0.30134 -0.12724,0.12723 -0.30134,0.12723 H 1.428571 q -0.174107,0 -0.301339,-0.12723 Q 1,6.316965 1,6.142855 V 5.285715 Q 1,5.111605 1.127232,4.984375 1.254464,4.857145 1.428571,4.857145 H 11.71429 q 0.1741,0 0.30134,0.12723 0.12723,0.12723 0.12723,0.30134 z M 9.57143,2.714285 v 0.85714 q 0,0.17411 -0.12723,0.30134 -0.12724,0.12723 -0.30134,0.12723 H 1.428571 q -0.174107,0 -0.301339,-0.12723 Q 1,3.745535 1,3.571425 V 2.714285 Q 1,2.540175 1.127232,2.412945 1.254464,2.285715 1.428571,2.285715 H 9.14286 q 0.1741,0 0.30134,0.12723 0.12723,0.12723 0.12723,0.30134 z"/></svg>