<svg xmlns="http://www.w3.org/2000/svg" viewBox="0 0 14 14" id="libre-action-delete"><path d="m 14,12.828285 q 0,0.20202 -0.141415,0.34343 l -0.68687,0.68687 Q 13.030305,14 12.828285,14 12.626265,14 12.48485,13.858585 L 11,12.373735 9.51515,13.858585 Q 9.373735,14 9.171715,14 8.969695,14 8.828285,13.858585 l -0.68687,-0.68687 Q 8,13.030305 8,12.828285 8,12.626265 8.141415,12.48485 L 9.626265,11 8.141415,9.51515 Q 8,9.373735 8,9.171715 8,8.969695 8.141415,8.828285 l 0.68687,-0.68687 Q 8.969695,8 9.171715,8 9.373735,8 9.51515,8.141415 L 11,9.626265 12.48485,8.141415 Q 12.626265,8 12.828285,8 q 0.20202,0 0.34343,0.141415 l 0.68687,0.68687 Q 14,8.969695 14,9.171715 14,9.373735 13.858585,9.51515 L 12.373735,11 l 1.48485,1.48485 Q 14,12.626265 14,12.828285 Z"/></svg>