<svg role="img" focusable="false" aria-hidden="true" xmlns="http://www.w3.org/2000/svg" viewBox="0 0 14 14"><path d="m 9.4146827,3.4683 0,-1.7198 -8.41468995,0 0,1.7198 3.19389995,0 0,8.7832 2.02689,0 0,-8.7832 3.1939,0 m 3.2817903,7.048 c 0.14907,0 0.24394,0.042 0.28459,0.1254 0.0407,0.084 0.0158,0.1841 -0.0745,0.3015 l -0.8538,1.0978 c -0.0904,0.1174 -0.20102,0.1761 -0.33203,0.1761 -0.131,0 -0.24168,-0.059 -0.33203,-0.1761 l -0.85379,-1.0978 c -0.0904,-0.1174 -0.1152,-0.2179 -0.0745,-0.3015 0.0407,-0.084 0.13552,-0.1254 0.2846,-0.1254 l 0.54209,0 0,-6.9387 -0.54209,0 c -0.14908,0 -0.24394,-0.042 -0.2846,-0.1254 -0.0407,-0.084 -0.0158,-0.1841 0.0745,-0.3015 l 0.85379,-1.0978 c 0.0904,-0.1174 0.20103,-0.1761 0.33203,-0.1761 0.13101,0 0.24168,0.059 0.33203,0.1761 l 0.8538,1.0978 c 0.0903,0.1174 0.11519,0.2179 0.0745,0.3015 -0.0406,0.084 -0.13552,0.1254 -0.28459,0.1254 l -0.54209,0 0,6.9387 z"/></svg>