<svg xmlns="http://www.w3.org/2000/svg" id="libre-file-video" viewBox="0 0 14 14"><path d="m 11.687505,3.544643 q 0.1875,0.1875 0.32143,0.508928 0.13392,0.321429 0.13392,0.589286 v 7.714286 q 0,0.267857 -0.1875,0.455357 Q 11.767855,13 11.500005,13 h -9 q -0.26786,0 -0.45536,-0.1875 -0.1875,-0.1875 -0.1875,-0.455357 V 1.642857 Q 1.857145,1.375 2.044645,1.1875 2.232145,1 2.500005,1 h 6 q 0.26785,0 0.58928,0.133928 0.32143,0.133929 0.50893,0.321429 z M 8.714285,1.910714 v 2.517857 h 2.51786 q -0.067,-0.194196 -0.14732,-0.274553 L 8.988845,2.058035 q -0.0804,-0.08036 -0.27456,-0.147321 z m 2.57143,10.232143 V 5.285714 h -2.78571 q -0.26786,0 -0.45536,-0.1875 -0.1875,-0.1875 -0.1875,-0.455357 V 1.857143 h -5.14286 v 10.285714 h 8.57143 z m -4.28571,-6 q 0.34821,0 0.60268,0.254464 Q 7.857145,6.651786 7.857145,7 v 2.571429 q 0,0.348214 -0.25446,0.602678 -0.25447,0.254464 -0.60268,0.254464 h -2.57143 q -0.34822,0 -0.60268,-0.254464 Q 3.571435,9.919643 3.571435,9.571429 V 7 q 0,-0.348214 0.25446,-0.602679 0.25446,-0.254464 0.60268,-0.254464 h 2.57143 z m 3.29464,0.01339 q 0.13393,0.05357 0.13393,0.200893 v 3.857143 q 0,0.147321 -0.13393,0.200893 -0.0536,0.01339 -0.0804,0.01339 -0.0937,0 -0.15402,-0.06027 L 8.285675,8.587047 V 7.984368 l 1.77455,-1.78125 q 0.0603,-0.06027 0.15402,-0.06027 0.0268,0 0.0804,0.01339 z"/></svg>