<svg aria-labelledby="map-library" role="img" focusable="false" aria-hidden="true" xmlns="http://www.w3.org/2000/svg" viewBox="0 0 14 14"><path d="M 3.2215402,1.8050722 C 3.0513829,1.8119322 2.8821998,1.8459542 2.7142857,1.910541 l 0,6.8571429 c 0,0 2.7321429,-0.1071429 3.4285714,2.5714281 l 0,-7.2003344 C 5.6114371,3.0196931 4.4126415,1.757074 3.2215402,1.8050722 Z M 6.1428571,11.339112 C 4.375,9.9730413 1.8571429,9.6248263 1.8571429,9.6248263 l 0,-6.5139505 L 1,2.7676839 l 0,7.7142851 5.1428571,1.714286 1.7142858,0 L 13,10.481969 l 0,-7.7142851 -0.857143,0.3431919 0,6.8571435 -4.2857141,1.3710927 c -0.5714289,-0.218297 -1.2375592,-0.179454 -1.7142858,0 z M 11.285714,1.910541 C 9.57784,1.8192121 7.6062611,2.844554 6.5714286,3.7269472 l 0,7.2555798 C 7.5269467,10.189979 9.240214,9.1471504 11.285714,8.938443 Z"/></svg>