<svg role="img" focusable="false" aria-hidden="true" xmlns="http://www.w3.org/2000/svg" viewBox="0 0 14 14"><path d="m 8.7585538,12.99998 -5.822971,0 c 0.2609987,-1.5175 0.4484977,-3.0810003 -0.210999,-4.0140003 -0.8329959,-1.1785 -1.214994,-2.371 -1.224494,-3.4415 -0.0225,-2.595 2.1154896,-4.5569 5.1014748,-4.5444 3.6179824,0.015 4.6639764,3.0779 4.8864754,3.9714 0.17,0.6845 -0.448997,0.9345 -0.083,1.351 0.297999,0.3395 0.517498,0.682 0.894496,1.0885 0.145999,0.1575 0.202499,0.323 0.200499,0.4715 -0.003,0.217 -0.145499,0.399 -0.373998,0.479 -0.214499,0.075 -0.379998,0.16 -0.607497,0.2215 -0.0725,0.58 -0.260499,1.286 -0.398998,1.7785003 -0.368498,1.31 -1.4479931,0.5295 -1.9404906,1.3035 -0.212999,0.334 -0.3199984,0.869 -0.4204976,1.335 z M 6.6120646,8.8419797 c 0.0585,-5e-4 0.1149994,-0.02 0.1534992,-0.054 l 0.2969984,-0.1955 -1.1249943,0 0.2969985,0.1955 c 0.0385,0.034 0.095,0.054 0.1539992,0.054 z m 0.4609976,-0.5 c 0.069,-5e-4 0.1249994,-0.056 0.1249994,-0.125 0,-0.069 -0.056,-0.125 -0.1249994,-0.125 l -1.1394943,0 c -0.069,0 -0.1249994,0.056 -0.1249994,0.125 0,0.069 0.056,0.125 0.1249994,0.125 z m 0.1234994,-0.5 c 0,-1.0015 0.803496,-1.415 0.803496,-2.307 0,-0.93 -0.7504963,-1.443 -1.5004925,-1.443 -0.7499963,0 -1.4994926,0.512 -1.4994926,1.443 0,0.892 0.803496,1.3195 0.803496,2.307 z"/></svg>