<svg xmlns="http://www.w3.org/2000/svg" id="libre-email-send" viewBox="0 0 14 14"><g transform="matrix(0.3772935,0,0,0.3772935,1.0001033,1.2997692)"><path d="M 1.285,11.671 C 0.6,11.934 0.114,12.55 0.017,13.277 c -0.096,0.728 0.213,1.449 0.806,1.88 L 7.315,19.881 30.374,1.74 9.985,21.826 18.86,28.284 c 0.565,0.411 1.293,0.534 1.964,0.33 0.67,-0.204 1.204,-0.712 1.444,-1.368 L 31.762,1.261 C 31.858,0.997 31.791,0.702 31.591,0.505 31.391,0.308 31.096,0.246 30.833,0.347 L 1.285,11.671 z"/><path d="m 5.774,21.451 0.055,0.301 1.26,6.889 c 0.094,0.512 0.436,0.941 0.912,1.148 0.476,0.206 1.025,0.162 1.461,-0.119 1.755,-1.132 4.047,-2.634 3.985,-2.722 L 5.774,21.451 z"/></g></svg>