<svg xmlns="http://www.w3.org/2000/svg" id="libre-picture-circle" viewBox="0 0 14 14"><g transform="matrix(0.00648649,0,0,0.00648649,0.34034537,0.32442854)"><path d="m 683.09091,683.09094 c 0,56.81818 -19.88635,105.11363 -59.6591,144.88635 -39.77271,39.77274 -88.06816,59.6591 -144.88636,59.6591 -56.81818,0 -105.11364,-19.88636 -144.88636,-59.6591 C 293.88636,788.20457 274,739.90912 274,683.09094 c 0,-56.81819 19.88636,-105.11366 59.65909,-144.88637 39.77272,-39.77274 88.06818,-59.6591 144.88636,-59.6591 56.8182,0 105.11365,19.88636 144.88636,59.6591 39.77274,39.77271 59.6591,88.06818 59.6591,144.88637 z M 1774,1092.1819 l 0,477.2726 -1500,0 0,-204.5454 340.90908,-340.9092 170.45456,170.4547 L 1330.8181,649 z"/><path d="m 1026.7056,104.15761 c -510.07777,0 -925.02564,414.90643 -925.02564,924.98419 0,510.0778 414.94787,925.0257 925.02564,925.0257 510.0778,0 924.9842,-414.9479 924.9842,-925.0257 0,-510.07776 -414.9064,-924.98419 -924.9842,-924.98419 z m 0,132.64988 c 438.3885,0 792.3343,353.94588 792.3343,792.33431 0,438.3885 -353.9458,792.3757 -792.3343,792.3758 -438.38844,0 -792.37576,-353.9873 -792.37576,-792.3758 0,-438.38843 353.98732,-792.33431 792.37576,-792.33431 z"/><path d="m 1024,224 c -441.5368,0 -800,358.46312 -800,800 0,441.5368 358.4632,800 800,800 441.5369,0 800,-358.4632 800,-800 0,-441.53688 -358.4631,-800 -800,-800 z m 0,49.125 c 414.9813,0 750.875,335.89364 750.875,750.875 0,414.9812 -335.8937,750.875 -750.875,750.875 -414.98128,0 -750.875,-335.8938 -750.875,-750.875 0,-414.98136 335.89374,-750.875 750.875,-750.875 z"/></g></svg>