<svg xmlns="http://www.w3.org/2000/svg" viewBox="0 0 14 14" id="libre-wysiwyg-code"><path d="m 4.750805,9.878685 -0.32787,0.32787 q -0.0656,0.0656 -0.15082,0.0656 -0.0852,0 -0.15082,-0.0656 L 1.065559,7.150815 q -0.065574,-0.0656 -0.065574,-0.15082 0,-0.0853 0.06557,-0.15082 l 3.055736,-3.05574 q 0.0656,-0.0656 0.15082,-0.0656 0.0853,0 0.15082,0.0656 l 0.32787,0.32787 q 0.0656,0.0656 0.0656,0.15082 0,0.0852 -0.0656,0.15082 l -2.57705,2.57705 2.57705,2.57705 q 0.0656,0.0656 0.0656,0.15082 0,0.0852 -0.0656,0.15082 z m 3.87541,-6.99672 -2.4459,8.46557 q -0.0262,0.0853 -0.10164,0.12787 -0.0754,0.0426 -0.1541,0.0164 l -0.40656,-0.11147 q -0.0852,-0.0262 -0.12787,-0.10164 -0.0426,-0.0754 -0.0164,-0.16066 l 2.4459,-8.46557 q 0.0262,-0.0853 0.10164,-0.12787 0.0754,-0.0426 0.1541,-0.0164 l 0.40656,0.11147 q 0.0852,0.0262 0.12787,0.10164 0.0426,0.0754 0.0164,0.16066 z m 4.3082,4.26885 -3.05574,3.05574 q -0.0656,0.0656 -0.15082,0.0656 -0.0853,0 -0.15082,-0.0656 l -0.32787,-0.32787 q -0.0656,-0.0656 -0.0656,-0.15082 0,-0.0853 0.0656,-0.15082 l 2.57705,-2.57705 -2.57705,-2.57705 q -0.0656,-0.0656 -0.0656,-0.15082 0,-0.0852 0.0656,-0.15082 l 0.32787,-0.32787 q 0.0656,-0.0656 0.15082,-0.0656 0.0852,0 0.15082,0.0656 l 3.05574,3.05574 q 0.0656,0.0656 0.0656,0.15082 0,0.0852 -0.0656,0.15082 z"/></svg>