<svg role="img" focusable="false" aria-hidden="true" xmlns="http://www.w3.org/2000/svg" viewBox="0 0 14 14"><path d="m 12.585713,1.0141078 c -0.134979,-0.022496 -0.284956,0.0037 -0.374942,0.09374 l -3.5994452,2.643342 c 0,0 -0.1762228,0.05999 -0.356195,0 -0.1199815,-0.05999 -0.2887055,-0.116232 -0.4686777,-0.05624 -0.479926,0.05999 -0.8473693,0.476177 -0.7873786,0.956103 0.059991,0.479926 0.4761766,0.847369 0.9561025,0.787379 0.479926,-0.05999 0.9073601,-0.476177 0.7873786,-0.956103 -0.059991,-0.179972 0.1124826,-0.299954 0.1124826,-0.299954 l 1.7434808,-0.993596 c 0.982659,0.416879 1.55601,0.976165 1.55601,1.406033 0,0.83987 -1.979694,2.099676 -5.0992131,2.099676 -3.1195188,0 -5.1554547,-1.259806 -5.1554547,-2.099676 0,-0.839871 1.9796946,-2.099676 5.0992133,-2.099676 0.719889,0 1.3122976,0.06749 1.912205,0.187471 L 9.698658,1.9514628 C 8.9187784,1.7114998 7.9589265,1.5952678 6.9990745,1.5952678 c -3.299491,0 -5.99907453,1.319797 -5.99907453,2.999538 l 0,5.399167 c 0,0.6598982 0.41993523,1.3197962 1.19981493,1.7997222 l 0,-5.3991672 c 0.3412833,0.227082 0.7456698,0.430095 1.1998149,0.599907 l 0,5.3991682 c 0.8398705,0.299953 1.8597131,0.539916 2.9995373,0.599907 l 0,-5.3991672 c -0.2072938,-0.01091 -0.400911,-0.03703 -0.5999075,-0.05624 0.3895883,0.03937 0.7873786,0.05624 1.1998149,0.05624 0.4124364,0 0.8102266,-0.01687 1.1998149,-0.05624 -0.1989965,0.01921 -0.3926136,0.04533 -0.5999074,0.05624 l 0,5.3991672 c 1.1398242,-0.05999 2.159667,-0.299954 2.999537,-0.599907 l 0,-5.3991682 c 0.454145,-0.169812 0.858532,-0.372825 1.199815,-0.599907 l 0,5.3991672 c 0.77988,-0.479926 1.199815,-1.139824 1.199815,-1.7997222 l 0,-5.399167 c 0,-0.734887 -0.542143,-1.427241 -1.443527,-1.9497 l 1.199815,-0.693643 c 0.239963,-0.119981 0.307452,-0.472427 0.187471,-0.71239 -0.08999,-0.119981 -0.221216,-0.202468 -0.356195,-0.224965 z m -8.9048766,6.09281 c 0.3084276,0.101552 0.6490743,0.190403 0.9935968,0.26246 0.1792692,0.03749 0.3561218,0.06491 0.5436661,0.09373 -0.1838626,-0.0273 -0.3689133,-0.05733 -0.5436661,-0.09373 -0.350049,-0.07293 -0.6840404,-0.149043 -0.9935968,-0.26246 z m 6.6364766,0 c -0.309557,0.113417 -0.643548,0.189535 -0.993597,0.26246 -0.174753,0.0364 -0.3598036,0.06644 -0.5436662,0.09373 0.1875443,-0.02882 0.3643972,-0.05624 0.5436662,-0.09373 0.344523,-0.07206 0.685169,-0.160908 0.993597,-0.26246 z"/></svg>