<svg role="img" focusable="false" aria-hidden="true" xmlns="http://www.w3.org/2000/svg" viewBox="0 0 14 14"><path d="m 6.5425779,11.8524 c -1.17674,0.4136 -2.14677,-0.0607 -1.95214,-1.19067 0.19458,-1.1303397 1.31122,-3.5501997 1.47053,-4.0076497 0.15917,-0.4576 -0.14609,-0.58307 -0.4733,-0.39694 -0.1887,0.10891 -0.46914,0.32712 -0.70997,0.53916 -0.0667,-0.13435 -0.16065,-0.28802 -0.23114,-0.43516 0.39288,-0.39374 1.04964,-0.92159 1.8272,-1.11283 0.92889,-0.22933 2.48151,0.13721 1.81421,1.91281 -0.4765,1.26555 -0.81349,2.13889 -1.02587,2.78926 -0.21219,0.6505997 0.0399,0.7869997 0.41144,0.5335297 0.29022,-0.19816 0.59954,-0.46772 0.82619,-0.6768597 0.10485,0.17043 0.1384,0.2247897 0.24211,0.4206097 -0.3935,0.40334 -1.42281,1.34717 -2.19926,1.62474 z m 2.43804,-7.8285997 c -0.53372,0.4543 -1.32483,0.44442 -1.76735,-0.0222 -0.44247,-0.46638 -0.36863,-1.21277 0.16494,-1.66722 0.53372,-0.45425 1.32493,-0.44442 1.76735,0.022 0.44242,0.46657 0.36863,1.21305 -0.16494,1.6675 z"/></svg>