<svg aria-labelledby="gui-print" role="img" focusable="false" aria-hidden="true" xmlns="http://www.w3.org/2000/svg" viewBox="0 0 14 14"><path d="m 3.76923,11.615385 h 6.46154 V 9.769235 H 3.76923 v 1.84615 z m 0,-4.61538 h 6.46154 V 4.230775 H 9.07692 q -0.28846,0 -0.49038,-0.20193 Q 8.38462,3.826925 8.38462,3.538465 V 2.384615 H 3.76923 v 4.61539 z m 8.30769,0.46154 q 0,-0.1875 -0.13702,-0.32452 -0.13702,-0.13702 -0.32452,-0.13702 -0.1875,0 -0.32451,0.13702 -0.13702,0.13702 -0.13702,0.32452 0,0.1875 0.13702,0.32452 0.13701,0.13702 0.32451,0.13702 0.1875,0 0.32452,-0.13702 0.13702,-0.13702 0.13702,-0.32452 z m 0.92308,0 v 3 q 0,0.0937 -0.0685,0.16226 -0.0685,0.0685 -0.16226,0.0685 h -1.61538 v 1.15384 q 0,0.28846 -0.20193,0.49039 -0.20192,0.20192 -0.49038,0.20192 H 3.53847 q -0.28846,0 -0.49038,-0.20192 -0.20193,-0.20193 -0.20193,-0.49039 v -1.15384 H 1.230779 q -0.09375,0 -0.162259,-0.0685 Q 1,10.555295 1,10.461545 v -3 Q 1,6.891825 1.407452,6.484375 1.814904,6.076925 2.38462,6.076925 h 0.46153 v -3.92308 q 0,-0.28846 0.20193,-0.49038 Q 3.25,1.461545 3.53846,1.461545 h 4.84616 q 0.28846,0 0.63461,0.14423 0.34615,0.14423 0.54808,0.34615 l 1.09615,1.09616 q 0.20192,0.20192 0.34616,0.54807 0.14423,0.34616 0.14423,0.63462 v 1.84615 h 0.46153 q 0.56972,0 0.97717,0.40745 Q 13,6.891825 13,7.461545 z"/></svg>