<svg xmlns="http://www.w3.org/2000/svg" id="libre-brand-deviantart" viewBox="0 0 14 14"><path d="M 11.91406,1 Q 12.36719,1 12.68359,1.316406 13,1.632813 13,2.085938 v 9.828124 q 0,0.453125 -0.31641,0.769532 Q 12.36719,13 11.91406,13 H 2.08594 Q 1.632812,13 1.316406,12.683594 1,12.367187 1,11.914062 V 2.085938 Q 1,1.632813 1.316406,1.316406 1.632812,1 2.08594,1 h 9.82812 z m 0.53125,10.914062 V 2.085938 q 0,-0.218751 -0.15625,-0.375 -0.15625,-0.156251 -0.375,-0.156251 H 2.08594 q -0.218752,0 -0.375003,0.156251 -0.15625,0.156249 -0.15625,0.375 v 9.828124 q 0,0.218751 0.15625,0.375 0.156251,0.156251 0.375003,0.156251 h 9.82812 q 0.21875,0 0.375,-0.156251 0.15625,-0.156249 0.15625,-0.375 z M 6.42188,6.148437 7.89063,9.171875 12.05469,8.039062 v 3.875 q 0,0.05469 -0.043,0.09766 -0.043,0.04297 -0.0977,0.04297 H 2.08587 q -0.0547,0 -0.09766,-0.04297 -0.04297,-0.04297 -0.04297,-0.09766 V 10.8125 L 7.499927,9.289062 5.843677,5.859375 q 0.0312,-0.0078 0.0937,-0.01953 0.0625,-0.01172 0.0937,-0.01172 1.32812,-0.25 2.37109,-0.167968 1.04297,0.08203 1.72657,0.359374 0.68359,0.277344 1.12109,0.738282 0.21094,0.218749 -0.19531,0.328125 -0.5,0.124999 -2,0.484375 L 8.296707,6.023437 q -0.86719,-0.05469 -1.875,0.125 z m 5.49218,-4.203124 q 0.0547,0 0.0977,0.04297 0.043,0.04297 0.043,0.09766 v 3.34375 Q 11.39069,5.195317 10.58601,5.023442 8.28913,4.523442 5.54694,4.929692 L 5.40632,4.953132 4.89851,3.906257 H 3.07819 L 3.74226,5.390632 Q 2.71101,5.789069 1.945383,6.460944 V 2.085945 q 0,-0.05469 0.04297,-0.09766 0.04297,-0.04297 0.09766,-0.04297 h 9.82812 z M 3.23438,8.976563 Q 3.125,9.000003 3.03125,8.941403 2.93755,8.882813 2.92187,8.773434 2.73437,7.187497 4.21875,6.390622 L 5.22656,8.5 z"/></svg>