<svg xmlns="http://www.w3.org/2000/svg" id="libre-brand-open-source" viewBox="0 0 14 14"><path d="M 3.25 1 C 2.6302067 1 2.0963527 1.216146 1.65625 1.65625 C 1.216146 2.0963547 1 2.6302087 1 3.25 L 1 10.75 C 1 11.369791 1.216146 11.903645 1.65625 12.34375 C 2.0963527 12.783854 2.6302067 13 3.25 13 L 10.75 13 C 11.369793 13 11.90365 12.783854 12.34375 12.34375 C 12.783857 11.903645 13 11.369791 13 10.75 L 13 3.25 C 13 2.6302087 12.783857 2.0963547 12.34375 1.65625 C 11.90365 1.216146 11.369793 1 10.75 1 L 3.25 1 z M 7 2.15625 C 7.373624 2.15625 7.7357365 2.19977 7.96875 2.25 C 8.985713 2.46924 9.7933326 2.88708 10.53125 3.625 C 11.269168 4.36292 11.718266 5.17054 11.9375 6.1875 C 12.03696 6.64888 12.03614 7.6684 11.9375 8.125 C 11.664752 9.38812 10.969764 10.44529 9.96875 11.1875 C 9.62505 11.44233 8.793626 11.89436 8.75 11.84375 C 8.72375 11.81325 7.658793 8.97298 7.625 8.84375 C 7.61243 8.79565 7.663755 8.73162 7.8125 8.65625 C 8.336247 8.39085 8.71875 7.76931 8.71875 7.15625 C 8.71875 6.3304 8.106141 5.6102 7.28125 5.46875 C 6.249827 5.29188 5.28125 6.10832 5.28125 7.15625 C 5.28125 7.76931 5.663753 8.39085 6.1875 8.65625 C 6.336242 8.73165 6.387569 8.79569 6.375 8.84375 C 6.34121 8.97298 5.276256 11.81329 5.25 11.84375 C 5.23532 11.86075 5.020433 11.77599 4.78125 11.65625 C 3.370599 10.95007 2.402702 9.70051 2.0625 8.125 C 1.96391 7.6684 1.96308 6.64888 2.0625 6.1875 C 2.281734 5.17054 2.730832 4.36292 3.46875 3.625 C 4.206667 2.88708 5.014287 2.46924 6.03125 2.25 C 6.2642635 2.19977 6.626376 2.15625 7 2.15625 z "/></svg>