<svg role="img" focusable="false" aria-hidden="true" xmlns="http://www.w3.org/2000/svg" viewBox="0 0 14 14"><path d="m 6.53846,8.384615 v 2.76923 q 0,0.375 -0.27404,0.64904 -0.27404,0.27404 -0.64904,0.27404 H 1.923077 q -0.375,0 -0.649039,-0.27404 Q 1,11.528845 1,11.153845 v -2.76923 q 0,-0.375 0.274038,-0.64904 0.274039,-0.27403 0.649039,-0.27403 H 5.61538 q 0.375,0 0.64904,0.27403 0.27404,0.27404 0.27404,0.64904 z m 0,-5.53846 v 2.76923 q 0,0.375 -0.27404,0.64904 -0.27404,0.27404 -0.64904,0.27404 H 1.923077 q -0.375,0 -0.649039,-0.27404 Q 1,5.990385 1,5.615385 v -2.76923 q 0,-0.375 0.274038,-0.64904 0.274039,-0.27404 0.649039,-0.27404 H 5.61538 q 0.375,0 0.64904,0.27404 0.27404,0.27404 0.27404,0.64904 z M 13,8.384615 v 2.76923 q 0,0.375 -0.27404,0.64904 -0.27404,0.27404 -0.64904,0.27404 h -3.6923 q -0.375,0 -0.64904,-0.27404 -0.27404,-0.27404 -0.27404,-0.64904 v -2.76923 q 0,-0.375 0.27404,-0.64904 0.27404,-0.27403 0.64904,-0.27403 h 3.6923 q 0.375,0 0.64904,0.27403 Q 13,8.009615 13,8.384615 z m 0,-5.53846 v 2.76923 q 0,0.375 -0.27404,0.64904 -0.27404,0.27404 -0.64904,0.27404 h -3.6923 q -0.375,0 -0.64904,-0.27404 -0.27404,-0.27404 -0.27404,-0.64904 v -2.76923 q 0,-0.375 0.27404,-0.64904 0.27404,-0.27404 0.64904,-0.27404 h 3.6923 q 0.375,0 0.64904,0.27404 Q 13,2.471155 13,2.846155 z"/></svg>