<svg xmlns="http://www.w3.org/2000/svg" id="libre-spinner-4" viewBox="0 0 14 14"><path d="m 2.6253555,6.9727695 c 0,-0.1673359 0.00963,-0.3320367 0.027561,-0.4945413 L 0.1238087,5.653407 C 0.0428736,6.0807504 0,6.5217091 0,6.9727695 0,8.9935375 0.8500359,10.814908 2.2101809,12.096499 L 3.7724447,9.937382 C 3.0597793,9.1560421 2.624918,8.1151336 2.624918,6.9723303 z m 8.7497265,0 c 0,1.1428033 -0.434861,2.1837119 -1.147527,2.9650523 l 1.562264,2.1591162 C 13.149964,10.814908 14,8.9939767 14,6.9732087 14,6.5221483 13.957125,6.0811896 13.876191,5.6538461 l -2.529108,0.8248212 c 0.01794,0.1625048 0.02756,0.3272054 0.02756,0.4945414 z M 7.8751915,2.6685907 C 9.13209,2.9246455 10.192994,3.721797 10.807225,4.8075041 L 13.336334,3.9826829 C 12.335803,1.8494792 10.297991,0.3034885 7.8756288,4.3925e-4 V 2.66903 z M 3.1932127,4.8075041 C 3.807006,3.7222361 4.8683479,2.9250847 6.1252461,2.6685907 V 0 C 3.7028843,0.3034885 1.665073,1.8490401 0.6645417,3.9822436 l 2.528671,0.8248212 z m 5.6190745,6.1637589 c -0.5521079,0.252542 -1.1659011,0.393525 -1.8120684,0.393525 -0.6461674,0 -1.2599607,-0.140983 -1.8120685,-0.393525 L 3.6254492,13.130381 C 4.626418,13.684214 5.7765695,14 7.0002188,14 8.223868,14 9.37402,13.684214 10.374988,13.130381 L 8.8122872,10.971263 z"/></svg>