<svg xmlns="http://www.w3.org/2000/svg" id="libre-license-creative-commons" viewBox="0 0 14 14"><g transform="translate(-48.999999,49)"><path d="m 52.904612,-43.14224 c 0.354728,-0.53849 1.035932,-0.78539 1.662291,-0.70888 0.561087,0.0313 1.102252,0.34946 1.363223,0.85395 -0.267757,0.13594 -0.531437,0.27912 -0.797912,0.41765 -0.07418,-0.14686 -0.173913,-0.2864 -0.316398,-0.37372 -0.276787,-0.18222 -0.684612,-0.1336 -0.909379,0.11015 -0.202078,0.22853 -0.243757,0.54845 -0.24632,0.8419 0.0013,0.2986 0.05913,0.62038 0.268223,0.8469 0.206272,0.22159 0.546903,0.2605 0.82465,0.17345 0.220544,-0.0706 0.365855,-0.27024 0.451631,-0.47543 0.249146,0.12317 0.494767,0.25418 0.74368,0.37861 -0.274689,0.49654 -0.787515,0.85829 -1.354107,0.92415 -0.489029,0.0508 -1.015369,-0.0516 -1.401786,-0.36927 -0.330233,-0.26697 -0.522961,-0.67313 -0.582058,-1.08821 -0.07576,-0.52168 -0.0096,-1.08851 0.294262,-1.53125 z"/><path d="m 56.412748,-43.2 c 0.381436,-0.52815 1.080116,-0.73887 1.707757,-0.64217 0.528874,0.0534 1.028679,0.36739 1.274184,0.84399 -0.266126,0.13779 -0.529922,0.27937 -0.795582,0.4174 -0.0831,-0.1636 -0.201787,-0.31794 -0.368418,-0.40229 -0.311941,-0.17027 -0.754427,-0.0646 -0.936786,0.24632 -0.149185,0.24163 -0.171583,0.5359 -0.166049,0.81326 0.01089,0.28419 0.08144,0.58803 0.290855,0.79349 0.213495,0.2047 0.545854,0.23461 0.817136,0.14318 0.211194,-0.0741 0.351349,-0.26822 0.433369,-0.46849 0.250776,0.12058 0.495611,0.25322 0.744524,0.3771 -0.27367,0.49709 -0.788563,0.86178 -1.356,0.92368 -0.53566,0.0597 -1.122058,-0.0765 -1.509612,-0.46876 -0.303262,-0.29942 -0.455388,-0.72175 -0.489815,-1.14023 -0.04614,-0.4985 0.04788,-1.03008 0.354437,-1.43648 z"/><g transform="matrix(0.02912621,0,0,0.02912621,48.543689,-49.45631)"><path d="M 256,462 C 142.41,462 50,369.59 50,256 50,142.41 142.41,50 256,50 c 113.59,0 206,92.41 206,206 0,113.59 -92.41,206 -206,206 z m 0,-370.8 c -90.874,0 -164.8,73.931 -164.8,164.8 0,90.869 73.927,164.8 164.8,164.8 90.873,0 164.8,-73.931 164.8,-164.8 C 420.8,165.131 346.873,91.2 256,91.2 Z"/></g></g></svg>