<svg xmlns="http://www.w3.org/2000/svg" id="libre-os-general" viewBox="0 0 14 14"><g transform="matrix(0.71424316,0,0,0.71424316,-2.606928,-1.9798221)"><path d="M 20.037,4.172 H 6.864 c -1,0 -1.814,0.814 -1.814,1.814 V 19.16 c 0,1 0.814,1.813 1.814,1.813 h 13.173 c 1.001,0 1.814,-0.813 1.814,-1.813 V 5.986 c 0.001,-1 -0.813,-1.814 -1.814,-1.814 z M 6.864,19.16 V 8.248 H 20.037 L 20.039,19.16 H 6.864 z"/><rect x="8.0279999" y="10.266" width="6.349" height="0.80800003"/><polygon points="18.873,10.264 18.065,10.264 18.065,13.035 12.524,13.035 12.524,13.842 18.065,13.842 18.065,16.612 18.873,16.612 18.873,13.842 18.873,13.035 "/><rect x="8.7449999" y="15.914" width="6.349" height="0.80800003"/></g></svg>