<svg aria-labelledby="gui-align-center" role="img" focusable="false" aria-hidden="true" xmlns="http://www.w3.org/2000/svg" viewBox="0 0 14 14"><path d="m 13,10.428575 v 0.85714 q 0,0.17411 -0.12723,0.30134 -0.12723,0.12723 -0.30134,0.12723 H 1.428571 q -0.174107,0 -0.301339,-0.12723 Q 1,11.459825 1,11.285715 v -0.85714 q 0,-0.17411 0.127232,-0.30134 0.127232,-0.12724 0.301339,-0.12724 H 12.57143 q 0.17411,0 0.30134,0.12724 Q 13,10.254465 13,10.428575 z m -2.57143,-2.57143 v 0.85714 q 0,0.17411 -0.12723,0.30134 Q 10.17411,9.142855 10,9.142855 H 4 q -0.17411,0 -0.30134,-0.12723 -0.12723,-0.12723 -0.12723,-0.30134 v -0.85714 q 0,-0.17411 0.12723,-0.30134 Q 3.82589,7.428575 4,7.428575 h 6 q 0.17411,0 0.30134,0.12723 0.12723,0.12723 0.12723,0.30134 z m 1.71429,-2.57143 v 0.85714 q 0,0.17411 -0.12723,0.30134 -0.12724,0.12723 -0.30134,0.12723 H 2.28571 q -0.1741,0 -0.301335,-0.12723 -0.127232,-0.12723 -0.127232,-0.30134 v -0.85714 q 0,-0.17411 0.127232,-0.30134 0.127235,-0.12723 0.301335,-0.12723 h 9.42858 q 0.1741,0 0.30134,0.12723 0.12723,0.12723 0.12723,0.30134 z M 9.57143,2.714285 v 0.85714 q 0,0.17411 -0.12723,0.30134 -0.12724,0.12723 -0.30134,0.12723 H 4.85714 q -0.1741,0 -0.30134,-0.12723 -0.12723,-0.12723 -0.12723,-0.30134 v -0.85714 q 0,-0.17411 0.12723,-0.30134 0.12724,-0.12723 0.30134,-0.12723 h 4.28572 q 0.1741,0 0.30134,0.12723 0.12723,0.12723 0.12723,0.30134 z"/></svg>