<svg xmlns="http://www.w3.org/2000/svg" id="libre-help" viewBox="0 0 14 14"><path d="m 7,1 q 1.21875,0 2.33036,0.475446 1.1116,0.475447 1.91518,1.279018 0.80357,0.803571 1.27901,1.915179 Q 13,5.78125 13,7 13,8.21875 12.52455,9.330357 12.04911,10.441965 11.24554,11.245536 10.44196,12.049107 9.33036,12.524554 8.21875,13 7,13 5.78125,13 4.66964,12.524554 3.55804,12.049107 2.75446,11.245536 1.950893,10.441965 1.475446,9.330357 1,8.21875 1,7 1,5.78125 1.475446,4.669643 1.950893,3.558035 2.75446,2.754464 3.55804,1.950893 4.66964,1.475446 5.78125,1 7,1 z m 0,0.857143 q -1.27232,0 -2.41741,0.602678 L 5.8817,3.758928 Q 6.4308,3.571429 7,3.571429 q 0.5692,0 1.1183,0.187499 L 9.41741,2.459821 Q 8.27232,1.857143 7,1.857143 z M 2.45982,9.417411 3.75893,8.118303 Q 3.57143,7.569196 3.57143,7 q 0,-0.569196 0.1875,-1.118303 L 2.45982,4.582589 Q 1.857143,5.727678 1.857143,7 q 0,1.272322 0.602677,2.417411 z M 7,12.142857 q 1.27232,0 2.41741,-0.602678 L 8.1183,10.241072 Q 7.5692,10.428571 7,10.428571 q -0.5692,0 -1.1183,-0.187499 L 4.58259,11.540179 Q 5.72768,12.142857 7,12.142857 z M 7,9.571429 q 1.06473,0 1.81808,-0.753349 Q 9.57143,8.064732 9.57143,7 9.57143,5.935268 8.81808,5.18192 8.06473,4.428571 7,4.428571 5.93527,4.428571 5.18192,5.18192 4.42857,5.935268 4.42857,7 q 0,1.064732 0.75335,1.81808 Q 5.93527,9.571429 7,9.571429 z m 3.24107,-1.453126 1.29911,1.299108 Q 12.14286,8.272322 12.14286,7 q 0,-1.272322 -0.60268,-2.417411 L 10.24107,5.881697 Q 10.42857,6.430804 10.42857,7 q 0,0.569196 -0.1875,1.118303 z"/></svg>