<svg xmlns="http://www.w3.org/2000/svg" id="libre-spinner-9" viewBox="0 0 14 14"><path d="m 4.375e-4,7.0216563 -4.375e-4,0 c 0,0 0,0.00131 4.375e-4,0.00306 0.0013125,0.05294 0.0074375,0.1050026 0.0179375,0.1553151 0.002625,0.024062 0.0056875,0.049875 0.0091875,0.07875 0.0030625,0.025812 0.006125,0.053375 0.009625,0.083125 0.00525,0.035 0.0105,0.072188 0.0161875,0.112 0.0118125,0.07875 0.0245,0.1658126 0.0398125,0.2590001 0.018375,0.087937 0.0385,0.1833125 0.0595,0.28525 0.009625,0.05075 0.0240625,0.1028125 0.0380625,0.15575 0.014,0.052938 0.0284375,0.1080625 0.0433125,0.1640625 0.007875,0.028 0.014,0.056437 0.0231875,0.084875 0.009188,0.028437 0.0179375,0.057313 0.027125,0.086187 0.009188,0.028875 0.0371875,0.11725 0.0564375,0.177625 0.004812,0.015313 0.009625,0.030188 0.0144375,0.0455 0.005688,0.014875 0.0109375,0.030188 0.016625,0.0455 0.011375,0.030188 0.02275,0.060813 0.034125,0.091876 0.0231875,0.06125 0.0468125,0.12425 0.070875,0.1876875 0.0266875,0.062563 0.05425,0.126 0.08225,0.1903125 0.014,0.031937 0.028,0.064312 0.042,0.097125 0.014,0.032813 0.0310625,0.064312 0.0468125,0.096687 0.0319375,0.064312 0.063875,0.1299375 0.0966875,0.1959999 0.0336875,0.065625 0.0713125,0.1299376 0.1071875,0.196 0.018375,0.032813 0.03675,0.065625 0.055125,0.098875 0.018375,0.03325 0.0398125,0.06475 0.0595,0.097562 0.04025,0.06475 0.0809375,0.130375 0.1220625,0.196 0.1728125,0.258125 0.364875,0.513625 0.5770625,0.755563 0.2148125,0.240187 0.4475625,0.468125 0.693,0.678125 0.2485,0.206937 0.5096875,0.395062 0.7756875,0.562187 0.2681875,0.1645 0.5420625,0.304938 0.812,0.425688 0.06825,0.028 0.1360625,0.05556 0.2034375,0.08313 0.033688,0.01312 0.0665,0.028 0.1001875,0.03981 0.033688,0.01181 0.067375,0.02362 0.100625,0.03544 0.03325,0.01181 0.132125,0.04725 0.1981875,0.06825 0.066063,0.01969 0.13125,0.03894 0.1955625,0.05819 0.032375,0.0092 0.063875,0.01969 0.095813,0.02756 0.031937,0.0079 0.063875,0.01575 0.095375,0.02319 0.063,0.01531 0.125125,0.03019 0.1859375,0.04506 0.061688,0.01181 0.1220625,0.02363 0.1815625,0.035 0.02975,0.0057 0.059063,0.01137 0.087938,0.01662 0.014437,0.0026 0.028875,0.0053 0.043312,0.0083 0.014437,0.0022 0.028875,0.0039 0.043312,0.0061 0.057313,0.0079 0.1133125,0.01575 0.168,0.02319 0.027125,0.0039 0.05425,0.0074 0.080938,0.01138 0.026687,0.0039 0.053375,0.0052 0.079625,0.0079 0.052062,0.0048 0.10325,0.0092 0.1526875,0.01356 0.049437,0.0044 0.097125,0.0092 0.1439375,0.01006 0.00306,0 0.00612,0 0.00919,4.37e-4 0.00831,0.476 0.396375,0.85925 0.8745625,0.85925 0.00744,0 0.014875,-4.37e-4 0.022312,-4.37e-4 v 4.48e-4 c 0,0 0.00131,0 0.00306,-4.37e-4 0.052938,-0.0013 0.105,-0.0074 0.1553125,-0.01794 0.024062,-0.0026 0.049875,-0.0057 0.07875,-0.0092 0.025812,-0.0031 0.053375,-0.0061 0.083125,-0.0096 0.035,-0.0053 0.072188,-0.0105 0.112,-0.01619 0.07875,-0.01181 0.1658125,-0.0245 0.259,-0.03981 0.087937,-0.01838 0.1833125,-0.0385 0.28525,-0.0595 0.05075,-0.0096 0.1028125,-0.0245 0.15575,-0.03806 0.052938,-0.01356 0.1080625,-0.02844 0.1640625,-0.04331 0.028,-0.0079 0.056437,-0.014 0.084875,-0.02319 0.028437,-0.0092 0.056875,-0.01794 0.086187,-0.02712 0.029312,-0.0092 0.11725,-0.03719 0.177625,-0.05644 0.015313,-0.0048 0.030188,-0.0096 0.0455,-0.01444 0.014875,-0.0057 0.030188,-0.01094 0.0455,-0.01662 0.030188,-0.01138 0.060813,-0.02275 0.091875,-0.03412 0.06125,-0.02319 0.12425,-0.04681 0.1876875,-0.07088 0.062562,-0.02669 0.126,-0.05425 0.19075,-0.08225 0.031937,-0.014 0.064312,-0.028 0.097125,-0.042 0.032813,-0.014 0.064312,-0.03106 0.096687,-0.04681 0.064312,-0.03194 0.1299375,-0.06388 0.196,-0.09669 0.065625,-0.03369 0.1299375,-0.07131 0.196,-0.107187 0.032813,-0.01838 0.065625,-0.03675 0.098875,-0.05513 0.03325,-0.01838 0.06475,-0.03981 0.097563,-0.0595 0.064751,-0.04025 0.130374,-0.08094 0.195999,-0.122063 0.258125,-0.172812 0.513625,-0.364875 0.755563,-0.577062 0.240188,-0.214813 0.468125,-0.447563 0.678125,-0.693 0.206937,-0.2485 0.395063,-0.509688 0.562188,-0.775688 0.164501,-0.268187 0.304938,-0.542062 0.425687,-0.811562 0.028,-0.06825 0.05556,-0.1360628 0.08313,-0.2034378 0.01312,-0.033687 0.028,-0.0665 0.03981,-0.1001875 0.01181,-0.033688 0.02363,-0.067375 0.03544,-0.100625 0.01181,-0.03325 0.04725,-0.132125 0.06825,-0.1981875 0.01969,-0.066062 0.03894,-0.13125 0.05819,-0.1955625 0.0092,-0.032375 0.01969,-0.063875 0.02756,-0.095813 0.0079,-0.03195 0.01575,-0.063887 0.02318,-0.095387 0.01531,-0.063 0.03019,-0.125125 0.04506,-0.1859375 0.01181,-0.061687 0.02363,-0.1220625 0.035,-0.1815625 0.0057,-0.02975 0.01137,-0.059062 0.01662,-0.087937 0.0026,-0.014437 0.0053,-0.028875 0.0083,-0.043313 0.0022,-0.014437 0.0039,-0.028875 0.0061,-0.043312 0.0079,-0.057313 0.01575,-0.1133125 0.02319,-0.168 0.0039,-0.027125 0.0074,-0.05425 0.01138,-0.080937 0.0039,-0.026687 0.0053,-0.053375 0.0079,-0.079625 0.0048,-0.052062 0.0092,-0.10325 0.01356,-0.1526876 0.0044,-0.049437 0.0092,-0.097125 0.01006,-0.1439375 4.38e-4,-0.00744 4.38e-4,-0.014437 8.75e-4,-0.021437 C 13.610188,7.8739062 14,7.4832188 14,7.0010938 c 0,-0.00744 -4.37e-4,-0.014875 -4.37e-4,-0.022312 H 14 c 0,0 0,-0.00131 -4.37e-4,-0.00306 -0.0013,-0.052937 -0.0074,-0.105 -0.01794,-0.1553125 -0.0026,-0.024063 -0.0057,-0.049875 -0.0092,-0.079187 -0.0031,-0.025813 -0.0061,-0.053375 -0.0096,-0.083125 -0.0053,-0.035 -0.0105,-0.072188 -0.01619,-0.1115625 -0.01181,-0.07875 -0.0245,-0.1658125 -0.03981,-0.259 -0.01837,-0.087938 -0.0385,-0.1833125 -0.0595,-0.28525 -0.0096,-0.05075 -0.02406,-0.1028125 -0.03806,-0.1561875 -0.014,-0.053375 -0.02844,-0.1080625 -0.04331,-0.1640625 -0.0079,-0.028 -0.014,-0.056438 -0.02319,-0.084875 -0.0092,-0.028437 -0.01794,-0.056875 -0.02712,-0.086188 -0.0092,-0.029312 -0.03719,-0.11725 -0.05644,-0.177625 -0.0048,-0.014875 -0.0096,-0.030187 -0.01444,-0.0455 -0.0057,-0.014875 -0.01094,-0.030188 -0.01662,-0.0455 -0.01139,-0.03019 -0.02277,-0.060815 -0.03414,-0.091878 -0.02319,-0.061688 -0.04681,-0.1242501 -0.07087,-0.1876875 -0.02669,-0.062563 -0.05425,-0.126 -0.08225,-0.1903125 -0.014,-0.031938 -0.028,-0.064313 -0.042,-0.097125 -0.014,-0.032813 -0.03106,-0.064312 -0.04681,-0.096687 -0.03194,-0.064313 -0.06387,-0.1299375 -0.09669,-0.196 -0.03369,-0.065625 -0.07131,-0.1299375 -0.107188,-0.196 -0.01838,-0.032813 -0.03675,-0.065625 -0.05513,-0.098875 -0.01837,-0.03325 -0.03981,-0.06475 -0.0595,-0.097563 -0.04025,-0.06475 -0.08094,-0.130375 -0.122062,-0.196 C 12.738687,3.5360938 12.546625,3.2805938 12.334438,3.0386563 12.119625,2.7984688 11.886875,2.5705313 11.641437,2.3605313 11.392937,2.1535938 11.13175,1.9654688 10.86575,1.7983438 10.597562,1.6338438 10.323687,1.4934063 10.054187,1.3726563 9.9859375,1.3446563 9.918125,1.3170938 9.85075,1.2895313 9.8170625,1.2764063 9.78425,1.2619688 9.7505625,1.2497188 9.716875,1.2374688 9.6831875,1.2260938 9.6499375,1.2142813 9.6166875,1.2024688 9.5178125,1.1670313 9.45175,1.1460313 9.3856875,1.1263438 9.3205,1.1070938 9.2561875,1.0878438 9.2238125,1.0786563 9.1923125,1.0681563 9.160375,1.0602813 9.1284375,1.0524063 9.0965,1.0445313 9.065,1.0370938 9.002,1.0217813 8.939875,1.0069063 8.8790625,0.99203125 8.817375,0.98021875 8.757,0.96840625 8.6975,0.95703125 c -0.02975,-0.005687 -0.059062,-0.011375 -0.087938,-0.016625 -0.014437,-0.002625 -0.028875,-0.00525 -0.043312,-0.008312 -0.014437,-0.002188 -0.028875,-0.003938 -0.043313,-0.006125 -0.057313,-0.007875 -0.1133125,-0.01575 -0.168,-0.0231875 -0.027125,-0.003937 -0.05425,-0.007437 -0.080938,-0.011375 -0.026687,-0.003937 -0.053375,-0.00525 -0.079625,-0.007875 -0.052063,-0.004375 -0.10325,-0.009188 -0.1526875,-0.0135625 C 7.99225,0.86559375 7.9445625,0.86078125 7.89775,0.85990625 7.8859375,0.85946875 7.875,0.85903125 7.863625,0.85859375 7.854875,0.38303125 7.4668125,2.1875e-4 6.9890625,2.1875e-4 c -0.00744,0 -0.014875,4.375e-4 -0.022312,4.375e-4 l 0,-4.375e-4 c 0,0 -0.00131,0 -0.00306,4.375e-4 -0.052941,0.0013125 -0.105003,0.0074375 -0.1553155,0.0179375 -0.024062,0.002625 -0.049875,0.0056875 -0.079187,0.0091875 -0.025812,0.0030625 -0.053375,0.006125 -0.083125,0.009625 -0.035,0.00525 -0.072188,0.0105 -0.1115625,0.0161875 -0.07875,0.0118125 -0.1658125,0.0245 -0.259,0.0398125 -0.087937,0.018375 -0.1833125,0.0385 -0.28525,0.0595 -0.05075,0.009625 -0.1028125,0.0245 -0.15575,0.0380625 -0.052938,0.0135625 -0.1080625,0.0284375 -0.1640625,0.0433125 -0.028,0.007875 -0.056438,0.014 -0.084875,0.0231875 -0.028437,0.009187 -0.056875,0.0179375 -0.086188,0.027125 -0.029312,0.009188 -0.11725,0.0371875 -0.177625,0.0564375 -0.014875,0.004812 -0.030187,0.009625 -0.0455,0.0144375 -0.014875,0.005688 -0.030188,0.0109375 -0.0455,0.016625 -0.030187,0.011375 -0.060812,0.02275 -0.091875,0.034125 -0.06125,0.0231875 -0.12425,0.0468125 -0.1876875,0.070875 -0.062562,0.0266875 -0.126,0.05425 -0.1903125,0.08225 -0.031938,0.014 -0.064313,0.028 -0.097125,0.042 -0.032813,0.014 -0.064313,0.0310625 -0.096688,0.0468125 -0.064312,0.0319375 -0.129937,0.063875 -0.1959995,0.0966875 -0.065625,0.0336875 -0.1299375,0.0713125 -0.196,0.1071875 -0.032813,0.018375 -0.065625,0.03675 -0.098875,0.055125 -0.03325,0.018375 -0.06475,0.0398125 -0.097562,0.0595 C 3.913875,1.0069063 3.84825,1.0475938 3.782625,1.0887188 3.5245,1.2615313 3.269,1.4535938 3.0270625,1.6657813 2.786875,1.8805938 2.5589375,2.1133438 2.3489375,2.3587813 2.142,2.6072813 1.953875,2.8684688 1.78675,3.1344688 1.62225,3.4026563 1.4818125,3.6765313 1.3610625,3.9460313 c -0.028,0.06825 -0.055562,0.1360624 -0.083125,0.2034375 -0.013125,0.033688 -0.027562,0.0665 -0.039813,0.1001874 -0.01225,0.033687 -0.023625,0.067375 -0.035438,0.100625 -0.011813,0.03325 -0.04725,0.1321251 -0.06825,0.1981876 C 1.11475,4.6145313 1.0955,4.6797187 1.0766875,4.7440313 1.0675,4.7764062 1.057,4.8079062 1.049125,4.8398437 1.04125,4.8717813 1.033375,4.9037188 1.0259375,4.9352188 1.010625,4.9982188 0.99575,5.0603438 0.980875,5.1211562 0.9690625,5.1828437 0.95725,5.2432188 0.945875,5.3027188 0.9401875,5.3324688 0.9345,5.3617813 0.92925,5.3906562 0.926625,5.4050938 0.924,5.4195313 0.9209375,5.4339687 0.91875,5.4484063 0.917,5.4628437 0.9148125,5.4772813 0.9069375,5.5345937 0.8990625,5.5905937 0.891625,5.6452812 0.8876875,5.6724063 0.8841875,5.6995313 0.88025,5.7262187 0.8763125,5.7529063 0.875,5.7795937 0.872375,5.8058437 0.868,5.8579062 0.8631875,5.9090937 0.8588125,5.9585312 0.8544375,6.0079688 0.849625,6.0556562 0.84875,6.1024688 0.8483125,6.1099063 0.8483125,6.1173438 0.847875,6.1247813 0.378,6.1400937 0.00175,6.5255312 0.00175,6.9989062 c 0,0.00744 4.375e-4,0.014875 4.375e-4,0.022312 z m 1.0045,-0.8876876 c 4.375e-4,-0.00263 0.00131,-0.00525 0.00175,-0.00787 0.00875,-0.044188 0.022312,-0.08925 0.035,-0.1360626 0.012687,-0.046812 0.025812,-0.094062 0.039375,-0.1430625 0.007,-0.0245 0.012687,-0.049437 0.021,-0.073937 0.00831,-0.024505 0.016625,-0.049443 0.024938,-0.074818 0.00831,-0.025375 0.033688,-0.1019375 0.051187,-0.1544375 0.00438,-0.013125 0.00875,-0.02625 0.013125,-0.039375 0.00525,-0.013125 0.010063,-0.02625 0.015313,-0.039375 0.010062,-0.02625 0.020563,-0.052937 0.031062,-0.079625 0.020563,-0.053375 0.042,-0.107625 0.063438,-0.1631875 0.024062,-0.05425 0.048562,-0.109375 0.0735,-0.1649375 0.01225,-0.028 0.024938,-0.056 0.037625,-0.084 0.012687,-0.028 0.028,-0.055562 0.041562,-0.083563 0.028438,-0.056 0.056875,-0.112437 0.086188,-0.1697495 0.030188,-0.056438 0.063438,-0.1124376 0.095812,-0.1693126 0.016188,-0.028437 0.032375,-0.056875 0.049,-0.085312 0.016625,-0.028437 0.035438,-0.056 0.052937,-0.084437 C 1.773625,4.3249063 1.8095,4.2684687 1.8458125,4.2111562 1.999375,3.9884688 2.169125,3.7684063 2.356375,3.5597188 2.54625,3.3532188 2.7505625,3.1576563 2.96625,2.9778438 c 0.2183125,-0.17675 0.4466875,-0.336875 0.679,-0.478625 0.2340625,-0.1395625 0.4729375,-0.2576875 0.7074375,-0.3591875 0.0595,-0.023188 0.1185625,-0.046375 0.17675,-0.069125 0.029312,-0.010937 0.05775,-0.023187 0.087063,-0.03325 0.029312,-0.010063 0.058625,-0.019688 0.0875,-0.029313 0.028875,-0.00962 0.114625,-0.039375 0.1715,-0.056437 0.057313,-0.016188 0.11375,-0.031938 0.1693125,-0.047688 0.028,-0.00744 0.055125,-0.016188 0.082688,-0.02275 0.027562,-0.00656 0.055125,-0.012687 0.082687,-0.018812 0.05425,-0.01225 0.1080625,-0.0245 0.1605625,-0.03675 0.052937,-0.00919 0.1054375,-0.018812 0.156625,-0.027562 0.025375,-0.00438 0.05075,-0.00919 0.075687,-0.013563 0.012688,-0.00219 0.024938,-0.00437 0.037187,-0.00656 0.012688,-0.00131 0.024938,-0.00306 0.037187,-0.00438 0.049437,-0.00612 0.097563,-0.01225 0.1448125,-0.017937 0.023625,-0.00306 0.046812,-0.00569 0.069562,-0.00875 0.02275,-0.00306 0.045937,-0.0035 0.068687,-0.00569 0.045063,-0.00306 0.088813,-0.00656 0.13125,-0.00962 0.042438,-0.00306 0.083563,-0.007 0.1238125,-0.007 0.080063,-0.00175 0.154875,-0.0035 0.224,-0.00525 0.063875,0.00219 0.1225,0.00438 0.1754375,0.00612 0.02625,8.75e-4 0.05075,0.00131 0.074375,0.00219 0.028875,0.00175 0.056,0.0035 0.081375,0.00525 0.029313,0.00175 0.055563,0.0035 0.079625,0.00525 0.044625,0.007 0.090125,0.0105 0.1365,0.0105 0.00656,0 0.012687,-4.375e-4 0.01925,-4.375e-4 0.00175,0 0.00306,0 0.00306,0 v -4.33e-4 c 0.4256875,-0.0105 0.7756875,-0.3250625 0.84175,-0.735 0.00744,0.00175 0.014438,0.00306 0.021875,0.00481 0.044187,0.00875 0.08925,0.022312 0.1360625,0.035 0.046812,0.012688 0.094062,0.025813 0.1430625,0.039375 0.0245,0.007 0.049437,0.012687 0.073937,0.021 0.0245,0.00831 0.049437,0.016625 0.074813,0.024938 0.025375,0.00831 0.1019375,0.033687 0.1544375,0.051187 0.013125,0.00438 0.02625,0.00875 0.039375,0.013125 0.013125,0.00525 0.02625,0.010063 0.039375,0.015313 0.02625,0.010062 0.052938,0.020562 0.079625,0.031062 0.053375,0.020562 0.107625,0.042 0.1631875,0.063437 0.05425,0.024063 0.109375,0.048563 0.165375,0.0735 0.028,0.01225 0.056,0.024938 0.084,0.037625 0.028,0.012687 0.055563,0.028 0.083562,0.041562 0.056,0.028438 0.1124375,0.056875 0.16975,0.086188 0.056875,0.030188 0.1124375,0.063438 0.1693125,0.095812 0.028437,0.016188 0.056875,0.032375 0.085313,0.049 0.028437,0.016625 0.056,0.035438 0.084437,0.052937 0.056,0.035875 0.1124375,0.07175 0.16975,0.1080625 0.222692,0.1535666 0.442755,0.3233166 0.651442,0.5105666 0.2065,0.189875 0.402063,0.3941875 0.581875,0.609875 0.17675,0.2183125 0.336875,0.4466875 0.478625,0.679 0.139563,0.2340625 0.257688,0.4729375 0.359188,0.7074375 0.02319,0.0595 0.04637,0.1185625 0.06912,0.17675 0.01094,0.029313 0.02319,0.05775 0.03325,0.087063 0.01006,0.029313 0.01969,0.058625 0.02931,0.0875 0.0096,0.028875 0.03937,0.114625 0.05644,0.1715 0.01619,0.057313 0.03194,0.11375 0.04769,0.1693125 0.0074,0.028 0.01619,0.055125 0.02275,0.082687 0.0066,0.027563 0.01269,0.055125 0.01881,0.082688 0.01225,0.05425 0.0245,0.1080625 0.03675,0.1605625 0.0092,0.052938 0.01881,0.1054375 0.02756,0.156625 0.0044,0.025375 0.0087,0.05075 0.01356,0.075687 0.0022,0.012688 0.0044,0.024938 0.0066,0.037187 0.0013,0.012688 0.0031,0.024938 0.0044,0.037188 0.0061,0.049437 0.01225,0.097562 0.01794,0.1448125 0.0031,0.023625 0.0061,0.046812 0.0088,0.069562 0.0026,0.02275 0.0035,0.045937 0.0057,0.068688 0.0031,0.045063 0.0066,0.088812 0.0096,0.13125 0.0031,0.042438 0.007,0.083563 0.007,0.1238125 0.0017,0.080062 0.0035,0.154875 0.0053,0.224 -0.0022,0.063875 -0.0044,0.1225 -0.0061,0.1754375 -8.75e-4,0.02625 -0.0013,0.05075 -0.0022,0.074375 -0.0017,0.028875 -0.0035,0.056 -0.0053,0.081375 -0.0017,0.029312 -0.0035,0.055562 -0.0053,0.079625 -0.007,0.044625 -0.0105,0.090125 -0.0105,0.1365 0,0.00656 4.37e-4,0.012688 4.37e-4,0.01925 0,0.00175 0,0.00306 0,0.00306 h 4.38e-4 c 0.0105,0.4204375 0.317625,0.767375 0.720125,0.839125 -8.75e-4,0.00394 -0.0017,0.00788 -0.0026,0.01225 -0.0088,0.044625 -0.02231,0.08925 -0.035,0.1360625 -0.01269,0.046812 -0.02581,0.094062 -0.03938,0.1430625 -0.007,0.0245 -0.01269,0.049437 -0.021,0.073938 -0.0083,0.0245 -0.01662,0.049437 -0.02494,0.074812 -0.0083,0.025375 -0.03369,0.1019375 -0.05119,0.1544375 -0.0044,0.013125 -0.0088,0.02625 -0.01313,0.039375 -0.0053,0.013125 -0.01006,0.02625 -0.01531,0.039375 -0.01006,0.02625 -0.02056,0.052937 -0.03106,0.079625 -0.02056,0.053375 -0.042,0.107625 -0.06344,0.1631875 -0.02406,0.05425 -0.04856,0.109375 -0.07394,0.165375 -0.01225,0.028 -0.02494,0.056 -0.03763,0.084 -0.01269,0.028 -0.028,0.055562 -0.04156,0.083562 -0.02844,0.056 -0.05687,0.1124375 -0.08619,0.16975 -0.03019,0.056437 -0.06344,0.1124375 -0.09581,0.1693125 -0.01619,0.028437 -0.03238,0.056875 -0.049,0.085312 -0.01663,0.028438 -0.03544,0.056 -0.05294,0.084437 -0.03588,0.056 -0.07175,0.1124375 -0.108063,0.16975 -0.153562,0.2226872 -0.322875,0.4427502 -0.510562,0.6514372 -0.189875,0.2065 -0.394188,0.402063 -0.609876,0.581875 -0.218312,0.17675 -0.446687,0.336875 -0.678999,0.478625 -0.234063,0.139563 -0.472938,0.257688 -0.707438,0.359188 -0.0595,0.02319 -0.1185625,0.04637 -0.17675,0.06912 -0.029312,0.01094 -0.05775,0.02319 -0.087063,0.03325 -0.029312,0.01006 -0.058625,0.01969 -0.0875,0.02931 -0.028875,0.0096 -0.114625,0.03937 -0.1715,0.05644 -0.057313,0.01619 -0.11375,0.03194 -0.1693125,0.04769 -0.028,0.0074 -0.055125,0.01619 -0.082687,0.02275 -0.027563,0.0066 -0.055125,0.01269 -0.082688,0.01881 -0.05425,0.01225 -0.1080625,0.0245 -0.1605625,0.03675 -0.053375,0.0092 -0.1054375,0.01881 -0.156625,0.02756 -0.025375,0.0044 -0.05075,0.0092 -0.075688,0.01356 -0.012688,0.0022 -0.024938,0.0044 -0.037187,0.0066 -0.012688,0.0013 -0.024938,0.0031 -0.037187,0.0044 -0.049437,0.0061 -0.097563,0.01225 -0.1448125,0.01794 -0.023625,0.0031 -0.046812,0.0061 -0.069562,0.0087 -0.02275,0.0026 -0.045937,0.0035 -0.068687,0.0057 -0.045063,0.0031 -0.088813,0.0066 -0.13125,0.0096 -0.042438,0.0031 -0.083562,0.007 -0.1238125,0.007 -0.080063,0.0017 -0.154875,0.0035 -0.224,0.0053 -0.063875,-0.0022 -0.1225,-0.0044 -0.1754375,-0.0061 -0.02625,-8.75e-4 -0.05075,-0.0013 -0.074375,-0.0022 -0.028875,-0.0018 -0.056,-0.0035 -0.081375,-0.0053 -0.029313,-0.0017 -0.055563,-0.0035 -0.079625,-0.0053 -0.044625,-0.007 -0.090125,-0.0105 -0.1365,-0.0105 -0.00656,0 -0.012688,4.37e-4 -0.01925,4.37e-4 -0.00175,0 -0.00306,0 -0.00306,0 v 4.38e-4 C 6.542001,12.26067 6.1933135,12.572607 6.125501,12.97992 6.081751,12.97122 6.037563,12.95805 5.991626,12.94536 5.9451875,12.932719 5.8975,12.919594 5.8485,12.906031 c -0.0245,-0.007 -0.049437,-0.01269 -0.073937,-0.021 -0.0245,-0.0083 -0.049437,-0.01663 -0.074813,-0.02494 -0.025375,-0.0083 -0.1019375,-0.03369 -0.1544375,-0.05119 -0.013125,-0.0044 -0.02625,-0.0087 -0.039375,-0.01312 -0.013125,-0.0053 -0.02625,-0.01006 -0.039375,-0.01531 -0.02625,-0.01006 -0.052938,-0.02056 -0.079625,-0.03106 -0.053375,-0.021 -0.107625,-0.042 -0.1631875,-0.06344 -0.05425,-0.02406 -0.109375,-0.04856 -0.1649375,-0.0735 -0.028,-0.01225 -0.056,-0.02494 -0.084,-0.03763 -0.028,-0.01269 -0.055562,-0.028 -0.083562,-0.04156 -0.056,-0.02844 -0.1124375,-0.05687 -0.16975,-0.08619 -0.056875,-0.03019 -0.1124375,-0.06344 -0.1693125,-0.09581 -0.028437,-0.01619 -0.056875,-0.03237 -0.085312,-0.049 -0.028437,-0.01662 -0.056,-0.03544 -0.084437,-0.05294 C 4.3264375,12.213469 4.27,12.177594 4.2126875,12.141281 3.99,11.987719 3.7699375,11.818406 3.56125,11.631156 3.35475,11.441281 3.1591875,11.236969 2.979375,11.021281 2.802625,10.802969 2.6425,10.574594 2.50075,10.342281 2.3611875,10.108219 2.2430625,9.8693438 2.1415625,9.6348438 2.118375,9.5753438 2.0951875,9.5162813 2.0724375,9.4580938 2.0615,9.4287813 2.04925,9.4003438 2.0391875,9.3710313 2.029125,9.3417188 2.0195,9.3124063 2.009875,9.2835313 2.00025,9.2546563 1.9705,9.1689063 1.9534375,9.1120313 1.93725,9.0547188 1.9215,8.9982813 1.90575,8.9427188 c -0.00744,-0.028 -0.016188,-0.055125 -0.02275,-0.082688 -0.00656,-0.027563 -0.012687,-0.055125 -0.018812,-0.082687 -0.01225,-0.05425 -0.0245,-0.1080625 -0.03675,-0.1605625 -0.00919,-0.052937 -0.018813,-0.1054375 -0.027563,-0.156625 -0.00437,-0.025375 -0.00919,-0.05075 -0.013562,-0.075687 -0.00219,-0.012688 -0.00438,-0.024938 -0.00656,-0.037187 -0.00131,-0.012688 -0.00306,-0.024938 -0.00438,-0.037187 -0.00612,-0.049437 -0.01225,-0.097563 -0.017937,-0.1448125 -0.00306,-0.023625 -0.00569,-0.046812 -0.00875,-0.069562 -0.00306,-0.02275 -0.0035,-0.045938 -0.00569,-0.068687 -0.00306,-0.045063 -0.00656,-0.088813 -0.00962,-0.13125 -0.00306,-0.042438 -0.007,-0.083563 -0.007,-0.1238125 -0.00175,-0.080062 -0.0035,-0.154875 -0.00525,-0.224 0.00219,-0.063875 0.00438,-0.1225 0.00612,-0.1754375 8.75e-4,-0.02625 0.00131,-0.05075 0.00219,-0.074375 0.00175,-0.028875 0.0035,-0.056 0.00525,-0.081375 0.00175,-0.029312 0.0035,-0.055562 0.00525,-0.079625 0.00656,-0.044625 0.0105,-0.090125 0.0105,-0.1365 0,-0.00656 -4.375e-4,-0.012688 -4.375e-4,-0.01925 0,-0.00175 4.375e-4,-0.00306 4.375e-4,-0.00306 H 1.75 C 1.7395,6.5491562 1.420125,6.1969688 1.0058125,6.1352812 z"/></svg>