<svg role="img" focusable="false" aria-hidden="true" xmlns="http://www.w3.org/2000/svg" viewBox="0 0 14 14"><path d="m 12.996984,4.0621275 c 0,-0.368984 -0.0325,-0.734969 -0.119995,-1.094953 -0.158493,-0.654972 -0.530977,-1.154951 -1.089953,-1.521435 -0.286988,-0.186992 -0.601974,-0.302987 -0.93846,-0.363484 -0.258489,-0.0465 -0.518978,-0.0675 -0.781966,-0.075 -0.02,-0.0015 -0.0415,-0.005 -0.062,-0.0065 l -6.0117426,0 c -0.075997,0.005 -0.1514936,0.0085 -0.2274903,0.013 -0.373484,0.0215 -0.7449681,0.0615 -1.096453,0.200491 -0.6679714,0.264989 -1.1499507,0.725969 -1.4324386,1.38994 -0.095996,0.223991 -0.1459938,0.462481 -0.1814923,0.70397 -0.027999,0.195992 -0.043998,0.392483 -0.049998,0.589975 0,0.016 -0.0035,0.031 -0.005,0.0465 l 0,6.1112385 c 0.005,0.07 0.0085,0.141494 0.0134994,0.21199 0.024999,0.407483 0.076997,0.811966 0.2484894,1.186449 0.324986,0.70997 0.8689627,1.176451 1.6169307,1.40094 0.209991,0.0635 0.4279816,0.0935 0.6464723,0.113995 0.2774881,0.0265 0.5549762,0.03 0.8334643,0.03 l 5.5147637,0 c 0.262489,0 0.523978,-0.017 0.784967,-0.05 0.411481,-0.053 0.798465,-0.174992 1.14795,-0.404983 0.419982,-0.276488 0.735968,-0.643472 0.93996,-1.103952 0.093,-0.209991 0.146493,-0.434982 0.184992,-0.661972 0.0565,-0.337485 0.069,-0.678971 0.0685,-1.0199555 -10e-4,-1.899919 0,-3.797337 -0.0015,-5.696256 z m -3.2113623,1.994914 0,2.855878 c 0,0.208491 -0.028999,0.413482 -0.1219947,0.602974 -0.1449938,0.294988 -0.3799838,0.48098 -0.6939703,0.5699765 -0.1749925,0.05 -0.3529849,0.0785 -0.5349771,0.0865 C 7.9597,10.19487 7.5482176,9.8723825 7.4632212,9.4044025 7.3922242,9.0179195 7.5767164,8.5924375 7.982199,8.3934455 c 0.1614931,-0.08 0.3349857,-0.124994 0.5089782,-0.161993 0.1889919,-0.041 0.3789838,-0.0765 0.5669757,-0.119995 0.1369941,-0.0315 0.2284902,-0.114995 0.2549891,-0.257988 0.007,-0.0315 0.01,-0.065 0.01,-0.0965 0,-0.907461 0,-1.814923 -9.999e-4,-2.721384 0,-0.031 -0.005,-0.0625 -0.013,-0.0925 -0.019999,-0.075 -0.074997,-0.121495 -0.1519934,-0.116995 -0.079997,0.005 -0.1589932,0.0175 -0.2374899,0.033 -0.3799837,0.075 -0.7599674,0.151493 -1.1399511,0.22799 l -1.1629502,0.23499 -0.6869705,0.138994 c -0.008,0.0015 -0.015999,0.005 -0.023999,0.0065 -0.1384941,0.0385 -0.1884919,0.101495 -0.1949917,0.244989 -9.999e-4,0.021 0,0.043 0,0.065 -9.999e-4,1.300945 0,2.601889 -0.0015,3.902333 0,0.209991 -0.023499,0.4179825 -0.1074954,0.6134745 -0.138994,0.319986 -0.3849835,0.519978 -0.7169693,0.616474 -0.1749925,0.05 -0.3549848,0.08 -0.5374769,0.086 -0.4799795,0.018 -0.8774624,-0.299987 -0.9599589,-0.771967 -0.069997,-0.4059835 0.1149951,-0.8424645 0.5769753,-1.0374565 0.1784923,-0.075 0.3649843,-0.115995 0.5539762,-0.154993 0.1434939,-0.03 0.2874877,-0.058 0.4299816,-0.0885 0.1914918,-0.0415 0.2914875,-0.161493 0.2999872,-0.356985 l 0,-0.075 c 0,-1.479936 0,-2.960873 9.999e-4,-4.440809 0,-0.0615 0.0065,-0.124995 0.020999,-0.184992 0.034998,-0.142494 0.1364942,-0.223991 0.2729883,-0.258989 0.1274946,-0.033 0.257489,-0.056 0.3869834,-0.0825 0.3664843,-0.075 0.7329686,-0.147993 1.0999529,-0.22199 l 1.1349514,-0.22999 c 0.3349856,-0.067 0.6699713,-0.134995 1.0049569,-0.201492 0.1099953,-0.0215 0.2214905,-0.044 0.3319858,-0.053 0.1549933,-0.0125 0.2614888,0.085 0.2769881,0.24099 0.004,0.0365 0.006,0.074 0.006,0.111495 9.999e-4,0.954959 9.999e-4,1.910918 0,2.865878 z"/></svg>