<svg xmlns="http://www.w3.org/2000/svg" id="libre-export-booking" viewBox="0 0 14 14"><g transform="matrix(0.00648563,0,0,0.00648563,-4.3859827,6.2255231)"><path d="m 1364.9375,-805.65625 c -29.9625,1.18279 -60.715,-2.78042 -89.8741,6.14185 -53.6394,14.77886 -97.7552,58.84204 -113.3659,112.14587 -5.0857,16.6233 -6.8558,34.07412 -6.5129,51.40527 -0.7368,31.41143 0.7222,62.83677 -0.3096,94.24451 -22.156,1.23066 -44.355,0.26409 -66.53,0.41615 -31.2084,-0.14313 -62.5796,-0.74397 -93.60777,3.05544 -53.99232,11.81811 -98.43298,60.51311 -102.98464,115.9424 -2.24773,46.82634 -0.0601,93.70976 -0.90999,140.55977 -0.0479,400.80041 -0.25412,801.60117 0.37615,1202.40124 2.74435,60.53981 53.28955,114.63065 113.22755,122.40325 29.654,2.7688 59.4594,0.6747 89.182,1.2904 315.5019,0.1887 631.0039,0.04 946.5059,0.088 148.4019,-0.039 296.8078,0.048 445.2073,-0.2377 58.2531,-3.3534 110.7688,-50.18053 121.0519,-107.56575 4.4736,-26.55044 1.1513,-53.53228 2.2016,-80.27676 0.1463,-328.17494 0.2158,-656.34994 -0.021,-984.52486 -0.099,-96.4849 0.093,-192.97349 -0.3908,-289.45586 -1.7859,-42.14861 -27.2689,-81.29634 -62.4938,-103.62369 -20.7843,-13.22928 -45.3946,-20.33271 -70.0527,-19.86484 -32.2189,-0.28354 -64.4399,0.0736 -96.6597,-0.13804 -11.5341,0.002 -23.0682,0.004 -34.6023,-0.0312 -1.3791,-46.18147 3.5751,-92.81484 -4.5182,-138.5996 -15.2637,-63.53877 -71.5721,-115.6243 -136.6713,-123.93695 -32.1267,-3.28797 -64.4532,-1.25474 -96.6726,-1.40412 -37.3394,0.44283 -74.0011,15.36985 -101.7681,40.20464 -33.9556,29.60249 -56.1588,73.42342 -56.3745,118.81501 -1.4363,34.8155 0.6711,69.66444 -0.5891,104.48352 -5.2947,1.06027 -10.7681,0.0478 -16.1409,0.4375 -126.7135,0 -253.4269,0 -380.1403,0 -1.3478,-46.23345 3.5535,-92.92095 -4.5497,-138.75579 -15.7939,-65.84772 -75.92,-119.19912 -143.791,-124.58695 -12.714,-0.97821 -25.4757,-1.13761 -38.2218,-1.03226 z m 3.375,132 c 10.9496,0.2346 22.2131,0.52492 32.6875,3.9375 14.5106,7.26626 20.932,24.95971 18.6864,40.4048 -0.8278,27.07441 -0.1092,54.16603 -0.3582,81.24793 0.036,71.16535 0.5936,142.36532 -1.0888,213.50433 -5.1416,18.18811 -26.1703,28.55272 -44.093,24.51778 -22.928,-1.03972 -46.5028,3.01595 -68.8685,-3.69379 -14.8843,-7.99508 -21.1903,-26.69906 -18.0582,-42.70993 0.5144,-97.53311 -1.1344,-195.11216 1.2066,-292.61306 4.3255,-16.03442 21.5974,-26.70324 37.8822,-24.34977 13.9963,0.66054 28.004,-0.36608 42.004,-0.24579 z m 746.7187,0 c 25.8212,1.85261 52.1961,-2.95196 77.6019,3.4394 14.939,6.45672 21.9542,24.17247 19.9908,39.64809 -1.0052,17.75186 -0.1807,35.54598 -0.4677,53.3161 -0.036,80.70677 0.6348,161.44356 -0.8519,242.12909 -4.9343,18.47514 -26.1847,29.14934 -44.3142,25.07966 -22.928,-1.03972 -46.5028,3.01595 -68.8684,-3.69379 -14.9398,-7.96844 -21.1889,-26.7222 -18.0582,-42.74118 0.4447,-97.32928 -0.9699,-194.67161 1.0615,-291.98987 3.7336,-14.86703 18.7054,-25.64873 33.9062,-25.1875 z m -794.7812,528.8125 c 0,99.104167 0,198.208333 0,297.3125 -99.1042,0 -198.2083,0 -297.3125,0 0,-99.104167 0,-198.208333 0,-297.3125 99.1042,0 198.2083,0 297.3125,0 z m 396.4375,0 c 0,99.104167 0,198.208333 0,297.3125 -110.125,0 -220.25,0 -330.375,0 0,-99.104167 0,-198.208333 0,-297.3125 110.125,0 220.25,0 330.375,0 z m 396.4375,0 c 0,99.104167 0,198.208333 0,297.3125 -110.125,0 -220.25,0 -330.375,0 0,-99.104167 0,-198.208333 0,-297.3125 110.125,0 220.25,0 330.375,0 z m 363.375,0 c 1.3333,98.6875 2.6667,197.375 4,296.0625 -100.3125,0.375 -200.625,0.75 -300.9375,1.125 -0.125,-99.0625 -0.25,-198.125 -0.375,-297.1875 99.1042,0 198.2083,0 297.3125,0 z m 0,693.75 c -98.8125,0.0417 -197.625,0.0833 -296.4375,0.125 0.9167,-110.55208 1.8333,-221.10417 2.75,-331.65625 101.5833,-0.8125 203.1667,-1.625 304.75,-2.4375 -3.6875,111.32292 -7.375,222.64583 -11.0625,333.96875 z M 1320.25,218.5625 c 0,110.11458 0,220.22917 0,330.34375 -99.1042,0 -198.2083,0 -297.3125,0 0,-110.11458 0,-220.22917 0,-330.34375 99.1042,0 198.2083,0 297.3125,0 z m 396.4375,0 c 0,110.11458 0,220.22917 0,330.34375 -110.125,0 -220.25,0 -330.375,0 0,-110.11458 0,-220.22917 0,-330.34375 110.125,0 220.25,0 330.375,0 z m 397.5625,0.0625 c -0.1042,110.11458 -0.2083,220.22917 -0.3125,330.34375 -110.3958,-0.0208 -220.7917,-0.0417 -331.1875,-0.0625 0,-110.11458 0,-220.22917 0,-330.34375 110.5,0.0208 221,0.0417 331.5,0.0625 z m -794,396.34375 c 0,99.11458 0,198.22917 0,297.34375 -99.1042,0 -198.2083,0 -297.3125,0 0,-99.11458 0,-198.22917 0,-297.34375 99.1042,0 198.2083,0 297.3125,0 z m 396.4375,0 c 0,99.11458 0,198.22917 0,297.34375 -110.125,0 -220.25,0 -330.375,0 0,-99.11458 0,-198.22917 0,-297.34375 110.125,0 220.25,0 330.375,0 z m 396.4375,0 c 0,99.11458 0,198.22917 0,297.34375 -110.125,0 -220.25,0 -330.375,0 0,-99.11458 0,-198.22917 0,-297.34375 110.125,0 220.25,0 330.375,0 z m 363.375,0 c 0,99.11458 0,198.22917 0,297.34375 -99.1042,0 -198.2083,0 -297.3125,0 0,-99.11458 0,-198.22917 0,-297.34375 99.1042,0 198.2083,0 297.3125,0 z"/><g transform="matrix(58.013614,0,0,58.013614,1096.264,-515.86586)"><path d="m 20,20.874 c 0,0 -1,0.281 -1,-1 0,-0.29 0,-0.631 0,-1.874 h -5 c -0.552,0 -1,-0.449 -1,-1 v -3 c 0,-0.551 0.448,-1 1,-1 h 5 c 0,-1.196 0,-1.53 0,-1.906 0,-1.344 1,-0.969 1,-0.969 L 25.928,15.5 20,20.874 z"/></g></g></svg>