<svg role="img" focusable="false" aria-hidden="true" xmlns="http://www.w3.org/2000/svg" viewBox="0 0 14 14"><path d="M 12.09927,10.248931 7.2144004,13 l 0,-2.142708 3.0435516,-1.666889 1.841262,1.058528 z m 0.334145,-0.301277 0,-5.753408 -1.787592,1.027183 0,3.697915 1.787592,1.02831 z M 1.90073,10.248931 6.7855995,13 l 0,-2.142708 -3.043551,-1.666889 -1.8412621,1.058528 z m -0.3341445,-0.301277 0,-5.753408 1.7875351,1.027183 0,3.697915 -1.7875351,1.02831 z M 1.775743,3.821991 6.7855995,1 l 0,2.07173 L 3.5760756,4.829329 3.5516076,4.843309 1.7757425,3.82199 Z m 10.448571,0 L 7.2144004,1 l 0,2.07173 3.2095246,1.757655 0.02447,0.01398 1.775865,-1.02132 z m -5.4386582,6.547925 -3.0027342,-1.643662 0,-3.25705 3.0026215,1.726254 0,3.174458 z m 0.4287446,0 3.0026216,-1.643662 0,-3.25705 -3.0026216,1.726254 0,3.174458 z M 3.9862722,5.09227 7.0005637,3.441561 10.014912,5.09227 7.0005637,6.825514 3.9862722,5.09227 Z"/></svg>