<svg role="img" focusable="false" aria-hidden="true" xmlns="http://www.w3.org/2000/svg" viewBox="0 0 14 14"><path d="M 5.1443125,1.0584 5.2643832,1.4665 4.8659576,1.5837 4.9242656,1.7819 5.3226911,1.6647 5.4107391,1.9641 5.01037,2.0818 5.068678,2.28 5.4690471,2.1623 5.5570951,2.4617 5.156726,2.5794 5.215034,2.7776 5.6154032,2.6599 l 0.088048,0.2992 -0.4023127,0.1184 0.058308,0.1982 0.4023127,-0.1184 0.088048,0.2994 -0.4042563,0.119 0.058308,0.1982 0.4042563,-0.119 0.097181,0.3304 C 4.4120684,4.5188 3.5125462,6.1677 3.9269705,7.7959 L 3.5868512,7.8959 3.4696491,7.4975 3.271408,7.5555 3.3886102,7.954 3.0893051,8.042 2.9721029,7.6436 2.7738619,7.7016 2.891064,8.1001 2.5917589,8.1881 2.4745569,7.7897 2.2763157,7.8477 2.3935179,8.2462 2.0942129,8.3342 1.9770108,7.9358 1.7787697,7.9938 1.8959718,8.3923 1.5966668,8.4803 1.4794646,8.0819 1.2812236,8.1399 1.3984257,8.5384 1.0000001,8.6556 1.0588941,8.8558 1.4573197,8.7386 1.5739364,9.135 1.7721775,9.077 1.6555608,8.6805 1.9548658,8.5925 2.0714825,8.9889 2.2697236,8.9309 2.1531068,8.5345 2.4524119,8.4465 2.5690286,8.8429 2.7672697,8.7849 2.650653,8.3884 2.9499581,8.3004 3.0665747,8.6968 3.2648159,8.6388 3.1481991,8.2424 3.4475041,8.1544 3.5641208,8.5508 3.7623619,8.4928 3.6457452,8.0964 3.9878082,7.9958 c 0.5341683,1.5917 2.1812677,2.493 3.8086554,2.0789 l 0.101191,0.344 -0.3925949,0.1155 0.058894,0.2001 0.3925949,-0.1154 0.087462,0.2973 -0.3945386,0.116 0.058894,0.2003 0.3945385,-0.116 0.087462,0.2972 -0.3945385,0.1161 0.058894,0.2002 0.3945386,-0.1161 0.087462,0.2974 -0.396482,0.1166 0.058894,0.2003 0.3964821,-0.1167 0.087462,0.2974 -0.3984256,0.1172 0.058894,0.2002 0.3984255,-0.1172 0.1148898,0.3905 0.198241,-0.058 L 8.7402137,12.5511 9.1386392,12.4339 9.0797452,12.2337 8.6813196,12.3509 8.5938576,12.0535 8.9942267,11.9358 8.9353327,11.7355 8.5349636,11.8533 8.4475016,11.556 8.8498143,11.4376 8.7909203,11.2374 8.3886078,11.3558 8.3011458,11.0584 8.7034585,10.9401 8.6445645,10.7398 8.242252,10.8582 8.15479,10.5609 8.5590462,10.4419 8.5001522,10.2418 8.095896,10.3606 7.9947049,10.0167 C 9.5870549,9.4834 10.483844,7.8341 10.071087,6.2066 l 0.338175,-0.1 L 10.526464,6.505 10.726649,6.446 10.609447,6.0476 10.906808,5.9606 11.02401,6.359 11.224195,6.3 11.106993,5.9016 11.404355,5.8146 11.521557,6.213 11.721741,6.154 11.604539,5.7556 11.9019,5.6686 12.019102,6.067 12.219287,6.008 12.102085,5.6096 12.399446,5.5226 12.516648,5.921 12.716834,5.862 12.599631,5.4636 13,5.3459 12.94111,5.1456 12.540741,5.2634 12.424123,4.867 l -0.200184,0.059 0.116616,0.3965 -0.297361,0.087 -0.116617,-0.3964 -0.200184,0.059 0.116617,0.3964 -0.297362,0.087 -0.116616,-0.3964 -0.200186,0.059 0.116618,0.3965 -0.297362,0.087 -0.116617,-0.3964 -0.200185,0.059 0.116617,0.3964 -0.297361,0.087 -0.116617,-0.3965 -0.200184,0.059 0.116616,0.3965 -0.336231,0.099 C 9.4809359,4.4123 7.8318062,3.5129 6.2035407,3.9273 L 6.1063597,3.5969 6.4989547,3.4815 6.4406467,3.2832 6.0480517,3.3987 5.9600037,3.0993 6.3545422,2.9833 6.2962342,2.7851 5.9016956,2.9011 5.8136476,2.6018 6.2101296,2.4852 6.1518216,2.287 5.7553396,2.4036 5.6672916,2.1043 6.0637737,1.9876 6.0054657,1.7894 5.6089837,1.9061 5.5209357,1.6067 5.9193613,1.4895 5.8610533,1.2913 5.4626278,1.4085 5.342557,1.0004 5.1443159,1.0584 Z M 6.0641912,4.1855 6.2980101,4.9804 C 5.2531067,5.3505 4.6655989,6.4249 4.9201204,7.5037 L 4.1252128,7.7376 C 3.7421687,6.2173 4.5786406,4.6868 6.0641912,4.1855 Z m 0.198241,-0.058 C 7.78264,3.7441 9.3147727,4.5785 9.8158964,6.0639 L 9.0209888,6.2978 C 8.6508033,5.2529 7.5751676,4.668 6.4962511,4.9224 L 6.2624322,4.1275 Z M 6.3563482,5.179 6.8714346,6.9301 5.1203056,7.4452 C 4.8968863,6.4745 5.4192432,5.5168 6.3563482,5.179 Z M 6.5545894,5.121 C 7.5251807,4.897 8.4830358,5.4198 8.8208048,6.3568 L 7.0696758,6.8719 6.5545894,5.121 Z M 4.1860506,7.9377 4.9809583,7.7039 c 0.371073,1.0433 1.444767,1.6303 2.5227942,1.376 L 7.7375713,9.8748 C 6.2182397,10.2579 4.6881247,9.4217 4.1860506,7.9377 Z M 5.1811429,7.645 6.9303284,7.1305 7.4454442,8.8817 C 6.4754152,9.1043 5.5197713,8.5806 5.1811429,7.645 Z M 7.1285695,7.0722 8.8777551,6.5577 C 9.0996131,7.5275 8.5799058,8.4858 7.6436852,8.8233 L 7.1285695,7.0722 Z M 9.0779397,6.4987 9.8728473,6.2649 C 10.254239,7.7844 9.4205162,9.3156 7.9358124,9.8165 L 7.7019931,9.0211 C 8.7460363,8.6513 9.3308705,7.5764 9.0779393,6.4983 Z"/></svg>