<svg aria-labelledby="brand-zapier" role="img" focusable="false" aria-hidden="true" xmlns="http://www.w3.org/2000/svg" viewBox="0 0 14 14"><path d="M 8.5,7.002 C 8.5,7.4485 8.4175,7.875 8.2695,8.2695 7.876,8.418 7.448,8.5 7.002,8.5 l -0.0045,0 C 6.551,8.5 6.125,8.4175 5.7305,8.2695 5.582,7.875 5.5,7.448 5.5,7.002 l 0,-0.0045 C 5.5,6.551 5.582,6.125 5.7305,5.7305 6.125,5.582 6.5515,5.5 6.9975,5.5 l 0.0045,0 C 7.4485,5.5 7.876,5.582 8.2695,5.731 8.418,6.125 8.5,6.5515 8.5,6.9985 l 0,0.0035 z M 12.9175,6 9.415,6 11.889,3.524 C 11.694,3.25 11.479,2.994 11.2415,2.7575 11.005,2.5205 10.749,2.304 10.4765,2.1095 l -2.477,2.4745 0,-3.5015 C 7.675,1.0305 7.343,1 7.002,1 L 6.997,1 C 6.657,1 6.324,1.0305 5.9995,1.0825 l 0,3.5025 -2.475,-2.4745 C 3.25,2.3035 2.9945,2.521 2.7575,2.7575 2.5205,2.9945 2.3035,3.251 2.1095,3.524 L 4.584,6 1.0825,6 C 1.0825,6 1,6.658 1,6.9975 L 1,7.002 c 0,0.34 0.0305,0.674 0.0825,0.9975 l 3.5025,0 -2.4745,2.476 c 0.3885,0.548 0.8665,1.0255 1.4135,1.415 L 6,9.4155 6,12.9175 C 6.324,12.97 6.6565,13 6.9955,13 l 0.0085,0 c 0.3395,0 0.672,-0.03 0.9955,-0.0825 l 0,-3.502 2.476,2.475 c 0.274,-0.1875 0.53,-0.406 0.7645,-0.645 l 0.0025,0 c 0.2365,-0.2325 0.453,-0.488 0.648,-0.7655 l -2.475,-2.4745 3.502,0 C 12.97,7.683 13,7.3535 13,7.0155 L 13,7 C 13,6.661 12.97,6.3285 12.9175,6.005"/></svg>