<svg role="img" focusable="false" aria-hidden="true" xmlns="http://www.w3.org/2000/svg" viewBox="0 0 14 14"><path d="M 8.71436,10.42863 H 7.8571 V 3.571452 h 0.85726 c 0.11605,0 0.21657,-0.04241 0.30131,-0.127233 0.0847,-0.08482 0.12715,-0.18526 0.12715,-0.301315 0,-0.116055 -0.0422,-0.216493 -0.12731,-0.301397 L 7.30132,1.127233 C 7.21658,1.042411 7.11606,1 7,1 6.88395,1 6.78351,1.04241 6.69869,1.127233 L 4.98441,2.841507 c -0.0848,0.0849 -0.12723,0.185342 -0.12723,0.301397 0,0.116055 0.0424,0.216493 0.12723,0.301315 0.0849,0.08482 0.18535,0.127233 0.3014,0.127233 h 0.85718 v 6.857178 h -0.8571 c -0.11613,0 -0.21657,0.04241 -0.30139,0.127151 -0.0848,0.0849 -0.12724,0.185425 -0.12724,0.301397 0,0.116055 0.0424,0.216493 0.12724,0.301397 l 1.71427,1.714192 C 6.78357,12.957587 6.88403,13 7.00008,13 7.11614,13 7.21666,12.95759 7.3014,12.872767 l 1.71427,-1.714192 c 0.0847,-0.0849 0.12715,-0.185342 0.12715,-0.301397 0,-0.115972 -0.0424,-0.216493 -0.12715,-0.301397 C 8.93097,10.470961 8.83049,10.42863 8.71436,10.42863 z"/></svg>