<svg role="img" focusable="false" aria-hidden="true" xmlns="http://www.w3.org/2000/svg" viewBox="0 0 14 14"><path d="m 10.700535,2.5193 0,-1.5193 -7.43356,0 0,1.5193 2.8215,0 0,7.7591 1.79056,0 0,-7.7591 2.8215,0 m 0.16783,7.7828 c 0.0571,0 0.15702,0.046 0.29977,0.1392 0.14274,0.093 0.27954,0.1915 0.41039,0.2962 0.13085,0.1047 0.2724,0.2213 0.42466,0.3497 0.15226,0.1285 0.23791,0.1999 0.25694,0.2141 0.12371,0.1 0.18557,0.2165 0.18557,0.3498 0,0.1332 -0.0619,0.2498 -0.18557,0.3497 -0.019,0.014 -0.10468,0.086 -0.25694,0.2141 -0.15226,0.1285 -0.29381,0.2451 -0.42466,0.3497 -0.13085,0.1047 -0.26765,0.2034 -0.41039,0.2962 -0.14275,0.093 -0.24267,0.1392 -0.29977,0.1392 -0.0618,0 -0.11062,-0.025 -0.14631,-0.075 -0.0357,-0.05 -0.0595,-0.1178 -0.0714,-0.2035 -0.0119,-0.086 -0.0178,-0.1653 -0.0178,-0.239 0,-0.074 0.004,-0.1523 0.0107,-0.2356 0.007,-0.083 0.0107,-0.1296 0.0107,-0.1392 l -7.30851,0 c 0,0.01 0.004,0.056 0.0107,0.1392 0.007,0.083 0.0107,0.1618 0.0107,0.2356 0,0.074 -0.006,0.1534 -0.0178,0.239 -0.0119,0.086 -0.0357,0.1535 -0.0714,0.2035 -0.0357,0.05 -0.0845,0.075 -0.14632,0.075 -0.0571,0 -0.15701,-0.046 -0.29976,-0.1392 -0.14274,-0.093 -0.27954,-0.1915 -0.41039,-0.2962 -0.13085,-0.1046 -0.2724,-0.2212 -0.42466,-0.3497 -0.15226,-0.1285 -0.23791,-0.1998 -0.25694,-0.2141 -0.12371,-0.1 -0.18557,-0.2165 -0.18557,-0.3497 0,-0.1333 0.0619,-0.2498 0.18557,-0.3498 0.019,-0.014 0.10468,-0.086 0.25694,-0.2141 0.15226,-0.1284 0.29381,-0.245 0.42466,-0.3497 0.13085,-0.1047 0.26765,-0.2034 0.41039,-0.2962 0.14275,-0.093 0.24267,-0.1392 0.29976,-0.1392 0.0619,0 0.11063,0.025 0.14632,0.075 0.0357,0.05 0.0595,0.1177 0.0714,0.2034 0.0119,0.086 0.0178,0.1653 0.0178,0.2391 0,0.074 -0.004,0.1522 -0.0107,0.2355 -0.007,0.083 -0.0107,0.1297 -0.0107,0.1392 l 7.30851,0 c 0,-0.01 -0.004,-0.056 -0.0107,-0.1392 -0.007,-0.083 -0.0107,-0.1618 -0.0107,-0.2355 0,-0.074 0.006,-0.1535 0.0178,-0.2391 0.0119,-0.086 0.0357,-0.1535 0.0714,-0.2034 0.0357,-0.05 0.0845,-0.075 0.14631,-0.075 z"/></svg>