<svg xmlns="http://www.w3.org/2000/svg" id="libre-browser-firefox" viewBox="0 0 14 14"><path d="m 23.234,7.349 -0.551,1.222 c 0,0 -0.243,-2.262 -0.611,-3.487 -0.368,-1.222 -1.16,-2.017 -1.16,-2.017 l 0.365,1.651 c 0,0 -1.281,-1.565 -2.51,-2.132 C 18.575,2.497 18.383,2.411 18.193,2.327 16.577,0.884 14.451,0 12.113,0 8.804,0 5.915,1.762 4.309,4.394 4.229,4.345 3.771,4.053 3.548,3.496 3.303,2.884 3.179,2.212 3.179,2.212 1.652,3.679 2.017,6.124 2.017,6.124 c 0,0 -0.611,0.612 -1.221,1.591 C 0.185,8.693 0,10.465 0,10.465 L 1.04,9.367 c 0,0 -0.244,0.487 -0.427,1.405 -0.184,0.918 -0.124,2.386 -0.124,2.386 L 1.04,11.994 c 0,0 0,3.731 3.547,7.031 3.545,3.301 9.902,4.221 14.733,0.062 4.831,-4.159 3.914,-11.738 3.914,-11.738 z M 12.113,1.2 c 1.889,0 3.62,0.661 4.983,1.76 l -1.75,0.291 c 0,0 1.771,0.551 3.117,1.59 0.336,0.26 0.61,0.585 0.834,0.926 0.295,0.627 0.511,1.298 0.634,2.003 L 19.076,7.103 c 0,0 0.304,0.367 0.366,1.345 0.062,0.978 -0.246,2.751 -0.246,2.751 l -0.792,-0.917 c 0,0 0.183,1.529 -0.123,2.875 -0.306,1.342 -0.978,1.891 -0.978,1.891 l 0.12,-1.588 c 0,0 -0.916,2.02 -3.484,2.812 -2.566,0.795 -5.011,-1.466 -5.011,-1.466 1.65,0.427 2.688,-0.429 3.546,-0.856 0.855,-0.429 1.282,-0.49 1.65,-0.49 0.366,0 0,-0.855 -0.674,-1.223 -0.672,-0.365 -1.466,-0.183 -3.056,0.246 C 8.803,12.911 7.824,11.565 7.888,10.65 7.947,9.73 9.416,10.281 9.416,10.281 L 9.356,8.448 c 0,0 2.444,-1.527 2.261,-1.896 C 11.435,6.185 10.579,6.31 9.844,6.063 9.112,5.82 8.684,5.146 8.684,5.146 c 0,0 -0.123,-0.489 0.121,-0.914 0.243,-0.429 1.099,-1.043 1.099,-1.043 0,0 -0.549,-0.06 -1.466,0.245 C 7.521,3.74 6.848,4.29 6.848,4.29 6.848,4.29 6.668,4.234 5.92,4.173 7.376,2.362 9.608,1.2 12.113,1.2 z"
 transform="matrix(0.51494558,0,0,0.51494558,1,1.370222)"/></svg>