<svg xmlns="http://www.w3.org/2000/svg" viewBox="0 0 14 14" id="libre-brand-angularjs"><path d="m 4.6547693,11.6838 c -1.28131,-0.724 -2.33285,-1.3192 -2.33677,-1.3227 -0.0129,-0.012 -0.82675,-7.3782 -0.81632,-7.3886 0.01,-0.01 4.63528,-1.6689 5.22251,-1.8733 l 0.28501,-0.099 2.63944,0.9453 c 1.4516897,0.5199 2.6868397,0.963 2.7447697,0.9847 0.0645,0.024 0.10521,0.055 0.10501,0.079 -5.6e-4,0.075 -0.81253,7.342 -0.82124,7.3503 -0.0201,0.019 -4.6643997,2.6403 -4.6779297,2.6403 -0.008,-10e-5 -1.06317,-0.5924 -2.34448,-1.3163 z m 0.48088,-2.8005 0.33614,-0.8826 0.27303,-0.016 c 0.3545,-0.02 2.15047,-0.02 2.50538,10e-5 l 0.27444,0.016 0.33578,0.8825 0.33578,0.8825 0.64754,0.01 c 0.4398097,0.01 0.6475397,0 0.6475397,-0.019 0,-0.014 -0.40734,-0.9207 -0.9051897,-2.0141 -0.49786,-1.0934 -1.28133,-2.8151 -1.74104,-3.826 -0.45972,-1.0108 -0.84362,-1.8305 -0.85311,-1.8216 -0.009,0.01 -0.22288,0.468 -0.47421,1.0201 -0.25132,0.552 -1.02854,2.2584 -1.72716,3.7919 -0.69861,1.5334 -1.27561,2.8078 -1.28222,2.8319 -0.0113,0.041 0.0269,0.043 0.63957,0.037 l 0.65158,-0.01 0.33615,-0.8826 z m 0.82438,-1.954 c 0.0453,-0.1292 1.02793,-2.4051 1.03848,-2.4051 0.0109,-1e-4 0.95226,2.184 1.02816,2.3853 0.0154,0.041 -0.0437,0.043 -1.02927,0.043 -0.65093,0 -1.04251,-0.01 -1.03737,-0.024 z"/></svg>