<?xml version="1.0" standalone="no"?>
<!DOCTYPE svg PUBLIC "-//W3C//DTD SVG 1.1//EN" "http://www.w3.org/Graphics/SVG/1.1/DTD/svg11.dtd" >
<svg xmlns="http://www.w3.org/2000/svg">
<metadata>Generated by IcoMoon</metadata>
<defs>
<font id="icomoon" horiz-adv-x="1024">
<font-face units-per-em="1024" ascent="960" descent="-64" />
<missing-glyph horiz-adv-x="1024" />
<glyph unicode="&#x20;" horiz-adv-x="512" d="" />
<glyph unicode="&#xe600;" glyph-name="libre-360view" d="M456.562 190.784v42.152l-47.928 6.071c-189.733 23.94-335.492 105.136-335.492 186.902 0 31.276 45.823 92.431 84.626 112.94 12.962 6.875 8.464-0.805-11.474-19.566-94.637-89 27.173-197.881 246.949-220.745l62.806-6.51-1.382 36.725c-0.761 20.202 0.761 38.868 3.372 41.479 2.611 2.633 29.354-20.165 59.426-50.615l54.676-55.362-115.579-115.58zM587.731 262.047c0 27.121 2.611 28.533 73.509 39.812 142.236 22.63 239.293 75.315 255.152 138.503 8.749 34.86-17.487 72.558-72.315 103.914-21.677 12.398-34.624 22.608-28.774 22.704 18.26 0 101.967-57.11 119.223-81.752 24.584-35.094 20.989-92.752-7.924-127.115-43.765-52.012-161.981-99.189-295.988-118.118-41.639-5.851-42.882-5.266-42.882 22.053zM289.619 470.834c-32.412 32.41-32.219 55.947 0.439 55.947 15.236 0 25.225-5.778 25.225-14.533 0-21.292 18.855-29.396 35.757-15.367 22.131 18.366 18.655 61.030-5.486 67.343-24.046 6.29-27.763 48.304-5.047 57.022 17.84 6.875 20.212 42.474 3.511 52.787-6.393 3.95-17.108 0-23.815-9.494-11.224-15.345-55.374-24.093-55.374-10.964 0 10.993 23.306 49.854 34.303 57.198 6.107 4.096 25.754 7.483 43.662 7.57 47.005 0 71.57-38.627 54.42-86.053-10.465-28.935-9.746-37.968 4.784-60.145 14.548-22.199 15.323-32.022 5.193-65.836-18.985-63.364-73.319-79.755-117.598-35.474zM479.39 461.486c-45.957 32.19-49.627 190.493-5.544 239.199 23.42 25.885 78.637 23.281 98.18-4.608 8.639-12.332 15.707-25.637 15.707-29.564 0-14.446-45.779-13.275-57.338 1.463-14.52 18.512-28.14 6.583-37.406-32.717-6.327-26.858 6.21-38.466 19.070-17.657 9.933 16.069 33.644 11.761 55.494-10.094 29.414-29.411 28.289-112.735-1.902-140.866-26.285-24.488-56.106-26.266-86.259-5.12zM535.264 498.533c17.34 17.342 14.937 63.795-4.118 79.609-13.787 11.44-18.338 10.576-30.269-5.705-16.702-22.843-16.96-26.544-4.206-60.094 10.868-28.584 20.384-31.985 38.592-13.78zM648.834 465.684c-38.308 38.305-42.249 192.139-5.947 232.251 26.139 28.884 81.11 27.707 100.040-2.121 34.397-54.235 31.416-189.374-5.040-228.506-24.74-26.558-63.402-27.253-89.050-1.609zM712.776 512.474c11.38 29.652 6.32 131.269-7.48 150.14-24.37 33.324-36.846 8.207-36.846-74.203 0-43.147 3.028-81.474 6.729-85.168 11.927-11.93 31.304-7.168 37.598 9.231zM783.361 702.652c-10.046 26.178 4.037 47.813 28.827 44.295 16.676-2.341 22.747-9.962 22.747-28.453s-6.071-26.090-22.747-28.46c-13.645-1.902-25.181 3.145-28.827 12.617zM819.801 712.856c0 7.995-4.228 17.152-9.393 20.341-11.996 7.417-24.060-11.476-15.833-24.795 9.278-15.009 25.226-12.2 25.226 4.462z" />
<glyph unicode="&#xe601;" glyph-name="libre-action" d="M676 497.143c-0.027 0-0.059 0-0.091 0-112.221 0-203.195-90.973-203.195-203.195 0-0.032 0-0.064 0-0.096v-324.995c0.030-112.199 90.992-203.143 203.195-203.143 0.032 0 0.064 0 0.096 0h324.995c112.181 0.030 203.113 90.962 203.143 203.14v325.003c0 0.027 0 0.059 0 0.091 0 112.203-90.944 203.165-203.14 203.195h-325.003z" />
<glyph unicode="&#xe602;" glyph-name="libre-action-add" d="M1024 185.351v-59.844q0-12.468-8.727-21.195t-21.195-8.727h-129.663v-129.662q0-12.468-8.727-21.195t-21.195-8.727h-59.844q-12.468 0-21.195 8.727t-8.727 21.195v129.662h-129.662q-12.468 0-21.195 8.727t-8.727 21.195v59.844q0 12.467 8.727 21.195t21.195 8.727h129.662v129.662q0 12.468 8.727 21.195t21.195 8.727h59.844q12.468 0 21.195-8.727t8.727-21.195v-129.662h129.663q12.468 0 21.195-8.727t8.727-21.195z" />
<glyph unicode="&#xe603;" glyph-name="libre-action-approve" d="M1024 206.676q0-11.326-7.928-19.255l-243.495-243.493q-7.928-7.929-19.253-7.929t-19.253 7.929l-141.001 141.001q-7.928 7.925-7.928 19.251t7.928 19.255l38.506 38.506q7.928 7.925 19.253 7.925t19.253-7.925l83.241-83.525 185.736 186.017q7.928 7.929 19.253 7.929t19.253-7.929l38.506-38.506q7.928-7.925 7.928-19.251z" />
<glyph unicode="&#xe604;" glyph-name="libre-action-delete" d="M1024 21.703q0-14.776-10.343-25.119l-50.24-50.24q-10.343-10.343-25.119-10.343t-25.12 10.343l-108.606 108.606-108.606-108.606q-10.343-10.343-25.12-10.343t-25.119 10.343l-50.24 50.24q-10.343 10.343-10.343 25.119t10.343 25.12l108.606 108.606-108.606 108.606q-10.343 10.343-10.343 25.12t10.343 25.119l50.24 50.24q10.343 10.343 25.119 10.343t25.12-10.343l108.606-108.606 108.606 108.606q10.343 10.343 25.12 10.343t25.119-10.343l50.24-50.24q10.343-10.343 10.343-25.119t-10.343-25.12l-108.606-108.606 108.606-108.606q10.343-10.343 10.343-25.12z" />
<glyph unicode="&#xe605;" glyph-name="libre-action-export" d="M841.644 155.116c-121.558-4.389-194.719 49.788-256.502 110 0-143.078 127.394-255.733 256.502-257.011v-72.104l182.356 145.887-182.356 145.882v-72.653z" />
<glyph unicode="&#xe606;" glyph-name="libre-action-select" d="M682.222 370.962c10.512 4.292 21.359 4.888 31.322 2.519 21.299-5.073 38.562-23.408 39.998-47.517-7.059 8.649-16.408 14.27-26.585 16.669-10.268 2.444-21.452 1.602-32.055-2.721-21.084-8.601-34.192-28.617-32.145-50.983-23.252 26.692-13.507 68.555 19.465 82.030zM698.51 63.239c20.595-12.801 85.406-48.43 151.591-127.239 59.831 24.447 117.095 47.794 173.899 70.955-25.76 63.25-6.201 98.606-31.841 161.43-17.507 42.872-32.359 47.012-60.806 48.479l8.984-22.154c5.468-13.337-14.698-21.466-20.076-8.204l-8.067 19.724c-6.54 16.104-27.563 11.994-45.96 12.101l10.94-26.829c5.41-13.277-14.667-21.526-20.106-8.204l-9.471 23.271c-6.723 16.454-28.632 11.702-47.179 11.383l11.581-28.403c5.468-13.399-14.728-21.465-20.107-8.237l-47.028 115.061c-14.606 35.782-70.037 14.577-54.941-22.443l69.366-170.050c-10.145 6.753-28.847 15.094-41.62 18.091-39.542 9.38-64.964-30.252-19.159-58.732z" />
<glyph unicode="&#xe607;" glyph-name="libre-activity" d="M73.143 372.184l303.961-23.486 29.186 46.263 79.727-244.875 122.439 337.415 68.338-161.587 274.063 43.425-219.251 32.746-128.845 343.83-119.591-407.896-69.050 169.421-59.084-119.589z" />
<glyph unicode="&#xe608;" glyph-name="libre-add" d="M950.857 507.844v-119.688q0-24.935-17.455-42.39t-42.389-17.454h-259.325v-259.325q0-24.935-17.454-42.39t-42.39-17.455h-119.688q-24.935 0-42.39 17.455t-17.454 42.39v259.325h-259.325q-24.935 0-42.39 17.454t-17.455 42.39v119.688q0 24.935 17.455 42.39t42.39 17.454h259.325v259.325q0 24.935 17.454 42.39t42.39 17.455h119.688q24.935 0 42.39-17.455t17.454-42.39v-259.325h259.325q24.935 0 42.389-17.454t17.455-42.39z" />
<glyph unicode="&#xe609;" glyph-name="libre-address-book" d="M128 502.857h82.286v-137.143h-82.286zM128 667.429h82.286v-137.143h-82.286zM128 338.286h82.286v-137.143h-82.286zM128 173.714h82.286v-137.143h-82.286zM237.714 886.857v-877.714h658.286v877.714h-658.286zM566.857 667.146c60.437 0 109.431-48.994 109.431-109.431s-48.994-109.431-109.431-109.431c-60.437 0-109.431 48.994-109.431 109.431s48.994 109.431 109.431 109.431zM731.429 228.571h-329.143v54.857c0 60.595 49.121 109.714 109.714 109.714v0h109.714c60.597 0 109.714-49.119 109.714-109.714v-54.857zM128 832h82.286v-137.143h-82.286z" />
<glyph unicode="&#xe60a;" glyph-name="libre-alien" d="M511.917 886.857c-213.381 0-386.522-164.893-386.522-368.145 0-203.418 286.612-509.569 386.522-509.569 100.076 0 386.688 306.151 386.688 509.569 0 203.252-173.085 368.145-386.688 368.145v0zM449.978 291.714c-17.491-17.602-78.268 15-135.501 73.12-57.345 57.898-89.559 119.228-72.068 136.94 17.436 17.768 78.157-14.89 135.446-72.898 57.178-58.009 89.615-119.283 72.123-137.162v0zM572.804 292.16c-17.713 17.709 14.945 78.928 73.12 136.882 58.064 57.953 119.449 90.556 137.273 72.732 17.713-17.602-15-78.821-73.064-136.719-58.119-57.953-119.615-90.445-137.328-72.898v0z" />
<glyph unicode="&#xe60b;" glyph-name="libre-align-center" d="M950.857 197.224v-62.694q0-12.735-9.306-22.041t-22.041-9.306h-815.021q-12.735 0-22.041 9.306t-9.306 22.041v62.694q0 12.735 9.306 22.041t22.041 9.307h815.021q12.735 0 22.041-9.307t9.306-22.041zM762.775 385.306v-62.694q0-12.735-9.306-22.041t-22.041-9.306h-438.857q-12.735 0-22.041 9.306t-9.306 22.041v62.694q0 12.735 9.306 22.041t22.041 9.306h438.857q12.735 0 22.041-9.306t9.306-22.041zM888.163 573.388v-62.694q0-12.735-9.306-22.041t-22.041-9.306h-689.633q-12.734 0-22.041 9.306t-9.306 22.041v62.694q0 12.735 9.306 22.041t22.041 9.306h689.633q12.734 0 22.041-9.306t9.306-22.041zM700.082 761.469v-62.694q0-12.735-9.306-22.041t-22.041-9.306h-313.47q-12.734 0-22.041 9.306t-9.306 22.041v62.694q0 12.735 9.306 22.041t22.041 9.306h313.47q12.734 0 22.041-9.306t9.306-22.041z" />
<glyph unicode="&#xe60c;" glyph-name="libre-align-justify" d="M950.857 197.224v-62.694q0-12.735-9.306-22.041t-22.041-9.306h-815.021q-12.735 0-22.041 9.306t-9.306 22.041v62.694q0 12.735 9.306 22.041t22.041 9.307h815.021q12.735 0 22.041-9.307t9.306-22.041zM950.857 385.306v-62.694q0-12.735-9.306-22.041t-22.041-9.306h-815.021q-12.735 0-22.041 9.306t-9.306 22.041v62.694q0 12.735 9.306 22.041t22.041 9.306h815.021q12.735 0 22.041-9.306t9.306-22.041zM950.857 573.388v-62.694q0-12.735-9.306-22.041t-22.041-9.306h-815.021q-12.735 0-22.041 9.306t-9.306 22.041v62.694q0 12.735 9.306 22.041t22.041 9.306h815.021q12.735 0 22.041-9.306t9.306-22.041zM950.857 761.469v-62.694q0-12.735-9.306-22.041t-22.041-9.306h-815.021q-12.735 0-22.041 9.306t-9.306 22.041v62.694q0 12.735 9.306 22.041t22.041 9.306h815.021q12.735 0 22.041-9.306t9.306-22.041z" />
<glyph unicode="&#xe60d;" glyph-name="libre-align-left" d="M950.857 197.224v-62.694q0-12.735-9.306-22.041t-22.041-9.306h-815.021q-12.735 0-22.041 9.306t-9.306 22.041v62.694q0 12.735 9.306 22.041t22.041 9.307h815.021q12.735 0 22.041-9.307t9.306-22.041zM762.775 385.306v-62.694q0-12.735-9.306-22.041t-22.041-9.306h-626.939q-12.735 0-22.041 9.306t-9.306 22.041v62.694q0 12.735 9.306 22.041t22.041 9.306h626.939q12.735 0 22.041-9.306t9.306-22.041zM888.163 573.388v-62.694q0-12.735-9.306-22.041t-22.041-9.306h-752.327q-12.735 0-22.041 9.306t-9.306 22.041v62.694q0 12.735 9.306 22.041t22.041 9.306h752.327q12.734 0 22.041-9.306t9.306-22.041zM700.082 761.469v-62.694q0-12.735-9.306-22.041t-22.041-9.306h-564.245q-12.735 0-22.041 9.306t-9.306 22.041v62.694q0 12.735 9.306 22.041t22.041 9.306h564.245q12.734 0 22.041-9.306t9.306-22.041z" />
<glyph unicode="&#xe60e;" glyph-name="libre-align-right" d="M950.857 197.224v-62.694q0-12.735-9.306-22.041t-22.041-9.306h-815.021q-12.735 0-22.041 9.306t-9.306 22.041v62.694q0 12.735 9.306 22.041t22.041 9.307h815.021q12.735 0 22.041-9.307t9.306-22.041zM950.857 385.306v-62.694q0-12.735-9.306-22.041t-22.041-9.306h-626.939q-12.735 0-22.041 9.306t-9.306 22.041v62.694q0 12.735 9.306 22.041t22.041 9.306h626.939q12.735 0 22.041-9.306t9.306-22.041zM950.857 573.388v-62.694q0-12.735-9.306-22.041t-22.041-9.306h-752.327q-12.734 0-22.041 9.306t-9.306 22.041v62.694q0 12.735 9.306 22.041t22.041 9.306h752.327q12.735 0 22.041-9.306t9.306-22.041zM950.857 761.469v-62.694q0-12.735-9.306-22.041t-22.041-9.306h-564.245q-12.734 0-22.041 9.306t-9.306 22.041v62.694q0 12.735 9.306 22.041t22.041 9.306h564.245q12.735 0 22.041-9.306t9.306-22.041z" />
<glyph unicode="&#xe60f;" glyph-name="libre-ankh" d="M754.546 396.655l-211.803 15.977 45.265-403.49h-152.015l45.266 403.49-211.804-15.977v100.214l190.745-23.238c-34.79 53.957-91.956 146.804-91.8 235.354 0.162 91.5 59.552 177.872 143.601 177.872s143.44-86.373 143.6-177.872c0.157-88.551-57.010-181.396-91.799-235.354l190.745 23.239v-100.215zM454.982 792.576c-8.754-11.573-16.007-25.793-20.978-41.125-5.258-16.218-7.939-33.153-7.969-50.338v0c0-0.073 0-0.146 0-0.293 0-31.624 9.638-69.223 28.647-111.761 16.953-37.935 38.478-73.375 57.319-103.059 18.84 29.684 40.367 65.124 57.319 103.059 19.009 42.538 28.647 80.137 28.647 111.761 0 0.073 0 0.146-0.001 0.293-0.029 17.184-2.711 34.12-7.969 50.338-4.97 15.331-12.224 29.552-20.978 41.125-11.223 14.838-30.224 32.527-57.018 32.527s-45.797-17.688-57.019-32.527z" />
<glyph unicode="&#xe610;" glyph-name="libre-approve" d="M950.857 652.99q0-22.652-15.855-38.51l-486.99-486.985q-15.855-15.857-38.506-15.857t-38.506 15.857l-282.002 282.002q-15.855 15.85-15.855 38.502t15.855 38.51l77.013 77.012q15.855 15.85 38.506 15.85t38.506-15.85l166.483-167.051 371.471 372.034q15.855 15.857 38.506 15.857t38.506-15.857l77.013-77.012q15.855-15.85 15.855-38.502z" />
<glyph unicode="&#xe611;" glyph-name="libre-archive" d="M613.275 484.571q0 14.857-10.022 25.714t-23.736 10.857h-135.033q-13.714 0-23.736-10.857t-10.022-25.714 10.022-25.714 23.736-10.857h135.033q13.714 0 23.736 10.857t10.022 25.714zM917.099 594.286v-548.571q0-14.857-10.022-25.714t-23.736-10.857h-742.681q-13.714 0-23.736 10.857t-10.022 25.714v548.571q0 14.857 10.022 25.714t23.736 10.857h742.681q13.714 0 23.736-10.857t10.022-25.714zM950.857 850.286v-146.286q0-14.857-10.022-25.714t-23.736-10.857h-810.198q-13.714 0-23.736 10.857t-10.022 25.714v146.286q0 14.857 10.022 25.714t23.736 10.857h810.198q13.714 0 23.736-10.857t10.022-25.714z" />
<glyph unicode="&#xe612;" glyph-name="libre-arrow-circle-down" d="M761.965 533.687l-235.672-261.83q-6.035-6.714-14.293-6.714t-14.293 6.714l-235.672 261.83q-6.035 6.714-6.035 16.077t6.035 16.077l52.725 58.302q6.035 6.713 14.293 6.713t14.293-6.713l168.655-187.628 168.655 187.628q6.035 6.713 14.293 6.713t14.293-6.713l52.725-58.302q6.034-6.714 6.034-16.077t-6.034-16.077zM512 886.857c-242.377 0-438.857-196.48-438.857-438.857s196.48-438.857 438.857-438.857c242.377 0 438.857 196.48 438.857 438.857s-196.48 438.857-438.857 438.857zM512 89.6c-197.934 0-358.391 160.466-358.391 358.4s160.457 358.4 358.391 358.4c197.943 0 358.4-160.466 358.4-358.4s-160.457-358.4-358.4-358.4z" />
<glyph unicode="&#xe613;" glyph-name="libre-arrow-circle-right" d="M688.15 433.707l-261.93-235.672q-6.707-6.035-15.885-6.035t-15.885 6.035l-58.599 52.724q-6.707 6.035-6.707 14.293t6.707 14.293l187.446 168.655-187.446 168.655q-6.707 6.035-6.707 14.293t6.707 14.293l58.599 52.724q6.707 6.035 15.885 6.035t15.885-6.035l261.93-235.672q6.707-6.034 6.707-14.293t-6.707-14.293zM512 886.857c-242.377 0-438.857-196.48-438.857-438.857s196.48-438.857 438.857-438.857c242.377 0 438.857 196.48 438.857 438.857s-196.48 438.857-438.857 438.857zM512 89.6c-197.934 0-358.391 160.466-358.391 358.4s160.457 358.4 358.391 358.4c197.943 0 358.4-160.466 358.4-358.4s-160.457-358.4-358.4-358.4z" />
<glyph unicode="&#xe614;" glyph-name="libre-arrow-down" d="M950.857 470.194q0-31.368-20.844-53.267l-366.747-385.887q-21.971-21.898-51.266-21.898-29.858 0-50.703 21.898l-366.747 385.887q-21.408 21.307-21.408 53.267 0 31.368 21.408 53.858l41.689 44.389q21.971 21.899 51.266 21.899 29.858 0 50.703-21.899l165.628-174.004v416.663q0 30.776 21.407 53.267t50.703 22.49h72.11q29.294 0 50.703-22.49t21.407-53.267v-416.663l165.628 174.004q20.844 21.899 50.703 21.899 29.294 0 51.266-21.899l42.252-44.389q20.844-23.082 20.844-53.858z" />
<glyph unicode="&#xe615;" glyph-name="libre-arrow-left" d="M926.633 484.055v-72.11q0-29.858-18.309-50.984t-47.604-21.126h-396.605l165.064-165.628q21.407-20.281 21.407-50.703t-21.407-50.702l-42.252-42.816q-20.844-20.844-50.703-20.844-29.294 0-51.266 20.844l-366.747 367.31q-20.844 20.844-20.844 50.703 0 29.294 20.844 51.266l366.747 366.184q21.407 21.407 51.266 21.407 29.294 0 50.703-21.407l42.252-41.689q21.407-21.408 21.407-51.266t-21.407-51.266l-165.064-165.064h396.605q29.294 0 47.604-21.126t18.309-50.984z" />
<glyph unicode="&#xe616;" glyph-name="libre-arrow-right" d="M926.633 448q0-30.422-20.844-51.266l-366.747-366.747q-21.971-20.844-51.266-20.844-28.731 0-50.702 20.844l-42.252 42.252q-21.407 21.408-21.407 51.266t21.407 51.266l165.064 165.064h-396.605q-29.295 0-47.604 21.126t-18.309 50.984v72.11q0 29.858 18.309 50.984t47.604 21.126h396.605l-165.064 165.628q-21.407 20.281-21.407 50.703t21.407 50.702l42.252 42.252q21.407 21.407 50.702 21.407 29.858 0 51.266-21.407l366.747-366.747q20.844-19.718 20.844-50.703z" />
<glyph unicode="&#xe617;" glyph-name="libre-arrow-up" d="M950.857 423.775q0-28.731-20.844-50.702l-42.252-42.252q-21.408-21.407-51.266-21.407-30.422 0-50.703 21.407l-165.628 165.064v-396.605q0-29.295-21.126-47.604t-50.984-18.309h-72.11q-29.858 0-50.984 18.309t-21.126 47.604v396.605l-165.628-165.064q-20.281-21.407-50.703-21.407t-50.702 21.407l-42.252 42.252q-21.407 21.407-21.407 50.702 0 29.858 21.407 51.266l366.747 366.747q19.718 20.844 50.703 20.844 30.422 0 51.266-20.844l366.747-366.747q20.844-21.971 20.844-51.266z" />
<glyph unicode="&#xe618;" glyph-name="libre-athiest" d="M442.758 11.963c-79.572 16.479-157.837 79.704-186.921 151.011-10.348 25.373-8.26 101.976 3.847 141.027 8.577 27.67 60.909 149.138 189.622 440.152 16.964 38.356 34.097 70.722 39.392 74.43 5.361 3.73 19.304 6.583 32.576 6.583 37.258 0 42.56-7.365 63.976-88.876 9.953-37.888 40.010-151.881 66.794-253.316 26.783-101.442 56.11-213.131 65.171-248.203l16.475-63.759-14.433-12.902c-9.965-8.901-19.137-12.895-29.632-12.895-13.479 0-18.185 3.657-41.583 32.227-36.302 44.332-97.080 101.727-147.57 139.374-65.618 48.918-81.955 55.091-94.641 35.723-13.007-19.851-74.176-172.12-74.176-184.642 0-14.57 29.317-44.551 62.695-64.117 42.122-24.678 140.898-30.727 212.842-13.041 117.822 28.972 228.949 129.602 263.846 238.914 51.189 160.344 6.064 319.488-118.514 417.997-68.592 54.243-138.962 80.706-226.225 85.087-95.926 4.827-162.567-13.934-244.944-68.923-33.433-22.316-82.522-72.397-106.44-108.581-23.73-35.913-46.643-94.661-54.183-138.928-13.877-81.481-6.897-150.755 24.455-242.666 29.368-86.089 19.868-108.405-16.837-39.541-41.616 78.087-56.613 144.406-53.264 235.542 2.56 69.603 14.282 116.407 43.852 175.053 25.381 50.33 40.475 71.102 81.294 111.865 43.248 43.184 89.56 74.657 142.861 97.104 52.138 21.957 85.334 28.818 155.215 32.073 51.845 2.414 62.893 1.536 107.648-8.667 84.757-19.302 154.806-58.288 215.453-119.903 68.142-69.237 106.518-144.157 123.621-241.349 8.81-50.059 3.643-141.48-10.713-189.637-36.736-123.216-126.473-226.794-242.688-280.093-55.007-25.234-98.341-34.743-166.656-36.579-34.22-0.951-71.217 0-82.217 2.487zM586.706 344.075c-6.773 28.752-47.41 188.431-55.985 219.984-5.149 18.944-10.738 34.443-12.418 34.443-3.928 0-88.877-184.283-88.877-192.797 0-4.096 6.824-7.534 18.887-9.509 27.222-4.462 73.051-24.803 103.578-46 31.561-21.906 38.833-23.186 34.815-6.144z" />
<glyph unicode="&#xe619;" glyph-name="libre-back" d="M73.143 423.619l341.333-341.333v195.048c341.333 48.762 487.619 292.571 536.381 536.381-121.905-170.667-292.571-248.686-536.381-248.686v199.924l-341.333-341.333z" />
<glyph unicode="&#xe61a;" glyph-name="libre-badge-1" d="M1024 359.093l-96.974-59.856 35.219-107.237-111.912-23.582-4.149-112.633-113.353 15.534-43.015-104.443-101.12 52.778-76.695-83.655-76.695 83.655-101.12-52.778-43.015 104.443-113.353-15.534-4.149 112.633-111.912 23.582 35.219 107.237-96.974 59.856 70.338 88.907-70.338 88.907 96.974 59.856-35.219 107.237 111.912 23.582 4.149 112.633 113.353-15.534 43.015 104.443 101.12-52.781 76.695 83.657 76.695-83.657 101.12 52.781 43.015-104.443 113.353 15.534 4.149-112.633 111.912-23.582-35.219-107.237 96.974-59.856-70.338-88.907z" />
<glyph unicode="&#xe61b;" glyph-name="libre-badge-2" d="M433.109 920.621c18.765 24.814 47.939 39.379 78.888 39.379s60.123-14.565 78.888-39.379c26.298-34.781 71.961-48.298 112.735-33.375 29.090 10.648 61.445 6.992 87.478-9.874 26.037-16.87 42.772-45.028 45.25-76.13 3.472-43.597 34.64-79.862 76.944-89.535 30.183-6.905 55.44-27.609 68.298-55.994 12.857-28.383 11.838-61.191-2.754-88.71-20.453-38.57-13.682-86.066 16.722-117.261 21.693-22.258 31.836-53.448 27.432-84.334s-22.854-57.931-49.885-73.127c-37.888-21.296-57.657-64.944-48.809-107.761 6.311-30.548-1.879-62.317-22.145-85.901-20.266-23.581-50.288-36.277-81.175-34.322-43.294 2.736-83.329-23.205-98.846-64.050-11.070-29.14-34.993-51.401-64.689-60.194-29.694-8.791-61.758-3.101-86.695 15.377-34.95 25.902-82.542 25.902-117.494 0-24.936-18.48-57.001-24.168-86.695-15.377-29.694 8.793-53.618 31.054-64.689 60.194-15.517 40.845-55.552 66.785-98.844 64.050-30.889-1.953-60.911 10.741-81.177 34.322-20.266 23.584-28.456 55.353-22.143 85.901 8.848 42.817-10.924 86.464-48.809 107.761-27.032 15.194-45.481 42.239-49.885 73.127s5.741 62.076 27.432 84.334c30.402 31.195 37.175 78.691 16.722 117.261-14.594 27.519-15.614 60.327-2.756 88.71 12.857 28.385 38.114 49.093 68.297 55.994 42.305 9.671 73.47 45.935 76.944 89.535 2.48 31.102 19.212 59.257 45.25 76.13 26.035 16.867 58.388 20.522 87.48 9.874 40.769-14.926 86.431-1.404 112.73 33.375z" />
<glyph unicode="&#xe61c;" glyph-name="libre-badge-3" d="M913.843 614.45l92.709-33.934-63.321-75.744 80.769-56.772-80.769-56.772 63.321-75.742-92.709-33.936 41.561-89.55-98.334-8.781 16.968-97.258-97.258 16.968-8.781-98.334-89.55 41.561-33.936-92.709-75.741 63.322-56.772-80.769-56.772 80.769-75.741-63.322-33.936 92.709-89.55-41.561-8.781 98.334-97.258-16.968 16.968 97.258-98.334 8.781 41.561 89.55-92.709 33.936 63.321 75.742-80.769 56.772 80.769 56.772-63.321 75.744 92.709 33.934-41.561 89.55 98.334 8.781-16.968 97.258 97.258-16.968 8.781 98.334 89.55-41.561 33.936 92.711 75.741-63.324 56.772 80.769 56.772-80.769 75.741 63.324 33.936-92.711 89.55 41.561 8.781-98.334 97.258 16.968-16.968-97.258 98.334-8.781z" />
<glyph unicode="&#xe61d;" glyph-name="libre-badge-4" d="M447.943 939.878c38.144 26.82 89.969 26.82 128.113 0l53.837-37.854c18.69-13.141 41.26-20.19 64.417-20.117l66.709 0.219c47.263 0.146 89.19-29.124 103.645-72.368l20.405-61.041c7.081-21.186 21.034-39.64 39.815-52.661l54.098-37.511c38.328-26.576 54.344-73.945 39.59-117.097l-20.827-60.906c-7.229-21.141-7.229-43.952 0-65.091l20.827-60.908c14.754-43.15-1.26-90.52-39.59-117.094l-54.098-37.51c-18.781-13.022-32.731-31.476-39.815-52.662l-20.405-61.040c-14.454-43.244-56.382-72.52-103.645-72.366l-66.709 0.219c-23.157 0.073-45.729-6.971-64.417-20.115l-53.837-37.854c-38.144-26.82-89.969-26.82-128.113 0l-53.837 37.854c-18.69 13.141-41.26 20.19-64.417 20.115l-66.708-0.219c-47.263-0.146-89.19 29.122-103.645 72.366l-20.405 61.040c-7.081 21.186-21.034 39.641-39.815 52.662l-54.098 37.51c-38.328 26.574-54.344 73.945-39.59 117.094l20.827 60.908c7.229 21.141 7.229 43.953 0 65.091l-20.824 60.908c-14.754 43.153 1.26 90.52 39.59 117.097l54.098 37.51c18.781 13.019 32.731 31.473 39.815 52.662l20.405 61.040c14.454 43.244 56.382 72.52 103.645 72.369l66.709-0.219c23.157-0.072 45.729 6.978 64.417 20.117l53.834 37.851z" />
<glyph unicode="&#xe61e;" glyph-name="libre-badge-5" d="M937.711 732.451l-31.157-73.557 78.473-14.96-44.912-66.068 74.049-29.982-56.936-56.034 66.774-43.851-66.774-43.853 56.936-56.032-74.049-29.982 44.912-66.068-78.473-14.96 31.157-73.557-79.882 0.658 16.21-78.227-78.227 16.21 0.636-79.884-73.557 31.16-14.96-78.473-66.068 44.912-29.982-74.048-56.029 56.939-43.853-66.796-43.853 66.777-56.032-56.939-29.982 74.048-66.068-44.912-14.96 78.473-73.557-31.16 0.636 79.884-78.227-16.21 16.21 78.227-79.882-0.658 31.157 73.557-78.473 14.96 44.912 66.068-74.049 29.982 56.936 56.032-66.771 43.872 66.774 43.851-56.936 56.034 74.049 29.982-44.912 66.068 78.473 14.96-31.157 73.557 79.882-0.658-16.21 78.224 78.227-16.21-0.636 79.884 73.557-31.16 14.96 78.473 66.068-44.912 29.982 74.048 56.032-56.939 43.851 66.798 43.853-66.777 56.032 56.939 29.982-74.048 66.068 44.912 14.96-78.473 73.557 31.16-0.636-79.884 78.227 16.21-16.21-78.224z" />
<glyph unicode="&#xe61f;" glyph-name="libre-badge-6" d="M395.326 883.436c20.167 46.485 66.006 76.564 116.674 76.564s96.507-30.079 116.674-76.564c40.707 30.176 95.441 33.303 139.327 7.969 43.881-25.334 68.536-74.305 62.76-124.643 50.343 5.778 99.309-18.879 124.643-62.762 25.337-43.881 22.207-98.618-7.968-139.324 46.485-20.167 76.564-66.006 76.564-116.675 0-50.673-30.079-96.508-76.564-116.675 30.176-40.709 33.305-95.441 7.968-139.327-25.334-43.881-74.302-68.539-124.643-62.762 5.776-50.34-18.879-99.306-62.76-124.641-43.883-25.337-98.62-22.207-139.327 7.969-20.167-46.485-66.006-76.564-116.674-76.564s-96.507 30.079-116.674 76.564c-40.707-30.176-95.441-33.306-139.327-7.969-43.881 25.334-68.539 74.303-62.76 124.641-50.343-5.778-99.309 18.882-124.643 62.762-25.337 43.884-22.207 98.618 7.968 139.327-46.485 20.167-76.564 66.001-76.564 116.675 0 50.671 30.079 96.508 76.564 116.675-30.176 40.706-33.305 95.441-7.968 139.324 25.334 43.884 74.302 68.539 124.643 62.762-5.779 50.341 18.879 99.309 62.76 124.643 43.883 25.337 98.62 22.207 139.327-7.969z" />
<glyph unicode="&#xe620;" glyph-name="libre-badge-7" d="M512 960l45.024-49.113c18.62-20.311 48.876-25.565 73.429-12.75l59.362 30.986 25.253-61.316c10.443-25.359 37.049-40.485 64.571-36.713l66.545 9.122 2.436-66.123c1.007-27.347 20.756-50.521 47.927-56.248l65.699-13.844-20.675-62.953c-8.553-26.040 1.956-54.468 25.5-69.001l56.929-35.139-41.292-52.194c-17.078-21.586-17.078-51.841 0-73.427l41.292-52.194-56.929-35.139c-23.544-14.532-34.053-42.96-25.5-69.001l20.675-62.953-65.699-13.844c-27.174-5.727-46.92-28.901-47.927-56.248l-2.436-66.123-66.545 9.122c-27.522 3.774-54.128-11.353-64.571-36.712l-25.253-61.316-59.362 30.986c-24.554 12.815-54.809 7.561-73.429-12.75l-45.024-49.115-45.024 49.113c-18.62 20.311-48.876 25.565-73.429 12.75l-59.362-30.986-25.253 61.316c-10.443 25.359-37.049 40.485-64.571 36.713l-66.545-9.122-2.436 66.123c-1.006 27.347-20.755 50.521-47.926 56.248l-65.699 13.847 20.675 62.953c8.553 26.040-1.956 54.469-25.5 69.001l-56.929 35.139 41.292 52.194c17.078 21.586 17.078 51.841 0 73.427l-41.292 52.194 56.929 35.139c23.544 14.533 34.053 42.961 25.5 69.001l-20.675 62.951 65.699 13.844c27.174 5.727 46.92 28.901 47.927 56.248l2.436 66.123 74.401-10.201c22.901-3.138 45.042 9.449 53.731 30.551l28.236 68.556 59.362-30.986c24.554-12.815 54.809-7.561 73.429 12.75l45.024 49.115z" />
<glyph unicode="&#xe621;" glyph-name="libre-badge-8" d="M922.594 128.775l-148.327-1.404-34.406-140.671-134.259 61.482-93.602-112.182-93.602 112.185-134.259-61.482-34.406 140.671-148.324 1.404 31.604 141.29-133.013 64.001 91.356 113.93-91.356 113.93 133.013 64.004-31.604 141.292 148.324 1.397 34.406 140.671 134.259-61.482 93.602 112.187 93.602-112.185 134.259 61.482 34.406-140.671 148.327-1.397-31.607-141.292 133.013-64.004-91.356-113.93 91.356-113.93-133.013-64.004z" />
<glyph unicode="&#xe622;" glyph-name="libre-badge-9" d="M461.622 936.565c12.33 14.828 30.836 23.435 50.378 23.435s38.048-8.607 50.38-23.435l17.654-21.231c18.823-22.63 50.988-29.813 77.989-17.408l25.326 11.634c17.69 8.128 38.18 8.028 55.786-0.293 17.611-8.294 30.459-23.9 34.996-42.494l6.49-26.619c6.92-28.379 32.714-48.499 62.543-48.78l27.979-0.293c19.542-0.219 37.961-8.967 50.144-23.913 12.185-14.942 16.841-34.458 12.676-53.134l-5.962-26.738c-6.355-28.503 7.959-57.578 34.708-70.49l25.090-12.112c17.525-8.46 30.223-24.188 34.571-42.821 4.351-18.636-0.11-38.194-12.15-53.251l-17.232-21.561c-18.371-22.986-18.371-55.252 0-78.239l17.232-21.562c12.038-15.059 16.5-34.617 12.15-53.25-4.348-18.636-17.044-34.364-34.571-42.822l-25.090-12.112c-26.749-12.912-41.064-41.986-34.708-70.489l5.962-26.739c4.165-18.676-0.49-38.192-12.676-53.134-12.185-14.945-30.602-23.728-50.144-23.913l-27.979-0.293c-29.829-0.293-55.626-20.4-62.543-48.78l-6.49-26.621c-4.533-18.591-17.385-34.2-34.996-42.494-17.606-8.294-38.096-8.391-55.786-0.293l-25.326 11.753c-27.001 12.403-59.166 5.222-77.989-17.41l-17.654-21.231c-12.335-14.828-30.838-23.435-50.38-23.435s-38.048 8.607-50.378 23.435l-17.657 21.231c-18.823 22.63-50.988 29.813-77.986 17.41l-25.329-11.636c-17.687-8.128-38.177-8.028-55.786 0.293-17.608 8.291-30.46 23.9-34.993 42.494l-6.493 26.621c-6.92 28.379-32.714 48.499-62.54 48.78l-27.982 0.293c-19.54 0.219-37.961 8.967-50.144 23.913-12.185 14.942-16.841 34.458-12.676 53.134l5.964 26.739c6.355 28.505-7.959 57.577-34.708 70.489l-25.092 12.112c-17.525 8.458-30.223 24.186-34.571 42.822-4.348 18.633 0.117 38.191 12.15 53.25l17.232 21.562c18.371 22.985 18.371 55.254 0 78.239l-17.232 21.561c-12.035 15.059-16.498 34.617-12.15 53.251s17.047 34.364 34.571 42.821l25.092 12.112c26.749 12.912 41.064 41.987 34.708 70.49l-5.964 26.738c-4.165 18.676 0.49 38.192 12.676 53.134 12.185 14.945 30.604 23.726 50.144 23.913l27.982 0.293c29.827 0.293 55.623 20.401 62.54 48.78l6.493 26.619c4.531 18.594 17.385 34.2 34.993 42.494 17.608 8.291 38.099 8.389 55.786 0.293l25.329-11.634c26.998-12.402 59.163-5.222 77.986 17.408l17.657 21.231z" />
<glyph unicode="&#xe623;" glyph-name="libre-ban" d="M822.857 448.285q0 91.701-49.714 168.024l-430.857-428.89q78.286-50.692 169.714-50.692 63.429 0 120.857 24.776t99.143 66.355 66.286 99.391 24.572 121.035zM252 277.982l431.429 429.459q-77.143 51.831-171.429 51.831-84.571 0-156-41.579t-113.143-113.345-41.714-156.063q0-92.271 50.857-170.303zM950.857 448.285q0-89.423-34.857-170.872t-93.429-140.115-140-93.41-170.571-34.744-170.571 34.744-140 93.41-93.429 140.115-34.857 170.872 34.857 170.588 93.429 139.831 140 93.41 170.571 34.744 170.571-34.744 140-93.41 93.429-139.831 34.857-170.588z" />
<glyph unicode="&#xe624;" glyph-name="libre-barcode" d="M104 9.143h-30.857v877.714h30.857v-877.714zM134.857 9.765h-15.673v877.093h15.673v-877.091zM180.898 9.765h-15.183v877.093h15.183v-877.091zM257.796 9.765h-15.184v877.093h15.184v-877.091zM334.694 9.765h-30.367v877.093h30.367v-877.091zM396.408 9.765h-15.184v877.093h15.184v-877.091zM427.265 9.765h-15.184v877.093h15.184v-877.091zM458.122 9.765h-15.184v877.093h15.184v-877.091zM535.020 9.765h-30.857v877.093h30.857v-877.091zM611.918 9.765h-30.857v877.093h30.857v-877.091zM673.633 9.765h-30.857v877.093h30.857v-877.091zM735.347 9.765h-30.857v877.093h30.857v-877.091zM781.388 9.765h-30.858v877.093h30.858v-877.091zM873.959 9.765h-46.041v877.093h46.041v-877.091zM904.817 9.765h-15.674v877.093h15.674v-877.091zM950.857 9.143h-30.858v877.714h30.858v-877.714z" />
<glyph unicode="&#xe625;" glyph-name="libre-bold" d="M237.098 26.405c51.775-11.096 142.999-17.262 210.799-17.262 183.679 0 339.005 80.128 339.005 250.244 0 102.32-60.404 182.448-178.748 200.938 101.085 23.428 175.050 88.759 173.817 199.709-1.236 138.064-114.646 226.823-322.979 226.823-51.776 0-152.861-4.901-221.894-13.561v-846.892zM399.82 510.874v235.454c24.655 2.487 44.379 2.487 70.266 2.487 93.689 0 139.301-53.014 139.301-115.88 0-77.663-61.637-122.039-166.42-122.039h-43.146zM399.82 378.99h57.939c103.551 0 156.559-43.147 156.559-122.046 0-72.726-70.266-109.714-146.696-109.714-22.19 0-45.612 0-67.801 2.487v229.296z" />
<glyph unicode="&#xe626;" glyph-name="libre-bookmark" d="M815.98 886.857q13.343 0 25.525-5.221 19.144-7.542 30.457-23.785t11.312-35.967v-747.768q0-19.724-11.312-35.967t-30.457-23.785q-11.022-4.641-25.525-4.641-27.845 0-48.15 18.564l-255.83 245.969-255.831-245.969q-20.884-19.144-48.149-19.144-13.343 0-25.525 5.221-19.144 7.542-30.456 23.785t-11.312 35.967v747.768q0 19.724 11.312 35.967t30.456 23.785q12.183 5.221 25.525 5.221h607.961z" />
<glyph unicode="&#xe627;" glyph-name="libre-browser-chrome" d="M876.225 614.252l-250.454 9.537c-21.531 0.819-23.091-6.006-5.578-18.567 52.794-37.855 139.191-130.415 32.648-286.944l-153.974-272.999c-10.59-18.762-1.697-35.378 19.834-34.773 257.397 7.197 509.372 259.172 409.967 565.677-6.65 20.497-30.912 37.25-52.443 38.069zM165.487 654.779c-11.019 18.508-30.132 19.269-40.488 0.373-102.623-187.265-66.134-498.821 229.528-615.662 20.029-7.918 48.113 0.197 62.136 16.538l163.257 190.483c14.022 16.363 9.673 21.707-11.058 15.875-55.973-15.778-163.94-24.515-233.955 107.753l-169.42 284.64zM840.32 679.275c21.395 2.477 29.664 19.444 16.304 36.353-132.307 167.665-439.28 257.69-649.051 47.002-15.193-15.271-19.074-44.583-10.083-64.164l104.125-226.368c9.010-19.561 14.335-17.923 16.655 3.491 6.163 56.948 40.624 157.27 205.754 167.158l316.295 36.529z" />
<glyph unicode="&#xe628;" glyph-name="libre-browser-edge" d="M270.994 654.387c-104.417-64.998-164.095-157.364-164.095-157.364s15.465 193.675 164.095 307.002c59.112 45.071 139.929 82.832 248.629 82.832 40.835 0 126.466-7.102 203.599-54.659 77.132-47.555 108.296-87.389 143.045-145.709 14.995-25.166 27.207-57.495 34.825-88.68 14.274-58.429 16.009-128.307 16.009-128.307v-92.052h-551.249c0 0-13.463-185.205 240.052-185.205 88.169 0 119.043 13.851 148.042 22.438 45.397 13.444 89.233 43.409 89.233 43.409l0.080-185.042c0 0-103.754-63.908-260.499-63.908-44.141 0-90.658 3.701-135.52 18.257-39.201 12.719-121.3 47.025-176.25 127.428-19.438 28.442-40.5 66.288-50.932 103.265-11.278 39.975-11.14 78.811-11.14 100.206 0 80.021 27.339 156.421 74.779 211.652 61.449 71.54 139.119 103.036 139.119 103.036s-25.299-29.495-40.861-66.215c-15.562-36.721-19.819-73.667-19.819-73.667h311.267c0 0 18.205 185.996-176.127 185.996-73.223 0-163.155-25.415-226.287-64.713z" />
<glyph unicode="&#xe629;" glyph-name="libre-browser-explorer" d="M735.583 380.157h212.977c1.646 14.77 2.297 29.863 2.297 45.291 0 72.381-19.431 140.27-53.345 198.735 35.080 93.21 33.828 172.32-13.133 219.6-44.657 44.464-164.473 37.245-299.921-22.735-10.018 0.761-20.135 1.148-30.348 1.148-185.908 0-341.888-127.934-385-300.316 58.318 74.666 119.672 128.801 201.633 168.224-7.453-6.985-50.936-50.213-58.25-57.532-216.134-216.068-284.292-498.321-210.953-571.673 55.747-55.736 156.774-46.324 272.82 10.51 53.96-27.481 115.038-42.975 179.746-42.975 174.255 0 321.927 112.165 375.42 268.377h-214.617c-29.533-54.48-87.29-91.561-153.579-91.561-66.287 0-124.046 37.081-153.578 91.561-13.128 24.608-20.675 52.829-20.675 82.697v0.658h348.504zM387.403 484.842c4.923 87.618 77.774 157.519 166.706 157.519s161.785-69.899 166.706-157.519h-333.412zM882.438 799.726c30.249-30.569 29.493-86.81 3.621-157.013-44.333 67.586-108.739 120.845-184.775 151.254 81.299 34.861 147.434 39.48 181.155 5.756zM157.49 74.81c-38.601 38.613-26.963 119.655 22.764 217.292 30.955-86.86 91.269-159.781 169.025-206.755-86.102-39.085-156.574-45.722-191.789-10.537z" />
<glyph unicode="&#xe62a;" glyph-name="libre-browser-firefox" d="M948.242 582.981l-20.753-46.026c0 0-9.153 85.197-23.013 131.336-13.861 46.026-43.691 75.969-43.691 75.969l13.748-62.184c0 0-48.248 58.945-94.538 80.301-7.232 3.352-14.463 6.592-21.619 9.755-60.866 54.35-140.941 87.645-229.001 87.645-124.632 0-233.445-66.365-293.934-165.498-3.013 1.845-20.264 12.844-28.663 33.823-9.228 23.051-13.898 48.361-13.898 48.361-57.514-55.254-43.766-147.344-43.766-147.344s-23.013-23.051-45.988-59.924c-23.013-36.836-29.981-103.578-29.981-103.578l39.171 41.356c0 0-9.19-18.343-16.083-52.919-6.93-34.576-4.67-89.868-4.67-89.868l20.753 43.842c0 0 0-140.527 133.596-264.82 133.521-124.331 372.955-158.982 554.912-2.335s147.419 442.107 147.419 442.107zM529.374 814.581c71.148 0 136.346-24.896 187.683-66.29l-65.913-10.96c0 0 66.704-20.753 117.401-59.887 12.655-9.793 22.975-22.034 31.412-34.877 11.111-23.616 19.247-48.889 23.879-75.442l-32.203 25.122c0 0 11.45-13.823 13.785-50.659s-9.266-103.615-9.266-103.615l-29.83 34.538c0 0 6.893-57.589-4.633-108.286-11.525-50.546-36.836-71.224-36.836-71.224l4.52 59.811c0 0-34.501-76.082-131.223-105.913-96.647-29.943-188.737 55.216-188.737 55.216 62.147-16.083 101.242 16.158 133.559 32.241 32.203 16.158 48.286 18.456 62.147 18.456 13.785 0 0 32.203-25.386 46.064-25.311 13.748-55.216 6.893-115.103-9.266-59.924-16.12-96.798 34.576-94.387 69.039 2.222 34.651 57.551 13.898 57.551 13.898l-2.26 69.039c0 0 92.052 57.514 85.16 71.412-6.855 13.823-39.096 9.115-66.779 18.418-27.57 9.153-43.691 34.538-43.691 34.538s-4.633 18.418 4.557 34.425c9.152 16.158 41.393 39.284 41.393 39.284s-20.678 2.26-55.216-9.228c-34.538-11.525-59.887-32.241-59.887-32.241s-6.78 2.109-34.953 4.407c54.84 68.211 138.907 111.977 233.257 111.977z" />
<glyph unicode="&#xe62b;" glyph-name="libre-browser-general" d="M762.667 226.323l175.901 35.061-440.669 274.566-10.395-7.242 98.111-509.726 95.768 151.533 92.871-135.302c17.637-25.476 50.014-33.698 72.465-18.319 22.323 15.422 26.328 48.651 8.818 74.169l-92.871 135.259zM506.632 96.175c-70.676 0-136.537 20.278-192.729 54.828 50.568-0.512-37.617 76.938 23.133 88.824 63.732 12.525 90.571 85.416 70.164 84.308-20.363-1.065-59.131 10.523-86.396 44.774-27.307 34.507-51.207 26.626-79.366 21.216-24.624-4.857-54.956-76.086-62.496-94.788-19.171 36.722-32.164 77.066-38.043 119.71 31.269 16.359 82.306 43.879 100.752 59.088 27.18 22.536-9.074 31.653-13.547 45.243-4.431 13.59 0 45.243 0 76.683 0 31.738 63.306 31.738 85.757 63.306 16.146 22.536-13.419 72.252-31.866 99.176 62.326 47.969 140.116 76.81 224.637 76.81 22.408 0 44.263-2.343 65.606-6.177 6.262-38.938 19.298-92.488 44.476-106.461 40.77-22.579 90.102-72.295 108.335-81.241 18.148-9.032 40.599-85.97 36.169-117.58-3.195-22.323-30.886-46.904-42.218-70.548l188.298-117.324c13.292 40.897 20.619 84.393 20.619 129.679 0 232.263-189.065 421.157-421.242 421.157-232.305 0-421.242-188.895-421.242-421.157 0-232.305 188.937-421.285 421.242-421.285 8.818 0 17.424 0.81 26.115 1.321l-9.841 51.292c-5.453-0.256-10.821-0.852-16.316-0.852zM871.684 411.17c-7.966 31.61-23.388 62.113-56.191 85.671-22.451 15.848-40.769 85.799-27.137 108.463 8.137 13.505 29.31 25.39 44.902 32.803 27.307-51.505 42.9-110.125 42.9-172.408 0-18.574-1.832-36.68-4.473-54.53zM681.213 82.756c0.895 0.468 1.832 0.895 2.726 1.321-0.341 0.512-0.682 0.937-0.98 1.448-0.511-0.81-1.193-1.917-1.747-2.769z" />
<glyph unicode="&#xe62c;" glyph-name="libre-browser-opera" d="M782.438 768.531c-70.552 83.585-162.312 122.911-275.128 117.901-104.529 5.010-192.635-34.466-264.204-118.278s-107.392-188.529-107.392-314.152c0-111.912 27.535-208.606 82.531-290.12 69.761-103.173 168.301-154.741 295.845-154.741 127.168 0 225.594 54.091 295.28 162.236 52.547 81.514 78.915 175.948 78.915 283.302 0 125.585-35.332 230.227-105.847 313.851zM673.69 214.622c-17.025-58.499-40.832-101.026-71.456-127.695-23.995-20.83-53.903-31.189-89.725-31.189-53.225 0-94.622 24.145-124.116 72.36-42.452 69.083-63.697 175.835-63.697 320.216 0 121.48 13.787 214.67 41.247 279.572 33.75 79.028 82.907 118.579 147.697 118.579 35.106 0 66.145-11.451 93.078-34.278s49.156-62.115 66.484-117.6c17.403-55.598 26.142-139.297 26.142-251.208-0.038-94.057-8.588-170.335-25.653-228.758z" />
<glyph unicode="&#xe62d;" glyph-name="libre-browser-safari" d="M512 832c-20.626 0-40.893-1.536-60.706-4.468-0.293 0.673-0.512 1.327-0.841 1.968 10.994 8.573 16.758 20.426 14.258 32.187-3.201 15.055-19.196 25.169-39.801 25.169-4.44 0-8.964-0.483-13.44-1.433-25.858-5.497-42.982-24.533-38.984-43.339 2.428-11.433 12.251-20.004 25.855-23.472-0.028-0.833-0.014-1.671 0.036-2.515-171.962-49.311-297.804-207.718-297.804-395.527 0-227.227 184.204-411.429 411.429-411.429 227.227 0 411.429 184.202 411.429 411.429 0 227.225-184.202 411.429-411.429 411.429zM385.899 844.936c-2.319 10.908 10.697 23.306 28.421 27.072 3.54 0.753 7.102 1.134 10.589 1.134 13.746 0 24.595-5.884 26.386-14.306 1.368-6.437-2.633-13.38-9.759-18.775-6.027 4.257-13.728 6.108-21.515 4.454-7.752-1.647-14.012-6.435-17.792-12.734-8.73 2.1-15.007 6.93-16.331 13.154zM732.616 199.955c-37.687-37.685-83.323-64.524-133.123-78.987l-36.34 58.944-9.211-68.535c-13.791-1.846-27.794-2.804-41.943-2.804-83.338 0-161.688 32.455-220.616 91.383-37.687 37.685-64.524 83.323-78.989 133.121l58.944 36.341-68.537 9.211c-1.843 13.791-2.801 27.794-2.801 41.943 0 83.338 32.453 161.688 91.384 220.617 37.687 37.687 83.324 64.524 133.123 78.991l36.34-58.946 9.212 68.537c13.79 1.843 27.792 2.801 41.942 2.801 83.338 0 161.688-32.453 220.616-91.383 37.685-37.687 64.524-83.325 78.988-133.123l-58.946-36.341 68.537-9.211c1.843-13.79 2.801-27.792 2.801-41.942 0-83.338-32.455-161.688-91.384-220.617zM725.346 633.916l-168.839-128.318c-12.55 6.564-26.465 10.339-40.642 10.908l-43.783 91.869-2.626-101.712c-11.386-5.602-21.518-13.426-29.893-23.1l-54.075 19.169 39.507-41.604c-5.427-11.587-8.457-24.027-8.944-36.706l-91.85-43.771 101.776-2.628c0.293-0.658 0.658-1.31 1.002-1.958l-128.318-168.84 168.839 128.319c12.552-6.562 26.463-10.337 40.643-10.906l43.783-91.87 2.626 101.712c11.388 5.604 21.519 13.426 29.893 23.102l54.077-19.173-39.51 41.606c5.427 11.59 8.46 24.026 8.945 36.706l91.848 43.771-101.774 2.632c-0.293 0.658-0.658 1.306-1.002 1.954l128.317 168.838zM512.089 505.828v0zM494.895 501.059c5.764 1.226 11.523 1.815 17.191 1.815 3.555 0 7.073-0.234 10.536-0.68l0.062-0.009c7.487-0.981 14.724-3 21.542-5.911l-61.325-46.608-46.612-61.33c-2.033 4.795-3.657 9.843-4.784 15.13-9.449 44.451 18.928 88.145 63.381 97.594zM554.963 350.387v0 0c-7.763-4.752-16.443-8.302-25.852-10.303-5.764-1.226-11.525-1.815-17.189-1.815-3.555 0-7.080 0.234-10.549 0.68l-0.059 0.010c-7.486 0.977-14.721 3-21.542 5.908l61.322 46.608 46.611 61.332c2.041-4.795 3.657-9.847 4.784-15.134 7.449-35.038-8.619-69.597-37.525-87.288z" />
<glyph unicode="&#xe62e;" glyph-name="libre-bug" d="M950.857 386.56q0-14.263-10.423-24.686t-24.686-10.423h-122.88q0-93.806-36.754-159.086l114.103-114.651q10.423-10.423 10.423-24.686t-10.423-24.686q-9.874-10.423-24.686-10.423t-24.686 10.423l-108.617 108.069q-2.743-2.743-8.229-7.131t-23.040-15.634-35.657-20.023-44.983-15.909-53.211-7.131v491.52h-70.217v-491.52q-27.977 0-55.68 7.406t-47.726 18.103-36.206 21.394-23.863 17.829l-8.229 7.68-100.389-113.554q-10.971-11.52-26.331-11.52-13.166 0-23.589 8.777-10.423 9.874-11.246 24.411t8.503 25.509l110.811 124.526q-31.817 62.537-31.817 150.309h-122.88q-14.263 0-24.686 10.423t-10.423 24.686 10.423 24.686 24.686 10.423h122.88v161.28l-94.903 94.903q-10.423 10.423-10.423 24.686t10.423 24.686 24.686 10.423 24.686-10.423l94.903-94.903h462.994l94.903 94.903q10.423 10.423 24.686 10.423t24.686-10.423 10.423-24.686-10.423-24.686l-94.903-94.903v-161.28h122.88q14.263 0 24.686-10.423t10.423-24.686zM687.543 702.537h-351.086q0 72.96 51.291 124.251t124.251 51.291 124.251-51.291 51.291-124.251z" />
<glyph unicode="&#xe62f;" glyph-name="libre-calendar" d="M167.183 71.837h141.061v141.061h-141.061v-141.061zM339.592 71.837h156.734v141.061h-156.734v-141.061zM167.183 244.245h141.061v156.735h-141.061v-156.735zM339.592 244.245h156.734v156.735h-156.734v-156.735zM167.183 432.327h141.061v141.061h-141.061v-141.061zM527.673 71.837h156.735v141.061h-156.735v-141.061zM339.592 432.327h156.734v141.061h-156.734v-141.061zM715.755 71.837h141.061v141.061h-141.061v-141.061zM527.673 244.245h156.735v156.735h-156.735v-156.735zM355.265 667.429v141.061q0 6.367-4.652 11.020t-11.020 4.653h-31.348q-6.371 0-11.020-4.653-4.652-4.653-4.652-11.020v-141.061q0-6.367 4.652-11.020t11.020-4.653h31.348q6.371 0 11.020 4.653 4.652 4.653 4.652 11.020zM715.755 244.245h141.061v156.735h-141.061v-156.735zM527.673 432.327h156.735v141.061h-156.735v-141.061zM715.755 432.327h141.061v141.061h-141.061v-141.061zM731.429 667.429v141.061q0 6.367-4.652 11.020t-11.020 4.653h-31.347q-6.371 0-11.020-4.653-4.652-4.653-4.652-11.020v-141.061q0-6.367 4.652-11.020t11.020-4.653h31.347q6.371 0 11.020 4.653 4.652 4.653 4.652 11.020zM919.51 698.775v-626.939q0-25.469-18.613-44.082t-44.082-18.612h-689.633q-25.469 0-44.082 18.612t-18.612 44.082v626.939q0 25.469 18.612 44.082t44.082 18.612h62.694v47.020q0 32.327 23.020 55.347t55.346 23.020h31.348q32.326 0 55.346-23.020t23.020-55.347v-47.020h188.082v47.020q0 32.327 23.020 55.347t55.347 23.020h31.347q32.327 0 55.347-23.020t23.020-55.347v-47.020h62.694q25.47 0 44.082-18.612t18.613-44.082z" />
<glyph unicode="&#xe630;" glyph-name="libre-camera" d="M914.513 665.157h-225.847l-6.756 52.699c0 30.108-24.409 54.516-54.516 54.516h-232.603c-30.108 0-54.516-24.409-54.516-54.516l-6.756-52.699h-224.030c-20.073 0-36.345-15.363-36.345-35.436v-468.841c0-20.073 16.271-37.253 36.344-37.253h805.026c20.073 0 36.344 17.18 36.344 37.253v468.841c0 20.073-16.271 35.436-36.344 35.436zM512.173 171.671c-123.44 0-223.506 100.067-223.506 223.505 0 123.44 100.067 223.506 223.506 223.506s223.506-100.067 223.506-223.506c0-123.436-100.067-223.505-223.506-223.505zM909.061 568.845h-190.807v56.332h190.807v-56.332zM649.251 395.648c0-75.489-61.196-136.685-136.685-136.685 0 0 0 0 0 0-75.489 0-136.685 61.196-136.685 136.685s61.196 136.685 136.685 136.685c0 0 0 0 0 0 75.489 0 136.685-61.196 136.685-136.685z" />
<glyph unicode="&#xe631;" glyph-name="libre-camera-aperture" d="M717.355 365.656c-3.454 5.983-12.092 5.983-15.549 0.001l-198.156-343.041c-3.445-5.961 0.83-13.463 7.717-13.472 0.211 0 0.422 0 0.633 0 127.462 0 242.227 54.344 322.403 141.12 2.674 2.896 3.158 7.19 1.19 10.6l-118.238 204.792zM535.309 242.432l-395.685-0.366c-6.892-0.006-11.237-7.473-7.786-13.439 60.317-104.296 162.319-181.46 283.228-208.72 3.845-0.87 7.812 0.856 9.783 4.264l118.243 204.805c3.458 5.99-0.868 13.474-7.783 13.466zM892.336 667.085c-60.369 104.577-162.629 181.927-283.85 209.123-3.844 0.863-7.805-0.856-9.775-4.272l-118.308-204.915c-3.456-5.99 0.864-13.469 7.778-13.467l396.359 0.073c6.89 0.001 11.242 7.464 7.796 13.433zM922.593 584.644h-236.578c-6.912 0-11.232-7.485-7.774-13.469l198.143-342.952c3.463-5.99 12.095-5.961 15.565 0.023 37.457 64.625 58.907 139.685 58.907 219.754 0 45.38-6.892 89.147-19.679 130.319-1.167 3.76-4.646 6.327-8.584 6.327zM512.155 886.856c-0.052 0-0.104 0-0.156 0-127.441 0-242.191-54.327-322.364-141.079-2.674-2.889-3.159-7.19-1.189-10.601l118.219-204.761c3.457-5.99 12.101-5.983 15.554 0.007l197.66 342.974c3.434 5.961-0.841 13.459-7.726 13.46zM101.501 311.048h236.661c6.912 0 11.231 7.483 7.774 13.47l-198.294 343.311c-3.462 5.998-12.093 5.968-15.565-0.022-37.476-64.636-58.935-139.715-58.935-219.809 0-45.493 6.928-89.367 19.777-130.63 1.17-3.76 4.646-6.32 8.581-6.32z" />
<glyph unicode="&#xe632;" glyph-name="libre-camera-auto-whitebalance" d="M762.334 194.186l-154.377 506.791c-2.558 8.401-10.309 14.141-19.090 14.141h-153.732c-8.781 0-16.532-5.742-19.090-14.141l-154.377-506.791c-3.906-12.823 5.687-25.773 19.091-25.773h110.276c9.286 0 17.343 6.407 19.441 15.449l23.332 100.621h156.386l23.332-100.621c2.097-9.044 10.158-15.449 19.441-15.449h110.277c13.402 0.001 22.996 12.951 19.089 25.773zM512 396.347h-52.119l9.252 37.849c13.457 52.147 26.914 118.592 40.372 173.263h4.99c13.458-54.671 26.915-121.116 40.372-173.263l9.252-37.849h-52.119zM950.857 30.028v835.944c0 11.535-9.35 20.885-20.885 20.885h-835.944c-11.535 0-20.885-9.351-20.885-20.885v-835.944c0-11.535 9.35-20.885 20.885-20.885h835.944c11.535 0 20.885 9.351 20.885 20.885zM151.463 808.537h360.537v-67.312h76.866c9.945 0 19.427-3.131 27.419-9.050 7.991-5.917 13.748-14.078 16.645-23.591l154.377-506.792c4.297-14.106 1.727-28.992-7.050-40.84s-22.268-18.646-37.014-18.646h-110.276c-10.365 0-20.543 3.555-28.657 10-8.115 6.451-13.874 15.562-16.215 25.659l-18.646 80.412h-57.447v-170.914h-360.538v721.074z" />
<glyph unicode="&#xe633;" glyph-name="libre-camera-flash" d="M319.86 382.985h176.523l-28.8-133.788-42.296 0.024c-13.991 0.007-23.2-14.585-17.175-27.211l96.409-202.039c6.883-14.43 27.421-14.441 34.323-0.017l96.618 201.939c6.042 12.621-3.152 27.222-17.148 27.23l-46.612 0.022 148.617 252.954c7.45 12.68-1.69 28.654-16.399 28.654h-129.889l147.459 329.31c5.632 12.581-3.569 26.792-17.36 26.792h-264.787c-8.685 0-16.266-5.881-18.424-14.294l-119.482-465.833c-3.087-12.032 6.005-23.745 18.424-23.745z" />
<glyph unicode="&#xe634;" glyph-name="libre-camera-focal-length" d="M764.748 58.762c-66.491 39.058-129.188 56.898-167.972 47.784-44.874-10.54-65.306-1.463-74.341 32.936-6.853 26.112-101.341 94.406-209.974 151.764-265.77 140.325-265.583 181.928 1.404 314.039 117.476 58.127 198.919 114.973 198.919 138.847 0 27.611 23.119 38.861 72.937 35.496 40.115-2.706 114.71 20.926 165.766 52.524 115.749 71.636 159.135 72.799 159.135 4.242 0-36.542-35.572-70.663-112.72-108.142l-112.72-54.755 3.269-228.645 3.277-228.652 109.447-53.007c66.146-32.037 109.447-71.314 109.447-99.269 0-71.607-30.934-72.704-145.874-5.193zM606.068 361.428c9.863 44.902 10.287 122.39 0.944 172.193l-16.987 90.544-157.972-79.74c-86.884-43.856-157.972-89.037-157.972-100.403 0-18.9 255.012-158.874 296.271-162.619 9.781-0.878 25.854 35.123 35.716 80.026z" />
<glyph unicode="&#xe635;" glyph-name="libre-camera-iso" d="M731.928 544.010c-39.21 0-63.34-34.183-63.34-93.5s24.13-96.516 63.339-96.516c39.209 0 63.339 37.199 63.339 96.516s-24.128 93.5-63.338 93.5zM932.509 709.604h-841.019c-10.133 0.001-18.348-8.214-18.348-18.347v-486.514c0-10.134 8.215-18.348 18.348-18.348h841.019c10.134 0 18.348 8.214 18.348 18.348v486.514c0 10.134-8.214 18.348-18.348 18.348zM238.29 285.628h-86.463v326.748h86.463v-326.748zM414.229 279.594c-41.221 0-88.473 15.081-123.661 46.75l49.263 59.317c23.124-18.598 52.28-31.669 76.409-31.669 26.14 0 37.199 8.546 37.199 23.124 0 15.582-16.589 20.609-44.237 31.669l-40.719 17.096c-35.187 14.076-65.852 43.734-65.852 90.987 0 55.798 50.269 101.543 121.651 101.543 37.199 0 78.419-14.076 108.58-43.734l-43.231-54.291c-22.118 15.582-41.222 23.626-65.349 23.626-21.114 0-34.184-7.54-34.184-22.118 0-15.582 18.599-21.112 48.258-32.674l39.712-15.583c40.719-16.086 63.843-44.236 63.843-89.479 0.002-55.298-46.246-104.561-127.682-104.561zM731.928 279.594c-90.485 0-151.812 63.338-151.812 170.914s61.328 167.899 151.812 167.899c90.484 0 151.811-60.826 151.811-167.899 0.002-107.576-61.326-170.914-151.811-170.914z" />
<glyph unicode="&#xe636;" glyph-name="libre-camera-landscape" d="M870.535 701.824c-1.646 0-3.276-0.065-4.896-0.146-4.269 55.054-50.293 98.398-106.443 98.398s-102.173-43.344-106.442-98.398c-1.621 0.073-3.25 0.146-4.896 0.146-44.36 0-80.322-35.962-80.322-80.323s35.961-80.321 80.322-80.321h222.676c44.36 0 80.323 35.961 80.323 80.321s-35.961 80.323-80.323 80.323zM91.837 95.924h813.396c13.948 0 22.968 14.743 16.619 27.162l-126.695 247.8c-6.039 11.813-22.129 13.73-30.776 3.672l-105.824-123.141-242.928 393.898c-7.371 11.954-24.81 11.79-31.955-0.293l-307.906-520.926c-7.354-12.442 1.615-28.163 16.068-28.163z" />
<glyph unicode="&#xe637;" glyph-name="libre-camera-macro" d="M116.669 411.946c1.704-105.299 36.48-402.801 375.043-402.801v219.6l-343.549 201.586c-14.078 8.26-31.758-2.063-31.493-18.385zM827.225 736.040v122.103c0 16.906-19.019 26.824-32.882 17.148l-175.717-122.661-107.781 126.858c-8.351 9.828-23.522 9.828-31.873 0l-107.78-126.86-175.718 122.665c-13.863 9.677-32.882-0.219-32.882-17.148v-119.928c0-183.962 150.518-335.657 334.477-334.486 11.901 0.073 23.65 0.79 35.222 2.085v-396.673c338.397 0 373.303 297.207 375.041 402.644 0.271 16.357-17.486 26.677-31.562 18.344l-272.34-161.179v152.898c130.245 44.981 223.797 168.657 223.797 314.189z" />
<glyph unicode="&#xe638;" glyph-name="libre-camera-panorama" d="M373.637 765.423h277.954v-632.587h-277.954zM950.857 40.235v815.528c0 14.115-14.742 23.387-27.465 17.273l-228.512-109.815v-630.444l228.513-109.814c12.722-6.115 27.464 3.157 27.464 17.271zM100.608 22.963l228.513 109.815v630.444l-228.513 109.815c-12.722 6.114-27.465-3.158-27.465-17.273v-815.528c0-14.114 14.743-23.386 27.465-17.273z" />
<glyph unicode="&#xe639;" glyph-name="libre-camera-portrait" d="M733.727 133.826c10.98 0 19.88 8.901 19.88 19.88v62.578c0 34.35-10.557 68.195-29.809 96.617-21.613 31.91-51.84 47.917-84.579 65.471-21.083 11.305-40.685 27.78-50.167 49.273 60.617 28.839 102.523 90.643 102.523 162.239-0.001 99.177-80.4 179.574-179.576 179.574s-179.575-80.397-179.575-179.574c0-71.596 41.905-133.399 102.523-162.239-9.482-21.494-29.084-37.968-50.167-49.273-32.74-17.554-62.967-33.562-84.579-65.471-19.251-28.423-29.808-62.269-29.808-96.617v-62.578c0-10.979 8.9-19.88 19.88-19.88l443.452-0.001zM638.532 9.143h292.445c10.98 0 19.88 8.899 19.88 19.88v292.444c0 10.981-8.9 19.88-19.88 19.88h-34.79c-10.98 0-19.88-8.899-19.88-19.88v-217.893c0-10.981-8.9-19.88-19.88-19.88h-217.894c-10.98 0-19.88-8.899-19.88-19.88v-34.79c0-10.981 8.9-19.88 19.88-19.88zM93.023 9.143h292.444c10.98 0 19.88 8.899 19.88 19.88v34.79c0 10.981-8.9 19.88-19.88 19.88h-217.893c-10.98 0-19.88 8.899-19.88 19.88v217.893c0 10.981-8.9 19.88-19.88 19.88h-34.79c-10.98 0-19.88-8.899-19.88-19.88v-292.444c0-10.981 8.9-19.88 19.88-19.88zM950.857 695.903v171.074c0 10.979-8.9 19.88-19.88 19.88h-292.444c-10.98 0-19.88-8.901-19.88-19.88v-34.79c0-10.98 8.9-19.88 19.88-19.88h217.893c10.98 0 19.88-8.901 19.88-19.88v-217.895c0-10.98 8.9-19.88 19.88-19.88h34.79c10.98 0 19.88 8.9 19.88 19.88v121.372zM93.023 886.857c-10.98 0-19.88-8.901-19.88-19.88v-292.444c0-10.979 8.9-19.88 19.88-19.88h34.79c10.98 0 19.88 8.901 19.88 19.88v217.893c0 10.979 8.9 19.88 19.88 19.88h217.894c10.98 0 19.88 8.9 19.88 19.88v34.79c0 10.979-8.9 19.88-19.88 19.88h-292.445z" />
<glyph unicode="&#xe63a;" glyph-name="libre-camera-shutter-speed" d="M408.352 18.209c-40.269 9.757-107.637 40.375-144.613 65.726-180.364 123.663-242.112 363.052-144.527 560.304 74.252 150.089 223.628 242.022 393.239 242.022 177.376 0 326.63-95.941 401.565-258.128 27.838-60.248 36.743-103.965 36.841-180.875 0.073-82.417-12.189-133.822-49.279-206.051-38.177-74.342-108.218-144.384-182.559-182.557-73.638-37.815-123.469-49.481-208.901-48.889-37.867 0-83.661 4.096-101.765 8.448zM620.328 49.901c105.595 27.904 206.492 107.696 255.083 201.728 63.972 123.794 65.54 266.869 4.206 383.59-56.669 107.842-157.501 186.529-274.619 214.316-63.756 15.126-165.62 9.355-227.309-12.88-65.467-23.589-105.592-49.123-155.29-98.823s-75.234-89.827-98.827-155.29c-22.23-61.689-28.001-163.555-12.877-227.313 54.186-228.418 282.66-365.297 509.637-305.328zM273.275 169.014c0 14.921 21.797 45.875 60.485 85.906 24.335 25.183 42.019 48.384 42.019 55.12 0 12.178-13.845 29.535-23.56 29.535-12.657 0-27.693-12.478-27.693-22.981 0-9.311-3.935-11.191-23.49-11.191-23.433 0-23.482 0.051-19.946 18.512 1.953 10.174 11.28 25.549 20.733 34.165 35.837 32.651 106.87 14.702 116.569-29.462 5.756-26.214-10.845-57.227-49.722-92.877l-35.602-32.651 88.267-0.146v-39.863h-74.031c-47.892 0-74.031 2.121-74.031 5.998zM477.609 171.282c-16.018 9.062-36.332 45.21-30.607 54.477 1.916 3.072 12.126 5.632 22.692 5.632 14.214 0 20.152-2.999 22.829-11.396 8.704-27.429 44.613-25.615 51.697 2.633 8.387 33.412-19.208 58.185-45.571 40.916-15.778-10.342-40.58-12.412-45.882-3.803-1.88 3.072 0.951 29.945 6.283 59.794l9.695 54.272h112.042v-39.863h-39.216c-38.514 0-39.258 0-41.536-15.799-2.187-14.907-1.243-15.682 16.565-13.597 30.5 3.584 52.859-9.157 65.213-37.083 13.439-30.384 9.729-56.013-11.851-81.862-13.357-16.004-19.697-18.812-46.456-20.612-20.288-1.39-36.137 0.805-45.899 6.363zM640.659 175.378c-8.632 6.802-19.228 20.802-23.547 31.144-9.209 22.038-10.297 86.996-1.96 117.021 13.424 48.333 74.292 67.694 107.718 34.267 15.41-15.411 28.755-56.912 28.755-89.424s-13.346-74.013-28.755-89.424c-20.609-20.612-58.469-22.257-82.213-3.584zM690.735 205.462c18.324 18.322 16.356 117.058-2.567 129.039-21.842 13.824-34.195-14-32.13-72.36 2.019-57.073 14.28-77.1 34.701-56.678zM159.382 444.924v14.234h706.139v-28.475h-706.139v14.241zM506.757 601.537v74.043l-21.271-11.403c-27.761-14.877-29.981-14.49-29.981 5.193 0 12.837 4.513 19.412 19.838 28.884 10.911 6.729 24.733 18.483 30.717 26.090 7.346 9.34 16.62 13.824 28.567 13.824h17.688v-210.703h-45.558v74.043z" />
<glyph unicode="&#xe63b;" glyph-name="libre-camera-timer" d="M541.615 794.176c85.349-5.171 164.872-40.886 225.854-101.868 66.112-66.112 102.522-154.013 102.522-247.512 0-92.788-36.915-181.906-102.526-247.516-66.112-66.109-154.012-102.518-247.506-102.518-77.846 0-151.526 25.004-213.075 72.301-53.873 41.4-94.985 98.329-117.363 161.982-4.048 11.516-16.315 17.93-28.066 14.623l-33.437-9.413c-12.814-3.606-19.897-17.254-15.565-29.844 12.428-36.103 29.62-70.359 51.267-102.106 25.869-37.936 57.458-71.368 93.888-99.363 36.835-28.308 77.687-50.331 121.42-65.461 45.238-15.651 92.654-23.586 140.93-23.586 58.153 0 114.587 11.399 167.737 33.881 51.316 21.707 97.395 52.77 136.955 92.328 39.558 39.559 70.623 85.638 92.327 136.953 22.48 53.149 33.88 109.585 33.88 167.739s-11.398 114.588-33.88 167.738c-14.012 33.128-31.948 64.058-53.528 92.476l48.019 48.019c9.023 9.023 9.023 23.651 0 32.674l-49.013 49.012c-9.023 9.024-23.651 9.024-32.675 0l-47.807-47.808c-28.911 22.197-60.447 40.599-94.278 54.909-45.731 19.343-93.898 30.482-143.496 33.213-13.186 0.731-24.243-9.873-24.243-23.080v-34.725c0-12.195 9.482-22.311 21.659-23.049zM490.989 829.888c0 0 0 0 0 0 0-28.838-23.378-52.216-52.216-52.216 0 0 0 0 0 0-28.838 0-52.216 23.378-52.216 52.216 0 0 0 0 0 0s0 0 0 0c0 28.838 23.378 52.216 52.216 52.216 0 0 0 0 0 0 28.838 0 52.216-23.378 52.216-52.216 0 0 0 0 0 0zM97.375 419.046l424.132-25.851c1.972-0.073 4.271-0.146 6.291 0 28.164 1.719 49.683 25.675 48.511 53.744-1.21 28.962-26.885 51.167-55.82 49.402l-423.112-25.787c-32.311-1.968-32.311-49.54-0.001-51.509z" />
<glyph unicode="&#xe63c;" glyph-name="libre-caret-down" d="M950.857 640q0-22.286-16.286-38.571l-384-384q-16.285-16.286-38.571-16.286t-38.571 16.286l-384 384q-16.286 16.285-16.286 38.571t16.286 38.571 38.571 16.286h768q22.286 0 38.571-16.286t16.286-38.571z" />
<glyph unicode="&#xe63d;" glyph-name="libre-caret-up" d="M950.857 256q0-22.286-16.286-38.571t-38.571-16.286h-768q-22.286 0-38.571 16.286t-16.286 38.571 16.286 38.571l384 384q16.285 16.286 38.571 16.286t38.571-16.286l384-384q16.286-16.285 16.286-38.571z" />
<glyph unicode="&#xe63e;" glyph-name="libre-certificate" d="M672.218 181.68c0 107.323-0.439 110.563-15.47 117.248-9.033 4.023-17.23 15.572-19.7 27.772-2.326 11.498-8.637 27.919-14.021 36.491-8.524 13.583-8.304 18.534 1.704 38.32 6.32 12.493 13.32 31.086 15.552 41.318 3.043 13.948 9.695 19.836 26.602 23.552 12.399 2.706 29.938 9.794 38.976 15.718 14.885 9.75 18.501 9.691 38.415-0.731 12.091-6.29 30.631-13.458 41.201-15.931 13.354-3.145 20.439-10.101 23.221-22.879 2.202-10.116 9.14-28.54 15.416-40.953 10.632-21.029 10.593-23.954-0.585-42.869-6.597-11.169-11.994-26.251-11.994-33.514 0-16.647-12.977-29.923-29.257-29.923-11.551 0-12.539-8.763-12.539-111.221v-111.221l-48.563 28.657-48.96-30.259v110.373zM752.015 327.548c13.5 5.193 31.659 38.232 31.659 57.629 0 7.636-7.431 22.528-16.513 33.090-23.138 26.895-62.258 26.895-85.397 0-41.784-48.581 9.040-114.213 70.251-90.719zM137.578 210.286l-64.435 1.975v612.484h877.714v-611.379l-16.255-3.145c-8.94-1.682-43.421-1.682-76.626 0.073-45.035 2.341-60.371 5.559-60.371 12.734 0 7.417 14.152 9.574 62.694 9.574h62.694v564.246h-821.987v-564.246h272.184c247.379 0 271.979-1.024 269.932-11.301-2.019-10.123-25.262-11.403-221.681-12.193-120.686-0.731-248.424 0-283.864 1.097zM114.939 514.787v268.186h794.122v-536.379h-51.833c-28.509 0-53.772 3.145-56.139 6.949-2.714 4.389 13.86 6.949 44.868 6.949h49.173v508.511h-766.259v-508.511h258.153c170.328 0 256.688-2.341 253.847-6.949-2.743-4.462-98.757-6.949-265.118-6.949h-260.814v268.193zM189.368 341.672c-2.626 2.633-4.769 10.569-4.769 17.664 0 12.244 8.397 12.8 165.442 11.030 160.176-1.829 165.443-2.341 165.443-15.799 0-13.48-5.266-13.992-160.673-15.799-88.37-1.024-162.819 0-165.443 2.926zM186.99 410.631c-2.333 6.071-1.258 14.029 2.392 17.679 3.928 3.95 71.828 5.851 166.367 4.754 154.466-1.829 159.735-2.341 159.735-15.806 0-13.48-5.266-13.992-162.128-15.799-142.694-1.682-162.636-0.731-166.367 9.172zM196.792 560.618c-13.994 8.155-16.15 34.494-3.833 46.811 12.028 12.032 626.055 12.032 638.084 0 12.798-12.793 9.947-39.058-5.113-47.119-18.289-9.794-612.304-9.494-629.138 0zM196.792 665.11c-13.994 8.148-16.15 34.494-3.833 46.811 6.173 6.144 69.914 8.36 243.564 8.36 225.411 0 235.505-0.731 242.416-13.473 9.797-18.308 9.101-25.439-3.738-38.276-9.514-9.516-40.741-10.92-238.585-10.737-141.616 0-232.245 2.926-239.829 7.314z" />
<glyph unicode="&#xe63f;" glyph-name="libre-chart-area" d="M950.857 82.286v-73.143h-877.714v877.714h54.857v-804.571h822.857zM786.286 667.429l109.714-512h-713.143v329.143l192 329.143 246.857-329.143z" />
<glyph unicode="&#xe640;" glyph-name="libre-chart-bar" d="M347.429 448v-292.571h-109.714v292.571h109.714zM512 740.571v-585.143h-109.714v585.143h109.714zM950.857 82.286v-73.143h-877.714v877.714h54.857v-804.571h822.857zM676.571 594.286v-438.857h-109.714v438.857h109.714zM841.143 813.714v-658.286h-109.714v658.286h109.714z" />
<glyph unicode="&#xe641;" glyph-name="libre-chart-line" d="M950.857 173.714v-54.857h-877.714v658.286h54.857v-603.429h822.857zM896 708.571v-186.429q0-8.999-8.357-12.643t-15.214 3.211l-51.857 51.857-271.285-271.285q-4.286-4.286-9.857-4.286-5.573 0-9.857 4.286l-99.857 99.86-178.286-178.286-82.286 82.286 250.714 250.714q4.286 4.286 9.857 4.286 5.573 0 9.857-4.286l99.857-99.857 198.857 198.857-51.857 51.857q-6.853 6.853-3.218 15.214 3.643 8.357 12.643 8.357h186.429q5.998 0 9.857-3.855 3.855-3.855 3.855-9.857z" />
<glyph unicode="&#xe642;" glyph-name="libre-chart-pie" d="M463.238 418.541l277.334-277.334q-53.841-54.857-125.714-85.333t-151.619-30.476q-106.159 0-195.809 52.318t-141.968 141.968-52.317 195.809 52.317 195.81 141.968 141.968 195.809 52.318v-387.048zM558.222 415.491h392.635q0-79.745-30.476-151.619t-85.333-125.714zM918.35 480.507h-390.096v390.096q106.159 0 195.81-52.318t141.968-141.968 52.318-195.81z" />
<glyph unicode="&#xe643;" glyph-name="libre-check-no" d="M950.857 180.548q0-29.553-20.687-50.239l-100.479-100.479q-20.686-20.687-50.239-20.687t-50.24 20.687l-217.212 217.212-217.212-217.212q-20.687-20.687-50.24-20.687t-50.239 20.687l-100.479 100.479q-20.687 20.686-20.687 50.239t20.687 50.24l217.212 217.212-217.212 217.212q-20.687 20.687-20.687 50.24t20.687 50.239l100.479 100.479q20.686 20.687 50.239 20.687t50.24-20.687l217.212-217.212 217.212 217.212q20.687 20.687 50.24 20.687t50.239-20.687l100.479-100.479q20.687-20.686 20.687-50.239t-20.687-50.24l-217.212-217.212 217.212-217.212q20.687-20.687 20.687-50.24z" />
<glyph unicode="&#xe644;" glyph-name="libre-check-yes" d="M950.857 652.99q0-22.652-15.855-38.51l-486.99-486.985q-15.855-15.857-38.506-15.857t-38.506 15.857l-282.002 282.002q-15.855 15.85-15.855 38.502t15.855 38.51l77.013 77.012q15.855 15.85 38.506 15.85t38.506-15.85l166.483-167.051 371.471 372.034q15.855 15.857 38.506 15.857t38.506-15.857l77.013-77.012q15.855-15.85 15.855-38.502z" />
<glyph unicode="&#xe645;" glyph-name="libre-chevron-down" d="M940.512 580.039l-404.010-403.466q-10.345-10.345-24.502-10.345t-24.502 10.345l-404.010 403.466q-10.345 10.345-10.345 24.774t10.345 24.774l90.385 89.841q10.345 10.345 24.502 10.345t24.502-10.345l289.123-289.123 289.123 289.123q10.345 10.345 24.502 10.345t24.502-10.345l90.385-89.841q10.345-10.345 10.345-24.774t-10.345-24.774z" />
<glyph unicode="&#xe646;" glyph-name="libre-chevron-left" d="M783.699 737.123l-289.123-289.123 289.123-289.123q10.345-10.345 10.345-24.502t-10.345-24.502l-90.385-90.385q-10.345-10.345-24.502-10.345t-24.502 10.345l-404.010 404.010q-10.345 10.345-10.345 24.502t10.345 24.502l404.010 404.010q10.345 10.345 24.502 10.345t24.502-10.345l90.385-90.385q10.345-10.345 10.345-24.502t-10.345-24.502z" />
<glyph unicode="&#xe647;" glyph-name="libre-chevron-right" d="M783.699 423.498l-404.010-404.010q-10.345-10.345-24.502-10.345t-24.502 10.345l-90.385 90.385q-10.345 10.345-10.345 24.502t10.345 24.502l289.123 289.123-289.123 289.123q-10.345 10.345-10.345 24.502t10.345 24.502l90.385 90.385q10.345 10.345 24.502 10.345t24.502-10.345l404.010-404.010q10.345-10.345 10.345-24.502t-10.345-24.502z" />
<glyph unicode="&#xe648;" glyph-name="libre-chevron-up" d="M940.512 266.414l-90.385-89.841q-10.345-10.345-24.502-10.345t-24.502 10.345l-289.123 289.123-289.123-289.123q-10.345-10.345-24.502-10.345t-24.502 10.345l-90.385 89.841q-10.345 10.345-10.345 24.774t10.345 24.774l404.010 403.466q10.345 10.345 24.502 10.345t24.502-10.345l404.010-403.466q10.345-10.345 10.345-24.774t-10.345-24.774z" />
<glyph unicode="&#xe649;" glyph-name="libre-circle" d="M987.429 448c0-262.572-212.857-475.429-475.429-475.429s-475.429 212.857-475.429 475.429c0 262.572 212.857 475.429 475.429 475.429s475.429-212.857 475.429-475.429z" />
<glyph unicode="&#xe64a;" glyph-name="libre-circle-o" d="M512 923.429c262.573 0 475.429-212.856 475.429-475.429s-212.856-475.429-475.429-475.429c-262.573 0-475.429 212.856-475.429 475.429s212.856 475.429 475.429 475.429zM151.39 448c0-199.16 161.45-360.611 360.61-360.611s360.61 161.45 360.61 360.611c0 199.158-161.45 360.611-360.61 360.611s-360.61-161.452-360.61-360.611z" />
<glyph unicode="&#xe64b;" glyph-name="libre-clipboard" d="M430.352 9.143c-33.817 0-61.236 27.429-61.236 61.237v61.234h-163.294c-33.818 0-61.236 27.43-61.236 61.237v551.122c0 33.817 27.418 61.237 61.236 61.237h71.441c0 0 20.413 2.428 20.413 30.618 0 28.186 33.049 51.030 61.235 51.030h163.296c28.166 0 61.215-33.020 61.235-61.196v10.117c0.022-28.136 20.413-30.569 20.413-30.569h71.441c33.808 0 61.236-27.418 61.236-61.237v-142.884l142.884-142.883v-387.826c0-33.808-27.41-61.237-61.236-61.237h-387.827zM430.352 601.090v-530.71h387.827v285.768h-224.531v244.942h-163.296zM818.179 417.382l-163.294 163.296v-163.296h163.294zM318.087 723.563h244.944c0 0-20.413 22.843-20.413 51.029 0 28.188-22.853 51.030-51.031 51.030h-102.058c-28.188 0-51.030-22.843-51.030-51.030s-20.412-51.029-20.412-51.029z" />
<glyph unicode="&#xe64c;" glyph-name="libre-clock" d="M585.143 649.143v-256q0-8-5.142-13.143t-13.144-5.143h-182.857q-8 0-13.143 5.143t-5.143 13.143v36.571q0 8 5.142 13.143t13.144 5.143h128v201.143q0 8 5.142 13.143 5.144 5.143 13.144 5.143h36.571q8 0 13.143-5.143t5.143-13.143zM822.857 448q0 84.571-41.714 156t-113.143 113.143-156 41.714-156-41.714-113.143-113.143-41.714-156 41.714-156 113.143-113.143 156-41.714 156 41.714 113.143 113.143 41.714 156zM950.857 448q0-119.429-58.857-220.286t-159.714-159.714-220.286-58.857-220.286 58.857-159.714 159.714-58.857 220.286 58.857 220.286 159.714 159.714 220.286 58.857 220.286-58.857 159.714-159.714 58.857-220.286z" />
<glyph unicode="&#xe64d;" glyph-name="libre-close" d="M877.714 225.123q0-24.627-17.239-41.866l-83.733-83.733q-17.239-17.239-41.866-17.239t-41.866 17.239l-181.010 181.010-181.010-181.010q-17.239-17.239-41.866-17.239t-41.866 17.239l-83.733 83.733q-17.239 17.239-17.239 41.866t17.239 41.866l181.010 181.010-181.010 181.010q-17.239 17.239-17.239 41.866t17.239 41.866l83.733 83.733q17.239 17.239 41.866 17.239t41.866-17.239l181.010-181.010 181.010 181.010q17.239 17.239 41.866 17.239t41.866-17.239l83.733-83.733q17.239-17.239 17.239-41.866t-17.239-41.866l-181.010-181.010 181.010-181.010q17.239-17.239 17.239-41.866z" />
<glyph unicode="&#xe64e;" glyph-name="libre-code" d="M347.487 237.445l-23.981-23.981q-4.798-4.798-11.031-4.798t-11.031 4.798l-223.505 223.506q-4.796 4.798-4.796 11.031 0 6.239 4.796 11.031l223.505 223.506q4.798 4.798 11.031 4.798 6.239 0 11.031-4.798l23.981-23.981q4.798-4.798 4.798-11.031t-4.798-11.031l-188.493-188.493 188.493-188.493q4.798-4.798 4.798-11.031t-4.798-11.031zM630.946 749.205l-178.9-619.196q-1.916-6.239-7.434-9.353-5.515-3.116-11.271-1.2l-29.737 8.153q-6.232 1.916-9.353 7.434-3.116 5.515-1.2 11.751l178.9 619.196q1.916 6.239 7.434 9.353 5.515 3.116 11.271 1.2l29.737-8.153q6.232-1.916 9.353-7.434 3.116-5.515 1.2-11.751zM946.060 436.969l-223.506-223.506q-4.798-4.798-11.031-4.798-6.239 0-11.031 4.798l-23.981 23.981q-4.798 4.798-4.798 11.031 0 6.239 4.798 11.031l188.493 188.493-188.493 188.493q-4.798 4.798-4.798 11.031t4.798 11.031l23.981 23.981q4.798 4.798 11.031 4.798t11.031-4.798l223.506-223.506q4.798-4.798 4.798-11.031t-4.798-11.031z" />
<glyph unicode="&#xe64f;" glyph-name="libre-cog" d="M658.286 448q0 60.571-42.857 103.429t-103.428 42.857-103.428-42.857-42.857-103.429 42.857-103.429 103.428-42.857 103.428 42.857 42.857 103.429zM950.857 510.286v-126.857q0-6.857-4.571-13.143t-11.429-7.429l-105.714-16q-10.857-30.857-22.286-52 20-28.571 61.143-78.857 5.712-6.857 5.712-14.286t-5.142-13.143q-15.429-21.143-56.572-61.714t-53.714-40.571q-6.853 0-14.858 5.143l-78.857 61.714q-25.143-13.143-52-21.714-9.143-77.714-16.571-106.286-3.999-16-20.571-16h-126.858q-8 0-14 4.857-5.998 4.857-6.568 12.286l-16 105.143q-28 9.143-51.428 21.143l-80.572-61.143q-5.712-5.143-14.286-5.143-8 0-14.286 6.286-72 65.143-94.286 96-4.001 5.715-4.001 13.143 0 6.857 4.571 13.143 8.572 12 29.143 38t30.857 40.286q-15.429 28.571-23.428 56.571l-104.571 15.429q-7.432 1.142-12.003 7.142t-4.571 13.429v126.857q0 6.857 4.571 13.143t10.857 7.429l106.286 16q8 26.286 22.286 52.571-22.857 32.571-61.143 78.857-5.712 6.857-5.712 13.714 0 5.714 5.142 13.143 14.857 20.571 56.286 61.429t54 40.857q7.429 0 14.858-5.714l78.857-61.143q25.143 13.143 52 21.714 9.143 77.714 16.571 106.286 3.999 16 20.571 16h126.858q8 0 14-4.857 5.998-4.857 6.568-12.286l16-105.143q28-9.143 51.428-21.143l81.143 61.143q5.142 5.143 13.714 5.143 7.428 0 14.286-5.714 73.714-68 94.286-97.143 4.001-4.571 4.001-12.571 0-6.857-4.571-13.143-8.572-12-29.143-38t-30.857-40.286q14.857-28.571 23.428-56l104.572-16q7.428-1.142 12-7.143t4.571-13.429z" />
<glyph unicode="&#xe650;" glyph-name="libre-cogs" d="M482.743 448.225q0 48.457-34.286 82.743t-82.743 34.286-82.743-34.286-34.286-82.743 34.286-82.743 82.743-34.286 82.743 34.286 34.286 82.743zM833.829 214.168q0 23.771-17.371 41.143t-41.143 17.371-41.143-17.371-17.371-41.143q0-24.229 17.143-41.371t41.371-17.143 41.371 17.143q17.143 17.142 17.143 41.371zM833.829 682.282q0 23.771-17.371 41.143t-41.143 17.371-41.143-17.371-17.371-41.143q0-24.229 17.143-41.372t41.371-17.142 41.371 17.142q17.143 17.143 17.143 41.372zM658.286 489.825v-84.571q0-4.571-3.204-8.915-3.204-4.345-7.314-4.798l-70.857-10.971q-5.032-16-14.629-34.743 15.543-21.943 41.143-52.571 3.204-4.571 3.204-9.143 0-5.486-3.204-8.686-10.514-13.714-37.715-40.914t-35.885-27.2q-5.032 0-9.6 3.204l-52.571 41.143q-16.914-8.686-35.2-14.171-5.025-49.371-10.514-70.857-3.204-10.971-13.714-10.971h-85.029q-5.032 0-9.143 3.43-4.118 3.43-4.571 8l-10.514 69.943q-15.543 4.571-34.286 14.171l-53.943-40.686q-3.196-3.204-9.143-3.204-5.025 0-9.6 3.657-65.829 60.8-65.829 73.143 0 4.118 3.2 8.686 4.571 6.4 18.743 24.229t21.486 27.886q-10.514 20.114-16 37.486l-69.486 10.971q-4.571 0.439-7.771 4.345-3.196 3.88-3.196 8.909v84.571q0 4.571 3.2 8.915 3.2 4.345 7.314 4.798l70.857 10.971q5.032 16 14.629 34.743-15.543 21.943-41.143 52.571-3.2 5.032-3.2 9.143 0 5.486 3.2 9.143 10.057 13.714 37.486 40.686t36.114 26.971q5.032 0 9.6-3.196l52.571-41.143q15.543 8.229 35.2 14.629 5.025 49.371 10.514 70.4 3.204 10.971 13.714 10.971h85.029q5.032 0 9.143-3.43 4.118-3.43 4.571-8l10.514-69.943q15.543-4.571 34.286-14.171l53.943 40.686q3.657 3.196 9.143 3.196 5.025 0 9.6-3.657 65.829-60.8 65.829-73.143 0-4.111-3.204-8.686-5.486-7.314-19.2-24.686t-20.571-27.429q10.514-21.943 15.543-37.486l69.486-10.514q4.571-0.914 7.771-4.798 3.204-3.884 3.204-8.914zM950.857 246.168v-64q0-7.314-68.114-14.171-5.486-12.343-13.714-23.771 23.314-51.657 23.314-63.086 0-1.829-1.829-3.196-55.771-32.457-56.686-32.457-3.657 0-21.029 21.486t-23.771 31.086q-9.143-0.914-13.714-0.914t-13.714 0.914q-6.4-9.6-23.771-31.086t-21.029-21.486q-0.914 0-56.686 32.457-1.829 1.368-1.829 3.196 0 11.429 23.314 63.086-8.229 11.429-13.714 23.771-68.114 6.853-68.114 14.171v64q0 7.314 68.114 14.171 5.947 13.257 13.714 23.771-23.314 51.657-23.314 63.086 0 1.829 1.829 3.204 1.829 0.914 16 9.143t26.971 15.543 13.714 7.314q3.657 0 21.029-21.258t23.771-30.857q9.143 0.914 13.714 0.914t13.714-0.914q23.314 32.457 42.057 51.2l2.743 0.914q1.829 0 56.686-32 1.829-1.375 1.829-3.204 0-11.429-23.314-63.086 7.771-10.514 13.714-23.771 68.114-6.853 68.114-14.171zM950.857 714.282v-64q0-7.314-68.114-14.171-5.486-12.343-13.714-23.771 23.314-51.657 23.314-63.086 0-1.829-1.829-3.204-55.771-32.457-56.686-32.457-3.657 0-21.029 21.486t-23.771 31.086q-9.143-0.914-13.714-0.914t-13.714 0.914q-6.4-9.6-23.771-31.086t-21.029-21.486q-0.914 0-56.686 32.457-1.829 1.375-1.829 3.204 0 11.429 23.314 63.086-8.229 11.429-13.714 23.771-68.114 6.853-68.114 14.171v64q0 7.314 68.114 14.171 5.947 13.257 13.714 23.771-23.314 51.657-23.314 63.086 0 1.829 1.829 3.204 1.829 0.914 16 9.143t26.971 15.543 13.714 7.314q3.657 0 21.029-21.257t23.771-30.858q9.143 0.914 13.714 0.914t13.714-0.914q23.314 32.457 42.057 51.2l2.743 0.914q1.829 0 56.686-32 1.829-1.375 1.829-3.204 0-11.429-23.314-63.086 7.771-10.514 13.714-23.771 68.114-6.853 68.114-14.171z" />
<glyph unicode="&#xe651;" glyph-name="libre-columns" d="M157.538 110.418h320.703v607.648h-337.582v-590.769q0-6.853 5.011-11.868 5.011-5.010 11.868-5.010zM883.341 127.297v590.769h-337.582v-607.648h320.703q6.857 0 11.868 5.010t5.011 11.868zM950.857 768.704v-641.407q0-34.814-24.791-59.605t-59.604-24.791h-708.923q-34.813 0-59.604 24.791t-24.791 59.605v641.407q0 34.813 24.791 59.604t59.604 24.791h708.923q34.813 0 59.604-24.791t24.791-59.604z" />
<glyph unicode="&#xe652;" glyph-name="libre-comment" d="M950.857 510.768q0-85.225-58.775-157.469t-159.674-114.123-220.408-41.877q-34.286 0-71.020 3.92-96.979-85.715-225.306-118.531-24-6.853-55.837-10.775-8.327-0.98-14.939 4.411t-8.571 14.204v0.512q-1.469 1.96-0.241 5.881 1.224 3.92 0.979 4.901-0.241 0.98 2.204 4.652l2.939 4.411 3.428 4.162 3.918 4.411q3.43 3.92 15.184 16.897 11.756 12.98 16.898 18.613t15.184 19.347 15.918 24.979q5.881 11.265 13.225 28.898 7.346 17.633 12.734 37.225-76.898 43.592-121.224 107.756-44.329 64.129-44.329 137.598 0 63.674 34.775 121.714t93.551 100.163 140.082 66.858 170.449 24.735q119.51 0 220.408-41.878t159.674-114.123 58.775-157.469z" />
<glyph unicode="&#xe653;" glyph-name="libre-comments" d="M762.775 542.067q0-68.081-46.041-125.877t-125.633-91.347-173.142-33.551q-42.123 0-86.205 7.837-60.734-43.102-136.163-62.694-17.633-4.411-42.123-7.837h-1.47q-5.391 0-10.041 3.92-4.653 3.92-5.633 10.285-0.49 1.47-0.49 3.182t0.241 3.182 0.979 2.94l1.224 2.45 1.714 2.692 1.959 2.45 2.204 2.45 1.959 2.202q2.449 2.94 11.266 12.245 8.816 9.306 12.734 14.449 3.92 5.142 11.020 14.204 7.102 9.061 12.245 18.857t10.041 21.551q-60.735 35.266-95.51 86.694-34.77 51.43-34.77 109.716 0 68.081 46.041 125.877t125.633 91.347 173.143 33.551 173.142-33.551 125.633-91.347 46.041-125.877zM950.857 416.679q0-58.775-34.776-109.959t-95.51-86.449q4.901-11.756 10.041-21.552 5.142-9.795 12.245-18.857t11.020-14.204q3.92-5.142 12.734-14.449 8.817-9.306 11.265-12.245 0.512-0.512 1.96-2.202 1.47-1.712 2.202-2.45 0.731-0.731 1.96-2.45 1.221-1.712 1.712-2.692l1.229-2.45 0.98-2.94 0.219-3.182-0.512-3.182q-1.47-6.853-6.371-10.775-4.901-3.92-10.775-3.43-24.49 3.43-42.123 7.837-75.429 19.592-136.163 62.694-44.082-7.837-86.205-7.837-132.735 0-231.183 64.653 28.408-1.96 43.102-1.96 78.857 0 151.346 22.041t129.306 63.183q61.224 45.062 94.041 103.837t32.816 124.408q0 37.715-11.265 74.449 63.184-34.776 99.918-87.184t36.735-112.653z" />
<glyph unicode="&#xe654;" glyph-name="libre-content" d="M390.751 188.021c5.277-4.726 12.807-6.018 19.375-3.325l146.891 60.158-127.736 114.6-43.944-152.552c-1.979-6.815 0.138-14.153 5.414-18.88zM440.988 318.725l74.201-66.616-57.712-23.662-33.775 30.313 17.286 59.966zM950.805 700.119c-0.549 9.839-4.974 19.072-12.284 25.668l-72.415 64.967c-7.365 6.596-17.011 9.976-26.85 9.454-9.811-0.549-19.1-4.947-25.668-12.312l-42.734-47.599 127.791-114.572 42.679 47.599c6.596 7.283 10.003 16.929 9.481 26.795zM896.033 673.434l-77.417 69.447 22.343 24.899 77.362-69.419-22.288-24.926zM694.646 655.351l-250.085-278.804 127.818-114.627 17.918 20.034 253.081 282.129-127.763 114.627-20.969-23.36zM683.598 538.47l-152.222-169.673c-1.869-2.144-4.589-3.436-7.448-3.573-2.858-0.168-5.634 0.824-7.75 2.721l-7.53 6.761c-4.425 4.013-4.782 10.8-0.824 15.197l152.25 169.728c1.896 2.144 4.562 3.436 7.448 3.573 2.831 0.139 5.634-0.824 7.75-2.748l7.503-6.788c4.48-3.957 4.782-10.773 0.824-15.198zM727.844 619.102l7.53-6.761c4.397-3.957 4.782-10.773 0.797-15.197l-1.924-2.171-10.883-12.12-0.467-0.497c-1.869-2.144-4.562-3.408-7.448-3.545-2.858-0.168-5.634 0.797-7.75 2.748l-7.558 6.761c-2.144 1.896-3.38 4.59-3.545 7.42-0.165 2.858 0.824 5.661 2.776 7.777l13.219 14.758c4.012 4.424 10.828 4.809 15.252 0.824zM195.657 242.215c0-18.358 14.895-33.226 33.226-33.226h106.41c0.413 4.754 1.099 7.365 2.144 10.938l15.994 55.541h-124.548c-18.33-0.028-33.226-14.895-33.226-33.253zM411.83 414.802h-182.947c-18.358 0-33.226-14.923-33.226-33.281 0-18.303 14.895-33.226 33.226-33.226h145.297l37.65 66.506zM536.103 552.486h-307.22c-18.358 0-33.226-14.895-33.226-33.226 0-18.358 14.895-33.253 33.226-33.253h247.557l59.663 66.479zM581.888 658.539c0 18.358-14.868 33.226-33.226 33.226h-319.779c-18.33 0.027-33.226-14.868-33.226-33.226 0-18.33 14.895-33.226 33.226-33.226h319.752c18.385 0 33.253 14.895 33.253 33.226zM638.281 115.579h-498.659v664.87h498.687v-113.308l66.451 74.091v38.007c0 37.375-30.313 67.688-67.688 67.688h-496.241c-37.375 0-67.688-30.285-67.688-67.688v-662.451c0-37.403 30.313-67.715 67.688-67.715h496.296c37.348 0 67.688 30.313 67.688 67.715v218.151l-66.506-74.119v-145.242h-0.027z" />
<glyph unicode="&#xe655;" glyph-name="libre-copy" d="M786.286 667.429h-164.571v54.857l-164.571 164.571h-384v-658.286h329.143v-219.429h548.571v493.714l-164.571 164.571zM786.286 589.849l86.992-86.991h-86.992v86.991zM457.143 809.277l86.992-86.991h-86.992v86.991zM128 832h274.286v-164.571h164.571v-384h-438.857v548.571zM896 64h-438.857v164.571h164.571v384h109.714v-164.571h164.571v-384z" />
<glyph unicode="&#xe656;" glyph-name="libre-credit-card" d="M877.714 799.086q30.171 0 51.657-21.486t21.486-51.657v-555.886q0-30.171-21.486-51.657t-51.657-21.486h-731.429q-30.171 0-51.657 21.486t-21.486 51.657v555.886q0 30.171 21.486 51.657t51.657 21.486h731.429zM146.286 740.571q-5.943 0-10.286-4.345-4.343-4.341-4.343-10.284v-102.4h760.686v102.4q0 5.939-4.345 10.285-4.341 4.343-10.284 4.343h-731.429zM877.714 155.429q5.939 0 10.285 4.345 4.343 4.341 4.343 10.284v277.943h-760.686v-277.943q0-5.947 4.343-10.285 4.342-4.343 10.285-4.343h731.429zM190.171 213.943v58.514h117.029v-58.514h-117.029zM365.714 213.943v58.514h175.543v-58.514h-175.543z" />
<glyph unicode="&#xe657;" glyph-name="libre-credit-card-amex" d="M118.475 529.524h33.904l-17.143 41.143zM355.047 329.143l28.19 30.095-26.666 30.095h-62.095v-18.667h54.095v-20.953h-54.095v-20.571h60.572zM415.237 358.857l37.715-41.905v82.667zM524.951 376.762q0 12.572-15.238 12.572h-32v-26.286h31.619q15.619 0 15.619 13.714zM635.046 378.283q0 11.047-16 11.047h-31.238v-23.238h30.857q16.381 0 16.381 12.191zM529.141 555.807q0 11.047-16 11.047h-31.238v-22.857h30.858q16.38 0 16.38 11.81zM703.999 529.521h33.905l-16.762 41.143zM339.427 588.569v-103.238h-25.142v80.761l-35.81-80.761h-21.714l-35.81 80.761v-80.761h-50.286l-9.524 22.857h-51.428l-9.524-22.857h-26.667l44.191 103.238h36.572l41.904-97.905v97.905h40.381l32.38-70.096 29.333 70.096h41.143zM551.237 376.759q0-7.619-2.092-13.333-2.092-5.712-5.332-9.524t-8.572-6.283-9.905-3.811q-4.571-1.331-12-1.712-7.428-0.366-12-0.366t-12.381 0.219-11.238 0.219v-34.667h-48.004l-30.476 34.286-31.619-34.286h-97.524v103.238h99.048l30.476-33.905 31.238 33.905h78.858q41.524 0 41.524-33.905zM440.38 506.663v-21.333h-82.666v103.238h82.666v-21.715h-57.904v-18.667h56.381v-20.953h-56.381v-20.571h57.904zM950.856 293.715v-87.238q0-20.953-14.667-36t-35.619-15.048h-777.143q-20.952 0-35.619 15.048t-14.667 36v258.286h42.286l9.524 23.238h20.952l9.524-23.238h83.048v17.524l7.241-17.524h43.047l7.619 17.905v-17.905h206.095v37.714l3.811 0.366q3.811 0 3.811-5.332v-32.761h106.285v8.762q8.763-4.571 20.953-6.853t20-2.48q7.809-0.219 24 0.219 16.191 0.366 19.619 0.366l9.524 23.238h21.334l9.524-23.238h86.476v22.095l12.952-22.095h69.334v144h-68.571v-16.762l-9.524 16.762h-70.476v-16.762l-8.762 16.762h-94.858q-26.285 0-41.524-8.381v8.381h-65.524v-8.381q-9.143 8.381-27.81 8.381h-239.238l-16.381-36.953-16.381 36.953h-75.429v-16.762l-8.381 16.762h-64.386l-29.714-68.19v148.952q0 20.953 14.667 36t35.619 15.048h777.143q20.953 0 35.619-15.048t14.667-36v-258.286h-45.714q-19.429 0-30.857-8.381v8.381h-67.429q-20.953 0-29.714-8.381v8.381h-120.381v-8.381q-11.81 8.381-33.143 8.381h-79.619v-8.381q-8.762 8.381-34.667 8.381h-89.143l-20.571-22.095-19.048 22.095h-132.952v-144h130.666l20.953 22.476 19.81-22.476h80.38v33.905h8q22.476 0 34.286 4.952v-38.857h66.286v37.715h3.050q3.050 0 3.811-0.761t0.761-3.811v-33.143h201.524q21.714 0 33.524 9.143v-9.143h64q22.857 0 36.19 6.473zM662.094 382.858q0-8.763-4.571-16.381t-12.952-11.047q9.524-3.43 12.952-9.905 3.43-6.473 3.43-17.524v-20.572h-24.762v17.143q0 12.571-4.571 16.571t-17.524 4.001h-26.285v-37.715h-24.762v103.238h58.665q18.286 0 29.333-5.712t11.047-22.095zM556.57 560.762q0-9.143-4.762-16.762t-12.762-11.047q9.905-3.43 13.143-9.714 3.24-6.283 3.24-17.714v-20.19h-24.762q0 3.43 0.219 10.095 0.219 6.663 0 9.524t-1.141 7.051q-0.951 4.191-3.24 6.093-2.282 1.902-6.663 3.24-4.381 1.331-11.238 1.331h-26.666v-37.333h-24.381v103.238l58.285-0.366q18.667 0 29.714-5.522t11.047-21.905zM758.094 328.762v-21.334h-82.286v103.238h82.286v-21.333h-57.524v-18.667h56.381v-20.953h-56.381v-20.571zM595.808 588.572v-103.238h-25.143v103.238h25.143zM859.809 340.19q0-32.762-38.857-32.762h-48v22.096h48q12.952 0 12.952 9.524 0 6.093-6.473 8-6.473 1.902-15.81 1.902-9.333 0-18.857 1.331t-16 8.572q-6.473 7.241-6.473 20.953 0 14.857 9.905 22.857t25.143 8h49.524v-21.714h-45.333q-13.714 0-13.714-9.524 0-6.093 6.663-7.809 6.663-1.712 16-1.521 9.334 0.219 18.667-0.951 9.334-1.141 16-8.19 6.663-7.051 6.663-20.762zM950.856 359.238v-38.476q-9.143-13.334-33.524-13.334h-47.619v22.096h47.619q12.571 0 12.571 9.524 0 4.952-4.762 7.241t-11.81 2.092q-7.051-0.219-15.238 0.761-8.191 0.951-15.239 3.050-7.051 2.099-11.81 9.143-4.762 7.051-4.762 18.477 0 14.857 10.095 22.857t25.334 8h49.142v-21.714h-44.952q-13.714 0-13.714-9.524 0-7.619 11.047-8.381t26.095-1.902 21.524-9.904zM887.999 588.191v-102.857h-35.047l-46.476 77.333v-77.333h-50.286l-9.905 22.857h-51.047l-9.524-22.857h-28.571q-49.143 0-49.143 50.667 0 52.571 50.667 52.571h24v-22.477q-2.67 0-10.666 0.366-8 0.366-10.857 0.219-2.86-0.219-8.762-0.761-5.903-0.585-8.191-2.48-2.282-1.902-5.522-5.142t-4.381-8.762-1.141-12.762q0-14.476 5.142-22.095t18.858-7.619h11.047l35.047 81.143h36.953l41.524-97.524v97.524h37.715l43.428-71.619v71.619h25.143z" />
<glyph unicode="&#xe658;" glyph-name="libre-credit-card-cc" d="M409.571 400h88.714q-6-67.714-42.214-106.5t-91.929-38.786q-69.429 0-109.071 49.714t-39.643 135.428q0 83.143 39.857 133.5t99.857 50.357q63.429 0 99.429-37.285t41.571-105.857h-87q-2.143 27.429-15.214 42.429t-34.929 15q-24.429 0-37.929-25.928t-13.5-76.071q0-20.571 2.143-36t7.714-29.786 17.143-22.071 28.286-7.714q40.714 0 46.714 59.571zM714.714 400h88.286q-6-67.714-42-106.5t-91.714-38.786q-69.429 0-109.071 49.714t-39.643 135.428q0 83.143 39.857 133.5t99.857 50.357q63.429 0 99.429-37.285t41.571-105.857h-87.429q-1.714 27.429-15 42.429t-34.714 15q-24.429 0-37.929-25.928t-13.5-76.071q0-20.571 2.143-36t7.714-29.786 16.929-22.071 28.071-7.714q21 0 32.786 16.285t14.357 43.286zM868.571 451q0 88.714-6.643 131.571t-25.929 69q-2.572 3.43-5.786 5.998-3.214 2.575-9.214 6.429t-6.857 4.718q-36.857 27-298.714 27-267.857 0-304.286-27-2.143-1.712-7.5-4.93-5.357-3.211-9-5.998t-6.214-6.217q-19.286-25.714-25.714-68.357t-6.429-132.214q0-89.143 6.429-131.786t25.714-68.786q2.571-3.43 6.429-6.429t8.786-5.998 7.5-5.142q18.857-14.143 102.643-21 83.786-6.853 201.643-6.853 261.429 0 298.714 27.857 2.143 1.712 7.286 4.718 5.143 2.999 8.786 5.998t5.786 6.853q19.714 25.714 26.143 68.143t6.429 132.429zM950.857 777.143v-658.286h-877.714v658.286h877.714z" />
<glyph unicode="&#xe659;" glyph-name="libre-credit-card-discover" d="M192.381 493.332q0-19.428-13.714-32-11.047-9.905-33.905-9.905h-6.476v83.81h6.476q23.238 0 33.905-10.286 13.714-11.81 13.714-31.619zM868.953 518.094q0-19.809-24.382-19.809h-7.241v38.476h7.619q24 0 24-18.667zM217.905 493.332q0 28.191-19.048 45.904t-49.143 17.714h-36.19v-126.857h36.19q28.191 0 45.334 14.476 22.857 19.429 22.857 48.762zM229.334 430.094h24.762v126.857h-24.762v-126.857zM351.238 468.57q0 15.238-7.809 23.619t-28.762 16q-11.047 3.811-15.048 7.241t-4.001 8.763q0 6.093 5.142 10.095 5.142 4.001 13.143 4.001 11.047 0 20.19-10.285l12.952 16.762q-15.619 14.095-37.334 14.095-16.761 0-28.19-10.476t-11.429-25.715q0-13.333 6.853-21.143t24.381-13.904q14.095-4.952 17.143-7.241 7.241-4.571 7.241-12.952 0-7.619-5.332-12.762t-13.714-5.142q-18.286 0-27.047 16.762l-16-15.238q16.761-24.381 43.809-24.381 19.429 0 31.62 11.619t12.19 30.286zM457.143 434.284v29.333q-14.095-14.095-29.714-14.095-18.667 0-30.667 12.381t-12 31.429q0 18.286 12 31.048t29.523 12.762q16.381 0 30.858-14.476v29.333q-15.238 7.619-30.476 7.619-28.19 0-47.809-19.238t-19.619-47.048 19.428-47.048 47.619-19.238q16 0 30.858 7.241zM926.476 204.189v200.762q-24.763-15.239-55.048-32t-90.476-44.572q-60.19-27.809-125.523-52.381t-159.048-51.238-192-44.953h597.714q9.905 0 17.143 7.241 7.241 7.241 7.241 17.143zM602.285 492.57q0 28.572-20.19 48.762t-48.761 20.19-48.762-20.19-20.19-48.762 20.19-48.761 48.762-20.19q28.571 0 48.761 20.19t20.19 48.761zM660.19 426.665l54.857 130.286h-27.047l-34.286-85.333-33.905 85.333h-27.047l54.095-130.286h13.333zM726.095 430.095h70.096v21.333h-45.334v34.286h43.81v21.333h-43.81v28.191h45.334v21.714h-70.096v-126.857zM875.047 430.095h30.476l-40 53.333q28.953 6.093 28.953 35.81 0 17.905-11.81 27.81t-33.143 9.904h-36.953v-126.857h24.763v50.667h3.43zM950.857 689.524v-483.047q0-21.334-14.667-36.191t-35.619-14.857h-777.143q-20.952 0-35.619 14.857t-14.667 36.191v483.047q0 21.334 14.667 36.19t35.619 14.858h777.143q20.953 0 35.619-14.858t14.667-36.19z" />
<glyph unicode="&#xe65a;" glyph-name="libre-credit-card-mastercard" d="M328.762 433.905h-4.952q-17.905 0-17.905-12.191 0-8.381 7.619-8.381 6.473 0 10.666 5.712 4.191 5.712 4.571 14.857zM479.238 447.619h23.619v1.141q0.366 1.521 0.219 2.472-0.219 0.951-0.366 2.67-0.219 1.712-0.761 3.050-0.585 1.331-1.712 2.48-1.141 1.141-2.86 1.902-1.712 0.761-4.381 0.761-10.666 0-13.714-14.476zM684.952 433.905h-4.571q-18.286 0-18.286-12.191 0-8.381 7.619-8.381 6.473 0 10.666 5.712 4.191 5.712 4.571 14.857zM806.476 443.81q0 15.619-11.429 15.619-7.241 0-11.81-7.619-4.571-7.619-4.571-19.428 0-16 10.667-16 7.619 0 12.381 7.619t4.762 19.81zM256 497.524h33.143l-16.762-99.809h-21.334l12.191 76.571-27.047-76.571h-14.858l-1.521 76.191-12.952-76.191h-20.191l16.762 99.809h30.858l0.761-62.095zM352.381 456.762q0-2.282-1.521-16-6.093-38.476-6.473-43.047h-17.905l0.366 8.381q-7.619-9.904-22.095-9.904-8.763 0-14.286 6.093-5.522 6.093-5.522 16 0 14.858 9.905 23.047t27.81 8.191q5.332 0 8.762-0.366 0 1.141 0.219 2.092t0.366 1.712q0.219 0.761 0.219 1.141 0 7.619-13.714 7.619-11.048 0-22.477-3.811 0 1.521 2.67 18.286 14.476 4.191 25.524 4.191 28.191 0 28.191-23.619zM411.81 478.857l-3.050-18.666q-8.381 1.141-15.619 1.141-10.285 0-10.285-6.473 0-3.050 1.712-4.571t8.191-4.191q15.238-7.241 15.238-22.857 0-27.429-33.142-27.047-12.952 0-22.095 2.282 0 0.761 2.67 18.666 11.047-3.050 19.428-3.050 12.191 0 12.191 7.241 0 2.67-1.712 4.381t-8.191 4.762q-16.381 7.619-16.381 22.476 0 27.429 32 27.429 11.429 0 19.048-1.521zM445.333 478.857h10.667l-2.67-19.809h-11.047q-0.761-6.473-2.48-15.429-1.712-8.952-2.67-14.667-0.951-5.712-0.951-6.853 0-6.093 7.241-6.093 3.050 0 6.093 0.761l-3.050-17.905q-8-2.67-15.239-2.67-16.38 0-17.142 17.905 0 4.571 3.050 21.334 1.141 7.619 9.524 55.619h20.953zM522.666 451.048q0-8.762-2.67-19.81h-42.286q-1.141-8.381 3.811-12.571t14.476-4.191q11.429 0 22.095 5.332l-3.43-20.571q-11.429-3.050-21.715-3.050-36.19 0-36.19 36.19 0 20.953 10.476 34.476t26.476 13.524q13.333 0 21.143-8t7.809-21.333zM575.619 479.238q-4.952-8.762-8.381-23.619-8.381 0.761-11.81-9.143t-9.524-48.762h-21.333l1.141 5.332q8.381 49.524 11.047 75.809h19.429l-1.141-12.571q5.332 8 9.714 11.238 4.381 3.24 10.857 1.712zM646.857 494.858l-3.43-21.715q-10.666 5.332-19.047 5.332-11.81 0-19.429-10.476t-7.619-26.857q0-11.429 5.142-17.905 5.142-6.473 14.667-6.473 8 0 18.286 4.952l-3.811-22.476q-10.667-3.050-19.048-3.050-17.143 0-27.238 11.619t-10.095 31.429q0 26.666 13.524 43.619t34.857 16.952q9.905 0 23.238-4.952zM708.571 456.762q0-6.853-1.521-16-4.952-30.095-6.473-43.047h-17.524l0.366 8.381q-7.619-9.904-22.476-9.904-8.762 0-14.095 6.093t-5.332 16q0 14.858 9.715 23.047t27.619 8.191q5.712 0 8.762-0.366 0.761 2.67 0.761 4.952 0 7.619-13.714 7.619-11.047 0-22.476-3.811 0 1.521 3.050 18.286 14.476 4.191 25.524 4.191 27.81 0 27.81-23.619zM762.286 479.238q-5.332-9.143-8-23.619-8.762 0.761-12-8.763-3.24-9.523-9.714-49.142h-21.334l1.141 5.332q7.241 39.619 11.047 75.809h19.81q0-4.191-1.521-12.571 5.712 8 10.095 11.238 4.381 3.24 10.476 1.712zM816 497.524h21.334l-16.381-99.809h-20.19l1.141 7.241q-8.762-8.762-19.809-8.762-11.81 0-18.857 9.143-7.051 9.143-7.051 24.381 0 20.19 10.476 35.048t24.572 14.857q11.81 0 20.19-11.047zM858.285 448q0 56.381-27.619 104t-75.429 75.429-104.191 27.809q-68.953 0-124.952-41.904 48.381-44.191 65.142-108.191h-19.047q-16.762 57.143-60.191 96.381-43.429-39.238-60.191-96.381h-19.047q16.761 64 65.142 108.191-56 41.904-124.952 41.904-56.381 0-104.191-27.809t-75.429-75.429-27.619-104 27.619-104 75.429-75.428q47.81-27.81 104.191-27.81 68.953 0 124.952 41.904-45.714 42.286-62.857 100.571h19.047q17.524-52.571 57.905-88.762 40.381 36.19 57.905 88.762h19.047q-17.142-58.285-62.857-100.571 56-41.904 124.952-41.904 56.381 0 104.191 27.81t75.429 75.428q27.619 47.62 27.619 104zM950.857 691.809v-487.619q0-19.81-14.476-34.286t-34.286-14.476h-780.19q-19.81 0-34.286 14.476t-14.476 34.286v487.619q0 19.81 14.476 34.286t34.286 14.476h780.19q19.81 0 34.286-14.476t14.476-34.286z" />
<glyph unicode="&#xe65b;" glyph-name="libre-credit-card-paypal" d="M195.809 466.667h-5.712q-7.241 0-7.241 6.853 0 10.666 7.241 32.381 1.902 5.712 5.712 7.428 3.811 1.712 10.667 1.712 29.333 0 29.333-18.667 0-15.619-11.619-22.667-11.619-7.051-28.381-7.051zM326.095 405.334q-17.905 0-17.905 11.047 0 23.619 46.858 23.619l1.141-1.141q-1.902-33.524-30.095-33.524zM620.952 465.905h-5.712q-7.241 0-7.241 7.241 0 10.666 7.241 32.381 1.902 5.712 5.522 7.241 3.621 1.521 10.857 1.521 29.333 0 29.333-18.667 0-15.619-11.619-22.666-11.619-7.051-28.381-7.051zM751.238 404.953q-17.905 0-17.905 11.429 0 23.619 46.858 23.619l1.141-1.141q-1.902-33.905-30.095-33.905zM215.238 544.762h-48.762q-3.050 0-5.522-1.521-2.48-1.521-3.24-2.86-0.761-1.331-2.67-4.762-1.141-2.67-17.143-72.381-16-69.714-16-73.143 0-2.67 2.095-4.762 2.096-2.099 5.143-2.099h23.619q9.524 0 12.381 13.143l5.712 26.286 12.381 13.142q17.905 0 33.333 2.86t30.667 9.333 24.191 20q8.952 13.523 8.952 32.19 0 13.714-5.522 23.238t-15.619 13.904q-10.095 4.381-20.381 5.903t-23.619 1.521zM347.047 508.191q-14.476 0-28.19-2.282-0.761 0-3.24-0.366t-3.43-0.585l-2.86-0.585-2.86-0.761-2.48-1.141-2.48-1.521-1.902-1.902-1.712-2.67-1.521-3.43q-3.43-11.047-3.43-14.857 0-3.811 3.43-3.811 1.902 0 8.191 1.902 6.283 1.902 7.428 2.282 11.429 3.050 22.096 3.050 28.19 0 28.19-13.714 0-4.191-3.811-5.332-3.050-0.761-6.853-1.141-3.811-0.366-8.191-0.585-4.381-0.219-6.663-0.585-14.476-1.521-24.572-3.811-10.095-2.282-21.524-7.428-11.429-5.142-17.333-14.857-5.903-9.715-5.903-23.809 0-14.476 9.905-22.667t24.381-8.191q9.143 0 17.333 2.472 8.191 2.48 12.571 4.952 4.381 2.48 14.667 8.953-1.141-2.67-1.141-5.712 0-3.050 2.092-5.142t4.762-2.092h21.334q0.366 0.366 2.67 1.331 2.282 0.951 2.86 1.331 0.585 0.366 1.902 1.331 1.331 0.951 1.902 2.092 0.585 1.141 0.951 3.050l17.143 73.905q1.521 4.952 1.521 11.429 0 30.858-55.238 30.858zM548.19 506.289h-28.19q-8.381 0-14.858-8.762-1.902-2.67-11.238-19.428-9.333-16.762-17.714-31.048t-9.905-14.667l-1.902 1.521q0 29.333-10.286 63.239-0.366 1.902-1.331 3.24-0.951 1.331-2.282 2.48-1.331 1.141-2.48 1.902-1.141 0.761-3.24 1.141-2.092 0.366-3.24 0.585-1.141 0.219-3.621 0.366-2.48 0.219-3.43 0.219h-7.051q-14.476 0-14.476-8l0.366-1.902q1.902-20.191 9.524-57.524 7.619-37.334 9.524-54.476 0.761-6.093 0.761-9.143 0-7.241-11.619-23.429-11.619-16.19-11.619-22.285 0-4.952 15.238-4.952 23.238 0 28.952 9.523l93.334 158.095q3.811 7.619 3.811 9.905 0 3.43-3.050 3.43zM640.381 544.004h-49.143q-6.853 0-11.047-8.762-2.282-4.952-17.714-72.953-15.428-68-15.428-72.572 0-7.619 16.38-7.619h9.715l3.621 0.366 3.24 0.761 3.24 1.141 2.48 1.712 2.092 2.282 1.141 3.24 8 34.666q0.761 3.811 4.001 6.473 3.24 2.67 7.428 2.67 17.905 0 33.333 2.67t30.667 9.334 24.191 20q8.952 13.333 8.952 31.999 0 13.715-5.522 23.238t-15.619 13.905q-10.095 4.381-20.381 5.903t-23.619 1.521zM772.19 508.194q-9.904 0-28.19-2.282-14.476-2.282-18.286-6.093-2.67-3.050-4.191-7.241-3.050-9.144-3.050-14.858 0-3.811 3.050-3.811 0.366 0 15.62 4.571 11.428 3.050 22.095 3.050 28.191 0 28.191-13.714 0-4.571-3.811-5.332-1.521-0.366-21.714-2.67-14.476-1.521-24.572-3.811-10.095-2.282-21.524-7.428-11.429-5.142-17.333-14.857t-5.903-23.809 9.905-22.286 24.381-8.191q9.143 0 17.143 2.282t12.952 4.952 14.476 9.143q-1.141-5.712-1.141-6.093 0-1.902 0.761-3.24 0.761-1.331 2.48-2.092 1.712-0.761 3.050-1.331 1.331-0.585 4.001-0.761 2.67-0.219 3.621-0.219h6.663q16 0 18.286 9.524l17.143 73.904q1.141 5.712 1.141 11.81 0 30.858-55.238 30.858zM894.857 542.861h-20.952q-9.524 0-12.572-15.239-3.811-16.762-13.904-63.619-10.095-46.858-16.191-72.381v-1.902q0-6.093 6.093-6.853h22.098q3.811 0 7.051 2.48 3.24 2.472 4.001 6.283l31.619 142.476h-0.366l0.366 1.902q0 2.67-2.092 4.762t-5.142 2.092zM950.857 691.809v-487.619q0-19.81-14.476-34.286t-34.286-14.476h-780.19q-19.81 0-34.286 14.476t-14.476 34.286v487.619q0 19.81 14.476 34.286t34.286 14.476h780.19q19.81 0 34.286-14.476t14.476-34.286z" />
<glyph unicode="&#xe65c;" glyph-name="libre-credit-card-stripe" d="M681.524 445.333q0-26.285-8-40.381-7.241-13.333-19.809-13.333-8.762 0-15.619 3.43v85.334q11.047 11.429 21.714 11.429 21.715 0 21.715-46.476zM848.381 459.047h-41.905q2.282 37.334 21.334 37.334 19.428 0 20.571-37.334zM254.476 407.619q0 22.476-12.572 34.857t-38.476 21.905q-13.714 4.952-19.809 9.143-6.093 4.191-6.093 9.524 0 9.904 14.476 9.904 22.095 0 47.238-12.571l6.853 42.666q-25.523 12.191-56.762 12.191-29.333 0-46.857-14.476-18.286-14.857-18.286-41.524 0-22.095 12.381-34.476t37.905-21.524q14.857-5.332 20.762-9.714 5.903-4.381 5.903-10.476 0-11.81-18.286-11.81-11.047 0-26.666 4.762t-27.429 11.619l-6.857-43.048q27.429-15.619 64-15.619 30.857 0 49.142 14.095 19.429 15.619 19.429 44.572zM366.857 489.524l7.241 42.285h-36.571v51.429l-49.142-8-6.853-43.429-17.524-3.050-6.473-39.238h23.619v-83.429q0-32 16.762-45.714 14.476-11.429 42.285-11.429 12.191 0 30.095 4.191v44.952q-12.191-2.67-16.762-2.67-16 0-16 19.048v75.047h29.333zM487.238 480v52.953q-5.712 1.141-10.667 1.141-12.19 0-21.143-6.093t-12.762-17.524l-3.809 21.332h-49.905v-179.428h57.143v116.571q9.905 11.81 31.238 11.81 6.093 0 9.905-0.761zM501.334 352.381h57.143v179.428h-57.143v-179.428zM738.286 447.238q0 46.476-17.143 68.191-15.238 19.809-42.285 19.809-24.381 0-44.571-21.334l-3.050 17.905h-50.286v-245.714l57.143 9.524v57.524q13.714-4.191 25.904-4.191 31.62 0 51.048 21.334 23.238 24.762 23.238 76.952zM560 579.809q0 12.572-8.762 21.334t-21.334 8.762-21.334-8.762-8.762-21.334 8.762-21.524 21.334-8.952 21.334 8.952 8.762 21.524zM902.095 443.81q0 43.047-18.286 67.047-19.047 24.381-54.857 24.381-36.571 0-57.714-25.143t-21.143-68.571q0-48.762 24-71.619 20.953-20.953 61.333-20.953 38.477 0 60.953 15.239l-6.093 39.238q-21.714-11.81-48.761-11.81-16.381 0-24 7.241-8.762 7.241-10.666 25.143h94.476q0.761 5.332 0.761 19.81zM950.857 691.809v-487.619q0-19.81-14.476-34.286t-34.286-14.476h-780.19q-19.81 0-34.286 14.476t-14.476 34.286v487.619q0 19.81 14.476 34.286t34.286 14.476h780.19q19.81 0 34.286-14.476t14.476-34.286z" />
<glyph unicode="&#xe65d;" glyph-name="libre-credit-card-visa" d="M825.524 412.191h-52.571q5.332 14.095 25.143 68.19l1.141 3.43q1.521 3.811 3.811 9.905 2.282 6.093 3.43 9.905l4.571-20.953zM275.429 436.953l-22.096 112.381q-4.191 20.571-28.571 20.571h-102.096l-0.762-4.952q118.476-30.095 153.524-128zM343.619 569.905l-61.714-166.857-6.473 33.905q-9.905 26.666-32.381 49.333t-49.905 33.714l51.428-194.286h66.667l99.428 244.19h-67.047zM396.572 325.334h63.238l39.619 244.571h-63.238zM689.143 563.809q-26.286 10.286-56.763 10.286-46.857 0-76.571-22.476t-30.095-58.286q-0.366-38.857 55.238-66.286 18.286-8.762 25.524-15.619 7.241-6.853 7.241-14.858 0-11.428-11.428-17.524-11.429-6.093-26.286-6.093-32.762 0-59.429 12.571l-8.381 4.191-8.763-54.857q28.191-12.952 70.477-12.952 49.524-0.366 79.428 22.476 29.905 22.857 30.667 60.953 0 40.381-53.334 66.286-18.667 9.523-27.047 16-8.381 6.473-8.381 14.476 0 8.381 9.334 14.667 9.333 6.283 26.857 6.283 26.666 0.366 47.238-9.143l5.712-3.050zM851.048 569.902h-48.762q-24.762 0-33.142-20.571l-93.715-224h66.286l13.333 36.571h80.761q1.902-8.381 7.619-36.571h58.666zM950.857 691.809v-487.619q0-19.81-14.476-34.286t-34.286-14.476h-780.19q-19.81 0-34.286 14.476t-14.476 34.286v487.619q0 19.81 14.476 34.286t34.286 14.476h780.19q19.81 0 34.286-14.476t14.476-34.286z" />
<glyph unicode="&#xe65e;" glyph-name="libre-crop" d="M804.573 228.571v486.143l109.714 109.714-25.861 25.858-109.714-109.714h-486.141v146.284h-73.142v-146.286h-146.286v-73.142h146.286v-512.001h511.999v-146.284h73.144v146.284h146.284v73.144h-146.284zM705.572 667.429l-413.001-413.001v413.001h413.001zM318.43 228.571l412.999 413.001v-413.001h-412.999z" />
<glyph unicode="&#xe65f;" glyph-name="libre-crosshairs" d="M757.143 374.857h-62.286q-14.857 0-25.714 10.857t-10.857 25.714v73.143q0 14.857 10.857 25.714t25.714 10.857h62.286q-18.286 61.714-64.285 107.714t-107.715 64.286v-62.286q0-14.857-10.857-25.714t-25.714-10.857h-73.143q-14.857 0-25.714 10.857t-10.857 25.714v62.286q-61.714-18.286-107.715-64.286t-64.285-107.714h62.286q14.858 0 25.714-10.857t10.857-25.714v-73.143q0-14.857-10.857-25.714t-25.714-10.857h-62.286q18.286-61.714 64.285-107.714t107.715-64.286v62.286q0 14.857 10.857 25.714t25.714 10.857h73.143q14.857 0 25.714-10.857t10.857-25.714v-62.286q61.714 18.286 107.715 64.286t64.285 107.714zM950.857 484.571v-73.143q0-14.857-10.857-25.714t-25.714-10.857h-81.714q-21.143-92-88.286-159.143t-159.143-88.286v-81.714q0-14.857-10.857-25.714t-25.714-10.857h-73.143q-14.857 0-25.714 10.857t-10.857 25.714v81.714q-92 21.143-159.143 88.286t-88.286 159.143h-81.714q-14.857 0-25.714 10.857t-10.857 25.714v73.143q0 14.857 10.857 25.714t25.714 10.857h81.714q21.143 92 88.286 159.143t159.143 88.286v81.714q0 14.857 10.857 25.714t25.714 10.857h73.143q14.857 0 25.714-10.857t10.857-25.714v-81.714q92-21.143 159.143-88.286t88.286-159.143h81.714q14.858 0 25.714-10.857t10.857-25.714z" />
<glyph unicode="&#xe660;" glyph-name="libre-cut" d="M743.392 9.145c-46.642 0.001-104.89 28.471-129.958 92.061-3.487 8.297-7.322 18.367-11.758 30.016-14.203 37.284-35.667 93.627-58.101 116.966-8.211 8.544-14.563 14.741-19.668 19.721-4.582 4.469-8.436 8.231-11.907 12.033-3.471-3.803-7.325-7.563-11.911-12.038-5.102-4.981-11.451-11.175-19.659-19.714-22.433-23.341-43.899-79.694-58.106-116.981-4.433-11.641-8.268-21.704-11.753-29.998-25.071-63.592-83.318-92.064-129.957-92.064-9.091 0-17.379 1.104-24.639 3.284-45.895 13.793-73.735 65.039-69.276 127.519l0.636 7.212c5.635 50.407 36.341 100.214 86.46 140.239 43.447 34.694 94.817 56.249 134.064 56.249 7.766 0 14.935-0.848 21.461-2.523l26.933 55.216c-27.682 69.281-67.118 172.755-97.925 263.393-17.169 50.508-29.911 91.875-37.875 122.95-12.603 49.185-11.799 65.817-6.713 75.655l14.746 28.521 183.519-376.226 183.507 376.224 14.746-28.518c5.086-9.838 5.894-26.47-6.712-75.655-7.965-31.073-20.707-72.441-37.874-122.949-30.806-90.631-70.241-194.107-97.925-263.393l26.933-55.215c6.524 1.675 13.692 2.523 21.459 2.523 39.249 0 90.619-21.556 134.067-56.253 42.849-34.221 71.508-75.595 82.44-118.375l2.021 0.965 2.632-30.038c4.462-62.477-23.374-113.723-69.264-127.519-7.26-2.18-15.55-3.291-24.639-3.291-0.003-0.001-0.005-0.001-0.005-0.001zM667.727 130.948c32.462-58.891 61.464-67.699 75.879-67.699 19.623 0 34.317 15.837 37.185 31.147 1.881 10.064 2.221 20.424 1.014 30.79-4.863 41.41-33.151 76.967-56.019 99.504-31.43 30.969-66.667 51.535-89.289 60.515-2.251 0.783-3.636 0.9-4.267 0.9-0.439 0-0.607-0.053-0.607-0.053-6.588-4.279-14.465-54.034 36.105-155.105zM387.080 285.205c-22.483-8.983-57.506-29.548-88.738-60.516-22.731-22.535-50.839-58.094-55.671-99.517-1.207-10.337-0.867-20.69 1.009-30.777 2.847-15.308 17.45-31.146 36.953-31.146 14.325 0 43.149 8.809 75.413 67.697 50.249 101.037 42.453 150.761 35.834 155.131 0-0.001-0.002-0.001-0.007-0.001-0.034 0-0.212 0.031-0.549 0.031-0.629 0.002-2.003-0.146-4.244-0.9z" />
</font>
</defs>
</svg>
