<?xml version="1.0" standalone="no"?>
<!DOCTYPE svg PUBLIC "-//W3C//DTD SVG 1.1//EN" "http://www.w3.org/Graphics/SVG/1.1/DTD/svg11.dtd" >
<svg xmlns="http://www.w3.org/2000/svg">
<metadata>Generated by IcoMoon</metadata>
<defs>
<font id="icomoon" horiz-adv-x="1024">
<font-face units-per-em="1024" ascent="960" descent="-64" />
<missing-glyph horiz-adv-x="1024" />
<glyph unicode="&#x20;" horiz-adv-x="512" d="" />
<glyph unicode="&#xe600;" glyph-name="libre-activity" d="M73.143 363.037l303.961-23.486 29.186 46.263 79.727-244.875 122.439 337.415 68.338-161.587 274.063 43.425-219.251 32.746-128.845 343.83-119.591-407.896-69.050 169.421-59.084-119.589z" />
<glyph unicode="&#xe601;" glyph-name="libre-address-book" d="M128 493.714h82.286v-137.143h-82.286zM128 658.286h82.286v-137.143h-82.286zM128 329.143h82.286v-137.143h-82.286zM128 164.571h82.286v-137.143h-82.286zM237.714 877.714v-877.714h658.286v877.714h-658.286zM566.857 658.003c60.437 0 109.431-48.994 109.431-109.431s-48.994-109.431-109.431-109.431c-60.437 0-109.431 48.994-109.431 109.431s48.994 109.431 109.431 109.431zM731.429 219.428h-329.143v54.857c0 60.595 49.121 109.714 109.714 109.714v0h109.714c60.597 0 109.714-49.119 109.714-109.714v-54.857zM128 822.857h82.286v-137.143h-82.286z" />
<glyph unicode="&#xe602;" glyph-name="libre-alien" d="M511.917 877.714c-213.381 0-386.522-164.893-386.522-368.145 0-203.418 286.612-509.569 386.522-509.569 100.076 0 386.688 306.151 386.688 509.569 0 203.252-173.085 368.145-386.688 368.145v0zM449.978 282.571c-17.491-17.602-78.268 15-135.501 73.12-57.345 57.898-89.559 119.228-72.068 136.94 17.436 17.768 78.157-14.89 135.446-72.898 57.178-58.009 89.615-119.283 72.123-137.162v0zM572.804 283.014c-17.713 17.713 14.945 78.932 73.12 136.885 58.064 57.953 119.449 90.556 137.273 72.732 17.713-17.602-15-78.821-73.064-136.719-58.119-57.953-119.615-90.445-137.328-72.898v0z" />
<glyph unicode="&#xe603;" glyph-name="libre-align-center" d="M950.857 188.081v-62.694q0-12.735-9.306-22.041t-22.041-9.306h-815.021q-12.735 0-22.041 9.306t-9.306 22.041v62.694q0 12.735 9.306 22.041t22.041 9.307h815.021q12.735 0 22.041-9.307t9.306-22.041zM762.775 376.163v-62.694q0-12.735-9.306-22.041t-22.041-9.306h-438.857q-12.735 0-22.041 9.306t-9.306 22.041v62.694q0 12.735 9.306 22.041t22.041 9.306h438.857q12.735 0 22.041-9.306t9.306-22.041zM888.163 564.245v-62.694q0-12.735-9.306-22.041t-22.041-9.306h-689.633q-12.734 0-22.041 9.306t-9.306 22.041v62.694q0 12.735 9.306 22.041t22.041 9.306h689.633q12.734 0 22.041-9.306t9.306-22.041zM700.082 752.326v-62.694q0-12.735-9.306-22.041t-22.041-9.306h-313.47q-12.734 0-22.041 9.306t-9.306 22.041v62.694q0 12.735 9.306 22.041t22.041 9.306h313.47q12.734 0 22.041-9.306t9.306-22.041z" />
<glyph unicode="&#xe604;" glyph-name="libre-align-justify" d="M950.857 188.081v-62.694q0-12.735-9.306-22.041t-22.041-9.306h-815.021q-12.735 0-22.041 9.306t-9.306 22.041v62.694q0 12.735 9.306 22.041t22.041 9.307h815.021q12.735 0 22.041-9.307t9.306-22.041zM950.857 376.163v-62.694q0-12.735-9.306-22.041t-22.041-9.306h-815.021q-12.735 0-22.041 9.306t-9.306 22.041v62.694q0 12.735 9.306 22.041t22.041 9.306h815.021q12.735 0 22.041-9.306t9.306-22.041zM950.857 564.245v-62.694q0-12.735-9.306-22.041t-22.041-9.306h-815.021q-12.735 0-22.041 9.306t-9.306 22.041v62.694q0 12.735 9.306 22.041t22.041 9.306h815.021q12.735 0 22.041-9.306t9.306-22.041zM950.857 752.326v-62.694q0-12.735-9.306-22.041t-22.041-9.306h-815.021q-12.735 0-22.041 9.306t-9.306 22.041v62.694q0 12.735 9.306 22.041t22.041 9.306h815.021q12.735 0 22.041-9.306t9.306-22.041z" />
<glyph unicode="&#xe605;" glyph-name="libre-align-left" d="M950.857 188.081v-62.694q0-12.735-9.306-22.041t-22.041-9.306h-815.021q-12.735 0-22.041 9.306t-9.306 22.041v62.694q0 12.735 9.306 22.041t22.041 9.307h815.021q12.735 0 22.041-9.307t9.306-22.041zM762.775 376.163v-62.694q0-12.735-9.306-22.041t-22.041-9.306h-626.939q-12.735 0-22.041 9.306t-9.306 22.041v62.694q0 12.735 9.306 22.041t22.041 9.306h626.939q12.735 0 22.041-9.306t9.306-22.041zM888.163 564.245v-62.694q0-12.735-9.306-22.041t-22.041-9.306h-752.327q-12.735 0-22.041 9.306t-9.306 22.041v62.694q0 12.735 9.306 22.041t22.041 9.306h752.327q12.734 0 22.041-9.306t9.306-22.041zM700.082 752.326v-62.694q0-12.735-9.306-22.041t-22.041-9.306h-564.245q-12.735 0-22.041 9.306t-9.306 22.041v62.694q0 12.735 9.306 22.041t22.041 9.306h564.245q12.734 0 22.041-9.306t9.306-22.041z" />
<glyph unicode="&#xe606;" glyph-name="libre-align-right" d="M950.857 188.081v-62.694q0-12.735-9.306-22.041t-22.041-9.306h-815.021q-12.735 0-22.041 9.306t-9.306 22.041v62.694q0 12.735 9.306 22.041t22.041 9.307h815.021q12.735 0 22.041-9.307t9.306-22.041zM950.857 376.163v-62.694q0-12.735-9.306-22.041t-22.041-9.306h-626.939q-12.735 0-22.041 9.306t-9.306 22.041v62.694q0 12.735 9.306 22.041t22.041 9.306h626.939q12.735 0 22.041-9.306t9.306-22.041zM950.857 564.245v-62.694q0-12.735-9.306-22.041t-22.041-9.306h-752.327q-12.734 0-22.041 9.306t-9.306 22.041v62.694q0 12.735 9.306 22.041t22.041 9.306h752.327q12.735 0 22.041-9.306t9.306-22.041zM950.857 752.326v-62.694q0-12.735-9.306-22.041t-22.041-9.306h-564.245q-12.734 0-22.041 9.306t-9.306 22.041v62.694q0 12.735 9.306 22.041t22.041 9.306h564.245q12.735 0 22.041-9.306t9.306-22.041z" />
<glyph unicode="&#xe607;" glyph-name="libre-archive" d="M613.275 475.428q0 14.857-10.022 25.714t-23.736 10.857h-135.033q-13.714 0-23.736-10.857t-10.022-25.714 10.022-25.714 23.736-10.857h135.033q13.714 0 23.736 10.857t10.022 25.714zM917.099 585.143v-548.571q0-14.857-10.022-25.714t-23.736-10.857h-742.681q-13.714 0-23.736 10.857t-10.022 25.714v548.571q0 14.857 10.022 25.714t23.736 10.857h742.681q13.714 0 23.736-10.857t10.022-25.714zM950.857 841.143v-146.286q0-14.857-10.022-25.714t-23.736-10.857h-810.198q-13.714 0-23.736 10.857t-10.022 25.714v146.286q0 14.857 10.022 25.714t23.736 10.857h810.198q13.714 0 23.736-10.857t10.022-25.714z" />
<glyph unicode="&#xe608;" glyph-name="libre-arrow-circle-down" d="M761.965 524.544l-235.672-261.83q-6.035-6.714-14.293-6.714t-14.293 6.714l-235.672 261.83q-6.035 6.714-6.035 16.077t6.035 16.077l52.725 58.302q6.035 6.713 14.293 6.713t14.293-6.713l168.655-187.628 168.655 187.628q6.035 6.713 14.293 6.713t14.293-6.713l52.725-58.302q6.034-6.714 6.034-16.077t-6.034-16.077zM512 877.714c-242.377 0-438.857-196.48-438.857-438.857s196.48-438.857 438.857-438.857c242.377 0 438.857 196.48 438.857 438.857s-196.48 438.857-438.857 438.857zM512 80.457c-197.934 0-358.391 160.466-358.391 358.4s160.457 358.4 358.391 358.4c197.943 0 358.4-160.466 358.4-358.4s-160.457-358.4-358.4-358.4z" />
<glyph unicode="&#xe609;" glyph-name="libre-arrow-circle-right" d="M688.15 424.564l-261.93-235.672q-6.707-6.035-15.885-6.035t-15.885 6.035l-58.599 52.724q-6.707 6.035-6.707 14.293t6.707 14.293l187.446 168.655-187.446 168.655q-6.707 6.035-6.707 14.293t6.707 14.293l58.599 52.724q6.707 6.035 15.885 6.035t15.885-6.035l261.93-235.672q6.707-6.034 6.707-14.293t-6.707-14.293zM512 877.714c-242.377 0-438.857-196.48-438.857-438.857s196.48-438.857 438.857-438.857c242.377 0 438.857 196.48 438.857 438.857s-196.48 438.857-438.857 438.857zM512 80.457c-197.934 0-358.391 160.466-358.391 358.4s160.457 358.4 358.391 358.4c197.943 0 358.4-160.466 358.4-358.4s-160.457-358.4-358.4-358.4z" />
<glyph unicode="&#xe60a;" glyph-name="libre-arrow-down" d="M950.857 461.051q0-31.368-20.844-53.267l-366.747-385.887q-21.971-21.898-51.266-21.898-29.858 0-50.703 21.898l-366.747 385.887q-21.408 21.307-21.408 53.267 0 31.368 21.408 53.858l41.689 44.389q21.971 21.899 51.266 21.899 29.858 0 50.703-21.899l165.628-174.004v416.663q0 30.776 21.407 53.267t50.703 22.49h72.11q29.294 0 50.703-22.49t21.407-53.267v-416.663l165.628 174.004q20.844 21.899 50.703 21.899 29.294 0 51.266-21.899l42.252-44.389q20.844-23.082 20.844-53.858z" />
<glyph unicode="&#xe60b;" glyph-name="libre-arrow-left" d="M926.633 474.912v-72.11q0-29.858-18.309-50.984t-47.604-21.126h-396.605l165.064-165.628q21.407-20.281 21.407-50.703t-21.407-50.702l-42.252-42.816q-20.844-20.844-50.703-20.844-29.294 0-51.266 20.844l-366.747 367.31q-20.844 20.844-20.844 50.703 0 29.294 20.844 51.266l366.747 366.184q21.407 21.407 51.266 21.407 29.294 0 50.703-21.407l42.252-41.689q21.407-21.408 21.407-51.266t-21.407-51.266l-165.064-165.064h396.605q29.294 0 47.604-21.126t18.309-50.984z" />
<glyph unicode="&#xe60c;" glyph-name="libre-arrow-right" d="M926.633 438.857q0-30.422-20.844-51.266l-366.747-366.747q-21.971-20.844-51.266-20.844-28.731 0-50.702 20.844l-42.252 42.252q-21.407 21.408-21.407 51.266t21.407 51.266l165.064 165.064h-396.605q-29.295 0-47.604 21.126t-18.309 50.984v72.11q0 29.858 18.309 50.984t47.604 21.126h396.605l-165.064 165.628q-21.407 20.281-21.407 50.703t21.407 50.702l42.252 42.252q21.407 21.407 50.702 21.407 29.858 0 51.266-21.407l366.747-366.747q20.844-19.718 20.844-50.703z" />
<glyph unicode="&#xe60d;" glyph-name="libre-arrow-up" d="M950.857 414.632q0-28.731-20.844-50.702l-42.252-42.252q-21.408-21.407-51.266-21.407-30.422 0-50.703 21.407l-165.628 165.064v-396.605q0-29.295-21.126-47.604t-50.984-18.309h-72.11q-29.858 0-50.984 18.309t-21.126 47.604v396.605l-165.628-165.064q-20.281-21.407-50.703-21.407t-50.702 21.407l-42.252 42.252q-21.407 21.407-21.407 50.702 0 29.858 21.407 51.266l366.747 366.747q19.718 20.844 50.703 20.844 30.422 0 51.266-20.844l366.747-366.747q20.844-21.971 20.844-51.266z" />
<glyph unicode="&#xe60e;" glyph-name="libre-badge-1" d="M911.915 329.007c-12.293-44.755 65.341-108.883 41.885-148.931-23.458-40.048-117.364-3.697-150.388-36.31s2.143-126.966-38.193-149.92c-40.339-22.954-103.488 55.48-148.394 43.749-44.905-11.731-61.624-111.029-108.035-110.738-46.412 0.293-61.884 99.791-106.639 112.084s-108.883-65.342-148.931-41.884c-40.048 23.458-3.694 117.363-36.31 150.387-32.612 33.024-126.966-2.146-149.92 38.193s55.48 103.488 43.749 148.394c-11.731 44.905-111.029 61.625-110.738 108.036 0.293 46.412 99.791 61.884 112.084 106.638s-65.342 108.883-41.884 148.931c23.458 40.048 117.364 3.697 150.387 36.31s-2.143 126.966 38.193 149.92c40.339 22.954 103.488-55.48 148.394-43.749s61.624 111.029 108.036 110.738c46.411-0.293 61.884-99.791 106.639-112.084s108.883 65.342 148.931 41.884c40.049-23.458 3.694-117.363 36.31-150.387 32.612-33.024 126.966 2.146 149.92-38.193s-55.48-103.488-43.749-148.394c11.731-44.905 111.029-61.624 110.738-108.036-0.293-46.412-99.792-61.884-112.085-106.639z" />
<glyph unicode="&#xe60f;" glyph-name="libre-badge-2" d="M934.772 138.029c-20.713-31.505-152.917-0.823-181.974-24.127s-34.175-164.123-68.732-176.946c-34.557-12.823-124.178 92.843-160.852 91.758s-120.376-111.88-155.578-101.122c-35.201 10.758-48.006 151.047-78.289 172.595s-160.598-16.903-182.998 13.327c-22.401 30.229 46.501 151.555 34.176 187.506s-139.476 84.531-140.519 122.685c-1.043 38.154 123.247 94.175 133.588 130.797s-65.079 153.677-44.367 185.182c20.713 31.505 152.917 0.823 181.974 24.127s34.175 164.123 68.732 176.946c34.557 12.822 124.177-92.843 160.851-91.758s120.376 111.88 155.578 101.122c35.201-10.758 48.006-151.047 78.289-172.595s160.598 16.903 182.998-13.327c22.401-30.229-46.502-151.555-34.177-187.506s139.475-84.531 140.519-122.685c1.046-38.154-123.248-94.175-133.589-130.797s65.080-153.677 44.367-185.182z" />
<glyph unicode="&#xe610;" glyph-name="libre-badge-3" d="M869.514 438.857c98.623 32.633 158.632 65.008 154.263 88.87s-71.831 34.181-175.787 31.601c81.276 63.847 126.379 114.537 113.979 135.497-12.143 20.96-79.284 7.804-176.172-29.537 54.355 87.322 79.027 150.072 60.266 165.679s-77.292-19.283-155.227-87.193c20.56 100.414 21.973 167.808-1.156 176.062-22.937 8.255-65.792-44.241-115.456-134.143-15.484 101.252-37.65 165.163-62.129 165.163-24.608 0-46.709-63.847-62.129-165.163-49.601 89.966-92.455 142.462-115.649 134.272-23.13-8.319-21.652-75.713-1.028-176.062-77.87 67.781-136.466 102.671-155.291 87.193s5.911-78.422 60.202-165.744c-96.824 37.405-164.029 50.497-176.237 29.537-12.272-20.96 32.767-71.65 114.171-135.562-104.020 2.58-171.675-7.675-175.915-31.601-4.305-23.733 55.704-56.237 154.199-88.87-98.495-32.633-158.504-65.137-154.199-88.934s71.895-34.181 175.915-31.536c-81.468-63.782-126.636-114.408-114.171-135.497 12.207-21.024 79.412-7.932 176.108 29.537-54.291-87.386-78.963-150.201-60.202-165.808 18.954-15.607 77.421 19.412 155.291 87.128-20.624-100.349-22.038-167.743 1.092-175.998 23.066-8.319 66.049 44.241 115.713 134.272 15.42-101.252 37.522-165.163 62.129-165.163 24.479 0 46.645 63.847 62.129 165.163 49.601-89.966 92.519-142.462 115.585-134.207 23.13 8.255 21.716 75.649 1.028 175.998 77.935-67.781 136.466-102.735 155.227-87.128 18.954 15.607-5.783 78.422-60.138 165.679 96.76-37.47 163.901-50.433 176.172-29.537 12.272 21.024-32.896 71.65-114.043 135.497 103.892-2.58 171.418 7.739 175.722 31.666 4.369 23.733-55.64 56.237-154.263 88.87v0z" />
<glyph unicode="&#xe611;" glyph-name="libre-ban" d="M822.857 439.142q0 91.701-49.714 168.024l-430.857-428.89q78.286-50.692 169.714-50.692 63.429 0 120.857 24.776t99.143 66.355 66.286 99.391 24.572 121.035zM252 268.839l431.429 429.459q-77.143 51.831-171.429 51.831-84.571 0-156-41.579t-113.143-113.345-41.714-156.063q0-92.271 50.857-170.303zM950.857 439.142q0-89.423-34.857-170.872t-93.429-140.115-140-93.41-170.571-34.744-170.571 34.744-140 93.41-93.429 140.115-34.857 170.872 34.857 170.588 93.429 139.831 140 93.41 170.571 34.744 170.571-34.744 140-93.41 93.429-139.831 34.857-170.588z" />
<glyph unicode="&#xe612;" glyph-name="libre-barcode" d="M104 0h-30.857v877.714h30.857v-877.714zM134.857 0.622h-15.673v877.093h15.673v-877.091zM180.898 0.622h-15.183v877.093h15.183v-877.091zM257.796 0.622h-15.184v877.093h15.184v-877.091zM334.694 0.622h-30.367v877.093h30.367v-877.091zM396.408 0.622h-15.184v877.093h15.184v-877.091zM427.265 0.622h-15.184v877.093h15.184v-877.091zM458.122 0.622h-15.184v877.093h15.184v-877.091zM535.020 0.622h-30.857v877.093h30.857v-877.091zM611.918 0.622h-30.857v877.093h30.857v-877.091zM673.633 0.622h-30.857v877.093h30.857v-877.091zM735.347 0.622h-30.857v877.093h30.857v-877.091zM781.388 0.622h-30.858v877.093h30.858v-877.091zM873.959 0.622h-46.041v877.093h46.041v-877.091zM904.817 0.622h-15.674v877.093h15.674v-877.091zM950.857 0h-30.858v877.714h30.858v-877.714z" />
<glyph unicode="&#xe613;" glyph-name="libre-bold" d="M237.098 17.258c51.775-11.095 142.999-17.258 210.799-17.258 183.679 0 339.005 80.129 339.005 250.247 0 102.318-60.405 182.446-178.748 200.938 101.085 23.422 175.050 88.758 173.817 199.705-1.233 138.067-114.646 226.825-322.979 226.825-51.775 0-152.861-4.931-221.894-13.56v-846.896zM399.82 501.727v235.454c24.655 2.465 44.379 2.465 70.266 2.465 93.689 0 139.3-53.008 139.3-115.878 0-77.663-61.637-122.042-166.421-122.042h-43.146zM399.82 369.823h57.939c103.551 0 156.559-43.146 156.559-122.042 0-72.732-70.267-109.714-146.697-109.714-22.189 0-45.612 0-67.801 2.466v229.291z" />
<glyph unicode="&#xe614;" glyph-name="libre-bookmark" d="M815.98 877.714q13.343 0 25.525-5.221 19.144-7.542 30.457-23.785t11.312-35.967v-747.768q0-19.724-11.312-35.967t-30.457-23.785q-11.022-4.641-25.525-4.641-27.845 0-48.15 18.564l-255.83 245.969-255.831-245.969q-20.884-19.144-48.149-19.144-13.343 0-25.525 5.221-19.144 7.542-30.456 23.785t-11.312 35.967v747.768q0 19.724 11.312 35.967t30.456 23.785q12.183 5.221 25.525 5.221h607.961z" />
<glyph unicode="&#xe615;" glyph-name="libre-brand-aus-post" d="M237.714 877.714c-45.333 0-84.381-15.807-116.571-48-32.19-32.188-48-71.237-48-116.571v-548.571c0-45.334 15.81-84.384 48-116.571 32.19-32.193 71.238-48 116.571-48h548.571c45.333 0 84.381 15.807 116.571 48 32.191 32.188 48 71.237 48 116.571v548.571c0 45.334-15.809 84.384-48 116.571-32.19 32.193-71.238 48-116.571 48h-548.571zM493.714 804.571c11.929 1.418 34.31-0.666 73.143-6.857 227.078-36.213 366.015-272.889 288-489.143-49.351-136.799-188.468-235.429-329.143-235.429h-45.714v233.143l38.857 4.571c159.638 18.907 255.385 183.899 187.429 322.286-35.991 73.289-106.262 122.145-185.143 130.286-37.943 3.95-41.143 6.21-41.143 22.857 0 10.811 1.785 16.868 13.714 18.286zM377.143 772.571c5.537 0 9.143-109.334 9.143-338.286 0-272.918-3.15-338.286-11.429-338.286-5.644 0-26.597 11.743-48 25.143-172.589 108.061-229.786 325.233-130.286 500.571 36.134 63.678 141.639 150.857 180.571 150.857z" />
<glyph unicode="&#xe616;" glyph-name="libre-brand-delicious" d="M914.286 164.571v274.286h-402.286v402.286h-274.286q-53.143 0-90.571-37.429t-37.429-90.571v-274.286h402.286v-402.286h274.286q53.143 0 90.571 37.429t37.429 90.571zM950.857 713.143v-548.571q0-68-48.286-116.286t-116.285-48.286h-548.571q-68 0-116.286 48.286t-48.286 116.286v548.571q0 68 48.286 116.286t116.286 48.286h548.571q68 0 116.285-48.286t48.286-116.286z" />
<glyph unicode="&#xe617;" glyph-name="libre-brand-deviantart" d="M871.428 877.714q33.143 0 56.286-23.143t23.143-56.286v-718.857q0-33.143-23.143-56.286t-56.286-23.143h-718.857q-33.143 0-56.286 23.143t-23.143 56.286v718.857q0 33.143 23.143 56.286t56.286 23.143h718.857zM910.286 79.428v718.857q0 16-11.429 27.429t-27.429 11.429h-718.857q-16 0-27.429-11.429t-11.429-27.429v-718.857q0-16 11.429-27.429t27.429-11.429h718.857q16 0 27.429 11.429t11.429 27.429zM469.715 501.143l107.429-221.143 304.571 82.857v-283.429q0-4-3.145-7.143t-7.146-3.143h-718.857q-4.001 0-7.143 3.143t-3.143 7.143v80.571l406.286 111.429-121.143 250.857q2.282 0.571 6.853 1.428t6.853 0.857q97.142 18.286 173.428 12.286t126.286-26.286 82-54q15.429-16-14.286-24-36.571-9.143-146.286-35.429l-55.428 113.143q-63.429 4-137.143-9.143zM871.428 808.571q4.001 0 7.146-3.143t3.145-7.143v-244.571q-48.572 17.143-107.429 29.714-168 36.571-368.572 6.857l-10.285-1.714-37.143 76.571h-133.143l48.572-108.571q-75.429-29.143-131.429-78.286v320q0 4 3.143 7.143t7.143 3.143h718.857zM236.572 294.286q-8-1.714-14.858 2.572-6.853 4.285-8 12.286-13.714 116 94.858 174.286l73.714-154.286z" />
<glyph unicode="&#xe618;" glyph-name="libre-brand-facebook" d="M950.857 164.571q0-68-48.286-116.286t-116.285-48.286h-109.714v347.429h116l17.142 128h-133.143v81.714q0 30.857 16 47.429t54.857 16.571l75.429 0.571v118.286q-54.857 5.143-102.857 5.143-77.714 0-124.571-46t-46.858-128.857v-94.857h-128v-128h128v-347.429h-310.857q-68 0-116.286 48.286t-48.286 116.286v548.571q0 68 48.286 116.286t116.286 48.286h548.571q68 0 116.285-48.286t48.286-116.286v-548.571z" />
<glyph unicode="&#xe619;" glyph-name="libre-brand-github" d="M298.285 178.286q-4.571-5.143-11.428 1.714-7.429 6.286-2.289 10.857 4.571 5.143 11.429-1.714 6.861-6.286 2.282-10.857zM274.286 213.143q5.142-6.857 0-10.857-4.571-3.428-9.714 4t0 10.286q5.142 4 9.714-3.429zM239.429 247.428q-2.86-4-7.428-1.142-5.712 2.857-4.001 6.857 1.712 2.857 7.428 1.143 5.712-2.857 4.001-6.857zM257.142 228q-3.43-4-9.142 1.714-5.142 6.286-1.141 9.143 3.43 3.428 9.143-1.714 5.142-6.286 1.141-9.143zM330.857 164q-2.282-6.857-10.857-3.429-9.714 2.286-7.428 8.571 2.282 6.286 10.857 4 9.144-2.857 7.429-9.143zM366.857 161.143q0-6.286-9.142-6.286-9.715-1.142-9.715 6.286 0 6.286 9.143 6.286 9.714 1.143 9.714-6.286zM400 166.858q1.141-5.715-8-8t-10.285 4.571q-1.141 6.857 8 8.571 9.144 1.142 10.286-5.143zM950.857 713.143v-548.571q0-68-48.286-116.286t-116.285-48.286h-128q-9.143 0-14 0.571t-11.143 2.857q-6.283 2.286-9.143 8.286t-2.86 15.714v136.571q0 55.429-29.714 81.143 32.571 3.429 58.571 10.286t53.714 22.286 46.286 38 30.286 60 11.715 86q0 69.143-45.143 117.714 21.143 52-4.571 116.571-16 5.143-46.286-6.286t-52.571-25.143l-21.714-13.714q-53.143 14.857-109.714 14.857t-109.714-14.857q-9.143 6.286-24.286 15.429t-47.714 22-49.143 7.714q-25.143-64.571-4.001-116.571-45.142-48.571-45.142-117.714 0-48.571 11.714-85.714t30-60 46-38.286 53.715-22.286 58.571-10.286q-22.857-20.571-28-58.857-12.001-5.715-25.715-8.571t-32.571-2.857-37.429 12.286-31.714 35.714q-10.857 18.286-27.715 29.714t-28.285 13.714l-11.429 1.714q-12.001 0-16.572-2.572t-2.86-6.571 5.142-8 7.428-6.857l4.001-2.857q12.572-5.715 24.858-21.714t18-29.143l5.712-13.143q7.429-21.714 25.143-35.143t38.286-17.143 39.714-4 31.714 2l13.143 2.286q0-21.714 0.293-58.857t0.293-38.857q0-12.571-6.283-19.143t-12.572-7.429q-6.294-0.856-18.865-0.856h-128q-68 0-116.286 48.286t-48.286 116.286v548.571q0 68 48.286 116.286t116.286 48.286h548.571q68 0 116.285-48.286t48.286-116.286z" />
<glyph unicode="&#xe61a;" glyph-name="libre-brand-google-plus" d="M546.857 254.857q0-43.429-33.428-64.286t-79.714-20.857q-23.428 0-46 5.429t-43.143 16.286-33.143 30.286q-12.571 19.429-12.571 44.571 0 26.286 14.286 45.714t37.429 29.429 46.857 14.286 48.286 4.285q11.429 0 17.714-1.143 1.141-0.571 13.142-9.429t14.858-10.857q2.86-2 13.143-10.286 10.285-8.286 14-12.572 3.716-4.285 10.857-12.857 7.146-8.571 9.714-14.857 2.575-6.286 5.142-15.143 2.575-8.857 2.575-18zM504.572 566.286q0-34.286-18.857-56.857t-52.571-22.571q-30.286 0-53.143 24.286t-32.857 55.143-10 60.571q0 34.857 18.286 59.429t52.571 24.571q30.286 0 53.429-25.714t33.143-57.714 10-61.143zM565.143 713.143l50.286 36.571h-151.428q-48.571 0-92-18.286t-72.858-56-29.428-87.429q0-53.143 36.857-88.286t90.571-35.143q12.571 0 24.571 1.714-7.428-16.571-7.428-30.857 0-25.143 22.857-53.714-100-6.857-146.857-36-26.857-16.571-43.143-41.714t-16.286-54.286q0-24.571 10.571-44.286t27.715-32.286 39.428-21.143 44.286-12 43.715-3.428q34.286 0 68.857 8.857t64.857 26.286 49.143 47.143 18.857 66.857q0 28-11.429 51.143t-28.001 38-33.142 27.143-28 25.143-11.429 25.429 8.857 24.286 21.429 22.571q12.571 10.857 25.143 24t21.429 34 8.857 47.143q0 34.286-12.857 56.857t-41.428 51.714h47.428zM731.429 457.143h73.143v36.571h-73.143v73.143h-36.571v-73.143h-73.143v-36.571h73.143v-91.429h36.571v91.429zM950.857 713.143v-548.571q0-68-48.286-116.286t-116.285-48.286h-548.571q-68 0-116.286 48.286t-48.286 116.286v548.571q0 68 48.286 116.286t116.286 48.286h548.571q68 0 116.285-48.286t48.286-116.286z" />
<glyph unicode="&#xe61b;" glyph-name="libre-brand-instagram" d="M851.429 136v370.286h-77.143q11.429-36 11.429-74.857 0-72-36.571-132.857t-99.429-96.286-137.143-35.429q-112.571 0-192.571 77.429t-80 187.143q0 38.857 11.429 74.857h-80.571v-370.286q0-14.857 10-24.857t24.857-10h610.857q14.286 0 24.572 10t10.286 24.857zM689.143 440.571q0 70.857-51.715 120.857t-124.857 50q-72.571 0-124.286-50t-51.714-120.857 51.714-120.857q51.715-50 124.286-50 73.143 0 124.857 50t51.715 120.857zM851.429 646.286v94.286q0 16-11.429 27.714t-28 11.714h-99.428q-16.572 0-28-11.714t-11.429-27.714v-94.286q0-16.571 11.429-28t28-11.429h99.428q16.571 0 28 11.429t11.429 28zM950.857 765.143v-652.572q0-46.286-33.143-79.429t-79.428-33.143h-652.572q-46.286 0-79.428 33.143t-33.143 79.429v652.572q0 46.286 33.143 79.429t79.428 33.143h652.572q46.286 0 79.428-33.143t33.143-79.429z" />
<glyph unicode="&#xe61c;" glyph-name="libre-brand-open-source" d="M237.714 877.714c-45.333 0-84.381-15.81-116.571-48s-48-71.238-48-116.571v-548.571c0-45.333 15.81-84.381 48-116.571s71.238-48 116.571-48h548.571c45.333 0 84.381 15.81 116.571 48s48 71.238 48 116.571v548.571c0 45.333-15.809 84.381-48 116.571s-71.238 48-116.571 48h-548.571zM512 793.143c27.328 0 53.814-3.183 70.857-6.857 74.384-16.036 133.455-46.598 187.429-100.571s86.822-113.045 102.857-187.429c7.275-33.747 7.215-108.317 0-141.714-19.95-92.388-70.783-169.713-144-224-25.139-18.639-85.952-51.702-89.143-48-1.92 2.231-79.814 209.976-82.286 219.429-0.919 3.518 2.835 8.202 13.714 13.714 38.308 19.412 66.286 64.873 66.286 109.714 0 60.405-44.808 113.083-105.143 123.429-75.441 12.937-146.286-46.78-146.286-123.429 0-44.841 27.977-90.302 66.286-109.714 10.879-5.515 14.634-10.199 13.714-13.714-2.471-9.452-80.365-217.201-82.286-219.429-1.074-1.243-16.791 4.956-34.286 13.714-103.179 51.652-173.974 143.048-198.857 258.286-7.211 33.397-7.272 107.968 0 141.714 16.035 74.383 48.884 133.455 102.857 187.429s113.045 84.536 187.429 100.571c17.043 3.674 43.529 6.857 70.857 6.857z" />
<glyph unicode="&#xe61d;" glyph-name="libre-brand-paypal" d="M950.857 713.143v-548.571q0-68-48.286-116.286t-116.285-48.286h-548.571q-68 0-116.286 48.286t-48.286 116.286v548.571q0 68 48.286 116.286t116.286 48.286h548.571q68 0 116.285-48.286t48.286-116.286zM593.692 831.836c24.284 0 48.787-4.973 70.858-14.387 23.213-9.899 42.277-23.934 56.66-41.719 28.802-35.608 36.892-84.112 24.042-144.187-13.977-65.466-46.626-119.966-94.423-157.603-46.592-36.686-105.428-56.083-170.15-56.083h-205.765l-55.34-259.48h-113.506l146.722 673.455h340.903zM282.93 458.109h174.717c40.661 0 81.853 15.573 115.987 43.855 33.275 27.567 56.81 64.732 66.34 104.743 11.915 45.020 3.969 90.131-21.868 123.904-25.008 32.69-64.171 51.44-107.439 51.44h-154.527l-73.21-323.942zM593.692 886.692h-385.093l-170.628-783.17h130.314l-20.599-94.543h225.994l55.34 259.48h161.375c154.5 0 283.66 95.209 318.22 257.087 28.9 135.154-34.976 215.941-115.814 249.054 22.026-10.779 41.222-26.131 55.288-44.984 29.6-39.685 37.912-93.746 24.717-160.684-13.337-67.738-43.215-124.916-86.713-166.322-7.96-8.317-16.479-16.069-25.546-23.211-46.592-36.688-105.428-56.081-170.15-56.081h-205.768l-55.34-259.481h-113.506l8.645 39.686h39.538l55.34 259.48h161.374c154.501 0 283.66 95.206 318.22 257.085 39.193 183.288-92.224 266.605-205.207 266.605v0zM351.57 512.967l48.412 214.226h110.686c55.365 0 92.229-47.604 76.101-107.105-13.829-59.52-71.473-107.121-129.119-107.121h-106.079z" />
<glyph unicode="&#xe61e;" glyph-name="libre-brand-raspberrypi" d="M354.429 877.714c-4.438-0.138-9.293-1.722-14.714-6-13.281 5.122-26.056 6.855-37.571-3.571-17.782 2.306-23.622-2.444-28-8-3.903 0.081-29.252 4.025-40.857-13.286-29.163 3.451-38.301-17.214-27.857-36.429-5.956-9.221-12.215-18.279 1.714-35.857-4.927-9.79-1.75-20.433 9.857-33.286-3.063-13.763 2.914-23.432 13.714-31-2.020-18.834 17.24-29.812 23-33.714 2.212-10.974 6.822-21.417 28.857-27.143 3.634-16.354 16.891-19.139 29.714-22.571-42.384-24.637-78.675-57.035-78.429-136.571l-6.286-11c-48.599-29.554-92.374-124.648-24-201.857 4.466-24.168 12.045-41.501 18.714-60.714 9.975-77.419 75.116-113.713 92.286-118 25.161-19.165 51.88-37.262 88.143-50 34.184-35.256 71.192-48.736 108.429-48.714 0.546 0 1.168-0.006 1.714 0 37.236-0.023 74.243 13.457 108.429 48.714 36.261 12.738 62.982 30.835 88.143 50 17.17 4.287 82.311 40.581 92.286 118 6.668 19.213 14.248 36.546 18.714 60.714 68.373 77.216 24.601 172.303-24 201.857l-6.286 11c0.249 79.53-36.044 111.928-78.429 136.571 12.824 3.432 26.081 6.359 29.714 22.714 22.035 5.727 26.646 16.027 28.857 27 5.761 3.901 25.020 14.88 23 33.714 10.8 7.568 16.778 17.238 13.714 31 11.607 12.853 14.785 23.495 9.857 33.286 13.931 17.571 7.662 26.636 1.714 35.857 10.436 19.214 1.317 39.879-27.857 36.429-11.601 17.311-36.945 13.367-40.857 13.286-4.378 5.556-10.218 10.306-28 8-11.515 10.426-24.29 8.693-37.571 3.571-15.771 12.445-26.223 2.343-38.143-1.429-19.094 6.239-23.476-2.234-32.857-5.714-20.823 4.4-27.161-5.175-37.143-15.286l-11.571 0.143c-31.407-18.509-47.041-56.197-52.571-75.571-5.533 19.378-21.17 57.066-52.571 75.571l-11.571-0.143c-9.995 10.111-16.32 19.686-37.143 15.286-9.381 3.48-13.751 11.953-32.857 5.714-7.824 2.475-14.956 7.691-23.429 7.429zM355.571 855.428c15.95-5.907 24.065-13.472 32.714-21 2.932 3.957 7.454 6.88 2 16.429 11.324-6.527 19.833-14.24 26.143-22.857 7.006 4.461 4.247 10.52 4.286 16.143 11.769-9.573 19.286-19.766 28.429-29.714 1.842 1.341 3.434 5.95 4.857 13.143 28.077-27.239 67.694-95.94 10.143-123.143-48.98 40.395-107.462 69.831-172.286 91.857 83.327-42.959 131.748-77.688 158.286-107.286-13.59-54.471-84.504-56.957-110.429-55.429 5.308 2.471 9.715 5.453 11.286 10-6.505 4.623-29.469 0.382-45.571 9.429 6.186 1.282 9.107 2.578 12 7.143-15.214 4.852-31.648 8.962-41.286 17 5.201-0.064 10.065-1.14 16.857 3.571-13.627 7.343-28.132 13.204-39.429 24.429 7.045 0.172 14.649 0.123 16.857 2.714-12.472 7.727-23.004 16.316-31.714 25.714 9.86-1.19 13.902-0.146 16.286 1.571-9.428 9.656-21.311 17.815-27 29.714 7.321-2.523 14.029-3.568 18.857 0.143-3.204 7.227-16.955 11.539-24.857 28.429 7.707-0.747 15.937-1.681 17.571 0-3.577 14.574-9.694 22.797-15.714 31.286 16.494 0.245 41.418-0.109 40.286 1.286l-10.143 10.429c16.112 4.338 32.604-0.691 44.571-4.429 5.374 4.24-0.158 9.526-6.714 15 13.692-1.828 26.103-4.949 37.286-9.286 5.975 5.395-3.947 10.748-8.714 16.143 21.153-4.013 30.093-9.639 39-15.286 6.462 6.194 0.504 11.465-3.857 16.857zM670.429 855.428c-4.361-5.392-10.462-10.663-4-16.857 8.907 5.646 17.847 11.272 39 15.286-4.767-5.395-14.689-10.748-8.714-16.143 11.183 4.336 23.594 7.458 37.286 9.286-6.556-5.474-12.088-10.76-6.714-15 11.968 3.737 28.46 8.766 44.571 4.429l-10.143-10.429c-1.132-1.395 23.792-1.041 40.286-1.286-6.019-8.489-12.13-16.706-15.714-31.286 1.635-1.681 9.865-0.747 17.571 0-7.902-16.889-21.653-21.201-24.857-28.429 4.828-3.711 11.536-2.666 18.857-0.143-5.689-11.899-17.572-20.058-27-29.714 2.384-1.717 6.569-2.762 16.429-1.571-8.711-9.399-19.243-17.988-31.714-25.714 2.209-2.591 9.811-2.542 16.857-2.714-11.297-11.225-25.945-17.085-39.571-24.429 6.792-4.711 11.656-3.636 16.857-3.571-9.638-8.038-25.929-12.148-41.143-17 2.893-4.565 5.671-5.861 11.857-7.143-16.103-9.047-39.066-4.806-45.571-9.429 1.57-4.547 5.978-7.529 11.286-10-25.925-1.528-96.838 0.958-110.429 55.429 26.538 29.604 74.969 64.323 158.286 107.286-64.829-22.026-123.332-51.453-172.286-91.857-57.551 27.202-17.791 95.904 10.286 123.143 1.424-7.193 3.016-11.802 4.857-13.143 9.142 9.948 16.517 20.141 28.286 29.714 0.038-5.623-2.721-11.682 4.286-16.143 6.309 8.617 14.819 16.33 26.143 22.857-5.454-9.549-0.932-12.471 2-16.429 8.649 7.528 16.908 15.093 32.857 21zM511.714 631.143c40.81 0.449 91.345-30.458 91.143-59.571-0.178-25.696-35.522-46.539-90.857-46.143-54.187 0.646-90.7 26.101-90.571 51 0.107 20.492 44.295 55.911 90.286 54.714zM372.857 613.714c9.123 0.17 18.51-0.516 28.143-2.143 28.389-4.77-136.037-148.317-138.571-116.286-2.264 73.106 46.567 117.238 110.429 118.429zM642 611.286c63.859-1.189 112.693-45.316 110.429-118.429-2.535-32.033-166.961 111.517-138.571 116.286 9.632 1.626 19.020 2.313 28.143 2.143zM614.857 522.143c31.904-1.272 64.462-19.34 85.643-50.701 32.649-48.342 25.902-109.962-15.070-137.634-0.35-0.237-0.702-0.47-1.055-0.7-40.953-26.814-100.016-9.94-132.435 38.063-32.664 48.365-25.914 110.014 15.077 137.699 0.294 0.199 0.589 0.395 0.885 0.589 14.429 9.462 31.109 13.495 48.080 12.65zM409.286 517.143c16.551 0.752 33.243-3.395 47.653-13.002-0.381 0.253-0.063 0.041 0.255-0.173 40.976-27.674 47.724-89.301 15.072-137.648-32.399-47.972-91.416-64.843-132.359-38.066-0.288 0.189-0.57 0.377-0.851 0.566-40.972 27.671-47.719 89.292-15.070 137.634 21.105 31.25 53.507 49.301 84.848 50.684zM765.571 462.714c74.090-42.308 61.248-136.426 21.286-168.571-36.33-16.138-65.941 180.537-21.286 168.571zM249.571 460.286c44.651 11.969 15.044-184.853-21.286-168.714-39.962 32.142-52.804 126.406 21.286 168.714zM516.429 334.143c54.090-1.227 97.43-41.952 97.43-92.011 0-0.197-0.001-0.394-0.002-0.59 0.016-0.584 0.025-1.306 0.025-2.031 0-50.831-44.687-92.038-99.811-92.038s-99.811 41.207-99.811 92.038c0 0.725 0.009 1.448 0.027 2.169-0.003 0.059-0.004 0.255-0.004 0.452 0 50.831 44.687 92.038 99.811 92.038 0.821 0 1.639-0.009 2.455-0.027zM734.571 299.428c7.796 0.203 15.134-2.053 21.714-7.143 17.719-17.657 28.164-84.187-2.857-124-42.722-59.278-100.599-61.511-122.143-45-22.533 21.252-5.316 87.249 25.571 123.429 26.509 29.931 54.325 52.105 77.714 52.714zM286.571 285.286c25.129-1.077 55.285-20.918 79.857-49.429 28.548-34.394 41.538-94.902 17.714-112.714-22.539-13.598-77.382-8.031-116.286 47.857-26.237 46.897-22.851 94.695-4.429 108.714 6.887 4.195 14.767 5.931 23.143 5.571zM514.429 120.428c40.097 1.75 93.895-12.831 94-32.286 0.666-18.892-48.701-61.54-96.571-60.714-49.577-2.139-98.208 40.611-97.571 55.429-0.742 21.726 60.296 38.568 100.143 37.571z" />
<glyph unicode="&#xe61f;" glyph-name="libre-brand-rss" d="M365.714 219.428q0 30.286-21.429 51.714t-51.714 21.429-51.714-21.429-21.429-51.714 21.429-51.714 51.714-21.429 51.714 21.429 21.429 51.714zM566.286 165.714q-7.429 132.571-101.143 226.286t-226.286 101.143q-8 0.585-13.714-5.142-5.712-5.712-5.712-13.142v-73.143q0-7.429 4.857-12.572t12.285-5.712q88-6.283 150.857-69.143 62.858-62.857 69.143-150.857 0.585-7.428 5.712-12.285 5.142-4.857 12.572-4.857h73.143q7.428 0 13.142 5.712 5.712 5.712 5.142 13.714zM785.714 165.129q-2.86 88-32 170-29.143 82-79.715 148.571t-117.143 117.143-148.571 79.715q-82 29.142-170 32-8 0.585-13.143-5.142-5.712-5.712-5.712-13.142v-73.143q0-7.429 5.142-12.572t12.572-5.712q116.571-4.001 216-63.715t159.143-159.143 63.715-216q0.585-7.429 5.712-12.572 5.142-5.142 12.572-5.142h73.143q7.428 0 13.142 5.712 6.283 5.142 5.142 13.143zM950.857 713.143v-548.571q0-68-48.286-116.285t-116.285-48.286h-548.571q-68 0-116.285 48.286t-48.286 116.285v548.571q0 68 48.286 116.285t116.285 48.286h548.571q68 0 116.285-48.286t48.286-116.285z" />
<glyph unicode="&#xe620;" glyph-name="libre-brand-twitter" d="M804.571 602.286q-32-14.286-69.143-19.429 38.857 22.857 53.143 66.857-37.143-21.714-76.571-29.143-34.858 37.714-87.429 37.714-49.714 0-84.857-35.143t-35.143-84.857q0-16.571 2.86-27.429-73.714 4-138.285 37.143t-109.714 88.571q-16.572-28.571-16.572-60.571 0-65.143 52-100-26.857 0.571-57.143 14.857v-1.143q0-42.857 28.571-76.286t70.286-41.429q-16.571-4.571-29.143-4.571-7.428 0-22.285 2.286 12-36 42.571-59.429t69.429-24q-66.286-51.429-149.143-51.429-14.858 0-28.572 1.714 84.571-53.714 184-53.714 64.001 0 120 20.286t96 54.286 68.857 78.286 42.857 92.571 14 96.286q0 10.286-0.585 15.429 35.999 25.714 60 62.286zM950.857 713.143v-548.571q0-68-48.286-116.286t-116.285-48.286h-548.571q-68 0-116.286 48.286t-48.286 116.286v548.571q0 68 48.286 116.286t116.286 48.286h548.571q68 0 116.285-48.286t48.286-116.286z" />
<glyph unicode="&#xe621;" glyph-name="libre-brand-vimeo" d="M789.715 586.857q9.143 48.571-12.001 75.429-29.714 37.143-106.857 25.714-9.714-1.714-23.428-7.143t-32.857-17.429-36.857-27.714-34-40q-16.285-24.286-25.428-52.286 45.714 4 64.857-9.143t15.143-56.571q-2.86-29.714-29.714-81.714-24.572-44.571-40.572-56.571-25.143-18.286-49.714 8-13.142 13.714-21.429 36.857t-10.857 41.714q-2.575 18.571-5.712 48-3.145 29.429-4.857 40.857-13.143 73.714-19.429 93.714-6.853 21.143-20.285 39.429-13.429 18.286-28.858 22.857-32.571 9.143-72.571-14.286-30.858-18.286-78-60.571t-70-58.286v-4q9.143-4.571 14.572-14.857 5.427-10.286 12.286-11.429 12-1.714 31.143 4.857t33.142 6q14-0.571 23.714-17.143 6.283-10.286 10.571-22 4.286-11.714 8.572-27.429t7.146-23.143q9.714-26.286 30.286-106.857 20.571-83.428 32.571-112.571 24-56.571 58.857-71.429 24.572-6.857 48.571-0.857t43.429 18q74.857 44 142.858 135.429 59.429 79.429 98.571 167.143t47.143 129.429zM950.857 713.143v-548.571q0-68-48.286-116.286t-116.285-48.286h-548.571q-68 0-116.286 48.286t-48.286 116.286v548.571q0 68 48.286 116.286t116.286 48.286h548.571q68 0 116.285-48.286t48.286-116.286z" />
<glyph unicode="&#xe622;" glyph-name="libre-brand-yahoo" d="M237.714 877.714c-45.333 0-84.381-15.81-116.571-48s-48-71.238-48-116.571v-548.571c0-45.333 15.81-84.381 48-116.571s71.238-48 116.571-48h548.571c45.333 0 84.381 15.81 116.571 48s48 71.238 48 116.571v548.571c0 45.333-15.809 84.381-48 116.571s-71.238 48-116.571 48h-548.571zM230.857 795.428c16.537-4.277 31.458-6.857 45.714-6.857 12.26 0 28.612 2.58 48 6.857 17.963-31.648 37.042-64.499 57.143-98.286s43.343-73.808 70.857-118.857c27.514-45.049 47.454-76.327 59.429-96 10.549 17.392 25.043 42.212 45.714 75.429s37.455 59.044 50.286 80c12.83 20.956 28.607 46.204 45.714 75.429s32.314 57.48 45.714 82.286c15.396-3.992 30.603-6.857 45.714-6.857 15.967 0 31.463 2.865 48 6.857-7.983-11.12-16.019-24.744-25.143-38.857s-15.582-26.017-20.571-34.286c-4.99-8.268-14.023-22.040-25.143-41.143s-17.72-29.439-20.571-34.286c-41.628-70.71-91.837-157.358-150.857-260.571l4.571-304c-17.677 3.136-31.168 4.571-43.429 4.571-11.69 0-27.467-1.435-45.714-4.571l6.857 304c-11.405 19.673-36.505 61.135-73.143 125.714s-66.338 117.802-91.429 160c-25.091 42.198-51.198 83.797-77.714 123.429z" />
<glyph unicode="&#xe623;" glyph-name="libre-brand-youtube" d="M598.286 206.286v89.714q0 28.571-16.572 28.571-9.714 0-18.857-9.143v-128q9.143-9.143 18.857-9.143 16.572 0 16.572 28zM703.429 276h37.714v19.428q0 29.143-18.857 29.143t-18.857-29.143v-19.428zM377.143 428v-40h-45.714v-241.714h-42.285v241.714h-44.572v40h132.571zM492 356v-209.714h-38.286v22.857q-22.285-25.714-43.428-25.714-18.858 0-24 16-3.43 9.143-3.43 30.857v165.714h37.716v-154.286q0-13.714 0.585-14.857 0.585-8.571 8.572-8.571 11.429 0 24 17.714v160h38.286zM636 292.571v-83.429q0-29.714-4.001-41.714-6.853-24-30.286-24-20 0-38.857 23.429v-20.571h-38.285v281.714h38.285v-92q18.286 22.857 38.857 22.857 23.429 0 30.286-24 4.001-12 4.001-42.286zM779.429 218.857v-5.143q0-16.571-1.141-24.571-1.712-12.571-8.571-22.857-15.429-22.857-45.714-22.857-29.714 0-46.286 21.714-12.001 15.429-12.001 49.143v73.714q0 33.714 11.429 49.143 16.571 21.714 45.714 21.714t44.572-21.714q12-16 12-49.143v-43.429h-76v-37.143q0-29.143 19.428-29.143 13.714 0 17.143 14.857 0 0.571 0.293 4t0.293 9.429v12.286h38.857zM521.714 689.714v-89.143q0-29.143-18.286-29.143t-18.286 29.143v89.143q0 29.714 18.286 29.714t18.286-29.714zM826.286 282.286q0 101.143-10.857 148.571-5.712 25.143-24.572 42-18.857 16.857-43.429 19.714-77.714 8.571-235.429 8.571-157.143 0-234.857-8.571-25.143-2.857-43.714-19.714t-24.286-42q-11.429-49.714-11.429-148.571 0-100.571 11.429-148.571 5.712-24.571 24.286-41.714 18.571-17.143 43.143-20 78.286-8.571 235.429-8.571t235.429 8.571q24.572 2.857 43.143 20t24.286 41.714q11.429 48 11.429 148.571zM394.857 654.286l51.428 169.143h-42.857l-29.142-111.429-30.286 111.429h-44.572l13.714-39.429 13.143-39.429q20-58.857 26.285-90.286v-114.857h42.286v114.857zM560 608v74.286q0 33.143-12 49.714-16.572 21.714-44.572 21.714-29.143 0-44.571-21.714-12.001-16.571-12.001-49.714v-74.286q0-33.143 12.001-49.714 15.428-21.714 44.571-21.714 28 0 44.572 21.714 12 15.429 12 49.714zM663.428 539.428h38.286v211.429h-38.286v-161.714q-12.571-17.714-24-17.714-8.572 0-9.143 9.143-0.585 1.143-0.585 14.857v155.429h-38.286v-167.429q0-21.143 3.43-31.429 6.283-15.429 24.572-15.429 20.571 0 44 25.714v-22.857zM950.857 713.143v-548.571q0-68-48.286-116.286t-116.285-48.286h-548.571q-68 0-116.286 48.286t-48.286 116.286v548.571q0 68 48.286 116.286t116.286 48.286h548.571q68 0 116.285-48.286t48.286-116.286z" />
<glyph unicode="&#xe624;" glyph-name="libre-browse-media" d="M770.042 828.084h-662.055c-19.246 0-34.845-15.601-34.845-34.845v-545.232c0-19.246 15.599-34.845 34.845-34.845h494.726l-38.284 44.396h-91.44v55.757h47.907l-0.345 0.422c-12.224 13.951-20.312 28.367-24.203 42.245h-339.577v329.284h564.487v-329.284h-75.741c11.497-12.215 23.527-24.585 33.626-34.596 7.080 6.632 15.428 13.968 24.785 21.31 31.878 25.028 62.887 40.333 92.164 45.489 2.942 0.516 5.878 0.902 8.8 1.219v403.835c-0.004 19.244-15.603 34.845-34.849 34.845zM316.187 313.316h88.854v-55.754h-88.854v55.754zM159.383 313.316h88.856v-55.754h-88.856v55.754zM248.239 727.936h-88.856v55.752h88.856v-55.752zM405.041 727.936h-88.854v55.752h88.854v-55.752zM561.843 727.936h-88.854v55.752h88.854v-55.752zM718.645 727.936h-88.854v55.752h88.854v-55.752zM948.337 210.341c-8.655 46.647-38.343 89.772-55.27 111.334-22.962 29.251-52.109 40.998-86.622 34.916-24.648-4.341-51.433-17.76-79.618-39.887-19.912-15.639-34.954-31.287-41.603-38.572-16.714 14.398-63.382 62.485-86.295 89.6-11.506 13.616-41.183 42.575-63.325 22.585-23.834-23.169 11.079-61.018 11.983-62.116l140.061-171.444c-0.567-0.757-1.2-1.416-1.923-1.987-13.435-10.55-52.631 8.834-68.454 19.297-14.465 9.561-38.817 9.487-51.113-0.162-4.92-3.867-7.647-9.12-7.675-14.793-0.040-8.171 5.302-16.613 15.863-25.075 0.119-0.096 0.333-0.281 0.639-0.544 15.607-13.373 57.944-46.677 113.849-67.181 35.837-13.145 70.752-18.56 103.789-16.106 40.974 3.053 79.151 18.257 113.474 45.204 36.815 28.919 51.028 67.588 42.241 114.932zM404.595 637.712c-5.359 4.496-12.836 5.472-19.18 2.514-6.338-2.957-10.391-9.32-10.391-16.315v-189.92c0-6.997 4.051-13.358 10.391-16.313 2.432-1.138 5.031-1.69 7.613-1.69 4.151 0 8.261 1.437 11.567 4.206l113.317 94.959c4.083 3.422 6.442 8.478 6.442 13.802s-2.358 10.38-6.442 13.8l-113.317 94.955z" />
<glyph unicode="&#xe625;" glyph-name="libre-browser-chrome" d="M840.32 670.844c21.394 2.484 29.664 19.504 16.304 36.465-132.307 168.181-439.28 258.483-649.051 47.146-15.193-15.318-19.074-44.721-10.083-64.362l104.125-227.065c9.010-19.621 14.335-17.978 16.655 3.502 6.163 57.123 40.624 157.754 205.754 167.673l316.295 36.641zM165.486 646.273c-11.019 18.565-30.132 19.328-40.488 0.372-102.623-187.842-66.134-500.358 229.528-617.558 20.029-7.942 48.113 0.196 62.136 16.589l163.257 191.070c14.022 16.413 9.673 21.773-11.058 15.924-55.973-15.826-163.94-24.59-233.955 108.084l-169.42 285.519zM876.225 605.621l-250.454 9.566c-21.531 0.822-23.091-6.025-5.578-18.624 52.794-37.971 139.191-130.816 32.648-287.827l-153.974-273.84c-10.59-18.819-1.697-35.487 19.834-34.88 257.397 7.219 509.372 259.97 409.967 567.419-6.65 20.561-30.912 37.365-52.443 38.187zM673.045 440.805c0-91.706-74.114-166.049-165.539-166.049s-165.539 74.343-165.539 166.049c0 91.706 74.114 166.049 165.539 166.049s165.539-74.343 165.539-166.049z" />
<glyph unicode="&#xe626;" glyph-name="libre-browser-explorer" d="M735.583 371.014h212.977c1.646 14.77 2.297 29.863 2.297 45.291 0 72.381-19.431 140.27-53.345 198.735 35.080 93.21 33.828 172.32-13.133 219.6-44.657 44.464-164.473 37.245-299.921-22.735-10.018 0.761-20.135 1.148-30.348 1.148-185.908 0-341.888-127.934-385-300.316 58.318 74.666 119.672 128.801 201.633 168.224-7.453-6.985-50.936-50.213-58.25-57.532-216.134-216.068-284.292-498.321-210.953-571.673 55.747-55.736 156.774-46.324 272.82 10.51 53.96-27.481 115.038-42.975 179.746-42.975 174.255 0 321.927 112.165 375.42 268.377h-214.617c-29.533-54.48-87.29-91.561-153.579-91.561-66.287 0-124.046 37.081-153.578 91.561-13.128 24.608-20.675 52.829-20.675 82.697v0.658h348.504zM387.403 475.699c4.923 87.618 77.774 157.519 166.706 157.519s161.785-69.899 166.706-157.519h-333.412zM882.438 790.583c30.249-30.569 29.493-86.81 3.621-157.013-44.333 67.586-108.739 120.845-184.775 151.254 81.299 34.861 147.434 39.48 181.155 5.756zM157.49 65.667c-38.601 38.613-26.963 119.655 22.764 217.292 30.955-86.86 91.269-159.781 169.025-206.755-86.102-39.085-156.574-45.722-191.789-10.537z" />
<glyph unicode="&#xe627;" glyph-name="libre-browser-firefox" d="M948.242 573.838l-20.753-46.026c0 0-9.152 85.197-23.013 131.336-13.861 46.026-43.691 75.969-43.691 75.969l13.748-62.184c0 0-48.248 58.945-94.538 80.301-7.232 3.352-14.463 6.591-21.619 9.755-60.866 54.35-140.941 87.646-229.001 87.646-124.632 0-233.445-66.365-293.934-165.498-3.013 1.846-20.264 12.844-28.663 33.823-9.228 23.051-13.898 48.361-13.898 48.361-57.514-55.254-43.766-147.344-43.766-147.344s-23.013-23.051-45.988-59.924c-23.013-36.836-29.981-103.578-29.981-103.578l39.171 41.356c0 0-9.19-18.343-16.083-52.919-6.93-34.576-4.67-89.868-4.67-89.868l20.753 43.842c0 0 0-140.527 133.596-264.82 133.521-124.331 372.955-158.982 554.912-2.335s147.419 442.107 147.419 442.107zM529.374 805.438c71.148 0 136.346-24.896 187.683-66.29l-65.913-10.96c0 0 66.704-20.753 117.401-59.887 12.655-9.793 22.975-22.034 31.412-34.877 11.111-23.616 19.247-48.889 23.879-75.442l-32.203 25.122c0 0 11.45-13.823 13.785-50.659s-9.265-103.615-9.265-103.615l-29.83 34.538c0 0 6.893-57.589-4.633-108.286-11.525-50.546-36.836-71.224-36.836-71.224l4.52 59.811c0 0-34.501-76.082-131.223-105.913-96.647-29.943-188.737 55.216-188.737 55.216 62.147-16.083 101.242 16.158 133.559 32.241 32.203 16.158 48.286 18.456 62.147 18.456 13.785 0 0 32.203-25.386 46.064-25.311 13.748-55.216 6.893-115.103-9.265-59.924-16.12-96.798 34.576-94.387 69.039 2.222 34.651 57.551 13.898 57.551 13.898l-2.26 69.039c0 0 92.052 57.514 85.16 71.412-6.855 13.823-39.096 9.115-66.779 18.418-27.57 9.152-43.691 34.538-43.691 34.538s-4.633 18.418 4.557 34.425c9.152 16.158 41.393 39.284 41.393 39.284s-20.678 2.26-55.216-9.228c-34.538-11.525-59.887-32.241-59.887-32.241s-6.78 2.109-34.953 4.407c54.84 68.211 138.907 111.977 233.257 111.977z" />
<glyph unicode="&#xe628;" glyph-name="libre-browser-general" d="M681.213 73.613c0.895 0.469 1.832 0.895 2.726 1.321-0.341 0.511-0.682 0.937-0.98 1.448-0.511-0.809-1.193-1.917-1.747-2.769zM506.632 87.032c-70.676 0-136.537 20.278-192.729 54.828 50.568-0.511-37.617 76.938 23.133 88.824 63.732 12.525 90.571 85.416 70.164 84.308-20.363-1.065-59.131 10.523-86.396 44.774-27.307 34.507-51.207 26.626-79.366 21.215-24.624-4.857-54.956-76.086-62.496-94.788-19.171 36.722-32.164 77.066-38.043 119.71 31.269 16.359 82.306 43.879 100.752 59.088 27.18 22.536-9.074 31.653-13.547 45.243-4.431 13.59 0 45.243 0 76.682 0 31.738 63.306 31.738 85.757 63.306 16.146 22.536-13.419 72.252-31.866 99.176 62.326 47.969 140.116 76.81 224.637 76.81 22.408 0 44.263-2.343 65.606-6.177 6.262-38.938 19.298-92.488 44.476-106.461 40.77-22.579 90.102-72.295 108.335-81.241 18.148-9.031 40.599-85.97 36.169-117.58-3.195-22.323-30.886-46.904-42.218-70.548l188.298-117.324c13.292 40.897 20.619 84.393 20.619 129.679 0 232.263-189.065 421.157-421.242 421.157-232.305 0-421.242-188.895-421.242-421.157 0-232.305 188.937-421.285 421.242-421.285 8.818 0 17.424 0.809 26.115 1.321l-9.841 51.292c-5.453-0.256-10.821-0.852-16.316-0.852zM871.683 402.027c-7.966 31.61-23.388 62.113-56.191 85.671-22.451 15.848-40.77 85.799-27.137 108.463 8.137 13.505 29.31 25.39 44.902 32.803 27.307-51.505 42.9-110.125 42.9-172.408 0-18.574-1.832-36.68-4.473-54.53zM762.667 217.18l175.901 35.061-440.669 274.566-10.395-7.242 98.111-509.726 95.768 151.533 92.871-135.302c17.637-25.476 50.014-33.698 72.465-18.319 22.323 15.422 26.328 48.651 8.818 74.169l-92.871 135.259z" />
<glyph unicode="&#xe629;" glyph-name="libre-browser-opera" d="M782.438 759.388c-70.552 83.585-162.312 122.911-275.128 117.901-104.529 5.010-192.635-34.466-264.204-118.278s-107.392-188.529-107.392-314.152c0-111.912 27.535-208.606 82.531-290.12 69.761-103.173 168.301-154.741 295.845-154.741 127.168 0 225.594 54.091 295.28 162.236 52.547 81.514 78.915 175.948 78.915 283.302 0 125.585-35.332 230.227-105.847 313.851zM673.69 205.479c-17.025-58.499-40.832-101.026-71.456-127.695-23.995-20.83-53.903-31.189-89.725-31.189-53.225 0-94.622 24.145-124.116 72.36-42.452 69.083-63.697 175.835-63.697 320.216 0 121.48 13.787 214.67 41.247 279.572 33.75 79.028 82.907 118.579 147.697 118.579 35.106 0 66.145-11.451 93.078-34.278s49.156-62.115 66.484-117.6c17.403-55.598 26.142-139.297 26.142-251.208-0.038-94.057-8.588-170.335-25.653-228.758z" />
<glyph unicode="&#xe62a;" glyph-name="libre-browser-safari" d="M512 822.857c-20.626 0-40.893-1.536-60.706-4.468-0.293 0.673-0.512 1.327-0.841 1.968 10.994 8.573 16.758 20.426 14.258 32.187-3.201 15.055-19.196 25.169-39.801 25.169-4.44 0-8.964-0.483-13.44-1.433-25.858-5.497-42.982-24.533-38.984-43.339 2.428-11.433 12.251-20.004 25.855-23.472-0.028-0.833-0.014-1.671 0.036-2.515-171.962-49.311-297.804-207.718-297.804-395.527 0-227.227 184.204-411.429 411.429-411.429 227.227 0 411.429 184.202 411.429 411.429 0 227.225-184.202 411.429-411.429 411.429zM385.899 835.793c-2.319 10.908 10.697 23.306 28.421 27.072 3.54 0.753 7.102 1.134 10.589 1.134 13.746 0 24.595-5.884 26.386-14.306 1.368-6.437-2.633-13.38-9.759-18.775-6.027 4.257-13.728 6.108-21.515 4.454-7.752-1.647-14.012-6.435-17.792-12.734-8.73 2.1-15.007 6.93-16.331 13.154zM732.616 190.812c-37.687-37.685-83.323-64.524-133.123-78.987l-36.34 58.944-9.211-68.535c-13.791-1.846-27.794-2.804-41.943-2.804-83.338 0-161.688 32.455-220.616 91.383-37.687 37.685-64.524 83.323-78.989 133.121l58.944 36.341-68.537 9.211c-1.843 13.791-2.801 27.794-2.801 41.943 0 83.338 32.453 161.688 91.384 220.617 37.687 37.687 83.324 64.524 133.123 78.991l36.34-58.946 9.212 68.537c13.79 1.843 27.792 2.801 41.942 2.801 83.338 0 161.688-32.453 220.616-91.383 37.685-37.687 64.524-83.325 78.988-133.123l-58.946-36.341 68.537-9.211c1.843-13.79 2.801-27.792 2.801-41.942 0-83.338-32.455-161.688-91.384-220.617zM725.346 624.773l-168.839-128.318c-12.55 6.564-26.465 10.339-40.642 10.908l-43.783 91.869-2.626-101.712c-11.386-5.602-21.518-13.426-29.893-23.1l-54.075 19.169 39.507-41.604c-5.427-11.587-8.457-24.027-8.944-36.706l-91.85-43.771 101.776-2.628c0.293-0.658 0.658-1.31 1.002-1.958l-128.318-168.84 168.839 128.319c12.552-6.562 26.463-10.337 40.643-10.906l43.783-91.87 2.626 101.712c11.388 5.604 21.519 13.426 29.893 23.102l54.077-19.173-39.51 41.606c5.427 11.59 8.46 24.026 8.945 36.706l91.848 43.771-101.774 2.632c-0.293 0.658-0.658 1.306-1.002 1.954l128.317 168.838zM512.089 496.685v0zM494.895 491.916c5.764 1.226 11.523 1.815 17.191 1.815 3.555 0 7.073-0.234 10.536-0.68l0.062-0.009c7.487-0.981 14.724-3 21.542-5.911l-61.325-46.608-46.612-61.33c-2.033 4.795-3.657 9.843-4.784 15.13-9.449 44.451 18.928 88.145 63.381 97.594zM554.963 341.244v0 0c-7.763-4.752-16.443-8.302-25.852-10.303-5.764-1.226-11.525-1.815-17.189-1.815-3.555 0-7.080 0.234-10.549 0.68l-0.059 0.010c-7.486 0.977-14.721 3-21.542 5.908l61.322 46.608 46.611 61.332c2.041-4.795 3.657-9.847 4.784-15.134 7.449-35.038-8.619-69.597-37.525-87.288z" />
<glyph unicode="&#xe62b;" glyph-name="libre-bug" d="M950.857 377.417q0-14.263-10.423-24.686t-24.686-10.423h-122.88q0-93.806-36.754-159.086l114.103-114.651q10.423-10.423 10.423-24.686t-10.423-24.686q-9.874-10.423-24.686-10.423t-24.686 10.423l-108.617 108.069q-2.743-2.743-8.229-7.131t-23.040-15.634-35.657-20.023-44.983-15.909-53.211-7.131v491.52h-70.217v-491.52q-27.977 0-55.68 7.406t-47.726 18.103-36.206 21.394-23.863 17.829l-8.229 7.68-100.389-113.554q-10.971-11.52-26.331-11.52-13.166 0-23.589 8.777-10.423 9.874-11.246 24.411t8.503 25.509l110.811 124.526q-31.817 62.537-31.817 150.309h-122.88q-14.263 0-24.686 10.423t-10.423 24.686 10.423 24.686 24.686 10.423h122.88v161.28l-94.903 94.903q-10.423 10.423-10.423 24.686t10.423 24.686 24.686 10.423 24.686-10.423l94.903-94.903h462.994l94.903 94.903q10.423 10.423 24.686 10.423t24.686-10.423 10.423-24.686-10.423-24.686l-94.903-94.903v-161.28h122.88q14.263 0 24.686-10.423t10.423-24.686zM687.543 693.394h-351.086q0 72.96 51.291 124.251t124.251 51.291 124.251-51.291 51.291-124.251z" />
<glyph unicode="&#xe62c;" glyph-name="libre-calendar" d="M167.183 62.694h141.061v141.061h-141.061v-141.061zM339.592 62.694h156.734v141.061h-156.734v-141.061zM167.183 235.102h141.061v156.735h-141.061v-156.735zM339.592 235.102h156.734v156.735h-156.734v-156.735zM167.183 423.184h141.061v141.061h-141.061v-141.061zM527.673 62.694h156.735v141.061h-156.735v-141.061zM339.592 423.184h156.734v141.061h-156.734v-141.061zM715.755 62.694h141.061v141.061h-141.061v-141.061zM527.673 235.102h156.735v156.735h-156.735v-156.735zM355.265 658.286v141.061q0 6.367-4.652 11.020t-11.020 4.653h-31.348q-6.371 0-11.020-4.653-4.652-4.653-4.652-11.020v-141.061q0-6.367 4.652-11.020t11.020-4.653h31.348q6.371 0 11.020 4.653 4.652 4.653 4.652 11.020zM715.755 235.102h141.061v156.735h-141.061v-156.735zM527.673 423.184h156.735v141.061h-156.735v-141.061zM715.755 423.184h141.061v141.061h-141.061v-141.061zM731.429 658.286v141.061q0 6.367-4.652 11.020t-11.020 4.653h-31.347q-6.371 0-11.020-4.653-4.652-4.653-4.652-11.020v-141.061q0-6.367 4.652-11.020t11.020-4.653h31.347q6.371 0 11.020 4.653 4.652 4.653 4.652 11.020zM919.51 689.632v-626.939q0-25.469-18.613-44.082t-44.082-18.612h-689.633q-25.469 0-44.082 18.612t-18.612 44.082v626.939q0 25.469 18.612 44.082t44.082 18.612h62.694v47.020q0 32.327 23.020 55.347t55.346 23.020h31.348q32.326 0 55.346-23.020t23.020-55.347v-47.020h188.082v47.020q0 32.327 23.020 55.347t55.347 23.020h31.347q32.327 0 55.347-23.020t23.020-55.347v-47.020h62.694q25.47 0 44.082-18.612t18.613-44.082z" />
<glyph unicode="&#xe62d;" glyph-name="libre-caret-down" d="M950.857 630.857q0-22.286-16.286-38.571l-384-384q-16.285-16.286-38.571-16.286t-38.571 16.286l-384 384q-16.286 16.285-16.286 38.571t16.286 38.571 38.571 16.286h768q22.286 0 38.571-16.286t16.286-38.571z" />
<glyph unicode="&#xe62e;" glyph-name="libre-caret-up" d="M950.857 246.857q0-22.286-16.286-38.571t-38.571-16.286h-768q-22.286 0-38.571 16.286t-16.286 38.571 16.286 38.571l384 384q16.285 16.286 38.571 16.286t38.571-16.286l384-384q16.286-16.285 16.286-38.571z" />
<glyph unicode="&#xe62f;" glyph-name="libre-certificate" d="M672.218 172.537c0 107.323-0.439 110.563-15.47 117.248-9.033 4.023-17.23 15.572-19.7 27.772-2.326 11.498-8.637 27.919-14.021 36.491-8.524 13.583-8.304 18.534 1.704 38.32 6.32 12.493 13.32 31.086 15.552 41.318 3.043 13.948 9.695 19.836 26.602 23.552 12.399 2.706 29.938 9.794 38.976 15.718 14.885 9.75 18.501 9.691 38.415-0.731 12.091-6.29 30.631-13.458 41.201-15.931 13.354-3.145 20.439-10.101 23.221-22.879 2.202-10.116 9.14-28.54 15.416-40.953 10.632-21.029 10.593-23.954-0.585-42.869-6.597-11.169-11.994-26.251-11.994-33.514 0-16.647-12.977-29.923-29.257-29.923-11.551 0-12.539-8.763-12.539-111.221v-111.221l-48.563 28.657-48.96-30.259v110.373zM752.015 318.405c13.5 5.193 31.659 38.232 31.659 57.629 0 7.636-7.431 22.528-16.513 33.090-23.138 26.895-62.258 26.895-85.397 0-41.784-48.581 9.040-114.213 70.251-90.719zM137.578 201.143l-64.435 1.975v612.484h877.714v-611.379l-16.255-3.145c-8.94-1.682-43.421-1.682-76.626 0.073-45.035 2.341-60.371 5.559-60.371 12.734 0 7.417 14.152 9.574 62.694 9.574h62.694v564.246h-821.987v-564.246h272.184c247.379 0 271.979-1.024 269.932-11.301-2.019-10.123-25.262-11.403-221.681-12.193-120.686-0.731-248.424 0-283.864 1.097zM114.939 505.644v268.186h794.122v-536.379h-51.833c-28.509 0-53.772 3.145-56.139 6.949-2.714 4.389 13.86 6.949 44.868 6.949h49.173v508.511h-766.259v-508.511h258.153c170.328 0 256.688-2.341 253.847-6.949-2.743-4.462-98.757-6.949-265.118-6.949h-260.814v268.193zM189.368 332.529c-2.626 2.633-4.769 10.569-4.769 17.664 0 12.244 8.397 12.8 165.442 11.030 160.176-1.829 165.443-2.341 165.443-15.799 0-13.48-5.266-13.992-160.673-15.799-88.37-1.024-162.819 0-165.443 2.926zM186.99 401.488c-2.333 6.071-1.258 14.029 2.392 17.679 3.928 3.95 71.828 5.851 166.367 4.754 154.466-1.829 159.735-2.341 159.735-15.806 0-13.48-5.266-13.992-162.128-15.799-142.694-1.682-162.636-0.731-166.367 9.172zM196.792 551.475c-13.994 8.155-16.15 34.494-3.833 46.811 12.028 12.032 626.055 12.032 638.084 0 12.798-12.793 9.947-39.058-5.113-47.119-18.289-9.794-612.304-9.494-629.138 0zM196.792 655.967c-13.994 8.148-16.15 34.494-3.833 46.811 6.173 6.144 69.914 8.36 243.564 8.36 225.411 0 235.505-0.731 242.416-13.473 9.797-18.308 9.101-25.439-3.738-38.276-9.514-9.516-40.741-10.92-238.585-10.737-141.616 0-232.245 2.926-239.829 7.314z" />
<glyph unicode="&#xe630;" glyph-name="libre-chart-area" d="M950.857 73.143v-73.143h-877.714v877.714h54.857v-804.571h822.857zM786.286 658.286l109.714-512h-713.143v329.143l192 329.143 246.857-329.143z" />
<glyph unicode="&#xe631;" glyph-name="libre-chart-bar" d="M347.429 438.857v-292.571h-109.714v292.571h109.714zM512 731.428v-585.143h-109.714v585.143h109.714zM950.857 73.143v-73.143h-877.714v877.714h54.857v-804.571h822.857zM676.571 585.143v-438.857h-109.714v438.857h109.714zM841.143 804.571v-658.286h-109.714v658.286h109.714z" />
<glyph unicode="&#xe632;" glyph-name="libre-chart-line" d="M950.857 164.571v-54.857h-877.714v658.286h54.857v-603.429h822.857zM896 699.428v-186.429q0-8.999-8.357-12.643t-15.214 3.211l-51.857 51.857-271.285-271.285q-4.286-4.286-9.857-4.286-5.573 0-9.857 4.286l-99.857 99.86-178.286-178.286-82.286 82.286 250.714 250.714q4.286 4.286 9.857 4.286 5.573 0 9.857-4.286l99.857-99.857 198.857 198.857-51.857 51.857q-6.853 6.853-3.218 15.214 3.643 8.357 12.643 8.357h186.429q5.998 0 9.857-3.855 3.855-3.855 3.855-9.857z" />
<glyph unicode="&#xe633;" glyph-name="libre-chart-pie" d="M463.238 409.398l277.334-277.334q-53.841-54.857-125.714-85.333t-151.619-30.476q-106.159 0-195.809 52.318t-141.968 141.968-52.317 195.809 52.317 195.81 141.968 141.968 195.809 52.318v-387.048zM558.222 406.348h392.635q0-79.745-30.476-151.619t-85.333-125.714zM918.35 471.364h-390.096v390.096q106.159 0 195.81-52.318t141.968-141.968 52.318-195.81z" />
<glyph unicode="&#xe634;" glyph-name="libre-check-no" d="M950.857 171.405q0-29.553-20.687-50.239l-100.479-100.479q-20.686-20.687-50.239-20.687t-50.24 20.687l-217.212 217.212-217.212-217.212q-20.687-20.687-50.24-20.687t-50.239 20.687l-100.479 100.479q-20.687 20.686-20.687 50.239t20.687 50.24l217.212 217.212-217.212 217.212q-20.687 20.687-20.687 50.24t20.687 50.239l100.479 100.479q20.686 20.687 50.239 20.687t50.24-20.687l217.212-217.212 217.212 217.212q20.687 20.687 50.24 20.687t50.239-20.687l100.479-100.479q20.687-20.686 20.687-50.239t-20.687-50.24l-217.212-217.212 217.212-217.212q20.687-20.687 20.687-50.24z" />
<glyph unicode="&#xe635;" glyph-name="libre-check-yes" d="M950.857 643.847q0-22.652-15.855-38.51l-486.99-486.985q-15.855-15.857-38.506-15.857t-38.506 15.857l-282.002 282.002q-15.855 15.85-15.855 38.502t15.855 38.51l77.013 77.012q15.855 15.85 38.506 15.85t38.506-15.85l166.483-167.051 371.471 372.034q15.855 15.857 38.506 15.857t38.506-15.857l77.013-77.012q15.855-15.85 15.855-38.502z" />
<glyph unicode="&#xe636;" glyph-name="libre-chevron-down" d="M940.512 570.896l-404.010-403.466q-10.345-10.345-24.502-10.345t-24.502 10.345l-404.010 403.466q-10.345 10.345-10.345 24.774t10.345 24.774l90.385 89.841q10.345 10.345 24.502 10.345t24.502-10.345l289.123-289.123 289.123 289.123q10.345 10.345 24.502 10.345t24.502-10.345l90.385-89.841q10.345-10.345 10.345-24.774t-10.345-24.774z" />
<glyph unicode="&#xe637;" glyph-name="libre-chevron-left" d="M783.699 727.98l-289.123-289.123 289.123-289.123q10.345-10.345 10.345-24.502t-10.345-24.502l-90.385-90.385q-10.345-10.345-24.502-10.345t-24.502 10.345l-404.010 404.010q-10.345 10.345-10.345 24.502t10.345 24.502l404.010 404.010q10.345 10.345 24.502 10.345t24.502-10.345l90.385-90.385q10.345-10.345 10.345-24.502t-10.345-24.502z" />
<glyph unicode="&#xe638;" glyph-name="libre-chevron-right" d="M783.699 414.355l-404.010-404.010q-10.345-10.345-24.502-10.345t-24.502 10.345l-90.385 90.385q-10.345 10.345-10.345 24.502t10.345 24.502l289.123 289.123-289.123 289.123q-10.345 10.345-10.345 24.502t10.345 24.502l90.385 90.385q10.345 10.345 24.502 10.345t24.502-10.345l404.010-404.010q10.345-10.345 10.345-24.502t-10.345-24.502z" />
<glyph unicode="&#xe639;" glyph-name="libre-chevron-up" d="M940.512 257.271l-90.385-89.841q-10.345-10.345-24.502-10.345t-24.502 10.345l-289.123 289.123-289.123-289.123q-10.345-10.345-24.502-10.345t-24.502 10.345l-90.385 89.841q-10.345 10.345-10.345 24.774t10.345 24.774l404.010 403.466q10.345 10.345 24.502 10.345t24.502-10.345l404.010-403.466q10.345-10.345 10.345-24.774t-10.345-24.774z" />
<glyph unicode="&#xe63a;" glyph-name="libre-clock" d="M585.143 640v-256q0-8-5.142-13.143t-13.144-5.143h-182.857q-8 0-13.143 5.143t-5.143 13.143v36.571q0 8 5.142 13.143t13.144 5.143h128v201.143q0 8 5.142 13.143 5.144 5.143 13.144 5.143h36.571q8 0 13.143-5.143t5.143-13.143zM822.857 438.857q0 84.571-41.714 156t-113.143 113.143-156 41.714-156-41.714-113.143-113.143-41.714-156 41.714-156 113.143-113.143 156-41.714 156 41.714 113.143 113.143 41.714 156zM950.857 438.857q0-119.429-58.857-220.286t-159.714-159.714-220.286-58.857-220.286 58.857-159.714 159.714-58.857 220.286 58.857 220.286 159.714 159.714 220.286 58.857 220.286-58.857 159.714-159.714 58.857-220.286z" />
<glyph unicode="&#xe63b;" glyph-name="libre-close" d="M877.714 215.98q0-24.627-17.239-41.866l-83.733-83.733q-17.239-17.239-41.866-17.239t-41.866 17.239l-181.010 181.010-181.010-181.010q-17.239-17.239-41.866-17.239t-41.866 17.239l-83.733 83.733q-17.239 17.239-17.239 41.866t17.239 41.866l181.010 181.010-181.010 181.010q-17.239 17.239-17.239 41.866t17.239 41.866l83.733 83.733q17.239 17.239 41.866 17.239t41.866-17.239l181.010-181.010 181.010 181.010q17.239 17.239 41.866 17.239t41.866-17.239l83.733-83.733q17.239-17.239 17.239-41.866t-17.239-41.866l-181.010-181.010 181.010-181.010q17.239-17.239 17.239-41.866z" />
<glyph unicode="&#xe63c;" glyph-name="libre-code" d="M347.487 228.302l-23.981-23.981q-4.798-4.798-11.031-4.798t-11.031 4.798l-223.505 223.506q-4.796 4.798-4.796 11.031 0 6.239 4.796 11.031l223.505 223.506q4.798 4.798 11.031 4.798 6.239 0 11.031-4.798l23.981-23.981q4.798-4.798 4.798-11.031 0-6.232-4.798-11.031l-188.493-188.493 188.493-188.493q4.798-4.798 4.798-11.031t-4.798-11.031zM630.946 740.062l-178.9-619.196q-1.916-6.239-7.434-9.353-5.515-3.116-11.271-1.2l-29.737 8.153q-6.232 1.916-9.353 7.434-3.116 5.515-1.2 11.751l178.9 619.196q1.916 6.239 7.434 9.353 5.515 3.116 11.271 1.2l29.737-8.153q6.232-1.916 9.353-7.434 3.116-5.515 1.2-11.751zM946.060 427.826l-223.506-223.506q-4.798-4.798-11.031-4.798-6.239 0-11.031 4.798l-23.981 23.981q-4.798 4.798-4.798 11.031 0 6.239 4.798 11.031l188.493 188.493-188.493 188.493q-4.798 4.798-4.798 11.031 0 6.232 4.798 11.031l23.981 23.981q4.798 4.798 11.031 4.798t11.031-4.798l223.506-223.506q4.798-4.798 4.798-11.031t-4.798-11.031z" />
<glyph unicode="&#xe63d;" glyph-name="libre-cog" d="M658.286 438.857q0 60.571-42.857 103.429t-103.428 42.857-103.428-42.857-42.857-103.429 42.857-103.429 103.428-42.857 103.428 42.857 42.857 103.429zM950.857 501.143v-126.857q0-6.857-4.571-13.143t-11.429-7.429l-105.714-16q-10.857-30.857-22.286-52 20-28.571 61.143-78.857 5.712-6.857 5.712-14.286t-5.142-13.143q-15.429-21.143-56.572-61.714t-53.714-40.571q-6.853 0-14.858 5.143l-78.857 61.714q-25.143-13.143-52-21.714-9.143-77.714-16.571-106.286-3.999-16-20.571-16h-126.858q-8 0-14 4.857-5.998 4.857-6.568 12.286l-16 105.143q-28 9.143-51.428 21.143l-80.572-61.143q-5.712-5.143-14.286-5.143-8 0-14.286 6.286-72 65.143-94.286 96-4.001 5.715-4.001 13.143 0 6.857 4.571 13.143 8.572 12 29.143 38t30.857 40.286q-15.429 28.571-23.428 56.571l-104.571 15.429q-7.432 1.142-12.003 7.142t-4.571 13.429v126.857q0 6.857 4.571 13.143t10.857 7.429l106.286 16q8 26.286 22.286 52.571-22.857 32.571-61.143 78.857-5.712 6.857-5.712 13.714 0 5.714 5.142 13.143 14.857 20.571 56.286 61.429t54 40.857q7.429 0 14.858-5.714l78.857-61.143q25.143 13.143 52 21.714 9.143 77.714 16.571 106.286 3.999 16 20.571 16h126.858q8 0 14-4.857 5.998-4.857 6.568-12.286l16-105.143q28-9.143 51.428-21.143l81.143 61.143q5.142 5.143 13.714 5.143 7.428 0 14.286-5.714 73.714-68 94.286-97.143 4.001-4.571 4.001-12.571 0-6.857-4.571-13.143-8.572-12-29.143-38t-30.857-40.286q14.857-28.571 23.428-56l104.572-16q7.428-1.142 12-7.143t4.571-13.429z" />
<glyph unicode="&#xe63e;" glyph-name="libre-cogs" d="M482.743 439.082q0 48.457-34.286 82.743t-82.743 34.286-82.743-34.286-34.286-82.743 34.286-82.743 82.743-34.286 82.743 34.286 34.286 82.743zM833.829 205.025q0 23.771-17.371 41.143t-41.143 17.371-41.143-17.371-17.371-41.143q0-24.229 17.143-41.371t41.371-17.143 41.371 17.143q17.143 17.142 17.143 41.371zM833.829 673.139q0 23.771-17.371 41.143t-41.143 17.371-41.143-17.371-17.371-41.143q0-24.229 17.143-41.372t41.371-17.142 41.371 17.142q17.143 17.143 17.143 41.372zM658.286 480.682v-84.571q0-4.571-3.204-8.915-3.204-4.345-7.314-4.798l-70.857-10.971q-5.032-16-14.629-34.743 15.543-21.943 41.143-52.571 3.204-4.571 3.204-9.143 0-5.486-3.204-8.686-10.514-13.714-37.715-40.914t-35.885-27.2q-5.032 0-9.6 3.204l-52.571 41.143q-16.914-8.686-35.2-14.171-5.025-49.371-10.514-70.857-3.204-10.971-13.714-10.971h-85.029q-5.032 0-9.143 3.43-4.118 3.43-4.571 8l-10.514 69.943q-15.543 4.571-34.286 14.171l-53.943-40.686q-3.196-3.204-9.143-3.204-5.025 0-9.6 3.657-65.829 60.8-65.829 73.143 0 4.118 3.2 8.686 4.571 6.4 18.743 24.229t21.486 27.886q-10.514 20.114-16 37.486l-69.486 10.971q-4.571 0.439-7.771 4.345-3.196 3.88-3.196 8.909v84.571q0 4.571 3.2 8.915 3.2 4.345 7.314 4.798l70.857 10.971q5.032 16 14.629 34.743-15.543 21.943-41.143 52.571-3.2 5.032-3.2 9.143 0 5.486 3.2 9.143 10.057 13.714 37.486 40.686t36.114 26.971q5.032 0 9.6-3.196l52.571-41.143q15.543 8.229 35.2 14.629 5.025 49.371 10.514 70.4 3.204 10.971 13.714 10.971h85.029q5.032 0 9.143-3.43 4.118-3.43 4.571-8l10.514-69.943q15.543-4.571 34.286-14.171l53.943 40.686q3.657 3.196 9.143 3.196 5.025 0 9.6-3.657 65.829-60.8 65.829-73.143 0-4.111-3.204-8.686-5.486-7.314-19.2-24.686t-20.571-27.429q10.514-21.943 15.543-37.486l69.486-10.514q4.571-0.914 7.771-4.798 3.204-3.884 3.204-8.914zM950.857 237.025v-64q0-7.314-68.114-14.171-5.486-12.343-13.714-23.771 23.314-51.657 23.314-63.086 0-1.829-1.829-3.196-55.771-32.457-56.686-32.457-3.657 0-21.029 21.486t-23.771 31.086q-9.143-0.914-13.714-0.914t-13.714 0.914q-6.4-9.6-23.771-31.086t-21.029-21.486q-0.914 0-56.686 32.457-1.829 1.368-1.829 3.196 0 11.429 23.314 63.086-8.229 11.429-13.714 23.771-68.114 6.853-68.114 14.171v64q0 7.314 68.114 14.171 5.947 13.257 13.714 23.771-23.314 51.657-23.314 63.086 0 1.829 1.829 3.204 1.829 0.914 16 9.143t26.971 15.543 13.714 7.314q3.657 0 21.029-21.258t23.771-30.857q9.143 0.914 13.714 0.914t13.714-0.914q23.314 32.457 42.057 51.2l2.743 0.914q1.829 0 56.686-32 1.829-1.375 1.829-3.204 0-11.429-23.314-63.086 7.771-10.514 13.714-23.771 68.114-6.853 68.114-14.171zM950.857 705.139v-64q0-7.314-68.114-14.171-5.486-12.343-13.714-23.771 23.314-51.657 23.314-63.086 0-1.829-1.829-3.204-55.771-32.457-56.686-32.457-3.657 0-21.029 21.486t-23.771 31.086q-9.143-0.914-13.714-0.914t-13.714 0.914q-6.4-9.6-23.771-31.086t-21.029-21.486q-0.914 0-56.686 32.457-1.829 1.375-1.829 3.204 0 11.429 23.314 63.086-8.229 11.429-13.714 23.771-68.114 6.853-68.114 14.171v64q0 7.314 68.114 14.171 5.947 13.257 13.714 23.771-23.314 51.657-23.314 63.086 0 1.829 1.829 3.204 1.829 0.914 16 9.143t26.971 15.543 13.714 7.314q3.657 0 21.029-21.257t23.771-30.858q9.143 0.914 13.714 0.914t13.714-0.914q23.314 32.457 42.057 51.2l2.743 0.914q1.829 0 56.686-32 1.829-1.375 1.829-3.204 0-11.429-23.314-63.086 7.771-10.514 13.714-23.771 68.114-6.853 68.114-14.171z" />
<glyph unicode="&#xe63f;" glyph-name="libre-comment" d="M950.857 501.625q0-85.225-58.775-157.469t-159.674-114.123-220.408-41.877q-34.286 0-71.020 3.92-96.979-85.715-225.306-118.531-24-6.853-55.837-10.775-8.327-0.98-14.939 4.411t-8.571 14.204v0.512q-1.469 1.96-0.241 5.881 1.224 3.92 0.979 4.901-0.241 0.98 2.204 4.652l2.939 4.411 3.428 4.162 3.918 4.411q3.43 3.92 15.184 16.897 11.756 12.98 16.898 18.613t15.184 19.347 15.918 24.979q5.881 11.265 13.225 28.898 7.346 17.633 12.734 37.225-76.898 43.592-121.224 107.756-44.329 64.129-44.329 137.598 0 63.674 34.775 121.714t93.551 100.163 140.082 66.858 170.449 24.735q119.51 0 220.408-41.878t159.674-114.123 58.775-157.469z" />
<glyph unicode="&#xe640;" glyph-name="libre-comments" d="M762.775 532.924q0-68.081-46.041-125.877t-125.633-91.347-173.142-33.551q-42.123 0-86.205 7.837-60.734-43.102-136.163-62.694-17.633-4.411-42.123-7.837h-1.47q-5.391 0-10.041 3.92-4.653 3.92-5.633 10.285-0.49 1.47-0.49 3.182t0.241 3.182 0.979 2.94l1.224 2.45 1.714 2.692 1.959 2.45 2.204 2.45 1.959 2.202q2.449 2.94 11.266 12.245 8.816 9.306 12.734 14.449 3.92 5.142 11.020 14.204 7.102 9.061 12.245 18.857t10.041 21.551q-60.735 35.266-95.51 86.694-34.77 51.43-34.77 109.716 0 68.081 46.041 125.877t125.633 91.347 173.143 33.551 173.142-33.551 125.633-91.347 46.041-125.877zM950.857 407.536q0-58.775-34.776-109.959t-95.51-86.449q4.901-11.756 10.041-21.552 5.142-9.795 12.245-18.857t11.020-14.204q3.92-5.142 12.734-14.449 8.817-9.306 11.265-12.245 0.512-0.512 1.96-2.202 1.47-1.712 2.202-2.45 0.731-0.731 1.96-2.45 1.221-1.712 1.712-2.692l1.229-2.45 0.98-2.94 0.219-3.182-0.512-3.182q-1.47-6.853-6.371-10.775-4.901-3.92-10.775-3.43-24.49 3.43-42.123 7.837-75.429 19.592-136.163 62.694-44.082-7.837-86.205-7.837-132.735 0-231.183 64.653 28.408-1.96 43.102-1.96 78.857 0 151.346 22.041t129.306 63.183q61.224 45.062 94.041 103.837t32.816 124.408q0 37.715-11.265 74.449 63.184-34.776 99.918-87.184t36.735-112.653z" />
<glyph unicode="&#xe641;" glyph-name="libre-content" d="M638.281 106.436h-498.659v664.87h498.687v-113.308l66.451 74.091v38.007c0 37.375-30.313 67.688-67.688 67.688h-496.241c-37.375 0-67.688-30.285-67.688-67.688v-662.451c0-37.403 30.313-67.715 67.688-67.715h496.296c37.348 0 67.688 30.313 67.688 67.715v218.151l-66.506-74.119v-145.242h-0.027zM581.888 649.396c0 18.358-14.868 33.226-33.226 33.226h-319.779c-18.33 0.027-33.226-14.868-33.226-33.226 0-18.33 14.895-33.226 33.226-33.226h319.752c18.385 0 33.253 14.895 33.253 33.226zM536.103 543.343h-307.22c-18.358 0-33.226-14.895-33.226-33.226 0-18.358 14.895-33.253 33.226-33.253h247.557l59.663 66.479zM411.83 405.659h-182.947c-18.358 0-33.226-14.923-33.226-33.281 0-18.303 14.895-33.226 33.226-33.226h145.297l37.65 66.506zM195.657 233.073c0-18.358 14.895-33.226 33.226-33.226h106.41c0.412 4.754 1.099 7.365 2.144 10.938l15.994 55.541h-124.548c-18.33-0.027-33.226-14.895-33.226-33.253zM694.646 646.208l-250.085-278.804 127.818-114.627 17.918 20.034 253.081 282.129-127.763 114.627-20.969-23.36zM683.598 529.327l-152.222-169.673c-1.869-2.144-4.589-3.435-7.448-3.573-2.858-0.165-5.634 0.824-7.75 2.721l-7.53 6.761c-4.425 4.012-4.782 10.8-0.824 15.197l152.25 169.728c1.896 2.144 4.562 3.435 7.448 3.573 2.831 0.137 5.634-0.824 7.75-2.748l7.503-6.788c4.48-3.957 4.782-10.773 0.824-15.197zM727.844 609.959l7.53-6.761c4.397-3.957 4.782-10.773 0.797-15.197l-1.924-2.171-10.883-12.12-0.467-0.495c-1.869-2.144-4.562-3.408-7.448-3.545-2.858-0.165-5.634 0.797-7.75 2.748l-7.558 6.761c-2.144 1.896-3.38 4.589-3.545 7.42-0.165 2.858 0.824 5.661 2.776 7.777l13.219 14.758c4.012 4.425 10.828 4.809 15.252 0.824zM865.391 579.454l21.711 24.212-127.763 114.6-31.384-34.957 127.791-114.627zM950.805 690.976c-0.55 9.839-4.974 19.072-12.284 25.668l-72.415 64.967c-7.365 6.596-17.011 9.976-26.85 9.454-9.811-0.55-19.1-4.947-25.668-12.312l-42.734-47.599 127.791-114.572 42.679 47.599c6.596 7.283 10.003 16.929 9.481 26.795zM896.033 664.291l-77.417 69.447 22.343 24.899 77.362-69.419-22.288-24.926zM390.751 178.878c5.277-4.727 12.807-6.019 19.375-3.325l146.891 60.158-127.736 114.6-43.944-152.552c-1.979-6.816 0.137-14.153 5.414-18.88zM440.988 309.582l74.201-66.616-57.712-23.662-33.775 30.313 17.286 59.966z" />
<glyph unicode="&#xe642;" glyph-name="libre-copy" d="M786.286 658.286h-164.571v54.857l-164.571 164.571h-384v-658.286h329.143v-219.429h548.571v493.714l-164.571 164.571zM786.286 580.706l86.992-86.991h-86.992v86.991zM457.143 800.134l86.992-86.991h-86.992v86.991zM128 822.857h274.286v-164.571h164.571v-384h-438.857v548.571zM896 54.857h-438.857v164.571h164.571v384h109.714v-164.571h164.571v-384z" />
<glyph unicode="&#xe643;" glyph-name="libre-credit-card" d="M877.714 789.943q30.171 0 51.657-21.486t21.486-51.657v-555.886q0-30.171-21.486-51.657t-51.657-21.486h-731.429q-30.171 0-51.657 21.486t-21.486 51.657v555.886q0 30.171 21.486 51.657t51.657 21.486h731.429zM146.286 731.428q-5.943 0-10.286-4.345-4.343-4.341-4.343-10.284v-102.4h760.686v102.4q0 5.939-4.345 10.285-4.341 4.343-10.284 4.343h-731.429zM877.714 146.286q5.939 0 10.285 4.345 4.343 4.341 4.343 10.284v277.943h-760.686v-277.943q0-5.947 4.343-10.285 4.342-4.343 10.285-4.343h731.429zM190.171 204.8v58.514h117.029v-58.514h-117.029zM365.714 204.8v58.514h175.543v-58.514h-175.543z" />
<glyph unicode="&#xe644;" glyph-name="libre-credit-card-amex" d="M118.475 520.381h33.904l-17.143 41.143zM355.047 320l28.19 30.095-26.666 30.095h-62.095v-18.667h54.095v-20.953h-54.095v-20.571h60.572zM415.237 349.714l37.715-41.905v82.667zM524.951 367.619q0 12.572-15.238 12.572h-32v-26.286h31.619q15.619 0 15.619 13.714zM635.046 369.14q0 11.047-16 11.047h-31.238v-23.238h30.857q16.381 0 16.381 12.191zM529.141 546.664q0 11.047-16 11.047h-31.238v-22.857h30.858q16.38 0 16.38 11.81zM703.999 520.378h33.905l-16.762 41.143zM339.427 579.426v-103.238h-25.142v80.761l-35.81-80.761h-21.714l-35.81 80.761v-80.761h-50.286l-9.524 22.857h-51.428l-9.524-22.857h-26.667l44.191 103.238h36.572l41.904-97.905v97.905h40.381l32.38-70.096 29.333 70.096h41.143zM551.237 367.616q0-7.619-2.092-13.333-2.092-5.712-5.332-9.524t-8.572-6.283-9.905-3.811q-4.571-1.331-12-1.712-7.428-0.366-12-0.366t-12.381 0.219-11.238 0.219v-34.667h-48.004l-30.476 34.286-31.619-34.286h-97.524v103.238h99.048l30.476-33.905 31.238 33.905h78.858q41.524 0 41.524-33.905zM440.38 497.52v-21.333h-82.666v103.238h82.666v-21.715h-57.904v-18.667h56.381v-20.953h-56.381v-20.571h57.904zM950.856 284.572v-87.238q0-20.953-14.667-36t-35.619-15.048h-777.143q-20.952 0-35.619 15.048t-14.667 36v258.286h42.286l9.524 23.238h20.952l9.524-23.238h83.048v17.524l7.241-17.524h43.047l7.619 17.905v-17.905h206.095v37.714l3.811 0.366q3.811 0 3.811-5.332v-32.761h106.285v8.762q8.763-4.571 20.953-6.853t20-2.48q7.809-0.219 24 0.219 16.191 0.366 19.619 0.366l9.524 23.238h21.334l9.524-23.238h86.476v22.095l12.952-22.095h69.334v144h-68.571v-16.762l-9.524 16.762h-70.476v-16.762l-8.762 16.762h-94.858q-26.285 0-41.524-8.381v8.381h-65.524v-8.381q-9.143 8.381-27.81 8.381h-239.238l-16.381-36.953-16.381 36.953h-75.429v-16.762l-8.381 16.762h-64.386l-29.714-68.19v148.952q0 20.953 14.667 36t35.619 15.048h777.143q20.953 0 35.619-15.048t14.667-36v-258.286h-45.714q-19.429 0-30.857-8.381v8.381h-67.429q-20.953 0-29.714-8.381v8.381h-120.381v-8.381q-11.81 8.381-33.143 8.381h-79.619v-8.381q-8.762 8.381-34.667 8.381h-89.143l-20.571-22.095-19.048 22.095h-132.952v-144h130.666l20.953 22.476 19.81-22.476h80.38v33.905h8q22.476 0 34.286 4.952v-38.857h66.286v37.715h3.050q3.050 0 3.811-0.761t0.761-3.811v-33.143h201.524q21.714 0 33.524 9.143v-9.143h64q22.857 0 36.19 6.473zM662.094 373.715q0-8.763-4.571-16.381t-12.952-11.047q9.524-3.43 12.952-9.905 3.43-6.473 3.43-17.524v-20.572h-24.762v17.143q0 12.571-4.571 16.571t-17.524 4.001h-26.285v-37.715h-24.762v103.238h58.665q18.286 0 29.333-5.712t11.047-22.095zM556.57 551.619q0-9.143-4.762-16.762t-12.762-11.047q9.905-3.43 13.143-9.714 3.24-6.283 3.24-17.714v-20.19h-24.762q0 3.43 0.219 10.095 0.219 6.663 0 9.524t-1.141 7.051q-0.951 4.191-3.24 6.093-2.282 1.902-6.663 3.24-4.381 1.331-11.238 1.331h-26.666v-37.333h-24.381v103.238l58.285-0.366q18.667 0 29.714-5.522t11.047-21.905zM758.094 319.619v-21.334h-82.286v103.238h82.286v-21.333h-57.524v-18.667h56.381v-20.953h-56.381v-20.571zM595.808 579.429v-103.238h-25.143v103.238h25.143zM859.809 331.047q0-32.762-38.857-32.762h-48v22.096h48q12.952 0 12.952 9.524 0 6.093-6.473 8-6.473 1.902-15.81 1.902-9.333 0-18.857 1.331t-16 8.572q-6.473 7.241-6.473 20.953 0 14.857 9.905 22.857t25.143 8h49.524v-21.714h-45.333q-13.714 0-13.714-9.524 0-6.093 6.663-7.809 6.663-1.712 16-1.521 9.334 0.219 18.667-0.951 9.334-1.141 16-8.19 6.663-7.051 6.663-20.762zM950.856 350.095v-38.476q-9.143-13.334-33.524-13.334h-47.619v22.096h47.619q12.571 0 12.571 9.524 0 4.952-4.762 7.241t-11.81 2.092q-7.051-0.219-15.238 0.761-8.191 0.951-15.239 3.050-7.051 2.099-11.81 9.143-4.762 7.051-4.762 18.477 0 14.857 10.095 22.857t25.334 8h49.142v-21.714h-44.952q-13.714 0-13.714-9.524 0-7.619 11.047-8.381t26.095-1.902 21.524-9.904zM887.999 579.048v-102.857h-35.047l-46.476 77.333v-77.333h-50.286l-9.905 22.857h-51.047l-9.524-22.857h-28.571q-49.143 0-49.143 50.667 0 52.571 50.667 52.571h24v-22.477q-2.67 0-10.666 0.366-8 0.366-10.857 0.219-2.86-0.219-8.762-0.761-5.903-0.585-8.191-2.48-2.282-1.902-5.522-5.142t-4.381-8.762-1.141-12.762q0-14.476 5.142-22.095t18.858-7.619h11.047l35.047 81.143h36.953l41.524-97.524v97.524h37.715l43.428-71.619v71.619h25.143z" />
<glyph unicode="&#xe645;" glyph-name="libre-credit-card-cc" d="M409.571 390.857h88.714q-6-67.714-42.214-106.5t-91.929-38.786q-69.429 0-109.071 49.714t-39.643 135.428q0 83.143 39.857 133.5t99.857 50.357q63.429 0 99.429-37.285t41.571-105.857h-87q-2.143 27.429-15.214 42.429t-34.929 15q-24.429 0-37.929-25.928t-13.5-76.071q0-20.571 2.143-36t7.714-29.786 17.143-22.071 28.286-7.714q40.714 0 46.714 59.571zM714.714 390.857h88.286q-6-67.714-42-106.5t-91.714-38.786q-69.429 0-109.071 49.714t-39.643 135.428q0 83.143 39.857 133.5t99.857 50.357q63.429 0 99.429-37.285t41.571-105.857h-87.429q-1.714 27.429-15 42.429t-34.714 15q-24.429 0-37.929-25.928t-13.5-76.071q0-20.571 2.143-36t7.714-29.786 16.929-22.071 28.071-7.714q21 0 32.786 16.285t14.357 43.286zM868.571 441.857q0 88.714-6.643 131.571t-25.929 69q-2.572 3.43-5.786 5.998-3.214 2.575-9.214 6.429t-6.857 4.718q-36.857 27-298.714 27-267.857 0-304.286-27-2.143-1.712-7.5-4.93-5.357-3.211-9-5.998t-6.214-6.217q-19.286-25.714-25.714-68.357t-6.429-132.214q0-89.143 6.429-131.786t25.714-68.786q2.571-3.43 6.429-6.429t8.786-5.998 7.5-5.142q18.857-14.143 102.643-21 83.786-6.853 201.643-6.853 261.429 0 298.714 27.857 2.143 1.712 7.286 4.718 5.143 2.999 8.786 5.998t5.786 6.853q19.714 25.714 26.143 68.143t6.429 132.429zM950.857 768v-658.286h-877.714v658.286h877.714z" />
<glyph unicode="&#xe646;" glyph-name="libre-credit-card-discover" d="M192.381 484.189q0-19.428-13.714-32-11.047-9.905-33.905-9.905h-6.476v83.81h6.476q23.238 0 33.905-10.286 13.714-11.81 13.714-31.619zM868.953 508.951q0-19.809-24.382-19.809h-7.241v38.476h7.619q24 0 24-18.667zM217.905 484.189q0 28.191-19.048 45.904t-49.143 17.714h-36.19v-126.857h36.19q28.191 0 45.334 14.476 22.857 19.429 22.857 48.762zM229.334 420.951h24.762v126.857h-24.762v-126.857zM351.238 459.427q0 15.238-7.809 23.619t-28.762 16q-11.047 3.811-15.048 7.241t-4.001 8.763q0 6.093 5.142 10.095t13.143 4.001q11.047 0 20.19-10.285l12.952 16.762q-15.619 14.095-37.334 14.095-16.761 0-28.19-10.476t-11.429-25.715q0-13.333 6.853-21.143t24.381-13.904q14.095-4.952 17.143-7.241 7.241-4.571 7.241-12.952 0-7.619-5.332-12.762t-13.714-5.142q-18.286 0-27.047 16.762l-16-15.238q16.761-24.381 43.809-24.381 19.429 0 31.62 11.619t12.19 30.286zM457.143 425.141v29.333q-14.095-14.095-29.714-14.095-18.667 0-30.667 12.381t-12 31.429q0 18.286 12 31.048t29.523 12.762q16.381 0 30.858-14.476v29.333q-15.238 7.619-30.476 7.619-28.19 0-47.809-19.238t-19.619-47.048 19.428-47.048 47.619-19.238q16 0 30.858 7.241zM926.476 195.046v200.762q-24.763-15.239-55.048-32t-90.476-44.572q-60.19-27.809-125.523-52.381t-159.048-51.238-192-44.953h597.714q9.905 0 17.143 7.241 7.241 7.241 7.241 17.143zM602.285 483.427q0 28.572-20.19 48.762t-48.761 20.19-48.762-20.19-20.19-48.762 20.19-48.761 48.762-20.19q28.571 0 48.761 20.19t20.19 48.761zM660.19 417.522l54.857 130.286h-27.047l-34.286-85.333-33.905 85.333h-27.047l54.095-130.286h13.333zM726.095 420.952h70.096v21.333h-45.334v34.286h43.81v21.333h-43.81v28.191h45.334v21.714h-70.096v-126.857zM875.047 420.952h30.476l-40 53.333q28.953 6.093 28.953 35.81 0 17.905-11.81 27.81t-33.143 9.904h-36.953v-126.857h24.763v50.667h3.43zM950.857 680.381v-483.047q0-21.334-14.667-36.191t-35.619-14.857h-777.143q-20.952 0-35.619 14.857t-14.667 36.191v483.047q0 21.334 14.667 36.19t35.619 14.858h777.143q20.953 0 35.619-14.858t14.667-36.19z" />
<glyph unicode="&#xe647;" glyph-name="libre-credit-card-mastercard" d="M328.762 424.762h-4.952q-17.905 0-17.905-12.191 0-8.381 7.619-8.381 6.473 0 10.666 5.712 4.191 5.712 4.571 14.857zM479.238 438.476h23.619v1.141q0.366 1.521 0.219 2.472-0.219 0.951-0.366 2.67-0.219 1.712-0.761 3.050-0.585 1.331-1.712 2.48-1.141 1.141-2.86 1.902-1.712 0.761-4.381 0.761-10.666 0-13.714-14.476zM684.952 424.762h-4.571q-18.286 0-18.286-12.191 0-8.381 7.619-8.381 6.473 0 10.666 5.712 4.191 5.712 4.571 14.857zM806.476 434.667q0 15.619-11.429 15.619-7.241 0-11.81-7.619-4.571-7.619-4.571-19.428 0-16 10.667-16 7.619 0 12.381 7.619t4.762 19.81zM256 488.381h33.143l-16.762-99.809h-21.334l12.191 76.571-27.047-76.571h-14.858l-1.521 76.191-12.952-76.191h-20.191l16.762 99.809h30.858l0.761-62.095zM352.381 447.619q0-2.282-1.521-16-6.093-38.476-6.473-43.047h-17.905l0.366 8.381q-7.619-9.904-22.095-9.904-8.763 0-14.286 6.093-5.522 6.093-5.522 16 0 14.858 9.905 23.047t27.81 8.191q5.332 0 8.762-0.366 0 1.141 0.219 2.092t0.366 1.712q0.219 0.761 0.219 1.141 0 7.619-13.714 7.619-11.048 0-22.477-3.811 0 1.521 2.67 18.286 14.476 4.191 25.524 4.191 28.191 0 28.191-23.619zM411.81 469.714l-3.050-18.666q-8.381 1.141-15.619 1.141-10.285 0-10.285-6.473 0-3.050 1.712-4.571t8.191-4.191q15.238-7.241 15.238-22.857 0-27.429-33.142-27.047-12.952 0-22.095 2.282 0 0.761 2.67 18.666 11.047-3.050 19.428-3.050 12.191 0 12.191 7.241 0 2.67-1.712 4.381t-8.191 4.762q-16.381 7.619-16.381 22.476 0 27.429 32 27.429 11.429 0 19.048-1.521zM445.333 469.714h10.667l-2.67-19.809h-11.047q-0.761-6.473-2.48-15.429-1.712-8.952-2.67-14.667-0.951-5.712-0.951-6.853 0-6.093 7.241-6.093 3.050 0 6.093 0.761l-3.050-17.905q-8-2.67-15.239-2.67-16.38 0-17.142 17.905 0 4.571 3.050 21.334 1.141 7.619 9.524 55.619h20.953zM522.666 441.905q0-8.762-2.67-19.81h-42.286q-1.141-8.381 3.811-12.571t14.476-4.191q11.429 0 22.095 5.332l-3.43-20.571q-11.429-3.050-21.715-3.050-36.19 0-36.19 36.19 0 20.953 10.476 34.476t26.476 13.524q13.333 0 21.143-8t7.809-21.333zM575.619 470.095q-4.952-8.762-8.381-23.619-8.381 0.761-11.81-9.143t-9.524-48.762h-21.333l1.141 5.332q8.381 49.524 11.047 75.809h19.429l-1.141-12.571q5.332 8 9.714 11.238 4.381 3.24 10.857 1.712zM646.857 485.715l-3.43-21.715q-10.666 5.332-19.047 5.332-11.81 0-19.429-10.476t-7.619-26.857q0-11.429 5.142-17.905 5.142-6.473 14.667-6.473 8 0 18.286 4.952l-3.811-22.476q-10.667-3.050-19.048-3.050-17.143 0-27.238 11.619t-10.095 31.429q0 26.666 13.524 43.619t34.857 16.952q9.905 0 23.238-4.952zM708.571 447.619q0-6.853-1.521-16-4.952-30.095-6.473-43.047h-17.524l0.366 8.381q-7.619-9.904-22.476-9.904-8.762 0-14.095 6.093t-5.332 16q0 14.858 9.715 23.047t27.619 8.191q5.712 0 8.762-0.366 0.761 2.67 0.761 4.952 0 7.619-13.714 7.619-11.047 0-22.476-3.811 0 1.521 3.050 18.286 14.476 4.191 25.524 4.191 27.81 0 27.81-23.619zM762.286 470.095q-5.332-9.143-8-23.619-8.762 0.761-12-8.763-3.24-9.523-9.714-49.142h-21.334l1.141 5.332q7.241 39.619 11.047 75.809h19.81q0-4.191-1.521-12.571 5.712 8 10.095 11.238 4.381 3.24 10.476 1.712zM816 488.381h21.334l-16.381-99.809h-20.19l1.141 7.241q-8.762-8.762-19.809-8.762-11.81 0-18.857 9.143-7.051 9.143-7.051 24.381 0 20.19 10.476 35.048t24.572 14.857q11.81 0 20.19-11.047zM858.285 438.857q0 56.381-27.619 104t-75.429 75.429-104.191 27.809q-68.953 0-124.952-41.904 48.381-44.191 65.142-108.191h-19.047q-16.762 57.143-60.191 96.381-43.429-39.238-60.191-96.381h-19.047q16.761 64 65.142 108.191-56 41.904-124.952 41.904-56.381 0-104.191-27.809t-75.429-75.429-27.619-104 27.619-104 75.429-75.428q47.81-27.81 104.191-27.81 68.953 0 124.952 41.904-45.714 42.286-62.857 100.571h19.047q17.524-52.571 57.905-88.762 40.381 36.19 57.905 88.762h19.047q-17.142-58.285-62.857-100.571 56-41.904 124.952-41.904 56.381 0 104.191 27.81t75.429 75.428q27.619 47.62 27.619 104zM950.857 682.666v-487.619q0-19.81-14.476-34.286t-34.286-14.476h-780.19q-19.81 0-34.286 14.476t-14.476 34.286v487.619q0 19.81 14.476 34.286t34.286 14.476h780.19q19.81 0 34.286-14.476t14.476-34.286z" />
<glyph unicode="&#xe648;" glyph-name="libre-credit-card-paypal" d="M195.809 457.524h-5.712q-7.241 0-7.241 6.853 0 10.666 7.241 32.381 1.902 5.712 5.712 7.428 3.811 1.712 10.667 1.712 29.333 0 29.333-18.667 0-15.619-11.619-22.667-11.619-7.051-28.381-7.051zM326.095 396.191q-17.905 0-17.905 11.047 0 23.619 46.858 23.619l1.141-1.141q-1.902-33.524-30.095-33.524zM620.952 456.762h-5.712q-7.241 0-7.241 7.241 0 10.666 7.241 32.381 1.902 5.712 5.522 7.241 3.621 1.521 10.857 1.521 29.333 0 29.333-18.667 0-15.619-11.619-22.666-11.619-7.051-28.381-7.051zM751.238 395.81q-17.905 0-17.905 11.429 0 23.619 46.858 23.619l1.141-1.141q-1.902-33.905-30.095-33.905zM215.238 535.619h-48.762q-3.050 0-5.522-1.521-2.48-1.521-3.24-2.86-0.761-1.331-2.67-4.762-1.141-2.67-17.143-72.381-16-69.714-16-73.143 0-2.67 2.095-4.762 2.096-2.099 5.143-2.099h23.619q9.524 0 12.381 13.143l5.712 26.286 12.381 13.142q17.905 0 33.333 2.86t30.667 9.333 24.191 20q8.952 13.523 8.952 32.19 0 13.714-5.522 23.238t-15.619 13.904q-10.095 4.381-20.381 5.903t-23.619 1.521zM347.047 499.048q-14.476 0-28.19-2.282-0.761 0-3.24-0.366t-3.43-0.585l-2.86-0.585-2.86-0.761-2.48-1.141-2.48-1.521-1.902-1.902-1.712-2.67-1.521-3.43q-3.43-11.047-3.43-14.857 0-3.811 3.43-3.811 1.902 0 8.191 1.902 6.283 1.902 7.428 2.282 11.429 3.050 22.096 3.050 28.19 0 28.19-13.714 0-4.191-3.811-5.332-3.050-0.761-6.853-1.141-3.811-0.366-8.191-0.585-4.381-0.219-6.663-0.585-14.476-1.521-24.572-3.811-10.095-2.282-21.524-7.428-11.429-5.142-17.333-14.857-5.903-9.715-5.903-23.809 0-14.476 9.905-22.667t24.381-8.191q9.143 0 17.333 2.472 8.191 2.48 12.571 4.952 4.381 2.48 14.667 8.953-1.141-2.67-1.141-5.712 0-3.050 2.092-5.142t4.762-2.092h21.334q0.366 0.366 2.67 1.331 2.282 0.951 2.86 1.331 0.585 0.366 1.902 1.331 1.331 0.951 1.902 2.092 0.585 1.141 0.951 3.050l17.143 73.905q1.521 4.952 1.521 11.429 0 30.858-55.238 30.858zM548.19 497.146h-28.19q-8.381 0-14.858-8.762-1.902-2.67-11.238-19.428-9.333-16.762-17.714-31.048t-9.905-14.667l-1.902 1.521q0 29.333-10.286 63.239-0.366 1.902-1.331 3.24-0.951 1.331-2.282 2.48-1.331 1.141-2.48 1.902-1.141 0.761-3.24 1.141-2.092 0.366-3.24 0.585-1.141 0.219-3.621 0.366-2.48 0.219-3.43 0.219h-7.051q-14.476 0-14.476-8l0.366-1.902q1.902-20.191 9.524-57.524 7.619-37.334 9.524-54.476 0.761-6.093 0.761-9.143 0-7.241-11.619-23.429-11.619-16.19-11.619-22.285 0-4.952 15.238-4.952 23.238 0 28.952 9.523l93.334 158.095q3.811 7.619 3.811 9.905 0 3.43-3.050 3.43zM640.381 534.861h-49.143q-6.853 0-11.047-8.762-2.282-4.952-17.714-72.953-15.428-68-15.428-72.572 0-7.619 16.38-7.619h9.715l3.621 0.366 3.24 0.761 3.24 1.141 2.48 1.712 2.092 2.282 1.141 3.24 8 34.666q0.761 3.811 4.001 6.473 3.24 2.67 7.428 2.67 17.905 0 33.333 2.67t30.667 9.334 24.191 20q8.952 13.333 8.952 31.999 0 13.715-5.522 23.238t-15.619 13.905q-10.095 4.381-20.381 5.903t-23.619 1.521zM772.19 499.051q-9.904 0-28.19-2.282-14.476-2.282-18.286-6.093-2.67-3.050-4.191-7.241-3.050-9.144-3.050-14.858 0-3.811 3.050-3.811 0.366 0 15.62 4.571 11.428 3.050 22.095 3.050 28.191 0 28.191-13.714 0-4.571-3.811-5.332-1.521-0.366-21.714-2.67-14.476-1.521-24.572-3.811-10.095-2.282-21.524-7.428-11.429-5.142-17.333-14.857t-5.903-23.809 9.905-22.286 24.381-8.191q9.143 0 17.143 2.282t12.952 4.952 14.476 9.143q-1.141-5.712-1.141-6.093 0-1.902 0.761-3.24 0.761-1.331 2.48-2.092 1.712-0.761 3.050-1.331 1.331-0.585 4.001-0.761 2.67-0.219 3.621-0.219h6.663q16 0 18.286 9.524l17.143 73.904q1.141 5.712 1.141 11.81 0 30.858-55.238 30.858zM894.857 533.718h-20.952q-9.524 0-12.572-15.239-3.811-16.762-13.904-63.619-10.095-46.858-16.191-72.381v-1.902q0-6.093 6.093-6.853h22.098q3.811 0 7.051 2.48 3.24 2.472 4.001 6.283l31.619 142.476h-0.366l0.366 1.902q0 2.67-2.092 4.762t-5.142 2.092zM950.857 682.666v-487.619q0-19.81-14.476-34.286t-34.286-14.476h-780.19q-19.81 0-34.286 14.476t-14.476 34.286v487.619q0 19.81 14.476 34.286t34.286 14.476h780.19q19.81 0 34.286-14.476t14.476-34.286z" />
<glyph unicode="&#xe649;" glyph-name="libre-credit-card-stripe" d="M681.524 436.19q0-26.285-8-40.381-7.241-13.333-19.809-13.333-8.762 0-15.619 3.43v85.334q11.047 11.429 21.714 11.429 21.715 0 21.715-46.476zM848.381 449.904h-41.905q2.282 37.334 21.334 37.334 19.428 0 20.571-37.334zM254.476 398.476q0 22.476-12.572 34.857t-38.476 21.905q-13.714 4.952-19.809 9.143-6.093 4.191-6.093 9.524 0 9.904 14.476 9.904 22.095 0 47.238-12.571l6.853 42.666q-25.523 12.191-56.762 12.191-29.333 0-46.857-14.476-18.286-14.857-18.286-41.524 0-22.095 12.381-34.476t37.905-21.524q14.857-5.332 20.762-9.714 5.903-4.381 5.903-10.476 0-11.81-18.286-11.81-11.047 0-26.666 4.762t-27.429 11.619l-6.857-43.048q27.429-15.619 64-15.619 30.857 0 49.142 14.095 19.429 15.619 19.429 44.572zM366.857 480.381l7.241 42.285h-36.571v51.429l-49.142-8-6.853-43.429-17.524-3.050-6.473-39.238h23.619v-83.429q0-32 16.762-45.714 14.476-11.429 42.285-11.429 12.191 0 30.095 4.191v44.952q-12.191-2.67-16.762-2.67-16 0-16 19.048v75.047h29.333zM487.238 470.857v52.953q-5.712 1.141-10.667 1.141-12.19 0-21.143-6.093t-12.762-17.524l-3.809 21.332h-49.905v-179.428h57.143v116.571q9.905 11.81 31.238 11.81 6.093 0 9.905-0.761zM501.334 343.238h57.143v179.428h-57.143v-179.428zM738.286 438.095q0 46.476-17.143 68.191-15.238 19.809-42.285 19.809-24.381 0-44.571-21.334l-3.050 17.905h-50.286v-245.714l57.143 9.524v57.524q13.714-4.191 25.904-4.191 31.62 0 51.048 21.334 23.238 24.762 23.238 76.952zM560 570.666q0 12.572-8.762 21.334t-21.334 8.762-21.334-8.762-8.762-21.334 8.762-21.524 21.334-8.952 21.334 8.952 8.762 21.524zM902.095 434.667q0 43.047-18.286 67.047-19.047 24.381-54.857 24.381-36.571 0-57.714-25.143t-21.143-68.571q0-48.762 24-71.619 20.953-20.953 61.333-20.953 38.477 0 60.953 15.239l-6.093 39.238q-21.714-11.81-48.761-11.81-16.381 0-24 7.241-8.762 7.241-10.666 25.143h94.476q0.761 5.332 0.761 19.81zM950.857 682.666v-487.619q0-19.81-14.476-34.286t-34.286-14.476h-780.19q-19.81 0-34.286 14.476t-14.476 34.286v487.619q0 19.81 14.476 34.286t34.286 14.476h780.19q19.81 0 34.286-14.476t14.476-34.286z" />
<glyph unicode="&#xe64a;" glyph-name="libre-credit-card-visa" d="M825.524 403.048h-52.571q5.332 14.095 25.143 68.19l1.141 3.43q1.521 3.811 3.811 9.905 2.282 6.093 3.43 9.905l4.571-20.953zM275.429 427.81l-22.096 112.381q-4.191 20.571-28.571 20.571h-102.096l-0.762-4.952q118.476-30.095 153.524-128zM343.619 560.762l-61.714-166.857-6.473 33.905q-9.905 26.666-32.381 49.333t-49.905 33.714l51.428-194.286h66.667l99.428 244.19h-67.047zM396.572 316.191h63.238l39.619 244.571h-63.238zM689.143 554.666q-26.286 10.286-56.763 10.286-46.857 0-76.571-22.476t-30.095-58.286q-0.366-38.857 55.238-66.286 18.286-8.762 25.524-15.619 7.241-6.853 7.241-14.858 0-11.428-11.428-17.524-11.429-6.093-26.286-6.093-32.762 0-59.429 12.571l-8.381 4.191-8.763-54.857q28.191-12.952 70.477-12.952 49.524-0.366 79.428 22.476 29.905 22.857 30.667 60.953 0 40.381-53.334 66.286-18.667 9.523-27.047 16-8.381 6.473-8.381 14.476 0 8.381 9.334 14.667 9.333 6.283 26.857 6.283 26.666 0.366 47.238-9.143l5.712-3.050zM851.048 560.759h-48.762q-24.762 0-33.142-20.571l-93.715-224h66.286l13.333 36.571h80.761q1.902-8.381 7.619-36.571h58.666zM950.857 682.666v-487.619q0-19.81-14.476-34.286t-34.286-14.476h-780.19q-19.81 0-34.286 14.476t-14.476 34.286v487.619q0 19.81 14.476 34.286t34.286 14.476h780.19q19.81 0 34.286-14.476t14.476-34.286z" />
<glyph unicode="&#xe64b;" glyph-name="libre-crop" d="M804.573 219.428v486.143l109.714 109.714-25.861 25.858-109.714-109.714h-486.141v146.284h-73.142v-146.286h-146.286v-73.142h146.286v-512.001h511.999v-146.284h73.144v146.284h146.284v73.144h-146.284zM705.572 658.286l-413.001-413.001v413.001h413.001zM318.43 219.428l412.999 413.001v-413.001h-412.999z" />
<glyph unicode="&#xe64c;" glyph-name="libre-crosshairs" d="M757.143 365.714h-62.286q-14.857 0-25.714 10.857t-10.857 25.714v73.143q0 14.857 10.857 25.714t25.714 10.857h62.286q-18.286 61.714-64.285 107.714t-107.715 64.286v-62.286q0-14.857-10.857-25.714t-25.714-10.857h-73.143q-14.857 0-25.714 10.857t-10.857 25.714v62.286q-61.714-18.286-107.715-64.286t-64.285-107.714h62.286q14.858 0 25.714-10.857t10.857-25.714v-73.143q0-14.857-10.857-25.714t-25.714-10.857h-62.286q18.286-61.714 64.285-107.714t107.715-64.286v62.286q0 14.857 10.857 25.714t25.714 10.857h73.143q14.857 0 25.714-10.857t10.857-25.714v-62.286q61.714 18.286 107.715 64.286t64.285 107.714zM950.857 475.428v-73.143q0-14.857-10.857-25.714t-25.714-10.857h-81.714q-21.143-92-88.286-159.143t-159.143-88.286v-81.714q0-14.857-10.857-25.714t-25.714-10.857h-73.143q-14.857 0-25.714 10.857t-10.857 25.714v81.714q-92 21.143-159.143 88.286t-88.286 159.143h-81.714q-14.857 0-25.714 10.857t-10.857 25.714v73.143q0 14.857 10.857 25.714t25.714 10.857h81.714q21.143 92 88.286 159.143t159.143 88.286v81.714q0 14.857 10.857 25.714t25.714 10.857h73.143q14.857 0 25.714-10.857t10.857-25.714v-81.714q92-21.143 159.143-88.286t88.286-159.143h81.714q14.858 0 25.714-10.857t10.857-25.714z" />
<glyph unicode="&#xe64d;" glyph-name="libre-css3" d="M203.708 836.013h747.149l-132.054-661.761-399.141-132.551-346.519 132.551 35.248 176.734h147.444l-14.397-72.978 209.5-79.928 241.272 79.928 33.758 168.294h-599.705l28.794 147.444h600.202l18.865 94.821h-599.705z" />
<glyph unicode="&#xe64e;" glyph-name="libre-cut" d="M743.392 0.002c-46.642 0.001-104.89 28.471-129.958 92.061-3.487 8.297-7.322 18.367-11.758 30.016-14.203 37.284-35.667 93.627-58.101 116.966-8.211 8.544-14.563 14.741-19.668 19.721-4.582 4.469-8.436 8.231-11.907 12.033-3.471-3.803-7.325-7.563-11.911-12.038-5.102-4.981-11.451-11.175-19.659-19.714-22.433-23.341-43.899-79.694-58.106-116.981-4.433-11.641-8.268-21.704-11.753-29.998-25.071-63.592-83.318-92.064-129.957-92.064-9.091 0-17.379 1.104-24.639 3.284-45.895 13.793-73.735 65.039-69.276 127.519l0.636 7.212c5.635 50.407 36.341 100.214 86.46 140.239 43.447 34.694 94.817 56.249 134.064 56.249 7.766 0 14.935-0.848 21.461-2.523l26.933 55.216c-27.682 69.281-67.118 172.755-97.925 263.393-17.169 50.508-29.911 91.875-37.875 122.95-12.603 49.185-11.799 65.817-6.713 75.655l14.746 28.521 183.519-376.226 183.507 376.224 14.746-28.518c5.086-9.838 5.894-26.47-6.712-75.655-7.965-31.073-20.707-72.441-37.874-122.949-30.806-90.631-70.241-194.107-97.925-263.393l26.933-55.215c6.524 1.675 13.692 2.523 21.459 2.523 39.249 0 90.619-21.556 134.067-56.253 42.849-34.221 71.508-75.595 82.44-118.375l2.021 0.965 2.632-30.038c4.462-62.477-23.374-113.723-69.264-127.519-7.26-2.18-15.55-3.291-24.639-3.291-0.003-0.001-0.005-0.001-0.005-0.001zM667.727 121.805c32.462-58.891 61.464-67.699 75.879-67.699 19.623 0 34.317 15.837 37.185 31.147 1.881 10.064 2.221 20.424 1.014 30.79-4.863 41.41-33.151 76.967-56.019 99.504-31.43 30.969-66.667 51.535-89.289 60.515-2.251 0.783-3.636 0.9-4.267 0.9-0.439 0-0.607-0.053-0.607-0.053-6.588-4.279-14.465-54.034 36.105-155.105zM387.080 276.062c-22.483-8.983-57.506-29.548-88.738-60.516-22.731-22.535-50.839-58.094-55.671-99.517-1.207-10.337-0.867-20.69 1.009-30.777 2.847-15.308 17.45-31.146 36.953-31.146 14.325 0 43.149 8.809 75.413 67.697 50.249 101.037 42.453 150.761 35.834 155.131 0-0.001-0.002-0.001-0.007-0.001-0.034 0-0.212 0.031-0.549 0.031-0.629 0.002-2.003-0.146-4.244-0.9z" />
<glyph unicode="&#xe64f;" glyph-name="libre-dashboard" d="M797.291 622.202c-76.699 65.78-176.236 105.791-285.349 105.791-242.334 0-438.796-196.462-438.796-438.919 0-6.495 0.636-67.172 0.928-73.645v-65.707h875.003v60.919l0.827 4.791c0.293 6.495 0.951 67.148 0.951 73.645 0.025 215.148-153.569 333.128-153.569 333.128zM179.889 215.429c-0.366 4.008 0.146 62.263-0.146 66.269h90.011v29.067h-83.685c0 0.366-6.327 0-6.327 0 3.54 75.356 32.243 150.54 86.445 209.823l2.275 2.443 4.052-3.518 59.894-59.942 18.808 18.857-63.631 63.582c57.598 52.664 130.681 82.879 208.65 86.348l4.52 0.024c0 0 1.88 0 1.763-1.126v-88.765h23.962v89.865c11.822-0.512 23.645-1.88 35.296-3.716 66.953-8.842 129.191-37.739 179.583-83.783l-63.508-63.557 17.66-17.733 60.992 61.017 3.372 2.714 2.882-3.811c52.736-57.646 82.903-130.681 86.445-208.674h-89.914v-29.068h90.329c0 0 0.073-62.556-0.219-66.171l-669.504-0.219zM630.068 425.154c0 0-142.748-43.772-170.081-71.057-27.382-27.407-27.382-71.692 0.049-99.098 27.284-27.382 71.618-27.382 99.024 0 27.309 27.406 71.008 170.154 71.008 170.154z" />
<glyph unicode="&#xe650;" glyph-name="libre-database" d="M512 501.551q116.081 0 216.98 21.061t159.183 62.204v-83.265q0-33.796-50.449-62.694t-137.143-45.796-188.571-16.898-188.572 16.898-137.143 45.796-50.449 62.694v83.265q58.285-41.143 159.184-62.204t216.98-21.061zM512 125.388q116.081 0 216.98 21.061t159.183 62.204v-83.265q0-33.796-50.449-62.694t-137.143-45.796-188.571-16.898-188.572 16.898-137.143 45.796-50.449 62.694v83.265q58.285-41.143 159.184-62.204t216.98-21.061zM512 313.469q116.081 0 216.98 21.061t159.183 62.204v-83.265q0-33.796-50.449-62.694t-137.143-45.796-188.571-16.898-188.572 16.898-137.143 45.796-50.449 62.694v83.265q58.285-41.143 159.184-62.204t216.98-21.061zM512 877.714q101.877 0 188.571-16.898t137.143-45.796 50.449-62.694v-62.694q0-33.796-50.449-62.694t-137.143-45.796-188.571-16.898-188.572 16.898-137.143 45.796-50.449 62.694v62.694q0 33.796 50.449 62.694t137.143 45.796 188.572 16.898z" />
<glyph unicode="&#xe651;" glyph-name="libre-desktop" d="M892.343 365.714v380.343q0 5.939-4.345 10.286-4.345 4.345-10.285 4.345h-731.429q-5.943 0-10.286-4.345t-4.343-10.286v-380.343q0-5.939 4.343-10.286 4.343-4.345 10.286-4.345h731.429q5.939 0 10.285 4.345t4.345 10.286zM950.857 746.057v-497.371q0-30.171-21.486-51.657t-51.657-21.486h-248.686q0-16.914 7.314-35.428t14.629-32.458q7.314-13.942 7.314-19.885 0-11.886-8.686-20.571t-20.571-8.686h-234.057q-11.886 0-20.571 8.686t-8.686 20.571q0 6.4 7.314 20.114t14.629 32 7.314 35.657h-248.686q-30.171 0-51.657 21.486t-21.486 51.657v497.371q0 30.171 21.486 51.657t51.657 21.486h731.429q30.171 0 51.657-21.486t21.486-51.657z" />
<glyph unicode="&#xe652;" glyph-name="libre-display-layout-blocks" d="M73.143 493.779h384.023v383.935h-384.023v-383.935zM566.834 877.714v-383.935h384.023v383.935h-384.023zM566.834 0h384.023v383.968h-384.023v-383.968zM73.143 0h384.023v383.968h-384.023v-383.968z" />
<glyph unicode="&#xe653;" glyph-name="libre-display-layout-list" d="M73.143 827.245h877.714v-196.356h-877.714zM73.143 532.741h877.714v-196.234h-877.714zM73.143 246.764h877.714v-196.295h-877.714z" />
<glyph unicode="&#xe654;" glyph-name="libre-display-table" d="M343.209 151.912v101.274q0 7.385-4.747 12.132t-12.131 4.747h-168.791q-7.385 0-12.132-4.747t-4.747-12.132v-101.274q0-7.385 4.747-12.132t12.132-4.747h168.791q7.385 0 12.131 4.747t4.747 12.132zM343.209 354.461v101.274q0 7.385-4.747 12.132t-12.131 4.747h-168.791q-7.385 0-12.132-4.747t-4.747-12.132v-101.274q0-7.385 4.747-12.132t12.132-4.747h168.791q7.385 0 12.131 4.747t4.747 12.132zM613.275 151.912v101.274q0 7.385-4.747 12.132t-12.131 4.747h-168.792q-7.385 0-12.131-4.747t-4.747-12.132v-101.274q0-7.385 4.747-12.132t12.131-4.747h168.792q7.385 0 12.131 4.747t4.747 12.132zM343.209 557.011v101.274q0 7.385-4.747 12.132t-12.131 4.747h-168.791q-7.385 0-12.132-4.747t-4.747-12.132v-101.274q0-7.385 4.747-12.132t12.132-4.747h168.791q7.385 0 12.131 4.747t4.747 12.132zM613.275 354.461v101.274q0 7.385-4.747 12.132t-12.131 4.747h-168.792q-7.385 0-12.131-4.747t-4.747-12.132v-101.274q0-7.385 4.747-12.132t12.131-4.747h168.792q7.385 0 12.131 4.747t4.747 12.132zM883.34 151.912v101.274q0 7.385-4.747 12.132t-12.132 4.747h-168.791q-7.385 0-12.131-4.747t-4.747-12.132v-101.274q0-7.385 4.747-12.132t12.131-4.747h168.791q7.385 0 12.132 4.747t4.747 12.132zM613.275 557.011v101.274q0 7.385-4.747 12.132t-12.131 4.747h-168.792q-7.385 0-12.131-4.747t-4.747-12.132v-101.274q0-7.385 4.747-12.132t12.131-4.747h168.792q7.385 0 12.131 4.747t4.747 12.132zM883.34 354.461v101.274q0 7.385-4.747 12.132t-12.132 4.747h-168.791q-7.385 0-12.131-4.747t-4.747-12.132v-101.274q0-7.385 4.747-12.132t12.131-4.747h168.791q7.385 0 12.132 4.747t4.747 12.132zM883.34 557.011v101.274q0 7.385-4.747 12.132t-12.132 4.747h-168.791q-7.385 0-12.131-4.747t-4.747-12.132v-101.274q0-7.385 4.747-12.132t12.131-4.747h168.791q7.385 0 12.132 4.747t4.747 12.132zM950.857 725.802v-573.89q0-34.814-24.791-59.605t-59.605-24.791h-708.923q-34.813 0-59.605 24.791t-24.791 59.605v573.89q0 34.813 24.791 59.604t59.605 24.792h708.923q34.814 0 59.605-24.792t24.791-59.604z" />
<glyph unicode="&#xe655;" glyph-name="libre-display-timeline" d="M903.413 94.888h-545.606c-22.536 0-94.888 83.027-94.888 83.027s72.352 83.027 94.888 83.027h545.606c26.094 0 47.444-21.35 47.444-47.444v-71.166c0-26.094-21.35-47.444-47.444-47.444zM903.413 355.83h-545.606c-22.536 0-94.888 83.027-94.888 83.027s72.352 83.027 94.888 83.027h545.606c26.094 0 47.444-21.35 47.444-47.444v-71.166c0-26.094-21.35-47.444-47.444-47.444zM903.413 616.773h-545.606c-22.536 0-94.888 83.027-94.888 83.027s72.352 83.027 94.888 83.027h545.606c26.094 0 47.444-21.35 47.444-47.443v-71.166c0-26.094-21.35-47.444-47.444-47.444zM132.448 118.611c-33.211 0-59.305 26.093-59.305 59.305s26.094 59.305 59.305 59.305 59.305-26.094 59.305-59.305c0-33.212-26.094-59.305-59.305-59.305zM144.309 357.016v-97.26c-3.562 0-8.302 1.185-11.861 1.185-3.562 0-8.302-1.185-11.861-1.185v97.26c3.562 0 8.302-1.185 11.861-1.185 3.562 0 8.302 1.185 11.861 1.185zM132.448 379.552c-33.211 0-59.305 26.094-59.305 59.305s26.094 59.306 59.305 59.306c33.211 0 59.305-26.095 59.305-59.306s-26.094-59.305-59.305-59.305zM144.309 617.958v-97.26c-3.562 0-8.302 1.185-11.861 1.185-3.562 0-8.302-1.185-11.861-1.185v97.26c3.562 0 8.302-1.185 11.861-1.185 3.562 0 8.302 1.185 11.861 1.185zM132.448 640.494c-33.211 0-59.305 26.094-59.305 59.305s26.094 59.305 59.305 59.305c33.211 0 59.305-26.094 59.305-59.305s-26.094-59.305-59.305-59.305zM120.587 781.64v60.491c0 7.117 4.747 11.861 11.861 11.861 7.117 0 11.861-4.747 11.861-11.861v-60.491c-3.562 0-8.302 1.185-11.861 1.185-3.562 0-8.302-1.185-11.861-1.185zM144.309 96.074v-60.491c0-7.117-4.747-11.861-11.861-11.861-7.117 0-11.861 4.747-11.861 11.861v60.491c3.562 0 8.302-1.185 11.861-1.185 3.562 0 8.302 1.185 11.861 1.185z" />
</font>
</defs>
</svg>
