<svg xmlns="http://www.w3.org/2000/svg" viewBox="0 0 14 14" id="libre-brand-darktable.svg"><g transform="matrix(0.02608223,0,0,0.02571563,0.3229491,0.41679881)"><path d="m 303.20313,32.6687 -55.46875,157.90625 218.4375,-36.75 C 433.81752,91.69016 374.21313,46.03153 303.20313,32.6687 Z"/><path d="m 473.01214,185.21346 -164.4852,30.91578 141.04518,170.79742 c 37.63313,-59.08709 47.37247,-133.53532 23.44002,-201.7132 z"/><path d="M 425.80901,408.54475 316.79256,281.55428 239.40024,489.1017 c 69.98749,3.0477 139.33122,-25.7419 186.40877,-80.55695 z"/><path d="M 208.79687,479.33129 264.26562,321.42504 45.828123,358.17503 c 32.354359,62.1348 91.958747,107.79343 162.968747,121.15626 z"/><path d="M 38.987861,326.78653 203.47306,295.87075 62.427886,125.07333 C 24.794751,184.16042 15.055411,258.60865 38.987861,326.78653 Z"/><path d="M 86.190993,103.45524 195.20744,230.44571 272.59976,22.898294 C 202.61227,19.850588 133.26854,48.640187 86.190993,103.45524 Z"/><circle r="32" cy="256" cx="256"/></g></svg>