<svg xmlns="http://www.w3.org/2000/svg" id="libre-paragraph" viewBox="0 0 14 14"><path d="m 11.89844,1.476562 v 0.570313 q 0,0.226562 -0.14454,0.476563 -0.14453,0.249999 -0.33203,0.249999 -0.39062,0 -0.42187,0.0078 -0.20313,0.04687 -0.25,0.242187 -0.0234,0.08594 -0.0234,0.5 v 9 q 0,0.195313 -0.14063,0.335938 Q 10.44531,13 10.25,13 H 9.40625 Q 9.21093,13 9.07031,12.859375 8.92969,12.71875 8.92969,12.523437 V 3.007813 H 7.8125 v 9.515624 q 0,0.195313 -0.13672,0.335938 Q 7.53906,13 7.33593,13 H 6.49218 Q 6.28906,13 6.15234,12.859375 6.01562,12.71875 6.01562,12.523437 v -3.875 Q 4.86719,8.554687 4.10156,8.1875 3.11718,7.734375 2.60156,6.789063 2.10156,5.875 2.10156,4.765625 2.10156,3.46875 2.78906,2.53125 3.47656,1.609375 4.42187,1.289062 5.28906,1 7.67968,1 h 3.74219 q 0.19532,0 0.33594,0.140625 0.14063,0.140625 0.14063,0.335937 z"/></svg>