<svg xmlns="http://www.w3.org/2000/svg" viewBox="0 0 14 14" id="libre-aria-blind.svg"><g transform="matrix(0.02420441,0,0,0.02420441,0.99999139,1.0000003)"><path d="m 194.746,39 c 0,-10.667 -3.833,-19.833 -11.5,-27.5 C 175.579,3.833 166.413,0 155.746,0 c -10.667,0 -19.833,3.833 -27.5,11.5 -7.667,7.668 -11.167,16.835 -10.5,27.5 -0.667,10.667 2.833,19.667 10.5,27 7.667,7.333 16.834,11.333 27.5,12 10.667,-0.667 19.834,-4.667 27.5,-12 7.667,-7.333 11.5,-16.333 11.5,-27 z"/><path d="m 305.746,250 -124,-150 c -3.333,-5.333 -11.833,-8.333 -25.5,-9 -13.667,-0.667 -24.167,2 -31.5,8 l -60,109 14,92 c 8,13.333 18,15.333 30,6 8.667,-6.667 11,-13 7,-19 l -10,-65 26,-53 0,123 -62,164 c -3.333,11.333 -1.333,20.833 6,28.5 7.333,7.666 16,11 26,10 10,-1 16.667,-7.167 20,-18.5 l 71,-184 0,-92 -30,-42 c -2,-2 -1.833,-3.833 0.5,-5.5 2.333,-1.667 4.5,-1.5 6.5,0.5 l 102,121 c 5.334,7.333 12,10.333 20,9 8,-1.333 13.334,-5.167 16,-11.5 2.668,-6.333 2,-13.5 -2,-21.5 z"/><path d="m 257.746,458 -60,-151 -25,67 35,104 c 4.667,10.666 12.167,16.5 22.5,17.5 10.334,1 18.667,-2.334 25,-10 6.342,-7.667 7.176,-16.834 2.5,-27.5 z"/><path d="m 418.746,492 1,1 c 2.668,3.333 5.668,3.666 9,1 2.668,-2.667 3,-5.667 1,-9 l -114,-199 c -3.332,-3.333 -6.666,-3.667 -10,-1 -2.666,2.667 -3,5.667 -1,9 l 114,198 z"/></g></svg>