<svg xmlns="http://www.w3.org/2000/svg" id="libre-subscript" viewBox="0 0 14 14"><path d="m 9.418205,7.1418 c 0.41542,-0.3785 0.87699,-0.5539 1.27394,-0.5539 0.65543,0 0.99699,0.2862 0.99699,0.8954 0,0.4893 -0.35079,1.0155 -1.01546,1.6986 l -1.63396,1.6617 0,0.9508 3.88643,0 0,-1.0339 -2.42786,0 1.10777,-1.0432 c 0.87698,-0.8216 1.39394,-1.5508 1.39394,-2.4001 0,-0.9416 -0.63697,-1.7632 -2.07707,-1.7632 -0.59081,0 -1.0893,0.1569 -1.56011,0.4892 l 0.0554,1.0986 m -4.26034,-1.1484 2.39459,-3.7878 -1.66533,0 -1.57825,2.7211 -1.41498,-2.7211 -1.71975,0 2.20955,3.6899 -2.3837,3.7987 1.64356,0 1.55648,-2.7103 1.51294,2.7103 1.74152,0 -2.29663,-3.7008"/></svg>