<svg xmlns="http://www.w3.org/2000/svg" width="14" height="14" viewBox="0 0 14 14"><path d="M 3.25 1 C 2.63021 1 2.096354 1.216146 1.65625 1.65625 C 1.216146 2.096355 1 2.630208 1 3.25 L 1 10.75 C 1 11.369792 1.216146 11.903645 1.65625 12.34375 C 2.096354 12.783854 2.63021 13 3.25 13 L 10.75 13 C 11.36979 13 11.90365 12.783854 12.34375 12.34375 C 12.78386 11.903645 13 11.369792 13 10.75 L 13 3.25 C 13 2.630208 12.78386 2.096355 12.34375 1.65625 C 11.90365 1.216146 11.36979 1 10.75 1 L 3.25 1 z M 3.15625 2.125 C 3.3823413 2.1834719 3.5863437 2.21875 3.78125 2.21875 C 3.9488694 2.21875 4.1724274 2.1834719 4.4375 2.125 C 4.683082 2.5576921 4.9439321 3.006822 5.21875 3.46875 C 5.4935679 3.9306781 5.8113308 4.477846 6.1875 5.09375 C 6.5636692 5.709654 6.8362787 6.1372793 7 6.40625 C 7.1442307 6.1684643 7.3423858 5.8291318 7.625 5.375 C 7.9076142 4.9208682 8.1370843 4.5677623 8.3125 4.28125 C 8.4879157 3.9947377 8.7036124 3.6495581 8.9375 3.25 C 9.1713876 2.850442 9.379288 2.464137 9.5625 2.125 C 9.7729988 2.1795738 9.9808993 2.21875 10.1875 2.21875 C 10.405795 2.21875 10.617659 2.1795738 10.84375 2.125 C 10.734602 2.2770269 10.62474 2.4632927 10.5 2.65625 C 10.37526 2.8492073 10.286967 3.0119543 10.21875 3.125 C 10.150533 3.2380457 10.027027 3.4263255 9.875 3.6875 C 9.7229731 3.9486746 9.6327313 4.0899818 9.59375 4.15625 C 9.0246235 5.1229854 8.3381622 6.3076281 7.53125 7.71875 L 7.59375 11.875 C 7.3520661 11.832121 7.1676194 11.8125 7 11.8125 C 6.8401768 11.8125 6.6244801 11.832121 6.375 11.875 L 6.46875 7.71875 C 6.3128249 7.4497793 5.9696593 6.8829257 5.46875 6 C 4.9678407 5.1170743 4.5617852 4.3894227 4.21875 3.8125 C 3.8757149 3.2355772 3.5187758 2.6668396 3.15625 2.125 z "/></svg>