<?xml version="1.0" encoding="UTF-8" standalone="no"?>
<svg
   xmlns:dc="http://purl.org/dc/elements/1.1/"
   xmlns:cc="http://creativecommons.org/ns#"
   xmlns:rdf="http://www.w3.org/1999/02/22-rdf-syntax-ns#"
   xmlns:svg="http://www.w3.org/2000/svg"
   xmlns="http://www.w3.org/2000/svg"
   xmlns:sodipodi="http://sodipodi.sourceforge.net/DTD/sodipodi-0.dtd"
   xmlns:inkscape="http://www.inkscape.org/namespaces/inkscape"
   width="14"
   height="14"
   viewBox="0 0 14 14"
   id="svg2"
   version="1.1"
   inkscape:version="0.48.4 r9939"
   sodipodi:docname="libre-superscript.svg">
  <metadata
     id="metadata10">
    <rdf:RDF>
      <cc:Work
         rdf:about="">
        <dc:format>image/svg+xml</dc:format>
        <dc:type
           rdf:resource="http://purl.org/dc/dcmitype/StillImage" />
      </cc:Work>
    </rdf:RDF>
  </metadata>
  <defs
     id="defs8" />
  <sodipodi:namedview
     pagecolor="#ffffff"
     bordercolor="#666666"
     borderopacity="1"
     objecttolerance="10"
     gridtolerance="10"
     guidetolerance="10"
     inkscape:pageopacity="0"
     inkscape:pageshadow="2"
     inkscape:window-width="1920"
     inkscape:window-height="1030"
     id="namedview6"
     showgrid="false"
     inkscape:zoom="1.0814295"
     inkscape:cx="917.19692"
     inkscape:cy="1024"
     inkscape:window-x="0"
     inkscape:window-y="0"
     inkscape:window-maximized="1"
     inkscape:current-layer="svg2" />
  <g
     id="g3007"
     transform="matrix(0.00838569,0,0,0.00838569,-1.8076175,-1.1201896)">
    <g
       id="g2995">
      <g
         id="text2987"
         style="font-size:1308.13952637px;font-style:normal;font-variant:normal;font-weight:bold;font-stretch:normal;line-height:125%;letter-spacing:0px;word-spacing:0px;fill:#000000;fill-opacity:1;stroke:none;font-family:Vegur;-inkscape-font-specification:Sans">
        <path
           id="path3002"
           d="m 834.52017,1217.5917 287.79073,-455.23256 -200.14538,0 -189.68023,327.03486 -170.05814,-327.03486 -206.68604,0 265.55232,443.45926 -286.48256,456.5407 197.52907,0 187.06395,-325.7267 181.8314,325.7267 209.30231,0 -276.01743,-444.7674"
           inkscape:connector-curvature="0" />
      </g>
      <g
         id="text2991"
         style="font-size:1109.46740723px;font-style:normal;font-variant:normal;font-weight:bold;font-stretch:normal;line-height:125%;letter-spacing:0px;word-spacing:0px;fill:#000000;fill-opacity:1;stroke:none;font-family:Vegur;-inkscape-font-specification:Sans">
        <path
           id="path3005"
           d="m 1335.3461,465.14703 c 49.926,-45.48812 105.3995,-66.56804 153.1065,-66.56804 78.7722,0 119.8225,34.39356 119.8225,107.61833 0,58.80172 -42.1598,122.0415 -122.0414,204.14201 l -196.3757,199.70413 0,114.27514 467.0858,0 0,-124.26035 -291.79,0 133.1361,-125.36981 c 105.3993,-98.7425 167.5296,-186.39063 167.5296,-288.46153 0,-113.16556 -76.5534,-211.90827 -249.6302,-211.90827 -71.0058,0 -130.9172,18.86098 -187.5,58.80177 l 6.6568,132.02662"
           inkscape:connector-curvature="0" />
      </g>
    </g>
  </g>
</svg>
