<svg xmlns="http://www.w3.org/2000/svg" width="14" height="14" viewBox="0 0 14 14"><g transform="matrix(0.00838569,0,0,0.00838569,-1.8076175,-1.1201896)"><path d="m 834.52017,1217.5917 287.79073,-455.23256 -200.14538,0 -189.68023,327.03486 -170.05814,-327.03486 -206.68604,0 265.55232,443.45926 -286.48256,456.5407 197.52907,0 187.06395,-325.7267 181.8314,325.7267 209.30231,0 -276.01743,-444.7674"/><path d="m 1335.3461,465.14703 c 49.926,-45.48812 105.3995,-66.56804 153.1065,-66.56804 78.7722,0 119.8225,34.39356 119.8225,107.61833 0,58.80172 -42.1598,122.0415 -122.0414,204.14201 l -196.3757,199.70413 0,114.27514 467.0858,0 0,-124.26035 -291.79,0 133.1361,-125.36981 c 105.3993,-98.7425 167.5296,-186.39063 167.5296,-288.46153 0,-113.16556 -76.5534,-211.90827 -249.6302,-211.90827 -71.0058,0 -130.9172,18.86098 -187.5,58.80177 l 6.6568,132.02662"/></g></svg>