<?xml version="1.0" encoding="UTF-8" standalone="no"?>
<svg
   xmlns:dc="http://purl.org/dc/elements/1.1/"
   xmlns:cc="http://creativecommons.org/ns#"
   xmlns:rdf="http://www.w3.org/1999/02/22-rdf-syntax-ns#"
   xmlns:svg="http://www.w3.org/2000/svg"
   xmlns="http://www.w3.org/2000/svg"
   xmlns:sodipodi="http://sodipodi.sourceforge.net/DTD/sodipodi-0.dtd"
   xmlns:inkscape="http://www.inkscape.org/namespaces/inkscape"
   id="libre-camera-portrait"
   viewBox="0 0 14 14"
   version="1.1"
   inkscape:version="0.91 r"
   sodipodi:docname="libre-camera-portrait.svg">
  <metadata
     id="metadata9">
    <rdf:RDF>
      <cc:Work
         rdf:about="">
        <dc:format>image/svg+xml</dc:format>
        <dc:type
           rdf:resource="http://purl.org/dc/dcmitype/StillImage" />
      </cc:Work>
    </rdf:RDF>
  </metadata>
  <defs
     id="defs7" />
  <sodipodi:namedview
     pagecolor="#ffffff"
     bordercolor="#666666"
     borderopacity="1"
     objecttolerance="10"
     gridtolerance="10"
     guidetolerance="10"
     inkscape:pageopacity="0"
     inkscape:pageshadow="2"
     inkscape:window-width="1366"
     inkscape:window-height="716"
     id="namedview5"
     showgrid="false"
     inkscape:zoom="36.545759"
     inkscape:cx="7"
     inkscape:cy="7"
     inkscape:window-x="0"
     inkscape:window-y="0"
     inkscape:window-maximized="1"
     inkscape:current-layer="libre-camera-portrait" />
  <path
     d="m 10.03142,11.29535 c 0.150116,0 0.271801,-0.1217 0.271801,-0.2718 l 0,-0.85556 c 0,-0.46963 -0.14434,-0.93235 -0.4075381,-1.32094 C 9.6001948,8.41078 9.1869354,8.19194 8.7393341,7.95194 8.4510895,7.79738 8.183094,7.57214 8.0534587,7.27828 8.8822061,6.884 9.4551348,6.03902 9.4551348,5.06017 9.4551212,3.70424 8.3559185,2.60505 7,2.60505 c -1.3559185,0 -2.4551212,1.09918 -2.4551212,2.45511 0,0.97885 0.5729151,1.82382 1.4016761,2.21811 C 5.8169196,7.57213 5.5489241,7.79737 5.2606795,7.95193 4.8130646,8.19193 4.3998052,8.41078 4.1043307,8.84704 3.8411325,9.23563 3.6967928,9.69838 3.6967928,10.16797 l 0,0.85556 c 0,0.15011 0.1216851,0.2718 0.2718006,0.2718 l 3.0314066,0 3.03142,0 0,2e-5 z M 8.7299298,13 12.728199,13 C 12.878315,13 13,12.87833 13,12.7282 l 0,-3.99826 c 0,-0.15013 -0.121685,-0.2718 -0.271801,-0.2718 l -0.475651,0 c -0.150115,0 -0.271801,0.12167 -0.271801,0.2718 l 0,2.97901 c 0,0.15013 -0.121685,0.2718 -0.2718,0.2718 l -2.9790172,0 c -0.1501155,0 -0.2718007,0.12167 -0.2718007,0.2718 l 0,0.47565 c 0,0.15013 0.1216852,0.2718 0.2718007,0.2718 z m -7.4581291,0 3.9982559,0 c 0.1501155,0 0.2718007,-0.12167 0.2718007,-0.2718 l 0,-0.47565 c 0,-0.15013 -0.1216852,-0.2718 -0.2718007,-0.2718 l -2.9790034,0 c -0.1501155,0 -0.2718007,-0.12167 -0.2718007,-0.2718 l 0,-2.97901 c 0,-0.15013 -0.1216851,-0.2718 -0.2718006,-0.2718 l -0.4756512,0 C 1.1216852,8.45814 1,8.57981 1,8.72994 L 1,12.7282 C 1,12.87833 1.1216852,13 1.2718007,13 Z M 13,3.6107 13,3.11166 13,1.2718 C 13,1.12169 12.878315,1 12.728199,1 L 11.375991,1 11.13137,1 8.7299434,1 C 8.5798279,1 8.4581427,1.12169 8.4581427,1.2718 l 0,0.47565 c 0,0.15012 0.1216852,0.2718 0.2718007,0.2718 l 2.4014266,0 0.244621,0 0.332956,0 c 0.150115,0 0.2718,0.12169 0.2718,0.2718 l 0,0.82061 0,0.49904 0,1.65938 c 0,0.15012 0.121686,0.2718 0.271801,0.2718 l 0.475651,0 C 12.878315,5.54188 13,5.4202 13,5.27008 L 13,3.6107 Z M 1.2718007,1 C 1.1216852,1 1,1.12169 1,1.2718 l 0,3.99826 c 0,0.15011 0.1216852,0.2718 0.2718007,0.2718 l 0.4756512,0 c 0.1501155,0 0.2718006,-0.12169 0.2718006,-0.2718 l 0,-2.97901 c 0,-0.15011 0.1216852,-0.2718 0.2718007,-0.2718 l 2.979017,0 c 0.1501155,0 0.2718007,-0.12168 0.2718007,-0.2718 l 0,-0.47565 C 5.5418709,1.12169 5.4201857,1 5.2700702,1 L 1.2718007,1 Z"
     id="path3"
     inkscape:connector-curvature="0" />
</svg>
