<?xml version="1.0" encoding="UTF-8" standalone="no"?>
<svg
   xmlns:dc="http://purl.org/dc/elements/1.1/"
   xmlns:cc="http://creativecommons.org/ns#"
   xmlns:rdf="http://www.w3.org/1999/02/22-rdf-syntax-ns#"
   xmlns:svg="http://www.w3.org/2000/svg"
   xmlns="http://www.w3.org/2000/svg"
   xmlns:sodipodi="http://sodipodi.sourceforge.net/DTD/sodipodi-0.dtd"
   xmlns:inkscape="http://www.inkscape.org/namespaces/inkscape"
   width="14"
   height="14"
   viewBox="0 0 14 14"
   id="svg2"
   version="1.1"
   inkscape:version="0.48.4 r9939"
   sodipodi:docname="libre-brand-twitter.svg">
  <metadata
     id="metadata10">
    <rdf:RDF>
      <cc:Work
         rdf:about="">
        <dc:format>image/svg+xml</dc:format>
        <dc:type
           rdf:resource="http://purl.org/dc/dcmitype/StillImage" />
      </cc:Work>
    </rdf:RDF>
  </metadata>
  <defs
     id="defs8" />
  <sodipodi:namedview
     pagecolor="#ffffff"
     bordercolor="#666666"
     borderopacity="1"
     objecttolerance="10"
     gridtolerance="10"
     guidetolerance="10"
     inkscape:pageopacity="0"
     inkscape:pageshadow="2"
     inkscape:window-width="1920"
     inkscape:window-height="1030"
     id="namedview6"
     showgrid="false"
     inkscape:zoom="1.1153661"
     inkscape:cx="640.0161"
     inkscape:cy="1024"
     inkscape:window-x="0"
     inkscape:window-y="0"
     inkscape:window-maximized="1"
     inkscape:current-layer="svg2" />
  <path
     d="M 11,4.765625 Q 10.5625,4.960937 10.05469,5.03125 10.58594,4.71875 10.78125,4.117187 10.27344,4.414062 9.73438,4.515625 9.25781,4 8.53906,4 7.85938,4 7.37891,4.480469 6.89844,4.960937 6.89844,5.640625 q 0,0.226563 0.0391,0.375 Q 5.92973,5.960935 5.04692,5.507812 4.1641,5.054688 3.54692,4.296875 3.32035,4.6875 3.32035,5.125 q 0,0.890625 0.71094,1.367187 Q 3.6641,6.484387 3.25004,6.289062 v 0.01563 q 0,0.585937 0.39062,1.042968 0.39063,0.457032 0.96094,0.566407 -0.22656,0.0625 -0.39844,0.0625 -0.10156,0 -0.30468,-0.03125 0.16406,0.492187 0.58203,0.8125 0.41797,0.320312 0.94922,0.328124 -0.90625,0.703126 -2.03906,0.703126 -0.20313,0 -0.39063,-0.02344 1.15625,0.734375 2.51562,0.734375 0.87501,0 1.64063,-0.277344 Q 7.92192,9.945314 8.46879,9.480471 9.01567,9.015627 9.4102,8.410158 9.80473,7.80469 9.99613,7.144533 q 0.19141,-0.660156 0.19141,-1.316406 0,-0.140625 -0.008,-0.210938 0.49218,-0.351562 0.82031,-0.851562 z M 13,3.25 v 7.5 q 0,0.929687 -0.66016,1.589844 Q 11.67969,13 10.75,13 H 3.25 Q 2.32031,13 1.660156,12.339844 1,11.679687 1,10.75 V 3.25 Q 1,2.320313 1.660156,1.660156 2.32031,1 3.25,1 h 7.5 Q 11.67969,1 12.33984,1.660156 13,2.320313 13,3.25 z"
     id="path4"
     inkscape:connector-curvature="0" />
</svg>
