<?xml version="1.0" encoding="UTF-8" standalone="no"?>
<!-- Generator: Adobe Illustrator 16.0.4, SVG Export Plug-In . SVG Version: 6.00 Build 0)  -->

<svg
   xmlns:dc="http://purl.org/dc/elements/1.1/"
   xmlns:cc="http://creativecommons.org/ns#"
   xmlns:rdf="http://www.w3.org/1999/02/22-rdf-syntax-ns#"
   xmlns:svg="http://www.w3.org/2000/svg"
   xmlns="http://www.w3.org/2000/svg"
   xmlns:sodipodi="http://sodipodi.sourceforge.net/DTD/sodipodi-0.dtd"
   xmlns:inkscape="http://www.inkscape.org/namespaces/inkscape"
   version="1.1"
   id="Capa_1"
   x="0px"
   y="0px"
   width="14"
   height="14"
   viewBox="0 0 14 14"
   enable-background="new 0 0 216 146"
   xml:space="preserve"
   inkscape:version="0.48.4 r9939"
   sodipodi:docname="libre-resize-full.svg"><metadata
     id="metadata13"><rdf:RDF><cc:Work
         rdf:about=""><dc:format>image/svg+xml</dc:format><dc:type
           rdf:resource="http://purl.org/dc/dcmitype/StillImage" /></cc:Work></rdf:RDF></metadata><defs
     id="defs11" /><sodipodi:namedview
     pagecolor="#ffffff"
     bordercolor="#666666"
     borderopacity="1"
     objecttolerance="10"
     gridtolerance="10"
     guidetolerance="10"
     inkscape:pageopacity="0"
     inkscape:pageshadow="2"
     inkscape:window-width="1920"
     inkscape:window-height="1030"
     id="namedview9"
     showgrid="false"
     inkscape:zoom="0.47405129"
     inkscape:cx="2090.7482"
     inkscape:cy="1998.0161"
     inkscape:window-x="0"
     inkscape:window-y="0"
     inkscape:window-maximized="1"
     inkscape:current-layer="Capa_1" /><g
     id="g3"
     transform="matrix(0.09589183,0,0,0.09589183,-3.3562218,-1.5153591e-4)"><path
       d="m 96.839,74.873 c -0.543,-0.543 -1.168,-0.814 -1.874,-0.814 -0.706,0 -1.331,0.271 -1.874,0.814 L 66.042,101.922 54.31,90.189 c -1.032,-1.03 -2.253,-1.547 -3.666,-1.547 -1.413,0 -2.635,0.517 -3.667,1.547 -1.032,1.033 -1.548,2.256 -1.548,3.668 v 36.5 c 0,1.412 0.516,2.634 1.548,3.666 1.033,1.031 2.255,1.548 3.667,1.548 h 36.5 c 1.412,0 2.634,-0.517 3.666,-1.548 1.032,-1.032 1.548,-2.254 1.548,-3.666 0,-1.412 -0.516,-2.635 -1.548,-3.668 l -11.732,-11.73 27.049,-27.05 c 0.543,-0.543 0.814,-1.167 0.814,-1.874 0,-0.706 -0.272,-1.33 -0.814,-1.874 l -9.288,-9.288 z"
       id="path5"
       inkscape:connector-curvature="0" /><path
       d="m 169.023,11.978 c -1.031,-1.032 -2.254,-1.548 -3.666,-1.548 h -36.5 c -1.412,0 -2.633,0.516 -3.666,1.548 -1.031,1.032 -1.547,2.254 -1.547,3.666 0,1.412 0.516,2.635 1.547,3.666 l 11.731,11.732 -27.049,27.049 c -0.543,0.544 -0.815,1.168 -0.815,1.874 0,0.706 0.272,1.331 0.815,1.874 l 9.288,9.288 c 0.543,0.543 1.167,0.814 1.874,0.814 0.706,0 1.33,-0.271 1.873,-0.814 l 27.05,-27.049 11.73,11.731 c 1.033,1.032 2.256,1.549 3.668,1.549 1.412,0 2.634,-0.517 3.666,-1.549 1.031,-1.031 1.547,-2.254 1.547,-3.666 v -36.5 c 0.001,-1.413 -0.512,-2.633 -1.546,-3.665 z"
       id="path7"
       inkscape:connector-curvature="0" /></g></svg>