<svg xmlns="http://www.w3.org/2000/svg" id="libre-seo" viewBox="0 0 14 14"><g transform="matrix(0.02912628,0,0,0.02912628,-0.45629855,-0.45633496)"><path d="m 338.742,99.489 c -65.959,-65.976 -173.293,-65.976 -239.262,0 -65.974,65.959 -65.974,173.298 0,239.262 63.706,63.705 165.986,65.873 232.336,6.538 l 13.413,13.418 c -3.34,8.549 -1.589,18.623 5.315,25.528 l 70.777,70.776 c 9.304,9.31 24.396,9.31 33.695,0 9.31,-9.299 9.31,-24.387 0,-33.701 l -70.771,-70.762 c -6.91,-6.915 -16.988,-8.665 -25.538,-5.32 L 345.294,331.81 C 404.64,265.464 402.452,163.184 338.742,99.489 Z M 119.698,318.538 c -54.819,-54.813 -54.819,-144.02 0,-198.839 54.814,-54.819 144.018,-54.819 198.836,0 54.819,54.819 54.819,144.025 0,198.839 -54.818,54.813 -144.022,54.813 -198.836,0 z"/><path d="m 275.076,126.973 c -30.899,-30.899 -80.82,-30.65 -111.725,0.247 -30.899,30.897 -31.111,80.936 -0.211,111.828 l 55.819,55.515 55.94,-55.948 c 30.901,-30.902 31.072,-80.744 0.177,-111.642 z m -55.91,103.198 c -26.288,0 -47.597,-21.312 -47.597,-47.594 0,-26.293 21.309,-47.602 47.597,-47.602 26.293,0 47.603,21.314 47.603,47.602 0,26.278 -21.304,47.594 -47.603,47.594 z"/><path d="m 218.266,310.023 c 19.835,0 38.554,4.315 55.166,11.96 -12.955,-14.515 -32.997,-23.879 -55.558,-23.879 -22.878,0 -43.166,9.636 -56.086,24.502 16.943,-8.026 36.13,-12.583 56.478,-12.583 z"/></g></svg>