<?xml version="1.0" encoding="UTF-8" standalone="no"?>
<!-- Generator: Adobe Illustrator 17.0.0, SVG Export Plug-In . SVG Version: 6.00 Build 0)  -->

<svg
   xmlns:dc="http://purl.org/dc/elements/1.1/"
   xmlns:cc="http://creativecommons.org/ns#"
   xmlns:rdf="http://www.w3.org/1999/02/22-rdf-syntax-ns#"
   xmlns:svg="http://www.w3.org/2000/svg"
   xmlns="http://www.w3.org/2000/svg"
   xmlns:sodipodi="http://sodipodi.sourceforge.net/DTD/sodipodi-0.dtd"
   xmlns:inkscape="http://www.inkscape.org/namespaces/inkscape"
   version="1.1"
   id="Capa_1"
   x="0px"
   y="0px"
   width="14"
   height="14"
   viewBox="0 0 14 14"
   enable-background="new 0 0 52 52"
   xml:space="preserve"
   inkscape:version="0.48.4 r9939"
   sodipodi:docname="libre-browser-chrome.svg"><metadata
     id="metadata17"><rdf:RDF><cc:Work
         rdf:about=""><dc:format>image/svg+xml</dc:format><dc:type
           rdf:resource="http://purl.org/dc/dcmitype/StillImage" /></cc:Work></rdf:RDF></metadata><defs
     id="defs15" /><sodipodi:namedview
     pagecolor="#ffffff"
     bordercolor="#666666"
     borderopacity="1"
     objecttolerance="10"
     gridtolerance="10"
     guidetolerance="10"
     inkscape:pageopacity="0"
     inkscape:pageshadow="2"
     inkscape:window-width="1920"
     inkscape:window-height="1030"
     id="namedview13"
     showgrid="false"
     inkscape:zoom="0.4705761"
     inkscape:cx="236.27788"
     inkscape:cy="932.15467"
     inkscape:window-x="0"
     inkscape:window-y="0"
     inkscape:window-maximized="1"
     inkscape:current-layer="Capa_1" /><g
     id="g3"
     transform="matrix(0.26663892,0,0,0.26746013,0.06753872,-0.15658334)"><path
       d="m 42.834,14.899 c 1.097,-0.127 1.521,-0.997 0.836,-1.864 -6.784,-8.597 -22.524,-13.213 -33.28,-2.41 -0.779,0.783 -0.978,2.286 -0.517,3.29 l 5.339,11.607 c 0.462,1.003 0.735,0.919 0.854,-0.179 0.316,-2.92 2.083,-8.064 10.55,-8.571 l 16.218,-1.873 z"
       id="path5"
       inkscape:connector-curvature="0" /><path
       d="M 8.232,16.155 C 7.667,15.206 6.687,15.167 6.156,16.136 0.894,25.738 2.765,41.713 17.925,47.704 c 1.027,0.406 2.467,-0.01 3.186,-0.848 l 8.371,-9.767 c 0.719,-0.839 0.496,-1.113 -0.567,-0.814 -2.87,0.809 -8.406,1.257 -11.996,-5.525 L 8.232,16.155 z"
       id="path7"
       inkscape:connector-curvature="0" /><path
       d="M 44.675,18.233 31.833,17.744 c -1.104,-0.042 -1.184,0.308 -0.286,0.952 2.707,1.941 7.137,6.687 1.674,14.713 l -7.895,13.998 c -0.543,0.962 -0.087,1.814 1.017,1.783 13.198,-0.369 26.118,-13.289 21.021,-29.005 -0.341,-1.051 -1.585,-1.91 -2.689,-1.952 z"
       id="path9"
       inkscape:connector-curvature="0" /><circle
       cx="25.768999"
       cy="26.658001"
       r="8.4879999"
       id="circle11"
       sodipodi:cx="25.768999"
       sodipodi:cy="26.658001"
       sodipodi:rx="8.4879999"
       sodipodi:ry="8.4879999"
       d="m 34.256999,26.658001 c 0,4.687793 -3.800207,8.488 -8.488,8.488 -4.687793,0 -8.488,-3.800207 -8.488,-8.488 0,-4.687793 3.800207,-8.488 8.488,-8.488 4.687793,0 8.488,3.800207 8.488,8.488 z" /></g></svg>