<?xml version="1.0" encoding="UTF-8" standalone="no"?>
<svg
   xmlns:dc="http://purl.org/dc/elements/1.1/"
   xmlns:cc="http://creativecommons.org/ns#"
   xmlns:rdf="http://www.w3.org/1999/02/22-rdf-syntax-ns#"
   xmlns:svg="http://www.w3.org/2000/svg"
   xmlns="http://www.w3.org/2000/svg"
   xmlns:sodipodi="http://sodipodi.sourceforge.net/DTD/sodipodi-0.dtd"
   xmlns:inkscape="http://www.inkscape.org/namespaces/inkscape"
   width="14"
   height="14"
   viewBox="0 0 14 14"
   id="svg2"
   version="1.1"
   inkscape:version="0.48.4 r9939"
   sodipodi:docname="libre-inbox.svg">
  <metadata
     id="metadata10">
    <rdf:RDF>
      <cc:Work
         rdf:about="">
        <dc:format>image/svg+xml</dc:format>
        <dc:type
           rdf:resource="http://purl.org/dc/dcmitype/StillImage" />
      </cc:Work>
    </rdf:RDF>
  </metadata>
  <defs
     id="defs8" />
  <sodipodi:namedview
     pagecolor="#ffffff"
     bordercolor="#666666"
     borderopacity="1"
     objecttolerance="10"
     gridtolerance="10"
     guidetolerance="10"
     inkscape:pageopacity="0"
     inkscape:pageshadow="2"
     inkscape:window-width="1920"
     inkscape:window-height="1030"
     id="namedview6"
     showgrid="false"
     inkscape:zoom="1.0814295"
     inkscape:cx="627.96623"
     inkscape:cy="1024"
     inkscape:window-x="0"
     inkscape:window-y="0"
     inkscape:window-maximized="1"
     inkscape:current-layer="svg2" />
  <path
     d="m 8.99219,7.5 h 2.46875 Q 11.45294,7.4766 11.44144,7.4375 11.42974,7.3984 11.42194,7.375 L 9.7657,3.5 H 4.23444 L 2.57819,7.375 Q 2.57019,7.3906 2.55869,7.4375 2.54699,7.4844 2.53919,7.5 H 5.00794 L 5.75013,9 h 2.5 z M 13,7.73437 V 11.5 q 0,0.20313 -0.14844,0.35156 Q 12.70313,12 12.5,12 H 1.5 Q 1.296875,12 1.148437,11.85156 1,11.70313 1,11.5 V 7.73437 Q 1,7.25 1.195313,6.77344 L 3.05469,2.46094 Q 3.13279,2.26563 3.33984,2.13281 3.54688,2 3.75,2 h 6.5 q 0.20313,0 0.41016,0.13281 0.20703,0.13282 0.28515,0.32813 l 1.85938,4.3125 Q 13,7.25 13,7.73437 z"
     id="path4"
     inkscape:connector-curvature="0" />
</svg>
