<svg aria-labelledby="gui-question" role="img" focusable="false" aria-hidden="true" xmlns="http://www.w3.org/2000/svg" viewBox="0 0 14 14"><path d="m 5.844605,13 2.43285,0 0,-2.32908 -2.43285,0 0,2.32908 z m -2.9699,-8.13163 2.35152,0 q 0,-0.66885 0.39356,-1.28946 0.39356,-0.6206 1.33549,-0.62055 0.95763,0 1.31897,0.5037 0.36133,0.50371 0.36121,1.1162 0,0.53188 -0.32443,0.97514 -0.17855,0.25799 -0.47053,0.47547 l -0.59235,0.4594 q -0.87607,0.67691 -1.08699,1.19675 -0.21092,0.51985 -0.25961,1.88182 l 2.20505,0 q 0.008,-0.64468 0.10549,-0.95097 0.15415,-0.48356 0.6249,-0.84626 l 0.57601,-0.4432 q 0.87653,-0.677 1.18478,-1.11217 0.52753,-0.71719 0.52752,-1.76496 0,-1.70842 -1.21645,-2.57887 Q 8.692405,0.99996 6.853585,1 5.454015,1 4.493945,1.61253 2.972305,2.57168 2.874705,4.86837 l 0,0 z"/></svg>