<?xml version="1.0" encoding="UTF-8" standalone="no"?>
<svg
   xmlns:dc="http://purl.org/dc/elements/1.1/"
   xmlns:cc="http://creativecommons.org/ns#"
   xmlns:rdf="http://www.w3.org/1999/02/22-rdf-syntax-ns#"
   xmlns:svg="http://www.w3.org/2000/svg"
   xmlns="http://www.w3.org/2000/svg"
   xmlns:sodipodi="http://sodipodi.sourceforge.net/DTD/sodipodi-0.dtd"
   xmlns:inkscape="http://www.inkscape.org/namespaces/inkscape"
   width="14"
   height="14"
   viewBox="0 0 14 14"
   id="svg2"
   version="1.1"
   inkscape:version="0.48.4 r9939"
   sodipodi:docname="libre-order-invoice.svg">
  <metadata
     id="metadata10">
    <rdf:RDF>
      <cc:Work
         rdf:about="">
        <dc:format>image/svg+xml</dc:format>
        <dc:type
           rdf:resource="http://purl.org/dc/dcmitype/StillImage" />
        <dc:title />
      </cc:Work>
    </rdf:RDF>
  </metadata>
  <defs
     id="defs8" />
  <sodipodi:namedview
     pagecolor="#ffffff"
     bordercolor="#666666"
     borderopacity="1"
     objecttolerance="10"
     gridtolerance="10"
     guidetolerance="10"
     inkscape:pageopacity="0"
     inkscape:pageshadow="2"
     inkscape:window-width="1366"
     inkscape:window-height="716"
     id="namedview6"
     showgrid="false"
     inkscape:zoom="40.96"
     inkscape:cx="5.4718571"
     inkscape:cy="7.4435986"
     inkscape:window-x="0"
     inkscape:window-y="0"
     inkscape:window-maximized="1"
     inkscape:current-layer="svg2" />
  <path
     style="font-size:medium;font-style:normal;font-variant:normal;font-weight:normal;font-stretch:normal;text-indent:0;text-align:start;text-decoration:none;line-height:normal;letter-spacing:normal;word-spacing:normal;text-transform:none;direction:ltr;block-progression:tb;writing-mode:lr-tb;text-anchor:start;baseline-shift:baseline;color:#000000;fill:#000000;fill-opacity:1;stroke:none;stroke-width:0.73562104;marker:none;visibility:visible;display:inline;overflow:visible;enable-background:accumulate;font-family:Sans;-inkscape-font-specification:Sans"
     d="M 2.125,1 A 0.3678473,0.3678473 0 0 0 1.84375,1.375 l 0,11.25 A 0.3678473,0.3678473 0 0 0 2.21875,13 l 9.5625,0 a 0.3678473,0.3678473 0 0 0 0.375,-0.375 l 0,-11.25 A 0.3678473,0.3678473 0 0 0 11.78125,1 L 2.21875,1 A 0.3678473,0.3678473 0 0 0 2.125,1 z m 0.46875,0.71875 8.8125,0 0,10.53125 -8.8125,0 0,-10.53125 z"
     id="rect3001"
     inkscape:connector-curvature="0" />
  <path
     style="font-size:medium;font-style:normal;font-variant:normal;font-weight:normal;font-stretch:normal;text-indent:0;text-align:start;text-decoration:none;line-height:normal;letter-spacing:normal;word-spacing:normal;text-transform:none;direction:ltr;block-progression:tb;writing-mode:lr-tb;text-anchor:start;baseline-shift:baseline;color:#000000;fill:#000000;fill-opacity:1;stroke:none;stroke-width:0.20414019;marker:none;visibility:visible;display:inline;overflow:visible;enable-background:accumulate;font-family:Sans;-inkscape-font-specification:Sans"
     d="m 3.0625,4.59375 0,0.125 0,5.03125 0,0.09375 0.125,0 7.65625,0 0.125,0 0,-0.09375 0,-5.03125 0,-0.125 -0.125,0 -7.65625,0 -0.125,0 z m 0.21875,0.21875 7.46875,0 0,4.8125 -7.46875,0 0,-4.8125 z"
     id="rect3787"
     inkscape:connector-curvature="0" />
  <path
     style="font-size:medium;font-style:normal;font-variant:normal;font-weight:normal;font-stretch:normal;text-indent:0;text-align:start;text-decoration:none;line-height:normal;letter-spacing:normal;word-spacing:normal;text-transform:none;direction:ltr;block-progression:tb;writing-mode:lr-tb;text-anchor:start;baseline-shift:baseline;color:#000000;fill:#000000;fill-opacity:1;stroke:none;stroke-width:0.1;marker:none;visibility:visible;display:inline;overflow:visible;enable-background:accumulate;font-family:Sans;-inkscape-font-specification:Sans"
     d="m 5.15625,2.875 -1.9375,0.03125 0,0.09375 1.9375,-0.03125 0,-0.09375 z m 0,0.21875 -1.9375,0.03125 0,0.09375 1.9375,-0.03125 0,-0.09375 z m 0,0.1875 -1.9375,0.03125 0,0.09375 1.9375,-0.03125 0,-0.09375 z m 0,0.1875 -1.9375,0.03125 0,0.09375 1.9375,-0.03125 0,-0.09375 z m 0,0.1875 -1.9375,0.03125 0,0.09375 1.9375,-0.03125 0,-0.09375 z"
     id="path3789-2-8"
     inkscape:connector-curvature="0" />
  <path
     style="font-size:medium;font-style:normal;font-variant:normal;font-weight:normal;font-stretch:normal;text-indent:0;text-align:start;text-decoration:none;line-height:normal;letter-spacing:normal;word-spacing:normal;text-transform:none;direction:ltr;block-progression:tb;writing-mode:lr-tb;text-anchor:start;baseline-shift:baseline;color:#000000;fill:#000000;fill-opacity:1;stroke:none;stroke-width:0.1;marker:none;visibility:visible;display:inline;overflow:visible;enable-background:accumulate;font-family:Sans;-inkscape-font-specification:Sans"
     d="M 8.03125,2.875 6.125,2.90625 6.125,3 8.03125,2.96875 l 0,-0.09375 z m 0,0.21875 L 6.125,3.125 l 0,0.09375 1.90625,-0.03125 0,-0.09375 z m 0,0.1875 -1.90625,0.03125 0,0.09375 1.90625,-0.03125 0,-0.09375 z m 0,0.1875 L 6.125,3.5 l 0,0.09375 1.90625,-0.03125 0,-0.09375 z m 0,0.1875 -1.90625,0.03125 0,0.09375 1.90625,-0.03125 0,-0.09375 z"
     id="path3789-2-8-1"
     inkscape:connector-curvature="0" />
  <path
     style="font-size:medium;font-style:normal;font-variant:normal;font-weight:normal;font-stretch:normal;text-indent:0;text-align:start;text-decoration:none;line-height:normal;letter-spacing:normal;word-spacing:normal;text-transform:none;direction:ltr;block-progression:tb;writing-mode:lr-tb;text-anchor:start;baseline-shift:baseline;color:#000000;fill:#000000;fill-opacity:1;stroke:none;stroke-width:0.1;marker:none;visibility:visible;display:inline;overflow:visible;enable-background:accumulate;font-family:Sans;-inkscape-font-specification:Sans"
     d="m 11.125,1.9375 -1.9375,0.03125 0,0.09375 1.9375,-0.03125 0,-0.09375 z m 0,0.21875 -1.9375,0.03125 0,0.09375 1.9375,-0.03125 0,-0.09375 z m 0,0.1875 -1.9375,0.03125 0,0.09375 1.9375,-0.03125 0,-0.09375 z m 0,0.1875 -1.9375,0.03125 0,0.09375 1.9375,-0.03125 0,-0.09375 z m 0,0.1875 -1.9375,0.03125 0,0.09375 1.9375,-0.03125 0,-0.09375 z"
     id="path3789-2-8-6"
     inkscape:connector-curvature="0" />
  <path
     style="font-size:medium;font-style:normal;font-variant:normal;font-weight:normal;font-stretch:normal;text-indent:0;text-align:start;text-decoration:none;line-height:normal;letter-spacing:normal;word-spacing:normal;text-transform:none;direction:ltr;block-progression:tb;writing-mode:lr-tb;text-anchor:start;baseline-shift:baseline;color:#000000;fill:#000000;fill-opacity:1;stroke:none;stroke-width:0.09040786;marker:none;visibility:visible;display:inline;overflow:visible;enable-background:accumulate;font-family:Sans;-inkscape-font-specification:Sans"
     d="m 10.75,10.03125 -1.90625,0.03125 0,0.09375 1.90625,-0.03125 0,-0.09375 z m 0,0.21875 -1.90625,0.03125 0,0.09375 1.90625,-0.03125 0,-0.09375 z m 0,0.1875 -1.90625,0.03125 0,0.09375 1.90625,0 0,-0.125 z"
     id="path3789-2-8-6-9"
     inkscape:connector-curvature="0" />
  <path
     style="font-size:medium;font-style:normal;font-variant:normal;font-weight:normal;font-stretch:normal;text-indent:0;text-align:start;text-decoration:none;line-height:normal;letter-spacing:normal;word-spacing:normal;text-transform:none;direction:ltr;block-progression:tb;writing-mode:lr-tb;text-anchor:start;baseline-shift:baseline;color:#000000;fill:#000000;fill-opacity:1;stroke:none;stroke-width:0.1;marker:none;visibility:visible;display:inline;overflow:visible;enable-background:accumulate;font-family:Sans;-inkscape-font-specification:Sans"
     d="m 6.25,10.03125 -3.125,0.03125 0,0.09375 3.125,-0.03125 0,-0.09375 z M 3.125,10.25 l 0,0.125 3.125,-0.03125 0,-0.09375 -3.125,0 z m 3.125,0.1875 -3.125,0.03125 0,0.09375 3.125,-0.03125 0,-0.09375 z m 0,0.1875 -3.125,0.03125 0,0.09375 3.125,-0.03125 0,-0.09375 z m 0,0.1875 -3.125,0.03125 0,0.09375 3.125,-0.03125 0,-0.09375 z M 6.25,11 3.125,11.03125 3.125,11.125 6.25,11.09375 6.25,11 z m 0,0.21875 -3.125,0.03125 0,0.09375 3.125,-0.03125 0,-0.09375 z m 0,0.1875 -3.125,0.03125 0,0.09375 L 6.25,11.5 l 0,-0.09375 z m 0,0.1875 -3.125,0.03125 0,0.09375 3.125,-0.03125 0,-0.09375 z m 0,0.1875 -3.125,0.03125 0,0.09375 3.125,-0.03125 0,-0.09375 z"
     id="path3789-2-8-6-9-5-4"
     inkscape:connector-curvature="0" />
  <path
     style="font-size:medium;font-style:normal;font-variant:normal;font-weight:normal;font-stretch:normal;text-indent:0;text-align:start;text-decoration:none;line-height:normal;letter-spacing:normal;word-spacing:normal;text-transform:none;direction:ltr;block-progression:tb;writing-mode:lr-tb;text-anchor:start;baseline-shift:baseline;color:#000000;fill:#000000;fill-opacity:1;stroke:none;stroke-width:0.05;marker:none;visibility:visible;display:inline;overflow:visible;enable-background:accumulate;font-family:Sans;-inkscape-font-specification:Sans"
     d="m 7.25,4.78125 c 0,2.4255599 -0.00432,3.6433876 0,4.25 0.00216,0.3033062 -0.00163,0.4549789 0,0.53125 8.143e-4,0.038135 -5.191e-4,0.05208 0,0.0625 1.628e-4,0.00153 -3.27e-5,0.031102 0,0.03125 0,0 0.0625,-0.03125 0.0625,-0.03125 0,0 0.020431,0.00626 0.03125,0 0,0 -0.03125,-0.03125 -0.03125,-0.03125 0.010819,-0.00626 0.03125,0 0.03125,0 -3.226e-4,-0.010452 4.021e-4,-0.012419 0,-0.03125 -0.00161,-0.075323 0.00216,-0.228181 0,-0.53125 -0.00431,-0.6061379 0,-1.8245588 0,-4.25 l -0.09375,0 z"
     id="path3939"
     inkscape:connector-curvature="0" />
  <path
     style="font-size:medium;font-style:normal;font-variant:normal;font-weight:normal;font-stretch:normal;text-indent:0;text-align:start;text-decoration:none;line-height:normal;letter-spacing:normal;word-spacing:normal;text-transform:none;direction:ltr;block-progression:tb;writing-mode:lr-tb;text-anchor:start;baseline-shift:baseline;color:#000000;fill:#000000;fill-opacity:1;stroke:none;stroke-width:0.05040884;marker:none;visibility:visible;display:inline;overflow:visible;enable-background:accumulate;font-family:Sans;-inkscape-font-specification:Sans"
     d="m 8.8125,4.75 c 0,2.4763585 -0.0043,3.6931935 0,4.3125 0.00215,0.3096532 0.029629,0.4846532 0.03125,0.5625 8.105e-4,0.038923 -5.148e-4,0.051905 0,0.0625 0.010888,-0.00614 0.03125,0 0.03125,0 0,0 0.0625,-0.03125 0.0625,-0.03125 -3.215e-4,-0.01068 4.004e-4,-0.012019 0,-0.03125 -0.0016,-0.076922 0.00215,-0.2530781 0,-0.5625 C 8.9332049,8.4436562 8.90625,7.2262428 8.90625,4.75 l -0.09375,0 z"
     id="path3939-9"
     inkscape:connector-curvature="0" />
  <path
     style="font-size:medium;font-style:normal;font-variant:normal;font-weight:normal;font-stretch:normal;text-indent:0;text-align:start;text-decoration:none;line-height:normal;letter-spacing:normal;word-spacing:normal;text-transform:none;direction:ltr;block-progression:tb;writing-mode:lr-tb;text-anchor:start;baseline-shift:baseline;color:#000000;fill:#000000;fill-opacity:1;stroke:none;stroke-width:0.05;marker:none;visibility:visible;display:inline;overflow:visible;enable-background:accumulate;font-family:Sans;-inkscape-font-specification:Sans"
     d="m 5,4.78125 c 0,2.4255596 -0.00432,3.6433877 0,4.25 0.00216,0.3033062 -0.00163,0.454979 0,0.53125 8.143e-4,0.038135 0.030731,0.05208 0.03125,0.0625 2.596e-4,0.00521 -3.256e-4,0.0282 0,0.03125 0,0 0.03125,0 0.03125,0 0,0 0.0625,-0.03125 0.0625,-0.03125 -4.249e-4,-0.00853 8.041e-4,-0.024839 0,-0.0625 -0.00161,-0.075323 -0.029093,-0.2281811 -0.03125,-0.53125 -0.00431,-0.6061378 0,-1.824559 0,-4.25 L 5,4.78125 z"
     id="path3939-1"
     inkscape:connector-curvature="0" />
  <path
     style="font-size:medium;font-style:normal;font-variant:normal;font-weight:normal;font-stretch:normal;text-indent:0;text-align:start;text-decoration:none;line-height:normal;letter-spacing:normal;word-spacing:normal;text-transform:none;direction:ltr;block-progression:tb;writing-mode:lr-tb;text-anchor:start;baseline-shift:baseline;color:#000000;fill:#000000;fill-opacity:1;stroke:none;stroke-width:0.05927463;marker:none;visibility:visible;display:inline;overflow:visible;enable-background:accumulate;font-family:Sans;-inkscape-font-specification:Sans"
     d="m 3.21875,5.0625 c 0,0 0,0.0625 0,0.0625 0,0 0.03125,0.03125 0.03125,0.03125 0.014263,-4.088e-4 0.034654,7.26e-4 0.09375,0 0.118191,-0.00145 0.3699627,0.00194 0.84375,0 0.9475746,-0.00388 2.8341898,0 6.625,0 l 0,-0.09375 c -3.7908785,0 -5.6771524,-0.00388 -6.625,0 -0.4739238,0.00194 -0.7250132,-0.00146 -0.84375,0 -0.059368,7.293e-4 -0.078397,-4.401e-4 -0.09375,0 -0.00768,2.2e-4 -0.028313,-1.804e-4 -0.03125,0 z"
     id="path3939-1-1"
     inkscape:connector-curvature="0" />
  <path
     style="font-size:medium;font-style:normal;font-variant:normal;font-weight:normal;font-stretch:normal;text-indent:0;text-align:start;text-decoration:none;line-height:normal;letter-spacing:normal;word-spacing:normal;text-transform:none;direction:ltr;block-progression:tb;writing-mode:lr-tb;text-anchor:start;baseline-shift:baseline;color:#000000;fill:#000000;fill-opacity:1;stroke:none;stroke-width:0.05927463;marker:none;visibility:visible;display:inline;overflow:visible;enable-background:accumulate;font-family:Sans;-inkscape-font-specification:Sans"
     d="m 10.78125,5.46875 c -3.7908786,0 -5.6771524,0.027369 -6.625,0.03125 -0.4739238,0.00194 -0.7250132,-0.00146 -0.84375,0 -0.059368,7.293e-4 -0.078397,-4.401e-4 -0.09375,0 -0.00768,2.2e-4 -0.028313,-1.804e-4 -0.03125,0 0,0 0,0.0625 0,0.0625 0,0 0.03125,0.03125 0.03125,0.03125 0.014263,-4.088e-4 0.034654,7.26e-4 0.09375,0 0.118191,-0.00145 0.3699627,0.00194 0.84375,0 0.9475746,-0.00388 2.8341897,0 6.625,0 l 0,-0.125 z"
     id="path3939-1-1-7"
     inkscape:connector-curvature="0" />
  <path
     style="font-size:medium;font-style:normal;font-variant:normal;font-weight:normal;font-stretch:normal;text-indent:0;text-align:start;text-decoration:none;line-height:normal;letter-spacing:normal;word-spacing:normal;text-transform:none;direction:ltr;block-progression:tb;writing-mode:lr-tb;text-anchor:start;baseline-shift:baseline;color:#000000;fill:#000000;fill-opacity:1;stroke:none;stroke-width:0.05927463;marker:none;visibility:visible;display:inline;overflow:visible;enable-background:accumulate;font-family:Sans;-inkscape-font-specification:Sans"
     d="m 3.1875,5.90625 c 0,0 0.03125,0.0625 0.03125,0.0625 0,0 0,0.03125 0,0.03125 0.014263,-4.088e-4 0.065904,7.26e-4 0.125,0 0.118191,-0.00145 0.3387127,0.00194 0.8125,0 0.9475746,-0.00388 2.8654398,0 6.65625,0 l 0,-0.09375 c -3.7908785,0 -5.7084024,-0.00388 -6.65625,0 -0.4739238,0.00194 -0.6937632,-0.00146 -0.8125,0 -0.059368,7.293e-4 -0.1096467,-4.401e-4 -0.125,0 0,0 -0.03125,0 -0.03125,0 z"
     id="path3939-1-1-7-0"
     inkscape:connector-curvature="0" />
  <path
     style="font-size:medium;font-style:normal;font-variant:normal;font-weight:normal;font-stretch:normal;text-indent:0;text-align:start;text-decoration:none;line-height:normal;letter-spacing:normal;word-spacing:normal;text-transform:none;direction:ltr;block-progression:tb;writing-mode:lr-tb;text-anchor:start;baseline-shift:baseline;color:#000000;fill:#000000;fill-opacity:1;stroke:none;stroke-width:0.05927463;marker:none;visibility:visible;display:inline;overflow:visible;enable-background:accumulate;font-family:Sans;-inkscape-font-specification:Sans"
     d="m 3.25,6.3125 c 0,0 0,0.03125 0,0.03125 0,0 0,0.03125 0,0.03125 0,0 0.03125,0.0625 0.03125,0.0625 0.014263,-4.088e-4 0.034654,7.26e-4 0.09375,0 0.118191,-0.00145 0.3387127,-0.02931 0.8125,-0.03125 0.9475746,-0.00388 2.8654397,0 6.65625,0 l 0,-0.09375 c -3.7908786,0 -5.7084024,-0.00388 -6.65625,0 -0.4739238,0.00194 -0.6937632,-0.00146 -0.8125,0 -0.059368,7.293e-4 -0.078397,-4.401e-4 -0.09375,0 -0.00768,2.2e-4 -0.028313,-1.804e-4 -0.03125,0 z"
     id="path3939-1-1-7-0-7"
     inkscape:connector-curvature="0" />
  <path
     style="font-size:medium;font-style:normal;font-variant:normal;font-weight:normal;font-stretch:normal;text-indent:0;text-align:start;text-decoration:none;line-height:normal;letter-spacing:normal;word-spacing:normal;text-transform:none;direction:ltr;block-progression:tb;writing-mode:lr-tb;text-anchor:start;baseline-shift:baseline;color:#000000;fill:#000000;fill-opacity:1;stroke:none;stroke-width:0.05927463;marker:none;visibility:visible;display:inline;overflow:visible;enable-background:accumulate;font-family:Sans;-inkscape-font-specification:Sans"
     d="m 3.375,6.75 c -0.059368,7.293e-4 -0.078397,0.03081 -0.09375,0.03125 0.00395,0.011861 0,0.03125 0,0.03125 0,0 0,0.0625 0,0.0625 0.014263,-4.088e-4 0.034654,7.26e-4 0.09375,0 0.118191,-0.00145 0.3699627,0.00194 0.84375,0 0.9475747,-0.00388 2.8341894,-0.03125 6.625,-0.03125 l 0,-0.09375 c -3.7908788,0 -5.6771523,-0.00388 -6.625,0 -0.4739238,0.00194 -0.7250132,-0.00146 -0.84375,0 z"
     id="path3939-1-1-1"
     inkscape:connector-curvature="0" />
  <path
     style="font-size:medium;font-style:normal;font-variant:normal;font-weight:normal;font-stretch:normal;text-indent:0;text-align:start;text-decoration:none;line-height:normal;letter-spacing:normal;word-spacing:normal;text-transform:none;direction:ltr;block-progression:tb;writing-mode:lr-tb;text-anchor:start;baseline-shift:baseline;color:#000000;fill:#000000;fill-opacity:1;stroke:none;stroke-width:0.05927463;marker:none;visibility:visible;display:inline;overflow:visible;enable-background:accumulate;font-family:Sans;-inkscape-font-specification:Sans"
     d="m 3.21875,7.1875 c 0,0 0.03125,0.0625 0.03125,0.0625 0,0 0,0.03125 0,0.03125 0,0 -1.157e-4,0.031265 0,0.03125 0.014263,-4.088e-4 0.065904,-0.030524 0.125,-0.03125 0.118191,-0.00145 0.3387126,0.00194 0.8125,0 0.9475747,-0.00388 2.8341893,0 6.625,0 l 0,-0.09375 c -3.7908789,0 -5.6771523,-0.00388 -6.625,0 -0.4739238,0.00194 -0.6937632,-0.00146 -0.8125,0 -0.059368,7.293e-4 -0.1096467,-4.401e-4 -0.125,0 0,0 -0.03125,0 -0.03125,0 z"
     id="path3939-1-1-7-3"
     inkscape:connector-curvature="0" />
  <path
     style="font-size:medium;font-style:normal;font-variant:normal;font-weight:normal;font-stretch:normal;text-indent:0;text-align:start;text-decoration:none;line-height:normal;letter-spacing:normal;word-spacing:normal;text-transform:none;direction:ltr;block-progression:tb;writing-mode:lr-tb;text-anchor:start;baseline-shift:baseline;color:#000000;fill:#000000;fill-opacity:1;stroke:none;stroke-width:0.05927463;marker:none;visibility:visible;display:inline;overflow:visible;enable-background:accumulate;font-family:Sans;-inkscape-font-specification:Sans"
     d="M 4.21875,7.59375 C 3.7448262,7.5956907 3.4937368,7.6235414 3.375,7.625 c -0.059368,7.293e-4 -0.078397,-4.401e-4 -0.09375,0 -0.00768,2.2e-4 -0.028313,-1.804e-4 -0.03125,0 0,0 0,0.03125 0,0.03125 0,0 0.03125,0.0625 0.03125,0.0625 0.014263,-4.088e-4 0.034654,7.26e-4 0.09375,0 0.118191,-0.00145 0.3699627,0.00194 0.84375,0 0.9475747,-0.00388 2.8341894,-0.03125 6.625,-0.03125 l 0,-0.09375 c -3.7908788,0 -5.6771523,-0.00388 -6.625,0 z"
     id="path3939-1-1-7-0-5"
     inkscape:connector-curvature="0" />
  <path
     style="font-size:medium;font-style:normal;font-variant:normal;font-weight:normal;font-stretch:normal;text-indent:0;text-align:start;text-decoration:none;line-height:normal;letter-spacing:normal;word-spacing:normal;text-transform:none;direction:ltr;block-progression:tb;writing-mode:lr-tb;text-anchor:start;baseline-shift:baseline;color:#000000;fill:#000000;fill-opacity:1;stroke:none;stroke-width:0.05927463;marker:none;visibility:visible;display:inline;overflow:visible;enable-background:accumulate;font-family:Sans;-inkscape-font-specification:Sans"
     d="m 10.84375,8 c -3.7908794,0 -5.6771522,0.027369 -6.625,0.03125 -0.4739239,0.00194 -0.7250132,-0.00146 -0.84375,0 -0.059368,7.293e-4 -0.078397,-4.401e-4 -0.09375,0 -0.00768,2.2e-4 -0.028313,-1.804e-4 -0.03125,0 0,0 0,0.03125 0,0.03125 0,0 0.03125,0.0625 0.03125,0.0625 0.014263,-4.088e-4 0.034654,7.26e-4 0.09375,0 0.118191,-0.00145 0.3699626,0.00194 0.84375,0 0.9475748,-0.00388 2.8341888,0 6.625,0 l 0,-0.125 z"
     id="path3939-1-1-7-0-7-5"
     inkscape:connector-curvature="0" />
  <path
     style="font-size:medium;font-style:normal;font-variant:normal;font-weight:normal;font-stretch:normal;text-indent:0;text-align:start;text-decoration:none;line-height:normal;letter-spacing:normal;word-spacing:normal;text-transform:none;direction:ltr;block-progression:tb;writing-mode:lr-tb;text-anchor:start;baseline-shift:baseline;color:#000000;fill:#000000;fill-opacity:1;stroke:none;stroke-width:0.05927463;marker:none;visibility:visible;display:inline;overflow:visible;enable-background:accumulate;font-family:Sans;-inkscape-font-specification:Sans"
     d="m 3.25,8.40625 c 0,0 0.03125,0.0625 0.03125,0.0625 0,0 0,0.03125 0,0.03125 0.014263,-4.088e-4 0.034654,7.26e-4 0.09375,0 0.118191,-0.00145 0.3699626,0.00194 0.84375,0 0.9475747,-0.00388 2.8341892,0 6.625,0 l 0,-0.09375 c -3.7908791,0 -5.6771523,-0.00388 -6.625,0 -0.4739239,0.00194 -0.7250132,-0.00146 -0.84375,0 -0.059368,7.293e-4 -0.078397,-4.401e-4 -0.09375,0 -0.00147,9.02e-5 -0.031019,-2.94e-5 -0.03125,0 z"
     id="path3939-1-1-7-0-7-5-8"
     inkscape:connector-curvature="0" />
  <path
     style="font-size:medium;font-style:normal;font-variant:normal;font-weight:normal;font-stretch:normal;text-indent:0;text-align:start;text-decoration:none;line-height:normal;letter-spacing:normal;word-spacing:normal;text-transform:none;direction:ltr;block-progression:tb;writing-mode:lr-tb;text-anchor:start;baseline-shift:baseline;color:#000000;fill:#000000;fill-opacity:1;stroke:none;stroke-width:0.05927463;marker:none;visibility:visible;display:inline;overflow:visible;enable-background:accumulate;font-family:Sans;-inkscape-font-specification:Sans"
     d="m 3.1875,8.8125 c 0,0 0,0.0625 0,0.0625 0,0 0.03125,0.03125 0.03125,0.03125 0.014263,-4.088e-4 0.034654,7.26e-4 0.09375,0 0.118191,-0.00145 0.3699627,0.00194 0.84375,0 0.9475747,-0.00388 2.8341894,0 6.625,0 l 0,-0.09375 c -3.7908789,0 -5.6771523,-0.00388 -6.625,0 -0.4739238,0.00194 -0.7250132,-0.00146 -0.84375,0 -0.059368,7.293e-4 -0.078397,-4.401e-4 -0.09375,0 -0.00768,2.2e-4 -0.028313,-1.804e-4 -0.03125,0 z"
     id="path3939-1-1-7-0-7-5-8-0"
     inkscape:connector-curvature="0" />
  <path
     style="font-size:medium;font-style:normal;font-variant:normal;font-weight:normal;font-stretch:normal;text-indent:0;text-align:start;text-decoration:none;line-height:normal;letter-spacing:normal;word-spacing:normal;text-transform:none;direction:ltr;block-progression:tb;writing-mode:lr-tb;text-anchor:start;baseline-shift:baseline;color:#000000;fill:#000000;fill-opacity:1;stroke:none;stroke-width:0.05927463;marker:none;visibility:visible;display:inline;overflow:visible;enable-background:accumulate;font-family:Sans;-inkscape-font-specification:Sans"
     d="m 4.15625,9.1875 c -0.4739239,0.00194 -0.6937632,0.029791 -0.8125,0.03125 -0.059368,7.293e-4 -0.1096467,-4.401e-4 -0.125,0 0.00395,0.011861 0,0.03125 0,0.03125 0,0 0,0.0625 0,0.0625 0.014263,-4.088e-4 0.065904,7.26e-4 0.125,0 0.118191,-0.00145 0.3387126,0.00194 0.8125,0 0.9475747,-0.00388 2.8654392,-0.03125 6.65625,-0.03125 l 0,-0.09375 c -3.7908791,0 -5.7084023,-0.00388 -6.65625,0 z"
     id="path3939-1-1-7-0-7-5-8-0-9"
     inkscape:connector-curvature="0" />
</svg>
