<svg xmlns="http://www.w3.org/2000/svg" id="libre-tech-w3c" viewBox="0 0 14 14"><path d="m 12.879682,8.39658 c 0,0 -0.208997,0.37373 -0.339191,0.51763 -0.130262,0.1441 -0.363309,0.39757 -0.65104,0.52447 C 11.60172,9.56545 11.450834,9.58916 11.166327,9.56202 10.882224,9.53472 10.61814,9.37022 10.525633,9.30156 10.433123,9.23286 10.196586,9.0309 10.062831,8.84232 9.9290094,8.65375 9.7200794,8.27694 9.7200794,8.27694 c 0,0 0.116356,0.37775 0.189448,0.53811 0.04185,0.0924 0.1707036,0.37459 0.3537686,0.6202 0.170704,0.22909 0.502169,0.62363 1.005883,0.71271 0.503715,0.0892 0.849825,-0.13711 0.935547,-0.1918 0.08552,-0.0547 0.266099,-0.20597 0.380507,-0.32844 0.119244,-0.12737 0.23224,-0.29021 0.294583,-0.38783 0.04582,-0.0714 0.120185,-0.21598 0.120185,-0.21598 L 12.879749,8.39705 Z m -0.05845,-4.59563 0.133554,0.8122 -0.472879,0.90485 c 0,0 -0.181453,-0.38394 -0.48309,-0.59623 C 11.74481,4.74281 11.579211,4.70384 11.3203,4.75725 c -0.332473,0.0686 -0.709486,0.46609 -0.874009,0.95624 -0.196837,0.58628 -0.198786,0.87018 -0.205772,1.13077 -0.01102,0.41806 0.05482,0.66481 0.05482,0.66481 0,0 -0.287193,-0.53112 -0.284439,-1.30906 0.0018,-0.55545 0.08922,-1.05903 0.34611,-1.55589 0.226061,-0.43694 0.562094,-0.69921 0.860373,-0.73004 0.308355,-0.0318 0.551882,0.11676 0.740322,0.27752 0.197576,0.16902 0.397436,0.53811 0.397436,0.53811 l 0.464884,-0.92876 z m -8.6405366,0.0357 1.1390343,3.87245 1.1388997,-3.87245 3.087855,0 0,0.38494 -1.162682,2.00303 c 0.408454,0.13094 0.717346,0.36936 0.926746,0.71486 0.209534,0.34571 0.314402,0.75134 0.314402,1.21737 0,0.57627 -0.153372,1.06057 -0.459779,1.45317 -0.306407,0.3926 -0.703037,0.58903 -1.189957,0.58903 -0.366667,0 -0.685973,-0.11636 -0.958119,-0.3494 C 6.7447484,9.6166 6.5432094,9.30119 6.4123424,8.90308 l 0.643919,-0.26704 c 0.09432,0.24091 0.218738,0.43076 0.373251,0.56935 0.154447,0.1388 0.336437,0.20826 0.545837,0.20826 0.219745,0 0.405833,-0.12307 0.557659,-0.36909 0.151961,-0.24614 0.227942,-0.54187 0.227942,-0.88778 0,-0.38232 -0.08122,-0.67825 -0.243393,-0.88764 C 8.3287154,7.02312 8.0328554,6.89991 7.6297084,6.89991 l -0.313998,0 0,-0.37694 1.099532,-1.90099 -1.327138,0 -0.07551,0.12858 -1.6143987,5.44748 -0.078533,0 -1.1783345,-3.94285 -1.1780658,3.94285 -0.078466,0 -1.8847978,-6.36166 0.8246998,0 1.1388999,3.87245 0.7698811,-2.60759 -0.3769462,-1.26473 0.8244983,0 0,-2.6e-4 z"/></svg>