<svg aria-labelledby="brand-1in3" role="img" focusable="false" aria-hidden="true" xmlns="http://www.w3.org/2000/svg" viewBox="0 0 14 14"><path d="m 1,7 0,-6 6,0 6,0 0,6 0,6 -6,0 -6,0 0,-6 z m 7.01191,5.1415 c 0.45004,-0.1134 0.45476,-0.1266 0.45476,-1.2769 l 0,-1.0113 -0.48,0 -0.48,0 -8.2e-4,0.7867 -8.3e-4,0.7867 -0.33826,-0.6355 C 6.98072,10.4417 6.77599,10.1011 6.7118,10.0345 6.46371,9.7767 5.70674,9.7472 5.35859,9.9815 l -0.17192,0.1158 -0.0145,1.0246 -0.0145,1.0246 0.47972,0 0.47973,0 0.0148,-0.7758 0.0148,-0.7757 0.33899,0.6384 c 0.18645,0.3511 0.39045,0.6863 0.45333,0.7447 0.21531,0.2002 0.65832,0.2676 1.07292,0.1632 z M 3.61333,11 l 0,-1.1467 -0.50666,0 -0.50667,0 0,1.1467 0,1.1467 0.50667,0 0.50666,0 0,-1.1467 z m 1.28,0 0,-1.1467 -0.50666,0 -0.50667,0 0,1.1467 0,1.1467 0.50667,0 0.50666,0 0,-1.1467 z m 6.45537,1.0267 0.23797,-0.12 0.0158,-0.3597 0.0158,-0.3597 -0.18513,-0.088 -0.18513,-0.088 0.16937,-0.1141 c 0.16101,-0.1086 0.16937,-0.1312 0.16937,-0.4587 l 0,-0.3446 -0.23797,-0.12 c -0.22646,-0.1142 -0.29803,-0.12 -1.48,-0.12 l -1.24203,0 0,0.2698 0,0.2698 0.92,-0.01 c 0.506,0 0.95,0 0.98666,0 0.0371,0 0.0667,0.072 0.0667,0.1572 0,0.1876 -0.0863,0.2178 -0.62667,0.2188 l -0.38666,7e-4 0,0.24 0,0.24 0.4223,0 c 0.52615,0 0.59103,0.024 0.59103,0.2191 l 0,0.1543 -0.98667,0 -0.98666,0 0,0.2666 0,0.2667 1.24203,0 c 1.18197,0 1.25354,-0.01 1.48,-0.12 z M 3.28,9.1452 c 0.0496,-0.038 0.0667,-0.3427 0.0667,-1.1917 0,-0.9713 0.0117,-1.1402 0.079,-1.1402 0.0669,0 0.0812,0.1777 0.0933,1.1594 L 3.5334,9.132 3.68291,9.204 c 0.12875,0.062 0.16763,0.06 0.28,-0.014 l 0.13049,-0.085 0,-1.1454 0,-1.1455 0.37334,0 c 0.20533,0 0.37333,-0.014 0.37333,-0.032 0,-0.018 -0.168,-0.6169 -0.37333,-1.3316 C 4.2614,4.7358 4.0934,4.1094 4.0934,4.0586 c 0,-0.203 0.0978,0.045 0.3192,0.809 0.1275,0.44 0.25477,0.83 0.28284,0.8666 0.0917,0.1199 0.35384,0.081 0.41914,-0.063 C 5.16368,5.5635 5.12668,5.3882 4.89243,4.6179 4.56835,3.5524 4.52901,3.4624 4.30456,3.2735 4.14336,3.1379 4.11765,3.1338 3.41637,3.1338 l -0.72218,0 -0.1995,0.2 C 2.32655,3.5024 2.26109,3.6428 2.07828,4.2272 1.6389,5.6316 1.62818,5.7154 1.87976,5.7785 2.11906,5.8385 2.18046,5.7395 2.44219,4.8711 2.58072,4.4115 2.70891,4.0205 2.72706,4.0024 2.81086,3.9184 2.73306,4.2489 2.38674,5.4464 2.1814,6.1565 2.0134,6.7547 2.0134,6.7757 c 0,0.021 0.16754,0.038 0.3723,0.038 l 0.37229,0 0.0144,1.1585 0.0144,1.1585 0.12764,0.064 c 0.12753,0.063 0.24002,0.048 0.36569,-0.049 z m 3.74932,0.04 0.15735,-0.081 0,-1.1453 c 0,-0.9825 0.0114,-1.1453 0.08,-1.1453 0.0686,0 0.08,0.1629 0.08,1.1455 l 0,1.1454 0.12975,0.085 c 0.1065,0.07 0.15191,0.073 0.25334,0.02 0.068,-0.036 0.14121,-0.091 0.16276,-0.1238 0.0215,-0.032 0.0395,-0.5566 0.04,-1.1653 l 8.1e-4,-1.1067 0.37693,0 c 0.36678,0 0.37589,0 0.33828,-0.12 -0.17243,-0.5354 -0.75631,-2.63 -0.73819,-2.6481 0.0491,-0.049 0.0949,0.067 0.32684,0.8312 0.13198,0.4346 0.26455,0.8203 0.29459,0.8569 0.0746,0.091 0.28077,0.084 0.36072,-0.012 C 8.9881,5.6065 8.9406,5.3483 8.6472,4.3874 8.41812,3.6371 8.36252,3.5099 8.18667,3.3341 l -0.2,-0.2001 -0.74489,0 -0.74489,0 -0.18495,0.185 C 6.16,3.4709 6.08765,3.6303 5.90649,4.2123 5.78521,4.6019 5.64997,5.0339 5.60595,5.1723 5.49262,5.5285 5.52415,5.7062 5.71225,5.772 5.93504,5.85 6.00853,5.727 6.27502,4.834 6.40079,4.4124 6.52789,4.0434 6.55747,4.014 6.63517,3.937 6.59207,4.111 6.18041,5.534 l -0.36251,1.2534 0.37772,0.027 0.37771,0.027 0.0143,1.1523 c 0.0141,1.1326 0.0164,1.1533 0.13334,1.2097 0.0654,0.032 0.12617,0.059 0.13496,0.061 0.009,0 0.0868,-0.033 0.17333,-0.078 z m 3.51456,-0.066 c 0.11389,-0.092 0.11563,-0.1168 0.11119,-1.5733 -0.004,-1.2928 0.006,-1.4796 0.0769,-1.4796 0.071,0 0.0814,0.187 0.0814,1.4628 l 0,1.4628 0.14053,0.1105 c 0.17167,0.135 0.29231,0.1397 0.44061,0.017 0.11173,-0.092 0.11308,-0.1201 0.1259,-2.5733 0.008,-1.6092 0.0317,-2.48 0.0663,-2.48 0.033,0 0.0589,0.3551 0.068,0.9294 0.0152,0.968 0.039,1.0706 0.2479,1.0706 0.23054,0 0.24414,-0.069 0.24414,-1.24 0,-1.2046 -0.0205,-1.3092 -0.29946,-1.5287 C 11.71569,3.1939 11.63838,3.1861 10.7521,3.1861 l -0.95359,0 -0.19921,0.1824 -0.19922,0.1825 -0.0162,1.2041 -0.0162,1.204 0.12943,0.059 c 0.0952,0.043 0.15942,0.043 0.24283,0 0.10902,-0.058 0.11341,-0.097 0.11341,-0.9922 0,-0.7924 0.012,-0.9314 0.08,-0.9314 0.07,0 0.08,0.307 0.08,2.4431 0,2.5237 0.003,2.5648 0.21334,2.6398 0.13966,0.05 0.19858,0.039 0.31721,-0.057 z M 3.6915,2.8971 C 3.92788,2.7981 4.06105,2.5451 4.02356,2.2657 3.94916,1.7111 3.28002,1.5407 2.92895,1.987 2.72573,2.2453 2.81281,2.716 3.08878,2.8509 3.37359,2.9901 3.45414,2.9963 3.6915,2.8969 Z m 3.70108,0.043 C 7.75349,2.8681 7.95623,2.459 7.80752,2.1031 7.7028,1.8525 7.53202,1.7467 7.23224,1.7467 c -0.35801,0 -0.57891,0.2209 -0.57891,0.5789 0,0.2933 0.10435,0.4685 0.34018,0.5711 0.19827,0.086 0.18959,0.085 0.39907,0.043 z m 3.69621,-0.1162 c 0.45593,-0.2616 0.2776,-0.9531 -0.27071,-1.0497 -0.46124,-0.081 -0.81923,0.5099 -0.55395,0.9148 0.17717,0.2704 0.49736,0.3228 0.82466,0.1349 z"/></svg>