<?xml version="1.0" encoding="UTF-8" standalone="no"?>
<!-- Generator: Adobe Illustrator 16.0.4, SVG Export Plug-In . SVG Version: 6.00 Build 0)  -->

<svg
   xmlns:dc="http://purl.org/dc/elements/1.1/"
   xmlns:cc="http://creativecommons.org/ns#"
   xmlns:rdf="http://www.w3.org/1999/02/22-rdf-syntax-ns#"
   xmlns:svg="http://www.w3.org/2000/svg"
   xmlns="http://www.w3.org/2000/svg"
   xmlns:sodipodi="http://sodipodi.sourceforge.net/DTD/sodipodi-0.dtd"
   xmlns:inkscape="http://www.inkscape.org/namespaces/inkscape"
   version="1.1"
   id="Capa_1"
   x="0px"
   y="0px"
   width="14"
   height="14"
   viewBox="0 0 14 14"
   enable-background="new 0 0 17.132 28.711"
   xml:space="preserve"
   inkscape:version="0.48.4 r9939"
   sodipodi:docname="libre-mobile.svg"><metadata
     id="metadata9"><rdf:RDF><cc:Work
         rdf:about=""><dc:format>image/svg+xml</dc:format><dc:type
           rdf:resource="http://purl.org/dc/dcmitype/StillImage" /></cc:Work></rdf:RDF></metadata><defs
     id="defs7" /><sodipodi:namedview
     pagecolor="#ffffff"
     bordercolor="#666666"
     borderopacity="1"
     objecttolerance="10"
     gridtolerance="10"
     guidetolerance="10"
     inkscape:pageopacity="0"
     inkscape:pageshadow="2"
     inkscape:window-width="1920"
     inkscape:window-height="1030"
     id="namedview5"
     showgrid="false"
     inkscape:zoom="0.15066414"
     inkscape:cx="1932.7361"
     inkscape:cy="6265.5218"
     inkscape:window-x="0"
     inkscape:window-y="0"
     inkscape:window-maximized="1"
     inkscape:current-layer="Capa_1" /><path
     d="M 10.10814,1 H 3.89144 C 3.63107,1 3.42002,1.210636 3.42002,1.471424 V 12.528993 C 3.42002,12.788528 3.63107,13 3.89144,13 h 6.2167 c 0.26037,0 0.47101,-0.211472 0.47101,-0.471007 V 1.471424 h 8.3e-4 C 10.57998,1.210636 10.36851,1 10.10814,1 z M 6.99708,12.503081 c -0.30635,0 -0.55501,-0.248249 -0.55501,-0.55459 0,-0.305507 0.24866,-0.553756 0.55501,-0.553756 0.30634,0 0.55459,0.248249 0.55459,0.553756 0,0.306341 -0.24825,0.55459 -0.55459,0.55459 z m 2.43861,-2.36088 H 4.56473 V 2.546756 h 4.87096 v 7.595445 z"
     id="path3"
     inkscape:connector-curvature="0" /></svg>