<svg xmlns="http://www.w3.org/2000/svg" id="libre-cms" viewBox="0 0 80 14"><g transform="matrix(0.27995792,0,0,0.27995792,0.3209247,-280.6733)"><path d="m 202.46447,1043.7472 c -3.48,1.74 -6.72,2.46 -10.86,2.46 -8.04,0 -15.6,-5.34 -15.6,-17.04 0,-11.22 8.1,-16.8 15.78,-16.8 4.62,0 8.04,0.84 11.22,2.7 l 0.36,-4.5 c -2.52,-1.56 -6.48,-2.52 -11.28,-2.52 -10.68,0 -21.6,6.72 -21.6,21.54 0,13.2 8.76,20.94 20.46,20.94 4.44,0 8.34,-0.6 11.94,-2.34 l -0.42,-4.44 z"/><path d="m 217.5301,1008.6472 -7.5,0 -0.6,41.28 4.8,0 0.36,-25.08 c 0.06,-2.4 -0.12,-9 -0.24,-12.6 1.14,4.5 2.94,10.2 3.9,12.6 l 9.48,24.84 5.34,0 9.48,-24.84 c 1.38,-3.6 3,-8.88 3.84,-12.6 -0.12,3.6 -0.24,9 -0.18,12.6 l 0.36,25.08 4.92,0 -0.6,-41.28 -7.44,0 -9.6,25.8 c -1.32,3.6 -2.46,7.2 -3.36,10.8 -0.9,-3.6 -2.04,-7.2 -3.36,-10.8 l -9.6,-25.8 z"/><path d="m 258.26074,1048.0672 c 2.88,1.68 6.54,2.46 9.96,2.46 8.52,0 14.04,-5.1 14.04,-11.94 0,-5.46 -3.12,-8.82 -9.9,-11.34 -4.86,-1.8 -7.26,-4.26 -7.26,-8.16 0,-3.9 3.6,-6.72 7.86,-6.72 3.12,0 6.24,1.14 8.04,2.46 l 0.6,-4.68 c -1.74,-1.14 -5.34,-2.1 -8.22,-2.1 -7.98,0 -13.5,4.56 -13.5,11.94 0,6.12 4.14,9.42 10.08,11.7 4.8,1.86 6.9,4.14 6.9,7.68 0,3.84 -3.36,6.84 -8.22,6.84 -2.82,0 -6.78,-0.84 -9.78,-2.82 l -0.6,4.68 z"/></g></svg>