<?xml version="1.0" encoding="UTF-8" standalone="no"?>
<svg
   xmlns:dc="http://purl.org/dc/elements/1.1/"
   xmlns:cc="http://creativecommons.org/ns#"
   xmlns:rdf="http://www.w3.org/1999/02/22-rdf-syntax-ns#"
   xmlns:svg="http://www.w3.org/2000/svg"
   xmlns="http://www.w3.org/2000/svg"
   xmlns:sodipodi="http://sodipodi.sourceforge.net/DTD/sodipodi-0.dtd"
   xmlns:inkscape="http://www.inkscape.org/namespaces/inkscape"
   width="14"
   height="14"
   viewBox="0 0 14 14"
   id="svg2"
   version="1.1"
   inkscape:version="0.48.4 r9939"
   sodipodi:docname="libre-ban.svg">
  <metadata
     id="metadata10">
    <rdf:RDF>
      <cc:Work
         rdf:about="">
        <dc:format>image/svg+xml</dc:format>
        <dc:type
           rdf:resource="http://purl.org/dc/dcmitype/StillImage" />
      </cc:Work>
    </rdf:RDF>
  </metadata>
  <defs
     id="defs8" />
  <sodipodi:namedview
     pagecolor="#ffffff"
     bordercolor="#666666"
     borderopacity="1"
     objecttolerance="10"
     gridtolerance="10"
     guidetolerance="10"
     inkscape:pageopacity="0"
     inkscape:pageshadow="2"
     inkscape:window-width="1920"
     inkscape:window-height="1030"
     id="namedview6"
     showgrid="false"
     inkscape:zoom="1.0629655"
     inkscape:cx="621.08703"
     inkscape:cy="1024"
     inkscape:window-x="0"
     inkscape:window-y="0"
     inkscape:window-maximized="1"
     inkscape:current-layer="svg2" />
  <path
     d="m 11.25,6.996106 q 0,-1.253731 -0.67969,-2.297209 L 4.67969,10.562622 Q 5.75,11.255678 7,11.255678 q 0.86719,0 1.65234,-0.338741 Q 9.4375,10.578196 10.00781,10.009734 10.57812,9.441272 10.91406,8.650876 11.25,7.86048 11.25,6.996106 z M 3.44531,9.324465 9.34375,3.452952 Q 8.28906,2.744322 7,2.744322 q -1.15625,0 -2.13281,0.568462 Q 3.89062,3.881246 3.32031,4.862427 2.75,5.843608 2.75,6.996106 q 0,1.261519 0.69531,2.328359 z M 13,6.996106 q 0,1.222583 -0.47656,2.336146 -0.47656,1.113562 -1.27735,1.915639 -0.80078,0.802077 -1.91406,1.277093 Q 8.21875,13 7,13 5.78125,13 4.66797,12.524984 3.55469,12.049968 2.75391,11.247891 1.953125,10.445814 1.476562,9.332252 1,8.218689 1,6.996106 1,5.773523 1.476562,4.663855 1.953125,3.554186 2.75391,2.752109 3.55469,1.950032 4.66797,1.475016 5.78125,1 7,1 8.21875,1 9.33203,1.475016 10.44531,1.950032 11.24609,2.752109 12.04688,3.554186 12.52344,4.663855 13,5.773523 13,6.996106 z"
     id="path4"
     inkscape:connector-curvature="0" />
</svg>
