<?xml version="1.0" encoding="UTF-8" standalone="no"?>
<!--?xml version="1.0" encoding="UTF-8" standalone="no"?-->

<svg
   xmlns:dc="http://purl.org/dc/elements/1.1/"
   xmlns:cc="http://creativecommons.org/ns#"
   xmlns:rdf="http://www.w3.org/1999/02/22-rdf-syntax-ns#"
   xmlns:svg="http://www.w3.org/2000/svg"
   xmlns="http://www.w3.org/2000/svg"
   xmlns:sodipodi="http://sodipodi.sourceforge.net/DTD/sodipodi-0.dtd"
   xmlns:inkscape="http://www.inkscape.org/namespaces/inkscape"
   viewBox="0 0 14 14"
   version="1.1"
   class="si-glyph si-glyph-load"
   id="svg2"
   inkscape:version="0.48.4 r9939"
   width="100%"
   height="100%"
   sodipodi:docname="libre-spinner-12.svg">
  <metadata
     id="metadata34">
    <rdf:RDF>
      <cc:Work
         rdf:about="">
        <dc:format>image/svg+xml</dc:format>
        <dc:type
           rdf:resource="http://purl.org/dc/dcmitype/StillImage" />
      </cc:Work>
    </rdf:RDF>
  </metadata>
  <sodipodi:namedview
     pagecolor="#ffffff"
     bordercolor="#666666"
     borderopacity="1"
     objecttolerance="10"
     gridtolerance="10"
     guidetolerance="10"
     inkscape:pageopacity="0"
     inkscape:pageshadow="2"
     inkscape:window-width="1366"
     inkscape:window-height="716"
     id="namedview32"
     showgrid="false"
     inkscape:zoom="14.75"
     inkscape:cx="0.66949153"
     inkscape:cy="8"
     inkscape:window-x="0"
     inkscape:window-y="0"
     inkscape:window-maximized="1"
     inkscape:current-layer="svg2" />
  <!-- Generator: Sketch 3.0.3 (7891) - http://www.bohemiancoding.com/sketch -->
  <title
     id="title4">830</title>
  <defs
     id="defs6" />
  <g
     id="g8"
     style="fill:#000000;stroke:none"
     transform="matrix(0.8766986,0,0,0.88188976,-0.87669857,-0.02733855)">
    <g
       transform="translate(1,0)"
       id="g10"
       style="fill:#000000">
      <g
         id="g12"
         style="fill:#000000">
        <path
           d="m 8.968,1.866 c 0,1.012 -0.437,4.061 -0.976,4.061 -0.537,0 -0.977,-3.049 -0.977,-4.061 0,-1.014 0.439,-1.835 0.977,-1.835 0.539,0 0.976,0.822 0.976,1.835 l 0,0 z"
           class="si-glyph-fill"
           id="path14"
           inkscape:connector-curvature="0"
           style="fill:#000000" />
        <path
           d="m 7.016,14.088 c 0,-1.006 0.438,-4.031 0.977,-4.031 0.538,0 0.975,3.025 0.975,4.031 0,1.004 -0.437,1.818 -0.975,1.818 -0.54,0 -0.977,-0.814 -0.977,-1.818 l 0,0 z"
           class="si-glyph-fill"
           id="path16"
           inkscape:connector-curvature="0"
           style="fill:#000000" />
        <path
           d="m 1.859,7.03 c 1.025,0 4.113,0.431 4.113,0.961 0,0.53 -3.088,0.959 -4.113,0.961 C 0.832,8.95 0,8.521 0,7.991 0,7.461 0.832,7.031 1.859,7.03 l 0,0 z"
           class="si-glyph-fill"
           id="path18"
           inkscape:connector-curvature="0"
           style="fill:#000000" />
        <path
           d="m 14.123,8.982 c -1.021,0 -4.092,-0.44 -4.092,-0.983 0,-0.543 3.07,-0.983 4.092,-0.983 1.019,-0.002 1.846,0.44 1.846,0.983 0,0.543 -0.827,0.983 -1.846,0.983 l 0,0 z"
           class="si-glyph-fill"
           id="path20"
           inkscape:connector-curvature="0"
           style="fill:#000000" />
      </g>
      <g
         transform="translate(2,2)"
         id="g22"
         style="fill:#000000">
        <path
           d="M 11.182,2.193 C 10.467,2.908 8.002,4.755 7.621,4.375 7.241,3.994 9.086,1.527 9.801,0.813 10.518,0.096 11.41,-0.173 11.79,0.206 c 0.382,0.382 0.108,1.271 -0.608,1.987 l 0,0 z"
           class="si-glyph-fill"
           id="path24"
           inkscape:connector-curvature="0"
           style="fill:#000000" />
        <path
           d="M 0.816,9.846 C 1.527,9.134 3.976,7.304 4.357,7.686 4.738,8.066 2.907,10.514 2.195,11.225 1.486,11.935 0.601,12.202 0.22,11.822 -0.16,11.439 0.106,10.555 0.816,9.846 l 0,0 z"
           class="si-glyph-fill"
           id="path26"
           inkscape:connector-curvature="0"
           style="fill:#000000" />
        <path
           d="M 2.176,0.818 C 2.902,1.543 4.78,4.031 4.405,4.406 4.03,4.781 1.544,2.9 0.817,2.177 0.091,1.449 -0.194,0.558 0.181,0.183 0.556,-0.192 1.449,0.092 2.176,0.818 l 0,0 z"
           class="si-glyph-fill"
           id="path28"
           inkscape:connector-curvature="0"
           style="fill:#000000" />
        <path
           d="M 9.812,11.198 C 9.089,10.476 7.23,7.993 7.614,7.609 c 0.384,-0.385 2.867,1.476 3.588,2.198 0.723,0.719 0.994,1.616 0.61,2.001 -0.384,0.383 -1.281,0.11 -2,-0.61 l 0,0 z"
           class="si-glyph-fill"
           id="path30"
           inkscape:connector-curvature="0"
           style="fill:#000000" />
      </g>
    </g>
  </g>
</svg>
