<?xml version="1.0" encoding="UTF-8" standalone="no"?>
<svg
   xmlns:dc="http://purl.org/dc/elements/1.1/"
   xmlns:cc="http://creativecommons.org/ns#"
   xmlns:rdf="http://www.w3.org/1999/02/22-rdf-syntax-ns#"
   xmlns:svg="http://www.w3.org/2000/svg"
   xmlns="http://www.w3.org/2000/svg"
   xmlns:sodipodi="http://sodipodi.sourceforge.net/DTD/sodipodi-0.dtd"
   xmlns:inkscape="http://www.inkscape.org/namespaces/inkscape"
   viewBox="0 0 14 14"
   version="1.1"
   class="si-glyph si-glyph-view"
   id="svg2"
   inkscape:version="0.48.4 r9939"
   width="100%"
   height="100%"
   sodipodi:docname="libre-view.svg">
  <metadata
     id="metadata18">
    <rdf:RDF>
      <cc:Work
         rdf:about="">
        <dc:format>image/svg+xml</dc:format>
        <dc:type
           rdf:resource="http://purl.org/dc/dcmitype/StillImage" />
      </cc:Work>
    </rdf:RDF>
  </metadata>
  <sodipodi:namedview
     pagecolor="#ffffff"
     bordercolor="#666666"
     borderopacity="1"
     objecttolerance="10"
     gridtolerance="10"
     guidetolerance="10"
     inkscape:pageopacity="0"
     inkscape:pageshadow="2"
     inkscape:window-width="1366"
     inkscape:window-height="716"
     id="namedview16"
     showgrid="false"
     inkscape:zoom="14.75"
     inkscape:cx="0.66949153"
     inkscape:cy="8"
     inkscape:window-x="0"
     inkscape:window-y="0"
     inkscape:window-maximized="1"
     inkscape:current-layer="svg2" />
  <title
     id="title4">1127</title>
  <defs
     id="defs6" />
  <g
     id="g8"
     style="fill:#000000;stroke:none"
     transform="matrix(0.75291756,0,0,0.75291756,0.22374196,0.99999996)">
    <g
       transform="translate(1,4)"
       id="g10"
       style="fill:#000000">
      <path
         d="M 8,0 C 3.598,0 0.031,2.66 0.031,3.969 0.031,5.278 3.597,7.938 8,7.938 12.4,7.938 15.969,5.32 15.969,3.969 15.969,2.618 12.4,0 8,0 L 8,0 z M 7.99,7.062 C 4.342,7.062 2.869,5.011 2.869,4 c 0,-1.011 1.473,-3.062 5.121,-3.062 3.646,0 5.119,2.02 5.119,3.062 0,1.042 -1.472,3.062 -5.119,3.062 l 0,0 z"
         class="si-glyph-fill"
         id="path12"
         inkscape:connector-curvature="0"
         style="fill:#000000" />
      <path
         style="fill:#000000"
         d="m 9.8640002,3.9630001 c 0,1.084135 -0.8649859,1.963 -1.932,1.963 -1.0670142,0 -1.9320001,-0.878865 -1.9320001,-1.963 C 6.0000001,2.8788651 6.864986,2 7.9320002,2 c 1.0670141,0 1.932,0.8788651 1.932,1.9630001 z"
         id="ellipse14" />
    </g>
  </g>
</svg>
