<?xml version="1.0" encoding="UTF-8" standalone="no"?>
<!-- Generator: Adobe Illustrator 16.0.4, SVG Export Plug-In . SVG Version: 6.00 Build 0)  -->

<svg
   xmlns:dc="http://purl.org/dc/elements/1.1/"
   xmlns:cc="http://creativecommons.org/ns#"
   xmlns:rdf="http://www.w3.org/1999/02/22-rdf-syntax-ns#"
   xmlns:svg="http://www.w3.org/2000/svg"
   xmlns="http://www.w3.org/2000/svg"
   xmlns:sodipodi="http://sodipodi.sourceforge.net/DTD/sodipodi-0.dtd"
   xmlns:inkscape="http://www.inkscape.org/namespaces/inkscape"
   version="1.1"
   id="Capa_1"
   x="0px"
   y="0px"
   width="14"
   height="14"
   viewBox="0 0 14 14"
   enable-background="new 0 0 216 146"
   xml:space="preserve"
   inkscape:version="0.48.4 r9939"
   sodipodi:docname="libre-resize-vertical.svg"><metadata
     id="metadata9"><rdf:RDF><cc:Work
         rdf:about=""><dc:format>image/svg+xml</dc:format><dc:type
           rdf:resource="http://purl.org/dc/dcmitype/StillImage" /></cc:Work></rdf:RDF></metadata><defs
     id="defs7" /><sodipodi:namedview
     pagecolor="#ffffff"
     bordercolor="#666666"
     borderopacity="1"
     objecttolerance="10"
     gridtolerance="10"
     guidetolerance="10"
     inkscape:pageopacity="0"
     inkscape:pageshadow="2"
     inkscape:window-width="1920"
     inkscape:window-height="1030"
     id="namedview5"
     showgrid="false"
     inkscape:zoom="0.3352049"
     inkscape:cx="2878.6784"
     inkscape:cy="951.55598"
     inkscape:window-x="0"
     inkscape:window-y="0"
     inkscape:window-maximized="1"
     inkscape:current-layer="Capa_1" /><path
     d="M 8.71436,10.42863 H 7.8571 V 3.571452 h 0.85726 c 0.11605,0 0.21657,-0.04241 0.30131,-0.127233 0.0847,-0.08482 0.12715,-0.18526 0.12715,-0.301315 0,-0.116055 -0.0422,-0.216493 -0.12731,-0.301397 L 7.30132,1.127233 C 7.21658,1.042411 7.11606,1 7,1 6.88395,1 6.78351,1.04241 6.69869,1.127233 L 4.98441,2.841507 c -0.0848,0.0849 -0.12723,0.185342 -0.12723,0.301397 0,0.116055 0.0424,0.216493 0.12723,0.301315 0.0849,0.08482 0.18535,0.127233 0.3014,0.127233 h 0.85718 v 6.857178 h -0.8571 c -0.11613,0 -0.21657,0.04241 -0.30139,0.127151 -0.0848,0.0849 -0.12724,0.185425 -0.12724,0.301397 0,0.116055 0.0424,0.216493 0.12724,0.301397 l 1.71427,1.714192 C 6.78357,12.957587 6.88403,13 7.00008,13 7.11614,13 7.21666,12.95759 7.3014,12.872767 l 1.71427,-1.714192 c 0.0847,-0.0849 0.12715,-0.185342 0.12715,-0.301397 0,-0.115972 -0.0424,-0.216493 -0.12715,-0.301397 C 8.93097,10.470961 8.83049,10.42863 8.71436,10.42863 z"
     id="path3"
     inkscape:connector-curvature="0" /></svg>