<svg xmlns="http://www.w3.org/2000/svg" id="libre-bold" viewBox="0 0 14 14"><path d="m 3.241575,12.764 c 0.70786,0.1517 1.95506,0.236 2.88202,0.236 2.51124,0 4.63483,-1.0955 4.63483,-3.4213 0,-1.3989 -0.82584,-2.4944 -2.44382,-2.7472 1.38202,-0.3203 2.39326,-1.2135 2.37641,-2.7304 C 10.674115,2.2135 9.123595,1 6.275285,1 5.567415,1 4.185395,1.067 3.241575,1.1854 l 0,11.5786 m 2.22472,-6.6236 0,-3.2191 c 0.33708,-0.034 0.60674,-0.034 0.96067,-0.034 1.2809,0 1.9045,0.7248 1.9045,1.5843 0,1.0618 -0.8427,1.6685 -2.27528,1.6685 l -0.58989,0 m 0,1.8034 0.79213,0 c 1.41573,0 2.14045,0.5899 2.14045,1.6686 0,0.9943 -0.96067,1.5 -2.00561,1.5 -0.30338,0 -0.6236,0 -0.92697,-0.034 l 0,-3.1349"/></svg>