<svg aria-labelledby="gui-underline" role="img" focusable="false" aria-hidden="true" xmlns="http://www.w3.org/2000/svg" viewBox="0 0 14 14"><path d="M 3.28125,11.5 C 3.0664548,11.5 2.8435794,11.634086 2.75,11.78125 2.6574894,11.926736 2.6254166,12.10828 2.625,12.25 l 0,0.5 c 0,0.142546 0.030195,0.290537 0.125,0.4375 0.093777,0.145379 0.3178995,0.310959 0.53125,0.3125 l 7.4375,0 c 0.214793,0 0.437676,-0.165356 0.53125,-0.3125 0.09248,-0.145446 0.124576,-0.295754 0.125,-0.4375 l 0,-0.5 c 0,-0.142546 -0.03014,-0.321757 -0.125,-0.46875 C 11.156226,11.635875 10.932097,11.501541 10.71875,11.5 l -7.4375,0 z"/><path d="m 10.885953,0.99999838 -1.8686552,0 0,6.10144162 c 0,1.4722721 -0.764451,2.1942539 -1.9960632,2.1942539 -1.2882381,0 -2.0385327,-0.7927643 -2.0385327,-2.3924446 l 0,-5.90325092 -1.868655,0 0,6.38457112 c 0,2.3075034 1.5996842,3.5815885 3.8222488,3.5815885 2.2508776,0 3.9496573,-1.2740855 3.9496573,-4.0062828 l 0,-5.95987682"/></svg>