<svg xmlns="http://www.w3.org/2000/svg" width="14" height="14" viewBox="0 0 14 14"><path d="m 3.48339,11.8424 q 0,0.538419 -0.36679,0.84801 Q 2.7498,13 2.20465,13 1.49125,13 1.04705,12.555805 l 0.38362,-0.592261 q 0.32979,0.302861 0.71341,0.302861 0.19518,0 0.33987,-0.09759 0.1447,-0.09759 0.1447,-0.286034 0,-0.430735 -0.70667,-0.376893 L 1.74699,11.128995 q 0.0539,-0.0673 0.21874,-0.292765 0.16489,-0.225463 0.28603,-0.363432 0.12115,-0.13797 0.24902,-0.259114 v -0.0067 q -0.10768,0 -0.32642,0.0067 -0.21873,0.0067 -0.32641,0.0067 v 0.356702 H 1.13454 V 9.554091 h 2.24117 v 0.59226 l -0.63937,0.773977 q 0.34324,0.08076 0.54515,0.329781 0.2019,0.249019 0.2019,0.59226 z M 3.49689,7.622546 V 8.692653 H 1.06055 Q 1.02015,8.450365 1.02015,8.329221 1.02015,7.985978 1.17831,7.703309 1.33647,7.42064 1.55857,7.245654 1.78067,7.070668 2.00276,6.925968 2.22486,6.781267 2.38302,6.633203 2.54118,6.485138 2.54118,6.330342 q 0,-0.168255 -0.0976,-0.259113 -0.0976,-0.09086 -0.26584,-0.09086 -0.30959,0 -0.54515,0.390353 L 1.06052,5.973639 Q 1.22205,5.630397 1.54173,5.438586 1.86142,5.246774 2.25177,5.246774 q 0.49131,0 0.82782,0.279305 0.33651,0.279304 0.33651,0.75715 0,0.336512 -0.22883,0.615816 Q 2.95845,7.17835 2.68251,7.333146 2.40657,7.48794 2.17437,7.673022 1.94218,7.858103 1.93545,8.026359 H 2.79019 V 7.622545 h 0.70667 z m 9.4829,2.146944 v 1.292204 q 0,0.08749 -0.0639,0.15143 -0.0639,0.06394 -0.15143,0.06394 H 4.5805 q -0.0875,0 -0.15143,-0.06394 -0.0639,-0.06394 -0.0639,-0.15143 V 9.76949 q 0,-0.09422 0.0606,-0.154796 0.0606,-0.06057 0.15479,-0.06057 h 8.18396 q 0.0875,0 0.15143,0.06394 0.0639,0.06394 0.0639,0.151431 z M 3.50362,3.719013 V 4.385306 H 1.249 V 3.719013 h 0.72013 q 0,-0.275939 0.003,-0.821088 0.003,-0.545149 0.003,-0.814358 V 2.002807 H 1.96163 Q 1.90783,2.117221 1.62512,2.366239 L 1.148,1.854739 2.06332,1 h 0.7134 v 2.719013 h 0.72686 z m 9.47617,2.604599 v 1.292204 q 0,0.08749 -0.0639,0.15143 -0.0639,0.06394 -0.15143,0.06394 H 4.5805 q -0.0875,0 -0.15143,-0.06394 -0.0639,-0.06394 -0.0639,-0.15143 V 6.323612 q 0,-0.09422 0.0606,-0.154796 0.0606,-0.06057 0.15479,-0.06057 h 8.18396 q 0.0875,0 0.15143,0.06394 0.0639,0.06394 0.0639,0.15143 z m 0,-3.445878 v 1.292204 q 0,0.08749 -0.0639,0.15143 -0.0639,0.06394 -0.15143,0.06394 H 4.5805 q -0.0875,0 -0.15143,-0.06394 -0.0639,-0.06394 -0.0639,-0.15143 V 2.877734 q 0,-0.08749 0.0639,-0.15143 0.0639,-0.06394 0.15143,-0.06394 h 8.18396 q 0.0875,0 0.15143,0.06394 0.0639,0.06394 0.0639,0.15143 z"/></svg>