<?xml version="1.0" encoding="UTF-8" standalone="no"?>
<svg
   xmlns:dc="http://purl.org/dc/elements/1.1/"
   xmlns:cc="http://creativecommons.org/ns#"
   xmlns:rdf="http://www.w3.org/1999/02/22-rdf-syntax-ns#"
   xmlns:svg="http://www.w3.org/2000/svg"
   xmlns="http://www.w3.org/2000/svg"
   xmlns:sodipodi="http://sodipodi.sourceforge.net/DTD/sodipodi-0.dtd"
   xmlns:inkscape="http://www.inkscape.org/namespaces/inkscape"
   width="14"
   height="14"
   viewBox="0 0 14 14"
   id="svg2"
   version="1.1"
   inkscape:version="0.48.4 r9939"
   sodipodi:docname="libre-tag.svg">
  <metadata
     id="metadata10">
    <rdf:RDF>
      <cc:Work
         rdf:about="">
        <dc:format>image/svg+xml</dc:format>
        <dc:type
           rdf:resource="http://purl.org/dc/dcmitype/StillImage" />
      </cc:Work>
    </rdf:RDF>
  </metadata>
  <defs
     id="defs8" />
  <sodipodi:namedview
     pagecolor="#ffffff"
     bordercolor="#666666"
     borderopacity="1"
     objecttolerance="10"
     gridtolerance="10"
     guidetolerance="10"
     inkscape:pageopacity="0"
     inkscape:pageshadow="2"
     inkscape:window-width="1920"
     inkscape:window-height="1030"
     id="namedview6"
     showgrid="false"
     inkscape:zoom="1.0814295"
     inkscape:cx="627.96623"
     inkscape:cy="1024"
     inkscape:window-x="0"
     inkscape:window-y="0"
     inkscape:window-maximized="1"
     inkscape:current-layer="svg2" />
  <path
     d="m 4.54851,3.534654 q 0,-0.419803 -0.29702,-0.716832 -0.29703,-0.29703 -0.71684,-0.29703 -0.4198,0 -0.71683,0.29703 -0.29703,0.297029 -0.29703,0.716832 0,0.419801 0.29703,0.716831 0.29703,0.29703 0.71683,0.29703 0.41981,0 0.71684,-0.29703 0.29702,-0.29703 0.29702,-0.716831 z M 13,8.09703 q 0,0.419802 -0.29307,0.712871 l -3.88911,3.89703 Q 8.50891,13 8.09703,13 7.67723,13 7.38416,12.706931 L 1.720792,7.035644 Q 1.419802,6.742574 1.209901,6.235643 1,5.728713 1,5.308911 V 2.013861 Q 1,1.60198 1.30099,1.30099 1.60198,1 2.01386,1 h 3.29505 q 0.4198,0 0.92673,0.209901 0.50693,0.209901 0.80792,0.510891 l 5.66337,5.655446 Q 13,7.685149 13,8.09703 z"
     id="path4"
     inkscape:connector-curvature="0" />
</svg>
