<svg aria-labelledby="gui-ban" role="img" focusable="false" aria-hidden="true" xmlns="http://www.w3.org/2000/svg" viewBox="0 0 14 14"><path d="m 11.25,6.996106 q 0,-1.253731 -0.67969,-2.297209 L 4.67969,10.562622 Q 5.75,11.255678 7,11.255678 q 0.86719,0 1.65234,-0.338741 Q 9.4375,10.578196 10.00781,10.009734 10.57812,9.441272 10.91406,8.650876 11.25,7.86048 11.25,6.996106 z M 3.44531,9.324465 9.34375,3.452952 Q 8.28906,2.744322 7,2.744322 q -1.15625,0 -2.13281,0.568462 Q 3.89062,3.881246 3.32031,4.862427 2.75,5.843608 2.75,6.996106 q 0,1.261519 0.69531,2.328359 z M 13,6.996106 q 0,1.222583 -0.47656,2.336146 -0.47656,1.113562 -1.27735,1.915639 -0.80078,0.802077 -1.91406,1.277093 Q 8.21875,13 7,13 5.78125,13 4.66797,12.524984 3.55469,12.049968 2.75391,11.247891 1.953125,10.445814 1.476562,9.332252 1,8.218689 1,6.996106 1,5.773523 1.476562,4.663855 1.953125,3.554186 2.75391,2.752109 3.55469,1.950032 4.66797,1.475016 5.78125,1 7,1 8.21875,1 9.33203,1.475016 10.44531,1.950032 11.24609,2.752109 12.04688,3.554186 12.52344,4.663855 13,5.773523 13,6.996106 z"/></svg>