<svg xmlns="http://www.w3.org/2000/svg" width="14" height="14" viewBox="0 0 14 14"><path d="m 11.687505,3.544643 q 0.1875,0.1875 0.32143,0.508928 0.13392,0.321429 0.13392,0.589286 v 7.714286 q 0,0.267857 -0.1875,0.455357 Q 11.767855,13 11.500005,13 h -9 q -0.26786,0 -0.45536,-0.1875 -0.1875,-0.1875 -0.1875,-0.455357 V 1.642857 Q 1.857145,1.375 2.044645,1.1875 2.232145,1 2.500005,1 h 6 q 0.26785,0 0.58928,0.133928 0.32143,0.133929 0.50893,0.321429 z M 8.714285,1.910714 v 2.517857 h 2.51786 q -0.067,-0.194196 -0.14732,-0.274553 L 8.988845,2.058035 q -0.0804,-0.08036 -0.27456,-0.147321 z m 2.57143,10.232143 V 5.285714 h -2.78571 q -0.26786,0 -0.45536,-0.1875 -0.1875,-0.1875 -0.1875,-0.455357 V 1.857143 h -5.14286 v 10.285714 h 8.57143 z m -6.5558,-1.566964 v 0.709821 h 1.88169 v -0.709821 h -0.50223 l 0.68973,-1.078125 q 0.0335,-0.04687 0.067,-0.110491 0.0335,-0.06362 0.0502,-0.0904 0.0167,-0.02679 0.0234,-0.02679 h 0.0134 q 0.007,0.02679 0.0335,0.06696 0.0134,0.02679 0.0301,0.05022 0.0167,0.02344 0.0402,0.05357 0.0234,0.03013 0.0435,0.05692 l 0.71652,1.078125 h -0.50893 v 0.709821 h 1.94866 V 10.575882 H 8.801305 L 7.515585,8.747757 8.821395,6.859364 h 0.44866 V 6.142846 h -1.86831 v 0.716518 h 0.49554 l -0.68973,1.064732 q -0.0268,0.04687 -0.067,0.110491 -0.0402,0.06362 -0.0603,0.0904 l -0.0134,0.02009 h -0.0134 q -0.007,-0.02679 -0.0335,-0.06696 -0.0402,-0.07366 -0.11384,-0.154018 L 6.196295,6.859367 h 0.50892 V 6.142849 h -1.94196 v 0.716518 h 0.45536 l 1.26562,1.821429 -1.2991,1.895089 h -0.45536 z"/></svg>