<?xml version="1.0" encoding="UTF-8" standalone="no"?>
<svg
   xmlns:dc="http://purl.org/dc/elements/1.1/"
   xmlns:cc="http://creativecommons.org/ns#"
   xmlns:rdf="http://www.w3.org/1999/02/22-rdf-syntax-ns#"
   xmlns:svg="http://www.w3.org/2000/svg"
   xmlns="http://www.w3.org/2000/svg"
   xmlns:sodipodi="http://sodipodi.sourceforge.net/DTD/sodipodi-0.dtd"
   xmlns:inkscape="http://www.inkscape.org/namespaces/inkscape"
   width="14"
   height="14"
   viewBox="0 0 14 14"
   id="svg2"
   version="1.1"
   inkscape:version="0.48.4 r9939"
   sodipodi:docname="libre-empty-square.svg">
  <metadata
     id="metadata10">
    <rdf:RDF>
      <cc:Work
         rdf:about="">
        <dc:format>image/svg+xml</dc:format>
        <dc:type
           rdf:resource="http://purl.org/dc/dcmitype/StillImage" />
        <dc:title></dc:title>
      </cc:Work>
    </rdf:RDF>
  </metadata>
  <defs
     id="defs8">
    <filter
       id="filter3023"
       inkscape:label="Invert"
       x="0"
       y="0"
       width="1"
       height="1"
       inkscape:menu="Color"
       inkscape:menu-tooltip="Invert colors"
       color-interpolation-filters="sRGB">
      <feColorMatrix
         id="feColorMatrix3025"
         type="saturate"
         values="1"
         result="fbSourceGraphic" />
      <feColorMatrix
         id="feColorMatrix3027"
         in="fbSourceGraphic"
         values="-1 0 0 0 1 0 -1 0 0 1 0 0 -1 0 1 0 0 0 1 0 " />
    </filter>
  </defs>
  <sodipodi:namedview
     pagecolor="#ffffff"
     bordercolor="#666666"
     borderopacity="1"
     objecttolerance="10"
     gridtolerance="10"
     guidetolerance="10"
     inkscape:pageopacity="0"
     inkscape:pageshadow="2"
     inkscape:window-width="1920"
     inkscape:window-height="1030"
     id="namedview6"
     showgrid="false"
     inkscape:zoom="33.133233"
     inkscape:cx="1.9937664"
     inkscape:cy="5.688244"
     inkscape:window-x="0"
     inkscape:window-y="0"
     inkscape:window-maximized="1"
     inkscape:current-layer="g3" />
  <path
     d="m 13,3.25 v 7.5 q 0,0.929687 -0.66016,1.589844 Q 11.67969,13 10.75,13 H 3.25 Q 2.32031,13 1.660156,12.339844 1,11.679687 1,10.75 V 3.25 Q 1,2.320313 1.660156,1.660156 2.32031,1 3.25,1 h 7.5 Q 11.67969,1 12.33984,1.660156 13,2.320313 13,3.25 z"
     id="path4"
     inkscape:connector-curvature="0" />
  <g
     id="g3"
     transform="matrix(0.02249998,0,0,0.02249998,-13.967832,0.66598279)">
    <path
       d="m 981.54368,42.722708 c 14.756,0 29.64502,3.022 43.05602,8.742 14.105,6.015 25.689,14.543 34.429,25.35 17.501,21.636998 22.417,51.110002 14.609,87.614002 -8.493,39.78 -28.332,72.896 -57.375,95.766 -28.31102,22.292 -64.062,34.078 -103.39,34.078 h -98.057 -26.974 l -5.626,26.379 -28.001,131.291 h -23.905 -7.261 -37.805 L 774.3977,42.724708 H 981.54368 M 792.7127,269.81371 h 41.708 64.457 c 24.707,0 49.737,-9.463 70.478,-26.648 20.21898,-16.751 34.52,-39.334 40.311,-63.646 7.24,-27.356 2.412,-54.767 -13.28802,-75.289 C 981.1827,84.366708 957.3857,72.973708 931.0947,72.973708 h -67.257 -26.64 l -5.873,25.984998 -29.419,130.174004 -9.193,40.681 M 981.54368,9.3897082 H 747.5457 L 643.8657,485.27471 h 79.184 l -12.517,57.448 h 137.323 l 33.627,-157.67 h 98.058 c 93.88,0 172.363,-57.853 193.363,-156.216 17.561,-82.125 -21.253,-131.214004 -70.373,-151.335002 13.384,6.55 25.048,15.878 33.595,27.334002 17.986,24.114 23.037,56.964 15.019,97.638 -8.104,41.16 -26.259,75.904 -52.69,101.064 -4.837,5.054 -10.013,9.764 -15.523,14.104 -28.311,22.293 -64.062,34.077 -103.39,34.077 h -6.308 -118.725 l -33.627,157.671 h -68.971 l 5.253,-24.115 h 24.025 l 33.627,-157.67 h 98.057 c 93.881,0 172.363,-57.851 193.363,-156.215 C 1130.0507,60.016708 1050.1967,9.3897082 981.54368,9.3897082 l 0,0 z M 834.4207,236.47971 l 29.417,-130.172 h 67.257 c 33.642,0 56.04198,28.926 46.242,65.081 -8.403,36.167 -43.43,65.091 -78.458,65.091 h -64.458 l 0,0 z"
       id="path5"
       inkscape:connector-curvature="0"
       style="filter:url(#filter3023)"
       transform="matrix(0.83333318,0,0,0.83333318,173.1274,51.465328)" />
  </g>
  <g
     id="g7"
     transform="matrix(0.02249998,0,0,0.02249998,-13.967832,0.66598279)" />
  <g
     id="g9"
     transform="matrix(0.02249998,0,0,0.02249998,-13.967832,0.66598279)" />
  <g
     id="g11"
     transform="matrix(0.02249998,0,0,0.02249998,-13.967832,0.66598279)" />
  <g
     id="g13"
     transform="matrix(0.02249998,0,0,0.02249998,-13.967832,0.66598279)" />
  <g
     id="g15"
     transform="matrix(0.02249998,0,0,0.02249998,-13.967832,0.66598279)" />
  <g
     id="g17"
     transform="matrix(0.02249998,0,0,0.02249998,-13.967832,0.66598279)" />
  <g
     id="g19"
     transform="matrix(0.02249998,0,0,0.02249998,-13.967832,0.66598279)" />
  <g
     id="g21"
     transform="matrix(0.02249998,0,0,0.02249998,-13.967832,0.66598279)" />
  <g
     id="g23"
     transform="matrix(0.02249998,0,0,0.02249998,-13.967832,0.66598279)" />
  <g
     id="g25"
     transform="matrix(0.02249998,0,0,0.02249998,-13.967832,0.66598279)" />
  <g
     id="g27"
     transform="matrix(0.02249998,0,0,0.02249998,-13.967832,0.66598279)" />
  <g
     id="g29"
     transform="matrix(0.02249998,0,0,0.02249998,-13.967832,0.66598279)" />
  <g
     id="g31"
     transform="matrix(0.02249998,0,0,0.02249998,-13.967832,0.66598279)" />
  <g
     id="g33"
     transform="matrix(0.02249998,0,0,0.02249998,-13.967832,0.66598279)" />
  <g
     id="g35"
     transform="matrix(0.02249998,0,0,0.02249998,-13.967832,0.66598279)" />
</svg>
