<svg xmlns="http://www.w3.org/2000/svg" id="libre-brand-aus-post" viewBox="0 0 14 14"><g transform="translate(1.8453982,-12.866006)"><path d="m 3.4007349,14.161601 c -2.47390741,0.738399 -4.24613321,2.990652 -4.24613321,5.68554 0,2.73228 1.7722258,4.984533 4.24613321,5.723269 l 0,-11.408809 0,0 z"/><path d="m 5.135906,13.902892 c -0.1475452,0 -0.2583724,0 -0.4062544,0 l 0,0.627908 c 0.073772,0 0.1475451,0 0.2587092,0 2.0305982,0 3.7290515,1.661399 3.7290515,3.691997 0,2.030935 -1.6617354,3.691997 -3.6919968,3.729052 l 0,3.87727 c 0.036718,0 0.073773,0 0.1108273,0 3.3231339,0 6.0183592,-2.658844 6.0183592,-5.981978 -3.37e-4,-3.285742 -2.6955621,-5.944249 -6.018696,-5.944249 l 0,0 z"/></g></svg>