<?xml version="1.0" encoding="UTF-8" standalone="no"?>
<svg
   xmlns:dc="http://purl.org/dc/elements/1.1/"
   xmlns:cc="http://creativecommons.org/ns#"
   xmlns:rdf="http://www.w3.org/1999/02/22-rdf-syntax-ns#"
   xmlns:svg="http://www.w3.org/2000/svg"
   xmlns="http://www.w3.org/2000/svg"
   xmlns:sodipodi="http://sodipodi.sourceforge.net/DTD/sodipodi-0.dtd"
   xmlns:inkscape="http://www.inkscape.org/namespaces/inkscape"
   width="14"
   height="14"
   viewBox="0 0 14 14"
   id="svg2"
   version="1.1"
   inkscape:version="0.48.4 r9939"
   sodipodi:docname="libre-sign-in.svg">
  <metadata
     id="metadata10">
    <rdf:RDF>
      <cc:Work
         rdf:about="">
        <dc:format>image/svg+xml</dc:format>
        <dc:type
           rdf:resource="http://purl.org/dc/dcmitype/StillImage" />
      </cc:Work>
    </rdf:RDF>
  </metadata>
  <defs
     id="defs8" />
  <sodipodi:namedview
     pagecolor="#ffffff"
     bordercolor="#666666"
     borderopacity="1"
     objecttolerance="10"
     gridtolerance="10"
     guidetolerance="10"
     inkscape:pageopacity="0"
     inkscape:pageshadow="2"
     inkscape:window-width="1920"
     inkscape:window-height="1030"
     id="namedview6"
     showgrid="false"
     inkscape:zoom="1.0814295"
     inkscape:cx="627.96623"
     inkscape:cy="1024"
     inkscape:window-x="0"
     inkscape:window-y="0"
     inkscape:window-maximized="1"
     inkscape:current-layer="svg2" />
  <path
     d="m 10.25,7.00001 q 0,0.20313 -0.14844,0.35156 l -4.25,4.25 Q 5.70312,11.75001 5.5,11.75001 q -0.20312,0 -0.35156,-0.14844 Q 5,11.45313 5,11.25001 v -2.25 H 1.5 q -0.203125,0 -0.351563,-0.14844 Q 1,8.70314 1,8.50001 v -3 Q 1,5.29689 1.148437,5.14845 1.296875,5.00001 1.5,5.00001 H 5 v -2.25 Q 5,2.54689 5.14844,2.39845 5.29688,2.25001 5.5,2.25001 q 0.20312,0 0.35156,0.14844 l 4.25,4.25 Q 10.25,6.79689 10.25,7.00001 z m 2.75,-2.75 v 5.5 q 0,0.92969 -0.66016,1.58984 -0.66015,0.66016 -1.58984,0.66016 h -2.5 q -0.10156,0 -0.17578,-0.0742 -0.0742,-0.0742 -0.0742,-0.17578 0,-0.0312 -0.008,-0.15625 -0.008,-0.125 -0.004,-0.20703 0.004,-0.082 0.0234,-0.1836 0.0195,-0.10156 0.0781,-0.15234 0.0586,-0.0508 0.16016,-0.0508 h 2.5 q 0.51563,0 0.88281,-0.36719 Q 12,10.26564 12,9.75001 v -5.5 Q 12,3.73439 11.63281,3.3672 11.26563,3.00001 10.75,3.00001 H 8.3125 L 8.2227,2.99201 8.1329,2.96861 8.0704,2.92561 8.0157,2.85531 8,2.75001 Q 8,2.71881 7.992,2.59376 7.984,2.46876 7.988,2.38673 7.992,2.30473 8.0114,2.20314 8.0309,2.10157 8.0895,2.05079 8.1481,1.99999 8.24966,1.99999 h 2.5 q 0.92969,0 1.58984,0.66016 Q 13,3.32032 13,4.25001 z"
     id="path4"
     inkscape:connector-curvature="0" />
</svg>
