<svg xmlns="http://www.w3.org/2000/svg" width="14" height="14" viewBox="0 0 14 14" id="libre-map-hospital"><path d="M 7,1 C 3.7235817,1 1,3.647619 1,7 c 0,3.352382 2.7235817,6 6,6 3.276419,0 6,-2.647619 6,-6 C 13,3.647619 10.276419,1 7,1 Z m 0,0.9066667 c 2.9052077,0 5.192825,2.3190354 5.192825,5.0933333 0,2.774299 -2.2876173,5.093333 -5.192825,5.093333 C 4.0947923,12.093333 1.8071749,9.774299 1.8071749,7 1.8071749,4.2257021 4.0947923,1.9066667 7,1.9066667 Z m -1.7219734,0.8266666 0,2.56 -2.5829589,0 0,3.4133333 2.5829589,0 0,2.5600004 3.4439468,0 0,-2.5600004 2.5829596,0 0,-3.4133333 -2.5829596,0 0,-2.56 -3.4439468,0 z"/></svg>