<?xml version="1.0" encoding="UTF-8" standalone="no"?>
<svg
   xmlns:dc="http://purl.org/dc/elements/1.1/"
   xmlns:cc="http://creativecommons.org/ns#"
   xmlns:rdf="http://www.w3.org/1999/02/22-rdf-syntax-ns#"
   xmlns:svg="http://www.w3.org/2000/svg"
   xmlns="http://www.w3.org/2000/svg"
   xmlns:sodipodi="http://sodipodi.sourceforge.net/DTD/sodipodi-0.dtd"
   xmlns:inkscape="http://www.inkscape.org/namespaces/inkscape"
   width="14"
   height="14"
   viewBox="0 0 14 14"
   id="svg2"
   version="1.1"
   inkscape:version="0.48.4 r9939"
   sodipodi:docname="libre-line-chart.svg">
  <metadata
     id="metadata10">
    <rdf:RDF>
      <cc:Work
         rdf:about="">
        <dc:format>image/svg+xml</dc:format>
        <dc:type
           rdf:resource="http://purl.org/dc/dcmitype/StillImage" />
      </cc:Work>
    </rdf:RDF>
  </metadata>
  <defs
     id="defs8" />
  <sodipodi:namedview
     pagecolor="#ffffff"
     bordercolor="#666666"
     borderopacity="1"
     objecttolerance="10"
     gridtolerance="10"
     guidetolerance="10"
     inkscape:pageopacity="0"
     inkscape:pageshadow="2"
     inkscape:window-width="1920"
     inkscape:window-height="1030"
     id="namedview6"
     showgrid="false"
     inkscape:zoom="1.0814295"
     inkscape:cx="627.96623"
     inkscape:cy="1024"
     inkscape:window-x="0"
     inkscape:window-y="0"
     inkscape:window-maximized="1"
     inkscape:current-layer="svg2" />
  <path
     d="M 13,10.75 V 11.5 H 1 v -9 h 0.75 v 8.25 H 13 z M 12.25,3.4375 v 2.54883 q 0,0.12304 -0.11426,0.17285 -0.11426,0.0498 -0.20801,-0.0439 L 11.21875,5.4063 7.50977,9.11528 q -0.0586,0.0586 -0.13477,0.0586 -0.0762,0 -0.13477,-0.0586 L 5.875,7.75 3.4375,10.1875 2.3125,9.0625 5.74023,5.63477 q 0.0586,-0.0586 0.13477,-0.0586 0.0762,0 0.13477,0.0586 L 7.375,7 10.09375,4.28125 9.38477,3.57227 Q 9.29107,3.47857 9.34077,3.36426 9.39057,3.25 9.51362,3.25 h 2.54883 q 0.082,0 0.13477,0.0527 0.0527,0.0527 0.0527,0.13477 z"
     id="path4"
     inkscape:connector-curvature="0" />
</svg>
