<?xml version="1.0" encoding="UTF-8" standalone="no"?>
<svg
   xmlns:dc="http://purl.org/dc/elements/1.1/"
   xmlns:cc="http://creativecommons.org/ns#"
   xmlns:rdf="http://www.w3.org/1999/02/22-rdf-syntax-ns#"
   xmlns:svg="http://www.w3.org/2000/svg"
   xmlns="http://www.w3.org/2000/svg"
   xmlns:sodipodi="http://sodipodi.sourceforge.net/DTD/sodipodi-0.dtd"
   xmlns:inkscape="http://www.inkscape.org/namespaces/inkscape"
   width="14"
   height="14"
   viewBox="0 0 14 14"
   id="svg2"
   version="1.1"
   inkscape:version="0.48.4 r9939"
   sodipodi:docname="libre-user-female.svg">
  <metadata
     id="metadata10">
    <rdf:RDF>
      <cc:Work
         rdf:about="">
        <dc:format>image/svg+xml</dc:format>
        <dc:type
           rdf:resource="http://purl.org/dc/dcmitype/StillImage" />
      </cc:Work>
    </rdf:RDF>
  </metadata>
  <defs
     id="defs8" />
  <sodipodi:namedview
     pagecolor="#ffffff"
     bordercolor="#666666"
     borderopacity="1"
     objecttolerance="10"
     gridtolerance="10"
     guidetolerance="10"
     inkscape:pageopacity="0"
     inkscape:pageshadow="2"
     inkscape:window-width="1920"
     inkscape:window-height="1030"
     id="namedview6"
     showgrid="false"
     inkscape:zoom="1.0814295"
     inkscape:cx="627.96623"
     inkscape:cy="1024"
     inkscape:window-x="0"
     inkscape:window-y="0"
     inkscape:window-maximized="1"
     inkscape:current-layer="svg2" />
  <path
     d="m 11.363555,7.981818 q 0,0.272728 -0.19091,0.463636 -0.19091,0.190909 -0.46363,0.190909 -0.34773,0 -0.54546,-0.293181 l -1.54772,-2.325 h -0.30682 v 0.9 l 1.68409,2.802272 q 0.0614,0.102274 0.0614,0.225 0,0.177274 -0.12954,0.306818 -0.12955,0.129546 -0.30682,0.129546 h -1.30909 v 1.854545 q 0,0.313637 -0.225,0.538637 Q 7.859055,13 7.545415,13 h -1.09091 q -0.31363,0 -0.53863,-0.225 -0.225,-0.225 -0.225,-0.538637 v -1.854545 h -1.3091 q -0.17727,0 -0.30681,-0.129546 -0.12955,-0.129544 -0.12955,-0.306818 0,-0.122726 0.0614,-0.225 l 1.6841,-2.802272 v -0.9 h -0.30682 l -1.54773,2.325 q -0.19773,0.293181 -0.54545,0.293181 -0.27273,0 -0.46364,-0.190909 -0.19091,-0.190908 -0.19091,-0.463636 0,-0.197727 0.10909,-0.361364 l 1.74546,-2.618182 q 0.49772,-0.729545 1.2,-0.729545 h 2.61818 q 0.70227,0 1.2,0.729545 l 1.74545,2.618182 q 0.10909,0.163637 0.10909,0.361364 z M 8.527195,2.527272 q 0,0.634091 -0.44659,1.080683 -0.44659,0.446591 -1.08068,0.446591 -0.63409,0 -1.08069,-0.446591 -0.44659,-0.446592 -0.44659,-1.080683 0,-0.63409 0.44659,-1.080681 Q 6.365835,1 6.999925,1 q 0.63409,0 1.08068,0.446591 0.44659,0.446591 0.44659,1.080681 z"
     id="path4"
     inkscape:connector-curvature="0" />
</svg>
