<svg xmlns="http://www.w3.org/2000/svg" id="libre-easter-egg" viewBox="0 0 14 14"><path d="m 6.403625,12.944598 c -0.797105,-0.1445 -1.56434,-0.5847 -2.212212,-1.2691 -0.209829,-0.2217 -0.381504,-0.4201 -0.381504,-0.4411 0,-0.021 0.13194,-0.01 0.293208,0.023 0.911361,0.1909 1.404571,0.2301 2.896919,0.2301 1.492348,0 1.985549,-0.039 2.896909,-0.2301 0.161268,-0.034 0.293208,-0.044 0.293208,-0.023 0,0.1037 -0.807811,0.8741 -1.171901,1.1176 -0.832371,0.5568 -1.712473,0.7563 -2.614627,0.5926 z m -0.975196,-2.3002 c -0.906453,-0.1061 -1.937317,-0.3174 -2.186672,-0.4482 -0.15514,-0.082 -0.424477,-1.0746002 -0.488892,-1.8027002 l -0.02909,-0.3284 0.485214,-0.4808 0.485204,-0.4809 0.514453,0.5161 c 0.282941,0.2838 0.544441,0.516 0.581097,0.516 0.03669,0 0.301634,-0.2318 0.588844,-0.5152 l 0.5222,-0.5152 0.513623,0.5152 c 0.282491,0.2834 0.54601,0.5152 0.585595,0.5152 0.03959,0 0.303094,-0.2318 0.585585,-0.5152 l 0.513623,-0.5152 0.5222,0.5152 c 0.28721,0.2834 0.552198,0.5152 0.588854,0.5152 0.03669,0 0.298146,-0.2322 0.581088,-0.516 l 0.514452,-0.5161 0.485214,0.4809 0.485204,0.4808 -0.02909,0.3284 c -0.06438,0.7281 -0.333762,1.7212002 -0.488902,1.8027002 -0.26159,0.1372 -1.294784,0.3444 -2.257035,0.4527 -0.719694,0.081 -2.363473,0.079 -3.072841,0 z M 3.923426,9.5655978 c 0.345377,-0.2613 0.33888,-0.7433 -0.01339,-0.99 -0.135978,-0.095 -0.447598,-0.094 -0.594802,0 -0.149502,0.098 -0.302494,0.3437 -0.302724,0.4862 -2.5e-4,0.1499 0.115246,0.358 0.263239,0.4744 0.148303,0.1167 0.509165,0.1316 0.647632,0.027 z m 2.34788,-0.095 c 0.144944,-0.145 0.165766,-0.1949 0.165766,-0.3973 0,-0.2014 -0.02099,-0.2524 -0.162478,-0.3938 -0.171354,-0.1715 -0.334911,-0.2181 -0.560465,-0.1598 -0.44179,0.1143 -0.565023,0.6979 -0.210359,0.9963 0.110797,0.093 0.194585,0.1203 0.372367,0.1203 0.200043,0 0.250634,-0.021 0.395169,-0.1657 z m 2.224986,0.045 c 0.354664,-0.2984 0.231431,-0.882 -0.210349,-0.9962 -0.225564,-0.058 -0.389121,-0.012 -0.560465,0.1597 -0.141456,0.1414 -0.162488,0.1924 -0.162488,0.3938 0,0.2024 0.02079,0.2523 0.165767,0.3973 0.144544,0.1445 0.195125,0.1657 0.395168,0.1657 0.177782,0 0.26157,-0.027 0.372367,-0.1203 z m 2.227976,0.022 c 0.147993,-0.1164 0.263489,-0.3245 0.263239,-0.4744 -2.4e-4,-0.1425 -0.153221,-0.3882 -0.302724,-0.4862 -0.147204,-0.097 -0.458824,-0.098 -0.594802,0 -0.352225,0.2467 -0.358722,0.7287 -0.0134,0.99 0.138467,0.1048 0.499339,0.09 0.647632,-0.027 z m -6.469509,-2.9054 c -0.282492,-0.2832 -0.542622,-0.5152 -0.578058,-0.5152 -0.03549,0 -0.220526,0.1514 -0.411303,0.3364 -0.190767,0.1849 -0.346847,0.3139 -0.346847,0.2865 0,-0.1475 0.3149,-1.2273 0.504577,-1.7301 l 0.218996,-0.5806 0.283271,-0.094 c 1.463859,-0.486 3.704889,-0.5648 5.42337,-0.1904 0.243447,0.053 0.570452,0.1388 0.726692,0.1907 l 0.284071,0.094 0.218826,0.5974 c 0.20761,0.5666 0.411422,1.2458 0.481985,1.6059 l 0.03219,0.1643 -0.352355,-0.3402 c -0.193796,-0.187 -0.381354,-0.3402 -0.41679,-0.3402 -0.03549,0 -0.295577,0.232 -0.578069,0.5153 l -0.513623,0.5152 -0.5222,-0.5152 c -0.287209,-0.2833 -0.551498,-0.5153 -0.587314,-0.5153 -0.03579,0 -0.302944,0.2372 -0.593623,0.5271 l -0.528507,0.527 -0.528517,-0.527 c -0.290679,-0.2899 -0.557806,-0.5271 -0.593623,-0.5271 -0.03579,0 -0.300105,0.232 -0.587314,0.5153 l -0.5222,0.5152 -0.513623,-0.5152 z m 0.940089,-1.1401 c 0.284351,-0.2843 0.252414,-0.6422 -0.07937,-0.8895 -0.251954,-0.1878 -0.665925,-0.083 -0.815358,0.2055 -0.20711,0.4005 0.06008,0.8391 0.511414,0.8396 0.195305,2e-4 0.249595,-0.022 0.383333,-0.1556 z m 2.199107,-0.01 c 0.171344,-0.1714 0.217936,-0.3349 0.159649,-0.5604 -0.142696,-0.5522 -0.96445,-0.5522 -1.107146,0 -0.05828,0.2255 -0.01169,0.389 0.159659,0.5604 0.141446,0.1414 0.192426,0.1625 0.393919,0.1625 0.201483,0 0.252463,-0.021 0.393919,-0.1625 z m 2.119997,0.085 c 0.33768,-0.2213 0.332362,-0.7535 -0.01,-0.9777 -0.171235,-0.1121 -0.462183,-0.1076 -0.619593,0.01 -0.331792,0.2473 -0.36374,0.6052 -0.07937,0.8896 0.131649,0.1316 0.189527,0.1557 0.373257,0.1557 0.122993,0 0.268727,-0.034 0.335481,-0.077 z m -5.328736,-2.2083 c 0,-0.025 0.148113,-0.2699 0.329143,-0.544 0.745604,-1.1289 1.685064,-1.81479998 2.485677,-1.81479998 0.800603,0 1.740063,0.68589998 2.485667,1.81479998 0.18103,0.2741 0.329144,0.5189 0.329144,0.544 0,0.027 -0.06368,0.033 -0.152472,0.014 -0.648071,-0.1332 -1.339116,-0.2232 -1.946913,-0.2537 -1.153018,-0.058 -2.2689,0.026 -3.377775,0.2537 -0.08887,0.018 -0.152471,0.012 -0.152471,-0.014 z"/></svg>