<svg xmlns="http://www.w3.org/2000/svg" width="14" height="14" viewBox="0 0 14 14"><path d="m 10.54545,2.090909 h -7.0909 q -0.5625,0 -0.96307,0.400568 -0.40057,0.400568 -0.40057,0.963069 v 7.090908 q 0,0.562501 0.40057,0.963069 0.40057,0.400568 0.96307,0.400568 h 7.0909 q 0.5625,0 0.96307,-0.400568 0.40057,-0.400568 0.40057,-0.963069 V 3.454546 q 0,-0.562501 -0.40057,-0.963069 Q 11.10795,2.090909 10.54545,2.090909 z M 13,3.454546 v 7.090908 q 0,1.014205 -0.72017,1.734375 Q 11.55966,13 10.54545,13 H 3.45455 Q 2.44034,13 1.72017,12.279829 1,11.559659 1,10.545454 V 3.454546 Q 1,2.440341 1.72017,1.720171 2.44034,1 3.45455,1 h 7.0909 Q 11.55966,1 12.27983,1.720171 13,2.440341 13,3.454546 z"/></svg>