<?xml version="1.0" encoding="UTF-8" standalone="no"?>
<svg
   xmlns:dc="http://purl.org/dc/elements/1.1/"
   xmlns:cc="http://creativecommons.org/ns#"
   xmlns:rdf="http://www.w3.org/1999/02/22-rdf-syntax-ns#"
   xmlns:svg="http://www.w3.org/2000/svg"
   xmlns="http://www.w3.org/2000/svg"
   xmlns:sodipodi="http://sodipodi.sourceforge.net/DTD/sodipodi-0.dtd"
   xmlns:inkscape="http://www.inkscape.org/namespaces/inkscape"
   width="14"
   height="14"
   viewBox="0 0 14 14"
   id="svg2"
   version="1.1"
   inkscape:version="0.48.4 r9939"
   sodipodi:docname="libre-brand-delicious.svg">
  <metadata
     id="metadata10">
    <rdf:RDF>
      <cc:Work
         rdf:about="">
        <dc:format>image/svg+xml</dc:format>
        <dc:type
           rdf:resource="http://purl.org/dc/dcmitype/StillImage" />
      </cc:Work>
    </rdf:RDF>
  </metadata>
  <defs
     id="defs8" />
  <sodipodi:namedview
     pagecolor="#ffffff"
     bordercolor="#666666"
     borderopacity="1"
     objecttolerance="10"
     gridtolerance="10"
     guidetolerance="10"
     inkscape:pageopacity="0"
     inkscape:pageshadow="2"
     inkscape:window-width="1920"
     inkscape:window-height="1030"
     id="namedview6"
     showgrid="false"
     inkscape:zoom="1.0629655"
     inkscape:cx="621.08703"
     inkscape:cy="1024"
     inkscape:window-x="0"
     inkscape:window-y="0"
     inkscape:window-maximized="1"
     inkscape:current-layer="svg2" />
  <path
     d="M 12.5,10.75 V 7 H 7 V 1.5 H 3.25 Q 2.52344,1.5 2.01172,2.011719 1.5,2.523438 1.5,3.25 V 7 H 7 v 5.5 h 3.75 q 0.72656,0 1.23828,-0.511719 Q 12.5,11.476562 12.5,10.75 z M 13,3.25 v 7.5 q 0,0.929687 -0.66016,1.589844 Q 11.67969,13 10.75,13 H 3.25 Q 2.32031,13 1.660156,12.339844 1,11.679687 1,10.75 V 3.25 Q 1,2.320313 1.660156,1.660156 2.32031,1 3.25,1 h 7.5 Q 11.67969,1 12.33984,1.660156 13,2.320313 13,3.25 z"
     id="path4"
     inkscape:connector-curvature="0" />
</svg>
