<?xml version="1.0" encoding="UTF-8" standalone="no"?>
<!-- Generated by IcoMoon.io -->

<svg
   xmlns:dc="http://purl.org/dc/elements/1.1/"
   xmlns:cc="http://creativecommons.org/ns#"
   xmlns:rdf="http://www.w3.org/1999/02/22-rdf-syntax-ns#"
   xmlns:svg="http://www.w3.org/2000/svg"
   xmlns="http://www.w3.org/2000/svg"
   xmlns:sodipodi="http://sodipodi.sourceforge.net/DTD/sodipodi-0.dtd"
   xmlns:inkscape="http://www.inkscape.org/namespaces/inkscape"
   version="1.1"
   width="14"
   height="14"
   viewBox="0 0 14 14"
   id="svg2"
   inkscape:version="0.48.4 r9939"
   sodipodi:docname="libre-unlock.svg">
  <metadata
     id="metadata10">
    <rdf:RDF>
      <cc:Work
         rdf:about="">
        <dc:format>image/svg+xml</dc:format>
        <dc:type
           rdf:resource="http://purl.org/dc/dcmitype/StillImage" />
      </cc:Work>
    </rdf:RDF>
  </metadata>
  <defs
     id="defs8" />
  <sodipodi:namedview
     pagecolor="#ffffff"
     bordercolor="#666666"
     borderopacity="1"
     objecttolerance="10"
     gridtolerance="10"
     guidetolerance="10"
     inkscape:pageopacity="0"
     inkscape:pageshadow="2"
     inkscape:window-width="1920"
     inkscape:window-height="1030"
     id="namedview6"
     showgrid="false"
     inkscape:zoom="14.604259"
     inkscape:cx="0.70337809"
     inkscape:cy="14.474055"
     inkscape:window-x="0"
     inkscape:window-y="0"
     inkscape:window-maximized="1"
     inkscape:current-layer="svg2" />
  <path
     d="m 13,5.1538463 v 1.8461538 q 0,0.1873846 -0.137077,0.3244616 -0.137077,0.1370769 -0.324461,0.1370769 h -0.461539 q -0.187385,0 -0.324461,-0.1370769 -0.137077,-0.137077 -0.137077,-0.3244616 V 5.1538463 q 0,-0.7643077 -0.540923,-1.3052308 Q 10.533539,3.3076924 9.7692308,3.3076924 9.0049231,3.3076924 8.464,3.8486155 7.9230769,4.3895386 7.9230769,5.1538463 v 1.3846154 h 0.6923077 q 0.2884616,0 0.4901539,0.2021538 0.2016923,0.2021539 0.2021538,0.4901539 v 4.1538456 q 0,0.288462 -0.2021538,0.490154 -0.2021539,0.201693 -0.4901539,0.202154 H 1.6923077 q -0.2884615,0 -0.4901539,-0.202154 Q 1.0004615,11.672615 1,11.384615 V 7.2307694 Q 1,6.9423078 1.2021538,6.7406155 1.4043077,6.5389232 1.6923077,6.5384617 H 6.5384615 V 5.1538463 q 0,-1.3343077 0.9484616,-2.2823077 0.9484615,-0.948 2.2823077,-0.9484616 Q 11.103077,1.9226155 12.051538,2.8715386 13,3.8204617 13,5.1538463 z"
     id="path4"
     style="fill:#000000"
     inkscape:connector-curvature="0" />
</svg>
