<?xml version="1.0" encoding="UTF-8" standalone="no"?>
<svg
   xmlns:dc="http://purl.org/dc/elements/1.1/"
   xmlns:cc="http://creativecommons.org/ns#"
   xmlns:rdf="http://www.w3.org/1999/02/22-rdf-syntax-ns#"
   xmlns:svg="http://www.w3.org/2000/svg"
   xmlns="http://www.w3.org/2000/svg"
   xmlns:sodipodi="http://sodipodi.sourceforge.net/DTD/sodipodi-0.dtd"
   xmlns:inkscape="http://www.inkscape.org/namespaces/inkscape"
   width="14"
   height="14"
   viewBox="0 0 14 14"
   id="svg2"
   version="1.1"
   inkscape:version="0.48.4 r9939"
   sodipodi:docname="libre-shopping-cart.svg">
  <metadata
     id="metadata10">
    <rdf:RDF>
      <cc:Work
         rdf:about="">
        <dc:format>image/svg+xml</dc:format>
        <dc:type
           rdf:resource="http://purl.org/dc/dcmitype/StillImage" />
      </cc:Work>
    </rdf:RDF>
  </metadata>
  <defs
     id="defs8" />
  <sodipodi:namedview
     pagecolor="#ffffff"
     bordercolor="#666666"
     borderopacity="1"
     objecttolerance="10"
     gridtolerance="10"
     guidetolerance="10"
     inkscape:pageopacity="0"
     inkscape:pageshadow="2"
     inkscape:window-width="1920"
     inkscape:window-height="1030"
     id="namedview6"
     showgrid="false"
     inkscape:zoom="1.0814295"
     inkscape:cx="627.96623"
     inkscape:cy="1024"
     inkscape:window-x="0"
     inkscape:window-y="0"
     inkscape:window-maximized="1"
     inkscape:current-layer="svg2" />
  <path
     d="m 5.61538,11.153845 q 0,0.38221 -0.27043,0.65265 -0.27043,0.27043 -0.65264,0.27043 -0.38221,0 -0.65265,-0.27043 -0.27043,-0.27044 -0.27043,-0.65265 0,-0.38221 0.27043,-0.65264 0.27044,-0.27043 0.65265,-0.27043 0.38221,0 0.65264,0.27043 0.27043,0.27043 0.27043,0.65264 z m 6.46154,0 q 0,0.38221 -0.27043,0.65265 -0.27043,0.27043 -0.65264,0.27043 -0.38222,0 -0.65265,-0.27043 -0.27043,-0.27044 -0.27043,-0.65265 0,-0.38221 0.27043,-0.65264 0.27043,-0.27043 0.65265,-0.27043 0.38221,0 0.65264,0.27043 0.27043,0.27043 0.27043,0.65264 z M 13,3.307695 v 3.69231 q 0,0.17307 -0.11538,0.30649 -0.11539,0.13341 -0.29568,0.15505 l -7.52884,0.8798 q 0.007,0.0505 0.0324,0.15505 0.0252,0.10457 0.0433,0.19111 0.018,0.0865 0.018,0.15865 0,0.11539 -0.17308,0.46154 h 6.63461 q 0.1875,0 0.32452,0.13702 0.13702,0.13702 0.13702,0.32452 0,0.1875 -0.13702,0.32452 -0.13702,0.13702 -0.32452,0.13702 H 4.23072 q -0.1875,0 -0.32452,-0.13702 -0.13702,-0.13702 -0.13702,-0.32452 0,-0.10096 0.0793,-0.28486 0.0793,-0.18389 0.21274,-0.42908 0.13341,-0.2452 0.14783,-0.27404 L 2.93261,2.846155 H 1.461458 q -0.1875,0 -0.324519,-0.13702 Q 1,2.572115 1,2.384615 1,2.197115 1.137019,2.060095 1.274038,1.923075 1.461538,1.923075 H 3.30769 q 0.11539,0 0.20553,0.0469 0.0901,0.0469 0.14423,0.11178 0.0541,0.0649 0.0937,0.17668 0.0397,0.11178 0.0541,0.19111 0.0144,0.0793 0.0397,0.21274 0.0252,0.13341 0.0324,0.18389 h 8.66106 q 0.1875,0 0.32452,0.13702 0.13702,0.13702 0.13702,0.32452 z"
     id="path4"
     inkscape:connector-curvature="0" />
</svg>
