<svg xmlns="http://www.w3.org/2000/svg" id="libre-spinner-12" viewBox="0 0 14 14"><path d="M 9.4788653,11.611843 C 8.8450122,10.975118 7.2152295,8.7853858 7.5518818,8.4467402 7.888534,8.1072126 10.065377,9.74841 10.697476,10.385134 c 0.633853,0.634078 0.871439,1.425134 0.534787,1.764661 -0.336653,0.337764 -1.123051,0.09701 -1.7533977,-0.537952 l 0,0 z M 2.7843948,2.4578268 C 3.420878,3.0971969 5.067318,5.2913386 4.738556,5.6220472 4.409794,5.9527559 2.2303213,4.2939212 1.5929614,3.656315 0.95647818,3.0142992 0.70661907,2.2285354 1.035381,1.8978268 c 0.328762,-0.3307087 1.1116539,-0.080251 1.7490138,0.56 l 0,0 z M 1.5920847,10.419528 C 2.2154174,9.7916222 4.3624523,8.1777638 4.6964744,8.5146457 5.0304966,8.8497638 3.4252615,11.008631 2.801052,11.635653 2.1794727,12.261795 1.4035945,12.49726 1.0695723,12.162142 0.73642682,11.824378 0.96962866,11.044788 1.5920847,10.419528 l 0,0 z M 10.679942,3.6704251 C 10.053103,4.3009764 7.8920408,5.9298268 7.5580187,5.5947087 7.2248733,5.2587087 8.8423822,3.0830866 9.4692217,2.4534173 10.097815,1.8211024 10.87983,1.583874 11.212975,1.9181102 c 0.334899,0.3368819 0.09468,1.1208819 -0.533033,1.7523149 l 0,0 z m 1.701672,4.2233701 c -0.895109,0 -3.5874503,-0.3880314 -3.5874503,-0.8668976 C 8.7941637,6.5480315 11.485628,6.16 12.381614,6.16 13.27497,6.1582362 14,6.5480315 14,7.0268976 14,7.5057638 13.27497,7.8937952 12.381614,7.8937952 l 0,0 z M 1.6297827,6.1723465 c 0.898616,0 3.6058614,0.3800945 3.6058614,0.847496 0,0.4674016 -2.7072454,0.8457324 -3.6058614,0.8474961 C 0.72941324,7.8655749 0,7.4872441 0,7.0198425 0,6.552441 0.72941324,6.1732284 1.6297827,6.1723465 l 0,0 z m 4.5211347,6.2243785 c 0,-0.887181 0.383994,-3.5548982 0.8565346,-3.5548982 0.4716638,0 0.8547811,2.6677172 0.8547811,3.5548982 C 7.8622331,13.282142 7.4791158,14 7.007452,14 6.5340347,14 6.1509174,13.282142 6.1509174,12.396725 l 0,0 z M 7.8622331,1.6182677 c 0,0.8924725 -0.3831173,3.5813543 -0.8556579,3.5813543 -0.4707871,0 -0.8565345,-2.6888818 -0.8565345,-3.5813543 C 6.1500407,0.72403147 6.5349114,0 7.0065752,0 7.4791158,0 7.8622331,0.72491335 7.8622331,1.6182677 l 0,0 z"/></svg>