<?xml version="1.0" encoding="UTF-8" standalone="no"?>
<svg
   xmlns:dc="http://purl.org/dc/elements/1.1/"
   xmlns:cc="http://creativecommons.org/ns#"
   xmlns:rdf="http://www.w3.org/1999/02/22-rdf-syntax-ns#"
   xmlns:svg="http://www.w3.org/2000/svg"
   xmlns="http://www.w3.org/2000/svg"
   xmlns:sodipodi="http://sodipodi.sourceforge.net/DTD/sodipodi-0.dtd"
   xmlns:inkscape="http://www.inkscape.org/namespaces/inkscape"
   width="14"
   height="14"
   viewBox="0 0 14 14"
   id="svg2"
   version="1.1"
   inkscape:version="0.48.4 r9939"
   sodipodi:docname="libre-bookmark.svg">
  <metadata
     id="metadata10">
    <rdf:RDF>
      <cc:Work
         rdf:about="">
        <dc:format>image/svg+xml</dc:format>
        <dc:type
           rdf:resource="http://purl.org/dc/dcmitype/StillImage" />
      </cc:Work>
    </rdf:RDF>
  </metadata>
  <defs
     id="defs8" />
  <sodipodi:namedview
     pagecolor="#ffffff"
     bordercolor="#666666"
     borderopacity="1"
     objecttolerance="10"
     gridtolerance="10"
     guidetolerance="10"
     inkscape:pageopacity="0"
     inkscape:pageshadow="2"
     inkscape:window-width="1920"
     inkscape:window-height="1030"
     id="namedview6"
     showgrid="false"
     inkscape:zoom="1.0629655"
     inkscape:cx="621.08703"
     inkscape:cy="1024"
     inkscape:window-x="0"
     inkscape:window-y="0"
     inkscape:window-maximized="1"
     inkscape:current-layer="svg2" />
  <path
     d="m 11.15598,1 q 0.18242,0 0.34897,0.07138 0.26174,0.103107 0.4164,0.325182 0.15466,0.222075 0.15466,0.491739 v 10.223396 q 0,0.269664 -0.15466,0.491739 -0.15466,0.222075 -0.4164,0.325182 -0.15069,0.06345 -0.34897,0.06345 -0.3807,0 -0.6583,-0.253801 L 7,9.375412 3.50231,12.738267 Q 3.21679,13 2.84402,13 2.6616,13 2.49504,12.92862 2.23331,12.825513 2.07865,12.603438 1.92399,12.381363 1.92399,12.111699 V 1.888303 q 0,-0.269664 0.15466,-0.491739 Q 2.23331,1.174489 2.49504,1.071382 2.6616,1 2.84402,1 h 8.31196 z"
     id="path4"
     inkscape:connector-curvature="0" />
</svg>
