<?xml version="1.0" encoding="UTF-8" standalone="no"?>
<!-- Generator: Adobe Illustrator 16.0.0, SVG Export Plug-In . SVG Version: 6.00 Build 0)  -->

<svg
   xmlns:dc="http://purl.org/dc/elements/1.1/"
   xmlns:cc="http://creativecommons.org/ns#"
   xmlns:rdf="http://www.w3.org/1999/02/22-rdf-syntax-ns#"
   xmlns:svg="http://www.w3.org/2000/svg"
   xmlns="http://www.w3.org/2000/svg"
   xmlns:sodipodi="http://sodipodi.sourceforge.net/DTD/sodipodi-0.dtd"
   xmlns:inkscape="http://www.inkscape.org/namespaces/inkscape"
   version="1.1"
   id="Layer_1"
   x="0px"
   y="0px"
   width="14"
   height="14"
   viewBox="0 0 14 14"
   enable-background="new 0 0 100 100"
   xml:space="preserve"
   inkscape:version="0.48.4 r9939"
   sodipodi:docname="libre-seo-marketing.svg"><metadata
     id="metadata37"><rdf:RDF><cc:Work
         rdf:about=""><dc:format>image/svg+xml</dc:format><dc:type
           rdf:resource="http://purl.org/dc/dcmitype/StillImage" /></cc:Work></rdf:RDF></metadata><defs
     id="defs35" /><sodipodi:namedview
     pagecolor="#ffffff"
     bordercolor="#666666"
     borderopacity="1"
     objecttolerance="10"
     gridtolerance="10"
     guidetolerance="10"
     inkscape:pageopacity="0"
     inkscape:pageshadow="2"
     inkscape:window-width="1920"
     inkscape:window-height="1030"
     id="namedview33"
     showgrid="false"
     inkscape:zoom="10.602635"
     inkscape:cx="1.5853762"
     inkscape:cy="14.605918"
     inkscape:window-x="0"
     inkscape:window-y="0"
     inkscape:window-maximized="1"
     inkscape:current-layer="Layer_1" /><g
     id="g3"
     transform="matrix(0.12,0,0,0.12,0.99994,1)"><g
       id="g5"><path
         d="M 88.208,2.83 C 88.208,1.288 86.921,0 85.377,0 61.792,0 38.208,0 14.623,0 c -1.542,0 -2.83,1.288 -2.83,2.83 0,31.447 0,62.895 0,94.34 0,1.543 1.288,2.83 2.83,2.83 23.585,0 47.169,0 70.754,0 0.833,0 1.467,-0.303 1.92,-0.758 0.027,-0.023 0.053,-0.051 0.078,-0.075 0.023,-0.024 0.053,-0.052 0.074,-0.078 0.455,-0.452 0.759,-1.086 0.759,-1.919 0,-31.445 0,-62.893 0,-94.34 z m -5.661,91.51 c -21.697,0 -43.396,0 -65.094,0 0,-29.561 0,-59.12 0,-88.68 21.698,0 43.396,0 65.094,0 0,29.56 0,59.119 0,88.68 z"
         id="path7"
         inkscape:connector-curvature="0" /></g><g
       id="g9"><path
         style=""
         d="m 25.167,16.5 21.333,0 0,4 -21.333,0 z"
         id="rect11" /></g><path
       style=""
       d="m 53.833,16 21.5,0 0,20 -21.5,0 z"
       id="rect13" /><g
       id="g15"><path
         style=""
         d="m 25.167,24.5 21.333,0 0,4 -21.333,0 z"
         id="rect17" /></g><g
       id="g19"><path
         style=""
         d="m 25.167,32.5 21.333,0 0,4 -21.333,0 z"
         id="rect21" /></g><g
       id="g23"><path
         style=""
         d="m 25.167,40.5 50.167,0 0,4 -50.167,0 z"
         id="rect25" /></g><g
       id="g27"><path
         style=""
         d="m 25.167,50.5 50.167,0 0,4 -50.167,0 z"
         id="rect29" /></g><path
       d="m 64.05,72.516 h -2.18 c -0.284,-1.094 -0.724,-2.145 -1.287,-3.1 l 1.546,-1.549 c 0.469,-0.469 0.469,-1.23 0,-1.699 l -2.545,-2.547 c -0.469,-0.469 -1.229,-0.469 -1.697,0 l -1.554,1.546 C 55.379,64.604 54.328,64.164 53.234,63.88 V 61.7 c 0,-0.663 -0.521,-1.2 -1.186,-1.2 h -3.6 c -0.663,0 -1.186,0.537 -1.186,1.2 v 2.18 c -1.092,0.284 -2.144,0.722 -3.098,1.286 l -1.55,-1.545 c -0.469,-0.469 -1.23,-0.469 -1.699,0 l -2.546,2.545 c -0.469,0.469 -0.469,1.229 0,1.697 l 1.546,1.553 c -0.565,0.955 -1.003,2.006 -1.287,3.1 h -2.18 c -0.663,0 -1.2,0.521 -1.2,1.186 v 3.6 c 0,0.663 0.537,1.186 1.2,1.186 h 2.18 c 0.284,1.094 0.722,2.145 1.287,3.1 l -1.546,1.549 c -0.469,0.469 -0.469,1.23 0,1.699 l 2.545,2.546 c 0.469,0.47 1.229,0.47 1.697,10e-4 l 1.553,-1.546 c 0.954,0.563 2.006,1.003 3.098,1.287 v 2.181 c 0,0.662 0.522,1.199 1.186,1.199 h 3.6 c 0.663,0 1.186,-0.537 1.186,-1.199 v -2.181 c 1.094,-0.284 2.145,-0.724 3.1,-1.287 l 1.549,1.546 c 0.469,0.469 1.23,0.469 1.699,0 l 2.546,-2.545 c 0.47,-0.469 0.47,-1.229 10e-4,-1.697 l -1.546,-1.554 c 0.563,-0.954 1.003,-2.005 1.287,-3.099 h 2.18 c 0.663,0 1.2,-0.521 1.2,-1.186 v -3.6 c 0,-0.665 -0.537,-1.186 -1.2,-1.186 z M 50.25,81.5 c -3.314,0 -6,-2.688 -6,-6 0,-3.314 2.686,-6 6,-6 3.313,0 6,2.686 6,6 0,3.313 -2.687,6 -6,6 z"
       id="path31"
       inkscape:connector-curvature="0" /></g></svg>