<?xml version="1.0" encoding="UTF-8" standalone="no"?>
<!-- Generated by IcoMoon.io -->

<svg
   xmlns:dc="http://purl.org/dc/elements/1.1/"
   xmlns:cc="http://creativecommons.org/ns#"
   xmlns:rdf="http://www.w3.org/1999/02/22-rdf-syntax-ns#"
   xmlns:svg="http://www.w3.org/2000/svg"
   xmlns="http://www.w3.org/2000/svg"
   xmlns:sodipodi="http://sodipodi.sourceforge.net/DTD/sodipodi-0.dtd"
   xmlns:inkscape="http://www.inkscape.org/namespaces/inkscape"
   version="1.1"
   width="14"
   height="14"
   viewBox="0 0 14 14"
   id="svg2"
   inkscape:version="0.48.4 r9939"
   sodipodi:docname="libre-tooltip.svg">
  <metadata
     id="metadata10">
    <rdf:RDF>
      <cc:Work
         rdf:about="">
        <dc:format>image/svg+xml</dc:format>
        <dc:type
           rdf:resource="http://purl.org/dc/dcmitype/StillImage" />
      </cc:Work>
    </rdf:RDF>
  </metadata>
  <defs
     id="defs8" />
  <sodipodi:namedview
     pagecolor="#ffffff"
     bordercolor="#666666"
     borderopacity="1"
     objecttolerance="10"
     gridtolerance="10"
     guidetolerance="10"
     inkscape:pageopacity="0"
     inkscape:pageshadow="2"
     inkscape:window-width="1920"
     inkscape:window-height="1030"
     id="namedview6"
     showgrid="false"
     inkscape:zoom="25.557453"
     inkscape:cx="11.48077"
     inkscape:cy="16"
     inkscape:window-x="0"
     inkscape:window-y="0"
     inkscape:window-maximized="1"
     inkscape:current-layer="svg2" />
  <path
     d="M 11.8835,1.4856299 H 2.1160005 C 1.4996049,1.4856299 1,1.9857339 1,2.6016304 V 8.8344633 C 1,9.4503598 1.4996049,9.9504638 2.1160005,9.9504638 H 3.9771659 L 3.977665,12.51437 6.8245643,9.9504638 H 11.884 c 0.616894,0 1.116,-0.500104 1.116,-1.1160005 V 2.6016304 C 12.999501,1.9857339 12.500395,1.4856299 11.8835,1.4856299 z M 4.0051158,5.9860666 c -0.2760055,0 -0.4991057,-0.2235993 -0.4991057,-0.4991057 0,-0.2760055 0.2231002,-0.4991058 0.4991057,-0.4991058 0.2755064,0 0.4991058,0.2231003 0.4991058,0.4991058 0,0.2755064 -0.2235994,0.4991057 -0.4991058,0.4991057 z m 1.9964231,-0.020962 c -0.2760055,0 -0.4991058,-0.2235994 -0.4991058,-0.4991058 0,-0.2760055 0.2231003,-0.4991057 0.4991058,-0.4991057 0.2755064,0 0.4991058,0.2231002 0.4991058,0.4991057 0,0.2755064 -0.2235994,0.4991058 -0.4991058,0.4991058 z m 2.0064051,0.010481 c -0.275506,0 -0.499106,-0.2231003 -0.499106,-0.4991057 0,-0.2755064 0.2236,-0.4991058 0.499106,-0.4991058 0.276006,0 0.499106,0.2235994 0.499106,0.4991058 0,0.2755063 -0.2236,0.4991057 -0.499106,0.4991057 z m 1.986441,0.010481 c -0.276005,0 -0.499106,-0.2235993 -0.499106,-0.4991057 0,-0.2760055 0.223101,-0.4991058 0.499106,-0.4991058 0.275506,0 0.499106,0.2231003 0.499106,0.4991058 0,0.2755064 -0.2236,0.4991057 -0.499106,0.4991057 z"
     id="path4"
     style="fill:#000000"
     inkscape:connector-curvature="0" />
</svg>
