<?xml version="1.0" encoding="UTF-8" standalone="no"?>
<svg
   xmlns:dc="http://purl.org/dc/elements/1.1/"
   xmlns:cc="http://creativecommons.org/ns#"
   xmlns:rdf="http://www.w3.org/1999/02/22-rdf-syntax-ns#"
   xmlns:svg="http://www.w3.org/2000/svg"
   xmlns="http://www.w3.org/2000/svg"
   xmlns:sodipodi="http://sodipodi.sourceforge.net/DTD/sodipodi-0.dtd"
   xmlns:inkscape="http://www.inkscape.org/namespaces/inkscape"
   width="14"
   height="14"
   viewBox="0 0 14 14"
   id="svg2"
   version="1.1"
   inkscape:version="0.48.4 r9939"
   sodipodi:docname="libre-brand-instagram.svg">
  <metadata
     id="metadata10">
    <rdf:RDF>
      <cc:Work
         rdf:about="">
        <dc:format>image/svg+xml</dc:format>
        <dc:type
           rdf:resource="http://purl.org/dc/dcmitype/StillImage" />
      </cc:Work>
    </rdf:RDF>
  </metadata>
  <defs
     id="defs8" />
  <sodipodi:namedview
     pagecolor="#ffffff"
     bordercolor="#666666"
     borderopacity="1"
     objecttolerance="10"
     gridtolerance="10"
     guidetolerance="10"
     inkscape:pageopacity="0"
     inkscape:pageshadow="2"
     inkscape:window-width="1920"
     inkscape:window-height="1030"
     id="namedview6"
     showgrid="false"
     inkscape:zoom="1.0814295"
     inkscape:cx="627.96623"
     inkscape:cy="1024"
     inkscape:window-x="0"
     inkscape:window-y="0"
     inkscape:window-maximized="1"
     inkscape:current-layer="svg2" />
  <path
     d="m 11.64063,11.140625 v -5.0625 h -1.05469 q 0.15625,0.492187 0.15625,1.023438 0,0.984375 -0.5,1.816405 -0.5,0.832032 -1.35938,1.316407 -0.85937,0.484375 -1.875,0.484375 -1.53906,0 -2.63281,-1.058594 -1.09375,-1.058593 -1.09375,-2.558593 0,-0.531251 0.15625,-1.023438 H 2.33594 v 5.0625 q 0,0.203125 0.13672,0.339844 0.13672,0.136718 0.33984,0.136718 h 8.35156 q 0.19531,0 0.33594,-0.136718 0.14063,-0.136719 0.14063,-0.339844 z M 9.42188,6.976562 q 0,-0.968749 -0.70704,-1.652343 -0.70703,-0.683594 -1.70703,-0.683594 -0.99218,0 -1.69922,0.683594 -0.70703,0.683594 -0.70703,1.652343 0,0.968751 0.70703,1.652344 0.70704,0.683594 1.69922,0.683594 1,0 1.70703,-0.683594 Q 9.42188,7.945313 9.42188,6.976562 z M 11.64063,4.164063 V 2.875 q 0,-0.21875 -0.15626,-0.378906 Q 11.32812,2.335937 11.10156,2.335937 H 9.74219 q -0.22657,0 -0.38281,0.160157 Q 9.20312,2.65625 9.20312,2.875 v 1.289063 q 0,0.226562 0.15626,0.382812 0.15624,0.15625 0.38281,0.15625 h 1.35937 q 0.22656,0 0.38281,-0.15625 0.15626,-0.15625 0.15626,-0.382812 z M 13,2.539062 v 8.921876 Q 13,12.09375 12.54687,12.546875 12.09375,13 11.46094,13 H 2.53906 Q 1.90625,13 1.453125,12.546875 1,12.09375 1,11.460938 V 2.539062 Q 1,1.90625 1.453125,1.453125 1.90625,1 2.53906,1 h 8.92188 Q 12.09375,1 12.54687,1.453125 13,1.90625 13,2.539062 z"
     id="path4"
     inkscape:connector-curvature="0" />
</svg>
