<svg xmlns="http://www.w3.org/2000/svg" id="libre-browse-media" viewBox="0 0 14 14"><g><path d="M 2 2.1992188 C 1.725 2.1992187 1.4888021 2.2983073 1.2929688 2.4941406 C 1.0971354 2.689974 1 2.9242188 1 3.1992188 L 1 10.800781 C 1 11.075781 1.0971354 11.310026 1.2929688 11.505859 C 1.4888021 11.701693 1.725 11.800781 2 11.800781 L 6.3144531 11.800781 L 6.3144531 11 L 2 11 C 1.9458333 11 1.898955 10.980993 1.859375 10.941406 C 1.8197883 10.90186 1.8007812 10.854981 1.8007812 10.800781 L 1.8007812 3.1992188 C 1.8007812 3.1450521 1.8197917 3.0981604 1.859375 3.0585938 C 1.8989583 3.0189937 1.9458333 3 2 3 L 12 3 C 12.054167 3 12.101058 3.0190071 12.140625 3.0585938 C 12.180225 3.0982071 12.199219 3.1450854 12.199219 3.1992188 L 12.199219 6.2929688 L 13 6.2929688 L 13 3.1992188 C 13 2.9242188 12.902865 2.689974 12.707031 2.4941406 C 12.511198 2.2983073 12.275 2.1992188 12 2.1992188 L 2 2.1992188 z M 3.8007812 3.8007812 C 3.4674479 3.8007812 3.1825521 3.9170573 2.9492188 4.1503906 C 2.7158854 4.383724 2.5996094 4.6666667 2.5996094 5 C 2.5996094 5.3333333 2.7158854 5.616276 2.9492188 5.8496094 C 3.1825521 6.0829427 3.4674479 6.1992188 3.8007812 6.1992188 C 4.1341146 6.1992187 4.4170573 6.0829427 4.6503906 5.8496094 C 4.883724 5.616276 5 5.3333333 5 5 C 5 4.6666667 4.883724 4.383724 4.6503906 4.1503906 C 4.4170573 3.9170573 4.1341146 3.8007812 3.8007812 3.8007812 z M 8.8007812 4.8007812 L 5.5996094 8 L 4.5996094 7 L 2.5996094 9 L 2.5996094 10.199219 L 6.3144531 10.199219 L 6.3144531 9.0722656 A 2.7780557 2.7780557 0 0 1 9.09375 6.2929688 L 10.292969 6.2929688 L 8.8007812 4.8007812 z "/><path d="m 8.129367,10.580762 c 0.2815743,0.175014 1.1676554,0.66213 2.072535,1.739599 0.817999,-0.33423 1.600915,-0.653431 2.377526,-0.970093 -0.352194,-0.86475 -0.08478,-1.348129 -0.43533,-2.2070481 C 11.904739,8.5570734 11.701693,8.5004814 11.312761,8.4804174 l 0.122832,0.30288 c 0.07476,0.18234 -0.200952,0.293484 -0.27447,0.112164 l -0.110292,-0.269658 c -0.08942,-0.22017 -0.376843,-0.163974 -0.628363,-0.165444 l 0.149568,0.366798 c 0.07396,0.181518 -0.200532,0.294306 -0.27489,0.112164 L 10.16766,8.6211654 C 10.07575,8.3962134 9.7762126,8.4611814 9.5226284,8.4655434 l 0.1583402,0.388326 c 0.07476,0.183192 -0.2013542,0.2934605 -0.2748962,0.112614 L 8.7631114,7.393378 C 8.5634254,6.9041675 7.8055767,7.1940878 8.0119649,7.7002183 L 8.9603254,10.025119 C 8.8216234,9.9327909 8.5659394,9.8187549 8.3913033,9.7777869 7.8506848,9.6495489 7.5031224,10.191385 8.129367,10.580762 Z"/></g></svg>
