<svg xmlns="http://www.w3.org/2000/svg" width="14" height="14" viewBox="0 0 14 14"><g transform="matrix(0.12,0,0,0.12,1,1)"><path d="M 50,0 C 22.43,0 0,22.43 0,50 0,77.57 22.43,100 50,100 77.57,100 100,77.57 100,50 100,22.43 77.57,0 50,0 z m 3,93.887 V 86 h -6 v 7.887 C 25.126,92.404 7.595,74.874 6.114,53 H 14 V 47 H 6.114 C 7.595,25.126 25.126,7.595 47,6.114 V 14 h 6 V 6.114 C 74.874,7.595 92.404,25.126 93.887,47 H 86 v 6 h 7.887 C 92.404,74.874 74.874,92.404 53,93.887 z"/><path d="m 29.039,59.521 c 3.095,-2.055 6.531,-3.287 9.854,-4.385 0.478,-0.156 0.954,-0.367 1.429,-0.525 L 40.42,54.55 c 0.703,-0.246 1.368,-0.49 1.912,-0.789 0.025,-0.06 0.061,-0.162 0.104,-0.32 C 39.7,49.448 37.84,43.272 37.84,37.983 c 0,-4.486 1.41,-7.813 4.068,-9.836 -1.148,-0.582 -2.536,-0.805 -4.028,-0.805 -3.977,0 -7.2,1.588 -7.2,7.292 0,3.788 1.42,8.433 3.539,11.13 -0.021,0.213 -0.045,0.427 -0.084,0.639 -0.127,0.58 -0.329,1.229 -0.871,1.551 -0.607,0.361 -1.283,0.59 -1.947,0.822 -2.754,0.927 -5.604,1.744 -8.047,3.369 -1.271,0.836 -2.133,2.5 -2.607,3.926 -0.49,1.482 -0.691,2.93 -0.66,4.93 h 7.51 C 27.99,60 28.498,59.876 29.039,59.521 z"/><path d="M 76.732,52.199 C 74.287,50.576 71.437,49.732 68.683,48.805 68.019,48.573 67.342,48.329 66.736,47.968 66.193,47.646 65.99,46.989 65.865,46.41 65.81,46.103 65.775,45.791 65.76,45.481 c 1.996,-2.732 3.32,-7.19 3.32,-10.846 0,-5.706 -3.223,-7.295 -7.199,-7.295 -1.514,0 -2.914,0.232 -4.074,0.831 2.637,2.026 4.035,5.342 4.035,9.81 0,5.15 -1.729,11.079 -4.355,15.098 0.009,0.045 0.017,0.09 0.023,0.135 0.068,0.313 0.125,0.476 0.16,0.558 0.576,0.319 1.266,0.572 2.035,0.844 l 1.152,0.383 c 3.41,1.133 6.936,2.503 10.11,4.611 0.515,0.335 0.999,0.39 1.454,1.39 h 7.576 c 0.028,-2 -0.172,-3.447 -0.66,-4.93 -0.474,-1.424 -1.335,-3.033 -2.605,-3.871 z"/><path d="m 69.643,61.422 c -3.26,-2.162 -7.059,-3.301 -10.729,-4.535 -0.888,-0.311 -1.787,-0.641 -2.597,-1.123 -0.725,-0.43 -0.994,-1.305 -1.162,-2.078 -0.073,-0.41 -0.12,-0.828 -0.143,-1.242 2.662,-3.641 4.428,-9.585 4.428,-14.459 0,-7.608 -4.297,-9.728 -9.6,-9.728 -5.303,0 -9.6,2.118 -9.6,9.725 0,5.049 1.893,11.244 4.717,14.841 -0.026,0.283 -0.06,0.566 -0.11,0.851 -0.169,0.771 -0.439,1.64 -1.161,2.067 -0.812,0.48 -1.711,0.785 -2.598,1.097 -3.672,1.235 -7.471,2.326 -10.729,4.49 -1.695,1.114 -2.844,3.269 -3.477,5.17 C 26.23,68.469 25.963,71 26.003,73 H 50 73.997 c 0.041,-2 -0.228,-4.531 -0.879,-6.504 -0.634,-1.902 -1.782,-3.957 -3.475,-5.074 z"/></g></svg>