<svg aria-labelledby="camera-macro" role="img" focusable="false" aria-hidden="true" xmlns="http://www.w3.org/2000/svg" viewBox="0 0 14 14"><path d="m 1.5950843,7.4929237 c 0.0233,1.43963 0.498748,5.5070503 5.127536,5.5070503 l 0,-3.0023502 -4.696962,-2.7560601 c -0.192472,-0.11293 -0.434191,0.0282 -0.430574,0.25136 z m 9.7146387,-4.43097 0,-1.66938 c 0,-0.23114 -0.260031,-0.36674 -0.449558,-0.23444 l -2.4023817,1.67701 -1.473573,-1.73438 c -0.114177,-0.13436995 -0.321587,-0.13436995 -0.435764,0 l -1.473559,1.73441 -2.402396,-1.67706 c -0.189527,-0.1323 -0.449558,0.003 -0.449558,0.2344501 l 0,1.63964 c 0,2.51511 2.057865,4.58906 4.572922,4.5730499 0.162709,-10e-4 0.323345,-0.0108 0.481551,-0.0285 l 0,5.4232603 c 4.6265147,0 5.1037497,-4.0633803 5.1275077,-5.5049003 0.0037,-0.2236299 -0.23906,-0.36472 -0.431517,-0.2508 l -3.7233957,2.20362 0,-2.0904 c 1.7806937,-0.61497 3.0597217,-2.30586 3.0597217,-4.29555 z"/></svg>