<?xml version="1.0" encoding="UTF-8" standalone="no"?>
<!-- Generator: Adobe Illustrator 16.0.4, SVG Export Plug-In . SVG Version: 6.00 Build 0)  -->

<svg
   xmlns:dc="http://purl.org/dc/elements/1.1/"
   xmlns:cc="http://creativecommons.org/ns#"
   xmlns:rdf="http://www.w3.org/1999/02/22-rdf-syntax-ns#"
   xmlns:svg="http://www.w3.org/2000/svg"
   xmlns="http://www.w3.org/2000/svg"
   xmlns:sodipodi="http://sodipodi.sourceforge.net/DTD/sodipodi-0.dtd"
   xmlns:inkscape="http://www.inkscape.org/namespaces/inkscape"
   version="1.1"
   id="Capa_1"
   x="0px"
   y="0px"
   width="14"
   height="14"
   viewBox="0 0 14 14"
   enable-background="new 0 0 216 146"
   xml:space="preserve"
   inkscape:version="0.48.4 r9939"
   sodipodi:docname="libre-resize-small.svg"><metadata
     id="metadata13"><rdf:RDF><cc:Work
         rdf:about=""><dc:format>image/svg+xml</dc:format><dc:type
           rdf:resource="http://purl.org/dc/dcmitype/StillImage" /></cc:Work></rdf:RDF></metadata><defs
     id="defs11" /><sodipodi:namedview
     pagecolor="#ffffff"
     bordercolor="#666666"
     borderopacity="1"
     objecttolerance="10"
     gridtolerance="10"
     guidetolerance="10"
     inkscape:pageopacity="0"
     inkscape:pageshadow="2"
     inkscape:window-width="1920"
     inkscape:window-height="1030"
     id="namedview9"
     showgrid="false"
     inkscape:zoom="0.47405129"
     inkscape:cx="2087.4019"
     inkscape:cy="1102.8609"
     inkscape:window-x="0"
     inkscape:window-y="0"
     inkscape:window-maximized="1"
     inkscape:current-layer="Capa_1" /><g
     id="g3"
     transform="matrix(0.09754036,0,0,0.09754036,-3.5344564,-0.12034874)"><path
       d="m 169.514,23.464 c 0,-0.706 -0.272,-1.33 -0.816,-1.874 l -9.288,-9.288 c -0.543,-0.544 -1.167,-0.815 -1.873,-0.815 -0.707,0 -1.331,0.272 -1.874,0.815 l -27.051,27.049 -11.73,-11.732 c -1.031,-1.032 -2.255,-1.548 -3.667,-1.548 -1.412,0 -2.634,0.516 -3.666,1.548 -1.032,1.032 -1.548,2.254 -1.548,3.666 v 36.5 c 0,1.413 0.516,2.635 1.548,3.667 1.032,1.032 2.254,1.548 3.666,1.548 h 36.5 c 1.412,0 2.636,-0.516 3.667,-1.548 1.032,-1.032 1.549,-2.254 1.549,-3.667 0,-1.412 -0.517,-2.634 -1.549,-3.666 L 141.65,52.387 168.701,25.338 c 0.541,-0.543 0.813,-1.168 0.813,-1.874 z"
       id="path5"
       inkscape:connector-curvature="0" /><path
       d="m 102.786,73.001 h -36.5 c -1.412,0 -2.634,0.516 -3.666,1.549 -1.032,1.031 -1.548,2.254 -1.548,3.666 0,1.412 0.516,2.634 1.548,3.666 l 11.732,11.731 -27.049,27.05 c -0.544,0.543 -0.815,1.168 -0.815,1.873 0,0.707 0.271,1.332 0.815,1.875 l 9.287,9.286 c 0.544,0.543 1.168,0.814 1.874,0.814 0.706,0 1.331,-0.271 1.874,-0.814 l 27.049,-27.049 11.732,11.732 c 1.032,1.031 2.254,1.548 3.666,1.548 1.413,0 2.635,-0.517 3.667,-1.548 1.032,-1.031 1.548,-2.254 1.548,-3.666 v -36.5 c 0,-1.412 -0.516,-2.635 -1.547,-3.665 -1.032,-1.032 -2.254,-1.548 -3.667,-1.548 z"
       id="path7"
       inkscape:connector-curvature="0" /></g></svg>