<?xml version="1.0" encoding="UTF-8" standalone="no"?>
<!-- Generator: Adobe Illustrator 17.1.0, SVG Export Plug-In . SVG Version: 6.00 Build 0)  -->

<svg
   xmlns:dc="http://purl.org/dc/elements/1.1/"
   xmlns:cc="http://creativecommons.org/ns#"
   xmlns:rdf="http://www.w3.org/1999/02/22-rdf-syntax-ns#"
   xmlns:svg="http://www.w3.org/2000/svg"
   xmlns="http://www.w3.org/2000/svg"
   xmlns:sodipodi="http://sodipodi.sourceforge.net/DTD/sodipodi-0.dtd"
   xmlns:inkscape="http://www.inkscape.org/namespaces/inkscape"
   version="1.1"
   id="Capa_1"
   x="0px"
   y="0px"
   viewBox="0 0 14 14"
   xml:space="preserve"
   inkscape:version="0.48.4 r9939"
   width="100%"
   height="100%"
   sodipodi:docname="libre-reorder.svg"><metadata
     id="metadata19"><rdf:RDF><cc:Work
         rdf:about=""><dc:format>image/svg+xml</dc:format><dc:type
           rdf:resource="http://purl.org/dc/dcmitype/StillImage" /></cc:Work></rdf:RDF></metadata><defs
     id="defs17" /><sodipodi:namedview
     pagecolor="#ffffff"
     bordercolor="#666666"
     borderopacity="1"
     objecttolerance="10"
     gridtolerance="10"
     guidetolerance="10"
     inkscape:pageopacity="0"
     inkscape:pageshadow="2"
     inkscape:window-width="1920"
     inkscape:window-height="1030"
     id="namedview15"
     showgrid="false"
     inkscape:zoom="0.48939914"
     inkscape:cx="1698.7998"
     inkscape:cy="1376.2104"
     inkscape:window-x="0"
     inkscape:window-y="0"
     inkscape:window-maximized="1"
     inkscape:current-layer="Capa_1" /><g
     id="g3"
     transform="matrix(0.1406981,0,0,0.1406981,0.09225563,0.09714017)"><path
       d="m 22.89,91.278 c 0.349,0.286 0.714,0.428 1.095,0.428 0.412,0 0.777,-0.141 1.095,-0.428 L 40.263,76.096 c 0.317,-0.381 0.476,-0.762 0.476,-1.143 0,-0.443 -0.143,-0.809 -0.428,-1.095 C 40.025,73.574 39.66,73.43 39.216,73.43 H 36.078 V 7.94 C 36.078,7.497 35.935,7.131 35.65,6.847 35.364,6.561 34.999,6.417 34.555,6.417 H 14.416 c -0.445,0 -0.809,0.143 -1.095,0.43 -0.286,0.284 -0.429,0.651 -0.429,1.093 V 73.43 H 8.755 c -0.698,0 -1.174,0.318 -1.428,0.952 -0.254,0.604 -0.143,1.158 0.333,1.666 l 15.23,15.23 z"
       id="path5"
       inkscape:connector-curvature="0" /><path
       d="M 49.876,21.195 H 62.06 c 0.444,0 0.809,-0.143 1.095,-0.429 0.286,-0.284 0.429,-0.649 0.429,-1.093 v -9.14 C 63.584,10.091 63.441,9.724 63.155,9.44 62.87,9.154 62.504,9.01 62.06,9.01 H 49.876 c -0.445,0 -0.809,0.143 -1.095,0.43 -0.286,0.284 -0.429,0.651 -0.429,1.093 v 9.14 c 0,0.444 0.143,0.809 0.429,1.093 0.286,0.286 0.651,0.429 1.095,0.429 z"
       id="path7"
       inkscape:connector-curvature="0" /><path
       d="m 49.876,38.563 h 21.322 c 0.444,0 0.809,-0.143 1.095,-0.428 0.286,-0.286 0.428,-0.651 0.428,-1.095 v -9.138 c 0,-0.444 -0.143,-0.811 -0.428,-1.095 -0.286,-0.286 -0.651,-0.429 -1.095,-0.429 H 49.876 c -0.445,0 -0.809,0.143 -1.095,0.429 -0.286,0.284 -0.429,0.651 -0.429,1.095 v 9.138 c 0,0.444 0.143,0.809 0.429,1.095 0.286,0.285 0.651,0.428 1.095,0.428 z"
       id="path9"
       inkscape:connector-curvature="0" /><path
       d="m 49.876,55.931 h 30.46 c 0.444,0 0.809,-0.143 1.095,-0.428 0.285,-0.286 0.428,-0.651 0.428,-1.095 V 45.27 c 0,-0.444 -0.143,-0.809 -0.428,-1.095 -0.286,-0.286 -0.651,-0.428 -1.095,-0.428 h -30.46 c -0.445,0 -0.809,0.141 -1.095,0.428 -0.286,0.286 -0.429,0.651 -0.429,1.095 v 9.138 c 0,0.444 0.143,0.809 0.429,1.095 0.286,0.285 0.651,0.428 1.095,0.428 z"
       id="path11"
       inkscape:connector-curvature="0" /><path
       d="m 49.876,73.299 h 39.599 c 0.444,0 0.809,-0.141 1.095,-0.427 0.286,-0.286 0.428,-0.651 0.428,-1.095 v -9.138 c 0,-0.444 -0.143,-0.809 -0.428,-1.095 -0.286,-0.284 -0.651,-0.428 -1.095,-0.428 H 49.876 c -0.445,0 -0.809,0.143 -1.095,0.428 -0.286,0.286 -0.429,0.651 -0.429,1.095 v 9.138 c 0,0.444 0.143,0.809 0.429,1.095 0.286,0.286 0.651,0.427 1.095,0.427 z"
       id="path13"
       inkscape:connector-curvature="0" /></g></svg>