<?xml version="1.0" encoding="UTF-8" standalone="no"?>
<svg
   xmlns:dc="http://purl.org/dc/elements/1.1/"
   xmlns:cc="http://creativecommons.org/ns#"
   xmlns:rdf="http://www.w3.org/1999/02/22-rdf-syntax-ns#"
   xmlns:svg="http://www.w3.org/2000/svg"
   xmlns="http://www.w3.org/2000/svg"
   xmlns:sodipodi="http://sodipodi.sourceforge.net/DTD/sodipodi-0.dtd"
   xmlns:inkscape="http://www.inkscape.org/namespaces/inkscape"
   width="14"
   height="14"
   viewBox="0 0 14 14"
   id="svg2"
   version="1.1"
   inkscape:version="0.48.4 r9939"
   sodipodi:docname="libre-desktop.svg">
  <metadata
     id="metadata10">
    <rdf:RDF>
      <cc:Work
         rdf:about="">
        <dc:format>image/svg+xml</dc:format>
        <dc:type
           rdf:resource="http://purl.org/dc/dcmitype/StillImage" />
      </cc:Work>
    </rdf:RDF>
  </metadata>
  <defs
     id="defs8" />
  <sodipodi:namedview
     pagecolor="#ffffff"
     bordercolor="#666666"
     borderopacity="1"
     objecttolerance="10"
     gridtolerance="10"
     guidetolerance="10"
     inkscape:pageopacity="0"
     inkscape:pageshadow="2"
     inkscape:window-width="1920"
     inkscape:window-height="1030"
     id="namedview6"
     showgrid="false"
     inkscape:zoom="1.0814295"
     inkscape:cx="627.96623"
     inkscape:cy="1024"
     inkscape:window-x="0"
     inkscape:window-y="0"
     inkscape:window-maximized="1"
     inkscape:current-layer="svg2" />
  <path
     d="M 12.2,8 V 2.8 q 0,-0.0812 -0.0594,-0.14063 -0.0594,-0.0594 -0.14062,-0.0594 h -10 q -0.08125,0 -0.140625,0.0594 Q 1.799975,2.71877 1.799975,2.8 V 8 q 0,0.0812 0.05938,0.14063 0.05938,0.0594 0.140625,0.0594 h 10 q 0.0812,0 0.14062,-0.0594 Q 12.2,8.08123 12.2,8 z M 13,2.8 v 6.8 q 0,0.4125 -0.29375,0.70625 Q 12.4125,10.6 12,10.6 H 8.6 q 0,0.23125 0.1,0.48437 0.1,0.25313 0.2,0.44376 Q 9,11.71875 9,11.8 9,11.9625 8.88125,12.08125 8.7625,12.2 8.6,12.2 H 5.4 Q 5.2375,12.2 5.11875,12.08125 5,11.9625 5,11.8 5,11.7125 5.1,11.525 5.2,11.3375 5.3,11.0875 5.4,10.8375 5.4,10.6 H 2 Q 1.5875,10.6 1.29375,10.30625 1,10.0125 1,9.6 V 2.8 Q 1,2.3875 1.29375,2.09375 1.5875,1.8 2,1.8 h 10 q 0.4125,0 0.70625,0.29375 Q 13,2.3875 13,2.8 z"
     id="path4"
     inkscape:connector-curvature="0" />
</svg>
