<?xml version="1.0" encoding="UTF-8" standalone="no"?>
<!-- Generator: Adobe Illustrator 16.0.0, SVG Export Plug-In . SVG Version: 6.00 Build 0)  -->

<svg
   xmlns:dc="http://purl.org/dc/elements/1.1/"
   xmlns:cc="http://creativecommons.org/ns#"
   xmlns:rdf="http://www.w3.org/1999/02/22-rdf-syntax-ns#"
   xmlns:svg="http://www.w3.org/2000/svg"
   xmlns="http://www.w3.org/2000/svg"
   xmlns:sodipodi="http://sodipodi.sourceforge.net/DTD/sodipodi-0.dtd"
   xmlns:inkscape="http://www.inkscape.org/namespaces/inkscape"
   version="1.1"
   id="Capa_1"
   x="0px"
   y="0px"
   width="14"
   height="14"
   viewBox="0 0 14 14"
   xml:space="preserve"
   inkscape:version="0.48.4 r9939"
   sodipodi:docname="libre-viurs.svg"><metadata
     id="metadata41"><rdf:RDF><cc:Work
         rdf:about=""><dc:format>image/svg+xml</dc:format><dc:type
           rdf:resource="http://purl.org/dc/dcmitype/StillImage" /></cc:Work></rdf:RDF></metadata><defs
     id="defs39" /><sodipodi:namedview
     pagecolor="#ffffff"
     bordercolor="#666666"
     borderopacity="1"
     objecttolerance="10"
     gridtolerance="10"
     guidetolerance="10"
     inkscape:pageopacity="0"
     inkscape:pageshadow="2"
     inkscape:window-width="1920"
     inkscape:window-height="1030"
     id="namedview37"
     showgrid="false"
     inkscape:zoom="28.414559"
     inkscape:cx="12.833671"
     inkscape:cy="9.6475014"
     inkscape:window-x="0"
     inkscape:window-y="0"
     inkscape:window-maximized="1"
     inkscape:current-layer="Capa_1" /><g
     id="g3"
     transform="matrix(0.02605767,0,0,0.02605767,0.99999999,0.99999999)"><path
       d="m 460.517,270.846 c 0,9.194 -7.459,16.647 -16.654,16.647 -7.83,0 -14.357,-5.431 -16.136,-12.726 l -98.791,-14.236 c -2.533,9.231 -6.405,17.884 -11.466,25.732 l 49.207,31.164 c 5.48,-6.101 13.408,-9.962 22.262,-9.962 16.538,0 29.959,13.421 29.959,29.965 0,16.545 -13.415,29.965 -29.959,29.965 -16.551,0 -29.971,-13.408 -29.971,-29.965 0,-4.109 0.828,-8.025 2.332,-11.588 l -49.657,-31.443 c -12.337,15.271 -29.423,26.487 -48.987,31.596 l 8.859,54.797 c 11.588,0.401 20.874,9.87 20.874,21.556 0,11.952 -9.694,21.641 -21.641,21.641 -11.947,0 -21.641,-9.688 -21.641,-21.641 0,-8.708 5.182,-16.173 12.604,-19.607 l -8.842,-54.754 c -4.506,0.658 -9.073,1.12 -13.749,1.12 -12.659,0 -24.707,-2.575 -35.707,-7.148 l -39.623,107.51 c 2.408,2.271 3.93,5.479 3.93,9.048 0,6.894 -5.586,12.489 -12.486,12.489 -6.896,0 -12.482,-5.584 -12.482,-12.489 0,-6.601 5.139,-11.946 11.624,-12.397 l 39.987,-108.484 c -8.095,-4.444 -15.457,-10.047 -21.863,-16.599 l -61.58,44.975 c -0.137,8.146 -6.765,14.724 -14.952,14.724 -8.272,0 -14.976,-6.704 -14.976,-14.979 0,-8.275 6.704,-14.979 14.976,-14.979 4.622,0 8.705,2.144 11.448,5.432 l 58.501,-42.728 c -8.973,-11.387 -15.372,-24.881 -18.252,-39.658 l -91.252,8.549 C 54.83,276.5 42.85,287.484 28.303,287.484 12.672,287.481 0,274.816 0,259.191 c 0,-15.637 12.672,-28.309 28.303,-28.309 13.283,0 24.399,9.171 27.444,21.513 l 90.555,-8.506 c -0.226,-2.643 -0.405,-5.304 -0.405,-8.002 0,-18.438 5.422,-35.575 14.656,-50.043 l -20.134,-15.178 c -4.725,4.284 -10.936,6.96 -17.813,6.96 -14.708,0 -26.631,-11.922 -26.631,-26.631 0,-14.708 11.923,-26.631 26.631,-26.631 14.717,0 26.637,11.923 26.637,26.631 0,4.214 -1.072,8.147 -2.81,11.697 l 19.921,15.007 c 12.65,-15.798 30.342,-27.328 50.637,-32.285 L 198.345,39.215 c -7.082,-1.185 -12.489,-7.308 -12.489,-14.727 0,-8.275 6.704,-14.977 14.976,-14.977 8.275,0 14.979,6.701 14.979,14.977 0,5.586 -3.093,10.4 -7.633,12.981 l 18.624,106.113 c 4.037,-0.536 8.129,-0.911 12.306,-0.911 10.534,0 20.637,1.784 30.068,5.017 l 21.312,-59.421 c -2.412,-2.277 -3.934,-5.48 -3.934,-9.055 0,-6.896 5.59,-12.488 12.482,-12.488 6.899,0 12.482,5.587 12.482,12.488 0,6.604 -5.139,11.947 -11.618,12.398 l -21.445,59.82 c 14.419,6.765 26.853,17.092 36.12,29.886 l 66.408,-37.954 c -0.748,-2.326 -1.26,-4.771 -1.26,-7.347 0,-13.359 10.82,-24.186 24.186,-24.186 13.366,0 24.187,10.826 24.187,24.186 0,13.357 -10.82,24.184 -24.187,24.184 -7.179,0 -13.561,-3.188 -17.993,-8.157 l -65.902,37.662 c 7.794,13.624 12.318,29.368 12.318,46.183 0,5.072 -0.512,10.005 -1.291,14.864 l 97.347,14.017 c 2.442,-6.174 8.434,-10.57 15.473,-10.57 9.19,0 16.656,7.453 16.656,16.648 z"
       id="path5"
       inkscape:connector-curvature="0" /></g><g
     id="g7"
     transform="matrix(0.02605767,0,0,0.02605767,0.99999999,0.99999999)" /><g
     id="g9"
     transform="matrix(0.02605767,0,0,0.02605767,0.99999999,0.99999999)" /><g
     id="g11"
     transform="matrix(0.02605767,0,0,0.02605767,0.99999999,0.99999999)" /><g
     id="g13"
     transform="matrix(0.02605767,0,0,0.02605767,0.99999999,0.99999999)" /><g
     id="g15"
     transform="matrix(0.02605767,0,0,0.02605767,0.99999999,0.99999999)" /><g
     id="g17"
     transform="matrix(0.02605767,0,0,0.02605767,0.99999999,0.99999999)" /><g
     id="g19"
     transform="matrix(0.02605767,0,0,0.02605767,0.99999999,0.99999999)" /><g
     id="g21"
     transform="matrix(0.02605767,0,0,0.02605767,0.99999999,0.99999999)" /><g
     id="g23"
     transform="matrix(0.02605767,0,0,0.02605767,0.99999999,0.99999999)" /><g
     id="g25"
     transform="matrix(0.02605767,0,0,0.02605767,0.99999999,0.99999999)" /><g
     id="g27"
     transform="matrix(0.02605767,0,0,0.02605767,0.99999999,0.99999999)" /><g
     id="g29"
     transform="matrix(0.02605767,0,0,0.02605767,0.99999999,0.99999999)" /><g
     id="g31"
     transform="matrix(0.02605767,0,0,0.02605767,0.99999999,0.99999999)" /><g
     id="g33"
     transform="matrix(0.02605767,0,0,0.02605767,0.99999999,0.99999999)" /><g
     id="g35"
     transform="matrix(0.02605767,0,0,0.02605767,0.99999999,0.99999999)" /></svg>