<svg xmlns="http://www.w3.org/2000/svg" id="libre-tech-mysql" viewBox="0 0 14 14"><path d="m 12.965172,12.864222 c -0.04301,-0.023 -0.06301,-0.039 -0.137625,-0.11 -0.05101,-0.048 -0.11022,-0.096 -0.236742,-0.1911 -0.399172,-0.2992 -0.467084,-0.3399 -0.900262,-0.5396 -0.209538,-0.097 -0.363666,-0.1741 -0.454782,-0.2287 -0.167731,-0.1003 -0.531196,-0.3665 -0.635315,-0.4652 -0.08201,-0.078 -0.188934,-0.2065 -0.273749,-0.3294 -0.06501,-0.095 -0.07601,-0.1142 -0.11112,-0.2019 -0.03301,-0.082 -0.04801,-0.113 -0.06901,-0.1376 -0.014,-0.016 -0.012,-0.035 0.01,-0.069 0.02801,-0.052 0.07701,-0.079 0.21854,-0.1185 0.03301,-0.01 0.09002,-0.029 0.126523,-0.043 0.382768,-0.1507 0.774539,-0.2126 1.345142,-0.2127 l 0.209637,0 -0.01,-0.021 c -0.011,-0.036 -0.03101,-0.064 -0.08202,-0.1154 -0.07401,-0.074 -0.145226,-0.1250001 -0.353364,-0.2534001 -0.05501,-0.034 -0.181833,-0.1198 -0.282351,-0.1913 -0.309355,-0.2198 -0.462383,-0.3238 -0.605909,-0.4119 -0.119021,-0.073 -0.180132,-0.1 -0.434278,-0.1888 -0.05101,-0.018 -0.123922,-0.045 -0.161729,-0.06 -0.06601,-0.026 -0.1475271,-0.053 -0.3617651,-0.12 -0.179932,-0.056 -0.306755,-0.1059 -0.381269,-0.1504 -0.06101,-0.037 -0.09002,-0.064 -0.141125,-0.1365 -0.16443,-0.2313 -0.27665,-0.448 -0.536397,-1.0352 -0.07001,-0.1585 -0.149927,-0.3285 -0.286851,-0.6115 -0.211038,-0.4359 -0.284752,-0.6006 -0.351264,-0.7852 -0.08802,-0.2446 -0.133324,-0.3452 -0.246544,-0.548 -0.28025,-0.5016 -0.597508,-0.9446 -0.988278,-1.3799 -0.08601,-0.096 -0.397271,-0.4071 -0.493389,-0.4933 -0.673221,-0.6042 -1.420355,-1.0637 -2.072073,-1.2747 -0.161829,-0.052 -0.236442,-0.064 -0.480886,-0.075 -0.140626,-0.01 -0.262348,-0.017 -0.328159,-0.029 -0.03801,-0.01 -0.08301,-0.011 -0.152428,-0.012 l -0.09802,0 -0.04101,-0.021 c -0.05101,-0.026 -0.105919,-0.067 -0.206937,-0.1547 -0.08302,-0.072 -0.114221,-0.095 -0.211038,-0.1558 -0.188434,-0.1178 -0.471785,-0.2573 -0.740833,-0.3646 -0.131524,-0.052 -0.267449,-0.088 -0.356465,-0.092 -0.05401,0 -0.08601,0 -0.126522,0.022 -0.015,0.01 -0.03601,0.017 -0.04701,0.022 -0.027,0.012 -0.05701,0.045 -0.06701,0.073 -0.01,0.013 -0.014,0.034 -0.019,0.045 -0.04001,0.08 -0.01,0.2193 0.09302,0.4013 0.05501,0.1004 0.102119,0.1664 0.237643,0.3352 0.146427,0.1825 0.261847,0.3386 0.38577,0.5218 0.158228,0.2339 0.233742,0.3941 0.351963,0.7464 0.04201,0.1236 0.06201,0.1864 0.124722,0.3913 0.04201,0.1371 0.11002,0.3378 0.142926,0.4237 0.08702,0.2279 0.191135,0.4325 0.311156,0.6123 0.06501,0.097 0.07801,0.1129 0.174132,0.2086 0.117921,0.1175 0.144125,0.1531 0.186133,0.2532 0.016,0.037 0.016,0.038 0.015,0.1125 -3e-4,0.067 0,0.082 -0.015,0.1383 -0.03,0.1282 -0.05901,0.2182 -0.134924,0.4172 -0.09902,0.2583 -0.131324,0.3764 -0.168431,0.6067 -0.08201,0.5066 -0.04701,1.0985 0.09202,1.5573 0.03701,0.1235 0.10832,0.3026 0.172931,0.4361 0.08902,0.1843 0.179732,0.2788 0.312356,0.3264 l 0.03301,0.012 0.021,-0.01 c 0.021,-0.01 0.022,-0.011 0.024,-0.034 0,-0.013 0.015,-0.1365 0.03101,-0.2744 0.03,-0.266 0.05201,-0.4265 0.07501,-0.5415 0.05001,-0.2479 0.111321,-0.4128 0.203537,-0.5507 0.03401,-0.052 0.06201,-0.088 0.180433,-0.2345 0.03601,-0.045 0.07801,-0.099 0.09302,-0.1207 0.015,-0.021 0.028,-0.039 0.03001,-0.039 0.01,-2e-4 0.03,0.023 0.04401,0.044 0.021,0.033 0.027,0.051 0.05201,0.1443 0.018,0.07 0.03201,0.1062 0.09702,0.2569 0.185233,0.4325 0.273949,0.615 0.476485,0.9797 0.238343,0.4292 0.50079,0.8415 0.732532,1.1509 0.150127,0.2004001 0.382569,0.4520001 0.494989,0.5359001 0.03101,0.023 0.07001,0.057 0.08702,0.076 0.016,0.018 0.03401,0.033 0.03801,0.033 0,0 0.01,0 0.01,0.01 0,0.011 -0.016,0.01 -0.06901,-0.02 -0.09602,-0.046 -0.157328,-0.096 -0.33186,-0.2713 -0.07201,-0.072 -0.146026,-0.1433 -0.164129,-0.1576 -0.018,-0.014 -0.06201,-0.049 -0.09802,-0.077 -0.39207,-0.3060001 -0.748435,-0.6739001 -0.955272,-0.9861001 -0.03301,-0.05 -0.07801,-0.1358 -0.208037,-0.3954 -0.09102,-0.1824 -0.16593,-0.3359 -0.16593,-0.341 0,-0.031 -0.024,0.017 -0.03501,0.069 0,0.018 -0.01,0.046 -0.01,0.062 0,0.017 -0.01,0.063 -0.019,0.1032 -0.024,0.1092 -0.029,0.1394 -0.04901,0.3 -0.01,0.081 -0.022,0.1687 -0.026,0.1945 -0.04301,0.2749 -0.121922,0.4129 -0.280351,0.49 -0.026,0.013 -0.06801,0.029 -0.09402,0.036 -0.04301,0.012 -0.05401,0.013 -0.124223,0.013 -0.07101,-10e-5 -0.08101,0 -0.121922,-0.013 -0.105819,-0.031 -0.193935,-0.086 -0.292452,-0.1809 -0.212539,-0.2056 -0.405273,-0.5506 -0.512193,-0.9166 -0.134924,-0.4618 -0.177732,-0.9854 -0.120921,-1.479 0.025,-0.2188 0.07101,-0.4479 0.126022,-0.6238 0.021,-0.069 0.05401,-0.2022 0.07301,-0.2973 0.03301,-0.1655 0.07001,-0.2757 0.115021,-0.342 l 0.013,-0.019 -0.01,-0.027 c -0.016,-0.059 -0.03101,-0.08 -0.117021,-0.1651 -0.06801,-0.067 -0.08702,-0.09 -0.123123,-0.143 -0.106619,-0.158 -0.251545,-0.4209 -0.33666,-0.6109 -0.06401,-0.1436 -0.127823,-0.3093 -0.225141,-0.5868 -0.06001,-0.1718 -0.09402,-0.2666 -0.121822,-0.3422 -0.019,-0.051 -0.03301,-0.099 -0.06101,-0.211 -0.04401,-0.1731 -0.08001,-0.2573 -0.176331,-0.4102 -0.07101,-0.1121 -0.286952,-0.4058 -0.433078,-0.5883 -0.11192,-0.1399 -0.16383,-0.2089 -0.21854,-0.2906 -0.24784395,-0.3701 -0.28885195,-0.676 -0.128723,-0.9594 0.08602,-0.1525 0.210138,-0.2513 0.372367,-0.2969 0.241144,-0.068 0.555,-0.02 0.956672,0.1461 0.09902,0.041 0.334961,0.1583 0.44368,0.2209 0.189934,0.1092 0.232442,0.1387 0.370267,0.2576 0.07201,0.062 0.122922,0.1 0.161229,0.1201 l 0.03101,0.016 0.11482,0.01 c 0.06301,0 0.202437,0.013 0.309456,0.019 l 0.194635,0.012 0.128923,0.03 c 0.273849,0.064 0.360165,0.086 0.487588,0.1254 0.195135,0.06 0.330659,0.1221 0.541597,0.2488 0.638115,0.3833 1.105599,0.7232 1.55188,1.1283 0.09102,0.083 0.300954,0.2893 0.397971,0.3919 0.33066,0.3493 0.646817,0.757 0.94157,1.2141 0.144726,0.2244 0.194535,0.3088 0.254546,0.4313 0.06101,0.1252 0.100018,0.2172 0.211338,0.5039 0.131323,0.3382 0.421376,0.9692 0.691824,1.5048 0.06701,0.1328 0.144226,0.2899 0.171531,0.3492 0.100018,0.217 0.160629,0.3295 0.224841,0.4158 0.04601,0.061 0.07601,0.079 0.22314,0.1299 0.04601,0.016 0.11012,0.042 0.1430261,0.058 0.07601,0.037 0.140925,0.067 0.322758,0.1457 0.342061,0.1487 0.420675,0.1911 0.695925,0.3756 0.264148,0.177 0.491188,0.3446 0.780641,0.5762 0.148626,0.1189 0.359864,0.2952 0.404972,0.3379 0.04401,0.042 0.10752,0.1176001 0.190235,0.2274001 0.07301,0.097 0.108719,0.1418 0.151427,0.1898 l 0.029,0.033 10e-5,0.036 c 0,0.03 0,0.036 -0.01,0.038 -0.140425,0.041 -0.387969,0.1101 -0.430177,0.1203 -0.07901,0.019 -0.185433,0.035 -0.365666,0.054 -0.248745,0.027 -0.303254,0.037 -0.528995,0.099 -0.169231,0.046 -0.301154,0.077 -0.379368,0.089 -0.04901,0.01 -0.05401,0.01 -0.04801,0.015 0,0 0.017,0.028 0.03001,0.054 0.07601,0.1492 0.237343,0.2789 0.640316,0.5156 0.16943,0.099 0.245544,0.149 0.350863,0.2279 0.179232,0.1343 0.292252,0.2322 0.451181,0.3908 0.120622,0.1204 0.189434,0.1967 0.268748,0.2978 0.03201,0.04 0.09602,0.11 0.177032,0.1922 0.09102,0.092 0.131424,0.1364 0.141326,0.1547 0.01,0.014 0.027,0.058 0.04301,0.098 0.016,0.04 0.03801,0.084 0.04701,0.1 0.017,0.026 0.023,0.046 0.015,0.046 0,0 -0.017,-0.01 -0.03201,-0.016 z M 3.8422299,3.8688219 c -0.01,-0.019 -0.05001,-0.1057 -0.09202,-0.1933 -0.08401,-0.1765 -0.08802,-0.182 -0.185733,-0.2907 -0.06801,-0.075 -0.106019,-0.1242 -0.133424,-0.1712 -0.013,-0.023 -0.022,-0.033 -0.02801,-0.033 -0.012,0 -0.012,-0.017 0,-0.021 0.04401,-0.014 0.219439,-0.036 0.28155,-0.036 l 0.04401,0 0.03101,0.025 c 0.017,0.014 0.05201,0.039 0.07801,0.057 0.02601,0.018 0.06301,0.048 0.08301,0.068 0.03401,0.033 0.03901,0.042 0.06901,0.1049 0.018,0.038 0.03801,0.076 0.04501,0.085 0.012,0.016 0.012,0.017 0.01,0.073 -0.01,0.1255 -0.04301,0.2294 -0.101718,0.2932 -0.02,0.021 -0.07701,0.072 -0.08102,0.072 0,0 -0.01,-0.015 -0.019,-0.034 z"/></svg>