<svg aria-labelledby="gui-paragraph" role="img" focusable="false" aria-hidden="true" xmlns="http://www.w3.org/2000/svg" viewBox="0 0 14 14"><path d="M9.57119687 7.00002484c-.0021427-.09256444-.00899932-.55881492-.32783237-1.12234377-.31111935-.56438593-.98092589-1.1699116-2.03598903-1.42403527-.65866452-.17441539-.84636462-.42596781-.96378432-.61195376-.05442446-.09513567-.08099388-.18341471-.09256444-.23955333-.00428539-.02099841-.00642808-.03685436-.0077137-.04628222.03171189-.53824504.1679873-.5729567.38268537-.7178029.1118487-.05656716.2468385-.09256444.34754517-.10842038.04928199-.00814225.09085028-.01242764.11356285-.0141418.00642808-.00042853.01157055-.00085707.01499886-.00085707.5519583.02914065.58538435.16584461.73065908.38354245.05742424.11099161.09256444.2468385.10927746.34625955.00814224.0505676.01242763.09085028.0141418.11484847.0012856.01157055.0012856.01928425.0012856.02185549l.27683623-.00942786h1.43731998c-.00514247-.07156602.00599954-.60552568-.3051198-1.24062055-.28240724-.64023734-1.1060593-1.36018295-2.2661145-1.33018521-.07156602.00428539-.60552568-.00642809-1.24062055.30383418-.6398088.28326432-1.3597544 1.10648783-1.33061375 2.26697158.00171415.09256443.00899932.55881492.3269753 1.1214867.09170735.16627314.2185549.33511753.3732575.4983909-.17441539.18255764-.31154788.37797145-.39597008.56824279-.30983373.63509487-.29997733 1.16905453-.30426272 1.24062055.00171415.09170735.00899932.55881492.32740383 1.1214867.3115479.56352884.98135443 1.16948306 2.03556049 1.42317818.6595216.17484393.8472217.42596781.96421286.61195376.05442446.0955642.08056534.18470033.09299298.23998187.00428539.0197128.00685662.0351402.0077137.0449966-.03042627.54081628-.16755877.57467086-.38225683.72037414-.1118487.0569957-.24726704.09170736-.3466881.1075633-.0505676.00899932-.09085027.01285617-.11484846.0141418-.00899932.00042853-.01628448.00085707-.0197128.0012856-.54681582-.0308548-.5806704-.16670168-.72594515-.38354244-.05656715-.11142015-.09256443-.2468385-.10842038-.34754517-.00899932-.049282-.01242763-.09085028-.01414179-.11399139-.00171415-.01028493-.00171415-.01714156-.00171415-.02056987v-.00171416l-.28583555.01028494h-1.4287492c.00471394.07070894-.00514246.6046686.30426273 1.24062055.2776933.62695263 1.07349032 1.33104229 2.19711971 1.33104229.02314111 0 .04628222-.00042854.0702804-.00085708.07156603-.00471393.60552569.00642809 1.23976348-.30469126.64023734-.28240724 1.36104002-1.10648783 1.33061375-2.2661145-.00171416-.09342151-.00899932-.56010054-.32654676-1.12234377-.0921359-.16627315-.21855491-.334689-.3732575-.49796238.17398685-.18298617.31154788-.37839998.395113-.56824278.31154788-.63509487.30040587-1.16819745.3051198-1.23976347zm-1.8590024.5146754c-.13070441.17655809-.18512887.29697756-.61495354.33383192-.56610008-.1722727-.7430867-.40368379-.85236417-.57767064-.05571007-.09556421-.08099388-.18341471-.09342151-.23998187-.00428539-.01928426-.00642809-.03471166-.0077137-.04456806.005571-.07756557.04328244-.33211776.14527474-.50181923.12984733-.17612955.18427179-.29654902.6123823-.33426046.5673857.1722727.74480087.40368379.8549354.57767064.05442446.09642129.08099388.1842718.09299298.24083895.00428539.0197128.00728516.03556874.00814224.0449966-.00685663.0801368-.04371098.33211776-.14527474.50096215z"/></svg>