<svg xmlns="http://www.w3.org/2000/svg" id="libre-camera-panorama" viewBox="0 0 14 14"><path d="m 5.108323,2.6602375 3.8001485,0 0,8.6486495 -3.8001485,0 z M 13,12.574907 l 0,-5.5749095 0,-5.57489 c 0,-0.19298 -0.20155,-0.31974 -0.375498,-0.23616 l -3.124192,1.50138 0,4.30966 0,4.3096895 3.124205,1.50136 C 12.79845,12.894637 13,12.767877 13,12.574907 Z m -11.6245022,0.23615 3.1242053,-1.50138 0,-4.3096795 0,-4.30967 -3.1242053,-1.50138 C 1.2015633,1.1053575 1,1.2321175 1,1.4251075 l 0,5.57489 0,5.5749095 c 0,0.19297 0.2015633,0.31973 0.3754978,0.23615 z"/></svg>