<?xml version="1.0" encoding="UTF-8" standalone="no"?>
<!-- Generator: Adobe Illustrator 16.0.0, SVG Export Plug-In . SVG Version: 6.00 Build 0)  -->

<svg
   xmlns:dc="http://purl.org/dc/elements/1.1/"
   xmlns:cc="http://creativecommons.org/ns#"
   xmlns:rdf="http://www.w3.org/1999/02/22-rdf-syntax-ns#"
   xmlns:svg="http://www.w3.org/2000/svg"
   xmlns="http://www.w3.org/2000/svg"
   xmlns:sodipodi="http://sodipodi.sourceforge.net/DTD/sodipodi-0.dtd"
   xmlns:inkscape="http://www.inkscape.org/namespaces/inkscape"
   version="1.1"
   id="Layer_1"
   x="0px"
   y="0px"
   width="14"
   height="14"
   viewBox="0 0 14 14"
   enable-background="new 0 0 100 100"
   xml:space="preserve"
   inkscape:version="0.48.4 r9939"
   sodipodi:docname="libre-seo-performance.svg"><metadata
     id="metadata19"><rdf:RDF><cc:Work
         rdf:about=""><dc:format>image/svg+xml</dc:format><dc:type
           rdf:resource="http://purl.org/dc/dcmitype/StillImage" /></cc:Work></rdf:RDF></metadata><defs
     id="defs17" /><sodipodi:namedview
     pagecolor="#ffffff"
     bordercolor="#666666"
     borderopacity="1"
     objecttolerance="10"
     gridtolerance="10"
     guidetolerance="10"
     inkscape:pageopacity="0"
     inkscape:pageshadow="2"
     inkscape:window-width="1920"
     inkscape:window-height="1030"
     id="namedview15"
     showgrid="false"
     inkscape:zoom="0.69211488"
     inkscape:cx="1291.7683"
     inkscape:cy="773.72045"
     inkscape:window-x="0"
     inkscape:window-y="0"
     inkscape:window-maximized="1"
     inkscape:current-layer="Layer_1" /><g
     id="g2996"
     transform="matrix(0.12455498,0,0,0.12455498,0.772251,-241.90177)"><path
       inkscape:connector-curvature="0"
       id="path3"
       d="m 96,1970.601 -11.722,-10.222 -11.722,-10.222 -11.722,10.222 -11.722,10.222 H 61.94 c -4.32,26.531 -28.833,47.17 -56.729,42.781 -1.227,-0.192 -1.724,1.46 -0.518,1.879 34.716,12.082 74.711,-7.77 80.496,-44.66 H 96 z" /><path
       inkscape:connector-curvature="0"
       id="path5"
       d="m 70,2004.879 c -3.604,3.332 -7.635,6.235 -12,8.663 v 32.958 h 12 v -41.621 z" /><path
       inkscape:connector-curvature="0"
       id="path7"
       d="m 40,2046.5 h 12 v -30.019 c -3.813,1.626 -7.827,2.907 -12,3.802 v 26.217 z" /><path
       inkscape:connector-curvature="0"
       id="path9"
       d="m 76,2046.5 h 12 v -72.899 h -0.303 c -1.883,9.304 -5.97,17.725 -11.697,24.838 v 48.061 z" /><path
       inkscape:connector-curvature="0"
       id="path11"
       d="m 16,2021.083 c -4.075,-0.595 -8.088,-1.552 -12,-2.894 v 28.311 h 12 v -25.417 z" /><path
       inkscape:connector-curvature="0"
       id="path13"
       d="m 22,2046.5 h 12 v -25.208 c -2.729,0.331 -5.51,0.505 -8.335,0.505 -1.226,0 -2.447,-0.046 -3.665,-0.112 v 24.815 z" /></g></svg>