<?xml version="1.0" encoding="UTF-8" standalone="no"?>
<svg
   xmlns:dc="http://purl.org/dc/elements/1.1/"
   xmlns:cc="http://creativecommons.org/ns#"
   xmlns:rdf="http://www.w3.org/1999/02/22-rdf-syntax-ns#"
   xmlns:svg="http://www.w3.org/2000/svg"
   xmlns="http://www.w3.org/2000/svg"
   xmlns:sodipodi="http://sodipodi.sourceforge.net/DTD/sodipodi-0.dtd"
   xmlns:inkscape="http://www.inkscape.org/namespaces/inkscape"
   width="14"
   height="14"
   viewBox="0 0 14 14"
   id="svg2"
   version="1.1"
   inkscape:version="0.48.4 r9939"
   sodipodi:docname="libre-files.svg">
  <metadata
     id="metadata10">
    <rdf:RDF>
      <cc:Work
         rdf:about="">
        <dc:format>image/svg+xml</dc:format>
        <dc:type
           rdf:resource="http://purl.org/dc/dcmitype/StillImage" />
      </cc:Work>
    </rdf:RDF>
  </metadata>
  <defs
     id="defs8" />
  <sodipodi:namedview
     pagecolor="#ffffff"
     bordercolor="#666666"
     borderopacity="1"
     objecttolerance="10"
     gridtolerance="10"
     guidetolerance="10"
     inkscape:pageopacity="0"
     inkscape:pageshadow="2"
     inkscape:window-width="1920"
     inkscape:window-height="1030"
     id="namedview6"
     showgrid="false"
     inkscape:zoom="1.0814295"
     inkscape:cx="627.96623"
     inkscape:cy="1024"
     inkscape:window-x="0"
     inkscape:window-y="0"
     inkscape:window-maximized="1"
     inkscape:current-layer="svg2" />
  <path
     d="m 12.35714,3.571429 q 0.26786,0 0.45536,0.187499 Q 13,3.946429 13,4.214286 v 8.142857 Q 13,12.625 12.8125,12.8125 12.625,13 12.35714,13 H 5.92857 Q 5.66071,13 5.47321,12.8125 5.28571,12.625 5.28571,12.357143 V 10.428571 H 1.642857 Q 1.375,10.428571 1.1875,10.241072 1,10.053571 1,9.785714 v -4.5 Q 1,5.017857 1.133929,4.696429 1.267857,4.375 1.455357,4.1875 L 4.1875,1.455357 Q 4.375,1.267857 4.69643,1.133928 5.01786,1 5.28571,1 h 2.78572 q 0.26786,0 0.45536,0.1875 0.1875,0.1875 0.1875,0.455357 V 3.839286 Q 9.16964,3.571429 9.57143,3.571429 h 2.78571 z M 8.71429,4.997768 6.71205,7 H 8.71429 V 4.997768 z M 4.42857,2.426339 2.42634,4.428571 H 4.42857 V 2.426339 z M 5.74107,6.758928 7.85714,4.642857 V 1.857143 H 5.28571 v 2.785714 q 0,0.267857 -0.1875,0.455357 -0.1875,0.1875 -0.45535,0.1875 H 1.857143 V 9.571429 H 5.28571 V 7.857143 q 0,-0.267857 0.13393,-0.589286 0.13393,-0.321428 0.32143,-0.508929 z m 6.40179,5.383929 V 4.428571 H 9.57143 v 2.785715 q 0,0.267857 -0.1875,0.455357 -0.1875,0.1875 -0.45536,0.1875 H 6.14286 v 4.285714 h 6 z"
     id="path4"
     inkscape:connector-curvature="0" />
</svg>
