<svg xmlns="http://www.w3.org/2000/svg" width="14" height="14" viewBox="0 0 14 14"><path d="M 5,10 Q 5,9.58594 4.70703,9.29297 4.41406,9 4,9 3.58594,9 3.29297,9.29297 3,9.58594 3,10 3,10.41406 3.29297,10.70703 3.58594,11 4,11 4.41406,11 4.70703,10.70703 5,10.41406 5,10 z m 2.74219,0.73438 Q 7.64062,8.92188 6.35937,7.64063 5.07812,6.35938 3.26562,6.25781 q -0.10937,-0.008 -0.1875,0.0703 -0.0781,0.0781 -0.0781,0.17968 v 1 q 0,0.10157 0.0664,0.17188 0.0664,0.0703 0.16796,0.0781 1.20313,0.0859 2.0625,0.94532 0.85938,0.85937 0.94532,2.0625 0.008,0.10156 0.0781,0.16796 0.0703,0.0664 0.17188,0.0664 h 1 q 0.10156,0 0.17968,-0.0781 0.0781,-0.0781 0.0703,-0.1875 z m 3,0.008 Q 10.70309,9.53925 10.30469,8.41816 9.90625,7.29707 9.21484,6.38691 8.52344,5.47675 7.61328,4.78535 6.70312,4.09394 5.58203,3.6955 4.46094,3.29707 3.25781,3.258 3.14844,3.25 3.07812,3.3283 3.00002,3.4064 3.00002,3.50798 v 1 q 0,0.10157 0.0703,0.17188 0.0703,0.0703 0.17188,0.0781 1.59375,0.0547 2.95312,0.8711 1.35938,0.8164 2.17578,2.17578 0.81641,1.35937 0.8711,2.95312 0.008,0.10157 0.0781,0.17188 0.0703,0.0703 0.17188,0.0703 h 1 q 0.10156,0 0.17968,-0.0781 0.0859,-0.0703 0.0703,-0.17969 z M 13,3.25 v 7.5 q 0,0.92969 -0.66016,1.58984 Q 11.67969,13 10.75,13 H 3.25 Q 2.32031,13 1.66016,12.33984 1,11.67969 1,10.75 V 3.25 Q 1,2.32031 1.66016,1.66016 2.32031,1 3.25,1 h 7.5 Q 11.67969,1 12.33984,1.66016 13,2.32031 13,3.25 z"/></svg>