<?xml version="1.0" encoding="UTF-8" standalone="no"?>
<!-- Generator: Adobe Illustrator 15.0.0, SVG Export Plug-In . SVG Version: 6.00 Build 0)  -->

<svg
   xmlns:dc="http://purl.org/dc/elements/1.1/"
   xmlns:cc="http://creativecommons.org/ns#"
   xmlns:rdf="http://www.w3.org/1999/02/22-rdf-syntax-ns#"
   xmlns:svg="http://www.w3.org/2000/svg"
   xmlns="http://www.w3.org/2000/svg"
   xmlns:sodipodi="http://sodipodi.sourceforge.net/DTD/sodipodi-0.dtd"
   xmlns:inkscape="http://www.inkscape.org/namespaces/inkscape"
   version="1.1"
   id="Layer_1"
   x="0px"
   y="0px"
   width="14"
   height="14"
   viewBox="0 0 14 14"
   enable-background="new 0 0 26 26"
   xml:space="preserve"
   inkscape:version="0.48.4 r9939"
   sodipodi:docname="libre-os-general.svg"><metadata
     id="metadata17"><rdf:RDF><cc:Work
         rdf:about=""><dc:format>image/svg+xml</dc:format><dc:type
           rdf:resource="http://purl.org/dc/dcmitype/StillImage" /></cc:Work></rdf:RDF></metadata><defs
     id="defs15" /><sodipodi:namedview
     pagecolor="#ffffff"
     bordercolor="#666666"
     borderopacity="1"
     objecttolerance="10"
     gridtolerance="10"
     guidetolerance="10"
     inkscape:pageopacity="0"
     inkscape:pageshadow="2"
     inkscape:window-width="1920"
     inkscape:window-height="1030"
     id="namedview13"
     showgrid="false"
     inkscape:zoom="0.33274754"
     inkscape:cx="1945.5415"
     inkscape:cy="2338.7566"
     inkscape:window-x="0"
     inkscape:window-y="0"
     inkscape:window-maximized="1"
     inkscape:current-layer="Layer_1" /><g
     id="g3"
     transform="matrix(0.71424316,0,0,0.71424316,-2.606928,-1.9798221)"><path
       d="M 20.037,4.172 H 6.864 c -1,0 -1.814,0.814 -1.814,1.814 V 19.16 c 0,1 0.814,1.813 1.814,1.813 h 13.173 c 1.001,0 1.814,-0.813 1.814,-1.813 V 5.986 c 0.001,-1 -0.813,-1.814 -1.814,-1.814 z M 6.864,19.16 V 8.248 H 20.037 L 20.039,19.16 H 6.864 z"
       id="path5"
       inkscape:connector-curvature="0" /><rect
       x="8.0279999"
       y="10.266"
       width="6.349"
       height="0.80800003"
       id="rect7" /><polygon
       points="18.873,10.264 18.065,10.264 18.065,13.035 12.524,13.035 12.524,13.842 18.065,13.842 18.065,16.612 18.873,16.612 18.873,13.842 18.873,13.035 "
       id="polygon9" /><rect
       x="8.7449999"
       y="15.914"
       width="6.349"
       height="0.80800003"
       id="rect11" /></g></svg>