<?xml version="1.0" encoding="UTF-8" standalone="no"?>
<svg
   xmlns:dc="http://purl.org/dc/elements/1.1/"
   xmlns:cc="http://creativecommons.org/ns#"
   xmlns:rdf="http://www.w3.org/1999/02/22-rdf-syntax-ns#"
   xmlns:svg="http://www.w3.org/2000/svg"
   xmlns="http://www.w3.org/2000/svg"
   xmlns:sodipodi="http://sodipodi.sourceforge.net/DTD/sodipodi-0.dtd"
   xmlns:inkscape="http://www.inkscape.org/namespaces/inkscape"
   width="14"
   height="14"
   viewBox="0 0 14 14"
   id="svg2"
   version="1.1"
   inkscape:version="0.48.4 r9939"
   sodipodi:docname="libre-refresh.svg">
  <metadata
     id="metadata10">
    <rdf:RDF>
      <cc:Work
         rdf:about="">
        <dc:format>image/svg+xml</dc:format>
        <dc:type
           rdf:resource="http://purl.org/dc/dcmitype/StillImage" />
      </cc:Work>
    </rdf:RDF>
  </metadata>
  <defs
     id="defs8" />
  <sodipodi:namedview
     pagecolor="#ffffff"
     bordercolor="#666666"
     borderopacity="1"
     objecttolerance="10"
     gridtolerance="10"
     guidetolerance="10"
     inkscape:pageopacity="0"
     inkscape:pageshadow="2"
     inkscape:window-width="1920"
     inkscape:window-height="1030"
     id="namedview6"
     showgrid="false"
     inkscape:zoom="1.0814295"
     inkscape:cx="627.96623"
     inkscape:cy="1024"
     inkscape:window-x="0"
     inkscape:window-y="0"
     inkscape:window-maximized="1"
     inkscape:current-layer="svg2" />
  <path
     d="m 12.80469,8.25 q 0,0.03906 -0.008,0.05469 -0.5,2.093751 -2.09376,3.394532 Q 9.10937,13 6.96875,13 5.82812,13 4.76172,12.570312 3.69531,12.140625 2.85938,11.34375 L 1.851562,12.351563 Q 1.703125,12.5 1.5,12.5 1.296875,12.5 1.148437,12.351563 1,12.203125 1,12 V 8.5 Q 1,8.296875 1.148437,8.148438 1.296875,8 1.5,8 H 5 Q 5.20312,8 5.35156,8.148438 5.5,8.296875 5.5,8.5 5.5,8.703125 5.35156,8.851562 L 4.28125,9.921875 Q 4.83594,10.4375 5.53906,10.71875 6.24219,11 7,11 8.04687,11 8.95313,10.492187 9.85937,9.984375 10.40625,9.09375 10.49215,8.960938 10.82031,8.179688 10.88281,8 11.05469,8 h 1.5 q 0.10156,0 0.17578,0.07422 0.0742,0.07422 0.0742,0.175781 z M 13,2 V 5.5 Q 13,5.703125 12.85156,5.851562 12.70313,6 12.5,6 H 9 Q 8.79687,6 8.64844,5.851562 8.5,5.703125 8.5,5.5 8.5,5.296875 8.64844,5.148438 L 9.72656,4.070312 Q 8.57031,3 7,3 5.95313,3 5.04688,3.507813 4.14063,4.015625 3.59375,4.90625 3.50785,5.039062 3.17969,5.820312 3.11719,6 2.94531,6 H 1.390625 Q 1.289062,6 1.214844,5.92578 1.140624,5.85156 1.140624,5.749999 V 5.695309 Q 1.648438,3.601562 3.25,2.300781 4.85156,1 7,1 8.14063,1 9.21875,1.433594 10.29687,1.867187 11.13281,2.65625 L 12.14844,1.648437 Q 12.29688,1.5 12.5,1.5 12.70313,1.5 12.85156,1.648437 13,1.796875 13,2 z"
     id="path4"
     inkscape:connector-curvature="0" />
</svg>
