<?xml version="1.0" encoding="UTF-8" standalone="no"?>
<svg
   xmlns:dc="http://purl.org/dc/elements/1.1/"
   xmlns:cc="http://creativecommons.org/ns#"
   xmlns:rdf="http://www.w3.org/1999/02/22-rdf-syntax-ns#"
   xmlns:svg="http://www.w3.org/2000/svg"
   xmlns="http://www.w3.org/2000/svg"
   xmlns:sodipodi="http://sodipodi.sourceforge.net/DTD/sodipodi-0.dtd"
   xmlns:inkscape="http://www.inkscape.org/namespaces/inkscape"
   width="14"
   height="14"
   viewBox="0 0 14 14"
   id="svg2"
   version="1.1"
   inkscape:version="0.48.4 r9939"
   sodipodi:docname="libre-globe.svg">
  <metadata
     id="metadata10">
    <rdf:RDF>
      <cc:Work
         rdf:about="">
        <dc:format>image/svg+xml</dc:format>
        <dc:type
           rdf:resource="http://purl.org/dc/dcmitype/StillImage" />
      </cc:Work>
    </rdf:RDF>
  </metadata>
  <defs
     id="defs8" />
  <sodipodi:namedview
     pagecolor="#ffffff"
     bordercolor="#666666"
     borderopacity="1"
     objecttolerance="10"
     gridtolerance="10"
     guidetolerance="10"
     inkscape:pageopacity="0"
     inkscape:pageshadow="2"
     inkscape:window-width="1920"
     inkscape:window-height="1030"
     id="namedview6"
     showgrid="false"
     inkscape:zoom="0.30638365"
     inkscape:cx="295.05401"
     inkscape:cy="2238.1746"
     inkscape:window-x="0"
     inkscape:window-y="0"
     inkscape:window-maximized="1"
     inkscape:current-layer="svg2" />
  <path
     d="m 7,1 q 1.63281,0 3.01172,0.804688 1.3789,0.804687 2.18359,2.183594 Q 13,5.367187 13,7 13,8.632813 12.19531,10.011718 11.39062,11.390625 10.01172,12.195312 8.63281,13 7,13 5.36719,13 3.98828,12.195312 2.60937,11.390625 1.804688,10.011718 1,8.632813 1,7 1,5.367187 1.804688,3.988282 2.60937,2.609375 3.98828,1.804688 5.36719,1 7,1 z m 2.14062,4.070312 q -0.0156,0.0078 -0.0742,0.07422 -0.0586,0.06641 -0.10547,0.07422 0.0156,0 0.0352,-0.03906 0.0195,-0.03906 0.0391,-0.08594 0.0195,-0.04687 0.0273,-0.05469 0.0469,-0.05469 0.17188,-0.117187 0.10937,-0.04687 0.40624,-0.09375 0.26563,-0.0625 0.39844,0.08594 -0.0156,-0.01563 0.0742,-0.101563 0.0898,-0.08594 0.11328,-0.09375 0.0234,-0.01563 0.11719,-0.03516 0.0937,-0.01953 0.11719,-0.05859 l 0.0156,-0.171875 q -0.0937,0.0078 -0.13672,-0.05469 -0.043,-0.0625 -0.0508,-0.164063 0,0.01563 -0.0469,0.0625 0,-0.05469 -0.0352,-0.0625 -0.0352,-0.0078 -0.0898,0.0078 -0.0547,0.01563 -0.0703,0.0078 Q 9.96875,4.226534 9.92966,4.191384 9.89056,4.156224 9.86716,4.062478 9.84376,3.968728 9.83596,3.94529 9.82036,3.90623 9.76176,3.86326 9.70316,3.82029 9.68756,3.78123 9.67956,3.7656 9.66806,3.73826 9.65636,3.71092 9.64466,3.68748 9.63296,3.66404 9.61346,3.64451 9.59396,3.62498 9.57046,3.62498 q -0.0234,0 -0.0547,0.03906 -0.0312,0.03906 -0.0586,0.07813 -0.0273,0.03906 -0.0352,0.03906 -0.0234,-0.01563 -0.0469,-0.01172 -0.0234,0.0039 -0.0352,0.0078 -0.0117,0.0039 -0.0352,0.02344 -0.0234,0.01953 -0.0391,0.02734 -0.0234,0.01563 -0.0664,0.02344 -0.043,0.0078 -0.0664,0.01562 Q 9.24995,3.82809 9.12476,3.78121 9.04666,3.74996 8.99976,3.75777 9.07006,3.72652 9.05836,3.66402 9.04666,3.60152 8.99196,3.554646 h 0.0391 Q 9.02306,3.523396 8.96466,3.488236 8.90606,3.453076 8.82794,3.421826 8.74984,3.390576 8.72638,3.374956 8.66388,3.335896 8.46076,3.300736 8.25763,3.265576 8.20295,3.296836 q -0.0391,0.04687 -0.0352,0.08203 0.004,0.03516 0.0312,0.109374 0.0273,0.07422 0.0273,0.09766 0.008,0.04687 -0.043,0.101562 -0.0508,0.05469 -0.0508,0.09375 0,0.05469 0.10938,0.121094 0.10937,0.06641 0.0781,0.167968 -0.0234,0.0625 -0.125,0.125001 -0.10156,0.0625 -0.125,0.09375 -0.0391,0.0625 -0.0117,0.144532 0.0273,0.08203 0.082,0.128906 0.0156,0.01563 0.0117,0.03125 -0.004,0.01563 -0.0273,0.03516 -0.0234,0.01953 -0.043,0.03125 -0.0195,0.01172 -0.0508,0.02734 l -0.0234,0.01563 Q 7.92153,4.742153 7.84728,4.656223 7.77308,4.570283 7.74181,4.453098 7.68711,4.257786 7.61681,4.218723 7.43712,4.156223 7.39024,4.226523 7.35114,4.12496 7.06993,4.023398 6.87462,3.953088 6.61681,3.992148 q 0.0469,-0.0078 0,-0.117188 -0.0547,-0.117187 -0.14844,-0.09375 0.0234,-0.04687 0.0312,-0.136719 0.008,-0.08984 0.008,-0.105469 0.0234,-0.101562 0.0937,-0.179687 0.008,-0.0078 0.0547,-0.06641 0.0469,-0.05859 0.0742,-0.105468 0.0273,-0.04687 0.004,-0.04687 0.27343,0.03125 0.39062,-0.08594 0.0391,-0.03906 0.0898,-0.132812 0.0508,-0.09375 0.082,-0.132813 0.0703,-0.04687 0.10938,-0.04297 0.0391,0.0039 0.11328,0.04297 0.0742,0.03906 0.11328,0.03906 0.10938,0.0078 0.1211,-0.08594 0.0117,-0.09375 -0.0586,-0.156249 0.0937,0.0078 0.0234,-0.132813 -0.0391,-0.05469 -0.0625,-0.07031 -0.0937,-0.03125 -0.21094,0.03906 -0.0625,0.03125 0.0156,0.0625 -0.008,-0.0078 -0.0742,0.08203 -0.0664,0.08984 -0.12891,0.136719 -0.0625,0.04687 -0.125,-0.03906 -0.008,-0.0078 -0.043,-0.105469 -0.0352,-0.09766 -0.0742,-0.105469 -0.0625,0 -0.125,0.117187 0.0234,-0.0625 -0.0859,-0.117187 -0.10938,-0.05469 -0.1875,-0.0625 0.14844,-0.09375 -0.0625,-0.210937 -0.0547,-0.03125 -0.16016,-0.03906 -0.10547,-0.0078 -0.15234,0.03125 -0.0391,0.05469 -0.043,0.08984 -0.004,0.03516 0.0391,0.0625 0.043,0.02734 0.082,0.04297 0.0391,0.01563 0.0898,0.03125 0.0508,0.01563 0.0664,0.02344 0.10938,0.07813 0.0625,0.109375 -0.0156,0.0078 -0.0664,0.02734 -0.0508,0.01953 -0.0898,0.03516 -0.0391,0.01563 -0.0469,0.03125 -0.0234,0.03125 0,0.109375 0.0234,0.07813 -0.0156,0.109375 -0.0391,-0.03906 -0.0703,-0.136719 -0.0312,-0.09766 -0.0547,-0.128906 0.0547,0.07031 -0.19531,0.04687 l -0.0781,-0.0078 q -0.0313,0 -0.12501,0.01563 -0.0937,0.01562 -0.16015,0.0078 -0.0664,-0.0078 -0.10547,-0.0625 -0.0312,-0.0625 0,-0.15625 0.008,-0.03125 0.0312,-0.01563 -0.0312,-0.02344 -0.0859,-0.07422 -0.0547,-0.05078 -0.0781,-0.06641 -0.35938,0.117188 -0.73438,0.320313 0.0469,0.0078 0.0937,-0.0078 0.0391,-0.01563 0.10156,-0.05078 0.0625,-0.03516 0.0781,-0.04297 0.26563,-0.109375 0.32813,-0.05469 l 0.0391,-0.03906 Q 5.41372,2.515587 5.4606,2.5859 5.4059,2.55465 5.22622,2.5781 5.06997,2.62497 5.05435,2.67185 5.10905,2.7656 5.09345,2.812475 5.06225,2.789035 5.00365,2.734345 4.94505,2.679655 4.89037,2.648405 4.83567,2.617155 4.77318,2.609345 q -0.125,0 -0.17188,0.0078 -1.14062,0.625001 -1.83593,1.734375 0.0547,0.05469 0.0937,0.0625 0.0312,0.0078 0.0391,0.07031 0.008,0.0625 0.0195,0.08594 0.0117,0.02344 0.0898,-0.02344 0.0703,0.0625 0.0234,0.148437 0.008,-0.0078 0.34375,0.210938 0.14844,0.132812 0.16406,0.164062 0.0234,0.08594 -0.0781,0.140626 -0.008,-0.01563 -0.0703,-0.07031 -0.0625,-0.05469 -0.0703,-0.03125 -0.0234,0.03906 0.004,0.144532 0.0273,0.105468 0.082,0.09766 -0.0547,0 -0.0742,0.124999 -0.0195,0.125 -0.0195,0.277344 0,0.152344 -0.008,0.183594 l 0.0156,0.0078 q -0.0234,0.09375 0.043,0.269532 0.0664,0.175781 0.16797,0.152343 -0.10156,0.02344 0.15625,0.335938 0.0469,0.0625 0.0625,0.07031 0.0234,0.01563 0.0937,0.05859 0.0703,0.04297 0.11719,0.07813 0.0469,0.03516 0.0781,0.08203 0.0312,0.03906 0.0781,0.175781 0.0469,0.136719 0.10937,0.183593 -0.0156,0.04688 0.0742,0.156251 0.0898,0.109374 0.082,0.179687 -0.008,0 -0.0195,0.0078 -0.0117,0.0078 -0.0195,0.0078 0.0234,0.05469 0.12109,0.109375 0.0977,0.05469 0.1211,0.101563 0.008,0.02344 0.0156,0.07812 0.008,0.05469 0.0234,0.08594 0.0156,0.03125 0.0625,0.01563 Q 4.70255,7.937425 4.49945,7.6093 4.38226,7.413987 4.36664,7.382737 4.34324,7.343677 4.32364,7.261644 4.30414,7.179614 4.28844,7.148362 q 0.0156,0 0.0469,0.01172 0.0312,0.01172 0.0664,0.02734 0.0352,0.01563 0.0586,0.03125 0.0234,0.01563 0.0156,0.02344 -0.0234,0.05469 0.0156,0.136719 0.0391,0.08203 0.0937,0.144531 0.0547,0.0625 0.13281,0.148438 0.0781,0.08594 0.0937,0.101563 0.0469,0.04687 0.10938,0.152343 0.0625,0.105469 0,0.105469 0.0703,0 0.15625,0.07813 0.0859,0.07813 0.13281,0.15625 0.0391,0.0625 0.0625,0.203125 0.0234,0.140625 0.0391,0.1875 0.0156,0.05469 0.0664,0.105469 0.0508,0.05078 0.0977,0.07422 l 0.125,0.0625 0.10156,0.05469 q 0.0391,0.01563 0.14454,0.08203 0.10547,0.06641 0.16797,0.08984 0.0781,0.03125 0.12499,0.03125 0.0469,0 0.11329,-0.01953 0.0664,-0.01953 0.10547,-0.02734 0.11718,-0.01563 0.22656,0.117187 0.10937,0.132813 0.16406,0.164063 0.28125,0.148437 0.42969,0.08594 -0.0156,0.0078 0.004,0.05859 0.0195,0.05078 0.0625,0.121094 0.043,0.07031 0.0703,0.113281 0.0273,0.04297 0.043,0.06641 0.0391,0.04688 0.14062,0.117188 0.10156,0.07031 0.14062,0.117188 0.0469,-0.03125 0.0547,-0.07031 -0.0234,0.0625 0.0547,0.15625 0.0781,0.09375 0.14063,0.07813 0.10937,-0.02344 0.10937,-0.25 -0.24219,0.117187 -0.38281,-0.140625 0,-0.0078 -0.0195,-0.04297 -0.0195,-0.03516 -0.0312,-0.06641 -0.0117,-0.03125 -0.0195,-0.06641 -0.008,-0.03516 0,-0.05859 0.008,-0.02344 0.0391,-0.02344 0.0703,0 0.0781,-0.02734 0.008,-0.02734 -0.0156,-0.09766 -0.0234,-0.07031 -0.0312,-0.101562 -0.008,-0.0625 -0.0859,-0.15625 -0.0781,-0.09375 -0.0937,-0.117188 -0.0391,0.07031 -0.125,0.0625 -0.0859,-0.0078 -0.125,-0.07031 0,0.0078 -0.0117,0.04297 -0.0117,0.03516 -0.0117,0.05078 -0.10156,0 -0.11718,-0.0078 0.008,-0.02344 0.0195,-0.136718 0.0117,-0.113282 0.0273,-0.175782 0.008,-0.03125 0.043,-0.09375 0.0352,-0.0625 0.0586,-0.113282 0.0234,-0.05078 0.0312,-0.09766 0.008,-0.04687 -0.0352,-0.07422 -0.043,-0.02734 -0.13672,-0.01953 -0.14844,0.0078 -0.20313,0.15625 -0.008,0.02344 -0.0234,0.08203 -0.0156,0.05859 -0.0391,0.08984 -0.0234,0.03125 -0.0703,0.05469 -0.0547,0.02344 -0.1875,0.01562 -0.13281,-0.0078 -0.1875,-0.03906 -0.10156,-0.0625 -0.17578,-0.226562 -0.0742,-0.164063 -0.0742,-0.289063 0,-0.07813 0.0195,-0.207031 0.0195,-0.128907 0.0234,-0.195313 0.004,-0.06641 -0.043,-0.191406 0.0234,-0.01563 0.0703,-0.07422 0.0469,-0.05859 0.0781,-0.08203 0.0156,-0.0078 0.0352,-0.01172 0.0195,-0.0039 0.0352,0 0.0156,0.0039 0.0312,-0.01172 0.0156,-0.01562 0.0234,-0.04687 -0.008,-0.0078 -0.0312,-0.02344 -0.0234,-0.02344 -0.0312,-0.02344 0.0547,0.02344 0.22265,-0.01172 0.16797,-0.03516 0.21485,0.01172 0.11718,0.08594 0.17187,-0.01563 0,-0.0078 -0.0195,-0.07422 -0.0195,-0.06641 -0.004,-0.105469 0.0391,0.210938 0.22657,0.07031 0.0234,0.02344 0.12109,0.03906 0.0977,0.01563 0.13672,0.03906 0.0234,0.01563 0.0547,0.04297 0.0312,0.02734 0.043,0.03516 0.0117,0.0078 0.0391,-0.0039 0.0273,-0.01172 0.0664,-0.05078 0.0781,0.109375 0.0937,0.1875 0.0859,0.3125 0.14844,0.34375 0.0547,0.02344 0.0859,0.01563 0.0312,-0.0078 0.0352,-0.07422 0.004,-0.06641 0,-0.109376 -0.004,-0.04297 -0.0117,-0.09766 l -0.008,-0.0625 V 7.468688 l -0.008,-0.0625 Q 7.79615,7.382748 7.7688,7.312438 7.7415,7.242128 7.7805,7.167907 7.8196,7.093687 7.89769,7.023376 q 0.008,-0.0078 0.0625,-0.02734 0.0547,-0.01953 0.12109,-0.05078 0.0664,-0.03125 0.0977,-0.0625 0.16406,-0.148438 0.11719,-0.273438 0.0547,0 0.0859,-0.07031 -0.008,0 -0.0391,-0.02344 -0.0312,-0.02344 -0.0586,-0.03906 -0.0273,-0.01563 -0.0352,-0.01563 0.0703,-0.03906 0.0156,-0.124999 0.0391,-0.02344 0.0586,-0.08594 0.0195,-0.0625 0.0586,-0.07813 0.0703,0.09375 0.16407,0.01563 0.0547,-0.0625 0.008,-0.125 0.0391,-0.05469 0.16015,-0.08203 0.1211,-0.02734 0.14454,-0.07422 0.0547,0.01563 0.0625,-0.01563 0.008,-0.03125 0.008,-0.09375 0,-0.0625 0.0234,-0.09375 0.0312,-0.03906 0.11718,-0.07031 0.0859,-0.03125 0.10156,-0.03906 l 0.13282,-0.08594 q 0.0234,-0.03125 0,-0.03125 0.14062,0.01563 0.24218,-0.08594 0.0781,-0.08594 -0.0469,-0.15625 0.0234,-0.04687 -0.0234,-0.07422 -0.0469,-0.02734 -0.11718,-0.04297 0.0234,-0.0078 0.0898,-0.0039 0.0664,0.0039 0.082,-0.01172 Q 9.64788,5.023379 9.47599,4.9765 9.34318,4.93744 9.14005,5.07025 z m -1.27343,6.851563 q 1.60937,-0.28125 2.74218,-1.476562 -0.0234,-0.02344 -0.0977,-0.03516 -0.0742,-0.01172 -0.0977,-0.02734 -0.14062,-0.05469 -0.1875,-0.0625 0.008,-0.05469 -0.0195,-0.101562 -0.0273,-0.04687 -0.0625,-0.07031 -0.0352,-0.02344 -0.0977,-0.0625 -0.0625,-0.03906 -0.0859,-0.05469 -0.0156,-0.01563 -0.0547,-0.04687 -0.0391,-0.03125 -0.0547,-0.04297 -0.0156,-0.01172 -0.0586,-0.03516 -0.043,-0.02344 -0.0664,-0.01563 -0.0234,0.0078 -0.0781,0.0078 l -0.0234,0.0078 q -0.0234,0.0078 -0.043,0.01953 -0.0195,0.01172 -0.043,0.02344 -0.0234,0.01172 -0.0312,0.02344 -0.008,0.01172 0,0.01953 -0.16406,-0.132813 -0.28125,-0.171875 -0.0391,-0.0078 -0.0859,-0.04297 -0.0469,-0.03516 -0.082,-0.05469 -0.0352,-0.01953 -0.0781,-0.01172 -0.043,0.0078 -0.0898,0.05469 -0.0391,0.03906 -0.0469,0.117188 -0.008,0.07813 -0.0156,0.101562 -0.0547,-0.03906 0,-0.136719 0.0547,-0.09766 0.0156,-0.144531 -0.0234,-0.04687 -0.082,-0.03516 -0.0586,0.01172 -0.0937,0.03516 -0.0352,0.02344 -0.0898,0.06641 -0.0547,0.04297 -0.0703,0.05078 -0.0156,0.0078 -0.0664,0.04297 -0.0508,0.03516 -0.0664,0.05859 -0.0234,0.03125 -0.0469,0.09375 -0.0234,0.0625 -0.0391,0.08594 -0.0156,-0.03125 -0.0898,-0.05078 -0.0742,-0.01953 -0.0742,-0.04297 0.0156,0.07813 0.0312,0.273438 0.0156,0.195312 0.0391,0.296875 0.0547,0.242188 -0.0937,0.375 -0.21093,0.195313 -0.22656,0.3125 -0.0312,0.171875 0.0937,0.203125 0,0.05469 -0.0625,0.160157 -0.0625,0.105468 -0.0547,0.167968 0,0.04687 0.0156,0.125 z"
     id="path4"
     inkscape:connector-curvature="0" />
</svg>
