<svg xmlns="http://www.w3.org/2000/svg" width="14" height="14" viewBox="0 0 14 14"><g transform="matrix(0.02474477,0,0,0.02474477,0.99999952,0.99999952)"><path d="m 118.505,115.332 6.938,0 c 10.544,0 19.091,-8.55 19.091,-19.091 l 0,-52.683 0,-19.706 c 0,-10.541 -8.547,-19.09 -19.091,-19.09 l -6.938,0 c -10.543,0 -19.09,8.549 -19.09,19.09 l 0,19.707 0,52.682 c 0,10.541 8.547,19.091 19.09,19.091 z"/><path d="m 363.373,114.859 6.938,0 c 10.543,0 19.09,-8.549 19.09,-19.091 l 0,-57.21 0,-15.18 c 0,-10.54 -8.547,-19.089 -19.09,-19.089 l -6.938,0 c -10.545,0 -19.092,8.549 -19.092,19.089 l 0,15.18 0,57.209 c 0.002,10.543 8.549,19.092 19.092,19.092 z"/><path d="m 453.916,43.558 -48.996,0 0,57.209 c 0,19.084 -15.525,29.61 -34.607,29.61 l -6.938,0 c -19.084,0 -34.609,-15.526 -34.609,-34.61 l 0,-52.209 -168.713,0 0,52.682 c 0,19.084 -15.525,34.61 -34.609,34.61 l -6.938,0 c -19.083,0 -34.608,-15.526 -34.608,-34.61 l 0,-52.682 -52.862,0 C 13.923,43.558 0,57.481 0,74.595 l 0,375.03 c 0,17.114 13.923,31.037 31.036,31.037 l 422.88,0 c 17.113,0 31.035,-13.923 31.035,-31.037 l 0,-375.03 C 484.953,57.482 471.029,43.558 453.916,43.558 Z m 0,406.067 -422.879,0 -10e-4,-283.213 422.886,0 0.016,283.212 c -0.002,0 -0.008,10e-4 -0.022,10e-4 z"/><path d="m 258.498,261.41 55.727,0 c 2.209,0 4,-1.791 4,-4 l 0,-48.255 c 0,-2.209 -1.791,-4 -4,-4 l -55.727,0 c -2.209,0 -4,1.791 -4,4 l 0,48.255 c 0,2.209 1.791,4 4,4 z"/><path d="m 349.443,261.41 55.727,0 c 2.209,0 4,-1.791 4,-4 l 0,-48.255 c 0,-2.209 -1.791,-4 -4,-4 l -55.727,0 c -2.209,0 -4,1.791 -4,4 l 0,48.255 c 0,2.209 1.791,4 4,4 z"/><path d="m 76.611,340.41 55.726,0 c 2.209,0 4,-1.791 4,-4 l 0,-48.256 c 0,-2.209 -1.791,-4 -4,-4 l -55.726,0 c -2.209,0 -4,1.791 -4,4 l 0,48.256 c 0,2.209 1.791,4 4,4 z"/><path d="m 167.555,340.41 55.726,0 c 2.209,0 4,-1.791 4,-4 l 0,-48.256 c 0,-2.209 -1.791,-4 -4,-4 l -55.726,0 c -2.209,0 -4,1.791 -4,4 l 0,48.256 c 0,2.209 1.791,4 4,4 z"/><path d="m 258.499,340.41 55.726,0 c 2.209,0 4,-1.791 4,-4 l 0,-48.256 c 0,-2.209 -1.791,-4 -4,-4 l -55.726,0 c -2.209,0 -4,1.791 -4,4 l 0,48.256 c 0,2.209 1.791,4 4,4 z"/><path d="m 349.443,340.41 55.727,0 c 2.209,0 4,-1.791 4,-4 l 0,-48.256 c 0,-2.209 -1.791,-4 -4,-4 l -55.727,0 c -2.209,0 -4,1.791 -4,4 l 0,48.256 c 0,2.209 1.791,4 4,4 z"/><path d="m 132.337,363.154 -55.725,0 c -2.209,0 -4,1.791 -4,4 l 0,48.256 c 0,2.209 1.791,4 4,4 l 55.726,0 c 2.209,0 4,-1.791 4,-4 l 0,-48.256 c -0.001,-2.209 -1.792,-4 -4.001,-4 z"/><path d="m 223.282,363.154 -55.726,0 c -2.209,0 -4,1.791 -4,4 l 0,48.256 c 0,2.209 1.791,4 4,4 l 55.726,0 c 2.209,0 4,-1.791 4,-4 l 0,-48.256 c 0,-2.209 -1.791,-4 -4,-4 z"/><path d="m 314.227,363.154 -55.727,0 c -2.209,0 -4,1.791 -4,4 l 0,48.256 c 0,2.209 1.791,4 4,4 l 55.727,0 c 2.209,0 4,-1.791 4,-4 l 0,-48.256 c 0,-2.209 -1.791,-4 -4,-4 z"/><path d="m 405.17,363.154 -55.727,0 c -2.209,0 -4,1.791 -4,4 l 0,48.256 c 0,2.209 1.791,4 4,4 l 55.727,0 c 2.209,0 4,-1.791 4,-4 l 0,-48.256 c 0,-2.209 -1.791,-4 -4,-4 z"/></g></svg>