<?xml version="1.0" encoding="UTF-8" standalone="no"?>
<svg
   xmlns:dc="http://purl.org/dc/elements/1.1/"
   xmlns:cc="http://creativecommons.org/ns#"
   xmlns:rdf="http://www.w3.org/1999/02/22-rdf-syntax-ns#"
   xmlns:svg="http://www.w3.org/2000/svg"
   xmlns="http://www.w3.org/2000/svg"
   xmlns:sodipodi="http://sodipodi.sourceforge.net/DTD/sodipodi-0.dtd"
   xmlns:inkscape="http://www.inkscape.org/namespaces/inkscape"
   width="14"
   height="14"
   viewBox="0 0 14 14"
   id="svg2"
   version="1.1"
   inkscape:version="0.48.4 r9939"
   sodipodi:docname="libre-pie-chart.svg">
  <metadata
     id="metadata10">
    <rdf:RDF>
      <cc:Work
         rdf:about="">
        <dc:format>image/svg+xml</dc:format>
        <dc:type
           rdf:resource="http://purl.org/dc/dcmitype/StillImage" />
      </cc:Work>
    </rdf:RDF>
  </metadata>
  <defs
     id="defs8" />
  <sodipodi:namedview
     pagecolor="#ffffff"
     bordercolor="#666666"
     borderopacity="1"
     objecttolerance="10"
     gridtolerance="10"
     guidetolerance="10"
     inkscape:pageopacity="0"
     inkscape:pageshadow="2"
     inkscape:window-width="1920"
     inkscape:window-height="1030"
     id="namedview6"
     showgrid="false"
     inkscape:zoom="1.0814295"
     inkscape:cx="627.96623"
     inkscape:cy="1024"
     inkscape:window-x="0"
     inkscape:window-y="0"
     inkscape:window-maximized="1"
     inkscape:current-layer="svg2" />
  <path
     d="m 6.33333,7.402765 3.79167,3.79167 q -0.73611,0.75 -1.71875,1.16666 -0.98264,0.41667 -2.07292,0.41667 -1.45139,0 -2.67708,-0.71528 Q 2.43056,11.347205 1.715278,10.121515 1,8.895825 1,7.444435 1,5.993045 1.715278,4.767345 2.43056,3.541655 3.65625,2.826375 4.88194,2.111095 6.33333,2.111095 v 5.29167 z m 1.29861,0.0417 H 13 q 0,1.09027 -0.41667,2.07291 -0.41666,0.98264 -1.16666,1.71875 z m 4.92362,-0.88889 H 7.22222 v -5.33334 q 1.45139,0 2.67709,0.71528 1.22569,0.71528 1.94097,1.94097 0.71528,1.2257 0.71528,2.67709 z"
     id="path4"
     inkscape:connector-curvature="0" />
</svg>
