<svg xmlns="http://www.w3.org/2000/svg" width="14" height="14" viewBox="0 0 14 14"><path d="m 47.47,27.216 c -2.453,0 -4.447,-1.992 -4.447,-4.446 0,-2.456 1.994,-4.446 4.447,-4.446 2.458,0 4.446,1.99 4.446,4.446 0,2.454 -1.988,4.446 -4.446,4.446 z m 0,11.116 c -2.453,0 -4.447,-1.99 -4.447,-4.447 0,-2.456 1.994,-4.447 4.447,-4.447 2.458,0 4.446,1.991 4.446,4.447 0,2.456 -1.988,4.447 -4.446,4.447 z M 40.977,45 c 0,2.456 -2.165,4.798 -4.624,4.798 H 9.673 C 7.222,49.798 5.447,47.456 5.447,45 V 22.768 c 0,-2.454 1.775,-4.825 4.226,-4.825 h 26.679 c 2.459,0 4.624,2.371 4.624,4.825 V 45 z M 49.692,14.268 H 33.214 c -1.353,0 -1.748,-1.04 -0.88,-2.079 l 4.332,-5.294 c 0.867,-1.04 1.646,-1.913 1.739,-1.891 0.054,0.016 0.109,0.002 0.172,0.002 1.229,0 2.224,-1.005 2.224,-2.236 0,-1.225 -0.994,-2.228 -2.224,-2.228 -1.226,0 -2.224,0.995 -2.224,2.22 0,0.132 0.016,0.259 0.043,0.382 0.045,0.209 -0.59,1.211 -1.456,2.25 l -5.501,6.598 c -0.865,1.04 -1.751,1.882 -1.976,1.882 -0.225,0 -1.108,-0.842 -1.975,-1.883 L 19.99,5.396 C 19.123,4.355 18.482,3.351 18.526,3.142 18.552,3.018 18.567,2.891 18.567,2.76 c 0,-1.225 -0.994,-2.222 -2.224,-2.222 -1.225,0 -2.224,0.997 -2.224,2.222 0,1.23 0.999,2.224 2.224,2.224 0.064,0 0.121,-0.012 0.176,-0.026 0.095,-0.022 0.875,0.801 1.742,1.842 l 4.329,5.392 c 0.866,1.04 0.471,2.079 -0.881,2.079 H 5.228 C 2.776,14.269 0.547,15.867 0.547,18.322 v 31.125 c 0,2.459 2.229,4.027 4.681,4.027 h 44.465 c 2.458,0 4.761,-1.569 4.761,-4.027 V 18.321 C 54.453,15.866 52.15,14.268 49.692,14.268" transform="matrix(0.22260561,0,0,0.22260561,0.87823442,0.9883134)"/></svg>