<svg xmlns="http://www.w3.org/2000/svg" id="libre-brand-yelp" viewBox="0 0 14 14"><path d="M 11.14239,1 2.85761,1 C 1.831839,1 1,1.83184 1,2.85761 l 0,8.28427 C 1,12.16816 1.831839,13 2.85761,13 l 8.28478,0 C 12.168161,13 13,12.16816 13,11.14188 L 13,2.85761 C 12.999747,1.83209 12.167909,1 11.14239,1 Z M 9.069105,5.35234 c 0.411122,-0.36407 1.068699,-0.28986 1.422172,0.14247 l 0.238425,0.29116 c 0.354003,0.43182 0.289864,1.06869 -0.141434,1.42217 0,0 -0.48069,0.63194 -2.72513,0.75426 C 7.809608,7.9564 7.721174,7.883 7.745491,7.82251 7.923136,6.75692 8.658009,5.71718 9.069131,5.35234 Z M 4.435938,1.6149 5.00016,1.40726 C 6.181582,1.25933 7.201697,3.7802 7.101852,7.72506 7.069022,7.81196 6.914637,7.91357 6.830852,7.83109 5.247575,6.81229 3.95497,4.86625 3.571751,3.9258 3.189568,2.98511 3.602531,1.92262 4.435912,1.6149 Z M 2.777159,8.66111 2.774559,8.28386 c -0.0031,-0.55748 0.446827,-1.0131 1.004307,-1.01621 0,0 0.771336,-0.18953 2.592761,1.12714 0.03879,0.0378 0.06283,0.15047 0.0041,0.18178 C 5.567928,9.29309 4.34176,9.64113 3.793067,9.66542 3.245385,9.69072 2.780477,9.21913 2.777119,8.66111 Z m 5.065778,3.04136 c -0.04139,0.54844 -0.564727,0.95259 -1.118874,0.88898 l -0.374684,-0.0424 c -0.554904,-0.0631 -0.952844,-0.56369 -0.889236,-1.1186 0,0 -0.09618,-0.78891 1.429141,-2.43993 0.04343,-0.0334 0.157217,-0.0429 0.182292,0.0181 0.614649,0.8877 0.811158,2.14722 0.771336,2.69385 z m 3.307962,-1.71979 -0.141964,0.34959 c -0.211003,0.51715 -0.800552,0.76563 -1.317706,0.55541 0,0 -0.784795,-0.12025 -1.964651,-2.03319 -0.02015,-0.0494 0.0016,-0.16161 0.06671,-0.17014 1.02062,-0.35297 2.286333,-0.20351 2.80192,-0.0176 0.516623,0.18618 0.765629,0.79979 0.555687,1.31588 z"/></svg>