<svg xmlns="http://www.w3.org/2000/svg" id="libre-brand-skype" viewBox="0 0 14 14"><g transform="matrix(0.0252521,0,0,0.0252521,0.53533614,0.53532351)"><path d="m 237.619,224.788 c -3.758,-0.942 -6.349,-1.556 -7.096,-1.751 -19.702,-5.12 -32.819,-15.278 -32.819,-33.454 0,-26.163 28.16,-33.751 50.576,-33.751 5.325,0 10.311,0.44 15.145,1.106 25.067,3.543 42.322,16.609 44.288,44.636 l 48.2,0 c 0,-52.03 -44.585,-80.476 -99.123,-82.647 -2.191,-0.061 -4.413,-0.184 -6.625,-0.184 -49.736,0 -100.669,24.351 -100.669,76.278 0,23.234 10.424,46.448 43.602,60.078 5.222,2.119 10.947,4.055 17.337,5.673 31.59,8.192 54.17,12.851 72.028,18.166 3.563,1.065 7.004,2.12 10.178,3.277 11.182,3.983 22.805,11.961 22.805,31.918 0,19.651 -15.841,39.26 -58.276,39.26 -2.939,0 -5.703,-0.123 -8.438,-0.256 -34.632,-2.243 -61.46,-18.32 -61.46,-55.317 l -48.2,0 c 1.126,64.286 52.091,92.631 114.985,92.631 0.082,0 0.154,0 0.266,0 54.672,-0.072 109.312,-23.286 109.312,-81.387 0,-20.551 -10.24,-42.322 -31.262,-55.982 -6.462,-4.219 -13.844,-7.731 -22.364,-10.096 -11.745,-3.298 -55.01,-13.906 -72.387,-18.196 z"/><path d="m 420.045,18.422 -328.059,0 c -40.642,0 -73.585,32.932 -73.585,73.585 l 0,328.059 c 0,40.601 32.942,73.523 73.585,73.523 l 328.059,0 c 40.642,0 73.564,-32.921 73.564,-73.523 l 0,-328.069 C 493.599,51.355 460.677,18.422 420.045,18.422 Z m -66.089,443.32 c -21.781,0 -42.055,-6.615 -58.901,-17.961 -11.981,2.355 -24.361,3.666 -37.058,3.666 -105.462,0 -190.946,-85.494 -190.946,-190.935 0,-13.936 1.587,-27.525 4.434,-40.653 -11.889,-17.019 -18.934,-37.765 -18.934,-60.15 0,-58.225 47.216,-105.442 105.513,-105.442 22.661,0 43.602,7.219 60.795,19.364 12.636,-2.632 25.702,-4.025 39.147,-4.025 105.411,0 190.894,85.484 190.894,190.905 0,15.257 -1.997,30.065 -5.397,44.278 10.035,16.138 15.943,35.123 15.943,55.522 -0.01,58.224 -47.248,105.431 -105.493,105.431 z"/></g></svg>