<svg xmlns="http://www.w3.org/2000/svg" id="libre-help" viewBox="0 0 14 14"><path d="m 7.0840292,12 c -0.6035,0 -1.0929667,-0.489467 -1.0929667,-1.093183 0,-0.603392 0.4894667,-1.092717 1.0929667,-1.092717 0.6036416,0 1.0929333,0.4893 1.0929333,1.092717 C 8.1769625,11.510533 7.6876708,12 7.0840292,12 Z m 0.8592916,-3.2305833 0,0.1966 c 0,0 -1.6386583,0 -1.801675,0 l 0,-0.1966 c 0,-0.5563584 0.081167,-1.27005 0.7270917,-1.8905334 0.6459417,-0.6205583 1.45315,-1.1331833 1.45315,-1.908375 0,-0.8570166 -0.594725,-1.3103166 -1.3446333,-1.3103166 -1.2495834,0 -1.3312084,1.29595 -1.3620167,1.5812916 l -1.752375,0 C 3.9095292,3.8901417 4.4807292,2 6.9877208,2 c 2.1726417,0 3.1494172,1.455075 3.1494172,2.8195667 0,2.1718416 -2.1938172,2.5491 -2.1938172,3.94985 z"/></svg>