<svg xmlns="http://www.w3.org/2000/svg" width="14" height="14" viewBox="0 0 14 14"><path d="M 2.28571,12.142857 H 4.21428 V 10.214286 H 2.28571 v 1.928571 z m 2.35715,0 H 6.78571 V 10.214286 H 4.64286 v 1.928571 z M 2.28571,9.785714 H 4.21428 V 7.642857 H 2.28571 v 2.142857 z m 2.35715,0 H 6.78571 V 7.642857 H 4.64286 V 9.785714 z M 2.28571,7.214286 H 4.21428 V 5.285714 H 2.28571 v 1.928572 z m 4.92857,4.928571 H 9.35714 V 10.214286 H 7.21428 v 1.928571 z M 4.64286,7.214286 H 6.78571 V 5.285714 H 4.64286 v 1.928572 z m 5.14285,4.928571 h 1.92857 V 10.214286 H 9.78571 v 1.928571 z M 7.21428,9.785714 H 9.35714 V 7.642857 H 7.21428 V 9.785714 z M 4.85714,4 V 2.071429 q 0,-0.08705 -0.0636,-0.15067 -0.0636,-0.06362 -0.15067,-0.06362 H 4.21429 q -0.0871,0 -0.15067,0.06362 -0.0636,0.06362 -0.0636,0.15067 V 4 q 0,0.08705 0.0636,0.150669 0.0636,0.06362 0.15067,0.06362 h 0.42858 q 0.0871,0 0.15067,-0.06362 Q 4.85714,4.087059 4.85714,4 z m 4.92857,5.785714 h 1.92857 V 7.642857 H 9.78571 V 9.785714 z M 7.21428,7.214286 H 9.35714 V 5.285714 H 7.21428 v 1.928572 z m 2.57143,0 h 1.92857 V 5.285714 H 9.78571 V 7.214286 z M 10,4 V 2.071429 Q 10,1.984379 9.9364,1.920759 9.8728,1.857139 9.78573,1.857139 H 9.35716 q -0.0871,0 -0.15067,0.06362 -0.0636,0.06362 -0.0636,0.15067 V 4 q 0,0.08705 0.0636,0.150669 0.0636,0.06362 0.15067,0.06362 h 0.42857 q 0.0871,0 0.15067,-0.06362 Q 10,4.087059 10,4 z m 2.57143,-0.428571 v 8.571428 q 0,0.348215 -0.25447,0.602679 Q 12.0625,13 11.71428,13 H 2.28571 Q 1.9375,13 1.68303,12.745536 1.42857,12.491072 1.42857,12.142857 V 3.571429 q 0,-0.348215 0.25446,-0.602679 Q 1.9375,2.714286 2.28571,2.714286 H 3.14286 V 2.071429 q 0,-0.441965 0.31473,-0.756697 Q 3.77232,1 4.21428,1 H 4.64286 Q 5.08482,1 5.39955,1.314732 5.71428,1.629464 5.71428,2.071429 V 2.714286 H 8.28571 V 2.071429 q 0,-0.441965 0.31473,-0.756697 Q 8.91518,1 9.35714,1 h 0.42857 q 0.44197,0 0.7567,0.314732 0.31473,0.314732 0.31473,0.756697 v 0.642857 h 0.85714 q 0.34822,0 0.60268,0.254464 0.25447,0.254464 0.25447,0.602679 z"/></svg>