<?xml version="1.0" encoding="UTF-8" standalone="no"?>
<!-- Generator: Adobe Illustrator 16.0.0, SVG Export Plug-In . SVG Version: 6.00 Build 0)  -->

<svg
   xmlns:dc="http://purl.org/dc/elements/1.1/"
   xmlns:cc="http://creativecommons.org/ns#"
   xmlns:rdf="http://www.w3.org/1999/02/22-rdf-syntax-ns#"
   xmlns:svg="http://www.w3.org/2000/svg"
   xmlns="http://www.w3.org/2000/svg"
   xmlns:sodipodi="http://sodipodi.sourceforge.net/DTD/sodipodi-0.dtd"
   xmlns:inkscape="http://www.inkscape.org/namespaces/inkscape"
   version="1.1"
   id="Capa_1"
   x="0px"
   y="0px"
   width="14"
   height="14"
   viewBox="0 0 14 14"
   xml:space="preserve"
   inkscape:version="0.48.4 r9939"
   sodipodi:docname="libre-firewall.svg"><metadata
     id="metadata41"><rdf:RDF><cc:Work
         rdf:about=""><dc:format>image/svg+xml</dc:format><dc:type
           rdf:resource="http://purl.org/dc/dcmitype/StillImage" /></cc:Work></rdf:RDF></metadata><defs
     id="defs39" /><sodipodi:namedview
     pagecolor="#ffffff"
     bordercolor="#666666"
     borderopacity="1"
     objecttolerance="10"
     gridtolerance="10"
     guidetolerance="10"
     inkscape:pageopacity="0"
     inkscape:pageshadow="2"
     inkscape:window-width="1920"
     inkscape:window-height="1030"
     id="namedview37"
     showgrid="false"
     inkscape:zoom="20.402743"
     inkscape:cx="7.8644672"
     inkscape:cy="7.3481401"
     inkscape:window-x="0"
     inkscape:window-y="0"
     inkscape:window-maximized="1"
     inkscape:current-layer="Capa_1" /><g
     id="g3"
     transform="matrix(0.02646043,0,0,0.02646043,1,1.0000049)"><path
       d="M 69.434,221.678 H 0 v -72.625 h 69.434 v 72.625 z M 0,431.464 H 69.434 V 358.839 H 0 v 72.625 z M 0.632,329.542 H 184.109 V 256.907 H 0.632 v 72.635 z m 229.347,-72.635 v 72.635 h 37.459 c -6.457,-29.127 -5.888,-52.897 -0.782,-72.635 H 229.979 z M 115.303,358.839 v 72.625 h 183.479 v -18.765 c -9.86,-19.528 -17.391,-37.416 -22.993,-53.86 H 115.303 z M 298.782,202.898 V 149.054 H 115.303 v 72.625 h 167.468 c 4.782,-6.909 10.188,-13.134 16.011,-18.781 z m 141.516,-36.917 c -25.319,-60.268 -82.806,-78.378 -33.27,-143.938 -24.405,15.77 -45.105,52.247 -21.938,98.575 68.975,143.468 -2.708,173.516 -29.083,161.685 -58.901,-29.33 3.939,-82.813 10.851,-95.616 10.6,-14.306 10.688,-27.384 2.457,-49.305 0.494,19.964 -3.199,36.238 -31.046,55.45 -46.345,31.314 -92.436,83.56 -14.055,228.48 10e-4,0.011 178.4,-107.026 116.084,-255.331 z"
       id="path5"
       inkscape:connector-curvature="0" /></g><g
     id="g7"
     transform="matrix(0.02646043,0,0,0.02646043,1,1.0000049)" /><g
     id="g9"
     transform="matrix(0.02646043,0,0,0.02646043,1,1.0000049)" /><g
     id="g11"
     transform="matrix(0.02646043,0,0,0.02646043,1,1.0000049)" /><g
     id="g13"
     transform="matrix(0.02646043,0,0,0.02646043,1,1.0000049)" /><g
     id="g15"
     transform="matrix(0.02646043,0,0,0.02646043,1,1.0000049)" /><g
     id="g17"
     transform="matrix(0.02646043,0,0,0.02646043,1,1.0000049)" /><g
     id="g19"
     transform="matrix(0.02646043,0,0,0.02646043,1,1.0000049)" /><g
     id="g21"
     transform="matrix(0.02646043,0,0,0.02646043,1,1.0000049)" /><g
     id="g23"
     transform="matrix(0.02646043,0,0,0.02646043,1,1.0000049)" /><g
     id="g25"
     transform="matrix(0.02646043,0,0,0.02646043,1,1.0000049)" /><g
     id="g27"
     transform="matrix(0.02646043,0,0,0.02646043,1,1.0000049)" /><g
     id="g29"
     transform="matrix(0.02646043,0,0,0.02646043,1,1.0000049)" /><g
     id="g31"
     transform="matrix(0.02646043,0,0,0.02646043,1,1.0000049)" /><g
     id="g33"
     transform="matrix(0.02646043,0,0,0.02646043,1,1.0000049)" /><g
     id="g35"
     transform="matrix(0.02646043,0,0,0.02646043,1,1.0000049)" /></svg>