<?xml version="1.0" encoding="UTF-8" standalone="no"?>
<svg
   xmlns:dc="http://purl.org/dc/elements/1.1/"
   xmlns:cc="http://creativecommons.org/ns#"
   xmlns:rdf="http://www.w3.org/1999/02/22-rdf-syntax-ns#"
   xmlns:svg="http://www.w3.org/2000/svg"
   xmlns="http://www.w3.org/2000/svg"
   xmlns:sodipodi="http://sodipodi.sourceforge.net/DTD/sodipodi-0.dtd"
   xmlns:inkscape="http://www.inkscape.org/namespaces/inkscape"
   width="14"
   height="14"
   viewBox="0 0 14 14"
   id="svg2"
   version="1.1"
   inkscape:version="0.48.4 r9939"
   sodipodi:docname="libre-subscript.svg">
  <metadata
     id="metadata10">
    <rdf:RDF>
      <cc:Work
         rdf:about="">
        <dc:format>image/svg+xml</dc:format>
        <dc:type
           rdf:resource="http://purl.org/dc/dcmitype/StillImage" />
      </cc:Work>
    </rdf:RDF>
  </metadata>
  <defs
     id="defs8" />
  <sodipodi:namedview
     pagecolor="#ffffff"
     bordercolor="#666666"
     borderopacity="1"
     objecttolerance="10"
     gridtolerance="10"
     guidetolerance="10"
     inkscape:pageopacity="0"
     inkscape:pageshadow="2"
     inkscape:window-width="1920"
     inkscape:window-height="1030"
     id="namedview6"
     showgrid="false"
     inkscape:zoom="0.18303698"
     inkscape:cx="1138.6066"
     inkscape:cy="-572.62336"
     inkscape:window-x="0"
     inkscape:window-y="0"
     inkscape:window-maximized="1"
     inkscape:current-layer="svg2" />
  <g
     id="g2991"
     transform="matrix(0.00832058,0,0,0.00832058,-1.705168,-4.1584914)">
    <g
       id="text2987"
       style="font-size:1308.13952637px;font-style:normal;font-variant:normal;font-weight:bold;font-stretch:normal;line-height:125%;letter-spacing:0px;word-spacing:0px;fill:#000000;fill-opacity:1;stroke:none;font-family:Vegur;-inkscape-font-specification:Sans">
      <path
         id="path2986"
         d="m 824.827,1220.0958 287.7907,-455.23251 -200.14535,0 -189.68024,327.03491 -170.05813,-327.03491 -206.68605,0 265.55232,443.45931 -286.48255,456.5407 197.52907,0 187.06395,-325.7268 181.83139,325.7268 209.30229,0 -276.0174,-444.7675"
         inkscape:connector-curvature="0" />
    </g>
    <g
       id="text2991"
       style="font-size:1109.46740723px;font-style:normal;font-variant:normal;font-weight:bold;font-stretch:normal;line-height:125%;letter-spacing:0px;word-spacing:0px;fill:#000000;fill-opacity:1;stroke:none;font-family:Vegur;-inkscape-font-specification:Sans">
      <path
         id="path2989"
         d="m 1336.8515,1358.1078 c 49.926,-45.4881 105.3995,-66.568 153.1065,-66.568 78.7721,0 119.8225,34.3936 119.8225,107.6183 0,58.8018 -42.1598,122.0415 -122.0414,204.142 l -196.3758,199.7042 0,114.2751 467.0858,0 0,-124.2603 -291.7899,0 133.1361,-125.3698 c 105.3993,-98.7425 167.5296,-186.3907 167.5296,-288.4616 0,-113.1655 -76.5535,-211.9082 -249.6302,-211.9082 -71.0058,0 -130.9172,18.8609 -187.5,58.8017 l 6.6568,132.0266"
         inkscape:connector-curvature="0" />
    </g>
  </g>
</svg>
