<?xml version="1.0" encoding="UTF-8" standalone="no"?>
<svg
   xmlns:dc="http://purl.org/dc/elements/1.1/"
   xmlns:cc="http://creativecommons.org/ns#"
   xmlns:rdf="http://www.w3.org/1999/02/22-rdf-syntax-ns#"
   xmlns:svg="http://www.w3.org/2000/svg"
   xmlns="http://www.w3.org/2000/svg"
   xmlns:sodipodi="http://sodipodi.sourceforge.net/DTD/sodipodi-0.dtd"
   xmlns:inkscape="http://www.inkscape.org/namespaces/inkscape"
   width="14"
   height="14"
   viewBox="0 0 14 14"
   id="svg2"
   version="1.1"
   inkscape:version="0.48.4 r9939"
   sodipodi:docname="libre-credit-card.svg">
  <metadata
     id="metadata10">
    <rdf:RDF>
      <cc:Work
         rdf:about="">
        <dc:format>image/svg+xml</dc:format>
        <dc:type
           rdf:resource="http://purl.org/dc/dcmitype/StillImage" />
      </cc:Work>
    </rdf:RDF>
  </metadata>
  <defs
     id="defs8" />
  <sodipodi:namedview
     pagecolor="#ffffff"
     bordercolor="#666666"
     borderopacity="1"
     objecttolerance="10"
     gridtolerance="10"
     guidetolerance="10"
     inkscape:pageopacity="0"
     inkscape:pageshadow="2"
     inkscape:window-width="1920"
     inkscape:window-height="1030"
     id="namedview6"
     showgrid="false"
     inkscape:zoom="1.0814295"
     inkscape:cx="627.96623"
     inkscape:cy="1024"
     inkscape:window-x="0"
     inkscape:window-y="0"
     inkscape:window-maximized="1"
     inkscape:current-layer="svg2" />
  <path
     d="m 12,2.2 q 0.4125,0 0.70625,0.29375 Q 13,2.7875 13,3.2 v 7.6 q 0,0.4125 -0.29375,0.70625 Q 12.4125,11.8 12,11.8 H 2 Q 1.5875,11.8 1.29375,11.50625 1,11.2125 1,10.8 V 3.2 Q 1,2.7875 1.29375,2.49375 1.5875,2.2 2,2.2 H 12 z M 2,3 Q 1.91875,3 1.859375,3.0594 1.8,3.11875 1.8,3.2 V 4.6 H 12.2 V 3.2 Q 12.2,3.1188 12.1406,3.05938 12.08125,3 12,3 H 2 z m 10,8 q 0.0812,0 0.14062,-0.0594 Q 12.2,10.88125 12.2,10.8 V 7 H 1.8 v 3.8 q 0,0.0813 0.05938,0.14062 Q 1.91875,11 2,11 H 12 z M 2.6,10.2 V 9.4 h 1.6 v 0.8 H 2.6 z m 2.4,0 V 9.4 h 2.4 v 0.8 H 5 z"
     id="path4"
     inkscape:connector-curvature="0" />
</svg>
