<?xml version="1.0" encoding="UTF-8" standalone="no"?>
<svg
   xmlns:dc="http://purl.org/dc/elements/1.1/"
   xmlns:cc="http://creativecommons.org/ns#"
   xmlns:rdf="http://www.w3.org/1999/02/22-rdf-syntax-ns#"
   xmlns:svg="http://www.w3.org/2000/svg"
   xmlns="http://www.w3.org/2000/svg"
   xmlns:sodipodi="http://sodipodi.sourceforge.net/DTD/sodipodi-0.dtd"
   xmlns:inkscape="http://www.inkscape.org/namespaces/inkscape"
   width="14"
   height="14"
   viewBox="0 0 14 14"
   id="svg2"
   version="1.1"
   inkscape:version="0.48.4 r9939"
   sodipodi:docname="libre-archive.svg">
  <metadata
     id="metadata10">
    <rdf:RDF>
      <cc:Work
         rdf:about="">
        <dc:format>image/svg+xml</dc:format>
        <dc:type
           rdf:resource="http://purl.org/dc/dcmitype/StillImage" />
      </cc:Work>
    </rdf:RDF>
  </metadata>
  <defs
     id="defs8" />
  <sodipodi:namedview
     pagecolor="#ffffff"
     bordercolor="#666666"
     borderopacity="1"
     objecttolerance="10"
     gridtolerance="10"
     guidetolerance="10"
     inkscape:pageopacity="0"
     inkscape:pageshadow="2"
     inkscape:window-width="1920"
     inkscape:window-height="1030"
     id="namedview6"
     showgrid="false"
     inkscape:zoom="1.0629655"
     inkscape:cx="621.08703"
     inkscape:cy="1024"
     inkscape:window-x="0"
     inkscape:window-y="0"
     inkscape:window-maximized="1"
     inkscape:current-layer="svg2" />
  <path
     d="M 8.38462,6.5 Q 8.38462,6.296875 8.2476,6.148437 8.11058,6 7.92308,6 H 6.07692 Q 5.88942,6 5.7524,6.148437 5.61538,6.296875 5.61538,6.5 q 0,0.203125 0.13702,0.351563 Q 5.88942,7 6.07692,7 H 7.92308 Q 8.11058,7 8.2476,6.851563 8.38462,6.703125 8.38462,6.5 z M 12.53846,5 v 7.5 q 0,0.203125 -0.13702,0.351563 Q 12.26442,13 12.07692,13 H 1.923077 Q 1.735577,13 1.598558,12.851563 1.461538,12.703125 1.461538,12.5 V 5 q 0,-0.203125 0.13702,-0.351563 Q 1.735577,4.5 1.923077,4.5 H 12.07692 q 0.1875,0 0.32452,0.148437 Q 12.53846,4.796875 12.53846,5 z M 13,1.5 v 2 Q 13,3.703125 12.86298,3.851563 12.72596,4 12.53846,4 H 1.461538 Q 1.274038,4 1.137019,3.851563 1,3.703125 1,3.5 v -2 Q 1,1.296875 1.137019,1.148437 1.274038,1 1.461538,1 H 12.53846 q 0.1875,0 0.32452,0.148437 Q 13,1.296875 13,1.5 z"
     id="path4"
     inkscape:connector-curvature="0" />
</svg>
