<svg xmlns="http://www.w3.org/2000/svg" width="14" height="14" viewBox="0 0 14 14"><path d="m 6.9994782,9.8694296 q 0,-0.2932301 -0.1633114,-0.5624592 Q 6.8278186,9.2986223 6.7099004,9.1233103 6.5919823,8.9479984 6.5022393,8.8133839 6.4124962,8.6787693 6.2982304,8.4544118 6.1839646,8.2300542 6.1270926,8.0427418 6.0942216,7.9123014 5.9559547,7.9123014 q -0.1382668,0 -0.1711378,0.1304404 Q 5.7279449,8.2300542 5.613679,8.4544118 5.4994132,8.6787693 5.4096702,8.8133839 5.3199272,8.9479984 5.202009,9.1233103 5.0840909,9.2986223 5.0757427,9.3069704 4.9124313,9.5761995 4.9124313,9.8694296 q 0,0.4320184 0.3057524,0.7377714 0.3057523,0.305752 0.737771,0.305752 0.4320187,0 0.7377711,-0.305752 0.3057524,-0.305753 0.3057524,-0.7377714 z M 11.173572,8.8259061 q 0,1.7285969 -1.2230095,2.9510839 Q 8.7275531,12.999478 6.9994782,13 5.2714033,13.000522 4.0483939,11.77699 2.8253844,10.553459 2.8253844,8.8259061 q 0,-1.182312 0.6605504,-2.2420101 Q 3.5349808,6.510328 3.9956959,5.8461249 4.4564115,5.1819223 4.8190359,4.615289 5.1816603,4.0486558 5.6303754,3.1642697 6.0790905,2.2798835 6.3071004,1.5217638 6.3806684,1.2770575 6.5841558,1.1387907 6.7876429,1.0005238 6.9999999,1.0000021 7.212357,0.99948026 7.4200181,1.1387907 7.6276793,1.2781011 7.6928995,1.5217638 7.9214311,2.2798835 8.3696246,3.1642697 8.8178179,4.0486558 9.180964,4.615289 q 0.3631462,0.5666333 0.82334,1.2308359 0.460194,0.6642027 0.509761,0.7377711 0.660551,1.0351753 0.660551,2.2420101 z"/></svg>