<?xml version="1.0" encoding="UTF-8" standalone="no"?>
<svg
   xmlns:dc="http://purl.org/dc/elements/1.1/"
   xmlns:cc="http://creativecommons.org/ns#"
   xmlns:rdf="http://www.w3.org/1999/02/22-rdf-syntax-ns#"
   xmlns:svg="http://www.w3.org/2000/svg"
   xmlns="http://www.w3.org/2000/svg"
   xmlns:sodipodi="http://sodipodi.sourceforge.net/DTD/sodipodi-0.dtd"
   xmlns:inkscape="http://www.inkscape.org/namespaces/inkscape"
   width="14"
   height="14"
   viewBox="0 0 14 14"
   enable-background="new 0 0 16 13"
   id="svg2"
   version="1.1"
   inkscape:version="0.48.4 r9939"
   sodipodi:docname="libre-export.svg">
  <metadata
     id="metadata12">
    <rdf:RDF>
      <cc:Work
         rdf:about="">
        <dc:format>image/svg+xml</dc:format>
        <dc:type
           rdf:resource="http://purl.org/dc/dcmitype/StillImage" />
      </cc:Work>
    </rdf:RDF>
  </metadata>
  <defs
     id="defs10" />
  <sodipodi:namedview
     pagecolor="#ffffff"
     bordercolor="#666666"
     borderopacity="1"
     objecttolerance="10"
     gridtolerance="10"
     guidetolerance="10"
     inkscape:pageopacity="0"
     inkscape:pageshadow="2"
     inkscape:window-width="1920"
     inkscape:window-height="1030"
     id="namedview8"
     showgrid="false"
     inkscape:zoom="0.94115217"
     inkscape:cx="655.14111"
     inkscape:cy="645.67934"
     inkscape:window-x="0"
     inkscape:window-y="0"
     inkscape:window-maximized="1"
     inkscape:current-layer="svg2" />
  <g
     id="g2989"
     transform="matrix(0.75,0,0,0.75,1,-1524.125)">
    <path
       inkscape:connector-curvature="0"
       id="path4"
       d="m 14,2040.6 v -3.6 c 0,-1.104 -0.896,-2 -2,-2 H 2 c -1.104,0 -2,0.896 -2,2 v 7 c 0,1.104 0.896,2 2,2 h 4.75 l -2.5,-2 H 2 v -7 h 10 v 2 l 2,1.6 z" />
    <path
       inkscape:connector-curvature="0"
       id="path6"
       d="m 11,2041.992 c -3.333,0.12 -5.339,-1.365 -7.033,-3.016 0,3.923 3.493,7.012 7.033,7.047 V 2048 l 5,-4 -5,-4 v 1.992 z" />
  </g>
</svg>
