<?xml version="1.0" encoding="UTF-8" standalone="no"?>
<svg
   xmlns:dc="http://purl.org/dc/elements/1.1/"
   xmlns:cc="http://creativecommons.org/ns#"
   xmlns:rdf="http://www.w3.org/1999/02/22-rdf-syntax-ns#"
   xmlns:svg="http://www.w3.org/2000/svg"
   xmlns="http://www.w3.org/2000/svg"
   xmlns:sodipodi="http://sodipodi.sourceforge.net/DTD/sodipodi-0.dtd"
   xmlns:inkscape="http://www.inkscape.org/namespaces/inkscape"
   width="14"
   height="14"
   viewBox="0 0 14 14"
   id="svg2"
   version="1.1"
   inkscape:version="0.48.4 r9939"
   sodipodi:docname="libre-history.svg">
  <metadata
     id="metadata10">
    <rdf:RDF>
      <cc:Work
         rdf:about="">
        <dc:format>image/svg+xml</dc:format>
        <dc:type
           rdf:resource="http://purl.org/dc/dcmitype/StillImage" />
      </cc:Work>
    </rdf:RDF>
  </metadata>
  <defs
     id="defs8" />
  <sodipodi:namedview
     pagecolor="#ffffff"
     bordercolor="#666666"
     borderopacity="1"
     objecttolerance="10"
     gridtolerance="10"
     guidetolerance="10"
     inkscape:pageopacity="0"
     inkscape:pageshadow="2"
     inkscape:window-width="1920"
     inkscape:window-height="1030"
     id="namedview6"
     showgrid="false"
     inkscape:zoom="1.0814295"
     inkscape:cx="627.96623"
     inkscape:cy="1024"
     inkscape:window-x="0"
     inkscape:window-y="0"
     inkscape:window-maximized="1"
     inkscape:current-layer="svg2" />
  <path
     d="M 13,7 Q 13,8.21875 12.52344,9.328125 12.04688,10.4375 11.24219,11.242187 10.4375,12.046875 9.32813,12.523437 8.21875,13 7,13 5.65625,13 4.44531,12.433594 3.23438,11.867188 2.38281,10.835938 2.32811,10.757808 2.33201,10.660156 2.33601,10.562496 2.39841,10.5 L 3.46872,9.421875 q 0.0781,-0.07031 0.19531,-0.07031 0.125,0.01562 0.17969,0.09375 0.57031,0.742187 1.39844,1.148437 Q 6.07031,11 7,11 7.8125,11 8.55078,10.683594 9.28906,10.367188 9.82812,9.828125 10.36719,9.289062 10.68359,8.550781 11,7.8125 11,7 11,6.1875 10.68359,5.449219 10.36719,4.710938 9.82812,4.171875 9.28906,3.632812 8.55078,3.316406 7.8125,3 7,3 6.23437,3 5.53125,3.277344 4.82812,3.554688 4.28125,4.070312 L 5.35156,5.148438 Q 5.59375,5.382813 5.46094,5.6875 5.32812,6 5,6 H 1.5 Q 1.296875,6 1.148437,5.851562 1,5.703125 1,5.5 V 2 Q 1,1.671875 1.3125,1.539063 1.617188,1.40625 1.851562,1.648437 L 2.86719,2.65625 Q 3.70312,1.867187 4.77734,1.433594 5.85156,1 7,1 8.21875,1 9.32813,1.476562 10.4375,1.953125 11.24219,2.757813 12.04688,3.5625 12.52344,4.671875 13,5.78125 13,7 z M 8,4.75 v 3.5 Q 8,8.359375 7.9297,8.429688 7.85938,8.5 7.75,8.5 H 5.25 Q 5.14062,8.5 5.07031,8.42969 5,8.359375 5,8.25 V 7.75 Q 5,7.640625 5.0703,7.570313 5.14062,7.5 5.25,7.5 H 7 V 4.75 Q 7,4.640625 7.0703,4.570313 7.14063,4.5 7.25,4.5 h 0.5 Q 7.85938,4.5 7.92969,4.57031 8,4.640625 8,4.75 z"
     id="path4"
     inkscape:connector-curvature="0" />
</svg>
