<?xml version="1.0" encoding="UTF-8" standalone="no"?>
<svg
   xmlns:dc="http://purl.org/dc/elements/1.1/"
   xmlns:cc="http://creativecommons.org/ns#"
   xmlns:rdf="http://www.w3.org/1999/02/22-rdf-syntax-ns#"
   xmlns:svg="http://www.w3.org/2000/svg"
   xmlns="http://www.w3.org/2000/svg"
   xmlns:sodipodi="http://sodipodi.sourceforge.net/DTD/sodipodi-0.dtd"
   xmlns:inkscape="http://www.inkscape.org/namespaces/inkscape"
   width="14"
   height="14"
   viewBox="0 0 14 14"
   id="svg2"
   version="1.1"
   inkscape:version="0.48.4 r9939"
   sodipodi:docname="libre-bold.svg">
  <metadata
     id="metadata10">
    <rdf:RDF>
      <cc:Work
         rdf:about="">
        <dc:format>image/svg+xml</dc:format>
        <dc:type
           rdf:resource="http://purl.org/dc/dcmitype/StillImage" />
      </cc:Work>
    </rdf:RDF>
  </metadata>
  <defs
     id="defs8" />
  <sodipodi:namedview
     pagecolor="#ffffff"
     bordercolor="#666666"
     borderopacity="1"
     objecttolerance="10"
     gridtolerance="10"
     guidetolerance="10"
     inkscape:pageopacity="0"
     inkscape:pageshadow="2"
     inkscape:window-width="1920"
     inkscape:window-height="1030"
     id="namedview6"
     showgrid="false"
     inkscape:zoom="1.0629655"
     inkscape:cx="621.08703"
     inkscape:cy="1024"
     inkscape:window-x="0"
     inkscape:window-y="0"
     inkscape:window-maximized="1"
     inkscape:current-layer="svg2" />
  <g
     style="font-size:2598.31469727px;font-style:normal;font-variant:normal;font-weight:bold;font-stretch:normal;line-height:125%;letter-spacing:0px;word-spacing:0px;fill:#000000;fill-opacity:1;stroke:none;font-family:Vegur;-inkscape-font-specification:Sans Bold"
     id="text2987"
     transform="matrix(0.00648649,0,0,0.00648649,-0.02845661,0.50525679)">
    <path
       d="m 504.12898,1889.896 c 109.1291,23.3848 301.40464,36.3764 444.31181,36.3764 387.14851,0 714.53651,-168.8908 714.53651,-527.4579 0,-215.6599 -127.3176,-384.5506 -376.7556,-423.52528 213.0616,-49.36793 368.9607,-187.07889 366.3624,-420.92698 -2.5983,-291.01095 -241.6437,-478.089903 -680.75848,-478.089903 -109.12911,0 -322.19117,10.393277 -467.69664,28.581463 l 0,1785.0422 m 342.97754,-1021.13768 0,-496.27811 c 51.96624,-5.19662 93.53938,-5.19663 148.10393,-5.19663 197.47175,0 293.60955,111.72767 293.60955,244.24159 0,163.69366 -129.9159,257.23315 -350.77247,257.23315 l -90.94101,0 m 0,278.01968 122.12079,0 c 218.25819,0 329.98599,90.9412 329.98599,257.2331 0,153.3005 -148.1041,231.2501 -309.19948,231.2501 -46.76961,0 -96.13769,0 -142.9073,-5.1967 l 0,-483.2865"
       id="path2992"
       inkscape:connector-curvature="0" />
  </g>
</svg>
