<?xml version="1.0" encoding="UTF-8" standalone="no"?>
<svg
   xmlns:dc="http://purl.org/dc/elements/1.1/"
   xmlns:cc="http://creativecommons.org/ns#"
   xmlns:rdf="http://www.w3.org/1999/02/22-rdf-syntax-ns#"
   xmlns:svg="http://www.w3.org/2000/svg"
   xmlns="http://www.w3.org/2000/svg"
   xmlns:sodipodi="http://sodipodi.sourceforge.net/DTD/sodipodi-0.dtd"
   xmlns:inkscape="http://www.inkscape.org/namespaces/inkscape"
   width="14"
   height="14"
   viewBox="0 0 14 14"
   id="svg2"
   version="1.1"
   inkscape:version="0.48.4 r9939"
   sodipodi:docname="libre-question.svg">
  <metadata
     id="metadata10">
    <rdf:RDF>
      <cc:Work
         rdf:about="">
        <dc:format>image/svg+xml</dc:format>
        <dc:type
           rdf:resource="http://purl.org/dc/dcmitype/StillImage" />
      </cc:Work>
    </rdf:RDF>
  </metadata>
  <defs
     id="defs8" />
  <sodipodi:namedview
     pagecolor="#ffffff"
     bordercolor="#666666"
     borderopacity="1"
     objecttolerance="10"
     gridtolerance="10"
     guidetolerance="10"
     inkscape:pageopacity="0"
     inkscape:pageshadow="2"
     inkscape:window-width="1920"
     inkscape:window-height="1030"
     id="namedview6"
     showgrid="false"
     inkscape:zoom="16.566616"
     inkscape:cx="-4.6487417"
     inkscape:cy="4.8705596"
     inkscape:window-x="0"
     inkscape:window-y="0"
     inkscape:window-maximized="1"
     inkscape:current-layer="svg2" />
  <g
     style="font-size:16.94915199px;font-style:normal;font-variant:normal;font-weight:bold;font-stretch:normal;line-height:125%;letter-spacing:0px;word-spacing:0px;fill:#000000;fill-opacity:1;stroke:none;font-family:Vegur;-inkscape-font-specification:Sans"
     id="text2991">
    <path
       d="M 3.9152543,3.7288136 C 4.508474,3.2203396 5.2881365,2.8983052 6.1355932,2.8983052 c 0.9830499,0 1.5762712,0.5084752 1.5762712,1.1694915 0,0.7288128 -0.2372893,1.2203404 -1.4067797,2.677966 C 5.457628,7.796609 5.2033898,8.457628 5.1694916,9.4406778 l 2.2542372,0 C 7.4745762,8.6271194 7.7966108,8.0169483 8.4406779,7.2372881 9.6440665,5.7966116 10.152542,5.016948 10.152542,3.8305085 c 0,-1.6610152 -1.4406797,-2.8305084 -3.4576268,-2.8305084 -1.1186429,0 -2.1694921,0.3220344 -2.8474575,0.8135593 l 0.067797,1.9152542 m 2.3898304,6.6949154 c -0.7118636,0 -1.2881355,0.576272 -1.2881355,1.288135 0,0.711864 0.5762719,1.288136 1.2881355,1.288136 0.7118637,0 1.2881356,-0.576272 1.2881356,-1.288136 0,-0.711863 -0.5762719,-1.288135 -1.2881356,-1.288135"
       style=""
       id="path2984" />
  </g>
</svg>
