<?xml version="1.0" encoding="UTF-8" standalone="no"?>
<!-- Generator: Adobe Illustrator 17.0.0, SVG Export Plug-In . SVG Version: 6.00 Build 0)  -->

<svg
   xmlns:dc="http://purl.org/dc/elements/1.1/"
   xmlns:cc="http://creativecommons.org/ns#"
   xmlns:rdf="http://www.w3.org/1999/02/22-rdf-syntax-ns#"
   xmlns:svg="http://www.w3.org/2000/svg"
   xmlns="http://www.w3.org/2000/svg"
   xmlns:sodipodi="http://sodipodi.sourceforge.net/DTD/sodipodi-0.dtd"
   xmlns:inkscape="http://www.inkscape.org/namespaces/inkscape"
   version="1.1"
   id="Layer_1"
   x="0px"
   y="0px"
   width="14"
   height="14"
   viewBox="0 0 14 14"
   enable-background="new 0 0 482.022 512.36"
   xml:space="preserve"
   inkscape:version="0.91 r"
   sodipodi:docname="libre-tech-letsencrypt (new).svg"><metadata
     id="metadata27"><rdf:RDF><cc:Work
         rdf:about=""><dc:format>image/svg+xml</dc:format><dc:type
           rdf:resource="http://purl.org/dc/dcmitype/StillImage" /><dc:title></dc:title></cc:Work></rdf:RDF></metadata><defs
     id="defs25" /><sodipodi:namedview
     pagecolor="#ffffff"
     bordercolor="#666666"
     borderopacity="1"
     objecttolerance="10"
     gridtolerance="10"
     guidetolerance="10"
     inkscape:pageopacity="0"
     inkscape:pageshadow="2"
     inkscape:window-width="1366"
     inkscape:window-height="716"
     id="namedview23"
     showgrid="false"
     inkscape:zoom="22.595648"
     inkscape:cx="4.6935238"
     inkscape:cy="6.3671149"
     inkscape:window-x="0"
     inkscape:window-y="0"
     inkscape:window-maximized="1"
     inkscape:current-layer="g3" /><g
     id="g3"
     transform="matrix(0.0244591,0,0,0.0244591,1.0877708,0.68009876)"><g
       id="g3355"><path
         style="fill:#000000"
         inkscape:connector-curvature="0"
         id="path5"
         d="m 344.592,276.957 -58.997,0 0,-30.291 c 0,-24.191 -19.685,-43.876 -43.876,-43.876 -24.191,0 -43.876,19.685 -43.876,43.876 l 0,30.291 -58.997,0 0,-30.291 c 0,-56.724 46.149,-102.873 102.873,-102.873 56.724,0 102.873,46.149 102.873,102.873 l 0,30.291 z" /><path
         style="fill:#000000"
         inkscape:connector-curvature="0"
         id="path7"
         d="m 368.389,276.957 -253.34,0 c -10.816,0 -19.665,8.85 -19.665,19.665 l 0,187.406 c 0,10.816 8.849,19.666 19.665,19.666 l 253.34,0 c 10.816,0 19.665,-8.85 19.665,-19.666 l 0,-187.406 c 0,-10.816 -8.849,-19.665 -19.665,-19.665 z m -113.83,123.044 0,25.393 c 0,7.087 -5.749,12.837 -12.837,12.837 -7.088,0 -12.837,-5.749 -12.837,-12.837 l 0,-25.389 c -7.897,-4.481 -13.233,-12.947 -13.233,-22.674 0,-14.396 11.671,-26.067 26.067,-26.067 14.396,0 26.067,11.671 26.067,26.067 0,9.727 -5.335,18.192 -13.227,22.67 z" /><path
         style="fill:#000000"
         inkscape:connector-curvature="0"
         id="path9"
         d="m 89.367,249.016 -61.132,0 c -9.911,0 -17.948,-8.036 -17.948,-17.948 0,-9.912 8.036,-17.948 17.948,-17.948 l 61.132,0 c 9.911,0 17.948,8.036 17.948,17.948 0,9.912 -8.037,17.948 -17.948,17.948 z" /><path
         style="fill:#000000"
         inkscape:connector-curvature="0"
         id="path11"
         d="m 132.43,152.854 c -4.01,0 -8.048,-1.338 -11.389,-4.085 L 72.685,109.008 c -7.656,-6.296 -8.758,-17.606 -2.462,-25.262 6.294,-7.654 17.601,-8.762 25.262,-2.464 l 48.356,39.761 c 7.656,6.296 8.758,17.606 2.462,25.262 -3.547,4.315 -8.69,6.549 -13.873,6.549 z" /><path
         style="fill:#000000"
         inkscape:connector-curvature="0"
         id="path13"
         d="m 241.718,110.588 c -9.911,0 -17.948,-8.036 -17.948,-17.948 l 0,-61.613 c 0,-9.912 8.036,-17.948 17.948,-17.948 9.911,0 17.948,8.036 17.948,17.948 l 0,61.613 c -10e-4,9.912 -8.037,17.948 -17.948,17.948 z" /><g
         style="fill:#000000"
         id="g15"><g
           style="fill:#000000"
           id="g17"><path
             style="fill:#000000"
             inkscape:connector-curvature="0"
             id="path19"
             d="m 351.008,152.854 c -5.186,0 -10.326,-2.233 -13.873,-6.55 -6.296,-7.656 -5.194,-18.966 2.462,-25.262 l 48.356,-39.761 c 7.664,-6.299 18.971,-5.19 25.262,2.464 6.296,7.656 5.194,18.966 -2.462,25.262 l -48.356,39.761 c -3.342,2.747 -7.379,4.086 -11.389,4.086 z" /></g></g><path
         style="fill:#000000"
         inkscape:connector-curvature="0"
         id="path21"
         d="m 455.203,249.016 -61.713,0 c -9.911,0 -17.948,-8.036 -17.948,-17.948 0,-9.912 8.036,-17.948 17.948,-17.948 l 61.713,0 c 9.911,0 17.948,8.036 17.948,17.948 -0.001,9.912 -8.037,17.948 -17.948,17.948 z" /></g></g></svg>