<?xml version="1.0" encoding="UTF-8" standalone="no"?>
<svg
   xmlns:dc="http://purl.org/dc/elements/1.1/"
   xmlns:cc="http://creativecommons.org/ns#"
   xmlns:rdf="http://www.w3.org/1999/02/22-rdf-syntax-ns#"
   xmlns:svg="http://www.w3.org/2000/svg"
   xmlns="http://www.w3.org/2000/svg"
   xmlns:sodipodi="http://sodipodi.sourceforge.net/DTD/sodipodi-0.dtd"
   xmlns:inkscape="http://www.inkscape.org/namespaces/inkscape"
   width="14"
   height="14"
   viewBox="0 0 14 14"
   id="svg2"
   version="1.1"
   inkscape:version="0.48.4 r9939"
   sodipodi:docname="libre-brand-github.svg">
  <metadata
     id="metadata10">
    <rdf:RDF>
      <cc:Work
         rdf:about="">
        <dc:format>image/svg+xml</dc:format>
        <dc:type
           rdf:resource="http://purl.org/dc/dcmitype/StillImage" />
      </cc:Work>
    </rdf:RDF>
  </metadata>
  <defs
     id="defs8" />
  <sodipodi:namedview
     pagecolor="#ffffff"
     bordercolor="#666666"
     borderopacity="1"
     objecttolerance="10"
     gridtolerance="10"
     guidetolerance="10"
     inkscape:pageopacity="0"
     inkscape:pageshadow="2"
     inkscape:window-width="1920"
     inkscape:window-height="1030"
     id="namedview6"
     showgrid="false"
     inkscape:zoom="1.0814295"
     inkscape:cx="627.96623"
     inkscape:cy="1024"
     inkscape:window-x="0"
     inkscape:window-y="0"
     inkscape:window-maximized="1"
     inkscape:current-layer="svg2" />
  <path
     d="m 4.07812,10.5625 q -0.0625,0.07031 -0.15624,-0.02344 -0.10157,-0.08594 -0.0313,-0.148438 0.0625,-0.07031 0.15625,0.02344 0.0938,0.08594 0.0312,0.148438 z M 3.75,10.085938 q 0.0703,0.09375 0,0.148437 -0.0625,0.04687 -0.13281,-0.05469 -0.0703,-0.101562 0,-0.140625 Q 3.68749,9.98437 3.75,10.08594 z M 3.27344,9.617188 q -0.0391,0.05469 -0.10156,0.01562 -0.0781,-0.03906 -0.0547,-0.09375 0.0234,-0.03906 0.10156,-0.01563 0.0781,0.03906 0.0547,0.09375 z m 0.24218,0.265625 q -0.0469,0.05469 -0.12499,-0.02344 -0.0703,-0.08594 -0.0156,-0.125 0.0469,-0.04687 0.125,0.02344 0.0703,0.08594 0.0156,0.125 z m 1.00782,0.874999 q -0.0312,0.09375 -0.14844,0.04688 -0.13281,-0.03125 -0.10156,-0.117188 0.0312,-0.08594 0.14843,-0.05469 0.12501,0.03906 0.10157,0.124999 z m 0.49218,0.03906 q 0,0.08594 -0.12499,0.08594 -0.13282,0.01562 -0.13282,-0.08594 0,-0.08594 0.125,-0.08594 0.13281,-0.01563 0.13281,0.08594 z m 0.45313,-0.07813 q 0.0156,0.07813 -0.10938,0.109375 -0.12499,0.03125 -0.14062,-0.0625 -0.0156,-0.09375 0.10937,-0.117188 0.12501,-0.01562 0.14063,0.07031 z M 13,3.25 v 7.5 q 0,0.929687 -0.66016,1.589844 Q 11.67969,13 10.75,13 H 9 q -0.125,0 -0.19141,-0.0078 -0.0664,-0.0078 -0.15234,-0.03906 -0.0859,-0.03125 -0.125,-0.113282 -0.0391,-0.08203 -0.0391,-0.214843 v -1.867188 q 0,-0.757812 -0.40625,-1.109374 Q 8.53121,9.601573 8.88668,9.507828 9.24215,9.414078 9.62105,9.20314 9.99996,8.992202 10.25387,8.683609 10.50777,8.375015 10.66793,7.863296 10.82809,7.351577 10.82809,6.687515 10.82809,5.742202 10.2109,5.07814 10.49996,4.367203 10.1484,3.48439 9.92965,3.41408 9.51558,3.57033 9.10152,3.72658 8.79683,3.91408 l -0.29687,0.1875 q -0.72656,-0.203125 -1.5,-0.203125 -0.77344,0 -1.5,0.203125 Q 5.37496,4.01564 5.16793,3.890643 4.9609,3.765643 4.51559,3.589862 4.07027,3.414081 3.84371,3.484393 3.49996,4.367206 3.78901,5.078143 3.17183,5.742205 3.17183,6.687518 q 0,0.664062 0.16015,1.171875 0.16016,0.507812 0.41016,0.820312 0.25,0.3125 0.6289,0.523438 0.37891,0.210938 0.73438,0.304688 0.35547,0.09375 0.80078,0.140625 -0.3125,0.28125 -0.38281,0.804687 -0.16407,0.07813 -0.35157,0.117188 -0.1875,0.03906 -0.44531,0.03906 -0.25781,0 -0.51172,-0.167969 Q 3.96089,10.273453 3.7812,9.953141 3.63276,9.703141 3.40229,9.546891 3.17183,9.390641 3.01558,9.359391 L 2.85933,9.335951 q -0.16407,0 -0.22657,0.03516 -0.0625,0.03516 -0.0391,0.08984 0.0234,0.05469 0.0703,0.109375 0.0469,0.05469 0.10156,0.09375 l 0.0547,0.03906 q 0.17188,0.07813 0.33985,0.296875 0.16796,0.21875 0.24609,0.398438 l 0.0781,0.179687 q 0.10157,0.296875 0.34375,0.480469 0.24219,0.183593 0.52344,0.234375 0.28125,0.05078 0.54297,0.05469 0.26172,0.0039 0.43359,-0.02734 L 5.5077,11.28908 q 0,0.296875 0.004,0.804687 0.004,0.507812 0.004,0.53125 0,0.171875 -0.0859,0.261719 -0.0859,0.08984 -0.17188,0.101563 Q 5.17187,13 5,13 H 3.25 Q 2.32031,13 1.660156,12.339844 1,11.679687 1,10.75 V 3.25 Q 1,2.320313 1.660156,1.660156 2.32031,1 3.25,1 h 7.5 Q 11.67969,1 12.33984,1.660156 13,2.320313 13,3.25 z"
     id="path4"
     inkscape:connector-curvature="0" />
</svg>
