<?xml version="1.0" encoding="UTF-8" standalone="no"?>
<svg
   xmlns:dc="http://purl.org/dc/elements/1.1/"
   xmlns:cc="http://creativecommons.org/ns#"
   xmlns:rdf="http://www.w3.org/1999/02/22-rdf-syntax-ns#"
   xmlns:svg="http://www.w3.org/2000/svg"
   xmlns="http://www.w3.org/2000/svg"
   xmlns:sodipodi="http://sodipodi.sourceforge.net/DTD/sodipodi-0.dtd"
   xmlns:inkscape="http://www.inkscape.org/namespaces/inkscape"
   width="14"
   height="14"
   viewBox="0 0 14 14"
   id="svg2"
   version="1.1"
   inkscape:version="0.48.4 r9939"
   sodipodi:docname="libre-spinner-1.svg">
  <metadata
     id="metadata10">
    <rdf:RDF>
      <cc:Work
         rdf:about="">
        <dc:format>image/svg+xml</dc:format>
        <dc:type
           rdf:resource="http://purl.org/dc/dcmitype/StillImage" />
      </cc:Work>
    </rdf:RDF>
  </metadata>
  <defs
     id="defs8" />
  <sodipodi:namedview
     pagecolor="#ffffff"
     bordercolor="#666666"
     borderopacity="1"
     objecttolerance="10"
     gridtolerance="10"
     guidetolerance="10"
     inkscape:pageopacity="0"
     inkscape:pageshadow="2"
     inkscape:window-width="1920"
     inkscape:window-height="1030"
     id="namedview6"
     showgrid="false"
     inkscape:zoom="16.566616"
     inkscape:cx="6.185513"
     inkscape:cy="7.8834412"
     inkscape:window-x="0"
     inkscape:window-y="0"
     inkscape:window-maximized="1"
     inkscape:current-layer="svg2" />
  <path
     d="m 9.333333,7 q 0,-0.9661458 -0.6835963,-1.649739 Q 7.9661517,4.6666667 7,4.6666667 q -0.9661517,0 -1.6497367,0.6835943 Q 4.6666667,6.0338542 4.6666667,7 q 0,0.9661458 0.6835966,1.649739 Q 6.0338483,9.3333333 7,9.3333333 q 0.9661517,0 1.6497367,-0.6835943 Q 9.333333,7.9661458 9.333333,7 z M 14,6.0065098 v 2.0234387 q 0,0.109375 -0.07292,0.2096348 -0.07292,0.1002634 -0.182291,0.118489 l -1.686195,0.2552095 q -0.17318,0.4921875 -0.355472,0.8294265 0.319013,0.4557292 0.975263,1.2578127 0.09112,0.109375 0.09112,0.227865 0,0.118489 -0.08202,0.209635 -0.246096,0.33724 -0.902346,0.984375 -0.65625,0.647135 -0.856765,0.647135 -0.109317,0 -0.236985,-0.08203 L 9.433582,11.703126 Q 9.03254,11.912762 8.604152,12.04948 8.4583187,13.289064 8.339832,13.744793 8.2760417,14 8.0117217,14 H 5.9882783 Q 5.86068,14 5.7649783,13.92252 5.6693113,13.84504 5.6602117,13.726556 L 5.4050033,12.049475 Q 4.9583917,11.903641 4.5846967,11.712234 l -1.285165,0.975261 q -0.091117,0.08203 -0.2278617,0.08203 -0.1275983,0 -0.2278617,-0.100264 -1.1484316,-1.039062 -1.5039033,-1.53125 -0.063817,-0.09115 -0.063817,-0.209634 0,-0.109375 0.072917,-0.209636 Q 1.4857267,10.527334 1.8138517,10.112619 2.1419767,9.6979062 2.3060333,9.470041 2.0599367,9.014313 1.9323383,8.5676978 L 0.2643702,8.3216035 Q 0.1458333,8.303386 0.0729167,8.207682 0,8.1119792 0,7.9934902 V 5.9700515 Q 0,5.8606765 0.0729167,5.7604167 0.1458333,5.6601533 0.2460932,5.6419277 L 1.9414033,5.3867182 Q 2.0690133,4.9674485 2.296875,4.5481765 1.9322917,4.0286458 1.3216117,3.2903652 1.230495,3.1809902 1.230495,3.071614 q 0,-0.09114 0.082017,-0.2096348 0.2369733,-0.328125 0.897785,-0.979818 0.6608116,-0.6516919 0.8613266,-0.6516919 0.1184984,0 0.236985,0.09114 L 4.566415,2.2968703 Q 4.9674567,2.0872343 5.395845,1.9505162 5.5416783,0.71093283 5.660165,0.25520367 5.7239583,0 5.9882783,0 h 2.0234434 q 0.1275983,0 0.2233,0.0774783 0.095667,0.0774783 0.1047666,0.19596384 L 8.5949967,1.9505255 Q 9.041608,2.0963588 9.415303,2.2877657 l 1.294277,-0.975261 q 0.08202,-0.082028 0.21875,-0.082028 0.118487,0 0.227862,0.09114 1.175778,1.0846359 1.503903,1.5494791 0.06382,0.072917 0.06382,0.2005208 0,0.109375 -0.07292,0.209636 -0.136722,0.1914057 -0.464847,0.6061195 -0.328125,0.4147139 -0.492181,0.642579 0.236973,0.455728 0.373695,0.893228 l 1.667971,0.2552095 q 0.118487,0.018223 0.191404,0.1139367 0.07292,0.095702 0.07292,0.2141918 z"
     id="path4"
     inkscape:connector-curvature="0" />
</svg>
