<svg xmlns="http://www.w3.org/2000/svg" width="14" height="14" viewBox="0 0 14 14"><path d="m 13,10.75 q 0,0.929687 -0.66016,1.589844 Q 11.67969,13 10.75,13 H 9.25 V 8.25 h 1.58594 L 11.07031,6.5 H 9.25 V 5.382813 q 0,-0.421876 0.21875,-0.648438 0.21875,-0.226562 0.75,-0.226562 L 11.25,4.5 V 2.882812 q -0.75,-0.07031 -1.40625,-0.07031 -1.0625,0 -1.70312,0.628906 Q 7.5,4.070312 7.5,5.203125 V 6.5 H 5.75 V 8.25 H 7.5 V 13 H 3.25 Q 2.32031,13 1.660156,12.339844 1,11.679687 1,10.75 V 3.25 Q 1,2.320313 1.660156,1.660156 2.32031,1 3.25,1 h 7.5 Q 11.67969,1 12.33984,1.660156 13,2.320313 13,3.25 v 7.5 z"/></svg>