<?xml version="1.0" encoding="UTF-8" standalone="no"?>
<svg
   xmlns:dc="http://purl.org/dc/elements/1.1/"
   xmlns:cc="http://creativecommons.org/ns#"
   xmlns:rdf="http://www.w3.org/1999/02/22-rdf-syntax-ns#"
   xmlns:svg="http://www.w3.org/2000/svg"
   xmlns="http://www.w3.org/2000/svg"
   xmlns:sodipodi="http://sodipodi.sourceforge.net/DTD/sodipodi-0.dtd"
   xmlns:inkscape="http://www.inkscape.org/namespaces/inkscape"
   width="14"
   height="14"
   viewBox="0 0 14 14"
   id="svg2"
   version="1.1"
   inkscape:version="0.48.4 r9939"
   sodipodi:docname="libre-database.svg">
  <metadata
     id="metadata10">
    <rdf:RDF>
      <cc:Work
         rdf:about="">
        <dc:format>image/svg+xml</dc:format>
        <dc:type
           rdf:resource="http://purl.org/dc/dcmitype/StillImage" />
      </cc:Work>
    </rdf:RDF>
  </metadata>
  <defs
     id="defs8" />
  <sodipodi:namedview
     pagecolor="#ffffff"
     bordercolor="#666666"
     borderopacity="1"
     objecttolerance="10"
     gridtolerance="10"
     guidetolerance="10"
     inkscape:pageopacity="0"
     inkscape:pageshadow="2"
     inkscape:window-width="1920"
     inkscape:window-height="1030"
     id="namedview6"
     showgrid="false"
     inkscape:zoom="1.0814295"
     inkscape:cx="627.96623"
     inkscape:cy="1024"
     inkscape:window-x="0"
     inkscape:window-y="0"
     inkscape:window-maximized="1"
     inkscape:current-layer="svg2" />
  <path
     d="m 7.000005,6.142857 q 1.58705,0 2.96652,-0.287946 1.37946,-0.287946 2.17633,-0.850447 v 1.138393 q 0,0.462054 -0.68973,0.857143 -0.68973,0.395089 -1.875,0.626116 -1.18527,0.231027 -2.57812,0.231027 -1.39286,0 -2.57813,-0.231027 Q 3.236605,7.395089 2.546875,7 1.857145,6.604911 1.857145,6.142857 V 5.004464 q 0.79687,0.562501 2.17634,0.850447 1.37946,0.287946 2.96652,0.287946 z m 0,5.142857 q 1.58705,0 2.96652,-0.287946 1.37946,-0.287947 2.17633,-0.850446 v 1.138392 q 0,0.462054 -0.68973,0.857143 -0.68973,0.395089 -1.875,0.626116 Q 8.392855,13 7.000005,13 q -1.39286,0 -2.57813,-0.231027 -1.18527,-0.231027 -1.875,-0.626116 -0.68973,-0.395089 -0.68973,-0.857143 v -1.138392 q 0.79687,0.562499 2.17634,0.850446 1.37946,0.287946 2.96652,0.287946 z m 0,-2.571428 q 1.58705,0 2.96652,-0.287947 1.37946,-0.287946 2.17633,-0.850446 v 1.138393 q 0,0.462053 -0.68973,0.857143 -0.68973,0.395089 -1.875,0.626116 -1.18527,0.231026 -2.57812,0.231026 -1.39286,0 -2.57813,-0.231026 -1.18527,-0.231027 -1.875,-0.626116 -0.68973,-0.39509 -0.68973,-0.857143 V 7.575893 q 0.79687,0.5625 2.17634,0.850446 1.37946,0.287947 2.96652,0.287947 z M 7.000005,1 q 1.39285,0 2.57812,0.231027 1.18527,0.231027 1.875,0.626116 0.68973,0.395089 0.68973,0.857143 v 0.857143 q 0,0.462053 -0.68973,0.857142 -0.68973,0.39509 -1.875,0.626117 -1.18527,0.231026 -2.57812,0.231026 -1.39286,0 -2.57813,-0.231026 Q 3.236605,4.823661 2.546875,4.428571 1.857145,4.033482 1.857145,3.571429 V 2.714286 q 0,-0.462054 0.68973,-0.857143 0.68973,-0.395089 1.875,-0.626116 Q 5.607145,1 7.000005,1 z"
     id="path4"
     inkscape:connector-curvature="0" />
</svg>
