<svg xmlns="http://www.w3.org/2000/svg" width="14" height="14" viewBox="0 0 14 14"><g transform="matrix(0.49433533,0,0,0.49433533,0.57394485,0.57339853)"><path d="M 21.768,10.173 C 21.101,10.84 19.249,10.07 17.631,8.452 16.014,6.835 15.243,4.983 15.91,4.315 16.041,4.184 16.227,4.125 16.437,4.099 15.094,3.514 13.615,3.184 12.057,3.184 5.995,3.186 1.081,8.1 1.081,14.162 c 0,6.061 4.914,10.976 10.976,10.976 6.062,0 10.976,-4.915 10.976,-10.976 0,-1.656 -0.377,-3.221 -1.033,-4.628 -0.009,0.263 -0.077,0.486 -0.232,0.639 z"/><path d="m 20.764,9.643 c 0,0 5.262,-7.246 3.941,-8.566 -1.32,-1.321 -8.381,3.905 -8.381,3.905 0,0 0.419,3.272 4.44,4.661 z"/><path d="m 7.789,3.415 c 0,0 -2.892,-2.545 -3.953,-1.824 -1.061,0.72 0.237,4.217 0.237,4.217 0,0 1.142,-2.537 3.716,-2.393 z"/></g></svg>