<?xml version="1.0" encoding="UTF-8" standalone="no"?>
<!-- Generator: Adobe Illustrator 16.0.0, SVG Export Plug-In . SVG Version: 6.00 Build 0)  -->

<svg
   xmlns:dc="http://purl.org/dc/elements/1.1/"
   xmlns:cc="http://creativecommons.org/ns#"
   xmlns:rdf="http://www.w3.org/1999/02/22-rdf-syntax-ns#"
   xmlns:svg="http://www.w3.org/2000/svg"
   xmlns="http://www.w3.org/2000/svg"
   xmlns:sodipodi="http://sodipodi.sourceforge.net/DTD/sodipodi-0.dtd"
   xmlns:inkscape="http://www.inkscape.org/namespaces/inkscape"
   version="1.1"
   id="Capa_1"
   x="0px"
   y="0px"
   width="14"
   height="14"
   viewBox="0 0 14 14"
   xml:space="preserve"
   inkscape:version="0.48.4 r9939"
   sodipodi:docname="libre-empty-circle.svg"><metadata
     id="metadata39"><rdf:RDF><cc:Work
         rdf:about=""><dc:format>image/svg+xml</dc:format><dc:type
           rdf:resource="http://purl.org/dc/dcmitype/StillImage" /></cc:Work></rdf:RDF></metadata><defs
     id="defs37" /><sodipodi:namedview
     pagecolor="#ffffff"
     bordercolor="#666666"
     borderopacity="1"
     objecttolerance="10"
     gridtolerance="10"
     guidetolerance="10"
     inkscape:pageopacity="0"
     inkscape:pageshadow="2"
     inkscape:window-width="1920"
     inkscape:window-height="1030"
     id="namedview35"
     showgrid="false"
     inkscape:zoom="1.0195815"
     inkscape:cx="147.4554"
     inkscape:cy="250.35096"
     inkscape:window-x="0"
     inkscape:window-y="0"
     inkscape:window-maximized="1"
     inkscape:current-layer="Capa_1" /><path
     d="M 7,0 C 3.13396,0 0,3.133958 0,7 c 0,3.866042 3.13396,7 7,7 3.86604,0 7,-3.133958 7,-7 C 14,3.133958 10.86604,0 7,0 z M 7,12.716667 C 3.84285,12.716667 1.28348,10.157146 1.28348,7 1.28348,3.842854 3.84285,1.283333 7,1.283333 c 3.15729,0 5.71667,2.559521 5.71667,5.716667 0,3.157146 -2.55938,5.716667 -5.71667,5.716667 z"
     id="path3"
     inkscape:connector-curvature="0" /><g
     id="g5"
     transform="matrix(0.00756757,0,0,0.00756757,-0.749189,14.022703)" /><g
     id="g7"
     transform="matrix(0.00756757,0,0,0.00756757,-0.749189,14.022703)" /><g
     id="g9"
     transform="matrix(0.00756757,0,0,0.00756757,-0.749189,14.022703)" /><g
     id="g11"
     transform="matrix(0.00756757,0,0,0.00756757,-0.749189,14.022703)" /><g
     id="g13"
     transform="matrix(0.00756757,0,0,0.00756757,-0.749189,14.022703)" /><g
     id="g15"
     transform="matrix(0.00756757,0,0,0.00756757,-0.749189,14.022703)" /><g
     id="g17"
     transform="matrix(0.00756757,0,0,0.00756757,-0.749189,14.022703)" /><g
     id="g19"
     transform="matrix(0.00756757,0,0,0.00756757,-0.749189,14.022703)" /><g
     id="g21"
     transform="matrix(0.00756757,0,0,0.00756757,-0.749189,14.022703)" /><g
     id="g23"
     transform="matrix(0.00756757,0,0,0.00756757,-0.749189,14.022703)" /><g
     id="g25"
     transform="matrix(0.00756757,0,0,0.00756757,-0.749189,14.022703)" /><g
     id="g27"
     transform="matrix(0.00756757,0,0,0.00756757,-0.749189,14.022703)" /><g
     id="g29"
     transform="matrix(0.00756757,0,0,0.00756757,-0.749189,14.022703)" /><g
     id="g31"
     transform="matrix(0.00756757,0,0,0.00756757,-0.749189,14.022703)" /><g
     id="g33"
     transform="matrix(0.00756757,0,0,0.00756757,-0.749189,14.022703)" /></svg>