<svg xmlns="http://www.w3.org/2000/svg" width="14" height="14" viewBox="0 0 14 14"><g transform="matrix(0.75291756,0,0,0.75291756,0.22374196,0.99999996)"><g transform="translate(1,4)"><path d="M 8,0 C 3.598,0 0.031,2.66 0.031,3.969 0.031,5.278 3.597,7.938 8,7.938 12.4,7.938 15.969,5.32 15.969,3.969 15.969,2.618 12.4,0 8,0 L 8,0 z M 7.99,7.062 C 4.342,7.062 2.869,5.011 2.869,4 c 0,-1.011 1.473,-3.062 5.121,-3.062 3.646,0 5.119,2.02 5.119,3.062 0,1.042 -1.472,3.062 -5.119,3.062 l 0,0 z"/><path d="m 9.8640002,3.9630001 c 0,1.084135 -0.8649859,1.963 -1.932,1.963 -1.0670142,0 -1.9320001,-0.878865 -1.9320001,-1.963 C 6.0000001,2.8788651 6.864986,2 7.9320002,2 c 1.0670141,0 1.932,0.8788651 1.932,1.9630001 z"/></g></g></svg>