<svg
   xmlns="http://www.w3.org/2000/svg"
   viewBox="0 0 14 14"
   width="14"
   height="14">
<g
     id="g3"
     transform="matrix(0.01960784,0,0,0.01960784,1.0000033,1.000001)"><path
       d="M 567.297,106.951 C 416.932,18.793 306.283,0 306.283,0 306.283,0 306.166,0.018 306,0.049 305.834,0.018 305.717,0 305.717,0 c 0,0 -110.655,18.793 -261.014,106.951 0,0 -19.938,445.063 261.014,505.049 0.098,-0.018 0.185,-0.049 0.283,-0.068 0.098,0.018 0.185,0.049 0.283,0.068 C 587.229,552.014 567.297,106.951 567.297,106.951 Z M 306.302,37.79 c 24.615,5.323 111.049,27.451 223.778,90.686 -0.492,82.194 -14.553,393.213 -223.778,445.482 l 0,-536.168 0,0 z"
       id="path5"
       inkscape:connector-curvature="0" /></g><g
     id="g7"
     transform="translate(0,-598)" /><g
     id="g9"
     transform="translate(0,-598)" /><g
     id="g11"
     transform="translate(0,-598)" /><g
     id="g13"
     transform="translate(0,-598)" /><g
     id="g15"
     transform="translate(0,-598)" /><g
     id="g17"
     transform="translate(0,-598)" /><g
     id="g19"
     transform="translate(0,-598)" /><g
     id="g21"
     transform="translate(0,-598)" /><g
     id="g23"
     transform="translate(0,-598)" /><g
     id="g25"
     transform="translate(0,-598)" /><g
     id="g27"
     transform="translate(0,-598)" /><g
     id="g29"
     transform="translate(0,-598)" /><g
     id="g31"
     transform="translate(0,-598)" /><g
     id="g33"
     transform="translate(0,-598)" /><g
     id="g35"
     transform="translate(0,-598)" /></svg>