<?xml version="1.0" encoding="UTF-8" standalone="no"?>
<svg
   xmlns:dc="http://purl.org/dc/elements/1.1/"
   xmlns:cc="http://creativecommons.org/ns#"
   xmlns:rdf="http://www.w3.org/1999/02/22-rdf-syntax-ns#"
   xmlns:svg="http://www.w3.org/2000/svg"
   xmlns="http://www.w3.org/2000/svg"
   xmlns:sodipodi="http://sodipodi.sourceforge.net/DTD/sodipodi-0.dtd"
   xmlns:inkscape="http://www.inkscape.org/namespaces/inkscape"
   width="14"
   height="14"
   viewBox="0 0 14 14"
   id="svg2"
   version="1.1"
   inkscape:version="0.48.4 r9939"
   sodipodi:docname="libre-file-pdf.svg">
  <metadata
     id="metadata10">
    <rdf:RDF>
      <cc:Work
         rdf:about="">
        <dc:format>image/svg+xml</dc:format>
        <dc:type
           rdf:resource="http://purl.org/dc/dcmitype/StillImage" />
      </cc:Work>
    </rdf:RDF>
  </metadata>
  <defs
     id="defs8" />
  <sodipodi:namedview
     pagecolor="#ffffff"
     bordercolor="#666666"
     borderopacity="1"
     objecttolerance="10"
     gridtolerance="10"
     guidetolerance="10"
     inkscape:pageopacity="0"
     inkscape:pageshadow="2"
     inkscape:window-width="1920"
     inkscape:window-height="1030"
     id="namedview6"
     showgrid="false"
     inkscape:zoom="1.0814295"
     inkscape:cx="627.96623"
     inkscape:cy="1024"
     inkscape:window-x="0"
     inkscape:window-y="0"
     inkscape:window-maximized="1"
     inkscape:current-layer="svg2" />
  <path
     d="m 11.687505,3.544643 q 0.1875,0.1875 0.32143,0.508928 0.13392,0.321429 0.13392,0.589286 v 7.714286 q 0,0.267857 -0.1875,0.455357 Q 11.767855,13 11.500005,13 h -9 q -0.26786,0 -0.45536,-0.1875 -0.1875,-0.1875 -0.1875,-0.455357 V 1.642857 Q 1.857145,1.375 2.044645,1.1875 2.232145,1 2.500005,1 h 6 q 0.26785,0 0.58928,0.133928 0.32143,0.133929 0.50893,0.321429 z M 8.714285,1.910714 v 2.517857 h 2.51786 q -0.067,-0.194196 -0.14732,-0.274553 L 8.988845,2.058035 q -0.0804,-0.08036 -0.27456,-0.147321 z m 2.57143,10.232143 V 5.285714 h -2.78571 q -0.26786,0 -0.45536,-0.1875 -0.1875,-0.1875 -0.1875,-0.455357 V 1.857143 h -5.14286 v 10.285714 h 8.57143 z M 7.843755,8.171875 q 0.22098,0.174107 0.5625,0.375 0.39509,-0.04687 0.78348,-0.04687 0.98437,0 1.18527,0.328125 0.10714,0.147321 0.0134,0.348214 0,0.0067 -0.007,0.01339 l -0.0134,0.01339 v 0.0067 q -0.0402,0.254465 -0.47545,0.254465 -0.32142,0 -0.77008,-0.133929 -0.44867,-0.133928 -0.87054,-0.354911 -1.47991,0.160715 -2.625,0.555804 -1.02455,1.754464 -1.62054,1.754464 -0.10044,0 -0.1875,-0.04687 l -0.16071,-0.08036 q -0.007,-0.0067 -0.0402,-0.03348 -0.067,-0.06696 -0.0402,-0.241072 0.0603,-0.267856 0.375,-0.612723 0.31473,-0.344866 0.88393,-0.646205 0.0937,-0.06027 0.15402,0.04018 0.0134,0.01339 0.0134,0.02679 0.34822,-0.569197 0.71652,-1.319197 0.45536,-0.910714 0.69643,-1.754465 -0.16072,-0.549107 -0.20424,-1.06808 -0.0435,-0.518973 0.0435,-0.853794 0.0737,-0.267858 0.28125,-0.267858 h 0.14732 q 0.15402,0 0.23438,0.100447 0.12054,0.140625 0.0603,0.455357 -0.0134,0.04018 -0.0268,0.05357 0.007,0.02009 0.007,0.05357 v 0.200892 q -0.0134,0.823662 -0.0937,1.285715 0.3683,1.098214 0.97768,1.59375 z m -3.85715,2.752232 q 0.34822,-0.160714 0.91741,-1.058035 -0.34151,0.267856 -0.58593,0.562499 -0.24442,0.294643 -0.33148,0.495536 z m 2.66518,-6.160714 q -0.10044,0.28125 -0.0134,0.883928 0.007,-0.04687 0.0469,-0.294643 0,-0.02009 0.0469,-0.287946 0.007,-0.02679 0.0268,-0.05357 -0.007,-0.0067 -0.007,-0.01339 0,-0.0067 -0.003,-0.01004 -0.003,-0.0033 -0.003,-0.01005 -0.007,-0.147321 -0.0871,-0.241071 0,0.0067 -0.007,0.01339 v 0.01339 z m -0.83035,4.426339 q 0.90401,-0.361607 1.90178,-0.54241 -0.0134,-0.0067 -0.087,-0.06362 -0.0737,-0.05692 -0.10714,-0.0904 -0.50893,-0.44866 -0.85045,-1.178571 -0.1808,0.575893 -0.5558,1.319196 -0.2009,0.375 -0.30134,0.555804 z m 4.32589,-0.107143 q -0.16072,-0.160714 -0.9375,-0.160714 0.50893,0.1875 0.83036,0.1875 0.0937,0 0.12053,-0.0067 0,-0.0067 -0.0134,-0.02009 z"
     id="path4"
     inkscape:connector-curvature="0" />
</svg>
