<?xml version="1.0" encoding="UTF-8" standalone="no"?>
<!-- Generated by IcoMoon.io -->

<svg
   xmlns:dc="http://purl.org/dc/elements/1.1/"
   xmlns:cc="http://creativecommons.org/ns#"
   xmlns:rdf="http://www.w3.org/1999/02/22-rdf-syntax-ns#"
   xmlns:svg="http://www.w3.org/2000/svg"
   xmlns="http://www.w3.org/2000/svg"
   xmlns:sodipodi="http://sodipodi.sourceforge.net/DTD/sodipodi-0.dtd"
   xmlns:inkscape="http://www.inkscape.org/namespaces/inkscape"
   version="1.1"
   width="14"
   height="14"
   viewBox="0 0 14 14"
   id="svg2"
   inkscape:version="0.48.4 r9939"
   sodipodi:docname="libre-spinner-5.svg">
  <metadata
     id="metadata10">
    <rdf:RDF>
      <cc:Work
         rdf:about="">
        <dc:format>image/svg+xml</dc:format>
        <dc:type
           rdf:resource="http://purl.org/dc/dcmitype/StillImage" />
      </cc:Work>
    </rdf:RDF>
  </metadata>
  <defs
     id="defs8" />
  <sodipodi:namedview
     pagecolor="#ffffff"
     bordercolor="#666666"
     borderopacity="1"
     objecttolerance="10"
     gridtolerance="10"
     guidetolerance="10"
     inkscape:pageopacity="0"
     inkscape:pageshadow="2"
     inkscape:window-width="1920"
     inkscape:window-height="1030"
     id="namedview6"
     showgrid="false"
     inkscape:zoom="25.557453"
     inkscape:cx="11.48077"
     inkscape:cy="16"
     inkscape:window-x="0"
     inkscape:window-y="0"
     inkscape:window-maximized="1"
     inkscape:current-layer="svg2" />
  <path
     d="m 5.6875,12.6875 c 0,-0.724937 0.5875625,-1.3125 1.3125,-1.3125 0.7249375,0 1.3125,0.587563 1.3125,1.3125 C 8.3125,13.412437 7.7249375,14 7,14 6.2750625,14 5.6875,13.412437 5.6875,12.6875 z M 0,7 C 0,6.2750625 0.5875625,5.6875 1.3125,5.6875 2.0374375,5.6875 2.625,6.2750625 2.625,7 2.625,7.7249375 2.0374375,8.3125 1.3125,8.3125 0.5875625,8.3125 0,7.7249375 0,7 z m 11.375,0 c 0,-0.7249375 0.587563,-1.3125 1.3125,-1.3125 C 13.412437,5.6875 14,6.2750625 14,7 14,7.7249375 13.412437,8.3125 12.6875,8.3125 11.962563,8.3125 11.375,7.7249375 11.375,7 z M 1.666,2.9785 C 1.666,2.2535625 2.2535625,1.666 2.9785,1.666 3.7034375,1.666 4.291,2.2535625 4.291,2.9785 4.291,3.7034375 3.7034375,4.291 2.9785,4.291 2.2535625,4.291 1.666,3.7034375 1.666,2.9785 z m 8.043,8.043 c 0,-0.724937 0.587563,-1.3125 1.3125,-1.3125 0.724938,0 1.3125,0.587563 1.3125,1.3125 0,0.724937 -0.587562,1.3125 -1.3125,1.3125 -0.724937,0 -1.3125,-0.587563 -1.3125,-1.3125 z m -8.043,0 c 0,-0.724937 0.5875625,-1.3125 1.3125,-1.3125 0.7249375,0 1.3125,0.587563 1.3125,1.3125 0,0.724937 -0.5875625,1.3125 -1.3125,1.3125 -0.7249375,0 -1.3125,-0.587563 -1.3125,-1.3125 z m 8.043,-8.043 c 0,-0.7249375 0.587563,-1.3125 1.3125,-1.3125 0.724938,0 1.3125,0.5875625 1.3125,1.3125 0,0.7249375 -0.587562,1.3125 -1.3125,1.3125 -0.724937,0 -1.3125,-0.5875625 -1.3125,-1.3125 z"
     id="path4"
     style="fill:#000000"
     inkscape:connector-curvature="0" />
</svg>
