<svg xmlns="http://www.w3.org/2000/svg" width="14" height="14" viewBox="0 0 14 14"><path d="M 8.17969,10.179687 V 8.953125 q 0,-0.390625 -0.22657,-0.390625 -0.13281,0 -0.25781,0.125 v 1.75 q 0.125,0.125 0.25781,0.125 0.22657,0 0.22657,-0.382813 z m 1.4375,-0.953125 h 0.51562 V 8.960938 q 0,-0.398438 -0.25781,-0.398438 -0.25781,0 -0.25781,0.398438 V 9.226562 z M 5.15625,7.148437 v 0.546875 h -0.625 V 11 H 3.95313 V 7.695312 H 3.34375 V 7.148437 h 1.8125 z M 6.72656,8.132812 V 11 H 6.20312 v -0.3125 q -0.30468,0.351562 -0.59374,0.351562 -0.25782,0 -0.32813,-0.21875 -0.0469,-0.125 -0.0469,-0.421874 V 8.132812 H 5.75 v 2.109375 q 0,0.187501 0.008,0.203125 0.008,0.117188 0.11719,0.117188 0.15625,0 0.32812,-0.242188 v -2.1875 H 6.72675 z M 8.69531,9 v 1.140625 q 0,0.40625 -0.0547,0.570313 -0.0937,0.328124 -0.41407,0.328124 -0.27344,0 -0.53125,-0.320312 V 11 H 7.17186 V 7.148437 H 7.69529 V 8.40625 q 0.25,-0.3125 0.53125,-0.3125 0.32032,0 0.41407,0.328125 Q 8.69531,8.585938 8.69531,9 z m 1.96094,1.007812 v 0.07031 q 0,0.226563 -0.0156,0.335937 -0.0234,0.171875 -0.11718,0.3125 -0.21094,0.3125 -0.625,0.3125 -0.40625,0 -0.63281,-0.296874 Q 9.10159,10.531247 9.10159,10.070309 V 9.0625 q 0,-0.460937 0.15625,-0.671875 0.22656,-0.296875 0.625,-0.296875 0.39844,0 0.60938,0.296875 0.16406,0.21875 0.16406,0.671875 V 9.65625 H 9.61722 v 0.507813 q 0,0.398437 0.26562,0.398437 0.1875,0 0.23438,-0.203125 0,-0.0078 0.004,-0.05469 0.004,-0.04687 0.004,-0.128907 v -0.167969 h 0.53125 z m -3.52344,-6.4375 v 1.21875 q 0,0.398438 -0.25,0.398438 -0.25,0 -0.25,-0.398438 v -1.21875 q 0,-0.40625 0.25,-0.40625 0.25,0 0.25,0.40625 z m 4.16407,5.570313 q 0,-1.382813 -0.14844,-2.03125 Q 11.07034,6.765625 10.8125,6.535156 10.55469,6.304688 10.21875,6.265625 9.15625,6.148437 7,6.148437 q -2.14844,0 -3.21094,0.117188 Q 3.44531,6.304685 3.19141,6.535156 2.9375,6.765625 2.85938,7.109375 2.70312,7.789062 2.70312,9.140625 q 0,1.375 0.15626,2.03125 0.0781,0.335937 0.33203,0.570312 0.2539,0.234376 0.58984,0.273438 1.07031,0.117188 3.21875,0.117188 2.14844,0 3.21875,-0.117188 0.33594,-0.03906 0.58984,-0.273438 0.25391,-0.234375 0.33204,-0.570312 0.15625,-0.65625 0.15625,-2.03125 z M 5.39844,4.054688 6.10156,1.742188 H 5.51562 L 5.11719,3.265625 4.70313,1.742188 H 4.09375 L 4.28125,2.28125 4.46094,2.820312 Q 4.73438,3.625 4.82031,4.054688 V 5.625 H 5.39844 V 4.054688 z M 7.65625,4.6875 V 3.671875 q 0,-0.453125 -0.16406,-0.679688 -0.22657,-0.296874 -0.60938,-0.296874 -0.39844,0 -0.60937,0.296874 Q 6.10937,3.21875 6.10937,3.671875 V 4.6875 q 0,0.453125 0.16407,0.679687 0.21093,0.296876 0.60937,0.296876 0.38281,0 0.60938,-0.296876 Q 7.65625,5.15625 7.65625,4.6875 z M 9.07031,5.625 H 9.59375 V 2.734375 H 9.07031 V 4.945313 Q 8.89844,5.1875 8.74219,5.1875 q -0.11719,0 -0.125,-0.125 -0.008,-0.01563 -0.008,-0.203125 v -2.125 H 8.08575 v 2.289062 q 0,0.289063 0.0469,0.429688 0.0859,0.210938 0.33594,0.210938 0.28125,0 0.60156,-0.351563 V 5.625 z M 13,3.25 v 7.5 q 0,0.929687 -0.66016,1.589844 Q 11.67969,13 10.75,13 H 3.25 Q 2.32031,13 1.660156,12.339844 1,11.679687 1,10.75 V 3.25 Q 1,2.320313 1.660156,1.660156 2.32031,1 3.25,1 h 7.5 Q 11.67969,1 12.33984,1.660156 13,2.320313 13,3.25 z"/></svg>