<?xml version="1.0" encoding="UTF-8" standalone="no"?>
<svg
   xmlns:dc="http://purl.org/dc/elements/1.1/"
   xmlns:cc="http://creativecommons.org/ns#"
   xmlns:rdf="http://www.w3.org/1999/02/22-rdf-syntax-ns#"
   xmlns:svg="http://www.w3.org/2000/svg"
   xmlns="http://www.w3.org/2000/svg"
   xmlns:sodipodi="http://sodipodi.sourceforge.net/DTD/sodipodi-0.dtd"
   xmlns:inkscape="http://www.inkscape.org/namespaces/inkscape"
   width="14"
   height="14"
   viewBox="0 0 14 14"
   id="svg2"
   version="1.1"
   inkscape:version="0.48.4 r9939"
   sodipodi:docname="libre-file-word.svg">
  <metadata
     id="metadata10">
    <rdf:RDF>
      <cc:Work
         rdf:about="">
        <dc:format>image/svg+xml</dc:format>
        <dc:type
           rdf:resource="http://purl.org/dc/dcmitype/StillImage" />
      </cc:Work>
    </rdf:RDF>
  </metadata>
  <defs
     id="defs8" />
  <sodipodi:namedview
     pagecolor="#ffffff"
     bordercolor="#666666"
     borderopacity="1"
     objecttolerance="10"
     gridtolerance="10"
     guidetolerance="10"
     inkscape:pageopacity="0"
     inkscape:pageshadow="2"
     inkscape:window-width="1920"
     inkscape:window-height="1030"
     id="namedview6"
     showgrid="false"
     inkscape:zoom="1.0814295"
     inkscape:cx="627.96623"
     inkscape:cy="1024"
     inkscape:window-x="0"
     inkscape:window-y="0"
     inkscape:window-maximized="1"
     inkscape:current-layer="svg2" />
  <path
     d="m 11.687505,3.544643 q 0.1875,0.1875 0.32143,0.508928 0.13392,0.321429 0.13392,0.589286 v 7.714286 q 0,0.267857 -0.1875,0.455357 Q 11.767855,13 11.500005,13 h -9 q -0.26786,0 -0.45536,-0.1875 -0.1875,-0.1875 -0.1875,-0.455357 V 1.642857 Q 1.857145,1.375 2.044645,1.1875 2.232145,1 2.500005,1 h 6 q 0.26785,0 0.58928,0.133928 0.32143,0.133929 0.50893,0.321429 z M 8.714285,1.910714 v 2.517857 h 2.51786 q -0.067,-0.194196 -0.14732,-0.274553 L 8.988845,2.058035 q -0.0804,-0.08036 -0.27456,-0.147321 z m 2.57143,10.232143 V 5.285714 h -2.78571 q -0.26786,0 -0.45536,-0.1875 -0.1875,-0.1875 -0.1875,-0.455357 V 1.857143 h -5.14286 v 10.285714 h 8.57143 z m -7.8683,-6 v 0.716518 h 0.46875 l 1.09821,4.426339 h 1.06473 l 0.85715,-3.247768 q 0.0469,-0.133928 0.067,-0.308035 0.0134,-0.107143 0.0134,-0.160715 h 0.0268 l 0.0201,0.160715 q 0.007,0.02009 0.0234,0.133928 0.0167,0.113839 0.0368,0.174107 l 0.85714,3.247768 h 1.06473 l 1.09822,-4.426339 h 0.46875 V 6.142857 h -2.00893 v 0.716518 h 0.60268 l -0.66295,2.933036 q -0.0335,0.133928 -0.0469,0.308035 l -0.0134,0.140626 h -0.0268 l -0.0201,-0.140626 q -0.007,-0.03348 -0.0268,-0.140625 -0.0201,-0.107143 -0.0335,-0.16741 L 7.381605,6.142857 h -0.76339 l -0.96429,3.649554 q -0.0134,0.06027 -0.0301,0.164062 -0.0167,0.103795 -0.0234,0.143973 l -0.0268,0.140626 h -0.0268 l -0.0134,-0.140626 Q 5.520025,9.926339 5.486525,9.792411 L 4.823585,6.859375 h 0.60268 V 6.142857 h -2.00893 z"
     id="path4"
     inkscape:connector-curvature="0" />
</svg>
