<?xml version="1.0" encoding="UTF-8" standalone="no"?>
<svg
   xmlns:dc="http://purl.org/dc/elements/1.1/"
   xmlns:cc="http://creativecommons.org/ns#"
   xmlns:rdf="http://www.w3.org/1999/02/22-rdf-syntax-ns#"
   xmlns:svg="http://www.w3.org/2000/svg"
   xmlns="http://www.w3.org/2000/svg"
   xmlns:sodipodi="http://sodipodi.sourceforge.net/DTD/sodipodi-0.dtd"
   xmlns:inkscape="http://www.inkscape.org/namespaces/inkscape"
   width="14"
   height="14"
   viewBox="0 0 14 14"
   id="svg2"
   version="1.1"
   inkscape:version="0.48.4 r9939"
   sodipodi:docname="libre-star.svg">
  <metadata
     id="metadata10">
    <rdf:RDF>
      <cc:Work
         rdf:about="">
        <dc:format>image/svg+xml</dc:format>
        <dc:type
           rdf:resource="http://purl.org/dc/dcmitype/StillImage" />
      </cc:Work>
    </rdf:RDF>
  </metadata>
  <defs
     id="defs8" />
  <sodipodi:namedview
     pagecolor="#ffffff"
     bordercolor="#666666"
     borderopacity="1"
     objecttolerance="10"
     gridtolerance="10"
     guidetolerance="10"
     inkscape:pageopacity="0"
     inkscape:pageshadow="2"
     inkscape:window-width="1920"
     inkscape:window-height="1030"
     id="namedview6"
     showgrid="false"
     inkscape:zoom="1.0814295"
     inkscape:cx="627.96623"
     inkscape:cy="1024"
     inkscape:window-x="0"
     inkscape:window-y="0"
     inkscape:window-maximized="1"
     inkscape:current-layer="svg2" />
  <path
     d="m 13,5.712735 q 0,0.15866 -0.1875,0.34616 l -2.61779,2.55288 0.62019,3.60577 q 0.007,0.0505 0.007,0.14423 0,0.15145 -0.0757,0.25601 -0.0757,0.10457 -0.21995,0.10457 -0.13702,0 -0.28846,-0.0865 L 7,10.933895 3.76202,12.635815 q -0.15865,0.0865 -0.28846,0.0865 -0.15144,0 -0.22717,-0.10457 -0.0757,-0.10456 -0.0757,-0.25601 0,-0.0433 0.0144,-0.14423 L 3.80528,8.611735 1.180278,6.058855 Q 1,5.864185 1,5.712735 1,5.445915 1.403846,5.381005 L 5.02404,4.854565 6.64663,1.573315 Q 6.78365,1.277645 7,1.277645 q 0.21635,0 0.35337,0.29567 l 1.62259,3.28125 3.62019,0.52644 Q 13,5.445915 13,5.712735 z"
     id="path4"
     inkscape:connector-curvature="0" />
</svg>
