<svg xmlns="http://www.w3.org/2000/svg" id="libre-brand-reddit" viewBox="0 0 14 14"><g transform="matrix(0.02525162,0,0,0.02525098,0.53559791,0.53561024)"><path d="m 257.106,386.274 c -39.239,0 -71.67,3.42 -71.67,7.936 0,4.004 32.43,7.434 71.67,7.434 39.25,0 71.117,-3.43 71.117,-7.434 0.01,-4.516 -31.867,-7.936 -71.117,-7.936 z"/><path d="m 319.15,288.983 c -15.964,0 -28.426,12.534 -28.426,28.457 0,15.35 12.473,27.863 28.426,27.863 15.298,0 27.853,-12.514 27.853,-27.863 0,-15.933 -12.554,-28.457 -27.853,-28.457 z"/><path d="m 223.017,317.44 c 0,-15.933 -12.554,-28.457 -27.904,-28.457 -15.37,0 -27.894,12.534 -27.894,28.457 0,15.35 12.524,27.863 27.894,27.863 15.36,0 27.904,-12.514 27.904,-27.863 z"/><path d="m 420.034,18.391 -328.079,0 c -40.602,0 -73.564,32.942 -73.564,73.585 l 0,328.069 c 0,40.612 32.962,73.575 73.564,73.575 l 328.069,0 c 40.612,0 73.584,-32.962 73.584,-73.575 l 0,-328.079 c 0,-40.633 -32.973,-73.575 -73.575,-73.575 z m -54.282,27.73 31.867,0 0,32.41 -31.867,0 0,-32.41 z m -87.562,9.646 1.116,0 0,-1.127 79.606,0 0,15.923 -64.236,0 -25.026,128.553 -18.248,-3.41 26.788,-139.94 z M 27.331,274.186 c 0,-20.47 17.008,-37.55 37.509,-37.55 20.49,0 37.581,17.07 37.581,37.55 0,20.48 -17.09,37.54 -37.581,37.54 -20.501,0 -37.509,-17.07 -37.509,-37.54 z M 257.106,465.91 c -95.549,0 -172.892,-57.457 -172.892,-128 0,-6.236 0.522,-12.514 2.263,-18.78 15.36,-4.546 27.29,-18.739 27.29,-36.434 0,-4.505 -1.188,-9.072 -2.294,-13.036 30.689,-35.277 84.162,-59.156 145.633,-59.156 59.74,0 112.64,22.754 143.339,56.863 -2.263,4.557 -3.41,10.23 -3.41,15.329 0,18.811 13.107,33.587 30.72,36.997 1.127,6.247 1.741,12.534 1.741,18.207 0,70.553 -77.363,128.01 -172.39,128.01 z M 447.109,311.726 c -21.043,0 -37.54,-17.07 -37.54,-37.54 0,-20.47 16.497,-37.55 37.54,-37.55 20.5,0 37.54,17.07 37.54,37.55 0,20.48 -17.039,37.54 -37.54,37.54 z"/></g></svg>