<?xml version="1.0" encoding="UTF-8" standalone="no"?>
<svg
   xmlns:dc="http://purl.org/dc/elements/1.1/"
   xmlns:cc="http://creativecommons.org/ns#"
   xmlns:rdf="http://www.w3.org/1999/02/22-rdf-syntax-ns#"
   xmlns:svg="http://www.w3.org/2000/svg"
   xmlns="http://www.w3.org/2000/svg"
   xmlns:sodipodi="http://sodipodi.sourceforge.net/DTD/sodipodi-0.dtd"
   xmlns:inkscape="http://www.inkscape.org/namespaces/inkscape"
   width="14"
   height="14"
   viewBox="0 0 14 14"
   id="svg2"
   version="1.1"
   inkscape:version="0.48.4 r9939"
   sodipodi:docname="libre-close.svg">
  <metadata
     id="metadata10">
    <rdf:RDF>
      <cc:Work
         rdf:about="">
        <dc:format>image/svg+xml</dc:format>
        <dc:type
           rdf:resource="http://purl.org/dc/dcmitype/StillImage" />
      </cc:Work>
    </rdf:RDF>
  </metadata>
  <defs
     id="defs8" />
  <sodipodi:namedview
     pagecolor="#ffffff"
     bordercolor="#666666"
     borderopacity="1"
     objecttolerance="10"
     gridtolerance="10"
     guidetolerance="10"
     inkscape:pageopacity="0"
     inkscape:pageshadow="2"
     inkscape:window-width="1920"
     inkscape:window-height="1030"
     id="namedview6"
     showgrid="false"
     inkscape:zoom="58.417036"
     inkscape:cx="5.022837"
     inkscape:cy="7"
     inkscape:window-x="0"
     inkscape:window-y="0"
     inkscape:window-maximized="1"
     inkscape:current-layer="svg2" />
  <path
     d="m 12,10.047142 q 0,0.3367 -0.235692,0.572383 l -1.144783,1.144783 Q 10.383842,12 10.047142,12 9.7104417,12 9.47475,11.764308 L 7,9.289558 4.52525,11.764308 Q 4.2895583,12 3.9528583,12 3.6161583,12 3.380475,11.764308 L 2.2356917,10.619525 Q 2,10.383842 2,10.047142 2,9.710442 2.2356917,9.47475 L 4.7104417,7 2.2356917,4.52525 Q 2,4.2895583 2,3.9528583 2,3.6161583 2.2356917,3.380475 L 3.380475,2.2356917 Q 3.6161583,2 3.9528583,2 4.2895583,2 4.52525,2.2356917 L 7,4.7104417 9.47475,2.2356917 Q 9.7104417,2 10.047142,2 q 0.3367,0 0.572383,0.2356917 L 11.764308,3.380475 Q 12,3.6161583 12,3.9528583 12,4.2895583 11.764308,4.52525 L 9.2895583,7 11.764308,9.47475 Q 12,9.710442 12,10.047142 z"
     id="path4"
     inkscape:connector-curvature="0" />
</svg>
