<?xml version="1.0" encoding="UTF-8" standalone="no"?>
<svg
   xmlns:dc="http://purl.org/dc/elements/1.1/"
   xmlns:cc="http://creativecommons.org/ns#"
   xmlns:rdf="http://www.w3.org/1999/02/22-rdf-syntax-ns#"
   xmlns:svg="http://www.w3.org/2000/svg"
   xmlns="http://www.w3.org/2000/svg"
   xmlns:sodipodi="http://sodipodi.sourceforge.net/DTD/sodipodi-0.dtd"
   xmlns:inkscape="http://www.inkscape.org/namespaces/inkscape"
   width="14"
   height="14"
   viewBox="0 0 14 14"
   id="svg2"
   version="1.1"
   inkscape:version="0.48.4 r9939"
   sodipodi:docname="libre-text-height.svg">
  <metadata
     id="metadata10">
    <rdf:RDF>
      <cc:Work
         rdf:about="">
        <dc:format>image/svg+xml</dc:format>
        <dc:type
           rdf:resource="http://purl.org/dc/dcmitype/StillImage" />
      </cc:Work>
    </rdf:RDF>
  </metadata>
  <defs
     id="defs8" />
  <sodipodi:namedview
     pagecolor="#ffffff"
     bordercolor="#666666"
     borderopacity="1"
     objecttolerance="10"
     gridtolerance="10"
     guidetolerance="10"
     inkscape:pageopacity="0"
     inkscape:pageshadow="2"
     inkscape:window-width="1920"
     inkscape:window-height="1030"
     id="namedview6"
     showgrid="false"
     inkscape:zoom="0.27035738"
     inkscape:cx="983.24997"
     inkscape:cy="983.51895"
     inkscape:window-x="0"
     inkscape:window-y="0"
     inkscape:window-maximized="1"
     inkscape:current-layer="svg2" />
  <g
     id="g2994"
     transform="matrix(0.00677614,0,0,0.00677614,0.01154542,0.10818231)">
    <path
       sodipodi:nodetypes="ssccsccssccssccsccssccs"
       inkscape:connector-curvature="0"
       id="path4"
       d="m 1872,1536 c 22,0 36,6.1667 42,18.5 6,12.3333 2.3333,27.1667 -11,44.5 l -126,162 c -13.3333,17.3333 -29.6667,26 -49,26 -19.3333,0 -35.6667,-8.6667 -49,-26 l -126,-162 c -13.3333,-17.3333 -17,-32.1667 -11,-44.5 6,-12.3333 20,-18.5 42,-18.5 l 80,0 0,-1024 -80,0 c -22,0 -36,-6.16667 -42,-18.5 -6,-12.33333 -2.3333,-27.16667 11,-44.5 l 126,-162 c 13.3333,-17.33333 29.6667,-26 49,-26 19.3333,0 35.6667,8.66667 49,26 l 126,162 c 13.3333,17.33333 17,32.16667 11,44.5 -6,12.33333 -20,18.5 -42,18.5 l -80,0 0,1024 z" />
    <g
       id="text2987"
       style="font-size:2266.08178711px;font-style:normal;font-variant:normal;font-weight:bold;font-stretch:normal;line-height:125%;letter-spacing:0px;word-spacing:0px;fill:#000000;fill-opacity:1;stroke:none;font-family:Vegur;-inkscape-font-specification:Sans">
      <path
         id="path2992"
         d="m 1387.6851,495.87251 0,-253.80116 -1241.81285,0 0,253.80116 471.34501,0 0,1296.19879 299.1228,0 0,-1296.19879 471.34504,0"
         inkscape:connector-curvature="0" />
    </g>
  </g>
</svg>
