<?xml version="1.0" encoding="UTF-8" standalone="no"?>
<svg
   xmlns:dc="http://purl.org/dc/elements/1.1/"
   xmlns:cc="http://creativecommons.org/ns#"
   xmlns:rdf="http://www.w3.org/1999/02/22-rdf-syntax-ns#"
   xmlns:svg="http://www.w3.org/2000/svg"
   xmlns="http://www.w3.org/2000/svg"
   xmlns:sodipodi="http://sodipodi.sourceforge.net/DTD/sodipodi-0.dtd"
   xmlns:inkscape="http://www.inkscape.org/namespaces/inkscape"
   width="14"
   height="14"
   viewBox="0 0 14 14"
   id="svg2"
   version="1.1"
   inkscape:version="0.48.4 r9939"
   sodipodi:docname="libre-paragraph.svg">
  <metadata
     id="metadata10">
    <rdf:RDF>
      <cc:Work
         rdf:about="">
        <dc:format>image/svg+xml</dc:format>
        <dc:type
           rdf:resource="http://purl.org/dc/dcmitype/StillImage" />
      </cc:Work>
    </rdf:RDF>
  </metadata>
  <defs
     id="defs8" />
  <sodipodi:namedview
     pagecolor="#ffffff"
     bordercolor="#666666"
     borderopacity="1"
     objecttolerance="10"
     gridtolerance="10"
     guidetolerance="10"
     inkscape:pageopacity="0"
     inkscape:pageshadow="2"
     inkscape:window-width="1920"
     inkscape:window-height="1030"
     id="namedview6"
     showgrid="false"
     inkscape:zoom="1.0814295"
     inkscape:cx="627.96623"
     inkscape:cy="1024"
     inkscape:window-x="0"
     inkscape:window-y="0"
     inkscape:window-maximized="1"
     inkscape:current-layer="svg2" />
  <path
     d="m 11.89844,1.476562 v 0.570313 q 0,0.226562 -0.14454,0.476563 -0.14453,0.249999 -0.33203,0.249999 -0.39062,0 -0.42187,0.0078 -0.20313,0.04687 -0.25,0.242187 -0.0234,0.08594 -0.0234,0.5 v 9 q 0,0.195313 -0.14063,0.335938 Q 10.44531,13 10.25,13 H 9.40625 Q 9.21093,13 9.07031,12.859375 8.92969,12.71875 8.92969,12.523437 V 3.007813 H 7.8125 v 9.515624 q 0,0.195313 -0.13672,0.335938 Q 7.53906,13 7.33593,13 H 6.49218 Q 6.28906,13 6.15234,12.859375 6.01562,12.71875 6.01562,12.523437 v -3.875 Q 4.86719,8.554687 4.10156,8.1875 3.11718,7.734375 2.60156,6.789063 2.10156,5.875 2.10156,4.765625 2.10156,3.46875 2.78906,2.53125 3.47656,1.609375 4.42187,1.289062 5.28906,1 7.67968,1 h 3.74219 q 0.19532,0 0.33594,0.140625 0.14063,0.140625 0.14063,0.335937 z"
     id="path4"
     inkscape:connector-curvature="0" />
</svg>
