<?xml version="1.0" encoding="UTF-8" standalone="no"?>
<svg
   xmlns:dc="http://purl.org/dc/elements/1.1/"
   xmlns:cc="http://creativecommons.org/ns#"
   xmlns:rdf="http://www.w3.org/1999/02/22-rdf-syntax-ns#"
   xmlns:svg="http://www.w3.org/2000/svg"
   xmlns="http://www.w3.org/2000/svg"
   xmlns:sodipodi="http://sodipodi.sourceforge.net/DTD/sodipodi-0.dtd"
   xmlns:inkscape="http://www.inkscape.org/namespaces/inkscape"
   width="14"
   height="14"
   viewBox="0 0 14 14"
   id="svg2"
   version="1.1"
   inkscape:version="0.48.4 r9939"
   sodipodi:docname="libre-level-down.svg">
  <metadata
     id="metadata10">
    <rdf:RDF>
      <cc:Work
         rdf:about="">
        <dc:format>image/svg+xml</dc:format>
        <dc:type
           rdf:resource="http://purl.org/dc/dcmitype/StillImage" />
      </cc:Work>
    </rdf:RDF>
  </metadata>
  <defs
     id="defs8" />
  <sodipodi:namedview
     pagecolor="#ffffff"
     bordercolor="#666666"
     borderopacity="1"
     objecttolerance="10"
     gridtolerance="10"
     guidetolerance="10"
     inkscape:pageopacity="0"
     inkscape:pageshadow="2"
     inkscape:window-width="1920"
     inkscape:window-height="1030"
     id="namedview6"
     showgrid="false"
     inkscape:zoom="1.0814295"
     inkscape:cx="627.96623"
     inkscape:cy="1024"
     inkscape:window-x="0"
     inkscape:window-y="0"
     inkscape:window-maximized="1"
     inkscape:current-layer="svg2" />
  <path
     d="m 2.9068679,1 h 6 q 0.11079,0 0.19176,0.08097 0.081,0.08097 0.081,0.200284 v 7.355113 h 1.6363601 q 0.34091,0 0.49432,0.315342 0.15341,0.31534 -0.0767,0.588068 L 8.5063379,12.812504 Q 8.3528879,13 8.0886879,13 q -0.26421,0 -0.41762,-0.1875 l -2.72727,-3.272727 q -0.22159,-0.264205 -0.0767,-0.588068 0.15341,-0.315342 0.49431,-0.315342 h 1.63637 V 3.181818 h -2.72727 q -0.11932,0 -0.21307,-0.09375 L 2.6937979,1.451705 Q 2.5830079,1.332386 2.6596979,1.161932 2.7364079,1 2.9068679,1 z"
     id="path4"
     inkscape:connector-curvature="0" />
</svg>
