<svg xmlns="http://www.w3.org/2000/svg" id="libre-plugin" viewBox="0 0 14 14"><path d="m 11.571429,6.714286 -0.857143,0 0,-2.285714 C 10.714286,3.8 10.2,3.285714 9.5714286,3.285714 l -2.2857144,0 0,-0.857142 C 7.2857142,1.64 6.6457142,1 5.8571428,1 5.0685714,1 4.4285714,1.64 4.4285714,2.428572 l 0,0.857142 -2.2857142,0 c -0.6285714,0 -1.137143,0.514286 -1.137143,1.142858 l 0,2.171428 0.8514286,0 C 2.7085714,6.6 3.4,7.291428 3.4,8.142858 3.4,8.994286 2.7085714,9.685714 1.8571428,9.685714 L 1,9.685714 1,11.857142 C 1,12.485714 1.5142858,13 2.1428572,13 l 2.1714286,0 0,-0.857142 C 4.3142858,11.291428 5.0057142,10.6 5.8571428,10.6 6.7085714,10.6 7.4,11.291428 7.4,12.142858 L 7.4,13 9.5714286,13 C 10.2,13 10.714286,12.485714 10.714286,11.857142 l 0,-2.285714 0.857143,0 C 12.36,9.571428 13,8.931428 13,8.142858 13,7.354286 12.36,6.714286 11.571429,6.714286 Z"/></svg>