<?xml version="1.0" encoding="UTF-8" standalone="no"?>
<svg
   xmlns:dc="http://purl.org/dc/elements/1.1/"
   xmlns:cc="http://creativecommons.org/ns#"
   xmlns:rdf="http://www.w3.org/1999/02/22-rdf-syntax-ns#"
   xmlns:svg="http://www.w3.org/2000/svg"
   xmlns="http://www.w3.org/2000/svg"
   xmlns:sodipodi="http://sodipodi.sourceforge.net/DTD/sodipodi-0.dtd"
   xmlns:inkscape="http://www.inkscape.org/namespaces/inkscape"
   width="14"
   height="14"
   viewBox="0 0 14 14"
   id="svg2"
   version="1.1"
   inkscape:version="0.48.4 r9939"
   sodipodi:docname="libre-recycle.svg">
  <metadata
     id="metadata10">
    <rdf:RDF>
      <cc:Work
         rdf:about="">
        <dc:format>image/svg+xml</dc:format>
        <dc:type
           rdf:resource="http://purl.org/dc/dcmitype/StillImage" />
      </cc:Work>
    </rdf:RDF>
  </metadata>
  <defs
     id="defs8" />
  <sodipodi:namedview
     pagecolor="#ffffff"
     bordercolor="#666666"
     borderopacity="1"
     objecttolerance="10"
     gridtolerance="10"
     guidetolerance="10"
     inkscape:pageopacity="0"
     inkscape:pageshadow="2"
     inkscape:window-width="1920"
     inkscape:window-height="1030"
     id="namedview6"
     showgrid="false"
     inkscape:zoom="1.0814295"
     inkscape:cx="627.96623"
     inkscape:cy="1024"
     inkscape:window-x="0"
     inkscape:window-y="0"
     inkscape:window-maximized="1"
     inkscape:current-layer="svg2" />
  <path
     d="m 6.5916078,9.1544246 -0.10228,2.5094004 -0.0136,0.15002 -2.86398,-0.19776 q -0.24549,-0.0204 -0.45688,-0.21479 -0.21139,-0.19435 -0.32049,-0.44665 -0.075,-0.18411 -0.0989,-0.37504 -0.0239,-0.19094 0.0273,-0.44324 0.0511,-0.2523004 0.0818,-0.3750404 0.0307,-0.12275 0.14661,-0.43642 0.11592,-0.31368 0.12956,-0.36141 0.53188,0.0818 3.47087,0.19093 z m -2.63895,-3.99593 1.22742,2.5844 -1.0024,-0.62735 q -0.42959,0.49097 -0.76031,0.98535 -0.33073,0.49438 -0.49438,0.85237 -0.16366,0.358 -0.26935,0.6444 -0.1057,0.2864 -0.12615,0.4296004 l -0.0273,0.1432 -1.295612,-2.4343904 q -0.115923,-0.17729 -0.122742,-0.38186 -0.0068,-0.20457 0.04091,-0.3205 l 0.05455,-0.12274 q 0.238665,-0.4296 0.777367,-1.28197 l -0.95466102,-0.58644 z m 8.3941902,3.52542 -1.28197,2.4480304 q -0.0818,0.19775 -0.24889,0.31708 -0.16707,0.11933 -0.29663,0.13979 l -0.12274,0.0273 q -0.4841502,0.0477 -1.4933602,0.0818 l 0.0546,1.11832 -1.56837,-2.50258 1.43881,-2.4684804 0.0477,1.17969 q 1.1592302,0.10911 1.9297802,0.0341 0.77055,-0.075 1.15923,-0.22503 z m -5.3529202,-6.30076 q -0.32049,0.4296 -1.80703,2.96627 l -2.16163,-1.27516 -0.12956,-0.0818 1.53428,-2.42757 q 0.13638,-0.21139 0.40914,-0.30686 0.27276,-0.0955 0.54552,-0.0682 0.16366,0.0136 0.33072,0.0818 0.16707,0.0682 0.2864,0.1432 0.11933,0.075 0.28299,0.22503 0.16365,0.15002 0.24548,0.23525 0.0818,0.0852 0.24549,0.26936 0.16365,0.18411 0.2182,0.23866 z m 4.4664502,2.09344 1.44563,2.47529 q 0.12274,0.25231 0.0852,0.51825 -0.0375,0.26594 -0.18752,0.50461 -0.0887,0.13638 -0.22503,0.2523 -0.13638,0.11592 -0.25912,0.19093 -0.12274,0.075 -0.33072,0.15002 -0.20798,0.075 -0.3205,0.1091 -0.11251,0.0341 -0.35118,0.0955 -0.23866,0.0614 -0.31367,0.0818 -0.23185,-0.49097 -1.8070402,-2.97309 l 2.1343502,-1.32971 z m -0.97511,-1.5411 0.96829,-0.56598 -1.5001802,2.54349 -2.85716,-0.13638 1.02967,-0.58643 q -0.23185,-0.60689 -0.51143,-1.13196 -0.27958,-0.52506 -0.51483,-0.84214 -0.23526,-0.31709 -0.43983,-0.54553 -0.20457,-0.22843 -0.32049,-0.31708 l -0.11592,-0.0886 2.76169,0.007 q 0.21139,-0.0204 0.39551,0.0716 0.18411,0.0921 0.26594,0.19434 l 0.075,0.10229 q 0.26594,0.41596 0.7637302,1.29561 z"
     id="path4"
     inkscape:connector-curvature="0" />
</svg>
