<?xml version="1.0" encoding="UTF-8" standalone="no"?>
<svg
   xmlns:dc="http://purl.org/dc/elements/1.1/"
   xmlns:cc="http://creativecommons.org/ns#"
   xmlns:rdf="http://www.w3.org/1999/02/22-rdf-syntax-ns#"
   xmlns:svg="http://www.w3.org/2000/svg"
   xmlns="http://www.w3.org/2000/svg"
   xmlns:sodipodi="http://sodipodi.sourceforge.net/DTD/sodipodi-0.dtd"
   xmlns:inkscape="http://www.inkscape.org/namespaces/inkscape"
   width="14"
   height="14"
   viewBox="0 0 14 14"
   id="svg2"
   version="1.1"
   inkscape:version="0.48.4 r9939"
   sodipodi:docname="libre-folder-open.svg">
  <metadata
     id="metadata10">
    <rdf:RDF>
      <cc:Work
         rdf:about="">
        <dc:format>image/svg+xml</dc:format>
        <dc:type
           rdf:resource="http://purl.org/dc/dcmitype/StillImage" />
      </cc:Work>
    </rdf:RDF>
  </metadata>
  <defs
     id="defs8" />
  <sodipodi:namedview
     pagecolor="#ffffff"
     bordercolor="#666666"
     borderopacity="1"
     objecttolerance="10"
     gridtolerance="10"
     guidetolerance="10"
     inkscape:pageopacity="0"
     inkscape:pageshadow="2"
     inkscape:window-width="1920"
     inkscape:window-height="1030"
     id="namedview6"
     showgrid="false"
     inkscape:zoom="1.0814295"
     inkscape:cx="627.96623"
     inkscape:cy="1024"
     inkscape:window-x="0"
     inkscape:window-y="0"
     inkscape:window-maximized="1"
     inkscape:current-layer="svg2" />
  <path
     d="m 13,7.76637 q 0,0.19797 -0.19798,0.4215 l -2.14582,2.529 Q 10.38159,11.04258 9.88664,11.26929 9.3917,11.49601 8.9702,11.49601 H 2.02182 q -0.217137,0 -0.386376,-0.083 -0.169239,-0.083 -0.169239,-0.27462 0,-0.19797 0.197978,-0.4215 L 3.81001,8.18789 Q 4.08462,7.86218 4.57956,7.63547 5.07451,7.40875 5.49601,7.40875 h 6.94838 q 0.21713,0 0.38637,0.083 Q 13,7.57475 13,7.76637 z M 10.80947,5.56945 V 6.59127 H 5.49601 q -0.60032,0 -1.25812,0.30336 Q 3.5801,7.19798 3.19053,7.6578 l -2.152212,2.529 -0.03193,0.0383 q 0,-0.0255 -0.0032,-0.0798 Q 1,10.09101 1,10.06546 V 3.93454 Q 1,3.34699 1.421501,2.92549 1.843002,2.50399 2.43055,2.50399 h 2.04364 q 0.58754,0 1.00905,0.4215 0.4215,0.4215 0.4215,1.00905 v 0.20437 h 3.47418 q 0.58755,0 1.00905,0.4215 0.4215,0.4215 0.4215,1.00904 z"
     id="path4"
     inkscape:connector-curvature="0" />
</svg>
