<?xml version="1.0" encoding="UTF-8" standalone="no"?>
<svg
   xmlns:dc="http://purl.org/dc/elements/1.1/"
   xmlns:cc="http://creativecommons.org/ns#"
   xmlns:rdf="http://www.w3.org/1999/02/22-rdf-syntax-ns#"
   xmlns:svg="http://www.w3.org/2000/svg"
   xmlns="http://www.w3.org/2000/svg"
   xmlns:sodipodi="http://sodipodi.sourceforge.net/DTD/sodipodi-0.dtd"
   xmlns:inkscape="http://www.inkscape.org/namespaces/inkscape"
   width="14"
   height="14"
   viewBox="0 0 14 14"
   id="svg2"
   version="1.1"
   inkscape:version="0.48.4 r9939"
   sodipodi:docname="libre-pencil.svg">
  <metadata
     id="metadata10">
    <rdf:RDF>
      <cc:Work
         rdf:about="">
        <dc:format>image/svg+xml</dc:format>
        <dc:type
           rdf:resource="http://purl.org/dc/dcmitype/StillImage" />
      </cc:Work>
    </rdf:RDF>
  </metadata>
  <defs
     id="defs8" />
  <sodipodi:namedview
     pagecolor="#ffffff"
     bordercolor="#666666"
     borderopacity="1"
     objecttolerance="10"
     gridtolerance="10"
     guidetolerance="10"
     inkscape:pageopacity="0"
     inkscape:pageshadow="2"
     inkscape:window-width="1920"
     inkscape:window-height="1030"
     id="namedview6"
     showgrid="false"
     inkscape:zoom="1.0814295"
     inkscape:cx="627.96623"
     inkscape:cy="1024"
     inkscape:window-x="0"
     inkscape:window-y="0"
     inkscape:window-maximized="1"
     inkscape:current-layer="svg2" />
  <path
     d="M 3.87525,11.986139 4.59604,11.265347 2.73465,9.403961 2.01386,10.124753 v 0.847524 h 1.01386 v 1.013862 H 3.87525 z M 8.01782,4.635643 q 0,-0.174257 -0.17426,-0.174257 -0.0792,0 -0.13465,0.05545 L 3.41584,8.809905 q -0.0554,0.05545 -0.0554,0.134654 0,0.174257 0.17425,0.174257 0.0792,0 0.13466,-0.05545 L 7.96242,4.770297 q 0.0554,-0.05545 0.0554,-0.134654 z M 7.5901,3.114851 10.88515,6.409901 4.29505,13 H 1 V 9.70495 z M 13,3.875247 Q 13,4.29505 12.70693,4.588119 L 11.39208,5.90297 8.09703,2.607921 9.41188,1.30099 Q 9.69703,1 10.12475,1 q 0.4198,0 0.72079,0.30099 l 1.86139,1.853465 Q 13,3.463366 13,3.875247 z"
     id="path4"
     inkscape:connector-curvature="0" />
</svg>
