<?xml version="1.0" encoding="UTF-8" standalone="no"?>
<svg
   xmlns:dc="http://purl.org/dc/elements/1.1/"
   xmlns:cc="http://creativecommons.org/ns#"
   xmlns:rdf="http://www.w3.org/1999/02/22-rdf-syntax-ns#"
   xmlns:svg="http://www.w3.org/2000/svg"
   xmlns="http://www.w3.org/2000/svg"
   xmlns:sodipodi="http://sodipodi.sourceforge.net/DTD/sodipodi-0.dtd"
   xmlns:inkscape="http://www.inkscape.org/namespaces/inkscape"
   width="14"
   height="14"
   viewbox="0 0 14 14"
   id="svg2"
   version="1.1"
   inkscape:version="0.91 r"
   sodipodi:docname="libre-license-creative-commons.svg">
  <metadata
     id="metadata13">
    <rdf:RDF>
      <cc:Work
         rdf:about="">
        <dc:format>image/svg+xml</dc:format>
        <dc:type
           rdf:resource="http://purl.org/dc/dcmitype/StillImage" />
      </cc:Work>
    </rdf:RDF>
  </metadata>
  <defs
     id="defs11" />
  <sodipodi:namedview
     pagecolor="#ffffff"
     bordercolor="#666666"
     borderopacity="1"
     objecttolerance="10"
     gridtolerance="10"
     guidetolerance="10"
     inkscape:pageopacity="0"
     inkscape:pageshadow="2"
     inkscape:window-width="1366"
     inkscape:window-height="716"
     id="namedview9"
     showgrid="false"
     inkscape:zoom="16.857143"
     inkscape:cx="20.225635"
     inkscape:cy="12.070644"
     inkscape:window-x="0"
     inkscape:window-y="0"
     inkscape:window-maximized="1"
     inkscape:current-layer="svg2" />
  <g
     id="g3350">
    <g
       transform="translate(4.086678,-7.2154237)"
       id="g3341">
      <path
         d="m 2.9051693,8.2154237 c -1.6460848,0 -3.0946091,0.608341 -4.2139923,1.74247 -1.1523731,1.1670753 -1.777855,2.6795003 -1.777855,4.2574363 0,1.594596 0.6089869,3.074077 1.76136,4.224679 1.1523732,1.150792 2.6501928,1.775415 4.2304873,1.775415 1.5801049,0 3.1111041,-0.624623 4.2962777,-1.791697 1.119383,-1.101375 1.711875,-2.564383 1.711875,-4.208397 0,-1.627354 -0.592492,-3.106645 -1.72837,-4.2409633 C 6.0327684,8.8235747 4.5512541,8.2154237 2.9051693,8.2154237 Z m 0.016305,1.084902 c 1.3499336,0 2.5516021,0.509506 3.4897301,1.4467253 0.9218226,0.920368 1.4155346,2.13686 1.4155346,3.468279 0,1.347891 -0.477406,2.531627 -1.3990396,3.435712 -0.9713076,0.953313 -2.2222714,1.463008 -3.5062251,1.463008 -1.3002591,0 -2.5184226,-0.509507 -3.4567402,-1.446725 -0.9383176,-0.93703 -1.4650193,-2.169805 -1.4650193,-3.451995 0,-1.298474 0.5267017,-2.531249 1.4650193,-3.48494 C 0.3865568,9.7935497 1.5717302,9.3003257 2.9214743,9.3003257 Z"
         id="path4"
         inkscape:connector-curvature="0" />
    </g>
    <g
       id="text3341"
       style="font-style:normal;font-variant:normal;font-weight:bold;font-stretch:normal;font-size:5px;line-height:125%;font-family:Sans;-inkscape-font-specification:'Sans Bold';letter-spacing:0px;word-spacing:0px;fill:#000000;fill-opacity:1;stroke:none;stroke-width:1px;stroke-linecap:butt;stroke-linejoin:miter;stroke-opacity:1">
      <path
         id="path3346"
         style=""
         d="M 6.7143555,8.619873 Q 6.4555664,8.7541504 6.1748047,8.8225098 5.894043,8.8908691 5.5888672,8.8908691 q -0.9106445,0 -1.4428711,-0.5078125 -0.5322266,-0.5102539 -0.5322266,-1.3818359 0,-0.8740234 0.5322266,-1.3818359 0.5322266,-0.5102539 1.4428711,-0.5102539 0.3051758,0 0.5859375,0.068359 0.2807617,0.068359 0.5395508,0.2026368 l 0,0.7543945 Q 6.453125,5.9562988 6.1992187,5.873291 5.9453125,5.7902832 5.6645508,5.7902832 q -0.5029297,0 -0.7910156,0.3222656 -0.288086,0.3222657 -0.288086,0.8886719 0,0.5639648 0.288086,0.8862305 0.2880859,0.3222656 0.7910156,0.3222656 0.2807617,0 0.5346679,-0.083008 0.2539063,-0.083008 0.5151368,-0.2612305 l 0,0.7543945 z" />
      <path
         id="path3348"
         style=""
         d="m 10.38623,8.619873 q -0.258789,0.1342774 -0.5395503,0.2026368 -0.2807617,0.068359 -0.5859375,0.068359 -0.9106445,0 -1.4428711,-0.5078125 -0.5322266,-0.5102539 -0.5322266,-1.3818359 0,-0.8740234 0.5322266,-1.3818359 0.5322266,-0.5102539 1.4428711,-0.5102539 0.3051758,0 0.5859375,0.068359 0.2807613,0.068359 0.5395503,0.2026368 l 0,0.7543945 Q 10.125,5.9562988 9.8710938,5.873291 9.6171875,5.7902832 9.3364258,5.7902832 q -0.5029297,0 -0.7910156,0.3222656 -0.288086,0.3222657 -0.288086,0.8886719 0,0.5639648 0.288086,0.8862305 0.2880859,0.3222656 0.7910156,0.3222656 0.2807617,0 0.534668,-0.083008 Q 10.125,8.0437012 10.38623,7.8654785 l 0,0.7543945 z" />
    </g>
  </g>
</svg>
