<?xml version="1.0" encoding="UTF-8" standalone="no"?>
<!-- Generator: Adobe Illustrator 16.0.0, SVG Export Plug-In . SVG Version: 6.00 Build 0)  -->

<svg
   xmlns:dc="http://purl.org/dc/elements/1.1/"
   xmlns:cc="http://creativecommons.org/ns#"
   xmlns:rdf="http://www.w3.org/1999/02/22-rdf-syntax-ns#"
   xmlns:svg="http://www.w3.org/2000/svg"
   xmlns="http://www.w3.org/2000/svg"
   xmlns:sodipodi="http://sodipodi.sourceforge.net/DTD/sodipodi-0.dtd"
   xmlns:inkscape="http://www.inkscape.org/namespaces/inkscape"
   version="1.1"
   id="Layer_1"
   x="0px"
   y="0px"
   width="14"
   height="14"
   viewBox="0 0 14 14"
   enable-background="new 0 0 100 100"
   xml:space="preserve"
   inkscape:version="0.48.4 r9939"
   sodipodi:docname="libre-seo-stats.svg"><metadata
     id="metadata23"><rdf:RDF><cc:Work
         rdf:about=""><dc:format>image/svg+xml</dc:format><dc:type
           rdf:resource="http://purl.org/dc/dcmitype/StillImage" /></cc:Work></rdf:RDF></metadata><defs
     id="defs21" /><sodipodi:namedview
     pagecolor="#ffffff"
     bordercolor="#666666"
     borderopacity="1"
     objecttolerance="10"
     gridtolerance="10"
     guidetolerance="10"
     inkscape:pageopacity="0"
     inkscape:pageshadow="2"
     inkscape:window-width="1920"
     inkscape:window-height="1030"
     id="namedview19"
     showgrid="false"
     inkscape:zoom="21.20527"
     inkscape:cx="7.4290855"
     inkscape:cy="8.9839365"
     inkscape:window-x="0"
     inkscape:window-y="0"
     inkscape:window-maximized="1"
     inkscape:current-layer="Layer_1" /><g
     id="g2988"><g
       transform="matrix(0.11731753,0,0,0.11731753,1.1341055,0.0379)"
       id="g5"><path
         style=""
         d="m 22.750999,49.494999 8,0 0,15 -8,0 z"
         id="rect7" /><path
         style=""
         d="m 39.750999,42.494999 8,0 0,22 -8,0 z"
         id="rect9" /><path
         style=""
         d="m 55.751999,49.494999 8,0 0,15 -8,0 z"
         id="rect11" /><path
         style=""
         d="m 70.751999,42.494999 8,0 0,22 -8,0 z"
         id="rect13" /><path
         style=""
         d="M 44.854,29.435 16.826,43.847 18.677,47.393 44.648,34.055 60.82,44.414 83.174,28.24 80.828,25 60.684,39.576 z"
         id="polygon15" /></g><path
       inkscape:connector-curvature="0"
       id="path4"
       d="M 12.199988,8 V 2.8 q 0,-0.0812 -0.0594,-0.14063 -0.0594,-0.0594 -0.14063,-0.0594 H 1.9999675 q -0.08125,0 -0.14063,0.0594 -0.05937,0.0594 -0.05937,0.14063 V 8 q 0,0.0812 0.05937,0.14063 0.05938,0.0594 0.14063,0.0594 h 9.9999905 q 0.0813,0 0.14063,-0.0594 0.0594,-0.0594 0.0594,-0.14063 z m 0.79999,-5.2 v 6.8 q 0,0.4125 -0.29375,0.70625 Q 12.412488,10.6 11.999978,10.6 H 8.5999875 q 0,0.23125 0.1,0.48437 0.1,0.25313 0.20001,0.44376 0.1,0.19062 0.1,0.27187 0,0.1625 -0.11875,0.28125 Q 8.7624975,12.2 8.6000075,12.2 h -3.2 q -0.1625,0 -0.28125,-0.11875 -0.11875,-0.11875 -0.11875,-0.28125 0,-0.0875 0.1,-0.275 0.1,-0.1875 0.19999,-0.4375 0.10001,-0.25 0.10001,-0.4875 h -3.4 q -0.412505,0 -0.706255,-0.29375 Q 1.0000025,10.0125 1.0000025,9.6 V 2.8 q 0,-0.4125 0.29375,-0.70625 Q 1.5875025,1.8 2.0000075,1.8 h 9.9999905 q 0.41251,0 0.70625,0.29375 0.29375,0.29375 0.29375,0.70625 z" /></g></svg>