<svg xmlns="http://www.w3.org/2000/svg" width="14" height="14" viewBox="0 0 14 14"><path d="M 6.142855,3.571429 V 2.714286 h -0.85714 v 0.857143 h 0.85714 z m 0.85715,0.857142 V 3.571429 h -0.85715 v 0.857142 h 0.85715 z M 6.142855,5.285714 V 4.428571 h -0.85714 v 0.857143 h 0.85714 z m 0.85715,0.857143 V 5.285714 h -0.85715 v 0.857143 h 0.85715 z m 4.6875,-2.598214 q 0.1875,0.1875 0.32143,0.508928 0.13392,0.321429 0.13392,0.589286 v 7.714286 q 0,0.267857 -0.1875,0.455357 Q 11.767855,13 11.500005,13 h -9 q -0.26786,0 -0.45536,-0.1875 -0.1875,-0.1875 -0.1875,-0.455357 V 1.642857 Q 1.857145,1.375 2.044645,1.1875 2.232145,1 2.500005,1 h 6 q 0.26785,0 0.58928,0.133928 0.32143,0.133929 0.50893,0.321429 z M 8.714285,1.910714 v 2.517857 h 2.51786 q -0.067,-0.194196 -0.14732,-0.274553 L 8.988845,2.058035 q -0.0804,-0.08036 -0.27456,-0.147321 z m 2.57143,10.232143 V 5.285714 h -2.78571 q -0.26786,0 -0.45536,-0.1875 -0.1875,-0.1875 -0.1875,-0.455357 V 1.857143 H 7.000005 V 2.714286 H 6.142855 V 1.857143 h -3.42857 v 10.285714 h 8.57143 z m -4.19866,-4.828125 0.71652,2.337054 q 0.0536,0.180803 0.0536,0.348214 0,0.555804 -0.48549,0.920759 -0.48549,0.364955 -1.2288,0.364955 -0.7433,0 -1.22879,-0.364955 Q 4.428605,10.555804 4.428605,10 q 0,-0.167411 0.0536,-0.348214 Q 4.622835,9.229911 5.285775,7 V 6.142857 h 0.85714 V 7 h 0.52902 q 0.14732,0 0.26116,0.08705 0.11384,0.08705 0.15402,0.227678 z m -0.9442,3.113839 q 0.35492,0 0.60603,-0.127232 Q 7.000005,10.174107 7.000005,10 q 0,-0.174107 -0.25112,-0.301339 -0.25111,-0.127232 -0.60603,-0.127232 -0.35491,0 -0.60602,0.127232 Q 5.285715,9.825893 5.285715,10 q 0,0.174107 0.25112,0.301339 0.25111,0.127232 0.60602,0.127232 z"/></svg>