<svg xmlns="http://www.w3.org/2000/svg" width="14" height="14" viewBox="0 0 14 14"><path d="m 5.6875,12.6875 c 0,-0.724937 0.5875625,-1.3125 1.3125,-1.3125 0.7249375,0 1.3125,0.587563 1.3125,1.3125 C 8.3125,13.412437 7.7249375,14 7,14 6.2750625,14 5.6875,13.412437 5.6875,12.6875 z M 0,7 C 0,6.2750625 0.5875625,5.6875 1.3125,5.6875 2.0374375,5.6875 2.625,6.2750625 2.625,7 2.625,7.7249375 2.0374375,8.3125 1.3125,8.3125 0.5875625,8.3125 0,7.7249375 0,7 z m 11.375,0 c 0,-0.7249375 0.587563,-1.3125 1.3125,-1.3125 C 13.412437,5.6875 14,6.2750625 14,7 14,7.7249375 13.412437,8.3125 12.6875,8.3125 11.962563,8.3125 11.375,7.7249375 11.375,7 z M 1.666,2.9785 C 1.666,2.2535625 2.2535625,1.666 2.9785,1.666 3.7034375,1.666 4.291,2.2535625 4.291,2.9785 4.291,3.7034375 3.7034375,4.291 2.9785,4.291 2.2535625,4.291 1.666,3.7034375 1.666,2.9785 z m 8.043,8.043 c 0,-0.724937 0.587563,-1.3125 1.3125,-1.3125 0.724938,0 1.3125,0.587563 1.3125,1.3125 0,0.724937 -0.587562,1.3125 -1.3125,1.3125 -0.724937,0 -1.3125,-0.587563 -1.3125,-1.3125 z m -8.043,0 c 0,-0.724937 0.5875625,-1.3125 1.3125,-1.3125 0.7249375,0 1.3125,0.587563 1.3125,1.3125 0,0.724937 -0.5875625,1.3125 -1.3125,1.3125 -0.7249375,0 -1.3125,-0.587563 -1.3125,-1.3125 z m 8.043,-8.043 c 0,-0.7249375 0.587563,-1.3125 1.3125,-1.3125 0.724938,0 1.3125,0.5875625 1.3125,1.3125 0,0.7249375 -0.587562,1.3125 -1.3125,1.3125 -0.724937,0 -1.3125,-0.5875625 -1.3125,-1.3125 z"/></svg>