<?xml version="1.0" encoding="UTF-8" standalone="no"?>
<svg
   xmlns:dc="http://purl.org/dc/elements/1.1/"
   xmlns:cc="http://creativecommons.org/ns#"
   xmlns:rdf="http://www.w3.org/1999/02/22-rdf-syntax-ns#"
   xmlns:svg="http://www.w3.org/2000/svg"
   xmlns="http://www.w3.org/2000/svg"
   xmlns:sodipodi="http://sodipodi.sourceforge.net/DTD/sodipodi-0.dtd"
   xmlns:inkscape="http://www.inkscape.org/namespaces/inkscape"
   width="14"
   height="14"
   viewBox="0 0 14 14"
   id="svg2"
   version="1.1"
   inkscape:version="0.48.4 r9939"
   sodipodi:docname="libre-sign-out.svg">
  <metadata
     id="metadata10">
    <rdf:RDF>
      <cc:Work
         rdf:about="">
        <dc:format>image/svg+xml</dc:format>
        <dc:type
           rdf:resource="http://purl.org/dc/dcmitype/StillImage" />
      </cc:Work>
    </rdf:RDF>
  </metadata>
  <defs
     id="defs8" />
  <sodipodi:namedview
     pagecolor="#ffffff"
     bordercolor="#666666"
     borderopacity="1"
     objecttolerance="10"
     gridtolerance="10"
     guidetolerance="10"
     inkscape:pageopacity="0"
     inkscape:pageshadow="2"
     inkscape:window-width="1920"
     inkscape:window-height="1030"
     id="namedview6"
     showgrid="false"
     inkscape:zoom="1.0814295"
     inkscape:cx="627.96623"
     inkscape:cy="1024"
     inkscape:window-x="0"
     inkscape:window-y="0"
     inkscape:window-maximized="1"
     inkscape:current-layer="svg2" />
  <path
     d="m 5.89796,11.16329 q 0,0.0306 0.008,0.15306 0.008,0.12245 0.004,0.2028 -0.004,0.0804 -0.023,0.17985 -0.0191,0.0995 -0.0765,0.14924 -0.0574,0.0497 -0.15689,0.0497 H 3.20459 q -0.91071,0 -1.557396,-0.64668 Q 1,10.60461 1,9.6939 V 4.30614 Q 1,3.39543 1.646684,2.74875 2.29337,2.10206 3.20408,2.10206 h 2.44898 q 0.0995,0 0.1722,0.0727 0.0727,0.0727 0.0727,0.17219 0,0.0306 0.008,0.15306 0.008,0.12245 0.004,0.20281 -0.004,0.0803 -0.023,0.17984 -0.0191,0.0995 -0.0765,0.14924 -0.0574,0.0497 -0.15689,0.0497 H 3.20459 q -0.5051,0 -0.86479,0.3597 -0.359698,0.35969 -0.359698,0.86479 v 5.38776 q 0,0.5051 0.359698,0.86479 0.35969,0.3597 0.86479,0.3597 h 2.38776 l 0.088,0.008 0.088,0.023 0.0612,0.0421 0.0536,0.0689 0.0153,0.10332 z M 13,7.00002 Q 13,7.199 12.85459,7.34441 l -4.16326,4.16326 q -0.14541,0.14541 -0.34439,0.14541 -0.19898,0 -0.34439,-0.14541 -0.14541,-0.1454 -0.14541,-0.34438 V 8.9592 H 4.42857 Q 4.22959,8.9592 4.08418,8.8138 3.93878,8.66839 3.93878,8.46941 V 5.53063 q 0,-0.19898 0.1454,-0.34438 Q 4.22959,5.04084 4.42857,5.04084 H 7.85714 V 2.83676 q 0,-0.19898 0.14541,-0.34439 0.14541,-0.14541 0.34439,-0.14541 0.19898,0 0.34439,0.14541 l 4.16326,4.16326 Q 13,6.80104 13,7.00002 z"
     id="path4"
     inkscape:connector-curvature="0" />
</svg>
