<svg xmlns="http://www.w3.org/2000/svg" id="libre-tech-summernote" viewBox="0 0 14 14"><path d="m 12.429845,7.58655 -0.78854,0 c 0.0268,-0.1791 0.042,-0.37935 0.042,-0.58879 0,-0.20483 -0.0147,-0.39629 -0.0403,-0.57539 l 0.78683,0 c 0.3143,0 0.57016,0.26778 0.57016,0.58209 0,0.31431 -0.25586,0.58209 -0.57016,0.58209 z M 10.713165,4.15081 C 10.463915,3.82674 10.173375,3.5362 9.849295,3.28693 l 0.5583,-0.55829 c 0.11495,-0.11494 0.26834,-0.17826 0.43192,-0.17826 0.1636,0 0.31699,0.0633 0.43195,0.17826 0.11496,0.11496 0.17826,0.26835 0.17826,0.43193 0,0.1636 -0.0633,0.317 -0.17826,0.43196 l -0.5583,0.55828 z m -4.79783,3.81391 c -0.0324,0.0981 0.0218,0.15223 0.11988,0.12022 l 1.22998,-0.40154 3.19437,-3.19534 c 0.51307,0.70536 0.81649,1.57304 0.81649,2.51199 0,2.36158 -1.91443,4.27601 -4.27601,4.27601 -2.36156,0 -4.27599,-1.91443 -4.27599,-4.27601 0,-2.36156 1.91443,-4.27599 4.27599,-4.27599 0.93896,0 1.80661,0.30341 2.51199,0.81648 l -3.19566,3.19453 -0.40104,1.22965 z m 0.50328,-5.60689 0,-0.78767 C 6.418615,1.25586 6.686395,1 7.000695,1 c 0.31432,0 0.5821,0.25586 0.5821,0.57016 l 0,0.78793 c -0.17911,-0.0263 -0.37562,-0.0413 -0.5831,-0.0413 -0.20679,0 -0.40197,0.0149 -0.58108,0.041 z M 3.319435,4.10947 2.752455,3.54683 c -0.22231,-0.22231 -0.22726,-0.56711 -0.005,-0.78942 0.22232,-0.22218 0.57392,-0.22244 0.79648,0 l 0.56137,0.56527 c -0.29202,0.23037 -0.55586,0.49451 -0.78591,0.78679 z m -1.74927,3.47708 c -0.3143,0 -0.57016,-0.26778 -0.57016,-0.58209 0,-0.31431 0.25586,-0.58209 0.57016,-0.58209 l 0.78693,0 c -0.0256,0.1791 -0.0403,0.37056 -0.0403,0.57539 0,0.20944 0.0152,0.40969 0.042,0.58879 l -0.78865,0 z m 1.75459,2.31086 c 0.22914,0.29004 0.49163,0.55224 0.78194,0.78108 l -0.56272,0.5672 c -0.11121,0.11109 -0.23734,0.16974 -0.38331,0.16974 -0.14607,0 -0.29203,-0.0497 -0.40325,-0.16084 -0.22231,-0.22231 -0.22231,-0.57221 0,-0.79453 l 0.56734,-0.56265 z m 4.25804,1.74462 0,0.78781 c 0,0.3143 -0.26778,0.57016 -0.5821,0.57016 -0.3143,0 -0.58208,-0.25586 -0.58208,-0.57016 l 0,-0.78756 c 0.17911,0.0261 0.37429,0.041 0.58108,0.041 0.20748,0 0.40399,-0.015 0.5831,-0.0413 z m 3.09349,-1.7458 0.56906,0.56383 c 0.22231,0.22232 0.22491,0.56035 0.003,0.78266 -0.11122,0.1111 -0.25195,0.16677 -0.39791,0.16677 -0.14608,0 -0.2816,-0.0557 -0.39281,-0.16677 l -0.56174,-0.56585 c 0.28987,-0.22876 0.55198,-0.49081 0.7808,-0.78064 z"/></svg>
