<svg xmlns="http://www.w3.org/2000/svg" width="14" height="14" viewBox="0 0 14 14"><g transform="matrix(0.12455498,0,0,0.12455498,0.772251,-241.90177)"><path d="m 96,1970.601 -11.722,-10.222 -11.722,-10.222 -11.722,10.222 -11.722,10.222 H 61.94 c -4.32,26.531 -28.833,47.17 -56.729,42.781 -1.227,-0.192 -1.724,1.46 -0.518,1.879 34.716,12.082 74.711,-7.77 80.496,-44.66 H 96 z"/><path d="m 70,2004.879 c -3.604,3.332 -7.635,6.235 -12,8.663 v 32.958 h 12 v -41.621 z"/><path d="m 40,2046.5 h 12 v -30.019 c -3.813,1.626 -7.827,2.907 -12,3.802 v 26.217 z"/><path d="m 76,2046.5 h 12 v -72.899 h -0.303 c -1.883,9.304 -5.97,17.725 -11.697,24.838 v 48.061 z"/><path d="m 16,2021.083 c -4.075,-0.595 -8.088,-1.552 -12,-2.894 v 28.311 h 12 v -25.417 z"/><path d="m 22,2046.5 h 12 v -25.208 c -2.729,0.331 -5.51,0.505 -8.335,0.505 -1.226,0 -2.447,-0.046 -3.665,-0.112 v 24.815 z"/></g></svg>