<?xml version="1.0" encoding="UTF-8" standalone="no"?>
<svg
   xmlns:dc="http://purl.org/dc/elements/1.1/"
   xmlns:cc="http://creativecommons.org/ns#"
   xmlns:rdf="http://www.w3.org/1999/02/22-rdf-syntax-ns#"
   xmlns:svg="http://www.w3.org/2000/svg"
   xmlns="http://www.w3.org/2000/svg"
   xmlns:sodipodi="http://sodipodi.sourceforge.net/DTD/sodipodi-0.dtd"
   xmlns:inkscape="http://www.inkscape.org/namespaces/inkscape"
   width="14"
   height="14"
   id="svg2"
   version="1.1"
   inkscape:version="0.48.4 r9939"
   sodipodi:docname="New document 1">
  <defs
     id="defs4" />
  <sodipodi:namedview
     id="base"
     pagecolor="#ffffff"
     bordercolor="#666666"
     borderopacity="1.0"
     inkscape:pageopacity="0.0"
     inkscape:pageshadow="2"
     inkscape:zoom="21.446856"
     inkscape:cx="4.6025561"
     inkscape:cy="8.6135161"
     inkscape:document-units="px"
     inkscape:current-layer="layer1"
     showgrid="false"
     inkscape:window-width="1920"
     inkscape:window-height="1030"
     inkscape:window-x="0"
     inkscape:window-y="0"
     inkscape:window-maximized="1" />
  <metadata
     id="metadata7">
    <rdf:RDF>
      <cc:Work
         rdf:about="">
        <dc:format>image/svg+xml</dc:format>
        <dc:type
           rdf:resource="http://purl.org/dc/dcmitype/StillImage" />
        <dc:title></dc:title>
      </cc:Work>
    </rdf:RDF>
  </metadata>
  <g
     inkscape:label="Layer 1"
     inkscape:groupmode="layer"
     id="layer1"
     transform="translate(0,-1038.3622)">
    <path
       style="fill:#000000"
       d="m 7.3441406,1052.3203 c -0.032531,-0.033 -0.045706,-0.1026 -0.045706,-0.241 0,-0.1166 -0.034163,-0.3354 -0.085,-0.5438 -0.2381038,-0.9766 -0.3068498,-1.5374 -0.2874246,-2.3446 0.013409,-0.5567 -0.00583,-0.7326 -0.048738,-0.4463 -0.014691,0.098 -0.0288,0.1259 -0.052352,0.1026 -0.023436,-0.023 -0.042441,0 -0.070075,0.077 -0.020871,0.059 -0.038127,0.1316 -0.038361,0.1597 -2.332e-4,0.028 -0.013525,0.051 -0.029616,0.051 -0.015974,0 -0.029966,-0.023 -0.031132,-0.051 -0.00233,-0.052 -0.0035,-0.05 -0.1090187,0.2069 -0.037894,0.092 -0.04967,0.1026 -0.065644,0.058 -0.015041,-0.042 -0.039293,-0.012 -0.1080859,0.1351 -0.078354,0.1671 -0.089081,0.1791 -0.091879,0.1015 -0.00233,-0.079 -0.013409,-0.069 -0.1117005,0.1107 -0.09013,0.1647 -0.1111175,0.1874 -0.123675,0.1341 -0.012942,-0.055 -0.031015,-0.038 -0.125529,0.1143 -0.060747,0.098 -0.1163643,0.1788 -0.1237216,0.1788 -0.007,0 -0.00466,-0.036 0.00466,-0.08 0.014341,-0.063 -0.0035,-0.049 -0.086166,0.071 -0.1225208,0.1772 -0.1804348,0.2249 -0.1485103,0.1223 0.01644,-0.052 -0.007,-0.038 -0.097592,0.062 -0.065528,0.072 -0.1196524,0.1409 -0.1203054,0.1529 -6.529e-4,0.012 -0.013875,0.022 -0.029383,0.022 -0.015507,0 -0.020987,-0.023 -0.012243,-0.051 0.00933,-0.028 -0.027634,0 -0.080919,0.058 -0.053285,0.061 -0.1070366,0.1096 -0.1193026,0.1096 -0.012243,0 0.012476,-0.069 0.054917,-0.1525 0.052236,-0.1026 0.061797,-0.1395 0.029616,-0.1131 -0.070308,0.058 -0.058649,0.015 0.045356,-0.1679 0.054684,-0.096 0.07264,-0.1471 0.043724,-0.1237 -0.074856,0.061 -0.059115,0 0.032298,-0.1302 0.04489,-0.062 0.093278,-0.1332 0.1075029,-0.1572 0.022387,-0.038 0.019122,-0.038 -0.024136,0 -0.103422,0.084 -0.074739,0 0.056666,-0.1565 0.093861,-0.1154 0.1161312,-0.1564 0.071241,-0.1325 -0.035795,0.019 -0.069725,0.03 -0.075322,0.024 -0.00583,0 0.057249,-0.087 0.1397539,-0.1814 0.095493,-0.1084 0.1257154,-0.158 0.083134,-0.1352 -0.1198273,0.064 -0.095027,0.014 0.070891,-0.1428 0.1462484,-0.1382 0.1543519,-0.1519 0.080336,-0.1353 -0.076954,0.018 -0.073806,0.012 0.048738,-0.098 0.072057,-0.064 0.1408499,-0.1167 0.1528594,-0.1167 0.01201,0 0.021804,-0.013 0.021804,-0.028 0,-0.015 -0.019588,-0.021 -0.043608,-0.012 -0.077654,0.03 -0.046639,-0.014 0.080102,-0.112 0.068093,-0.052 0.1257505,-0.1201 0.1282107,-0.1494 0.0035,-0.049 -0.012593,-0.051 -0.1746981,-0.035 -0.1698594,0.017 -0.176144,0.016 -0.120935,-0.03 0.057133,-0.048 0.0569,-0.048 -0.014575,-0.033 -0.039993,0.012 -0.1514019,0.024 -0.2474783,0.034 -0.1652771,0.018 -0.1715617,0.016 -0.116481,-0.029 0.055151,-0.045 0.049787,-0.047 -0.1019063,-0.029 -0.088031,0.012 -0.1994401,0.027 -0.24749,0.036 l -0.087331,0.016 0.058182,-0.067 0.058182,-0.066 -0.072757,0.02 c -0.039993,0.012 -0.1514136,0.027 -0.24749,0.036 -0.1611379,0.015 -0.1703724,0.013 -0.1189179,-0.029 0.05107,-0.042 0.035213,-0.044 -0.1892495,-0.028 -0.223261,0.016 -0.2399228,0.014 -0.1874422,-0.027 0.052586,-0.041 0.034746,-0.043 -0.2038126,-0.032 -0.2122309,0.012 -0.2490873,0 -0.1958955,-0.022 0.1071531,-0.056 0.075322,-0.075 -0.087332,-0.051 -0.084067,0.012 -0.1987172,0.022 -0.2547657,0.023 l -0.1019063,0 0.072757,-0.056 0.072757,-0.056 -0.2547657,0.017 c -0.1401269,0.012 -0.2547656,0.012 -0.2547656,-3e-4 0,-0.012 0.036029,-0.038 0.080103,-0.063 0.075322,-0.042 0.065061,-0.043 -0.1707105,-0.027 -0.1588292,0.012 -0.2574941,0.012 -0.2691188,-0.012 -0.010494,-0.016 0.014342,-0.038 0.054218,-0.048 0.1467614,-0.037 0.066111,-0.061 -0.1748264,-0.051 -0.2472568,0.012 -0.3070713,-0.015 -0.1820437,-0.076 0.055734,-0.027 0.039293,-0.033 -0.109252,-0.037 -0.096076,0 -0.2140031,-0.015 -0.2620413,-0.027 l -0.087332,-0.021 0.080103,-0.022 c 0.1248993,-0.035 0.094211,-0.075 -0.058299,-0.075 -0.1901006,-5e-4 -0.358724,-0.032 -0.3398119,-0.062 0.00816,-0.014 0.041159,-0.026 0.072174,-0.026 0.031132,0 0.05655,-0.012 0.05655,-0.024 0,-0.014 -0.091529,-0.033 -0.2032878,-0.042 -0.2553137,-0.021 -0.3411412,-0.061 -0.2003263,-0.092 0.1118171,-0.024 0.1182532,-0.022 -0.1994751,-0.09 -0.2311547,-0.05 -0.29187867,-0.098 -0.1303794,-0.1038 0.049437,0 0.00816,-0.022 -0.1108843,-0.055 -0.10412157,-0.029 -0.22201337,-0.067 -0.26205297,-0.083 -0.068326,-0.029 -0.065644,-0.031 0.043724,-0.034 0.1100681,0 0.1029556,-0.012 -0.1310207,-0.092 -0.2860022,-0.1026 -0.3660697,-0.1574 -0.1892612,-0.1307 0.1283739,0.019 0.1194193,0.014 -0.1718881,-0.112 -0.094561,-0.041 -0.1666063,-0.079 -0.1601351,-0.085 0.010494,-0.012 0.2656792,0.022 0.4339412,0.056 0.060398,0.012 0.0555,0 -0.029149,-0.045 l -0.1019063,-0.059 0.1846905,0.017 c 0.1015565,0.012 0.2180491,0.03 0.2588116,0.045 0.10820257,0.041 0.11554817,0.012 0.010494,-0.045 -0.049554,-0.026 -0.090013,-0.051 -0.090013,-0.056 0,-0.016 0.27239517,0.035 0.42217647,0.08 l 0.1455837,0.044 -0.087332,-0.073 -0.087332,-0.073 0.1019063,0.02 c 0.056083,0.012 0.1735205,0.044 0.2610386,0.075 0.2016672,0.07 0.2091411,0.069 0.1029557,-0.019 -0.048038,-0.04 -0.071591,-0.071 -0.052236,-0.072 0.029732,0 0.2433041,0.075 0.4599074,0.1605 0.045823,0.019 0.040226,0 -0.026234,-0.068 l -0.084417,-0.091 0.113566,0.032 c 0.062496,0.018 0.1753394,0.063 0.2508713,0.1002 0.1795603,0.091 0.1966885,0.087 0.09561,-0.017 -0.046056,-0.048 -0.073806,-0.087 -0.061797,-0.087 0.042325,0 0.3248059,0.1276 0.4055963,0.1831 0.104588,0.072 0.1252608,0.051 0.047572,-0.048 -0.086049,-0.1096 -0.024602,-0.099 0.230012,0.04 l 0.2137467,0.1166 -0.064828,-0.1049 -0.064828,-0.105 0.1567538,0.078 c 0.086166,0.043 0.1993468,0.1108 0.2513843,0.1495 0.1030723,0.077 0.1212032,0.061 0.048038,-0.044 -0.025652,-0.036 -0.03976,-0.073 -0.031365,-0.082 0.018772,-0.019 0.2727217,0.1241 0.3618139,0.2036 0.081851,0.073 0.1162477,0.045 0.054101,-0.043 -0.025651,-0.037 -0.046639,-0.077 -0.046639,-0.09 0,-0.034 0.1448841,0.047 0.3020926,0.166 0.074273,0.057 0.1419226,0.1038 0.150201,0.1038 0.00816,0 -0.00466,-0.038 -0.029383,-0.086 -0.024485,-0.048 -0.044424,-0.094 -0.044424,-0.105 0,-0.023 0.1877687,0.09 0.3275575,0.1979 0.1082025,0.084 0.1370837,0.07 0.079053,-0.039 -0.016557,-0.032 -0.019588,-0.056 -0.007,-0.056 0.03323,0 0.2398645,0.1398 0.3394971,0.2297 0.074389,0.068 0.082435,0.069 0.068793,0.017 -0.00816,-0.033 -0.025651,-0.083 -0.038127,-0.1142 -0.022387,-0.055 -0.021104,-0.055 0.072757,0 0.052469,0.03 0.1555295,0.1073 0.2289743,0.1718 0.073457,0.064 0.1261819,0.097 0.1172156,0.072 -0.06273,-0.1676 -0.061913,-0.1704 0.054334,-0.1813 0.095027,-0.012 0.1023727,-0.014 0.052352,-0.038 -0.032064,-0.015 -0.1171922,-0.061 -0.1892611,-0.099 l -0.1310207,-0.071 0.1007403,-0.015 0.1007403,-0.015 -0.1954059,-0.099 c -0.1075029,-0.055 -0.1954058,-0.1096 -0.1954058,-0.1238 0,-0.014 0.042558,-0.026 0.094677,-0.026 0.088031,-8e-4 0.080685,-0.012 -0.105754,-0.1073 l -0.2004196,-0.1072 0.098525,-0.036 c 0.054218,-0.02 0.07882,-0.037 0.054801,-0.038 -0.049671,0 -0.3756073,-0.2018 -0.3421089,-0.2084 0.01201,0 0.034979,-0.012 0.050953,-0.012 0.015974,0 0.057366,-0.012 0.091995,-0.012 0.043374,0 0.00816,-0.032 -0.113566,-0.092 -0.097009,-0.049 -0.1924676,-0.1073 -0.212021,-0.1311 -0.030199,-0.036 -0.018772,-0.043 0.077188,-0.043 l 0.1127498,-5e-4 -0.1564622,-0.086 c -0.2468021,-0.1361 -0.2645249,-0.1573 -0.1467147,-0.1758 l 0.099341,-0.015 -0.116481,-0.063 c -0.064012,-0.035 -0.1557627,-0.096 -0.2038125,-0.1362 l -0.087332,-0.073 0.116481,0 0.1164809,0 -0.1219727,-0.07 c -0.1600884,-0.092 -0.2690372,-0.1718 -0.2701798,-0.1989 -5.014e-4,-0.012 0.040926,-0.022 0.092112,-0.022 0.089547,0 0.085466,0 -0.1077361,-0.1383 l -0.2007927,-0.1383 0.1085523,-0.012 0.1085524,-0.012 -0.1722263,-0.1267 c -0.2253131,-0.166 -0.2362383,-0.188 -0.084067,-0.1692 l 0.123745,0.015 -0.1316853,-0.09 c -0.072407,-0.049 -0.1641461,-0.1242 -0.2038126,-0.1669 l -0.072174,-0.078 0.1310207,0.019 c 0.114732,0.016 0.1234302,0.014 0.069725,-0.019 -0.084183,-0.051 -0.331825,-0.2732 -0.331825,-0.2972 0,-0.012 0.049087,-0.012 0.1091353,7e-4 l 0.1091353,0.02 -0.1517167,-0.1206 c -0.083484,-0.066 -0.1656502,-0.1464 -0.1826851,-0.1782 -0.028566,-0.054 -0.023669,-0.057 0.064362,-0.042 l 0.095377,0.016 -0.1019063,-0.097 c -0.056083,-0.054 -0.1346819,-0.1349 -0.1746981,-0.1809 l -0.072757,-0.084 0.072757,0.022 c 0.039993,0.013 0.092462,0.029 0.1164809,0.037 0.024019,0.012 -0.00933,-0.043 -0.073806,-0.1131 -0.064595,-0.07 -0.1432168,-0.1595 -0.1746982,-0.1981 -0.057016,-0.07 -0.057016,-0.07 10e-4,-0.055 0.032064,0.012 0.084417,0.026 0.1164809,0.039 0.038244,0.015 0.01679,-0.022 -0.062263,-0.1085 -0.066227,-0.072 -0.1365707,-0.1622 -0.1562523,-0.1989 -0.038127,-0.071 -0.043608,-0.071 0.1110008,-0.012 0.020988,0.012 -0.0288,-0.072 -0.1106511,-0.1809 -0.081735,-0.1084 -0.1426338,-0.2025 -0.1352298,-0.21 0.007,-0.012 0.047339,0.012 0.088731,0.036 0.079403,0.052 0.1056374,0.016 0.032531,-0.044 -0.049671,-0.041 -0.1901823,-0.285 -0.1901823,-0.3299 0,-0.016 0.032764,2e-4 0.072757,0.038 0.097825,0.092 0.091762,0.064 -0.029033,-0.1369 -0.1143823,-0.1898 -0.1366524,-0.2821 -0.048738,-0.2025 0.087915,0.079 0.085699,0.057 -0.014691,-0.1483 -0.1112341,-0.2278 -0.1194309,-0.2697 -0.038594,-0.1966 0.072757,0.066 0.07264,0.054 -9.095e-4,-0.1186 -0.082085,-0.1916 -0.058066,-0.2194 0.058532,-0.068 0.1459918,0.19 0.1525679,0.1952 0.1294933,0.1014 -0.029616,-0.1201 0.018189,-0.08 0.1642509,0.1357 0.1160146,0.1718 0.1217046,0.1761 0.1047047,0.079 l -0.017956,-0.1014 0.072524,0.087 c 0.039876,0.048 0.099691,0.1431 0.1329912,0.2112 0.03323,0.068 0.065061,0.1237 0.070542,0.1237 0.00583,0 0.00233,-0.045 -0.00583,-0.1015 -0.00933,-0.056 -0.00933,-0.1014 -9.444e-4,-0.1014 0.021337,0 0.1797701,0.2854 0.218259,0.3931 0.030898,0.086 0.031248,0.086 0.033464,-0.041 0.00117,-0.071 0.00933,-0.1213 0.018539,-0.112 0.00933,0.012 0.061097,0.1193 0.1161312,0.2451 0.098525,0.2256 0.099924,0.2273 0.1012066,0.1119 0.00117,-0.1072 0.00466,-0.1119 0.043141,-0.061 0.02297,0.03 0.063546,0.1221 0.090013,0.2038 0.06168,0.1901 0.099225,0.2314 0.099225,0.1085 0,-0.1338 0.038827,-0.094 0.1008569,0.1037 0.029149,0.093 0.059232,0.1887 0.06681,0.2127 0.00816,0.028 0.027284,0.012 0.050254,-0.058 l 0.036612,-0.1014 0.046289,0.1602 c 0.025418,0.087 0.0555,0.1991 0.066927,0.2469 l 0.020638,0.087 0.035446,-0.1015 0.035446,-0.1014 0.03463,0.087 c 0.019005,0.048 0.042092,0.1495 0.05107,0.2257 0.018889,0.1584 0.053052,0.1789 0.081618,0.049 0.026934,-0.1226 0.045123,-0.092 0.1027224,0.1697 0.048271,0.2196 0.050487,0.2233 0.084067,0.1391 0.047688,-0.1195 0.081851,-0.056 0.1070366,0.2001 l 0.019821,0.201 0.049671,-0.096 c 0.063546,-0.1229 0.086166,-0.086 0.1083191,0.1782 l 0.017373,0.2077 0.049321,-0.096 c 0.063429,-0.1227 0.084067,-0.085 0.093861,0.171 0.00466,0.1143 0.01166,0.2075 0.015624,0.2076 0.00466,0 0.032764,-0.041 0.063429,-0.091 l 0.055734,-0.092 0.016673,0.099 c 0.00933,0.055 0.020055,0.1644 0.024252,0.2445 0.00816,0.145 0.00816,0.1452 0.048388,0.065 0.022387,-0.044 0.051186,-0.08 0.064012,-0.08 0.012826,0 0.027051,0.1084 0.031715,0.2402 l 0.00816,0.2402 0.058182,-0.1015 0.058182,-0.1014 0.014575,0.2475 0.014575,0.2474 0.057832,-0.1014 0.057832,-0.1014 0.010494,0.084 c 0.00583,0.047 0.00583,0.1611 4.081e-4,0.2549 -0.00583,0.093 -0.00583,0.1702 -0.00233,0.1702 0.00466,-10e-5 0.032298,-0.041 0.062496,-0.09 l 0.054801,-0.09 0.020171,0.1191 c 0.01166,0.065 0.011893,0.1749 0.00117,0.243 -0.01714,0.1154 -0.015391,0.1199 0.026584,0.068 0.024719,-0.031 0.045007,-0.068 0.045007,-0.08 0,-0.013 0.014575,-0.023 0.032297,-0.023 0.021804,0 0.028683,0.072 0.021104,0.2208 l -0.01166,0.2208 0.06821,-0.083 0.06821,-0.083 -0.010494,0.2271 c -0.00816,0.1892 -0.0035,0.2186 0.027051,0.1763 0.020405,-0.028 0.037078,-0.062 0.037078,-0.077 0,-0.014 0.040343,0.012 0.089547,0.049 0.049321,0.042 0.1003905,0.076 0.1136826,0.076 0.013176,0 -0.03358,-0.1014 -0.1041216,-0.225 -0.070542,-0.1237 -0.128199,-0.2354 -0.128199,-0.2483 0,-0.013 0.03871,0 0.085932,0.021 0.047222,0.024 0.091412,0.044 0.098292,0.044 0.007,0 -0.038011,-0.096 -0.099691,-0.2111 -0.1426455,-0.2687 -0.1446743,-0.3078 -0.01166,-0.2256 0.056084,0.035 0.1019063,0.05 0.1019063,0.033 0,-0.016 -0.013409,-0.039 -0.029849,-0.048 -0.040109,-0.024 -0.2398412,-0.4238 -0.2213954,-0.4423 0.00816,-0.012 0.04454,0.012 0.081152,0.033 0.1161311,0.082 0.1154316,0.053 -0.00466,-0.1856 -0.1379349,-0.2744 -0.1440913,-0.3147 -0.036728,-0.2405 0.044074,0.03 0.094677,0.064 0.1124001,0.073 0.017723,0.012 -0.01714,-0.083 -0.077654,-0.2064 -0.060514,-0.1236 -0.1190811,-0.256 -0.1301812,-0.2943 l -0.020171,-0.07 0.1006237,0.077 c 0.055267,0.042 0.1076195,0.077 0.1162477,0.077 0.00816,0 -0.035212,-0.1015 -0.097359,-0.2252 -0.062146,-0.1238 -0.1130997,-0.2491 -0.1130997,-0.2785 0,-0.05 0.00466,-0.05 0.084533,0.012 0.118638,0.084 0.1285721,0.076 0.062846,-0.052 -0.077421,-0.1518 -0.1780328,-0.4194 -0.1632132,-0.4344 0.007,-0.012 0.058649,0.023 0.1157814,0.068 0.1122834,0.086 0.1285138,0.079 0.060164,-0.026 -0.058299,-0.089 -0.191768,-0.4844 -0.1634931,-0.4844 0.012243,0 0.053052,0.033 0.090713,0.072 0.0836,0.089 0.1303911,0.095 0.085349,0.012 -0.038477,-0.072 -0.1727393,-0.4599 -0.1727393,-0.499 0,-0.015 0.040926,0.012 0.091063,0.05 0.1087855,0.091 0.1326764,0.081 0.073573,-0.034 -0.039177,-0.076 -0.1355214,-0.4046 -0.1355214,-0.4627 0,-0.013 0.047805,0.022 0.1062204,0.077 0.075555,0.071 0.099807,0.084 0.083717,0.042 -0.045473,-0.1175 -0.1240482,-0.3813 -0.1427155,-0.4794 l -0.019239,-0.1014 0.1068033,0.1014 c 0.075439,0.071 0.1000407,0.084 0.08395,0.042 -0.032298,-0.083 -0.1310091,-0.4866 -0.1312772,-0.5375 -1.516e-4,-0.024 0.037544,10e-5 0.089197,0.058 0.082435,0.093 0.087915,0.096 0.071358,0.028 -0.047339,-0.1918 -0.091762,-0.5241 -0.070192,-0.5241 0.013409,0 0.04524,0.041 0.070891,0.09 0.062613,0.1212 0.078354,0.093 0.04489,-0.078 -0.015274,-0.078 -0.034863,-0.2146 -0.043724,-0.3027 -0.013292,-0.1333 -0.010494,-0.1511 0.019822,-0.1061 0.019705,0.03 0.059814,0.083 0.089197,0.1166 0.05037,0.058 0.052236,0.058 0.032297,0 -0.01166,-0.031 -0.026234,-0.176 -0.032531,-0.3201 l -0.01166,-0.2622 0.057483,0.1015 0.057599,0.1014 -0.017256,-0.2983 c -0.012476,-0.2158 -0.00816,-0.2985 0.016207,-0.2985 0.018422,0 0.033463,0.017 0.033463,0.038 0,0.021 0.017956,0.063 0.039876,0.093 0.035213,0.048 0.038244,0.037 0.025535,-0.094 -0.00816,-0.082 -0.00466,-0.2254 0.007,-0.3183 l 0.02192,-0.1691 0.034863,0.1166 0.034863,0.1166 0.023203,-0.2474 c 0.012709,-0.1362 0.032531,-0.2729 0.043957,-0.3038 0.017257,-0.047 0.024719,-0.04 0.043841,0.043 0.020871,0.091 0.026234,0.077 0.056666,-0.1389 0.018539,-0.1314 0.041975,-0.2471 0.052003,-0.2572 0.010494,-0.012 0.026584,0.058 0.036495,0.1515 0.010494,0.093 0.029383,0.2091 0.043141,0.2572 l 0.024952,0.087 0.0035,-0.078 c 0.00117,-0.043 0.014225,-0.085 0.0281,-0.094 0.0281,-0.017 0.061564,0.2143 0.061913,0.4287 1.399e-4,0.086 0.01166,0.133 0.029383,0.1219 0.015974,-0.012 0.029149,-0.05 0.029149,-0.089 0,-0.04 0.013059,-0.071 0.029149,-0.071 0.017373,0 0.029966,0.1203 0.031248,0.2985 l 0.00233,0.2984 0.05585,-0.1166 0.05585,-0.1166 -0.00816,0.3147 c -0.00583,0.2216 9.911e-4,0.302 0.022037,0.2718 0.01644,-0.023 0.045473,-0.066 0.064595,-0.096 0.029966,-0.047 0.034863,-0.038 0.035795,0.063 6.18e-4,0.064 -0.01166,0.2011 -0.026118,0.3047 -0.014924,0.1038 -0.022154,0.1931 -0.01609,0.1992 0.00583,0.012 0.038944,-0.04 0.072874,-0.1014 l 0.061797,-0.1119 -0.015274,0.222 c -0.00816,0.122 -0.029033,0.2581 -0.045939,0.3024 -0.046289,0.1218 -0.014225,0.1193 0.07264,0 l 0.077654,-0.1119 -0.020521,0.1892 c -0.01166,0.1038 -0.038011,0.2483 -0.059232,0.3203 l -0.03871,0.1311 0.090829,-0.1003 0.090713,-0.1003 -0.017373,0.1467 c -0.00933,0.081 -0.042441,0.2208 -0.07299,0.3114 -0.030549,0.091 -0.045473,0.1649 -0.033114,0.1649 0.012359,0 0.057133,-0.042 0.099341,-0.094 l 0.076838,-0.094 -0.020055,0.131 c -0.010494,0.072 -0.050137,0.2145 -0.086982,0.3164 l -0.066927,0.1854 0.093628,-0.091 c 0.051536,-0.05 0.1020229,-0.091 0.1122835,-0.091 0.024952,0 -0.085116,0.3932 -0.1396723,0.4986 -0.054218,0.1049 -0.025418,0.1072 0.080336,0 0.07847,-0.076 0.081618,-0.076 0.081618,-0.016 0,0.054 -0.078587,0.2898 -0.161266,0.4854 -0.019472,0.047 -0.00466,0.042 0.083251,-0.026 0.1337141,-0.1014 0.1347868,-0.072 0.00816,0.2382 -0.053635,0.1321 -0.091412,0.2402 -0.084067,0.2402 0.007,0 0.053402,-0.028 0.1023727,-0.063 l 0.088964,-0.063 -0.020871,0.085 c -0.01166,0.047 -0.063312,0.1736 -0.1151983,0.2817 -0.051886,0.1084 -0.085466,0.1966 -0.074739,0.1966 0.010494,0 0.054684,-0.028 0.097709,-0.062 0.043024,-0.034 0.084766,-0.055 0.092812,-0.047 0.021104,0.021 -0.1245262,0.3708 -0.1937035,0.4653 -0.068793,0.094 -0.037195,0.1037 0.06751,0.022 0.145059,-0.1143 0.144546,-0.061 -0.00233,0.2402 -0.060747,0.1242 -0.1047046,0.2257 -0.097825,0.2257 0.007,0 0.056783,-0.028 0.1108843,-0.061 l 0.098292,-0.061 -0.02775,0.072 c -0.015274,0.04 -0.070891,0.1559 -0.12378,0.2572 -0.052819,0.1014 -0.1012067,0.1964 -0.1076195,0.2111 -0.00583,0.015 0.036145,0 0.094444,-0.038 0.1384596,-0.085 0.1365124,-0.045 -0.010494,0.225 -0.063896,0.1171 -0.1160146,0.2182 -0.1160146,0.2247 0,0.012 0.045823,-0.015 0.1019063,-0.049 0.056083,-0.033 0.1015565,-0.049 0.1012067,-0.035 -4.198e-4,0.014 -0.052469,0.1222 -0.1157814,0.2414 -0.063196,0.1191 -0.1091353,0.2225 -0.1020229,0.2296 0.007,0.012 0.046056,-0.012 0.086632,-0.035 0.041159,-0.027 0.07369,-0.035 0.07369,-0.017 0,0.04 -0.1077362,0.253 -0.1784992,0.3534 -0.093744,0.1332 -0.052469,0.1564 0.072174,0.041 l 0.076954,-0.071 0.042675,0.078 c 0.040459,0.075 0.042675,0.066 0.043957,-0.1544 l 0.00117,-0.2329 0.057832,0.087 0.057832,0.088 8.395e-4,-0.2329 8.395e-4,-0.2329 0.056083,0.072 0.056083,0.072 0.00933,-0.2329 0.00933,-0.233 0.065178,0.1015 0.065178,0.1014 -0.016907,-0.1747 c -0.00933,-0.096 -0.00466,-0.2074 0.01166,-0.2475 l 0.02845,-0.072 0.037078,0.08 c 0.053635,0.1154 0.07334,0.099 0.06133,-0.053 -0.00583,-0.072 -0.00117,-0.1795 0.00933,-0.2372 l 0.019705,-0.1049 0.055734,0.092 c 0.069259,0.1143 0.078937,0.1143 0.062729,0 -0.007,-0.048 -0.0035,-0.1628 0.00816,-0.2546 l 0.020871,-0.1671 0.055967,0.1084 c 0.068793,0.1341 0.091179,0.1386 0.070658,0.014 -0.00816,-0.053 -0.00583,-0.1667 0.007,-0.2548 l 0.022853,-0.1602 0.056317,0.1015 0.056317,0.1014 0.019122,-0.2271 c 0.010494,-0.1249 0.026235,-0.2343 0.034979,-0.2429 0.00816,-0.012 0.039643,0.028 0.068909,0.082 l 0.053052,0.097 0.007,-0.1166 c 0.020871,-0.3332 0.065411,-0.4551 0.1065697,-0.2911 0.02763,0.1096 0.07532,0.087 0.07567,-0.036 4.55e-4,-0.1569 0.0323,-0.3275 0.06121,-0.3275 0.01364,0 0.033,0.033 0.04302,0.072 0.02542,0.1014 0.07019,0.091 0.07019,-0.016 0,-0.1155 0.05865,-0.3479 0.08768,-0.3479 0.01236,0 0.03218,0.036 0.04396,0.081 0.01877,0.07 0.02822,0.054 0.07591,-0.1358 0.0611,-0.2424 0.07451,-0.2675 0.100274,-0.1887 0.04372,0.1337 0.05177,0.1427 0.06285,0.07 0.01632,-0.1085 0.09864,-0.3599 0.127884,-0.3917 0.01516,-0.016 0.02553,0 0.02553,0.047 0,0.148 0.04093,0.1084 0.108436,-0.1061 0.07019,-0.2226 0.1230682,-0.2613 0.1261702,-0.092 0.0012,0.078 0.01236,0.062 0.06751,-0.097 0.03614,-0.1038 0.0808,-0.2156 0.09934,-0.2475 0.03137,-0.055 0.03358,-0.052 0.0344,0.02 4.9e-4,0.043 0.01399,0.086 0.02997,0.097 0.01597,0.012 0.02915,9e-4 0.02915,-0.02 1.2e-5,-0.021 0.04186,-0.1232 0.09293,-0.2273 l 0.09293,-0.1893 0.01691,0.1166 c 0.01691,0.1166 0.01691,0.1166 0.03999,0.032 0.02507,-0.092 0.155192,-0.3273 0.195091,-0.352 0.01353,-0.012 0.01749,0.034 0.0082,0.094 l -0.01597,0.1096 0.07742,-0.1456 c 0.04256,-0.08 0.104005,-0.1783 0.136501,-0.2184 l 0.05911,-0.072 -0.01644,0.1015 c -0.01516,0.093 -0.01318,0.097 0.02449,0.043 0.0225,-0.032 0.08453,-0.1203 0.137795,-0.1962 0.103422,-0.1473 0.144604,-0.1749 0.119897,-0.081 -0.02297,0.087 -0.0023,0.072 0.120469,-0.089 0.06145,-0.08 0.117285,-0.1411 0.124025,-0.1343 0.007,0.012 -0.02029,0.092 -0.06005,0.1903 -0.07206,0.1772 -0.07276,0.2238 -0.0023,0.1269 0.078,-0.1061 0.06261,-0.014 -0.03136,0.1894 -0.05375,0.1166 -0.08605,0.211 -0.07182,0.211 0.01422,0 0.03859,-0.023 0.05422,-0.05 0.01562,-0.028 0.03498,-0.044 0.04291,-0.036 0.01679,0.016 -0.08582,0.2343 -0.171025,0.3629 l -0.0576,0.086 0.09468,-0.067 c 0.052,-0.037 0.09468,-0.061 0.09468,-0.051 0,0.026 -0.177835,0.3206 -0.228566,0.3785 -0.04676,0.054 -0.04559,0.054 0.04664,0.012 0.052,-0.027 0.09468,-0.04 0.09468,-0.029 0,0.012 -0.05958,0.1026 -0.13249,0.2047 -0.133492,0.187 -0.138599,0.2236 -0.01959,0.1402 0.104005,-0.072 0.07544,-0.012 -0.0843,0.1896 -0.08197,0.1015 -0.127826,0.1764 -0.101906,0.1659 0.02588,-0.012 0.06681,-0.027 0.09083,-0.036 0.08057,-0.033 0.04477,0.033 -0.101906,0.1867 -0.0801,0.084 -0.145584,0.1584 -0.145584,0.1658 0,0.012 0.03451,0 0.07684,-0.016 0.13397,-0.051 0.116737,9e-4 -0.05538,0.1662 -0.09188,0.089 -0.167061,0.1651 -0.167061,0.1706 0,0 0.04174,0 0.0927,-0.016 0.05095,-0.015 0.09724,-0.022 0.102839,-0.016 0.0058,0 -0.07182,0.086 -0.171958,0.1787 l -0.182067,0.1686 0.115665,-0.02 0.115665,-0.02 -0.131021,0.125 c -0.07206,0.069 -0.163784,0.1476 -0.203812,0.1751 l -0.07276,0.05 0.123745,-0.018 c 0.06809,-0.012 0.123744,-0.012 0.123744,0 0,0.012 -0.07532,0.071 -0.167421,0.1405 -0.23871,0.1793 -0.239433,0.1804 -0.116481,0.1669 0.06005,-0.012 0.109135,-0.012 0.109135,0 0,0.02 -0.181927,0.1667 -0.287751,0.2324 l -0.105287,0.065 0.110884,0 c 0.140675,4e-4 0.122521,0.032 -0.104355,0.1778 -0.1802722,0.1166 -0.1827902,0.1237 -0.03964,0.1143 0.115781,-0.012 0.07917,0.04 -0.1378882,0.1769 -0.174384,0.1107 -0.176273,0.1131 -0.08383,0.1131 0.052,3e-4 0.09456,0.012 0.09456,0.022 -5.9e-5,0.023 -0.22936,0.1767 -0.333143,0.2237 -0.05177,0.023 -0.04407,0.029 0.05655,0.043 l 0.116481,0.016 -0.203813,0.1236 c -0.193179,0.1171 -0.19888,0.1236 -0.109252,0.1237 0.052,0 0.09468,0.012 0.09468,0.022 0,0.028 -0.301802,0.2099 -0.353944,0.2128 -0.02145,0 0.0058,0.019 0.06191,0.039 l 0.10109,0.036 -0.130146,0.075 c -0.07159,0.041 -0.155984,0.088 -0.1875587,0.105 -0.052352,0.028 -0.048738,0.033 0.04011,0.056 l 0.09747,0.026 -0.2104815,0.1084 c -0.2055498,0.1061 -0.2079751,0.1084 -0.1038884,0.1084 0.1400686,0 0.1132162,0.037 -0.1100681,0.1523 l -0.1798634,0.093 0.097009,0.015 0.097009,0.016 -0.1989038,0.1084 -0.1989154,0.1085 0.1122835,5e-4 c 0.095377,6e-4 0.1091353,0.012 0.091296,0.051 -0.06168,0.1499 -0.054334,0.1691 0.031948,0.084 0.083834,-0.083 0.3140555,-0.2513 0.3432049,-0.2513 0.00816,0 -0.0035,0.045 -0.027517,0.1015 -0.040576,0.097 -0.012126,0.1454 0.036845,0.063 0.025418,-0.043 0.3088785,-0.2518 0.3417125,-0.2518 0.01831,0 0.0093,0.044 -0.03579,0.1746 -0.0082,0.024 0.02215,0.012 0.06949,-0.033 0.04652,-0.042 0.14886,-0.1191 0.227458,-0.172 0.148277,-0.1003 0.155565,-0.094 0.08768,0.072 -0.01819,0.044 0.0093,0.034 0.120433,-0.048 0.07917,-0.057 0.187244,-0.1267 0.240145,-0.1538 l 0.09619,-0.049 -0.04524,0.087 c -0.05888,0.1142 -0.05713,0.139 0.0058,0.084 0.05912,-0.052 0.365545,-0.2263 0.397795,-0.2263 0.01201,0 -0.0082,0.049 -0.04524,0.1096 l -0.06716,0.1096 0.07206,-0.05 c 0.137735,-0.096 0.305368,-0.1903 0.374347,-0.2116 0.06763,-0.021 0.06821,-0.02 0.0218,0.047 -0.02612,0.037 -0.04757,0.076 -0.04757,0.086 0,0.012 0.09503,-0.032 0.2111,-0.093 0.248761,-0.1321 0.277187,-0.1376 0.214434,-0.042 -0.06844,0.105 -0.05853,0.1143 0.04757,0.049 0.052,-0.032 0.165429,-0.086 0.251967,-0.1201 l 0.157337,-0.062 -0.08034,0.1049 -0.08033,0.105 0.153815,-0.078 c 0.204279,-0.1038 0.376331,-0.1628 0.376331,-0.1297 0,0.015 -0.02623,0.041 -0.0583,0.058 -0.03207,0.017 -0.05818,0.042 -0.05818,0.056 0,0.014 0.09503,-0.013 0.211088,-0.058 0.276149,-0.1085 0.316038,-0.1073 0.209269,0 l -0.08558,0.091 0.08861,-0.044 c 0.101906,-0.051 0.450264,-0.1464 0.469013,-0.1277 0.007,0.012 -0.03055,0.04 -0.08325,0.074 -0.113683,0.072 -0.100974,0.077 0.06051,0.02 0.148102,-0.053 0.411438,-0.1014 0.411438,-0.077 0,0.012 -0.04011,0.036 -0.08896,0.057 -0.112517,0.05 -0.08943,0.079 0.02961,0.037 0.04897,-0.017 0.170886,-0.039 0.27081,-0.047 l 0.181682,-0.016 -0.09806,0.046 c -0.124352,0.057 -0.10797,0.075 0.04058,0.044 0.192502,-0.041 0.364052,-0.056 0.348755,-0.03 -0.0082,0.013 -0.11275,0.06 -0.232939,0.1026 -0.120177,0.044 -0.218504,0.085 -0.218504,0.093 0,0.012 0.05573,0 0.123745,0 l 0.123734,-0.017 -0.08733,0.05 c -0.04804,0.028 -0.179059,0.079 -0.291156,0.1166 l -0.203824,0.066 0.128607,0 c 0.07078,7e-4 0.122789,0.012 0.115665,0.014 -0.007,0.012 -0.12392,0.045 -0.259616,0.084 -0.245321,0.071 -0.246149,0.071 -0.144826,0.098 l 0.101906,0.027 -0.203812,0.048 c -0.112051,0.027 -0.236565,0.053 -0.276605,0.06 -0.06681,0.012 -0.06471,0.013 0.02507,0.034 0.130985,0.032 0.0766,0.057 -0.213374,0.1038 -0.231469,0.037 -0.231749,0.037 -0.13102,0.071 l 0.100973,0.035 -0.08733,0.017 c -0.04804,0.012 -0.165825,0.026 -0.261749,0.036 -0.172553,0.019 -0.173474,0.02 -0.08733,0.056 l 0.0871,0.037 -0.13102,0.019 c -0.07206,0.012 -0.189984,0.023 -0.262053,0.028 -0.105871,0.012 -0.11844,0.014 -0.06553,0.033 0.130939,0.045 0.06005,0.075 -0.189261,0.077 -0.232041,0 -0.247269,0 -0.170699,0.04 0.130251,0.057 0.04256,0.084 -0.202915,0.061 -0.118789,-0.012 -0.215985,-0.013 -0.215985,0 0,0.012 0.03603,0.037 0.0801,0.062 0.07625,0.044 0.06763,0.046 -0.181974,0.03 l -0.26204,-0.016 0.07276,0.059 0.07276,0.06 -0.262042,-0.017 c -0.2477102,-0.016 -0.2580642,-0.014 -0.189249,0.029 0.06914,0.044 0.0604,0.045 -0.1746972,0.033 -0.218143,-0.013 -0.240844,-0.012 -0.191383,0.027 0.0843,0.062 0.04839,0.071 -0.159109,0.041 -0.264794,-0.038 -0.287705,-0.036 -0.21728,0.02 0.05433,0.043 0.04664,0.045 -0.116481,0.028 -0.09608,-0.012 -0.2074504,-0.026 -0.24749,-0.035 l -0.072757,-0.018 0.072757,0.062 0.072757,0.062 -0.087332,-0.015 c -0.048038,-0.012 -0.1594005,-0.023 -0.2474783,-0.034 -0.1514136,-0.017 -0.1569636,-0.016 -0.1019062,0.029 0.055034,0.045 0.049554,0.047 -0.1019063,0.03 -0.088031,-0.012 -0.1994518,-0.025 -0.24749,-0.034 -0.084766,-0.015 -0.085699,-0.014 -0.029149,0.033 0.055384,0.045 0.050603,0.048 -0.097126,0.03 -0.098175,-0.012 -0.1489417,-0.012 -0.1378299,0.012 0.00933,0.016 0.0035,0.037 -0.013292,0.048 -0.017256,0.012 0.027401,0.057 0.1014399,0.1061 0.1578148,0.1049 0.1982159,0.1555 0.099574,0.1257 -0.050137,-0.015 -0.025185,0.02 0.090946,0.1292 0.1296798,0.1215 0.146295,0.1468 0.087332,0.1328 -0.067627,-0.016 -0.065411,-0.012 0.030082,0.079 0.05655,0.053 0.1286304,0.1275 0.1601351,0.1658 l 0.057249,0.07 -0.063662,-0.034 c -0.1157814,-0.061 -0.1065702,-0.035 0.044773,0.1251 0.082434,0.088 0.1498045,0.1645 0.1498045,0.172 0,0.012 -0.028916,0.012 -0.064129,0 -0.053518,-0.014 -0.043841,0.012 0.058182,0.1284 0.1327114,0.1574 0.1488718,0.1934 0.073923,0.1646 -0.03428,-0.013 -0.02297,0.019 0.03871,0.1096 0.1404767,0.2073 0.1424472,0.2122 0.069959,0.1735 -0.06238,-0.034 -0.062263,-0.033 0.007,0.077 0.038361,0.061 0.086399,0.1426 0.1068033,0.181 0.032531,0.062 0.031248,0.068 -0.010494,0.051 -0.060514,-0.023 -0.059232,-0.012 0.010494,0.1038 0.090596,0.1485 0.069142,0.1614 -0.059814,0.036 -0.082085,-0.08 -0.1125167,-0.097 -0.099691,-0.057 0.010494,0.034 -0.039293,0 -0.1186147,-0.088 -0.075439,-0.08 -0.1291785,-0.1226 -0.1195475,-0.094 0.032764,0.096 -0.024136,0.051 -0.1399171,-0.1096 -0.063546,-0.087 -0.1174487,-0.16 -0.1197107,-0.16 -0.00233,0 0.00233,0.036 0.010494,0.081 0.018539,0.1026 0.00466,0.087 -0.1224741,-0.1224 -0.083134,-0.1381 -0.104005,-0.1584 -0.104588,-0.1015 l -6.413e-4,0.071 -0.0562,-0.072 c -0.030898,-0.04 -0.079403,-0.124 -0.1078528,-0.1867 -0.048971,-0.1085 -0.052586,-0.1108 -0.070308,-0.043 -0.016557,0.062 -0.028683,0.049 -0.1054042,-0.1154 -0.070308,-0.1507 -0.090946,-0.1754 -0.1092519,-0.131 -0.019239,0.047 -0.030549,0.037 -0.076605,-0.062 -0.029732,-0.064 -0.054684,-0.1493 -0.055617,-0.1893 -0.00117,-0.068 -0.00466,-0.069 -0.041276,-0.021 -0.035912,0.048 -0.04454,0.037 -0.090946,-0.1107 -0.028683,-0.091 -0.060397,-0.1486 -0.071824,-0.1299 -0.025185,0.041 -0.057716,-0.033 -0.057716,-0.1306 0,-0.037 -0.019705,-0.083 -0.043724,-0.1026 -0.024019,-0.02 -0.044773,-0.071 -0.046173,-0.1131 -0.00233,-0.077 -0.00233,-0.077 -0.032764,0.012 -0.01714,0.049 -0.030782,0.359 -0.031365,0.7134 -9.91e-4,0.5533 0.00816,0.6765 0.076721,1.0624 0.09048,0.5076 0.2300121,1.0503 0.3962802,1.542 0.1253074,0.3706 0.1382497,0.4496 0.082784,0.5051 -0.050953,0.051 -0.2724535,0.043 -0.3269279,-0.012 z m -1.5015667,-5.0631 c 0,-0.012 -0.029499,-0.029 -0.065528,-0.049 -0.059465,-0.031 -0.061797,-0.03 -0.025535,0.014 0.037195,0.045 0.091063,0.065 0.091063,0.035 z m 2.3875216,-0.015 c 0,-0.016 -0.00583,-0.029 -0.012826,-0.029 -0.007,0 -0.020988,0.013 -0.030782,0.029 -0.00933,0.016 -0.00466,0.029 0.012826,0.029 0.016907,0 0.030782,-0.013 0.030782,-0.029 z m -1.6711462,-0.1959 c -0.029616,-0.029 -0.053985,0.015 -0.029732,0.054 0.018306,0.029 0.025185,0.029 0.035096,0 0.007,-0.02 0.00466,-0.044 -0.00583,-0.055 z m 0.943251,0.021 c 0,-0.016 -0.00583,-0.029 -0.012826,-0.029 -0.007,0 -0.020988,0.013 -0.030782,0.029 -0.00933,0.016 -0.00466,0.029 0.012826,0.029 0.017023,0 0.030898,-0.013 0.030898,-0.029 z m -1.0574117,-0.2093 c -0.00933,-0.023 -0.016207,-0.016 -0.017606,0.018 -0.00117,0.03 0.00583,0.048 0.015274,0.038 0.00933,-0.012 0.010494,-0.035 0.00233,-0.056 z m 1.1738693,0.035 c 0,-0.016 -0.013875,-0.029 -0.030782,-0.029 -0.016907,0 -0.022737,0.013 -0.012826,0.029 0.00933,0.016 0.023786,0.029 0.030782,0.029 0.007,0 0.012826,-0.013 0.012826,-0.029 z m -1.0741317,-0.1674 c -0.015391,-0.028 -0.048155,-0.077 -0.072873,-0.1096 -0.04454,-0.057 -0.04489,-0.057 -0.045823,0 -5.131e-4,0.035 0.028217,0.084 0.063779,0.1096 0.082318,0.057 0.089314,0.057 0.054917,0 z m 1.0545433,-0.07 c 0.023203,-0.089 -0.01714,-0.086 -0.072524,0 -0.029383,0.048 -0.053518,0.094 -0.053518,0.1015 0,0.035 0.114149,-0.062 0.1259836,-0.1073 z m -1.2198087,-0.1939 -0.022037,-0.078 -0.020988,0.087 c -0.01166,0.048 -0.022503,0.1131 -0.024369,0.1448 -0.0035,0.053 2.332e-4,0.053 0.043024,-0.012 0.032064,-0.045 0.039643,-0.091 0.024369,-0.1448 z m 1.3208522,-0.013 -0.010494,-0.065 -0.036728,0.065 c -0.029616,0.053 -0.029616,0.078 0,0.131 l 0.036728,0.065 0.010494,-0.065 c 0.00583,-0.036 0.00583,-0.094 0,-0.131 z"
       id="path3050"
       inkscape:connector-curvature="0" />
  </g>
</svg>
