<svg xmlns="http://www.w3.org/2000/svg" id="libre-social-twitch.svg" viewBox="0 0 14 14"><g transform="matrix(1.25,0,0,-1.25,-779.56837,964.40421)"><g transform="matrix(0.010541,0,0,0.010541,618.46435,753.10458)"><g transform="matrix(9.5324427,0,0,9.5324427,1348.9493,1188.2344)"><path d="m 0,0 -13.652,-13.651 -21.445,0 -11.699,-11.697 0,11.697 -17.548,0 0,56.544 L 0,42.893 0,0 Z m -72.146,50.692 -3.899,-15.599 0,-70.19 17.55,0 0,-9.751 9.746,0 9.752,9.751 15.596,0 31.196,31.192 0,54.597 -79.941,0 z" /></g><path d="m 940.03601,1225.3756 74.34349,0 0,223.0687 -74.34349,0 0,-223.0687 z m 204.43279,0 74.3435,0 0,223.0687 -74.3435,0 0,-223.0687 z"/></g></g></svg>