<svg xmlns="http://www.w3.org/2000/svg" viewBox="0 0 14 14" width="14" height="14"><path d="m 13,10.428575 v 0.85714 q 0,0.17411 -0.12723,0.30134 -0.12723,0.12723 -0.30134,0.12723 H 1.428571 q -0.174107,0 -0.301339,-0.12723 Q 1,11.459825 1,11.285715 v -0.85714 q 0,-0.17411 0.127232,-0.30134 0.127232,-0.12724 0.301339,-0.12724 H 12.57143 q 0.17411,0 0.30134,0.12724 Q 13,10.254465 13,10.428575 z m 0,-2.57143 v 0.85714 q 0,0.17411 -0.12723,0.30134 -0.12723,0.12723 -0.30134,0.12723 H 4 q -0.17411,0 -0.30134,-0.12723 -0.12723,-0.12723 -0.12723,-0.30134 v -0.85714 q 0,-0.17411 0.12723,-0.30134 Q 3.82589,7.428575 4,7.428575 h 8.57143 q 0.17411,0 0.30134,0.12723 Q 13,7.683035 13,7.857145 z m 0,-2.57143 v 0.85714 q 0,0.17411 -0.12723,0.30134 -0.12723,0.12723 -0.30134,0.12723 H 2.28571 q -0.1741,0 -0.301335,-0.12723 -0.127232,-0.12723 -0.127232,-0.30134 v -0.85714 q 0,-0.17411 0.127232,-0.30134 0.127235,-0.12723 0.301335,-0.12723 h 10.28572 q 0.17411,0 0.30134,0.12723 Q 13,5.111605 13,5.285715 z m 0,-2.57143 v 0.85714 q 0,0.17411 -0.12723,0.30134 -0.12723,0.12723 -0.30134,0.12723 H 4.85714 q -0.1741,0 -0.30134,-0.12723 -0.12723,-0.12723 -0.12723,-0.30134 v -0.85714 q 0,-0.17411 0.12723,-0.30134 0.12724,-0.12723 0.30134,-0.12723 h 7.71429 q 0.17411,0 0.30134,0.12723 Q 13,2.540175 13,2.714285 z"/></svg>