<svg xmlns="http://www.w3.org/2000/svg" width="14" height="14" viewBox="0 0 14 14"><g transform="matrix(0.12666646,0,0,0.12666646,0.91996354,0.92007325)"><path d="M 73.414,0.631 H 50.675 L 39.263,35.192 h 7.46 c 2.792,0 5.269,1.353 6.829,3.431 l 0.384,-1.452 7.19,-21.336 2.339,-0.013 7.534,22.814 H 53.563 c 1.065,1.426 1.704,3.187 1.704,5.099 v 9.924 h 18.918 l 3.341,12.704 H 95.041 L 73.414,0.631 z"/><path d="M 52.178,85.862 C 51.291,82.89 50.69,73.465 50.69,66.096 c 0,-0.903 -0.235,-1.75 -0.644,-2.486 0.41,-0.914 0.642,-1.923 0.642,-2.986 V 47.129 c 0,-4.04 -3.286,-7.326 -7.326,-7.326 H 36.436 C 36.373,38.97 36.329,38.139 36.303,37.329 36.274,36.6 36.264,35.923 36.261,35.256 c -0.009,-0.703 0.002,-1.277 0.033,-1.776 0.059,-1.079 0.188,-2.124 0.378,-3.057 0.205,-1 0.431,-1.649 0.518,-1.883 0.015,-0.041 0.03,-0.08 0.044,-0.121 0.056,-0.161 0.105,-0.281 0.136,-0.351 2.836,-5.413 0.768,-12.133 -4.634,-15.013 -1.597,-0.85 -3.393,-1.3 -5.195,-1.307 -1.803,0.007 -3.599,0.457 -5.195,1.307 -5.402,2.88 -7.47,9.6 -4.634,15.013 0.031,0.069 0.081,0.189 0.136,0.351 0.014,0.041 0.029,0.08 0.044,0.121 0.087,0.233 0.313,0.883 0.518,1.883 0.19,0.933 0.32,1.978 0.378,3.057 0.031,0.499 0.042,1.073 0.033,1.776 -0.004,0.667 -0.013,1.344 -0.042,2.073 -0.026,0.81 -0.07,1.641 -0.133,2.474 H 11.72 c -4.04,0 -7.326,3.286 -7.326,7.326 v 13.495 c 0,1.063 0.232,2.072 0.642,2.986 -0.409,0.736 -0.644,1.583 -0.644,2.486 0,7.368 -0.601,16.794 -1.488,19.766 -1.821,1.499 -2.168,3.619 -1.828,5.191 0.936,4.315 5.459,4.315 6.945,4.315 3.454,0 9.681,-0.606 9.944,-0.632 0.402,-0.04 0.791,-0.126 1.159,-0.251 0.394,0.098 0.804,0.151 1.221,0.152 l 7.196,0.035 7.196,-0.035 c 0.417,-0.001 0.827,-0.055 1.221,-0.152 0.368,0.125 0.757,0.211 1.159,0.251 0.263,0.025 6.491,0.632 9.944,0.632 1.486,0 6.01,0 6.945,-4.315 0.34,-1.572 -0.006,-3.692 -1.828,-5.191 z m -14.472,3.967 -2.748,-11.988 -1.375,11.871 -13.3,-0.006 -2.906,-6.99 0,7.113 c 0,0 -13.952,1.368 -10.943,0 3.009,-1.367 3.009,-23.527 3.009,-23.527 h 18.098 18.098 c 0,0 0,22.16 3.009,23.527 3.01,1.368 -10.942,0 -10.942,0 z"/></g></svg>