<svg aria-labelledby="tech-ram" role="img" focusable="false" aria-hidden="true" xmlns="http://www.w3.org/2000/svg" viewBox="0 0 14 14"><path d="M 9.5716276,8.928835 9.6586886,9.031545 13,6.199205 12.140439,5.185185 12.896813,4.544025 10.082378,1.223835 9.9603031,1.349885 C 9.813975,1.473925 9.5940589,1.455075 9.4709032,1.310385 l -0.095898,-0.12962 -8.3424881,7.07169 0.098166,0.10407 c 0.00517,0.006 0.011279,0.0114 0.012409,0.0118 0.1239078,0.14618 0.1059614,0.36559 -0.040213,0.4895 l -0.102879,0.0872 2.8031843,3.30692 0.5270156,-0.44674 0.8595614,1.01403 3.5704967,-3.02661 -0.086801,-0.1024 c -0.2099258,-0.24765 -0.178773,-0.62009 0.06855,-0.82974 0.2477932,-0.21015 0.6196936,-0.17933 0.8296195,0.0683 z m -5.7951696,1.8602 -1.766827,-2.08433 0.9209935,-0.7807 1.766827,2.08433 -0.9209935,0.7807 z m 1.2225931,-1.03636 -1.7668269,-2.08431 0.9209937,-0.78071 1.7668269,2.08432 -0.9209937,0.7807 z m 1.2819862,-1.0867 -1.766827,-2.08433 0.9214743,-0.78111 1.766827,2.08433 -0.9214743,0.78111 z m 1.7003521,-1.44134 -1.766827,-2.08433 0.9208397,-0.78057 1.7668269,2.08433 -0.9208396,0.78057 z m 1.2225931,-1.03636 -1.766827,-2.08433 0.9211667,-0.78084 1.7668268,2.08432 -0.9211665,0.78085 z m 1.2822935,-1.08696 -1.7668267,-2.08433 0.9211667,-0.78085 1.766827,2.08433 -0.921167,0.78085 z m -2.096898,4.65314 -3.1680755,2.6855 -0.6854219,-0.80859 0.5994104,-0.50811 0.5055763,0.59643 0.2054325,-0.17414 -0.5055763,-0.59643 0.2270122,-0.19243 0.5055764,0.59643 0.2051246,-0.17388 -0.5055763,-0.59643 0.2199731,-0.18646 0.5055763,0.59643 0.2054323,-0.17415 -0.5055763,-0.59643 0.1969891,-0.16698 0.5055761,0.59643 0.2054325,-0.17414 -0.5055763,-0.59643 0.2270125,-0.19243 0.5055763,0.59643 0.2054131,-0.17413 -0.5055763,-0.59643 0.2193382,-0.18592 0.5055763,0.59643 0.2054326,-0.17414 -0.5055764,-0.59643 1.6806569,-1.42465 0.5055763,0.59643 0.2054325,-0.17414 -0.5055763,-0.59643 0.2271663,-0.19256 0.5055758,0.59643 0.205279,-0.17401 -0.5055763,-0.59643 0.2196652,-0.1862 0.5055761,0.59643 0.205279,-0.17401 -0.505577,-0.59643 0.197451,-0.16738 0.505576,0.59643 0.205433,-0.17414 -0.505576,-0.59642 0.226858,-0.19231 0.505576,0.59643 0.205413,-0.17412 -0.505576,-0.59643 0.219512,-0.18607 0.505576,0.59643 0.205432,-0.17414 -0.505576,-0.59643 0.473239,-0.40115 0.685422,0.80859 -2.9377938,2.49029 c -0.3187685,-0.27495 -0.789223,-0.27971 -1.1148837,-0.004 -0.325353,0.27579 -0.3973971,0.74041 -0.1780655,1.09964 z"/></svg>