<?xml version="1.0" encoding="UTF-8" standalone="no"?>
<svg
   xmlns:dc="http://purl.org/dc/elements/1.1/"
   xmlns:cc="http://creativecommons.org/ns#"
   xmlns:rdf="http://www.w3.org/1999/02/22-rdf-syntax-ns#"
   xmlns:svg="http://www.w3.org/2000/svg"
   xmlns="http://www.w3.org/2000/svg"
   xmlns:sodipodi="http://sodipodi.sourceforge.net/DTD/sodipodi-0.dtd"
   xmlns:inkscape="http://www.inkscape.org/namespaces/inkscape"
   width="14"
   height="14"
   viewBox="0 0 14 14"
   id="svg2"
   version="1.1"
   inkscape:version="0.48.4 r9939"
   sodipodi:docname="libre-strikethrough.svg">
  <metadata
     id="metadata10">
    <rdf:RDF>
      <cc:Work
         rdf:about="">
        <dc:format>image/svg+xml</dc:format>
        <dc:type
           rdf:resource="http://purl.org/dc/dcmitype/StillImage" />
      </cc:Work>
    </rdf:RDF>
  </metadata>
  <defs
     id="defs8" />
  <sodipodi:namedview
     pagecolor="#ffffff"
     bordercolor="#666666"
     borderopacity="1"
     objecttolerance="10"
     gridtolerance="10"
     guidetolerance="10"
     inkscape:pageopacity="0"
     inkscape:pageshadow="2"
     inkscape:window-width="1920"
     inkscape:window-height="1030"
     id="namedview6"
     showgrid="false"
     inkscape:zoom="2.9285917"
     inkscape:cx="496.49773"
     inkscape:cy="1024"
     inkscape:window-x="0"
     inkscape:window-y="0"
     inkscape:window-maximized="1"
     inkscape:current-layer="svg2" />
  <g
     id="g3759"
     transform="matrix(0.00631579,0,0,0.00631579,0.53263117,0.53263113)">
    <g
       style="font-size:2583.79882812px;font-style:normal;font-variant:normal;font-weight:bold;font-stretch:normal;line-height:125%;letter-spacing:0px;word-spacing:0px;fill:#000000;fill-opacity:1;stroke:none;font-family:Vegur;-inkscape-font-specification:Sans"
       id="text2987">
      <path
         d="M 462.02375,1868.9022 C 573.12698,1923.1619 743.65794,1949 862.51256,1949 c 403.07224,0 723.46364,-191.2015 723.46364,-560.6844 0,-222.2065 -121.4388,-387.5699 -408.2402,-478.00276 -224.79025,-69.7625 -312.63964,-149.86048 -312.63964,-294.55307 0,-139.525 118.85494,-227.3743 304.88824,-227.3743 118.8547,0 258.38,41.34085 353.9805,103.35196 l 25.838,-307.47206 C 1472.2892,137.75703 1330.18,99.000005 1175.1522,99.000005 c -343.64488,0 -669.20387,160.195905 -669.20387,534.846355 0,253.21203 118.85503,413.40794 405.65641,503.84074 201.53606,64.5949 307.47206,147.2767 307.47206,286.8017 0,144.6926 -139.5253,235.1257 -348.81284,235.1257 -111.10324,0 -266.13139,-31.0056 -382.40223,-90.433 l -25.83798,299.7207"
         style=""
         id="path2986" />
    </g>
    <path
       style="stroke:#ffffff;stroke-width:60.45871353;stroke-miterlimit:4;stroke-opacity:1;stroke-dasharray:none"
       sodipodi:nodetypes="sssssssssssss"
       inkscape:connector-curvature="0"
       id="path4"
       d="m 1910.9217,956.60866 c 9.5809,0 17.451,4.55403 23.6102,13.66207 6.1592,9.1079 9.2387,20.74594 9.2387,34.91417 l 0,97.1523 c 0,14.1681 -3.0795,25.8061 -9.2387,34.9142 -6.1592,9.108 -14.0293,13.662 -23.6102,13.662 l -1773.8434,0 c -9.58093,0 -17.451,-4.554 -23.61018,-13.662 -6.15917,-9.1081 -9.23876,-20.7461 -9.23876,-34.9142 l 0,-97.1523 c 0,-14.16823 3.07959,-25.80627 9.23876,-34.91417 6.15918,-9.10804 14.02925,-13.66207 23.61018,-13.66207 z" />
  </g>
</svg>
