<?xml version="1.0" encoding="UTF-8" standalone="no"?>
<!-- Generator: Adobe Illustrator 15.0.0, SVG Export Plug-In . SVG Version: 6.00 Build 0)  -->

<svg
   xmlns:dc="http://purl.org/dc/elements/1.1/"
   xmlns:cc="http://creativecommons.org/ns#"
   xmlns:rdf="http://www.w3.org/1999/02/22-rdf-syntax-ns#"
   xmlns:svg="http://www.w3.org/2000/svg"
   xmlns="http://www.w3.org/2000/svg"
   xmlns:sodipodi="http://sodipodi.sourceforge.net/DTD/sodipodi-0.dtd"
   xmlns:inkscape="http://www.inkscape.org/namespaces/inkscape"
   version="1.1"
   id="Layer_1"
   x="0px"
   y="0px"
   width="14"
   height="14"
   viewBox="0 0 14 14"
   enable-background="new 0 0 26 26"
   xml:space="preserve"
   inkscape:version="0.48.4 r9939"
   sodipodi:docname="libre-os-bsd.svg"><metadata
     id="metadata15"><rdf:RDF><cc:Work
         rdf:about=""><dc:format>image/svg+xml</dc:format><dc:type
           rdf:resource="http://purl.org/dc/dcmitype/StillImage" /></cc:Work></rdf:RDF></metadata><defs
     id="defs13" /><sodipodi:namedview
     pagecolor="#ffffff"
     bordercolor="#666666"
     borderopacity="1"
     objecttolerance="10"
     gridtolerance="10"
     guidetolerance="10"
     inkscape:pageopacity="0"
     inkscape:pageshadow="2"
     inkscape:window-width="1920"
     inkscape:window-height="1030"
     id="namedview11"
     showgrid="false"
     inkscape:zoom="0.4705761"
     inkscape:cx="1288.0573"
     inkscape:cy="844.68955"
     inkscape:window-x="0"
     inkscape:window-y="0"
     inkscape:window-maximized="1"
     inkscape:current-layer="Layer_1" /><g
     id="g3"
     transform="matrix(0.49433533,0,0,0.49433533,0.57394485,0.57339853)"><path
       d="M 21.768,10.173 C 21.101,10.84 19.249,10.07 17.631,8.452 16.014,6.835 15.243,4.983 15.91,4.315 16.041,4.184 16.227,4.125 16.437,4.099 15.094,3.514 13.615,3.184 12.057,3.184 5.995,3.186 1.081,8.1 1.081,14.162 c 0,6.061 4.914,10.976 10.976,10.976 6.062,0 10.976,-4.915 10.976,-10.976 0,-1.656 -0.377,-3.221 -1.033,-4.628 -0.009,0.263 -0.077,0.486 -0.232,0.639 z"
       id="path5"
       inkscape:connector-curvature="0" /><path
       d="m 20.764,9.643 c 0,0 5.262,-7.246 3.941,-8.566 -1.32,-1.321 -8.381,3.905 -8.381,3.905 0,0 0.419,3.272 4.44,4.661 z"
       id="path7"
       inkscape:connector-curvature="0" /><path
       d="m 7.789,3.415 c 0,0 -2.892,-2.545 -3.953,-1.824 -1.061,0.72 0.237,4.217 0.237,4.217 0,0 1.142,-2.537 3.716,-2.393 z"
       id="path9"
       inkscape:connector-curvature="0" /></g></svg>