<?xml version="1.0" encoding="UTF-8" standalone="no"?>
<svg
   xmlns:dc="http://purl.org/dc/elements/1.1/"
   xmlns:cc="http://creativecommons.org/ns#"
   xmlns:rdf="http://www.w3.org/1999/02/22-rdf-syntax-ns#"
   xmlns:svg="http://www.w3.org/2000/svg"
   xmlns="http://www.w3.org/2000/svg"
   xmlns:sodipodi="http://sodipodi.sourceforge.net/DTD/sodipodi-0.dtd"
   xmlns:inkscape="http://www.inkscape.org/namespaces/inkscape"
   id="libre-librecms"
   viewBox="0 0 80 14"
   version="1.1"
   inkscape:version="0.91 r"
   sodipodi:docname="libre-libre.svg">
  <metadata
     id="metadata25">
    <rdf:RDF>
      <cc:Work
         rdf:about="">
        <dc:format>image/svg+xml</dc:format>
        <dc:type
           rdf:resource="http://purl.org/dc/dcmitype/StillImage" />
        <dc:title></dc:title>
      </cc:Work>
    </rdf:RDF>
  </metadata>
  <defs
     id="defs23" />
  <sodipodi:namedview
     pagecolor="#ffffff"
     bordercolor="#666666"
     borderopacity="1"
     objecttolerance="10"
     gridtolerance="10"
     guidetolerance="10"
     inkscape:pageopacity="0"
     inkscape:pageshadow="2"
     inkscape:window-width="1366"
     inkscape:window-height="716"
     id="namedview21"
     showgrid="false"
     inkscape:zoom="9.4752309"
     inkscape:cx="50.207345"
     inkscape:cy="2.3000121"
     inkscape:window-x="0"
     inkscape:window-y="0"
     inkscape:window-maximized="1"
     inkscape:current-layer="g3" />
  <g
     transform="matrix(0.27995792,0,0,0.27995792,0.3209247,-280.6733)"
     id="g3">
    <path
       style="fill:#18a303"
       d="m 1.2038301,1006.187 11.2792979,0 0,35.2149 19.804688,0 0,8.5253 -31.0839859,0 0,-43.7402 z"
       id="path5" />
    <path
       style="fill:#18a303"
       d="m 38.938209,1017.1147 10.488282,0 0,32.8125 -10.488282,0 0,-32.8125 z m 0,-12.7734 10.488282,0 0,8.5547 -10.488282,0 0,-8.5547 z"
       id="path7" />
    <path
       style="fill:#18a303"
       d="m 77.024151,1043.1597 q 3.369141,0 5.126954,-2.461 1.787109,-2.4609 1.787109,-7.1484 0,-4.6875 -1.787109,-7.1484 -1.757813,-2.461 -5.126954,-2.461 -3.369141,0 -5.185547,2.4903 -1.787109,2.4609 -1.787109,7.1191 0,4.6582 1.787109,7.1484 1.816406,2.461 5.185547,2.461 z m -6.972656,-21.2403 q 2.167969,-2.8711 4.804687,-4.2187 2.636719,-1.377 6.064454,-1.377 6.064453,0 9.960938,4.834 3.896485,4.8047 3.896485,12.3926 0,7.5879 -3.896485,12.4219 -3.896485,4.8047 -9.960938,4.8047 -3.427735,0 -6.064454,-1.3477 -2.636718,-1.377 -4.804687,-4.248 l 0,4.746 -10.488282,0 0,-45.5859 10.488282,0 0,17.5781 z"
       id="path9" />
    <path
       style="fill:#18a303"
       d="m 126.94603,1026.0503 q -1.37696,-0.6445 -2.75391,-0.9375 -1.34766,-0.3223 -2.72461,-0.3223 -4.04297,0 -6.24023,2.6074 -2.16797,2.5782 -2.16797,7.4122 l 0,15.1171 -10.48828,0 0,-32.8125 10.48828,0 0,5.3907 q 2.02148,-3.2227 4.6289,-4.6875 2.63672,-1.4942 6.29883,-1.4942 0.52735,0 1.14258,0.059 0.61523,0.029 1.78711,0.1758 l 0.0293,9.4922 z"
       id="path11" />
    <path
       style="fill:#18a303"
       d="m 164.97338,1033.4331 0,2.9883 -24.52149,0 q 0.38086,3.6914 2.66602,5.5371 2.28515,1.8457 6.38672,1.8457 3.31054,0 6.76758,-0.9668 3.48632,-0.9961 7.14843,-2.9883 l 0,8.086 q -3.7207,1.4062 -7.4414,2.1093 -3.72071,0.7325 -7.44141,0.7325 -8.90625,0 -13.85742,-4.5118 -4.92188,-4.541 -4.92188,-12.7148 0,-8.0274 4.83399,-12.627 4.86328,-4.5996 13.35937,-4.5996 7.73438,0 12.36329,4.6582 4.6582,4.6582 4.6582,12.4512 z m -10.78125,-3.4863 q 0,-2.9883 -1.75781,-4.8047 -1.72852,-1.8457 -4.54102,-1.8457 -3.04688,0 -4.95117,1.7285 -1.9043,1.6992 -2.37305,4.9219 l 13.62305,0 z"
       id="path13" />
  </g>
</svg>
