<svg xmlns="http://www.w3.org/2000/svg" width="14" height="14" viewBox="0 0 14 14"><path d="m 11.687505,3.544643 q 0.1875,0.1875 0.32143,0.508928 0.13392,0.321429 0.13392,0.589286 v 7.714286 q 0,0.267857 -0.1875,0.455357 Q 11.767855,13 11.500005,13 h -9 q -0.26786,0 -0.45536,-0.1875 -0.1875,-0.1875 -0.1875,-0.455357 V 1.642857 Q 1.857145,1.375 2.044645,1.1875 2.232145,1 2.500005,1 h 6 q 0.26785,0 0.58928,0.133928 0.32143,0.133929 0.50893,0.321429 z M 8.714285,1.910714 v 2.517857 h 2.51786 q -0.067,-0.194196 -0.14732,-0.274553 L 8.988845,2.058035 q -0.0804,-0.08036 -0.27456,-0.147321 z m 2.57143,10.232143 V 5.285714 h -2.78571 q -0.26786,0 -0.45536,-0.1875 -0.1875,-0.1875 -0.1875,-0.455357 V 1.857143 h -5.14286 v 10.285714 h 8.57143 z"/></svg>