<?xml version="1.0" encoding="UTF-8" standalone="no"?>
<!-- Generated by IcoMoon.io -->

<svg
   xmlns:dc="http://purl.org/dc/elements/1.1/"
   xmlns:cc="http://creativecommons.org/ns#"
   xmlns:rdf="http://www.w3.org/1999/02/22-rdf-syntax-ns#"
   xmlns:svg="http://www.w3.org/2000/svg"
   xmlns="http://www.w3.org/2000/svg"
   xmlns:sodipodi="http://sodipodi.sourceforge.net/DTD/sodipodi-0.dtd"
   xmlns:inkscape="http://www.inkscape.org/namespaces/inkscape"
   version="1.1"
   width="14"
   height="14"
   viewBox="0 0 14 14"
   id="svg2"
   inkscape:version="0.48.4 r9939"
   sodipodi:docname="libre-spinner-7.svg">
  <metadata
     id="metadata10">
    <rdf:RDF>
      <cc:Work
         rdf:about="">
        <dc:format>image/svg+xml</dc:format>
        <dc:type
           rdf:resource="http://purl.org/dc/dcmitype/StillImage" />
      </cc:Work>
    </rdf:RDF>
  </metadata>
  <defs
     id="defs8" />
  <sodipodi:namedview
     pagecolor="#ffffff"
     bordercolor="#666666"
     borderopacity="1"
     objecttolerance="10"
     gridtolerance="10"
     guidetolerance="10"
     inkscape:pageopacity="0"
     inkscape:pageshadow="2"
     inkscape:window-width="1920"
     inkscape:window-height="1030"
     id="namedview6"
     showgrid="false"
     inkscape:zoom="25.557453"
     inkscape:cx="11.48077"
     inkscape:cy="16"
     inkscape:window-x="0"
     inkscape:window-y="0"
     inkscape:window-maximized="1"
     inkscape:current-layer="svg2" />
  <path
     d="M 7,0 C 3.1889375,0 0.08925,3.0454375 0.0021875,6.8355 0.083125,3.528875 2.5974375,0.875 5.6875,0.875 c 3.1412498,0 5.6875,2.74225 5.6875,6.125 0,0.7249375 0.587562,1.3125 1.3125,1.3125 C 13.412438,8.3125 14,7.7249375 14,7 14,3.1338125 10.866187,0 7,0 z m 0,14 c 3.811062,0 6.91075,-3.045437 6.997813,-6.8355 C 13.916875,10.471125 11.402562,13.125 8.3125,13.125 5.1712502,13.125 2.625,10.38275 2.625,7 2.625,6.2750625 2.0374375,5.6875 1.3125,5.6875 0.58756249,5.6875 0,6.2750625 0,7 c 0,3.866188 3.1338125,7 7,7 z"
     id="path4"
     style="fill:#000000"
     inkscape:connector-curvature="0" />
</svg>
