<svg xmlns="http://www.w3.org/2000/svg" viewBox="0 0 14 14" width="14" height="14"><path d="m 13,10.428575 v 0.85714 q 0,0.17411 -0.12723,0.30134 -0.12723,0.12723 -0.30134,0.12723 H 1.428571 q -0.174107,0 -0.301339,-0.12723 Q 1,11.459825 1,11.285715 v -0.85714 q 0,-0.17411 0.127232,-0.30134 0.127232,-0.12724 0.301339,-0.12724 H 12.57143 q 0.17411,0 0.30134,0.12724 Q 13,10.254465 13,10.428575 z m 0,-2.57143 v 0.85714 q 0,0.17411 -0.12723,0.30134 -0.12723,0.12723 -0.30134,0.12723 H 1.428571 q -0.174107,0 -0.301339,-0.12723 Q 1,8.888395 1,8.714285 V 7.857145 Q 1,7.683035 1.127232,7.555805 1.254464,7.428575 1.428571,7.428575 H 12.57143 q 0.17411,0 0.30134,0.12723 Q 13,7.683035 13,7.857145 z m 0,-2.57143 v 0.85714 q 0,0.17411 -0.12723,0.30134 -0.12723,0.12723 -0.30134,0.12723 H 1.428571 q -0.174107,0 -0.301339,-0.12723 Q 1,6.316965 1,6.142855 V 5.285715 Q 1,5.111605 1.127232,4.984375 1.254464,4.857145 1.428571,4.857145 H 12.57143 q 0.17411,0 0.30134,0.12723 Q 13,5.111605 13,5.285715 z m 0,-2.57143 v 0.85714 q 0,0.17411 -0.12723,0.30134 -0.12723,0.12723 -0.30134,0.12723 H 1.428571 q -0.174107,0 -0.301339,-0.12723 Q 1,3.745535 1,3.571425 V 2.714285 Q 1,2.540175 1.127232,2.412945 1.254464,2.285715 1.428571,2.285715 H 12.57143 q 0.17411,0 0.30134,0.12723 Q 13,2.540175 13,2.714285 z"/></svg>