<?xml version="1.0" encoding="UTF-8" standalone="no"?>
<!-- Generated by IcoMoon.io -->

<svg
   xmlns:dc="http://purl.org/dc/elements/1.1/"
   xmlns:cc="http://creativecommons.org/ns#"
   xmlns:rdf="http://www.w3.org/1999/02/22-rdf-syntax-ns#"
   xmlns:svg="http://www.w3.org/2000/svg"
   xmlns="http://www.w3.org/2000/svg"
   xmlns:sodipodi="http://sodipodi.sourceforge.net/DTD/sodipodi-0.dtd"
   xmlns:inkscape="http://www.inkscape.org/namespaces/inkscape"
   version="1.1"
   width="14"
   height="14"
   viewBox="0 0 14 14"
   id="svg2"
   inkscape:version="0.48.4 r9939"
   sodipodi:docname="libre-underline.svg">
  <metadata
     id="metadata10">
    <rdf:RDF>
      <cc:Work
         rdf:about="">
        <dc:format>image/svg+xml</dc:format>
        <dc:type
           rdf:resource="http://purl.org/dc/dcmitype/StillImage" />
      </cc:Work>
    </rdf:RDF>
  </metadata>
  <defs
     id="defs8" />
  <sodipodi:namedview
     pagecolor="#ffffff"
     bordercolor="#666666"
     borderopacity="1"
     objecttolerance="10"
     gridtolerance="10"
     guidetolerance="10"
     inkscape:pageopacity="0"
     inkscape:pageshadow="2"
     inkscape:window-width="1920"
     inkscape:window-height="1030"
     id="namedview6"
     showgrid="false"
     inkscape:zoom="158.19769"
     inkscape:cx="5.3803519"
     inkscape:cy="6.3716711"
     inkscape:window-x="0"
     inkscape:window-y="0"
     inkscape:window-maximized="1"
     inkscape:current-layer="svg2" />
  <path
     style="font-size:medium;font-style:normal;font-variant:normal;font-weight:normal;font-stretch:normal;text-indent:0;text-align:start;text-decoration:none;line-height:normal;letter-spacing:normal;word-spacing:normal;text-transform:none;direction:ltr;block-progression:tb;writing-mode:lr-tb;text-anchor:start;baseline-shift:baseline;color:#000000;fill-opacity:1;fill-rule:nonzero;stroke:none;stroke-width:1;marker:none;visibility:visible;display:inline;overflow:visible;enable-background:accumulate;font-family:Sans;-inkscape-font-specification:Sans"
     d="M 3.28125,11.5 C 3.0664548,11.5 2.8435794,11.634086 2.75,11.78125 2.6574894,11.926736 2.6254166,12.10828 2.625,12.25 l 0,0.5 c 0,0.142546 0.030195,0.290537 0.125,0.4375 0.093777,0.145379 0.3178995,0.310959 0.53125,0.3125 l 7.4375,0 c 0.214793,0 0.437676,-0.165356 0.53125,-0.3125 0.09248,-0.145446 0.124576,-0.295754 0.125,-0.4375 l 0,-0.5 c 0,-0.142546 -0.03014,-0.321757 -0.125,-0.46875 C 11.156226,11.635875 10.932097,11.501541 10.71875,11.5 l -7.4375,0 z"
     id="path4"
     inkscape:connector-curvature="0" />
  <g
     style="font-size:14.15647697px;font-style:normal;font-variant:normal;font-weight:bold;font-stretch:normal;line-height:125%;letter-spacing:0px;word-spacing:0px;fill:#000000;fill-opacity:1;stroke:none;font-family:Vegur;-inkscape-font-specification:Sans"
     id="text2987">
    <path
       d="m 10.885953,0.99999838 -1.8686552,0 0,6.10144162 c 0,1.4722721 -0.764451,2.1942539 -1.9960632,2.1942539 -1.2882381,0 -2.0385327,-0.7927643 -2.0385327,-2.3924446 l 0,-5.90325092 -1.868655,0 0,6.38457112 c 0,2.3075034 1.5996842,3.5815885 3.8222488,3.5815885 2.2508776,0 3.9496573,-1.2740855 3.9496573,-4.0062828 l 0,-5.95987682"
       style=""
       id="path2985" />
  </g>
</svg>
