<?xml version="1.0" encoding="UTF-8" standalone="no"?>
<svg
   xmlns:dc="http://purl.org/dc/elements/1.1/"
   xmlns:cc="http://creativecommons.org/ns#"
   xmlns:rdf="http://www.w3.org/1999/02/22-rdf-syntax-ns#"
   xmlns:svg="http://www.w3.org/2000/svg"
   xmlns="http://www.w3.org/2000/svg"
   xmlns:sodipodi="http://sodipodi.sourceforge.net/DTD/sodipodi-0.dtd"
   xmlns:inkscape="http://www.inkscape.org/namespaces/inkscape"
   width="14"
   height="14"
   viewBox="0 0 14 14"
   id="svg2"
   version="1.1"
   inkscape:version="0.48.4 r9939"
   sodipodi:docname="libre-square-o.svg">
  <metadata
     id="metadata10">
    <rdf:RDF>
      <cc:Work
         rdf:about="">
        <dc:format>image/svg+xml</dc:format>
        <dc:type
           rdf:resource="http://purl.org/dc/dcmitype/StillImage" />
      </cc:Work>
    </rdf:RDF>
  </metadata>
  <defs
     id="defs8" />
  <sodipodi:namedview
     pagecolor="#ffffff"
     bordercolor="#666666"
     borderopacity="1"
     objecttolerance="10"
     gridtolerance="10"
     guidetolerance="10"
     inkscape:pageopacity="0"
     inkscape:pageshadow="2"
     inkscape:window-width="1920"
     inkscape:window-height="1030"
     id="namedview6"
     showgrid="false"
     inkscape:zoom="1.0814295"
     inkscape:cx="627.96623"
     inkscape:cy="1024"
     inkscape:window-x="0"
     inkscape:window-y="0"
     inkscape:window-maximized="1"
     inkscape:current-layer="svg2" />
  <path
     d="m 10.54545,2.090909 h -7.0909 q -0.5625,0 -0.96307,0.400568 -0.40057,0.400568 -0.40057,0.963069 v 7.090908 q 0,0.562501 0.40057,0.963069 0.40057,0.400568 0.96307,0.400568 h 7.0909 q 0.5625,0 0.96307,-0.400568 0.40057,-0.400568 0.40057,-0.963069 V 3.454546 q 0,-0.562501 -0.40057,-0.963069 Q 11.10795,2.090909 10.54545,2.090909 z M 13,3.454546 v 7.090908 q 0,1.014205 -0.72017,1.734375 Q 11.55966,13 10.54545,13 H 3.45455 Q 2.44034,13 1.72017,12.279829 1,11.559659 1,10.545454 V 3.454546 Q 1,2.440341 1.72017,1.720171 2.44034,1 3.45455,1 h 7.0909 Q 11.55966,1 12.27983,1.720171 13,2.440341 13,3.454546 z"
     id="path4"
     inkscape:connector-curvature="0" />
</svg>
