<?xml version="1.0" encoding="UTF-8" standalone="no"?>
<svg
   xmlns:dc="http://purl.org/dc/elements/1.1/"
   xmlns:cc="http://creativecommons.org/ns#"
   xmlns:rdf="http://www.w3.org/1999/02/22-rdf-syntax-ns#"
   xmlns:svg="http://www.w3.org/2000/svg"
   xmlns="http://www.w3.org/2000/svg"
   xmlns:sodipodi="http://sodipodi.sourceforge.net/DTD/sodipodi-0.dtd"
   xmlns:inkscape="http://www.inkscape.org/namespaces/inkscape"
   width="14"
   height="14"
   viewBox="0 0 14 14"
   id="svg2"
   version="1.1"
   inkscape:version="0.48.4 r9939"
   sodipodi:docname="libre-level-up.svg">
  <metadata
     id="metadata10">
    <rdf:RDF>
      <cc:Work
         rdf:about="">
        <dc:format>image/svg+xml</dc:format>
        <dc:type
           rdf:resource="http://purl.org/dc/dcmitype/StillImage" />
      </cc:Work>
    </rdf:RDF>
  </metadata>
  <defs
     id="defs8" />
  <sodipodi:namedview
     pagecolor="#ffffff"
     bordercolor="#666666"
     borderopacity="1"
     objecttolerance="10"
     gridtolerance="10"
     guidetolerance="10"
     inkscape:pageopacity="0"
     inkscape:pageshadow="2"
     inkscape:window-width="1920"
     inkscape:window-height="1030"
     id="namedview6"
     showgrid="false"
     inkscape:zoom="1.0814295"
     inkscape:cx="627.96623"
     inkscape:cy="1024"
     inkscape:window-x="0"
     inkscape:window-y="0"
     inkscape:window-maximized="1"
     inkscape:current-layer="svg2" />
  <path
     d="m 11.311289,5.042644 q -0.15352,0.315565 -0.49467,0.315565 H 9.1790888 v 7.36887 q 0,0.119403 -0.0768,0.196162 Q 9.0255688,13 8.9061688,13 h -6.00426 q -0.17911,0 -0.24734,-0.153518 -0.0682,-0.170576 0.0341,-0.298508 l 1.3646,-1.637526 q 0.0768,-0.09382 0.21322,-0.09382 h 2.72921 V 5.358206 h -1.63752 q -0.34116,0 -0.49467,-0.315565 -0.14499,-0.315565 0.0768,-0.579958 L 7.6695188,1.18763 Q 7.8230088,1 8.0874088,1 q 0.26439,0 0.41791,0.187633 l 2.7292102,3.275053 q 0.23028,0.272922 0.0768,0.579958 z"
     id="path4"
     inkscape:connector-curvature="0" />
</svg>
