<?xml version="1.0" encoding="UTF-8" standalone="no"?>
<svg
   xmlns:dc="http://purl.org/dc/elements/1.1/"
   xmlns:cc="http://creativecommons.org/ns#"
   xmlns:rdf="http://www.w3.org/1999/02/22-rdf-syntax-ns#"
   xmlns:svg="http://www.w3.org/2000/svg"
   xmlns="http://www.w3.org/2000/svg"
   xmlns:sodipodi="http://sodipodi.sourceforge.net/DTD/sodipodi-0.dtd"
   xmlns:inkscape="http://www.inkscape.org/namespaces/inkscape"
   width="14"
   height="14"
   viewBox="0 0 14 14"
   id="svg2"
   version="1.1"
   inkscape:version="0.48.4 r9939"
   sodipodi:docname="libre-arrow-up.svg">
  <metadata
     id="metadata10">
    <rdf:RDF>
      <cc:Work
         rdf:about="">
        <dc:format>image/svg+xml</dc:format>
        <dc:type
           rdf:resource="http://purl.org/dc/dcmitype/StillImage" />
      </cc:Work>
    </rdf:RDF>
  </metadata>
  <defs
     id="defs8" />
  <sodipodi:namedview
     pagecolor="#ffffff"
     bordercolor="#666666"
     borderopacity="1"
     objecttolerance="10"
     gridtolerance="10"
     guidetolerance="10"
     inkscape:pageopacity="0"
     inkscape:pageshadow="2"
     inkscape:window-width="1920"
     inkscape:window-height="1030"
     id="namedview6"
     showgrid="false"
     inkscape:zoom="0.39933521"
     inkscape:cx="734.76931"
     inkscape:cy="1024"
     inkscape:window-x="0"
     inkscape:window-y="0"
     inkscape:window-maximized="1"
     inkscape:current-layer="svg2" />
  <path
     d="m 13,7.331195 q 0,0.39281 -0.28498,0.69319 l -0.57766,0.57767 q -0.29269,0.29268 -0.7009,0.29268 -0.41592,0 -0.6932,-0.29268 L 8.47882,6.345315 v 5.42233 q 0,0.40052 -0.28883,0.65084 -0.28883,0.25032 -0.69705,0.25032 H 6.50706 q -0.40822,0 -0.69705,-0.25032 -0.28883,-0.25032 -0.28883,-0.65084 v -5.42233 l -2.26444,2.25674 q -0.27728,0.29268 -0.6932,0.29268 -0.41591,0 -0.69319,-0.29268 L 1.29268,8.024385 Q 1,7.731705 1,7.331195 1,6.922975 1.29268,6.630295 L 6.3068,1.616175 Q 6.57638,1.331195 7,1.331195 q 0.41592,0 0.7009,0.28498 l 5.01412,5.01412 Q 13,6.930675 13,7.331195 z"
     id="path4"
     inkscape:connector-curvature="0" />
</svg>
