<?xml version="1.0" encoding="UTF-8" standalone="no"?>
<!-- Generator: Adobe Illustrator 16.0.4, SVG Export Plug-In . SVG Version: 6.00 Build 0)  -->

<svg
   xmlns:dc="http://purl.org/dc/elements/1.1/"
   xmlns:cc="http://creativecommons.org/ns#"
   xmlns:rdf="http://www.w3.org/1999/02/22-rdf-syntax-ns#"
   xmlns:svg="http://www.w3.org/2000/svg"
   xmlns="http://www.w3.org/2000/svg"
   xmlns:sodipodi="http://sodipodi.sourceforge.net/DTD/sodipodi-0.dtd"
   xmlns:inkscape="http://www.inkscape.org/namespaces/inkscape"
   version="1.1"
   id="Capa_1"
   x="0px"
   y="0px"
   width="14"
   height="14"
   viewBox="0 0 14 14"
   enable-background="new 0 0 216 146"
   xml:space="preserve"
   inkscape:version="0.48.4 r9939"
   sodipodi:docname="libre-resize-horizontal.svg"><metadata
     id="metadata9"><rdf:RDF><cc:Work
         rdf:about=""><dc:format>image/svg+xml</dc:format><dc:type
           rdf:resource="http://purl.org/dc/dcmitype/StillImage" /></cc:Work></rdf:RDF></metadata><defs
     id="defs7" /><sodipodi:namedview
     pagecolor="#ffffff"
     bordercolor="#666666"
     borderopacity="1"
     objecttolerance="10"
     gridtolerance="10"
     guidetolerance="10"
     inkscape:pageopacity="0"
     inkscape:pageshadow="2"
     inkscape:window-width="1920"
     inkscape:window-height="1030"
     id="namedview5"
     showgrid="false"
     inkscape:zoom="0.67040977"
     inkscape:cx="1700.8092"
     inkscape:cy="712.40243"
     inkscape:window-x="0"
     inkscape:window-y="0"
     inkscape:window-maximized="1"
     inkscape:current-layer="Capa_1" /><path
     d="M 12.87277,6.69868 11.15858,4.98441 c -0.0849,-0.0848 -0.18535,-0.12723 -0.30132,-0.12723 -0.11605,0 -0.21657,0.0424 -0.30148,0.12723 -0.0847,0.0848 -0.12715,0.18526 -0.12715,0.30131 V 6.1429 H 3.57145 V 5.28572 c 0,-0.11605 -0.0424,-0.21649 -0.12723,-0.30131 -0.0849,-0.0848 -0.18534,-0.12723 -0.3014,-0.12723 -0.11605,0 -0.21649,0.0424 -0.30131,0.12723 L 1.127233,6.69868 C 1.042411,6.78342 1,6.88394 1,7 1,7.11605 1.04241,7.21649 1.127233,7.30131 L 2.84151,9.01559 c 0.0848,0.0847 0.18517,0.12723 0.30131,0.12723 0.11614,0 0.21658,-0.0425 0.3014,-0.12723 0.0848,-0.0848 0.12723,-0.18526 0.12723,-0.30132 V 7.85701 h 6.85718 v 0.85726 c 0,0.11606 0.0424,0.2165 0.12715,0.30132 0.0849,0.0847 0.18543,0.12723 0.30148,0.12723 0.11597,0 0.21641,-0.0425 0.30132,-0.12723 L 12.87277,7.30131 C 12.95757,7.21651 13,7.11605 13,7 13,6.88394 12.9576,6.78342 12.87277,6.69868 z"
     id="path3"
     inkscape:connector-curvature="0" /></svg>