<svg xmlns="http://www.w3.org/2000/svg" id="libre-security" viewBox="0 0 14 14"><path d="M 12.123424,3.09708 C 9.1750899,1.36849 7.0055019,1 7.0055019,1 c 0,0 -0.0023,3.5e-4 -0.0055,9.6e-4 C 6.9967019,1.00035 6.9945019,1 6.9945019,1 c 0,0 -2.169706,0.36849 -5.117921,2.09708 0,0 -0.390942,8.72672 5.117921,9.90292 0.0019,-3.5e-4 0.0036,-9.6e-4 0.0055,-10e-4 0.0019,3.5e-4 0.0036,9.6e-4 0.0055,10e-4 C 12.514247,11.8238 12.123424,3.09708 12.123424,3.09708 Z M 7.0058749,1.74098 c 0.482647,0.10437 2.177431,0.53826 4.3878041,1.77816 -0.0096,1.61164 -0.285353,7.71006 -4.3878041,8.73494 l 0,-10.5131 0,0 z"/></svg>