<svg xmlns="http://www.w3.org/2000/svg" width="14" height="14" viewBox="0 0 14 14"><g transform="matrix(0.02575107,0,0,0.02575107,0.99999926,0.99999995)"><path d="M 370.001,26.35 18.5,26.35 C 8.282,26.35 0,34.633 0,44.85 l 0,289.477 c 0,10.218 8.282,18.5 18.5,18.5 l 262.662,0 -20.326,-23.571 -48.548,0 0,-29.603 25.435,0 -0.183,-0.224 C 231.05,292.022 226.756,284.368 224.69,277 l -180.29,0 0,-174.825 299.7,0 0,174.825 -40.213,0 c 6.104,6.485 12.491,13.053 17.853,18.368 3.759,-3.521 8.191,-7.416 13.159,-11.314 16.925,-13.288 33.388,-21.414 48.932,-24.151 1.562,-0.274 3.121,-0.479 4.672,-0.647 l 0,-214.406 c -0.002,-10.217 -8.284,-18.5 -18.502,-18.5 z m -240.963,273.303 47.175,0 0,29.601 -47.175,0 0,-29.601 z m -83.251,0 47.176,0 0,29.601 -47.176,0 0,-29.601 z m 47.176,-220.132 -47.176,0 0,-29.6 47.176,0 0,29.6 z m 83.25,0 -47.175,0 0,-29.6 47.175,0 0,29.6 z m 83.25,0 -47.175,0 0,-29.6 47.175,0 0,29.6 z m 83.25,0 -47.175,0 0,-29.6 47.175,0 0,29.6 z"/><path d="m 464.662,354.325 c -4.595,-24.766 -20.357,-47.662 -29.344,-59.11 -12.191,-15.53 -27.666,-21.767 -45.99,-18.538 -13.086,2.305 -27.307,9.429 -42.271,21.177 -10.572,8.303 -18.558,16.611 -22.088,20.479 -8.874,-7.644 -33.651,-33.175 -45.816,-47.571 -6.109,-7.229 -21.865,-22.604 -33.621,-11.991 -12.654,12.301 5.882,32.396 6.362,32.979 l 74.362,91.024 c -0.301,0.402 -0.637,0.752 -1.021,1.055 -7.133,5.601 -27.943,-4.69 -36.344,-10.245 -7.68,-5.076 -20.609,-5.037 -27.137,0.086 -2.612,2.053 -4.06,4.842 -4.075,7.854 -0.021,4.338 2.815,8.82 8.422,13.313 0.063,0.051 0.177,0.149 0.339,0.289 8.286,7.1 30.764,24.782 60.445,35.668 19.027,6.979 37.564,9.854 55.104,8.551 21.754,-1.621 42.023,-9.693 60.246,-24 19.546,-15.354 27.092,-35.884 22.427,-61.02 z"/><path d="m 175.976,127.423 c -2.845,-2.387 -6.815,-2.905 -10.183,-1.335 -3.365,1.57 -5.517,4.948 -5.517,8.662 l 0,100.833 c 0,3.715 2.151,7.092 5.517,8.661 1.291,0.604 2.671,0.897 4.042,0.897 2.204,0 4.386,-0.763 6.141,-2.233 l 60.163,-50.416 c 2.168,-1.817 3.42,-4.501 3.42,-7.328 0,-2.827 -1.252,-5.511 -3.42,-7.327 l -60.163,-50.414 z"/></g></svg>