<?xml version="1.0" encoding="UTF-8" standalone="no"?>
<svg
   xmlns:dc="http://purl.org/dc/elements/1.1/"
   xmlns:cc="http://creativecommons.org/ns#"
   xmlns:rdf="http://www.w3.org/1999/02/22-rdf-syntax-ns#"
   xmlns:svg="http://www.w3.org/2000/svg"
   xmlns="http://www.w3.org/2000/svg"
   xmlns:sodipodi="http://sodipodi.sourceforge.net/DTD/sodipodi-0.dtd"
   xmlns:inkscape="http://www.inkscape.org/namespaces/inkscape"
   width="14"
   height="14"
   viewBox="0 0 14 14"
   id="svg2"
   version="1.1"
   inkscape:version="0.48.4 r9939"
   sodipodi:docname="libre-brand-rss.svg">
  <metadata
     id="metadata10">
    <rdf:RDF>
      <cc:Work
         rdf:about="">
        <dc:format>image/svg+xml</dc:format>
        <dc:type
           rdf:resource="http://purl.org/dc/dcmitype/StillImage" />
      </cc:Work>
    </rdf:RDF>
  </metadata>
  <defs
     id="defs8" />
  <sodipodi:namedview
     pagecolor="#ffffff"
     bordercolor="#666666"
     borderopacity="1"
     objecttolerance="10"
     gridtolerance="10"
     guidetolerance="10"
     inkscape:pageopacity="0"
     inkscape:pageshadow="2"
     inkscape:window-width="1920"
     inkscape:window-height="1030"
     id="namedview6"
     showgrid="false"
     inkscape:zoom="0.39933521"
     inkscape:cx="734.76931"
     inkscape:cy="1024"
     inkscape:window-x="0"
     inkscape:window-y="0"
     inkscape:window-maximized="1"
     inkscape:current-layer="svg2" />
  <path
     d="M 5,10 Q 5,9.58594 4.70703,9.29297 4.41406,9 4,9 3.58594,9 3.29297,9.29297 3,9.58594 3,10 3,10.41406 3.29297,10.70703 3.58594,11 4,11 4.41406,11 4.70703,10.70703 5,10.41406 5,10 z m 2.74219,0.73438 Q 7.64062,8.92188 6.35937,7.64063 5.07812,6.35938 3.26562,6.25781 q -0.10937,-0.008 -0.1875,0.0703 -0.0781,0.0781 -0.0781,0.17968 v 1 q 0,0.10157 0.0664,0.17188 0.0664,0.0703 0.16796,0.0781 1.20313,0.0859 2.0625,0.94532 0.85938,0.85937 0.94532,2.0625 0.008,0.10156 0.0781,0.16796 0.0703,0.0664 0.17188,0.0664 h 1 q 0.10156,0 0.17968,-0.0781 0.0781,-0.0781 0.0703,-0.1875 z m 3,0.008 Q 10.70309,9.53925 10.30469,8.41816 9.90625,7.29707 9.21484,6.38691 8.52344,5.47675 7.61328,4.78535 6.70312,4.09394 5.58203,3.6955 4.46094,3.29707 3.25781,3.258 3.14844,3.25 3.07812,3.3283 3.00002,3.4064 3.00002,3.50798 v 1 q 0,0.10157 0.0703,0.17188 0.0703,0.0703 0.17188,0.0781 1.59375,0.0547 2.95312,0.8711 1.35938,0.8164 2.17578,2.17578 0.81641,1.35937 0.8711,2.95312 0.008,0.10157 0.0781,0.17188 0.0703,0.0703 0.17188,0.0703 h 1 q 0.10156,0 0.17968,-0.0781 0.0859,-0.0703 0.0703,-0.17969 z M 13,3.25 v 7.5 q 0,0.92969 -0.66016,1.58984 Q 11.67969,13 10.75,13 H 3.25 Q 2.32031,13 1.66016,12.33984 1,11.67969 1,10.75 V 3.25 Q 1,2.32031 1.66016,1.66016 2.32031,1 3.25,1 h 7.5 Q 11.67969,1 12.33984,1.66016 13,2.32031 13,3.25 z"
     id="path4"
     inkscape:connector-curvature="0" />
</svg>
