<?xml version="1.0" encoding="UTF-8" standalone="no"?>
<svg
   xmlns:dc="http://purl.org/dc/elements/1.1/"
   xmlns:cc="http://creativecommons.org/ns#"
   xmlns:rdf="http://www.w3.org/1999/02/22-rdf-syntax-ns#"
   xmlns:svg="http://www.w3.org/2000/svg"
   xmlns="http://www.w3.org/2000/svg"
   xmlns:sodipodi="http://sodipodi.sourceforge.net/DTD/sodipodi-0.dtd"
   xmlns:inkscape="http://www.inkscape.org/namespaces/inkscape"
   width="14"
   height="14"
   viewBox="0 0 14 14"
   id="svg2"
   version="1.1"
   inkscape:version="0.48.4 r9939"
   sodipodi:docname="libre-table.svg">
  <metadata
     id="metadata10">
    <rdf:RDF>
      <cc:Work
         rdf:about="">
        <dc:format>image/svg+xml</dc:format>
        <dc:type
           rdf:resource="http://purl.org/dc/dcmitype/StillImage" />
      </cc:Work>
    </rdf:RDF>
  </metadata>
  <defs
     id="defs8" />
  <sodipodi:namedview
     pagecolor="#ffffff"
     bordercolor="#666666"
     borderopacity="1"
     objecttolerance="10"
     gridtolerance="10"
     guidetolerance="10"
     inkscape:pageopacity="0"
     inkscape:pageshadow="2"
     inkscape:window-width="1920"
     inkscape:window-height="1030"
     id="namedview6"
     showgrid="false"
     inkscape:zoom="1.0814295"
     inkscape:cx="627.96623"
     inkscape:cy="1024"
     inkscape:window-x="0"
     inkscape:window-y="0"
     inkscape:window-maximized="1"
     inkscape:current-layer="svg2" />
  <path
     d="m 4.69231,10.923075 v -1.38461 q 0,-0.10096 -0.0649,-0.16587 -0.0649,-0.0649 -0.16586,-0.0649 H 2.15386 q -0.10097,0 -0.165869,0.0649 -0.0649,0.0649 -0.0649,0.16587 v 1.38461 q 0,0.10097 0.0649,0.16587 0.0649,0.0649 0.165869,0.0649 h 2.30769 q 0.10096,0 0.16586,-0.0649 0.0649,-0.0649 0.0649,-0.16587 z m 0,-2.76923 v -1.38461 q 0,-0.10096 -0.0649,-0.16587 -0.0649,-0.0649 -0.16586,-0.0649 H 2.15386 q -0.10097,0 -0.165869,0.0649 -0.0649,0.0649 -0.0649,0.16587 v 1.38461 q 0,0.10096 0.0649,0.16587 0.0649,0.0649 0.165869,0.0649 h 2.30769 q 0.10096,0 0.16586,-0.0649 0.0649,-0.0649 0.0649,-0.16587 z m 3.69231,2.76923 v -1.38461 q 0,-0.10096 -0.0649,-0.16587 -0.0649,-0.0649 -0.16586,-0.0649 h -2.3077 q -0.10096,0 -0.16586,0.0649 -0.0649,0.0649 -0.0649,0.16587 v 1.38461 q 0,0.10097 0.0649,0.16587 0.0649,0.0649 0.16586,0.0649 h 2.3077 q 0.10096,0 0.16586,-0.0649 0.0649,-0.0649 0.0649,-0.16587 z M 4.69231,5.384615 v -1.38461 q 0,-0.10096 -0.0649,-0.16587 -0.0649,-0.0649 -0.16586,-0.0649 H 2.15386 q -0.10097,0 -0.165869,0.0649 -0.0649,0.0649 -0.0649,0.16587 v 1.38461 q 0,0.10096 0.0649,0.16587 0.0649,0.0649 0.165869,0.0649 h 2.30769 q 0.10096,0 0.16586,-0.0649 0.0649,-0.0649 0.0649,-0.16587 z m 3.69231,2.76923 v -1.38461 q 0,-0.10096 -0.0649,-0.16587 -0.0649,-0.0649 -0.16586,-0.0649 h -2.3077 q -0.10096,0 -0.16586,0.0649 -0.0649,0.0649 -0.0649,0.16587 v 1.38461 q 0,0.10096 0.0649,0.16587 0.0649,0.0649 0.16586,0.0649 h 2.3077 q 0.10096,0 0.16586,-0.0649 0.0649,-0.0649 0.0649,-0.16587 z m 3.6923,2.76923 v -1.38461 q 0,-0.10096 -0.0649,-0.16587 -0.0649,-0.0649 -0.16587,-0.0649 H 9.53846 q -0.10096,0 -0.16586,0.0649 -0.0649,0.0649 -0.0649,0.16587 v 1.38461 q 0,0.10097 0.0649,0.16587 0.0649,0.0649 0.16586,0.0649 h 2.30769 q 0.10097,0 0.16587,-0.0649 0.0649,-0.0649 0.0649,-0.16587 z m -3.6923,-5.53846 v -1.38461 q 0,-0.10096 -0.0649,-0.16587 -0.0649,-0.0649 -0.16586,-0.0649 h -2.3077 q -0.10096,0 -0.16586,0.0649 -0.0649,0.0649 -0.0649,0.16587 v 1.38461 q 0,0.10096 0.0649,0.16587 0.0649,0.0649 0.16586,0.0649 h 2.3077 q 0.10096,0 0.16586,-0.0649 0.0649,-0.0649 0.0649,-0.16587 z m 3.6923,2.76923 v -1.38461 q 0,-0.10096 -0.0649,-0.16587 -0.0649,-0.0649 -0.16587,-0.0649 H 9.53846 q -0.10096,0 -0.16586,0.0649 -0.0649,0.0649 -0.0649,0.16587 v 1.38461 q 0,0.10096 0.0649,0.16587 0.0649,0.0649 0.16586,0.0649 h 2.30769 q 0.10097,0 0.16587,-0.0649 0.0649,-0.0649 0.0649,-0.16587 z m 0,-2.76923 v -1.38461 q 0,-0.10096 -0.0649,-0.16587 -0.0649,-0.0649 -0.16587,-0.0649 H 9.53846 q -0.10096,0 -0.16586,0.0649 -0.0649,0.0649 -0.0649,0.16587 v 1.38461 q 0,0.10096 0.0649,0.16587 0.0649,0.0649 0.16586,0.0649 h 2.30769 q 0.10097,0 0.16587,-0.0649 0.0649,-0.0649 0.0649,-0.16587 z M 13,3.076925 v 7.84615 q 0,0.47597 -0.33894,0.81491 -0.33894,0.33894 -0.81491,0.33894 h -9.6923 q -0.475965,0 -0.814908,-0.33894 Q 1,11.399045 1,10.923075 v -7.84615 q 0,-0.47596 0.338942,-0.8149 0.338943,-0.33895 0.814908,-0.33895 h 9.6923 q 0.47597,0 0.81491,0.33895 Q 13,2.600965 13,3.076925 z"
     id="path4"
     inkscape:connector-curvature="0" />
</svg>
