<svg xmlns="http://www.w3.org/2000/svg" id="libre-square-o-rounded" viewBox="0 0 14 14"><path d="m 11.136358,1.2727272 -8.2727163,0 q -0.65625,0 -1.1235817,0.4673293 Q 1.2727283,2.2073858 1.2727283,2.863637 l 0,8.272726 q 0,0.656251 0.4673317,1.123581 0.4673317,0.467329 1.1235817,0.467329 l 8.2727163,0 q 0.65625,0 1.123582,-0.467329 0.467332,-0.46733 0.467332,-1.123581 l 0,-8.272726 q 0,-0.6562512 -0.467332,-1.1235805 Q 11.792608,1.2727272 11.136358,1.2727272 Z M 14,2.863637 14,11.136363 Q 14,12.319602 13.159802,13.1598 12.319603,14 11.136358,14 L 2.8636417,14 Q 1.6803967,14 0.8401983,13.1598 0,12.319602 0,11.136363 L 0,2.863637 Q 0,1.6803978 0.8401983,0.8401995 1.6803967,0 2.8636417,0 L 11.136358,0 Q 12.319603,0 13.159802,0.8401995 14,1.6803978 14,2.863637 Z"/></svg>