<svg aria-labelledby="brand-google-plus" role="img" focusable="false" aria-hidden="true" xmlns="http://www.w3.org/2000/svg" viewBox="0 0 14 14"><path d="m 13,3.660595 -1.590903,0 0,1.59093 -0.795466,0 0,-1.59093 -1.590932,0 0,-0.79547 1.590932,0 0,-1.59087 0.795466,0 0,1.5909 1.590903,0 0,0.79544 z m -4.497583,6.57999 c 0,1.19251 -1.088854,2.64428 -3.828174,2.64428 C 2.670825,12.884865 1,12.020745 1,10.567325 1,9.445555 1.710184,7.989335 5.028825,7.989335 4.535951,7.587625 4.41499,7.025925 4.716214,6.417705 c -1.943127,0 -2.938224,-1.14238 -2.938224,-2.5929 0,-1.41935 1.055593,-2.70967 3.208253,-2.70967 0.543495,0 3.448485,0 3.448485,0 l -0.770592,0.80884 -0.905214,0 c 0.638593,0.36588 0.978233,1.1194 0.978233,1.94997 0,0.76238 -0.419796,1.37985 -1.018922,1.84308 -1.063194,0.822 -0.79101,1.28097 0.322922,2.09335 1.098292,0.82285 1.461262,1.45803 1.461262,2.43021 z M 6.351592,3.925815 C 6.191223,2.705285 5.396078,1.703955 4.46701,1.676025 c -0.929389,-0.0276 -1.55269,0.90637 -1.392175,2.12723 0.160456,1.22053 1.043709,2.07314 1.973272,2.10113 0.929039,0.0276 1.463796,-0.75789 1.303485,-1.97857 z m 0.958049,6.43719 c 0,-1.00387 -0.915758,-1.96069 -2.452194,-1.96069 -1.384719,-0.0152 -2.558214,0.87501 -2.558214,1.90692 0,1.05303 1.000049,1.92961 2.384825,1.92961 1.770321,-3e-5 2.625583,-0.82281 2.625583,-1.87584 z"/></svg>