<?xml version="1.0" encoding="UTF-8" standalone="no"?>
<!-- Generated by IcoMoon.io -->

<svg
   xmlns:dc="http://purl.org/dc/elements/1.1/"
   xmlns:cc="http://creativecommons.org/ns#"
   xmlns:rdf="http://www.w3.org/1999/02/22-rdf-syntax-ns#"
   xmlns:svg="http://www.w3.org/2000/svg"
   xmlns="http://www.w3.org/2000/svg"
   xmlns:sodipodi="http://sodipodi.sourceforge.net/DTD/sodipodi-0.dtd"
   xmlns:inkscape="http://www.inkscape.org/namespaces/inkscape"
   version="1.1"
   width="14"
   height="14"
   viewBox="0 0 14 14"
   id="svg2"
   inkscape:version="0.48.4 r9939"
   sodipodi:docname="libre-trash.svg">
  <metadata
     id="metadata10">
    <rdf:RDF>
      <cc:Work
         rdf:about="">
        <dc:format>image/svg+xml</dc:format>
        <dc:type
           rdf:resource="http://purl.org/dc/dcmitype/StillImage" />
      </cc:Work>
    </rdf:RDF>
  </metadata>
  <defs
     id="defs8" />
  <sodipodi:namedview
     pagecolor="#ffffff"
     bordercolor="#666666"
     borderopacity="1"
     objecttolerance="10"
     gridtolerance="10"
     guidetolerance="10"
     inkscape:pageopacity="0"
     inkscape:pageshadow="2"
     inkscape:window-width="1920"
     inkscape:window-height="1030"
     id="namedview6"
     showgrid="false"
     inkscape:zoom="29.208518"
     inkscape:cx="7.0456741"
     inkscape:cy="14"
     inkscape:window-x="0"
     inkscape:window-y="0"
     inkscape:window-maximized="1"
     inkscape:current-layer="svg2" />
  <path
     d="m 5.4999377,5.7501979 v 4.5001871 q 0,0.109505 -0.070503,0.179508 -0.070503,0.07 -0.1795074,0.0705 H 4.7499064 q -0.1095045,0 -0.1795075,-0.0705 -0.070003,-0.0705 -0.070503,-0.179508 V 5.7501979 q 0,-0.1095045 0.070503,-0.1795075 0.070503,-0.070003 0.1795075,-0.070503 h 0.5000209 q 0.1095045,0 0.1795074,0.070503 0.070003,0.070503 0.070503,0.1795075 z m 2.0000833,0 v 4.5001871 q 0,0.109505 -0.070503,0.179508 -0.070503,0.07 -0.1795075,0.0705 H 6.7499898 q -0.1095046,0 -0.1795075,-0.0705 -0.070003,-0.0705 -0.070503,-0.179508 V 5.7501979 q 0,-0.1095045 0.070503,-0.1795075 0.070503,-0.070003 0.1795075,-0.070503 h 0.5000208 q 0.1095046,0 0.1795075,0.070503 0.070003,0.070503 0.070503,0.1795075 z m 2.0000833,0 v 4.5001871 q 0,0.109505 -0.070503,0.179508 -0.070503,0.07 -0.1795075,0.0705 H 8.7500731 q -0.1095046,0 -0.1795075,-0.0705 -0.070003,-0.0705 -0.070503,-0.179508 V 5.7501979 q 0,-0.1095045 0.070503,-0.1795075 0.070503,-0.070003 0.1795075,-0.070503 H 9.250094 q 0.1095046,0 0.1795075,0.070503 0.070003,0.070503 0.070503,0.1795075 z M 10.500146,11.406934 V 4.000625 H 3.4998543 v 7.406309 q 0,0.172007 0.054502,0.316513 0.054502,0.144506 0.1135047,0.211009 0.059003,0.0665 0.082004,0.0665 h 6.500271 q 0.0235,0 0.082,-0.0665 0.0585,-0.0665 0.113504,-0.211009 0.055,-0.144506 0.0545,-0.316513 z M 5.2499273,3.0000833 H 8.7500731 L 8.3750575,2.0860453 Q 8.3205552,2.0155423 8.2420519,2.0000417 H 5.7654487 q -0.078003,0.015501 -0.1330055,0.086004 z m 7.2503017,0.2500105 v 0.5000208 q 0,0.1095046 -0.0705,0.1795075 -0.0705,0.070003 -0.179507,0.070503 h -0.750031 v 7.4063089 q 0,0.648527 -0.367016,1.121046 Q 10.766157,13 10.250136,13 H 3.7498648 Q 3.2343433,13 2.866828,12.542981 2.4993126,12.085962 2.4998127,11.437435 V 3.999625 H 1.7497814 q -0.1095046,0 -0.1795075,-0.070503 Q 1.500271,3.8586191 1.499771,3.7496146 V 3.2495937 q 0,-0.1095045 0.070503,-0.1795074 0.070503,-0.070003 0.1795075,-0.070503 H 4.163882 L 4.7109048,1.695029 Q 4.8279097,1.4060169 5.1329224,1.2030085 5.4379351,1 5.7499481,1 H 8.2500523 Q 8.5625653,1 8.867078,1.2030085 9.1715907,1.4060169 9.2890956,1.695029 l 0.5470227,1.3045543 h 2.4141007 q 0.109504,0 0.179507,0.070503 0.07,0.070503 0.0705,0.1795074 z"
     id="path4"
     style="fill:#000000"
     inkscape:connector-curvature="0" />
</svg>
