<?xml version="1.0" encoding="UTF-8" standalone="no"?>
<svg
   xmlns:dc="http://purl.org/dc/elements/1.1/"
   xmlns:cc="http://creativecommons.org/ns#"
   xmlns:rdf="http://www.w3.org/1999/02/22-rdf-syntax-ns#"
   xmlns:svg="http://www.w3.org/2000/svg"
   xmlns="http://www.w3.org/2000/svg"
   xmlns:sodipodi="http://sodipodi.sourceforge.net/DTD/sodipodi-0.dtd"
   xmlns:inkscape="http://www.inkscape.org/namespaces/inkscape"
   version="1.1"
   width="14"
   height="14"
   viewBox="0 0 14 14"
   enable-background="new 0 0 76.00 76.00"
   xml:space="preserve"
   id="svg2"
   inkscape:version="0.48.4 r9939"
   sodipodi:docname="libre-text-size.svg"><metadata
     id="metadata10"><rdf:RDF><cc:Work
         rdf:about=""><dc:format>image/svg+xml</dc:format><dc:type
           rdf:resource="http://purl.org/dc/dcmitype/StillImage" /></cc:Work></rdf:RDF></metadata><defs
     id="defs8" /><sodipodi:namedview
     pagecolor="#ffffff"
     bordercolor="#666666"
     borderopacity="1"
     objecttolerance="10"
     gridtolerance="10"
     guidetolerance="10"
     inkscape:pageopacity="0"
     inkscape:pageshadow="2"
     inkscape:window-width="1920"
     inkscape:window-height="1030"
     id="namedview6"
     showgrid="false"
     inkscape:zoom="0.45533874"
     inkscape:cx="218.05539"
     inkscape:cy="1078.506"
     inkscape:window-x="0"
     inkscape:window-y="0"
     inkscape:window-maximized="1"
     inkscape:current-layer="svg2" /><path
     d="m 5.82583,8.865 -2.34016,0 -0.58201,2.17576 -1.90366,0 2.48567,-8.08357 2.42503,0 2.10115,6.67167 1.37299,-4.40184 1.76365,0 1.85151,5.81579 -1.45468,0 -0.45856,-1.58238 -1.70192,0 -0.42328,1.58238 -2.50523,-0.003 -0.6305,-2.17576 z m -2.07341,-1.31452 1.80666,0 L 5.04981,5.83291 4.83458,5.05225 4.63755,4.27171 l -0.0242,0 -0.18339,0.78756 -0.19249,0.79396 z m 5.82643,0.95395 1.31391,0 -0.37037,-1.24913 -0.15651,-0.56776 -0.14332,-0.56766 -0.0176,0 -0.13337,0.57276 -0.14,0.57742 z"
     id="path4"
     inkscape:connector-curvature="0"
     style="fill:#000000;fill-opacity:1;stroke-width:0.2;stroke-linejoin:round"
     sodipodi:nodetypes="ccccccccccccccccccccccccccccccccccc" /></svg>