<?xml version="1.0" encoding="UTF-8" standalone="no"?>
<!-- Generated by IcoMoon.io -->

<svg
   xmlns:dc="http://purl.org/dc/elements/1.1/"
   xmlns:cc="http://creativecommons.org/ns#"
   xmlns:rdf="http://www.w3.org/1999/02/22-rdf-syntax-ns#"
   xmlns:svg="http://www.w3.org/2000/svg"
   xmlns="http://www.w3.org/2000/svg"
   xmlns:sodipodi="http://sodipodi.sourceforge.net/DTD/sodipodi-0.dtd"
   xmlns:inkscape="http://www.inkscape.org/namespaces/inkscape"
   version="1.1"
   width="14"
   height="14"
   viewBox="0 0 14 14"
   id="svg2"
   inkscape:version="0.48.4 r9939"
   sodipodi:docname="libre-ticket.svg">
  <metadata
     id="metadata10">
    <rdf:RDF>
      <cc:Work
         rdf:about="">
        <dc:format>image/svg+xml</dc:format>
        <dc:type
           rdf:resource="http://purl.org/dc/dcmitype/StillImage" />
      </cc:Work>
    </rdf:RDF>
  </metadata>
  <defs
     id="defs8" />
  <sodipodi:namedview
     pagecolor="#ffffff"
     bordercolor="#666666"
     borderopacity="1"
     objecttolerance="10"
     gridtolerance="10"
     guidetolerance="10"
     inkscape:pageopacity="0"
     inkscape:pageshadow="2"
     inkscape:window-width="1920"
     inkscape:window-height="1030"
     id="namedview6"
     showgrid="false"
     inkscape:zoom="29.208518"
     inkscape:cx="10.045674"
     inkscape:cy="14"
     inkscape:window-x="0"
     inkscape:window-y="0"
     inkscape:window-maximized="1"
     inkscape:current-layer="svg2" />
  <path
     d="M 7.9079307,3.8350046 10.158159,6.0852325 6.0847767,10.158614 3.8345488,7.9083865 z M 6.405196,10.806746 10.80629,6.4056518 q 0.135369,-0.1353692 0.135369,-0.3204193 0,-0.1850502 -0.135369,-0.3204194 L 8.22835,3.1868733 Q 8.1002735,3.0587967 7.9079307,3.0587967 q -0.1923427,0 -0.3204193,0.1280766 L 3.1864175,7.5879672 q -0.1353692,0.1353692 -0.1353692,0.3204193 0,0.1850501 0.1353692,0.3204193 l 2.5779398,2.5779402 q 0.1280766,0.128076 0.3204194,0.128076 0.1923427,0 0.3204193,-0.128076 z M 12.736554,6.2702826 6.2771194,12.736554 Q 6.0136737,13 5.6326345,13 5.2515953,13 4.9881495,12.736554 L 4.0907019,11.839107 q 0.398815,-0.398815 0.398815,-0.968551 0,-0.569736 -0.398815,-0.968551 Q 3.691887,9.5031905 3.1221513,9.5031905 q -0.5697356,0 -0.9685506,0.3988145 L 1.2634458,9.0045579 Q 1,8.7411121 1,8.3600729 1,7.9790337 1.2634458,7.715588 L 7.7228806,1.2634458 Q 7.9863263,1 8.3673655,1 8.7484047,1 9.0118505,1.2634458 l 0.890155,0.8901549 q -0.398815,0.398815 -0.398815,0.9685506 0,0.5697357 0.398815,0.9685506 0.3988145,0.398815 0.9685505,0.398815 0.569736,0 0.968551,-0.398815 l 0.897447,0.890155 Q 13,5.2443026 13,5.6253418 13,6.006381 12.736554,6.2698268 z"
     id="path4"
     style="fill:#000000"
     inkscape:connector-curvature="0" />
</svg>
