<?xml version="1.0" encoding="UTF-8" standalone="no"?>
<!-- Generated by IcoMoon.io -->

<svg
   xmlns:dc="http://purl.org/dc/elements/1.1/"
   xmlns:cc="http://creativecommons.org/ns#"
   xmlns:rdf="http://www.w3.org/1999/02/22-rdf-syntax-ns#"
   xmlns:svg="http://www.w3.org/2000/svg"
   xmlns="http://www.w3.org/2000/svg"
   xmlns:sodipodi="http://sodipodi.sourceforge.net/DTD/sodipodi-0.dtd"
   xmlns:inkscape="http://www.inkscape.org/namespaces/inkscape"
   version="1.1"
   width="14"
   height="14"
   viewBox="0 0 14 14"
   id="svg2"
   inkscape:version="0.48.4 r9939"
   sodipodi:docname="libre-spinner-2.svg">
  <metadata
     id="metadata32">
    <rdf:RDF>
      <cc:Work
         rdf:about="">
        <dc:format>image/svg+xml</dc:format>
        <dc:type
           rdf:resource="http://purl.org/dc/dcmitype/StillImage" />
      </cc:Work>
    </rdf:RDF>
  </metadata>
  <defs
     id="defs30" />
  <sodipodi:namedview
     pagecolor="#ffffff"
     bordercolor="#666666"
     borderopacity="1"
     objecttolerance="10"
     gridtolerance="10"
     guidetolerance="10"
     inkscape:pageopacity="0"
     inkscape:pageshadow="2"
     inkscape:window-width="1920"
     inkscape:window-height="1030"
     id="namedview28"
     showgrid="false"
     inkscape:zoom="48.939912"
     inkscape:cx="10.111319"
     inkscape:cy="7.3514892"
     inkscape:window-x="0"
     inkscape:window-y="0"
     inkscape:window-maximized="1"
     inkscape:current-layer="svg2" />
  <path
     d="m 7.1341243,4.2105195 c -0.4739212,0 -0.8581195,-0.3769874 -0.8581195,-0.8420136 V 0.84201367 C 6.2760048,0.37698733 6.6602031,0 7.1341243,0 7.6080454,0 7.9922437,0.37698733 7.9922437,0.84201367 V 3.3685059 c 0,0.4650262 -0.3841983,0.8420136 -0.8581194,0.8420136 z"
     id="path4"
     style="fill:#000000"
     inkscape:connector-curvature="0" />
  <path
     d="M 7.1341243,14 C 6.8378085,14 6.5976271,13.764326 6.5976271,13.473572 v -2.526493 c 0,-0.290754 0.2401814,-0.526427 0.5364972,-0.526427 0.2963157,0 0.5364972,0.235673 0.5364972,0.526427 v 2.526493 C 7.6706215,13.764326 7.43044,14 7.1341243,14 z"
     id="path6"
     style="fill:#000000"
     inkscape:connector-curvature="0" />
  <path
     d="m 5.2039307,4.6656132 c -0.277911,0 -0.5484602,-0.1417653 -0.6975384,-0.3950466 L 3.2189831,2.0826856 C 2.9967463,1.7052469 3.1287998,1.2221613 3.5134584,1.0040956 3.8981168,0.78602988 4.3904427,0.91560513 4.6126795,1.293044 L 5.9000887,3.4809249 C 6.1223255,3.8583637 5.9902721,4.3414492 5.6056134,4.559515 5.4790811,4.6313 5.3405857,4.6656128 5.2039307,4.6656128 z"
     id="path8"
     style="fill:#000000"
     inkscape:connector-curvature="0" />
  <path
     d="m 10.352647,13.1011 c -0.167022,0 -0.328984,-0.08488 -0.418707,-0.237028 L 8.646531,10.676191 C 8.5130969,10.449546 8.5922372,10.160147 8.8232163,10.029217 9.054195,9.8982876 9.349131,9.9759424 9.482565,10.202586 l 1.287409,2.187882 c 0.133434,0.226644 0.0543,0.516043 -0.176685,0.646973 -0.07592,0.04289 -0.159201,0.06367 -0.241102,0.06367 z"
     id="path10"
     style="fill:#000000"
     inkscape:connector-curvature="0" />
  <path
     d="m 3.7886088,6.0001935 c -0.1274526,0 -0.2562855,-0.031604 -0.3745358,-0.098875 L 1.1843428,4.6380728 C 0.8249909,4.4344545 0.7021395,3.9838757 0.9096526,3.6317198 1.1171657,3.279564 1.5763631,3.1585668 1.9352549,3.3621852 L 4.1649851,4.6254313 C 4.524337,4.8290496 4.6471884,5.2796285 4.4396753,5.6317843 4.3007197,5.8683607 4.0481152,6.0001935 3.7886088,6.0001935 z"
     id="path12"
     style="fill:#000000"
     inkscape:connector-curvature="0" />
  <path
     d="m 12.70799,10.73669 c -0.0727,0 -0.146778,-0.01806 -0.213955,-0.05643 l -2.22973,-1.2632505 c -0.205213,-0.1164823 -0.275611,-0.3738269 -0.1569,-0.5751877 0.11871,-0.201361 0.380977,-0.2704377 0.586189,-0.1539554 l 2.22973,1.2632462 c 0.205213,0.1164824 0.275611,0.3738274 0.156901,0.5751884 -0.0796,0.134992 -0.223618,0.21039 -0.372235,0.21039 z"
     id="path14"
     style="fill:#000000"
     inkscape:connector-curvature="0" />
  <path
     d="M 3.2723567,7.8417879 H 0.6975383 C 0.3124199,7.8417879 0,7.5356832 0,7.1577929 0,6.7799026 0.3119598,6.473798 0.6975383,6.473798 h 2.5748184 c 0.3851186,0 0.6975385,0.3061046 0.6975385,0.6839949 0,0.3778903 -0.3119598,0.683995 -0.6975385,0.683995 z"
     id="path16"
     style="fill:#000000"
     inkscape:connector-curvature="0" />
  <path
     d="m 13.57071,7.5790254 c 0,0 0,0 0,0 h -2.574818 c -0.236961,0 -0.429289,-0.1887194 -0.429289,-0.4212325 0,-0.2325131 0.192328,-0.4212325 0.429289,-0.4212325 0,0 0,0 0,0 H 13.57071 C 13.80767,6.7365604 14,6.9252798 14,7.1577929 14,7.390306 13.80767,7.5790254 13.57071,7.5790254 z"
     id="path18"
     style="fill:#000000"
     inkscape:connector-curvature="0" />
  <path
     d="m 1.5602589,10.947531 c -0.2222368,0 -0.4389521,-0.113318 -0.5581227,-0.316037 C 0.8245308,10.329453 0.9298977,9.9429843 1.2377166,9.7687123 L 3.4674467,8.5054662 C 3.7752654,8.3307427 4.1691262,8.4345835 4.3467316,8.7366249 4.524337,9.0386662 4.41897,9.4251346 4.1111513,9.5994066 L 1.8814212,10.862652 c -0.1012259,0.05734 -0.2121143,0.08488 -0.3211623,0.08488 z"
     id="path20"
     style="fill:#000000"
     inkscape:connector-curvature="0" />
  <path
     d="m 10.47918,5.6841562 c -0.148158,0 -0.292635,-0.075397 -0.372235,-0.2103905 -0.118711,-0.2013609 -0.04831,-0.4587055 0.1569,-0.5751879 l 2.229729,-1.2632461 c 0.205214,-0.1160308 0.46748,-0.047405 0.586191,0.1539553 0.118711,0.2013608 0.04831,0.4587055 -0.1569,0.5751878 l -2.22973,1.2632461 c -0.06764,0.038376 -0.141257,0.056435 -0.213955,0.056435 z"
     id="path22"
     style="fill:#000000"
     inkscape:connector-curvature="0" />
  <path
     d="m 3.9151412,13.206294 c -0.1003053,0 -0.2015315,-0.02483 -0.2944753,-0.07765 C 3.3386137,12.968816 3.241989,12.614854 3.4048707,12.337643 l 1.2874092,-2.18788 C 4.8551615,9.8730046 5.2158938,9.7781935 5.498406,9.938018 c 0.2825123,0.159825 0.3786769,0.513786 0.2157951,0.790996 l -1.2874092,2.187881 c -0.1090483,0.185559 -0.3073585,0.289399 -0.5116507,0.289399 z"
     id="path24"
     style="fill:#000000"
     inkscape:connector-curvature="0" />
  <path
     d="M 9.064778,4.297204 C 8.992079,4.297204 8.9180005,4.279145 8.8508233,4.240769 8.6456108,4.1242865 8.5752128,3.8669419 8.6939231,3.6655809 L 9.981332,1.4777 c 0.118711,-0.2013608 0.380978,-0.2704376 0.58619,-0.1539553 0.205213,0.1164823 0.275611,0.3738269 0.1569,0.5751879 L 9.437013,4.0868135 C 9.357413,4.2218065 9.213396,4.297204 9.064778,4.297204 z"
     id="path26"
     style="fill:#000000"
     inkscape:connector-curvature="0" />
</svg>
