<?xml version="1.0" encoding="UTF-8" standalone="no"?>
<!-- Generated by IcoMoon.io -->

<svg
   xmlns:dc="http://purl.org/dc/elements/1.1/"
   xmlns:cc="http://creativecommons.org/ns#"
   xmlns:rdf="http://www.w3.org/1999/02/22-rdf-syntax-ns#"
   xmlns:svg="http://www.w3.org/2000/svg"
   xmlns="http://www.w3.org/2000/svg"
   xmlns:sodipodi="http://sodipodi.sourceforge.net/DTD/sodipodi-0.dtd"
   xmlns:inkscape="http://www.inkscape.org/namespaces/inkscape"
   version="1.1"
   width="14"
   height="14"
   viewBox="0 0 14 14"
   id="svg2"
   inkscape:version="0.48.4 r9939"
   sodipodi:docname="libre-spinner-6.svg">
  <metadata
     id="metadata10">
    <rdf:RDF>
      <cc:Work
         rdf:about="">
        <dc:format>image/svg+xml</dc:format>
        <dc:type
           rdf:resource="http://purl.org/dc/dcmitype/StillImage" />
      </cc:Work>
    </rdf:RDF>
  </metadata>
  <defs
     id="defs8" />
  <sodipodi:namedview
     pagecolor="#ffffff"
     bordercolor="#666666"
     borderopacity="1"
     objecttolerance="10"
     gridtolerance="10"
     guidetolerance="10"
     inkscape:pageopacity="0"
     inkscape:pageshadow="2"
     inkscape:window-width="1920"
     inkscape:window-height="1030"
     id="namedview6"
     showgrid="false"
     inkscape:zoom="25.557453"
     inkscape:cx="11.48077"
     inkscape:cy="16"
     inkscape:window-x="0"
     inkscape:window-y="0"
     inkscape:window-maximized="1"
     inkscape:current-layer="svg2" />
  <path
     d="M 7,14 C 5.130125,14 3.37225,13.272 2.050125,11.949875 0.728,10.62775 0,8.869875 0,7 0,5.676125 0.3714375,4.3868125 1.0745,3.271625 1.7583125,2.1875 2.7243125,1.311625 3.868375,0.7380625 l 0.588,1.173375 C 3.52625,2.377375 2.7405,3.089625 2.184875,3.9711875 1.6139375,4.876375 1.3125,5.9233125 1.3125,6.9995625 1.3125,10.135562 3.864,12.687063 7,12.687063 c 3.136,0 5.6875,-2.5515 5.6875,-5.6875005 0,-1.0758125 -0.301875,-2.1231875 -0.872375,-3.028375 C 11.259062,3.089625 10.47375,2.377375 9.543625,1.9114375 l 0.588,-1.173375 C 11.275688,1.3111875 12.242125,2.1875 12.9255,3.271625 13.628562,4.3868125 14,5.6756875 14,7 14,8.869875 13.272,10.62775 11.949875,11.949875 10.62775,13.272 8.869875,14 7,14 z"
     id="path4"
     style="fill:#000000"
     inkscape:connector-curvature="0" />
</svg>
