<svg xmlns="http://www.w3.org/2000/svg" width="14" height="14" viewBox="0 0 14 14"><path d="M 6.6,6.996925 Q 6.6,6.334425 6.13125,5.865675 5.6625,5.396925 5,5.396925 q -0.6625,0 -1.13125,0.46875 Q 3.4,6.334425 3.4,6.996925 q 0,0.6625 0.46875,1.13125 Q 4.3375,8.596925 5,8.596925 q 0.6625,0 1.13125,-0.46875 Q 6.6,7.659425 6.6,6.996925 z m 4.8,3.2 q 0,-0.325 -0.2375,-0.5625 -0.2375,-0.2375 -0.5625,-0.2375 -0.325,0 -0.5625,0.2375 -0.2375,0.2375 -0.2375,0.5625 0,0.33125 0.23438,0.56562 0.23437,0.23438 0.56562,0.23438 0.33125,0 0.56562,-0.23438 Q 11.4,10.528175 11.4,10.196925 z m 0,-6.4 q 0,-0.325 -0.2375,-0.5625 -0.2375,-0.2375 -0.5625,-0.2375 -0.325,0 -0.5625,0.2375 -0.2375,0.2375 -0.2375,0.5625 0,0.33125 0.23438,0.56563 0.23437,0.23437 0.56562,0.23437 0.33125,0 0.56562,-0.23437 Q 11.4,4.128175 11.4,3.796925 z M 9,6.428175 v 1.15625 q 0,0.0625 -0.0438,0.12188 -0.0438,0.0594 -0.1,0.0656 l -0.96875,0.15 q -0.0688,0.21875 -0.2,0.475 0.2125,0.3 0.5625,0.71875 0.0438,0.0625 0.0438,0.125 0,0.075 -0.0438,0.11875 -0.14375,0.1875 -0.51563,0.55937 -0.37187,0.37188 -0.49062,0.37188 -0.0688,0 -0.13125,-0.0438 L 6.3937,9.684355 q -0.23125,0.11875 -0.48125,0.19375 -0.0687,0.675 -0.14375,0.96875 -0.0438,0.15 -0.1875,0.15 H 4.4187 q -0.0688,0 -0.125,-0.0469 -0.0563,-0.0469 -0.0625,-0.10938 L 4.08745,9.884325 Q 3.87495,9.821825 3.6187,9.690575 l -0.7375,0.55625 q -0.0437,0.0438 -0.125,0.0438 -0.0687,0 -0.13125,-0.05 -0.9,-0.83125 -0.9,-1 0,-0.0563 0.04375,-0.11875 0.0625,-0.0875 0.25625,-0.33125 0.19375,-0.24375 0.29375,-0.38125 -0.14375,-0.275 -0.21875,-0.5125 l -0.95,-0.15 Q 1.08745,7.740875 1.0437,7.687475 1,7.634425 1,7.565675 v -1.15625 q 0,-0.0625 0.04375,-0.12188 0.04375,-0.0594 0.1,-0.0656 l 0.96875,-0.15 q 0.0688,-0.21875 0.2,-0.475 -0.2125,-0.3 -0.5625,-0.71875 -0.04375,-0.0688 -0.04375,-0.125 0,-0.075 0.04375,-0.125 0.1375,-0.1875 0.5125,-0.55625 0.375,-0.36875 0.49375,-0.36875 0.0688,0 0.13125,0.0437 l 0.71875,0.5625 q 0.2125,-0.1125 0.48125,-0.2 0.0687,-0.675 0.14375,-0.9625 0.0438,-0.15 0.1875,-0.15 h 1.1625 q 0.0688,0 0.125,0.0469 0.0563,0.0469 0.0625,0.10937 l 0.14375,0.95625 q 0.2125,0.0625 0.46875,0.19375 l 0.7375,-0.55625 q 0.05,-0.0437 0.125,-0.0437 0.0687,0 0.13125,0.05 0.9,0.83125 0.9,1 0,0.0562 -0.0438,0.11875 -0.075,0.1 -0.2625,0.3375 -0.1875,0.2375 -0.28125,0.375 0.14375,0.3 0.2125,0.5125 l 0.95,0.14375 q 0.0625,0.0125 0.10625,0.0656 Q 9,6.359415 9,6.428185 z m 4,3.33125 v 0.875 q 0,0.1 -0.93125,0.19375 -0.075,0.16875 -0.1875,0.325 0.31875,0.70625 0.31875,0.8625 0,0.025 -0.025,0.0437 -0.7625,0.44375 -0.775,0.44375 -0.05,0 -0.2875,-0.29375 -0.2375,-0.29375 -0.325,-0.425 -0.125,0.0125 -0.1875,0.0125 -0.0625,0 -0.1875,-0.0125 -0.0875,0.13125 -0.325,0.425 -0.2375,0.29375 -0.2875,0.29375 -0.0125,0 -0.775,-0.44375 Q 9,12.040675 9,12.015675 q 0,-0.15625 0.31875,-0.8625 -0.1125,-0.15625 -0.1875,-0.325 Q 8.2,10.734475 8.2,10.634425 v -0.875 q 0,-0.1 0.93125,-0.19375 0.0813,-0.18125 0.1875,-0.325 Q 9,8.534425 9,8.378175 q 0,-0.025 0.025,-0.0438 0.025,-0.0125 0.21875,-0.125 0.19375,-0.1125 0.36875,-0.2125 0.175,-0.1 0.1875,-0.1 0.05,0 0.2875,0.29063 0.2375,0.29062 0.325,0.42187 0.125,-0.0125 0.1875,-0.0125 0.0625,0 0.1875,0.0125 0.31875,-0.44375 0.575,-0.7 L 11.4,7.896875 q 0.025,0 0.775,0.4375 0.025,0.0188 0.025,0.0438 0,0.15625 -0.31875,0.8625 0.10625,0.14375 0.1875,0.325 Q 13,9.659375 13,9.759425 z m 0,-6.4 v 0.875 q 0,0.1 -0.93125,0.19375 -0.075,0.16875 -0.1875,0.325 0.31875,0.70625 0.31875,0.8625 0,0.025 -0.025,0.0438 -0.7625,0.44375 -0.775,0.44375 -0.05,0 -0.2875,-0.29375 -0.2375,-0.29375 -0.325,-0.425 -0.125,0.0125 -0.1875,0.0125 -0.0625,0 -0.1875,-0.0125 -0.0875,0.13125 -0.325,0.425 Q 9.85,6.103225 9.8,6.103225 q -0.0125,0 -0.775,-0.44375 Q 9,5.640675 9,5.615675 9,5.459425 9.31875,4.753175 9.20625,4.596925 9.13125,4.428175 8.2,4.334475 8.2,4.234425 v -0.875 q 0,-0.1 0.93125,-0.19375 0.0813,-0.18125 0.1875,-0.325 Q 9,2.134425 9,1.978175 q 0,-0.025 0.025,-0.0438 0.025,-0.0125 0.21875,-0.125 0.19375,-0.1125 0.36875,-0.2125 0.175,-0.1 0.1875,-0.1 0.05,0 0.2875,0.29062 0.2375,0.29063 0.325,0.42188 0.125,-0.0125 0.1875,-0.0125 0.0625,0 0.1875,0.0125 0.31875,-0.44375 0.575,-0.7 L 11.4,1.496875 q 0.025,0 0.775,0.4375 0.025,0.0188 0.025,0.0438 0,0.15625 -0.31875,0.8625 0.10625,0.14375 0.1875,0.325 Q 13,3.259375 13,3.359425 z"/></svg>