<?xml version="1.0" encoding="UTF-8" standalone="no"?>
<!-- Generator: Adobe Illustrator 16.0.0, SVG Export Plug-In . SVG Version: 6.00 Build 0)  -->

<svg
   xmlns:dc="http://purl.org/dc/elements/1.1/"
   xmlns:cc="http://creativecommons.org/ns#"
   xmlns:rdf="http://www.w3.org/1999/02/22-rdf-syntax-ns#"
   xmlns:svg="http://www.w3.org/2000/svg"
   xmlns="http://www.w3.org/2000/svg"
   xmlns:sodipodi="http://sodipodi.sourceforge.net/DTD/sodipodi-0.dtd"
   xmlns:inkscape="http://www.inkscape.org/namespaces/inkscape"
   version="1.1"
   id="Capa_1"
   x="0px"
   y="0px"
   width="14"
   height="14"
   viewBox="0 0 14 14"
   xml:space="preserve"
   inkscape:version="0.48.4 r9939"
   sodipodi:docname="libre-display-layout-blocks.svg"><metadata
     id="metadata39"><rdf:RDF><cc:Work
         rdf:about=""><dc:format>image/svg+xml</dc:format><dc:type
           rdf:resource="http://purl.org/dc/dcmitype/StillImage" /></cc:Work></rdf:RDF></metadata><defs
     id="defs37" /><sodipodi:namedview
     pagecolor="#ffffff"
     bordercolor="#666666"
     borderopacity="1"
     objecttolerance="10"
     gridtolerance="10"
     guidetolerance="10"
     inkscape:pageopacity="0"
     inkscape:pageshadow="2"
     inkscape:window-width="1920"
     inkscape:window-height="1030"
     id="namedview35"
     showgrid="false"
     inkscape:zoom="0.16025926"
     inkscape:cx="2149.6472"
     inkscape:cy="1863.8787"
     inkscape:window-x="0"
     inkscape:window-y="0"
     inkscape:window-maximized="1"
     inkscape:current-layer="Capa_1" /><path
     style="fill:#000000"
     d="M 1,6.249111 H 6.25031 V 1 H 1 V 6.249111 z M 7.74969,1 V 6.249111 H 13 V 1 H 7.74969 z m 0,12 H 13 V 7.750444 H 7.74969 V 13 z M 1,13 H 6.25031 V 7.750444 H 1 V 13 z"
     id="path3"
     inkscape:connector-curvature="0" /><g
     id="g5"
     transform="matrix(0.00648649,0,0,0.00648649,0.357838,13.467079)" /><g
     id="g7"
     transform="matrix(0.00648649,0,0,0.00648649,0.357838,13.467079)" /><g
     id="g9"
     transform="matrix(0.00648649,0,0,0.00648649,0.357838,13.467079)" /><g
     id="g11"
     transform="matrix(0.00648649,0,0,0.00648649,0.357838,13.467079)" /><g
     id="g13"
     transform="matrix(0.00648649,0,0,0.00648649,0.357838,13.467079)" /><g
     id="g15"
     transform="matrix(0.00648649,0,0,0.00648649,0.357838,13.467079)" /><g
     id="g17"
     transform="matrix(0.00648649,0,0,0.00648649,0.357838,13.467079)" /><g
     id="g19"
     transform="matrix(0.00648649,0,0,0.00648649,0.357838,13.467079)" /><g
     id="g21"
     transform="matrix(0.00648649,0,0,0.00648649,0.357838,13.467079)" /><g
     id="g23"
     transform="matrix(0.00648649,0,0,0.00648649,0.357838,13.467079)" /><g
     id="g25"
     transform="matrix(0.00648649,0,0,0.00648649,0.357838,13.467079)" /><g
     id="g27"
     transform="matrix(0.00648649,0,0,0.00648649,0.357838,13.467079)" /><g
     id="g29"
     transform="matrix(0.00648649,0,0,0.00648649,0.357838,13.467079)" /><g
     id="g31"
     transform="matrix(0.00648649,0,0,0.00648649,0.357838,13.467079)" /><g
     id="g33"
     transform="matrix(0.00648649,0,0,0.00648649,0.357838,13.467079)" /></svg>