<svg xmlns="http://www.w3.org/2000/svg" width="14" height="14" viewBox="0 0 14 14"><g transform="matrix(0.02646043,0,0,0.02646043,1,1.0000049)"><path d="M 69.434,221.678 H 0 v -72.625 h 69.434 v 72.625 z M 0,431.464 H 69.434 V 358.839 H 0 v 72.625 z M 0.632,329.542 H 184.109 V 256.907 H 0.632 v 72.635 z m 229.347,-72.635 v 72.635 h 37.459 c -6.457,-29.127 -5.888,-52.897 -0.782,-72.635 H 229.979 z M 115.303,358.839 v 72.625 h 183.479 v -18.765 c -9.86,-19.528 -17.391,-37.416 -22.993,-53.86 H 115.303 z M 298.782,202.898 V 149.054 H 115.303 v 72.625 h 167.468 c 4.782,-6.909 10.188,-13.134 16.011,-18.781 z m 141.516,-36.917 c -25.319,-60.268 -82.806,-78.378 -33.27,-143.938 -24.405,15.77 -45.105,52.247 -21.938,98.575 68.975,143.468 -2.708,173.516 -29.083,161.685 -58.901,-29.33 3.939,-82.813 10.851,-95.616 10.6,-14.306 10.688,-27.384 2.457,-49.305 0.494,19.964 -3.199,36.238 -31.046,55.45 -46.345,31.314 -92.436,83.56 -14.055,228.48 10e-4,0.011 178.4,-107.026 116.084,-255.331 z"/></g></svg>