<svg xmlns="http://www.w3.org/2000/svg" id="libre-brand-linkedin" viewBox="0 0 14 14"><path d="m 11.142272,0.99972 -8.284544,0 C 1.832649,0.99972 1,1.83189 1,2.85773 l 0,8.28454 c 0,1.02559 0.832674,1.85801 1.857728,1.85801 l 8.284267,0 C 12.167831,13.00028 13,12.16788 13,11.14227 L 13,2.85748 C 13,1.83189 12.167856,0.99975 11.142272,0.99975 Z m -7.131988,11.01632 -2.07988,0.0264 0,-6.80539 2.07988,-0.0259 0,6.80488 z M 2.991948,4.22928 c -0.628906,0 -1.138591,-0.50968 -1.138591,-1.13859 0,-0.62784 0.509963,-1.13806 1.138591,-1.13806 0.628376,0 1.137809,0.51047 1.137809,1.13806 0,0.62891 -0.509433,1.13859 -1.137809,1.13859 z m 9.153938,7.78779 -2.017025,0.0302 0,-3.56598 c 0,-0.78716 -0.195763,-1.29349 -1.135486,-1.29349 -0.826992,0 -1.172986,0.14793 -1.172986,1.23607 l 0,3.5934 -2.07185,0.0251 0,-6.80539 1.985989,-0.0243 0,0.865 0.001,0.24463 C 8.322792,5.74537 8.929197,5.30966 9.899956,5.30966 c 1.140132,0 2.246147,0.47918 2.246147,2.03927 l 0,4.66811 z"/></svg>