<svg xmlns="http://www.w3.org/2000/svg" width="14" height="14" viewBox="0 0 14 14"><path d="m 6.8451892,10.642941 c 0,0.05343 -0.022285,0.106997 -0.066855,0.160709 L 4.6424107,12.939574 C 4.5978409,12.979858 4.546557,13 4.488559,13 4.4351324,13 4.3838485,12.979858 4.3347074,12.939574 L 2.1919268,10.796793 c -0.066855,-0.07143 -0.082426,-0.149566 -0.046713,-0.23442 0.035713,-0.08943 0.1027106,-0.134138 0.2009928,-0.134138 l 1.2856684,0 0,-9.2139569 c 0,-0.062569 0.020142,-0.1138533 0.060426,-0.1538517 C 3.732586,1.0204293 3.7838699,1.0002858 3.8461534,1 l 1.2856684,0 c 0.062569,0 0.1138531,0.020142 0.1538516,0.060426 0.039999,0.040284 0.060141,0.091568 0.060426,0.1538517 l 0,9.2139573 1.2856684,0 c 0.062569,0 0.1138532,0.02014 0.1538517,0.06043 0.039997,0.04028 0.060141,0.09157 0.060426,0.153852 z"/><path d="M 8.4038482,4.6210979 C 8.7338361,4.3382511 9.1675357,4.1591144 9.638947,4.1591144 c 0.546837,0 0.876826,0.2828474 0.876826,0.6505482 0,0.4054137 -0.131996,0.6788337 -0.7825436,1.4896611 -0.4714113,0.58455 -0.6128353,0.9522523 -0.6316918,1.4990894 l 1.2539554,0 c 0.02829,-0.4525548 0.207421,-0.7919722 0.565694,-1.2256706 0.669404,-0.8013991 0.952252,-1.2350994 0.952252,-1.8950752 0,-0.9239661 -0.801401,-1.5745153 -1.9233602,-1.5745153 -0.6222629,0 -1.2068145,0.1791368 -1.5839435,0.4525553 l 0.037713,1.0653906 m 1.3293812,3.7241528 c -0.3959855,0 -0.7165459,0.3205604 -0.7165459,0.7165459 0,0.3959855 0.3205604,0.7165458 0.7165459,0.7165458 0.3959856,0 0.7165456,-0.3205603 0.7165456,-0.7165458 0,-0.3959855 -0.32056,-0.7165459 -0.7165456,-0.7165459"/></svg>