<svg
   xmlns="http://www.w3.org/2000/svg"
   viewBox="0 0 14 14"
   width="14"
   height="14">
<g
     id="g3"
     transform="matrix(0.02420389,0,0,0.02420389,1.0000009,1.000013)"><path
       d="m 326.629,212.262 c 23.443,0 42.531,-19.066 42.531,-42.528 0,-23.452 -19.088,-42.519 -42.531,-42.519 -23.459,0 -42.512,19.066 -42.512,42.519 0,23.462 19.053,42.528 42.512,42.528 z"
       id="path5"
       inkscape:connector-curvature="0" /><path
       d="m 92.789,335.697 c -3.391,0.985 -6.926,1.478 -10.494,1.478 -3.307,0 -6.617,-0.429 -9.943,-1.324 -7.379,-2.012 -13.818,-6.16 -18.764,-11.891 l -12.512,0 c -4.281,0 -7.75,-3.488 -7.75,-7.767 l 0,-26.043 c -6.363,-11.682 -5.924,-25.301 0,-36.274 l 0,-18.42 c -5.895,-10.94 -6.328,-24.512 0,-36.234 l 0,-124.715 c 0,-4.278 3.469,-7.767 7.75,-7.767 l 183.348,0 c 3.686,-2.439 7.688,-4.455 12.115,-5.643 3.469,-0.921 7.068,-1.404 10.688,-1.404 6.406,0 12.721,1.494 18.355,4.31 0.791,-12.586 7.363,-23.531 16.922,-30.578 l -241.428,0 C 18.439,33.425 0,51.846 0,74.507 l 0,241.686 c 0,22.659 18.439,41.082 41.076,41.082 l 66.488,0 c -7.203,-5.174 -12.58,-12.729 -14.775,-21.578 z"
       id="path7"
       inkscape:connector-curvature="0" /><path
       d="m 454.715,33.425 -83.957,0 c 9.572,7.047 16.131,18.01 16.9,30.595 5.685,-2.832 11.984,-4.326 18.377,-4.326 8.17,0 15.936,2.664 22.588,7.047 l 26.092,0 c 4.277,0 7.752,3.488 7.752,7.767 l 0,41.994 c 4.715,9.213 5.953,19.61 3.275,29.458 -0.777,2.914 -1.922,5.652 -3.275,8.275 l 0,31.154 c 5.824,11.477 6.248,25.365 0,37.545 l 0,93.26 c 0,4.278 -3.475,7.767 -7.752,7.767 l -217.631,0 c -4.908,5.682 -11.479,9.912 -18.807,11.898 -3.232,0.881 -6.559,1.316 -9.883,1.316 -3.586,0 -7.104,-0.5 -10.494,-1.471 -0.439,1.688 -1.037,3.311 -1.664,4.908 -3.615,9.001 -10.594,16.234 -19.377,20.295 l 0,22.008 c -26.137,2.832 -46.613,24.768 -46.613,51.635 l 0,15.306 c 0,6.902 5.607,12.506 12.482,12.506 l 210.352,0 c 6.875,0 12.475,-5.603 12.475,-12.506 l 0,-15.306 c 0,-26.867 -20.471,-48.803 -46.607,-51.635 l 0,-25.64 135.768,0 c 22.637,0 41.072,-18.423 41.072,-41.082 l 0,-241.686 C 495.787,51.846 477.352,33.425 454.715,33.425 Z m -114.137,401.125 0,2.81 -185.353,0 0,-2.81 c 0,-14.991 12.207,-27.198 27.221,-27.198 l 130.91,0 c 15.021,0 27.222,12.207 27.222,27.198 z"
       id="path9"
       inkscape:connector-curvature="0" /><path
       d="m 255.377,86.873 c -2.484,-1.453 -5.328,-2.178 -8.15,-2.178 -1.424,0 -2.842,0.178 -4.23,0.549 -4.184,1.129 -7.719,3.85 -9.898,7.611 l -19.83,34.313 c -4.5,7.806 -1.855,17.768 5.975,22.287 l 14.971,8.631 c -0.195,1.347 -0.373,2.679 -0.553,4.021 2.922,2.631 5.57,5.554 7.559,9.048 l 15.775,27.295 c 5.055,8.792 6.377,18.996 3.728,28.885 -1.842,6.684 -5.361,12.618 -10.27,17.34 2.279,2.189 4.182,4.708 5.844,7.379 l 13.949,-8.048 c 6.25,4.755 12.885,8.986 20.248,12.067 l 0,16.818 c 0,8.993 7.314,16.289 16.324,16.289 l 39.623,0 c 8.992,0 16.305,-7.296 16.305,-16.289 l 0,-16.818 c 7.363,-3.081 14,-7.313 20.234,-12.067 l 14.914,8.591 c 2.506,1.443 5.332,2.188 8.17,2.188 1.391,0 2.779,-0.187 4.182,-0.551 4.166,-1.121 7.768,-3.857 9.918,-7.611 l 19.809,-34.319 c 4.506,-7.799 1.842,-17.783 -5.975,-22.288 l -14.963,-8.646 c 0.496,-3.857 1.209,-7.637 1.209,-11.634 0,-3.97 -0.713,-7.788 -1.209,-11.648 l 14.963,-8.631 c 3.779,-2.162 6.492,-5.732 7.588,-9.896 1.131,-4.189 0.549,-8.638 -1.613,-12.391 L 420.165,92.867 c -3.021,-5.232 -8.512,-8.17 -14.129,-8.17 -2.779,0 -5.57,0.702 -8.141,2.186 l -14.914,8.59 c -6.234,-4.762 -12.906,-8.992 -20.234,-12.059 l 0,-16.802 c 0,-9.009 -7.313,-16.324 -16.305,-16.324 l -39.623,0 c -9.01,0 -16.324,7.315 -16.324,16.324 l 0,16.801 c -7.344,3.066 -13.998,7.297 -20.248,12.059 l -14.87,-8.599 z m 71.252,23.678 c 32.633,0 59.174,26.546 59.174,59.183 0,32.64 -26.541,59.192 -59.174,59.192 -32.629,0 -59.174,-26.553 -59.174,-59.192 0,-32.637 26.545,-59.183 59.174,-59.183 z"
       id="path11"
       inkscape:connector-curvature="0" /><path
       d="m 174.018,326.558 0,-13.359 c 5.846,-2.432 11.111,-5.779 16.086,-9.576 l 11.82,6.806 c 1.98,1.163 4.195,1.761 6.471,1.761 1.115,0 2.23,-0.162 3.311,-0.443 3.311,-0.904 6.168,-3.077 7.861,-6.032 l 15.777,-27.252 c 3.568,-6.176 1.432,-14.111 -4.766,-17.674 l -11.867,-6.867 c 0.357,-3.063 0.904,-6.071 0.904,-9.229 0,-3.166 -0.547,-6.193 -0.904,-9.252 l 11.867,-6.846 c 2.973,-1.734 5.133,-4.553 6.055,-7.879 0.891,-3.336 0.387,-6.848 -1.289,-9.824 l -15.777,-27.237 c -2.369,-4.149 -6.73,-6.468 -11.203,-6.468 -2.215,0 -4.41,0.548 -6.439,1.735 l -11.82,6.821 c -4.975,-3.787 -10.256,-7.145 -16.086,-9.589 l 0,-13.32 c 0,-7.161 -5.795,-12.959 -12.949,-12.959 l -31.447,0 c -7.17,0 -12.951,5.798 -12.951,12.959 l 0,13.32 c -5.814,2.444 -11.127,5.802 -16.064,9.589 l -11.834,-6.836 c -1.973,-1.148 -4.184,-1.721 -6.428,-1.721 -1.129,0 -2.275,0.145 -3.391,0.443 -3.311,0.881 -6.117,3.037 -7.861,6.007 L 55.35,210.891 c -3.539,6.197 -1.438,14.119 4.746,17.703 l 11.883,6.846 c -0.354,3.059 -0.906,6.086 -0.906,9.252 0,3.157 0.553,6.166 0.906,9.218 l -11.883,6.855 c -6.184,3.567 -8.285,11.503 -4.746,17.696 l 15.742,27.252 c 1.744,2.955 4.551,5.128 7.861,6.032 1.1,0.281 2.23,0.443 3.342,0.443 2.279,0 4.49,-0.598 6.477,-1.761 l 11.805,-6.806 c 4.967,3.797 10.279,7.145 16.094,9.576 l 0,13.359 c 0,7.137 5.781,12.941 12.951,12.941 l 31.447,0 c 7.154,0.003 12.949,-5.802 12.949,-12.939 z m -64.387,-81.866 c 0,-19.739 16.002,-35.723 35.682,-35.723 19.764,0 35.764,15.983 35.764,35.723 0,19.705 -16,35.689 -35.764,35.689 -19.68,-10e-4 -35.682,-15.984 -35.682,-35.689 z"
       id="path13"
       inkscape:connector-curvature="0" /></g><g
     id="g15"
     transform="matrix(0.02420389,0,0,0.02420389,0,-30.615947)" /><g
     id="g17"
     transform="matrix(0.02420389,0,0,0.02420389,0,-30.615947)" /><g
     id="g19"
     transform="matrix(0.02420389,0,0,0.02420389,0,-30.615947)" /><g
     id="g21"
     transform="matrix(0.02420389,0,0,0.02420389,0,-30.615947)" /><g
     id="g23"
     transform="matrix(0.02420389,0,0,0.02420389,0,-30.615947)" /><g
     id="g25"
     transform="matrix(0.02420389,0,0,0.02420389,0,-30.615947)" /><g
     id="g27"
     transform="matrix(0.02420389,0,0,0.02420389,0,-30.615947)" /><g
     id="g29"
     transform="matrix(0.02420389,0,0,0.02420389,0,-30.615947)" /><g
     id="g31"
     transform="matrix(0.02420389,0,0,0.02420389,0,-30.615947)" /><g
     id="g33"
     transform="matrix(0.02420389,0,0,0.02420389,0,-30.615947)" /><g
     id="g35"
     transform="matrix(0.02420389,0,0,0.02420389,0,-30.615947)" /><g
     id="g37"
     transform="matrix(0.02420389,0,0,0.02420389,0,-30.615947)" /><g
     id="g39"
     transform="matrix(0.02420389,0,0,0.02420389,0,-30.615947)" /><g
     id="g41"
     transform="matrix(0.02420389,0,0,0.02420389,0,-30.615947)" /><g
     id="g43"
     transform="matrix(0.02420389,0,0,0.02420389,0,-30.615947)" /></svg>