<svg xmlns="http://www.w3.org/2000/svg" width="14" height="14" viewBox="0 0 14 14"><path d="M 7.1322891,0.68455288 C 6.5833999,0.67845604 6.096839,0.94873877 5.6564903,1.3390127 5.2161416,1.7292867 4.8068337,2.2511973 4.4157725,2.7951218 3.6336512,3.8829713 2.9435478,5.0928687 2.573005,5.6987314 2.2024622,6.304594 1.4204404,7.4914858 0.81118121,8.6786364 0.50655158,9.2722117 0.24347415,9.8599304 0.10158368,10.421655 c -0.14189046,0.561724 -0.18247965,1.113775 0.0865169,1.577515 0.26899654,0.46374 0.7694209,0.720665 1.33833778,0.895119 0.5689168,0.174455 1.2233501,0.258563 1.9049227,0.314824 1.3631463,0.112523 2.8037563,0.06816 3.5304175,0.07623 0.7266601,0.0081 2.1960137,0.09612 3.5614624,0.01391 0.682724,-0.04111 1.355303,-0.127331 1.928196,-0.289103 0.572893,-0.161771 1.049541,-0.380571 1.329434,-0.838214 0.279892,-0.457643 0.281552,-1.016015 0.152983,-1.580743 C 13.805285,10.026461 13.528006,9.4053991 13.237494,8.805213 12.656469,7.6048408 11.905962,6.4393054 11.549844,5.825371 11.193727,5.211437 10.53855,3.9515414 9.7823606,2.8466049 9.4042653,2.2941364 9.0102881,1.761479 8.5792849,1.3615261 8.1482816,0.96157321 7.6811782,0.69064982 7.1322891,0.68455288 z M 7.095714,1.4743864 c 0.2016463,0.00224 0.5444243,0.1672823 0.9014633,0.4985992 0.3570389,0.3313169 0.7302038,0.7922946 1.0888661,1.3163682 0.7173246,1.0481474 1.3713316,2.2782822 1.7508506,2.9325585 0.379518,0.6542763 1.119854,1.7949563 1.671017,2.9336345 0.275581,0.5693387 0.475646,1.1494512 0.582151,1.6172662 0.106505,0.467815 0.0851,0.822658 -0.01772,0.990784 -0.102825,0.168125 -0.396928,0.342055 -0.871507,0.476065 -0.474578,0.134009 -1.10537,0.216793 -1.753006,0.255787 -1.29527,0.07799 -2.6750627,0.0087 -3.4494734,6.3e-5 C 6.2239429,12.48691 4.8087001,12.509899 3.5156142,12.40316 2.8690707,12.34979 2.2582762,12.276907 1.7869913,12.132391 1.3157065,11.987875 0.99987302,11.772994 0.90105067,11.602628 0.80222828,11.432263 0.78570969,11.108335 0.90324965,10.643008 1.0207896,10.177682 1.2617835,9.5877128 1.5507568,9.0246449 2.1287025,7.8985088 2.9187987,6.7677857 3.3136909,6.1221113 3.7085831,5.476437 4.3513344,4.2977241 5.0932578,3.2657853 5.4642195,2.749816 5.8594277,2.2737504 6.2242073,1.9504512 6.5889868,1.6271521 6.8940678,1.4721467 7.095714,1.4743864 z"/></svg>