<svg xmlns="http://www.w3.org/2000/svg" id="libre-brand-last-fm" viewBox="0 0 14 14"><path d="m 11.14202,0.99962 -8.284015,0 C 1.832422,0.99962 1,1.83202 1,2.85813 l 0,8.28402 c 0,1.02583 0.832397,1.85823 1.858005,1.85823 l 8.283762,0 C 12.168386,13.00038 13,12.16798 13,11.14215 L 13,2.85813 C 13,1.8323 12.168361,0.99962 11.141995,0.99962 Z m 1.389937,7.57521 c -0.171192,0.9299 -1.083515,1.8572 -2.259077,1.73386 C 8.668821,10.13906 7.571341,7.45303 7.448535,7.14247 6.737404,5.2656 5.959025,4.50017 4.76278,4.50017 c -1.391225,0 -2.5231,1.13109 -2.5231,2.52181 0,1.3907 1.13185,2.52204 2.5231,2.52204 0.791562,0 1.521556,-0.36074 2.003312,-0.9904 l 0.637417,0.48796 c -0.635371,0.82879 -1.597847,1.30461 -2.640755,1.30461 -1.833939,0 -3.324712,-1.49054 -3.324712,-3.32421 0,-1.83315 1.491051,-3.32395 3.324712,-3.32395 1.983666,0 2.878918,1.68939 3.434387,3.15534 0.258846,0.65784 1.210463,2.55696 2.160287,2.6578 C 11.0528,9.58387 11.63567,9.01052 11.742971,8.42922 11.842011,7.89446 11.520591,7.49932 10.838148,7.31856 9.101181,6.85673 8.517024,5.8544 8.550131,5.07163 8.580381,4.37418 9.078958,3.82263 9.791124,3.69619 11.172021,3.45181 11.767037,4.31835 11.889086,4.81096 L 11.109948,5.00362 C 11.102448,4.97542 10.926332,4.3106 9.932315,4.48618 9.592003,4.54648 9.365204,4.78899 9.352047,5.10552 c -0.01914,0.45097 0.41246,1.09851 1.692495,1.43779 1.309001,0.34728 1.626813,1.27693 1.48744,2.03149 z"/></svg>