<?xml version="1.0" encoding="UTF-8" standalone="no"?>
<svg
   xmlns:dc="http://purl.org/dc/elements/1.1/"
   xmlns:cc="http://creativecommons.org/ns#"
   xmlns:rdf="http://www.w3.org/1999/02/22-rdf-syntax-ns#"
   xmlns:svg="http://www.w3.org/2000/svg"
   xmlns="http://www.w3.org/2000/svg"
   xmlns:sodipodi="http://sodipodi.sourceforge.net/DTD/sodipodi-0.dtd"
   xmlns:inkscape="http://www.inkscape.org/namespaces/inkscape"
   width="14"
   height="14"
   viewBox="0 0 14 14"
   id="svg2"
   version="1.1"
   inkscape:version="0.48.4 r9939"
   sodipodi:docname="libre-file-audio.svg">
  <metadata
     id="metadata10">
    <rdf:RDF>
      <cc:Work
         rdf:about="">
        <dc:format>image/svg+xml</dc:format>
        <dc:type
           rdf:resource="http://purl.org/dc/dcmitype/StillImage" />
      </cc:Work>
    </rdf:RDF>
  </metadata>
  <defs
     id="defs8" />
  <sodipodi:namedview
     pagecolor="#ffffff"
     bordercolor="#666666"
     borderopacity="1"
     objecttolerance="10"
     gridtolerance="10"
     guidetolerance="10"
     inkscape:pageopacity="0"
     inkscape:pageshadow="2"
     inkscape:window-width="1920"
     inkscape:window-height="1030"
     id="namedview6"
     showgrid="false"
     inkscape:zoom="1.4642958"
     inkscape:cx="-23.696827"
     inkscape:cy="7.1864727"
     inkscape:window-x="0"
     inkscape:window-y="0"
     inkscape:window-maximized="1"
     inkscape:current-layer="svg2" />
  <path
     d="m 11.687505,3.544643 q 0.1875,0.1875 0.32143,0.508928 0.13392,0.321429 0.13392,0.589286 v 7.714286 q 0,0.267857 -0.1875,0.455357 Q 11.767855,13 11.500005,13 h -9 q -0.26786,0 -0.45536,-0.1875 -0.1875,-0.1875 -0.1875,-0.455357 V 1.642857 Q 1.857145,1.375 2.044645,1.1875 2.232145,1 2.500005,1 h 6 q 0.26785,0 0.58928,0.133928 0.32143,0.133929 0.50893,0.321429 z M 8.714285,1.910714 v 2.517857 h 2.51786 q -0.067,-0.194196 -0.14732,-0.274553 L 8.988845,2.058035 q -0.0804,-0.08036 -0.27456,-0.147321 z m 2.57143,10.232143 V 5.285714 h -2.78571 q -0.26786,0 -0.45536,-0.1875 -0.1875,-0.1875 -0.1875,-0.455357 V 1.857143 h -5.14286 v 10.285714 h 8.57143 z M 6.008935,6.691965 q 0.13392,0.05357 0.13392,0.200892 v 3.642857 q 0,0.147321 -0.13392,0.200893 -0.0536,0.01339 -0.0804,0.01339 -0.0804,0 -0.15402,-0.06027 L 4.662905,9.571424 h -0.87723 q -0.0937,0 -0.15402,-0.06027 -0.0603,-0.06027 -0.0603,-0.154018 V 8.071422 q 0,-0.09375 0.0603,-0.154018 0.0603,-0.06027 0.15402,-0.06027 h 0.87723 L 5.774515,6.73883 q 0.10714,-0.100446 0.23438,-0.04687 z m 2.79241,4.613839 q 0.20759,0 0.33482,-0.160715 0.86384,-1.064732 0.86384,-2.430803 0,-1.366072 -0.86384,-2.430804 -0.10714,-0.140625 -0.28795,-0.160714 -0.1808,-0.02009 -0.31473,0.09375 -0.14063,0.113839 -0.15737,0.291295 -0.0167,0.177455 0.0971,0.31808 0.66964,0.823661 0.66964,1.888393 0,1.064732 -0.66964,1.888392 -0.11384,0.140625 -0.0971,0.318081 0.0167,0.177455 0.15737,0.284598 0.12054,0.100447 0.26786,0.100447 z m -1.41295,-0.991072 q 0.1808,0 0.31473,-0.133928 0.58259,-0.622769 0.58259,-1.466518 0,-0.84375 -0.58259,-1.466518 -0.12053,-0.127232 -0.30134,-0.133929 -0.1808,-0.0067 -0.30803,0.113839 -0.12724,0.120536 -0.13393,0.297991 -0.007,0.177456 0.12053,0.311385 0.34822,0.381696 0.34822,0.877232 0,0.495535 -0.34822,0.877232 -0.12723,0.133928 -0.12053,0.311384 0.007,0.177455 0.13393,0.297991 0.13393,0.113839 0.29464,0.113839 z"
     id="path4"
     inkscape:connector-curvature="0" />
</svg>
