<?xml version="1.0" encoding="UTF-8" standalone="no"?>
<svg
   xmlns:dc="http://purl.org/dc/elements/1.1/"
   xmlns:cc="http://creativecommons.org/ns#"
   xmlns:rdf="http://www.w3.org/1999/02/22-rdf-syntax-ns#"
   xmlns:svg="http://www.w3.org/2000/svg"
   xmlns="http://www.w3.org/2000/svg"
   xmlns:sodipodi="http://sodipodi.sourceforge.net/DTD/sodipodi-0.dtd"
   xmlns:inkscape="http://www.inkscape.org/namespaces/inkscape"
   width="14"
   height="14"
   viewBox="0 0 14 14"
   id="svg2"
   version="1.1"
   inkscape:version="0.48.4 r9939"
   sodipodi:docname="libre-indent.svg">
  <metadata
     id="metadata10">
    <rdf:RDF>
      <cc:Work
         rdf:about="">
        <dc:format>image/svg+xml</dc:format>
        <dc:type
           rdf:resource="http://purl.org/dc/dcmitype/StillImage" />
      </cc:Work>
    </rdf:RDF>
  </metadata>
  <defs
     id="defs8" />
  <sodipodi:namedview
     pagecolor="#ffffff"
     bordercolor="#666666"
     borderopacity="1"
     objecttolerance="10"
     gridtolerance="10"
     guidetolerance="10"
     inkscape:pageopacity="0"
     inkscape:pageshadow="2"
     inkscape:window-width="1920"
     inkscape:window-height="1030"
     id="namedview6"
     showgrid="false"
     inkscape:zoom="1.0814295"
     inkscape:cx="627.96623"
     inkscape:cy="1024"
     inkscape:window-x="0"
     inkscape:window-y="0"
     inkscape:window-maximized="1"
     inkscape:current-layer="svg2" />
  <path
     d="m 3.35714,7 q 0,0.0937 -0.0603,0.15402 L 1.368274,9.08259 q -0.06027,0.0603 -0.154018,0.0603 -0.08705,0 -0.15067,-0.0636 Q 1,9.01563 1,8.92858 V 5.07143 q 0,-0.087 0.06362,-0.15067 0.06362,-0.0636 0.15067,-0.0636 0.09375,0 0.154018,0.0603 l 1.928566,1.92858 q 0.0603,0.0603 0.0603,0.15401 z M 13,10.21429 V 11.5 q 0,0.0871 -0.0636,0.15067 -0.0636,0.0636 -0.15067,0.0636 H 1.214286 q -0.08705,0 -0.15067,-0.0636 Q 1,11.58706 1,11.5 v -1.28571 q 0,-0.0871 0.06362,-0.15067 0.06362,-0.0636 0.15067,-0.0636 h 11.571424 q 0.0871,0 0.15067,0.0636 0.0636,0.0636 0.0636,0.15067 z m 0,-2.57143 v 1.28572 q 0,0.087 -0.0636,0.15067 -0.0636,0.0636 -0.15067,0.0636 H 5.5 q -0.0871,0 -0.15067,-0.0636 -0.0636,-0.0636 -0.0636,-0.15067 V 7.64286 q 0,-0.087 0.0636,-0.15067 Q 5.41293,7.42859 5.5,7.42859 h 7.28571 q 0.0871,0 0.15067,0.0636 0.0636,0.0636 0.0636,0.15067 z m 0,-2.57143 v 1.28572 q 0,0.087 -0.0636,0.15067 -0.0636,0.0636 -0.15067,0.0636 H 5.5 q -0.0871,0 -0.15067,-0.0636 -0.0636,-0.0636 -0.0636,-0.15067 V 5.07143 q 0,-0.087 0.0636,-0.15067 Q 5.41293,4.85716 5.5,4.85716 h 7.28571 q 0.0871,0 0.15067,0.0636 0.0636,0.0636 0.0636,0.15067 z M 13,2.5 v 1.28572 q 0,0.0871 -0.0636,0.15067 -0.0636,0.0636 -0.15067,0.0636 H 1.214286 q -0.08705,0 -0.15067,-0.0636 Q 1,3.87277 1,3.78572 V 2.5 Q 1,2.4129 1.06362,2.34933 1.12724,2.28573 1.21429,2.28573 h 11.571424 q 0.0871,0 0.15067,0.0636 0.0636,0.0636 0.0636,0.15067 z"
     id="path4"
     inkscape:connector-curvature="0" />
</svg>
