<svg xmlns="http://www.w3.org/2000/svg" width="14" height="14" viewBox="0 0 14 14"><g transform="matrix(0.00648649,0,0,0.00648649,0.35783424,13.434598)"><path transform="matrix(58.333333,0,0,58.333333,126.25765,-2087.182)" d="M 28,16 28,8 20,8 z"/><path transform="matrix(58.333333,0,0,58.333333,56.141118,-2277.4983)" d="M 12,24 4,16 4,24 z"/><path d="M 1825.6667,-837.83333 V -1639.5 q 0,-12.5261 -9.1537,-21.6797 -9.1536,-9.1537 -21.6797,-9.1537 H 253.16667 q -12.52605,0 -21.67969,9.1537 -9.15365,9.1536 -9.15365,21.6797 v 801.66667 q 0,12.526 9.15365,21.6797 9.15364,9.1536 21.67969,9.1536 H 1794.8333 q 12.5261,0 21.6797,-9.1536 9.1537,-9.1537 9.1537,-21.6797 z M 1949,-1639.5 v 1048.3334 q 0,63.5937 -45.2865,108.8802 Q 1858.4271,-437 1794.8333,-437 h -524.1666 q 0,35.6511 15.4166,74.6745 15.4167,39.0235 30.8334,68.4115 15.4166,29.388 15.4166,41.914 0,25.0521 -18.3073,43.3594 -18.3073,18.3073 -43.3593,18.3073 H 777.33333 q -25.05208,0 -43.35937,-18.3073 -18.30729,-18.3073 -18.30729,-43.3594 0,-13.4895 15.41666,-42.3958 Q 746.5,-323.302 761.91667,-361.8437 777.33333,-400.3854 777.33333,-437 H 253.16667 q -63.59375,0 -108.88021,-45.2864 Q 99,-527.5729 99,-591.1666 V -1639.5 q 0,-63.5938 45.28646,-108.8802 45.28646,-45.2865 108.88021,-45.2865 H 1794.8333 q 63.5938,0 108.8802,45.2865 Q 1949,-1703.0938 1949,-1639.5 z"/></g></svg>