<?xml version="1.0" encoding="UTF-8" standalone="no"?>
<!-- Generated by IcoMoon.io -->

<svg
   xmlns:dc="http://purl.org/dc/elements/1.1/"
   xmlns:cc="http://creativecommons.org/ns#"
   xmlns:rdf="http://www.w3.org/1999/02/22-rdf-syntax-ns#"
   xmlns:svg="http://www.w3.org/2000/svg"
   xmlns="http://www.w3.org/2000/svg"
   xmlns:sodipodi="http://sodipodi.sourceforge.net/DTD/sodipodi-0.dtd"
   xmlns:inkscape="http://www.inkscape.org/namespaces/inkscape"
   version="1.1"
   width="14"
   height="14"
   viewBox="0 0 14 14"
   id="svg2"
   inkscape:version="0.48.4 r9939"
   sodipodi:docname="libre-user.svg">
  <metadata
     id="metadata10">
    <rdf:RDF>
      <cc:Work
         rdf:about="">
        <dc:format>image/svg+xml</dc:format>
        <dc:type
           rdf:resource="http://purl.org/dc/dcmitype/StillImage" />
      </cc:Work>
    </rdf:RDF>
  </metadata>
  <defs
     id="defs8" />
  <sodipodi:namedview
     pagecolor="#ffffff"
     bordercolor="#666666"
     borderopacity="1"
     objecttolerance="10"
     gridtolerance="10"
     guidetolerance="10"
     inkscape:pageopacity="0"
     inkscape:pageshadow="2"
     inkscape:window-width="1920"
     inkscape:window-height="1030"
     id="namedview6"
     showgrid="false"
     inkscape:zoom="29.208518"
     inkscape:cx="7.0456741"
     inkscape:cy="14"
     inkscape:window-x="0"
     inkscape:window-y="0"
     inkscape:window-maximized="1"
     inkscape:current-layer="svg2" />
  <path
     d="m 12.5,10.9765 q 0,0.9375 -0.5705,1.4805 Q 11.359,13 10.414,13 H 3.586 Q 2.6405,13 2.0705,12.457 1.5005,11.914 1.5,10.9765 1.5,10.5625 1.5275,10.168 1.555,9.7735 1.637,9.3165 1.719,8.8595 1.844,8.469 1.969,8.0785 2.18,7.7075 2.391,7.3365 2.6645,7.0745 2.938,6.8125 3.3325,6.6565 3.727,6.5005 4.2035,6.5 4.274,6.5 4.5315,6.668 4.789,6.836 5.1135,7.043 5.438,7.25 5.957,7.418 6.476,7.586 7,7.586 7.524,7.586 8.043,7.418 8.562,7.25 8.8865,7.043 9.211,6.836 9.4685,6.668 9.726,6.5 9.7965,6.5 q 0.4765,0 0.871,0.1565 0.3945,0.1565 0.668,0.418 0.2735,0.2615 0.4845,0.633 0.211,0.3715 0.336,0.7615 0.125,0.39 0.207,0.8475 0.082,0.4575 0.1095,0.8515 Q 12.5,10.562 12.5,10.9765 z M 10,4 Q 10,5.242 9.121,6.121 8.242,7 7,7 5.758,7 4.879,6.121 4,5.242 4,4 4,2.758 4.879,1.879 5.758,1 7,1 8.242,1 9.121,1.879 10,2.758 10,4 z"
     id="path4"
     style="fill:#000000"
     inkscape:connector-curvature="0" />
</svg>
