<?xml version="1.0" encoding="UTF-8" standalone="no"?>
<svg
   xmlns:dc="http://purl.org/dc/elements/1.1/"
   xmlns:cc="http://creativecommons.org/ns#"
   xmlns:rdf="http://www.w3.org/1999/02/22-rdf-syntax-ns#"
   xmlns:svg="http://www.w3.org/2000/svg"
   xmlns="http://www.w3.org/2000/svg"
   xmlns:sodipodi="http://sodipodi.sourceforge.net/DTD/sodipodi-0.dtd"
   xmlns:inkscape="http://www.inkscape.org/namespaces/inkscape"
   width="14"
   height="14"
   viewBox="0 0 14 14"
   id="svg2"
   version="1.1"
   inkscape:version="0.48.4 r9939"
   sodipodi:docname="libre-paint-brush.svg">
  <metadata
     id="metadata10">
    <rdf:RDF>
      <cc:Work
         rdf:about="">
        <dc:format>image/svg+xml</dc:format>
        <dc:type
           rdf:resource="http://purl.org/dc/dcmitype/StillImage" />
      </cc:Work>
    </rdf:RDF>
  </metadata>
  <defs
     id="defs8" />
  <sodipodi:namedview
     pagecolor="#ffffff"
     bordercolor="#666666"
     borderopacity="1"
     objecttolerance="10"
     gridtolerance="10"
     guidetolerance="10"
     inkscape:pageopacity="0"
     inkscape:pageshadow="2"
     inkscape:window-width="1920"
     inkscape:window-height="1030"
     id="namedview6"
     showgrid="false"
     inkscape:zoom="1.0814295"
     inkscape:cx="627.96623"
     inkscape:cy="1024"
     inkscape:window-x="0"
     inkscape:window-y="0"
     inkscape:window-maximized="1"
     inkscape:current-layer="svg2" />
  <path
     d="m 11.821425,1 q 0.46875,0 0.82031,0.311384 0.35157,0.311384 0.35157,0.780134 0,0.421875 -0.30134,1.01116 -2.22322,4.212054 -3.11384,5.035715 -0.64956,0.609375 -1.45982,0.609375 -0.84375,0 -1.44978,-0.61942 -0.60603,-0.61942 -0.60603,-1.469866 0,-0.857143 0.61608,-1.419643 l 4.27232,-3.877232 Q 11.345985,1 11.821425,1 z m -6.08705,6.924107 q 0.26116,0.508928 0.71317,0.870536 0.45201,0.361607 1.00781,0.508928 l 0.007,0.475447 q 0.0268,1.426339 -0.86719,2.32366 Q 5.700895,13 4.261155,13 q -0.82366,0 -1.45982,-0.311384 -0.63616,-0.311384 -1.0212,-0.853795 -0.38505,-0.54241 -0.57924,-1.225446 -0.1942,-0.683036 -0.1942,-1.473214 0.0469,0.03348 0.27455,0.200893 0.22768,0.16741 0.41518,0.29799 0.1875,0.130581 0.39509,0.24442 0.20759,0.113839 0.30804,0.113839 0.27455,0 0.3683,-0.247767 0.16741,-0.441965 0.38505,-0.753349 0.21763,-0.311383 0.4654,-0.508928 0.24776,-0.197545 0.58928,-0.31808 0.34152,-0.120536 0.68974,-0.170759 0.34821,-0.05022 0.83705,-0.07031 z"
     id="path4"
     inkscape:connector-curvature="0" />
</svg>
