<?xml version="1.0" encoding="UTF-8" standalone="no"?>
<!-- Generator: Adobe Illustrator 16.0.0, SVG Export Plug-In . SVG Version: 6.00 Build 0)  -->

<svg
   xmlns:dc="http://purl.org/dc/elements/1.1/"
   xmlns:cc="http://creativecommons.org/ns#"
   xmlns:rdf="http://www.w3.org/1999/02/22-rdf-syntax-ns#"
   xmlns:svg="http://www.w3.org/2000/svg"
   xmlns="http://www.w3.org/2000/svg"
   xmlns:sodipodi="http://sodipodi.sourceforge.net/DTD/sodipodi-0.dtd"
   xmlns:inkscape="http://www.inkscape.org/namespaces/inkscape"
   version="1.1"
   id="Artwork"
   x="0px"
   y="0px"
   width="14"
   height="14"
   viewBox="0 0 14 14"
   enable-background="new 0 0 512 512"
   xml:space="preserve"
   inkscape:version="0.48.4 r9939"
   sodipodi:docname="libre-home.svg"><metadata
     id="metadata13"><rdf:RDF><cc:Work
         rdf:about=""><dc:format>image/svg+xml</dc:format><dc:type
           rdf:resource="http://purl.org/dc/dcmitype/StillImage" /></cc:Work></rdf:RDF></metadata><defs
     id="defs11" /><sodipodi:namedview
     pagecolor="#ffffff"
     bordercolor="#666666"
     borderopacity="1"
     objecttolerance="10"
     gridtolerance="10"
     guidetolerance="10"
     inkscape:pageopacity="0"
     inkscape:pageshadow="2"
     inkscape:window-width="1920"
     inkscape:window-height="1030"
     id="namedview9"
     showgrid="false"
     inkscape:zoom="0.76468616"
     inkscape:cx="965.87274"
     inkscape:cy="1270.7836"
     inkscape:window-x="0"
     inkscape:window-y="0"
     inkscape:window-maximized="1"
     inkscape:current-layer="Artwork" /><g
     id="g3"
     transform="matrix(0.02475842,0,0,0.02475842,0.68858686,0.74107081)"><path
       d="m 278.478,113.418 c -6.144,-7.192 -15.125,-11.341 -24.581,-11.341 -9.459,0 -18.441,4.148 -24.579,11.341 L 91.415,275.058 c -8.561,10.03 -12.247,23.341 -10.062,36.348 l 25.033,149.316 c 2.611,15.567 16.082,26.878 31.865,26.878 H 258.52 c -0.036,-0.566 0.046,-0.776 0.046,-1.27 V 377.912 c 0,-7.038 5.599,-12.821 12.637,-12.821 h 57.941 c 7.044,0 12.792,5.784 12.792,12.821 V 487.6 h 27.607 c 15.785,0 29.259,-11.311 31.866,-26.878 l 25.032,-149.357 c 2.186,-13.012 -1.5,-26.277 -10.066,-36.307 L 278.478,113.418 z M 221.127,416.43 c 0,7.044 -5.712,12.756 -12.75,12.756 h -44.261 c -7.044,0 -12.75,-5.712 -12.75,-12.756 v -44.261 c 0,-7.038 5.707,-12.75 12.75,-12.75 h 44.261 c 7.038,0 12.75,5.712 12.75,12.75 v 44.261 z"
       id="path5"
       inkscape:connector-curvature="0" /><path
       d="M 490.382,237.491 319.082,46.958 c -16.6,-18.457 -40.409,-29.294 -65.18,-28.95 -24.822,0.063 -48.533,10.725 -65.036,29.264 L 19.371,237.589 c -9.855,11.074 -8.869,28.029 2.19,37.885 5.121,4.556 11.491,6.792 17.84,6.792 7.383,0 14.745,-3.033 20.046,-8.992 l 169.5,-190.22 c 6.37,-7.157 15.506,-11.192 25.083,-11.192 0.026,0 0.062,0 0.082,0 9.548,0 18.679,3.969 25.063,11.069 L 450.48,273.418 c 9.903,11.039 26.884,11.907 37.891,1.99 11.019,-9.902 11.918,-26.889 2.011,-37.917 z"
       id="path7"
       inkscape:connector-curvature="0" /></g></svg>