<?xml version="1.0" encoding="UTF-8" standalone="no"?>
<svg
   xmlns:dc="http://purl.org/dc/elements/1.1/"
   xmlns:cc="http://creativecommons.org/ns#"
   xmlns:rdf="http://www.w3.org/1999/02/22-rdf-syntax-ns#"
   xmlns:svg="http://www.w3.org/2000/svg"
   xmlns="http://www.w3.org/2000/svg"
   xmlns:sodipodi="http://sodipodi.sourceforge.net/DTD/sodipodi-0.dtd"
   xmlns:inkscape="http://www.inkscape.org/namespaces/inkscape"
   width="14"
   height="14"
   viewBox="0 0 14 14"
   id="svg2"
   version="1.1"
   inkscape:version="0.48.4 r9939"
   sodipodi:docname="libre-sliders.svg">
  <metadata
     id="metadata10">
    <rdf:RDF>
      <cc:Work
         rdf:about="">
        <dc:format>image/svg+xml</dc:format>
        <dc:type
           rdf:resource="http://purl.org/dc/dcmitype/StillImage" />
      </cc:Work>
    </rdf:RDF>
  </metadata>
  <defs
     id="defs8" />
  <sodipodi:namedview
     pagecolor="#ffffff"
     bordercolor="#666666"
     borderopacity="1"
     objecttolerance="10"
     gridtolerance="10"
     guidetolerance="10"
     inkscape:pageopacity="0"
     inkscape:pageshadow="2"
     inkscape:window-width="1920"
     inkscape:window-height="1030"
     id="namedview6"
     showgrid="false"
     inkscape:zoom="1.0814295"
     inkscape:cx="627.96623"
     inkscape:cy="1024"
     inkscape:window-x="0"
     inkscape:window-y="0"
     inkscape:window-maximized="1"
     inkscape:current-layer="svg2" />
  <path
     d="m 3.75,10.5 v 1 H 1 v -1 H 3.75 z M 6.5,9.5 Q 6.70313,9.5 6.85156,9.64844 7,9.79687 7,10 v 2 Q 7,12.20313 6.85156,12.35156 6.70313,12.5 6.5,12.5 h -2 Q 4.29688,12.5 4.14844,12.35156 4,12.20313 4,12 V 10 Q 4,9.79687 4.14844,9.64844 4.29688,9.5 4.5,9.5 h 2 z m 1.25,-3 v 1 H 1 v -1 h 6.75 z m -5,-4 v 1 H 1 v -1 h 1.75 z m 10.25,8 v 1 H 7.25 v -1 H 13 z M 5.5,1.5 Q 5.70312,1.5 5.85156,1.64844 6,1.79688 6,2 V 4 Q 6,4.20312 5.85156,4.35156 5.70312,4.5 5.5,4.5 h -2 Q 3.29687,4.5 3.14844,4.35156 3,4.20312 3,4 V 2 Q 3,1.79688 3.14844,1.64844 3.29687,1.5 3.5,1.5 h 2 z m 5,4 q 0.20312,0 0.35156,0.14844 Q 11,5.79687 11,6 V 8 Q 11,8.20312 10.85156,8.35156 10.70312,8.5 10.5,8.5 h -2 Q 8.29688,8.5 8.14844,8.35156 8,8.20312 8,8 V 6 Q 8,5.79687 8.14844,5.64844 8.29688,5.5 8.5,5.5 h 2 z m 2.5,1 v 1 h -1.75 v -1 H 13 z m 0,-4 v 1 H 6.25 v -1 H 13 z"
     id="path4"
     inkscape:connector-curvature="0" />
</svg>
