<?xml version="1.0" encoding="UTF-8" standalone="no"?>
<svg
   xmlns:dc="http://purl.org/dc/elements/1.1/"
   xmlns:cc="http://creativecommons.org/ns#"
   xmlns:rdf="http://www.w3.org/1999/02/22-rdf-syntax-ns#"
   xmlns:svg="http://www.w3.org/2000/svg"
   xmlns="http://www.w3.org/2000/svg"
   xmlns:sodipodi="http://sodipodi.sourceforge.net/DTD/sodipodi-0.dtd"
   xmlns:inkscape="http://www.inkscape.org/namespaces/inkscape"
   width="14"
   height="14"
   viewBox="0 0 14 14"
   id="svg2"
   version="1.1"
   inkscape:version="0.48.4 r9939"
   sodipodi:docname="libre-crosshairs.svg">
  <metadata
     id="metadata10">
    <rdf:RDF>
      <cc:Work
         rdf:about="">
        <dc:format>image/svg+xml</dc:format>
        <dc:type
           rdf:resource="http://purl.org/dc/dcmitype/StillImage" />
      </cc:Work>
    </rdf:RDF>
  </metadata>
  <defs
     id="defs8" />
  <sodipodi:namedview
     pagecolor="#ffffff"
     bordercolor="#666666"
     borderopacity="1"
     objecttolerance="10"
     gridtolerance="10"
     guidetolerance="10"
     inkscape:pageopacity="0"
     inkscape:pageshadow="2"
     inkscape:window-width="1920"
     inkscape:window-height="1030"
     id="namedview6"
     showgrid="false"
     inkscape:zoom="48.939913"
     inkscape:cx="6.4156578"
     inkscape:cy="5.2063339"
     inkscape:window-x="0"
     inkscape:window-y="0"
     inkscape:window-maximized="1"
     inkscape:current-layer="svg2" />
  <path
     d="M 10.35156,8 H 9.5 Q 9.29688,8 9.14844,7.851563 9,7.703125 9,7.5 v -1 Q 9,6.296875 9.14844,6.148437 9.29688,6 9.5,6 h 0.85156 Q 10.10156,5.15625 9.47266,4.527344 8.84375,3.898437 8,3.648438 V 4.5 Q 8,4.703125 7.85156,4.851562 7.70312,5 7.5,5 h -1 Q 6.29688,5 6.14844,4.851562 6,4.703125 6,4.5 V 3.648438 Q 5.15625,3.898437 4.52734,4.527344 3.89844,5.15625 3.64844,6 H 4.5 Q 4.70313,6 4.85156,6.148437 5,6.296875 5,6.5 v 1 Q 5,7.703125 4.85156,7.851563 4.70313,8 4.5,8 H 3.64844 q 0.25,0.84375 0.8789,1.472656 Q 5.15625,10.101563 6,10.351562 V 9.5 Q 6,9.296875 6.14844,9.148437 6.29688,9 6.5,9 h 1 Q 7.70312,9 7.85156,9.148437 8,9.296875 8,9.5 v 0.851562 Q 8.84375,10.101563 9.47266,9.472656 10.10156,8.84375 10.35156,8 z M 13,6.5 v 1 Q 13,7.703125 12.85156,7.851563 12.70313,8 12.5,8 H 11.38281 Q 11.09375,9.257812 10.17578,10.175781 9.25781,11.09375 8,11.382813 V 12.5 Q 8,12.703125 7.85156,12.851563 7.70312,13 7.5,13 h -1 Q 6.29688,13 6.14844,12.851563 6,12.703125 6,12.5 V 11.382813 Q 4.74219,11.09375 3.82422,10.175781 2.90625,9.257812 2.61719,8 H 1.5 Q 1.296875,8 1.148437,7.851563 1,7.703125 1,7.5 v -1 Q 1,6.296875 1.148437,6.148437 1.296875,6 1.5,6 H 2.61719 Q 2.90625,4.742188 3.82422,3.824219 4.74219,2.90625 6,2.617187 V 1.5 Q 6,1.296875 6.14844,1.148437 6.29688,1 6.5,1 h 1 Q 7.70312,1 7.85156,1.148437 8,1.296875 8,1.5 V 2.617187 Q 9.25781,2.90625 10.17578,3.824219 11.09375,4.742188 11.38281,6 H 12.5 Q 12.70313,6 12.85156,6.148437 13,6.296875 13,6.5 z"
     id="path4"
     inkscape:connector-curvature="0" />
</svg>
