<svg xmlns="http://www.w3.org/2000/svg" id="libre-brand-digg" viewBox="0 0 14 14"><g transform="matrix(0.02525162,0,0,0.02525162,0.53585039,0.53547165)"><path d="m 71.045,215.481 39.025,0 0,75.776 -39.025,0 0,-75.776 z"/><path d="m 419.993,18.401 -328.048,0 c -40.633,0 -73.564,32.942 -73.564,73.564 l 0,328.079 c 0,40.601 32.932,73.564 73.564,73.564 l 328.038,0 c 40.653,0 73.615,-32.962 73.615,-73.564 l 0,-328.079 c 0.01,-40.612 -32.962,-73.564 -73.605,-73.564 z m -247.674,103.281 35.655,0 0,34.693 -35.656,0 0,-34.693 z m -25.743,187.822 0,18.279 -112.046,0 0,-148.849 75.54,0 0,-55.214 36.505,0 0,185.784 z m 61.859,16.333 -36.557,0 0,-140.862 36.557,0 0,140.862 z m 115.671,63.488 -93.543,0 0,-36.536 75.202,0 -0.45,-138.332 -38.236,-0.327 0,76.913 38.226,0 0,36.485 -74.782,0 0,-150.221 111.207,0.881 0.062,18.073 0.604,174.725 0.062,18.34 -18.35,0 z m 135.005,1.014 -93.553,0 0,-36.536 75.182,0 -0.45,-138.352 -38.216,-0.286 0,76.882 38.195,0 0,36.495 -74.752,0 0,-150.201 111.216,0.901 0.062,18.053 0.584,174.725 0.062,18.34 -18.329,0 z"/></g></svg>