<?xml version="1.0" encoding="UTF-8" standalone="no"?>
<!-- Generated by IcoMoon.io -->

<svg
   xmlns:dc="http://purl.org/dc/elements/1.1/"
   xmlns:cc="http://creativecommons.org/ns#"
   xmlns:rdf="http://www.w3.org/1999/02/22-rdf-syntax-ns#"
   xmlns:svg="http://www.w3.org/2000/svg"
   xmlns="http://www.w3.org/2000/svg"
   xmlns:sodipodi="http://sodipodi.sourceforge.net/DTD/sodipodi-0.dtd"
   xmlns:inkscape="http://www.inkscape.org/namespaces/inkscape"
   version="1.1"
   width="14"
   height="14"
   viewBox="0 0 14 14"
   id="svg2"
   inkscape:version="0.48.4 r9939"
   sodipodi:docname="libre-spinner-9.svg">
  <metadata
     id="metadata10">
    <rdf:RDF>
      <cc:Work
         rdf:about="">
        <dc:format>image/svg+xml</dc:format>
        <dc:type
           rdf:resource="http://purl.org/dc/dcmitype/StillImage" />
      </cc:Work>
    </rdf:RDF>
  </metadata>
  <defs
     id="defs8" />
  <sodipodi:namedview
     pagecolor="#ffffff"
     bordercolor="#666666"
     borderopacity="1"
     objecttolerance="10"
     gridtolerance="10"
     guidetolerance="10"
     inkscape:pageopacity="0"
     inkscape:pageshadow="2"
     inkscape:window-width="1920"
     inkscape:window-height="1030"
     id="namedview6"
     showgrid="false"
     inkscape:zoom="25.557453"
     inkscape:cx="11.48077"
     inkscape:cy="16"
     inkscape:window-x="0"
     inkscape:window-y="0"
     inkscape:window-maximized="1"
     inkscape:current-layer="svg2" />
  <path
     d="M 14,5.25 H 8.75 L 10.712187,3.2878125 C 9.720375,2.2964375 8.4021875,1.75 7,1.75 5.5978125,1.75 4.2791875,2.296 3.2878125,3.2878125 2.2964375,4.279625 1.75,5.5978125 1.75,7 1.75,8.4021875 2.296,9.7208125 3.2878125,10.712188 4.279625,11.703563 5.5978125,12.25 7,12.25 c 1.4021875,0 2.7208125,-0.546 3.712187,-1.537813 0.08269,-0.08269 0.162313,-0.167999 0.238875,-0.255062 L 12.267937,11.6095 C 10.98475,13.074688 9.100875,14 7,14 3.1338125,14 0,10.866187 0,7 0,3.1338125 3.1338125,0 7,0 8.932875,0 10.682875,0.7835625 11.949438,2.0505625 L 14,0 v 5.25 z"
     id="path4"
     style="fill:#000000"
     inkscape:connector-curvature="0" />
</svg>
