<?xml version="1.0" encoding="UTF-8" standalone="no"?>
<svg
   xmlns:dc="http://purl.org/dc/elements/1.1/"
   xmlns:cc="http://creativecommons.org/ns#"
   xmlns:rdf="http://www.w3.org/1999/02/22-rdf-syntax-ns#"
   xmlns:svg="http://www.w3.org/2000/svg"
   xmlns="http://www.w3.org/2000/svg"
   xmlns:sodipodi="http://sodipodi.sourceforge.net/DTD/sodipodi-0.dtd"
   xmlns:inkscape="http://www.inkscape.org/namespaces/inkscape"
   width="14"
   height="14"
   viewBox="0 0 14 14"
   id="svg2"
   version="1.1"
   inkscape:version="0.48.4 r9939"
   sodipodi:docname="libre-th-list.svg">
  <metadata
     id="metadata10">
    <rdf:RDF>
      <cc:Work
         rdf:about="">
        <dc:format>image/svg+xml</dc:format>
        <dc:type
           rdf:resource="http://purl.org/dc/dcmitype/StillImage" />
      </cc:Work>
    </rdf:RDF>
  </metadata>
  <defs
     id="defs8" />
  <sodipodi:namedview
     pagecolor="#ffffff"
     bordercolor="#666666"
     borderopacity="1"
     objecttolerance="10"
     gridtolerance="10"
     guidetolerance="10"
     inkscape:pageopacity="0"
     inkscape:pageshadow="2"
     inkscape:window-width="1920"
     inkscape:window-height="1030"
     id="namedview6"
     showgrid="false"
     inkscape:zoom="1.0814295"
     inkscape:cx="627.96623"
     inkscape:cy="1024"
     inkscape:window-x="0"
     inkscape:window-y="0"
     inkscape:window-maximized="1"
     inkscape:current-layer="svg2" />
  <path
     d="m 4.42857,9.785715 v 1.28571 q 0,0.26786 -0.1875,0.45536 -0.1875,0.1875 -0.45536,0.1875 H 1.642857 q -0.267857,0 -0.455357,-0.1875 Q 1,11.339285 1,11.071425 v -1.28571 q 0,-0.26786 0.1875,-0.45536 0.1875,-0.1875 0.455357,-0.1875 H 3.78571 q 0.26786,0 0.45536,0.1875 0.1875,0.1875 0.1875,0.45536 z m 0,-3.42857 v 1.28571 q 0,0.26786 -0.1875,0.45536 -0.1875,0.1875 -0.45536,0.1875 H 1.642857 Q 1.375,8.285715 1.1875,8.098215 1,7.910715 1,7.642855 v -1.28571 q 0,-0.26786 0.1875,-0.45536 0.1875,-0.1875 0.455357,-0.1875 H 3.78571 q 0.26786,0 0.45536,0.1875 0.1875,0.1875 0.1875,0.45536 z M 13,9.785715 v 1.28571 q 0,0.26786 -0.1875,0.45536 -0.1875,0.1875 -0.45536,0.1875 H 5.92857 q -0.26786,0 -0.45536,-0.1875 -0.1875,-0.1875 -0.1875,-0.45536 v -1.28571 q 0,-0.26786 0.1875,-0.45536 0.1875,-0.1875 0.45536,-0.1875 h 6.42857 q 0.26786,0 0.45536,0.1875 Q 13,9.517855 13,9.785715 z M 4.42857,2.928575 v 1.28571 q 0,0.26786 -0.1875,0.45536 -0.1875,0.1875 -0.45536,0.1875 H 1.642857 Q 1.375,4.857145 1.1875,4.669645 1,4.482145 1,4.214285 v -1.28571 q 0,-0.26786 0.1875,-0.45536 0.1875,-0.1875 0.455357,-0.1875 H 3.78571 q 0.26786,0 0.45536,0.1875 0.1875,0.1875 0.1875,0.45536 z M 13,6.357145 v 1.28571 q 0,0.26786 -0.1875,0.45536 -0.1875,0.1875 -0.45536,0.1875 H 5.92857 q -0.26786,0 -0.45536,-0.1875 -0.1875,-0.1875 -0.1875,-0.45536 v -1.28571 q 0,-0.26786 0.1875,-0.45536 0.1875,-0.1875 0.45536,-0.1875 h 6.42857 q 0.26786,0 0.45536,0.1875 Q 13,6.089285 13,6.357145 z m 0,-3.42857 v 1.28571 q 0,0.26786 -0.1875,0.45536 -0.1875,0.1875 -0.45536,0.1875 H 5.92857 q -0.26786,0 -0.45536,-0.1875 -0.1875,-0.1875 -0.1875,-0.45536 v -1.28571 q 0,-0.26786 0.1875,-0.45536 0.1875,-0.1875 0.45536,-0.1875 h 6.42857 q 0.26786,0 0.45536,0.1875 Q 13,2.660715 13,2.928575 z"
     id="path4"
     inkscape:connector-curvature="0" />
</svg>
