<?xml version="1.0" encoding="UTF-8" standalone="no"?>
<svg
   xmlns:dc="http://purl.org/dc/elements/1.1/"
   xmlns:cc="http://creativecommons.org/ns#"
   xmlns:rdf="http://www.w3.org/1999/02/22-rdf-syntax-ns#"
   xmlns:svg="http://www.w3.org/2000/svg"
   xmlns="http://www.w3.org/2000/svg"
   xmlns:sodipodi="http://sodipodi.sourceforge.net/DTD/sodipodi-0.dtd"
   xmlns:inkscape="http://www.inkscape.org/namespaces/inkscape"
   width="14"
   height="14"
   viewBox="0 0 14 14"
   id="svg2"
   version="1.1"
   inkscape:version="0.48.4 r9939"
   sodipodi:docname="libre-qrcode.svg">
  <metadata
     id="metadata10">
    <rdf:RDF>
      <cc:Work
         rdf:about="">
        <dc:format>image/svg+xml</dc:format>
        <dc:type
           rdf:resource="http://purl.org/dc/dcmitype/StillImage" />
      </cc:Work>
    </rdf:RDF>
  </metadata>
  <defs
     id="defs8" />
  <sodipodi:namedview
     pagecolor="#ffffff"
     bordercolor="#666666"
     borderopacity="1"
     objecttolerance="10"
     gridtolerance="10"
     guidetolerance="10"
     inkscape:pageopacity="0"
     inkscape:pageshadow="2"
     inkscape:window-width="1920"
     inkscape:window-height="1030"
     id="namedview6"
     showgrid="false"
     inkscape:zoom="1.0814295"
     inkscape:cx="627.96623"
     inkscape:cy="1024"
     inkscape:window-x="0"
     inkscape:window-y="0"
     inkscape:window-maximized="1"
     inkscape:current-layer="svg2" />
  <path
     d="m 4.27273,9.727272 v 1.09091 H 3.18182 v -1.09091 h 1.09091 z m 0,-6.545454 V 4.272727 H 3.18182 V 3.181818 h 1.09091 z m 6.54545,0 V 4.272727 H 9.72727 V 3.181818 h 1.09091 z m -8.72727,8.71875 H 5.36364 V 8.636363 H 2.09091 v 3.264205 z m 0,-6.536931 H 5.36364 V 2.090909 H 2.09091 v 3.272728 z m 6.54545,0 h 3.27273 V 2.090909 H 8.63636 V 5.363637 z M 6.45455,7.545454 V 13 H 1 V 7.545454 h 5.45455 z m 4.36363,4.363637 V 13 H 9.72727 v -1.090909 h 1.09091 z m 2.18182,0 V 13 H 11.90909 V 11.909091 H 13 z m 0,-4.363637 v 3.272728 H 9.72727 V 9.727272 H 8.63636 V 13 H 7.54545 V 7.545454 h 3.27273 v 1.090909 h 1.09091 V 7.545454 H 13 z M 6.45455,1 V 6.454546 H 1 V 1 H 6.45455 z M 13,1 V 6.454546 H 7.54545 V 1 H 13 z"
     id="path4"
     inkscape:connector-curvature="0" />
</svg>
