<?xml version="1.0" encoding="UTF-8" standalone="no"?>
<svg
   xmlns:dc="http://purl.org/dc/elements/1.1/"
   xmlns:cc="http://creativecommons.org/ns#"
   xmlns:rdf="http://www.w3.org/1999/02/22-rdf-syntax-ns#"
   xmlns:svg="http://www.w3.org/2000/svg"
   xmlns="http://www.w3.org/2000/svg"
   xmlns:sodipodi="http://sodipodi.sourceforge.net/DTD/sodipodi-0.dtd"
   xmlns:inkscape="http://www.inkscape.org/namespaces/inkscape"
   width="14"
   height="14"
   viewBox="0 0 14 14"
   id="svg2"
   version="1.1"
   inkscape:version="0.48.4 r9939"
   sodipodi:docname="libre-os-apple.svg">
  <metadata
     id="metadata10">
    <rdf:RDF>
      <cc:Work
         rdf:about="">
        <dc:format>image/svg+xml</dc:format>
        <dc:type
           rdf:resource="http://purl.org/dc/dcmitype/StillImage" />
      </cc:Work>
    </rdf:RDF>
  </metadata>
  <defs
     id="defs8" />
  <sodipodi:namedview
     pagecolor="#ffffff"
     bordercolor="#666666"
     borderopacity="1"
     objecttolerance="10"
     gridtolerance="10"
     guidetolerance="10"
     inkscape:pageopacity="0"
     inkscape:pageshadow="2"
     inkscape:window-width="1920"
     inkscape:window-height="1030"
     id="namedview6"
     showgrid="false"
     inkscape:zoom="0.39933521"
     inkscape:cx="734.76931"
     inkscape:cy="1024"
     inkscape:window-x="0"
     inkscape:window-y="0"
     inkscape:window-maximized="1"
     inkscape:current-layer="svg2" />
  <path
     d="m 12.022835,9.76202 q -0.28125,0.90144 -0.88702,1.80288 -0.93028,1.41347 -1.85336,1.41347 -0.35337,0 -1.00962,-0.23077 -0.62019,-0.23077 -1.08894,-0.23077 -0.4399,0 -1.02404,0.23798 Q 5.575725,13 5.207935,13 4.111785,13 3.037265,11.13221 1.977165,9.25 1.977165,7.50481 q 0,-1.64423 0.8149,-2.69712 0.8077,-1.03846 2.04808,-1.03846 0.51923,0 1.27644,0.21635 0.75,0.21634 0.9952,0.21634 0.32451,0 1.03125,-0.24519 0.73557,-0.24519 1.24759,-0.24519 0.85817,0 1.53606,0.46875 0.375,0.25961 0.75,0.72115 -0.56971,0.48318 -0.82212,0.85096 -0.46875,0.67789 -0.46875,1.49279 0,0.89423 0.4976,1.60818 0.4976,0.71394 1.13942,0.90865 z M 9.311295,1.30288 q 0,0.43991 -0.20913,0.98077 -0.21635,0.54087 -0.67067,0.9952 -0.38943,0.38942 -0.77885,0.51923 -0.26683,0.0793 -0.75,0.12259 0.0216,-1.07452 0.5625,-1.85336 Q 7.998795,1.29567 9.268035,1 q 0.007,0.0216 0.018,0.0793 0.0108,0.0577 0.018,0.0793 0,0.0289 0.004,0.0721 0.004,0.0433 0.004,0.0721 z"
     id="path4"
     inkscape:connector-curvature="0" />
</svg>
