<svg aria-labelledby="gui-border-outer" role="img" focusable="false" aria-hidden="true" xmlns="http://www.w3.org/2000/svg" viewBox="0 0 14 14"><path style="fill-rule:evenodd" d="M 1.6666667,13 1,13 1,1 1.6666667,1 13,1 13,1.6666667 13,12.333333 13,13 1.6666667,13 Z m 0.6666666,-1.333333 0,-9.3333337 9.3333337,0 0,9.3333337 -9.3333337,0 z M 9,6.333333 l 1.333333,0 0,1.333334 -1.333333,0 0,-1.333334 z m -2.6666667,0 1.3333334,0 0,1.333334 -1.3333334,0 0,-1.333334 z m -2.6666666,0 1.3333333,0 0,1.333334 -1.3333333,0 0,-1.333334 z m 2.6666666,-2.6666663 1.3333334,0 0,1.3333333 -1.3333334,0 0,-1.3333333 z m 0,5.3333333 1.3333334,0 0,1.333333 -1.3333334,0 0,-1.333333 z"/></svg>