<svg xmlns="http://www.w3.org/2000/svg" width="14" height="14" viewBox="0 0 14 14"><g transform="matrix(0.58244079,0,0,0.58244079,1.1680204,1)"><path d="m 13.985,18.875 c 0.021,-0.011 0.043,-0.021 0.064,-0.031 -0.008,-0.012 -0.016,-0.022 -0.023,-0.034 -0.012,0.019 -0.028,0.045 -0.041,0.065 z"/><path d="M 9.887,18.56 C 8.228,18.56 6.682,18.084 5.363,17.273 6.55,17.285 4.48,15.467 5.906,15.188 7.402,14.894 8.032,13.183 7.553,13.209 7.075,13.234 6.165,12.962 5.525,12.158 4.884,11.348 4.323,11.533 3.662,11.66 3.084,11.774 2.372,13.446 2.195,13.885 1.745,13.023 1.44,12.076 1.302,11.075 2.036,10.691 3.234,10.045 3.667,9.688 4.305,9.159 3.454,8.945 3.349,8.626 c -0.104,-0.319 0,-1.062 0,-1.8 C 3.349,6.081 4.835,6.081 5.362,5.34 5.741,4.811 5.047,3.644 4.614,3.012 6.077,1.886 7.903,1.209 9.887,1.209 c 0.526,0 1.039,0.055 1.54,0.145 0.147,0.914 0.453,2.171 1.044,2.499 0.957,0.53 2.115,1.697 2.543,1.907 0.426,0.212 0.953,2.018 0.849,2.76 -0.075,0.524 -0.725,1.101 -0.991,1.656 l 4.42,2.754 C 19.604,11.97 19.776,10.949 19.776,9.886 19.776,4.434 15.338,0 9.888,0 4.435,0 0,4.434 0,9.886 c 0,5.453 4.435,9.889 9.888,9.889 0.207,0 0.409,-0.019 0.613,-0.031 L 10.27,18.54 c -0.128,0.006 -0.254,0.02 -0.383,0.02 z m 8.569,-7.394 C 18.269,10.424 17.907,9.708 17.137,9.155 16.61,8.783 16.18,7.141 16.5,6.609 c 0.191,-0.317 0.688,-0.596 1.054,-0.77 0.641,1.209 1.007,2.585 1.007,4.047 0,0.436 -0.043,0.861 -0.105,1.28 z"/><path d="m 15.897,15.505 4.129,-0.823 -10.344,-6.445 -0.244,0.17 2.303,11.965 2.248,-3.557 2.18,3.176 c 0.414,0.598 1.174,0.791 1.701,0.43 0.524,-0.362 0.618,-1.142 0.207,-1.741 l -2.18,-3.175 z"/></g></svg>