<?xml version="1.0" encoding="UTF-8" standalone="no"?>
<!-- Generator: Adobe Illustrator 16.0.4, SVG Export Plug-In . SVG Version: 6.00 Build 0)  -->

<svg
   xmlns:dc="http://purl.org/dc/elements/1.1/"
   xmlns:cc="http://creativecommons.org/ns#"
   xmlns:rdf="http://www.w3.org/1999/02/22-rdf-syntax-ns#"
   xmlns:svg="http://www.w3.org/2000/svg"
   xmlns="http://www.w3.org/2000/svg"
   xmlns:sodipodi="http://sodipodi.sourceforge.net/DTD/sodipodi-0.dtd"
   xmlns:inkscape="http://www.inkscape.org/namespaces/inkscape"
   version="1.1"
   id="Layer_1"
   x="0px"
   y="0px"
   width="14"
   height="14"
   viewBox="0 0 14 14"
   enable-background="new 0 0 32 32"
   xml:space="preserve"
   inkscape:version="0.48.4 r9939"
   sodipodi:docname="libre-email-send.svg"><metadata
     id="metadata13"><rdf:RDF><cc:Work
         rdf:about=""><dc:format>image/svg+xml</dc:format><dc:type
           rdf:resource="http://purl.org/dc/dcmitype/StillImage" /></cc:Work></rdf:RDF></metadata><defs
     id="defs11" /><sodipodi:namedview
     pagecolor="#ffffff"
     bordercolor="#666666"
     borderopacity="1"
     objecttolerance="10"
     gridtolerance="10"
     guidetolerance="10"
     inkscape:pageopacity="0"
     inkscape:pageshadow="2"
     inkscape:window-width="1920"
     inkscape:window-height="1030"
     id="namedview9"
     showgrid="false"
     inkscape:zoom="0.27035738"
     inkscape:cx="1989.6471"
     inkscape:cy="704.95976"
     inkscape:window-x="0"
     inkscape:window-y="0"
     inkscape:window-maximized="1"
     inkscape:current-layer="Layer_1" /><g
     id="g3"
     transform="matrix(0.3772935,0,0,0.3772935,1.0001033,1.2997692)"><path
       d="M 1.285,11.671 C 0.6,11.934 0.114,12.55 0.017,13.277 c -0.096,0.728 0.213,1.449 0.806,1.88 L 7.315,19.881 30.374,1.74 9.985,21.826 18.86,28.284 c 0.565,0.411 1.293,0.534 1.964,0.33 0.67,-0.204 1.204,-0.712 1.444,-1.368 L 31.762,1.261 C 31.858,0.997 31.791,0.702 31.591,0.505 31.391,0.308 31.096,0.246 30.833,0.347 L 1.285,11.671 z"
       id="path5"
       inkscape:connector-curvature="0" /><path
       d="m 5.774,21.451 0.055,0.301 1.26,6.889 c 0.094,0.512 0.436,0.941 0.912,1.148 0.476,0.206 1.025,0.162 1.461,-0.119 1.755,-1.132 4.047,-2.634 3.985,-2.722 L 5.774,21.451 z"
       id="path7"
       inkscape:connector-curvature="0" /></g></svg>