<svg xmlns="http://www.w3.org/2000/svg" height="14" width="14" viewBox="0 0 14 14"><path d="m 5.15748,6.887355 -3.3870378,3.38704 q -0.072683,0.0727 -0.1671715,0.0727 -0.094488,0 -0.1671714,-0.0727 L 1.0726832,9.910975 Q 1,9.838295 1,9.743805 1,9.649305 1.072683,9.576635 L 3.929134,6.720185 1.0726832,3.863735 Q 1,3.791045 1,3.696555 1,3.602055 1.072683,3.529385 l 0.3634161,-0.36341 q 0.072683,-0.0727 0.1671714,-0.0727 0.094488,0 0.1671715,0.0727 l 3.387038,3.38703 q 0.07268,0.0727 0.07268,0.16718 0,0.0945 -0.07268,0.16717 z M 13,10.208975 l 0,0.46517 q 0,0.10176 -0.06542,0.16718 -0.06542,0.0654 -0.167171,0.0654 l -6.97759,0 q -0.101756,0 -0.167171,-0.0654 -0.06541,-0.0654 -0.06541,-0.16718 l 0,-0.46517 q 0,-0.10176 0.06541,-0.16717 0.06542,-0.0654 0.167171,-0.0654 l 6.97759,0 q 0.101756,0 0.167171,0.0654 Q 13,10.107205 13,10.208975 Z"/></svg>