<svg xmlns:svg="http://www.w3.org/2000/svg" viewBox="0 0 14px 14px" width="14px" height="14px">
<g
     id="g3"
     transform="matrix(0.0196079,0,0,0.0196079,0.99999725,1.0000051)"><g
       id="g5"><path
         d="M 570.416,562.822 C 564.658,453.443 466.353,408.195 466.353,408.195 c -23.487,-10.982 -66.07,-32.48 -93.989,-46.691 35.77,-39.134 46.335,-102.939 47.98,-112.018 7.465,-41.08 3.708,-91.926 3.708,-91.926 C 417.226,58.685 317.399,57.132 306.945,57.236 c -0.577,0 -0.952,0.006 -0.952,0.006 0,0 -0.319,-0.006 -0.792,0 -9.478,-0.123 -110.404,0.878 -117.267,100.318 0,0 -3.757,50.84 3.708,91.926 0.485,2.646 1.75,10.018 4.15,19.987 18.803,24.684 47.832,36.789 71.657,42.713 2.996,-2.91 7.078,-4.721 11.602,-4.721 l 43.425,0 c 9.19,0 16.63,7.446 16.63,16.636 0,9.196 -7.44,16.648 -16.63,16.648 l -43.425,0 c -6.857,0 -12.719,-4.137 -15.279,-10.037 -17.771,-4.322 -38.336,-11.848 -56.691,-24.794 7.323,19.011 17.759,39.404 32.553,55.592 -27.919,14.211 -70.484,35.702 -93.989,46.685 0,0 -98.292,45.248 -104.063,154.627 0,0 -1.707,18.189 32.762,25.076 0,0 105.597,24.1 231.661,24.1 126.076,0 231.673,-24.1 231.673,-24.1 34.463,-6.887 32.738,-25.076 32.738,-25.076 z"
         id="path7"
         inkscape:connector-curvature="0" /><path
         d="m 154.147,284.944 10.491,0 0,-123.222 c 0.025,-0.307 0.098,-0.602 0.098,-0.915 l 0,-18.195 c 0,-32.437 10.012,-58.729 29.76,-78.151 40.847,-40.19 110.619,-39.643 111.797,-39.478 0.829,-0.061 70.018,-1.056 111.048,39.103 19.883,19.46 29.969,45.874 29.969,78.526 l 0,19.239 c 0,0.19 0.049,0.362 0.049,0.546 l 0,122.546 10.491,0 c 25.819,0 46.746,-20.927 46.746,-46.74 l 0,-44.923 c 0,-20.767 -13.56,-38.348 -32.308,-44.432 l 0,-6.231 c 0,-39.619 -12.615,-72.043 -37.47,-96.377 C 386.361,-1.186 308.958,0.042 306.251,0.005 c -3.253,-0.031 -80.73,-0.982 -129.164,46.531 -24.769,24.309 -37.335,56.635 -37.335,96.076 l 0,6.206 c -18.772,6.083 -32.345,23.677 -32.345,44.456 l 0,44.923 c 0.001,25.82 20.933,46.747 46.74,46.747 z"
         id="path9"
         inkscape:connector-curvature="0" /></g></g><g
     id="g11"
     transform="translate(0,-597.99902)" /><g
     id="g13"
     transform="translate(0,-597.99902)" /><g
     id="g15"
     transform="translate(0,-597.99902)" /><g
     id="g17"
     transform="translate(0,-597.99902)" /><g
     id="g19"
     transform="translate(0,-597.99902)" /><g
     id="g21"
     transform="translate(0,-597.99902)" /><g
     id="g23"
     transform="translate(0,-597.99902)" /><g
     id="g25"
     transform="translate(0,-597.99902)" /><g
     id="g27"
     transform="translate(0,-597.99902)" /><g
     id="g29"
     transform="translate(0,-597.99902)" /><g
     id="g31"
     transform="translate(0,-597.99902)" /><g
     id="g33"
     transform="translate(0,-597.99902)" /><g
     id="g35"
     transform="translate(0,-597.99902)" /><g
     id="g37"
     transform="translate(0,-597.99902)" /><g
     id="g39"
     transform="translate(0,-597.99902)" /></svg>