<?xml version="1.0" encoding="UTF-8" standalone="no"?>
<svg
   xmlns:dc="http://purl.org/dc/elements/1.1/"
   xmlns:cc="http://creativecommons.org/ns#"
   xmlns:rdf="http://www.w3.org/1999/02/22-rdf-syntax-ns#"
   xmlns:svg="http://www.w3.org/2000/svg"
   xmlns="http://www.w3.org/2000/svg"
   xmlns:sodipodi="http://sodipodi.sourceforge.net/DTD/sodipodi-0.dtd"
   xmlns:inkscape="http://www.inkscape.org/namespaces/inkscape"
   width="14"
   height="14"
   viewBox="0 0 14 14"
   id="svg2"
   version="1.1"
   inkscape:version="0.48.4 r9939"
   sodipodi:docname="libre-code.svg">
  <metadata
     id="metadata10">
    <rdf:RDF>
      <cc:Work
         rdf:about="">
        <dc:format>image/svg+xml</dc:format>
        <dc:type
           rdf:resource="http://purl.org/dc/dcmitype/StillImage" />
      </cc:Work>
    </rdf:RDF>
  </metadata>
  <defs
     id="defs8" />
  <sodipodi:namedview
     pagecolor="#ffffff"
     bordercolor="#666666"
     borderopacity="1"
     objecttolerance="10"
     gridtolerance="10"
     guidetolerance="10"
     inkscape:pageopacity="0"
     inkscape:pageshadow="2"
     inkscape:window-width="1920"
     inkscape:window-height="1030"
     id="namedview6"
     showgrid="false"
     inkscape:zoom="1.0814295"
     inkscape:cx="627.96623"
     inkscape:cy="1024"
     inkscape:window-x="0"
     inkscape:window-y="0"
     inkscape:window-maximized="1"
     inkscape:current-layer="svg2" />
  <path
     d="m 4.750805,9.878685 -0.32787,0.32787 q -0.0656,0.0656 -0.15082,0.0656 -0.0852,0 -0.15082,-0.0656 L 1.065559,7.150815 q -0.065574,-0.0656 -0.065574,-0.15082 0,-0.0853 0.06557,-0.15082 l 3.055736,-3.05574 q 0.0656,-0.0656 0.15082,-0.0656 0.0853,0 0.15082,0.0656 l 0.32787,0.32787 q 0.0656,0.0656 0.0656,0.15082 0,0.0852 -0.0656,0.15082 l -2.57705,2.57705 2.57705,2.57705 q 0.0656,0.0656 0.0656,0.15082 0,0.0852 -0.0656,0.15082 z m 3.87541,-6.99672 -2.4459,8.46557 q -0.0262,0.0853 -0.10164,0.12787 -0.0754,0.0426 -0.1541,0.0164 l -0.40656,-0.11147 q -0.0852,-0.0262 -0.12787,-0.10164 -0.0426,-0.0754 -0.0164,-0.16066 l 2.4459,-8.46557 q 0.0262,-0.0853 0.10164,-0.12787 0.0754,-0.0426 0.1541,-0.0164 l 0.40656,0.11147 q 0.0852,0.0262 0.12787,0.10164 0.0426,0.0754 0.0164,0.16066 z m 4.3082,4.26885 -3.05574,3.05574 q -0.0656,0.0656 -0.15082,0.0656 -0.0853,0 -0.15082,-0.0656 l -0.32787,-0.32787 q -0.0656,-0.0656 -0.0656,-0.15082 0,-0.0853 0.0656,-0.15082 l 2.57705,-2.57705 -2.57705,-2.57705 q -0.0656,-0.0656 -0.0656,-0.15082 0,-0.0852 0.0656,-0.15082 l 0.32787,-0.32787 q 0.0656,-0.0656 0.15082,-0.0656 0.0852,0 0.15082,0.0656 l 3.05574,3.05574 q 0.0656,0.0656 0.0656,0.15082 0,0.0852 -0.0656,0.15082 z"
     id="path4"
     inkscape:connector-curvature="0" />
</svg>
