<?xml version="1.0" encoding="UTF-8" standalone="no"?>
<svg
   xmlns:dc="http://purl.org/dc/elements/1.1/"
   xmlns:cc="http://creativecommons.org/ns#"
   xmlns:rdf="http://www.w3.org/1999/02/22-rdf-syntax-ns#"
   xmlns:svg="http://www.w3.org/2000/svg"
   xmlns="http://www.w3.org/2000/svg"
   xmlns:sodipodi="http://sodipodi.sourceforge.net/DTD/sodipodi-0.dtd"
   xmlns:inkscape="http://www.inkscape.org/namespaces/inkscape"
   width="14"
   height="14"
   viewBox="0 0 14 14"
   id="svg2"
   version="1.1"
   inkscape:version="0.48.4 r9939"
   sodipodi:docname="libre-sitemap.svg">
  <metadata
     id="metadata10">
    <rdf:RDF>
      <cc:Work
         rdf:about="">
        <dc:format>image/svg+xml</dc:format>
        <dc:type
           rdf:resource="http://purl.org/dc/dcmitype/StillImage" />
      </cc:Work>
    </rdf:RDF>
  </metadata>
  <defs
     id="defs8" />
  <sodipodi:namedview
     pagecolor="#ffffff"
     bordercolor="#666666"
     borderopacity="1"
     objecttolerance="10"
     gridtolerance="10"
     guidetolerance="10"
     inkscape:pageopacity="0"
     inkscape:pageshadow="2"
     inkscape:window-width="1920"
     inkscape:window-height="1030"
     id="namedview6"
     showgrid="false"
     inkscape:zoom="1.0814295"
     inkscape:cx="627.96623"
     inkscape:cy="1024"
     inkscape:window-x="0"
     inkscape:window-y="0"
     inkscape:window-maximized="1"
     inkscape:current-layer="svg2" />
  <path
     d="m 13,9.357145 v 2.14285 q 0,0.26786 -0.1875,0.45536 -0.1875,0.1875 -0.45536,0.1875 h -2.14285 q -0.26786,0 -0.45536,-0.1875 -0.1875,-0.1875 -0.1875,-0.45536 v -2.14285 q 0,-0.26786 0.1875,-0.45536 0.1875,-0.1875 0.45536,-0.1875 h 0.64285 V 7.428565 H 7.42857 v 1.28572 h 0.64286 q 0.26786,0 0.45536,0.1875 0.1875,0.1875 0.1875,0.45536 v 2.14285 q 0,0.26786 -0.1875,0.45536 -0.1875,0.1875 -0.45536,0.1875 H 5.92857 q -0.26786,0 -0.45536,-0.1875 -0.1875,-0.1875 -0.1875,-0.45536 v -2.14285 q 0,-0.26786 0.1875,-0.45536 0.1875,-0.1875 0.45536,-0.1875 H 6.57143 V 7.428565 H 3.14286 v 1.28572 h 0.64285 q 0.26786,0 0.45536,0.1875 0.1875,0.1875 0.1875,0.45536 v 2.14285 q 0,0.26786 -0.1875,0.45536 -0.1875,0.1875 -0.45536,0.1875 H 1.642857 q -0.267857,0 -0.455357,-0.1875 Q 1,11.767855 1,11.499995 v -2.14285 q 0,-0.26786 0.1875,-0.45536 0.1875,-0.1875 0.455357,-0.1875 H 2.28571 v -1.28572 q 0,-0.34821 0.25447,-0.60267 0.25446,-0.25447 0.60268,-0.25447 H 6.57143 V 5.285715 H 5.92857 q -0.26786,0 -0.45536,-0.1875 -0.1875,-0.1875 -0.1875,-0.45536 v -2.14286 q 0,-0.26785 0.1875,-0.45535 0.1875,-0.1875 0.45536,-0.1875 h 2.14286 q 0.26786,0 0.45536,0.1875 0.1875,0.1875 0.1875,0.45535 v 2.14286 q 0,0.26786 -0.1875,0.45536 -0.1875,0.1875 -0.45536,0.1875 H 7.42857 v 1.28571 h 3.42857 q 0.34822,0 0.60268,0.25447 0.25447,0.25446 0.25447,0.60267 v 1.28572 h 0.64285 q 0.26786,0 0.45536,0.1875 Q 13,9.089285 13,9.357145 z"
     id="path4"
     inkscape:connector-curvature="0" />
</svg>
