<?xml version="1.0" encoding="UTF-8" standalone="no"?>
<!-- Generator: Adobe Illustrator 16.0.0, SVG Export Plug-In . SVG Version: 6.00 Build 0)  -->

<svg
   xmlns:dc="http://purl.org/dc/elements/1.1/"
   xmlns:cc="http://creativecommons.org/ns#"
   xmlns:rdf="http://www.w3.org/1999/02/22-rdf-syntax-ns#"
   xmlns:svg="http://www.w3.org/2000/svg"
   xmlns="http://www.w3.org/2000/svg"
   xmlns:sodipodi="http://sodipodi.sourceforge.net/DTD/sodipodi-0.dtd"
   xmlns:inkscape="http://www.inkscape.org/namespaces/inkscape"
   version="1.1"
   id="Capa_1"
   x="0px"
   y="0px"
   width="14"
   height="14"
   viewBox="0 0 14 14"
   xml:space="preserve"
   inkscape:version="0.48.4 r9939"
   sodipodi:docname="libre-display-layout-list.svg"><metadata
     id="metadata43"><rdf:RDF><cc:Work
         rdf:about=""><dc:format>image/svg+xml</dc:format><dc:type
           rdf:resource="http://purl.org/dc/dcmitype/StillImage" /></cc:Work></rdf:RDF></metadata><defs
     id="defs41" /><sodipodi:namedview
     pagecolor="#ffffff"
     bordercolor="#666666"
     borderopacity="1"
     objecttolerance="10"
     gridtolerance="10"
     guidetolerance="10"
     inkscape:pageopacity="0"
     inkscape:pageshadow="2"
     inkscape:window-width="1920"
     inkscape:window-height="1030"
     id="namedview39"
     showgrid="false"
     inkscape:zoom="10.466156"
     inkscape:cx="0.02754183"
     inkscape:cy="16.883933"
     inkscape:window-x="0"
     inkscape:window-y="0"
     inkscape:window-maximized="1"
     inkscape:current-layer="Capa_1" /><g
     id="g3020"
     transform="matrix(0.41933116,0,0,0.41933116,0.99999998,1.6900094)"><path
       style="fill:#000000"
       d="m 0,0 28.617001,0 0,6.402 L 0,6.402 z"
       id="rect3" /><path
       style="fill:#000000"
       d="m 0,9.6020002 28.617001,0 0,6.3979998 L 0,16 z"
       id="rect5" /><path
       style="fill:#000000"
       d="m 0,18.926001 28.617001,0 0,6.4 -28.617001,0 z"
       id="rect7" /></g><g
     id="g9"
     transform="matrix(0.00648649,0,0,0.00648649,0.35783798,13.477889)" /><g
     id="g11"
     transform="matrix(0.00648649,0,0,0.00648649,0.35783798,13.477889)" /><g
     id="g13"
     transform="matrix(0.00648649,0,0,0.00648649,0.35783798,13.477889)" /><g
     id="g15"
     transform="matrix(0.00648649,0,0,0.00648649,0.35783798,13.477889)" /><g
     id="g17"
     transform="matrix(0.00648649,0,0,0.00648649,0.35783798,13.477889)" /><g
     id="g19"
     transform="matrix(0.00648649,0,0,0.00648649,0.35783798,13.477889)" /><g
     id="g21"
     transform="matrix(0.00648649,0,0,0.00648649,0.35783798,13.477889)" /><g
     id="g23"
     transform="matrix(0.00648649,0,0,0.00648649,0.35783798,13.477889)" /><g
     id="g25"
     transform="matrix(0.00648649,0,0,0.00648649,0.35783798,13.477889)" /><g
     id="g27"
     transform="matrix(0.00648649,0,0,0.00648649,0.35783798,13.477889)" /><g
     id="g29"
     transform="matrix(0.00648649,0,0,0.00648649,0.35783798,13.477889)" /><g
     id="g31"
     transform="matrix(0.00648649,0,0,0.00648649,0.35783798,13.477889)" /><g
     id="g33"
     transform="matrix(0.00648649,0,0,0.00648649,0.35783798,13.477889)" /><g
     id="g35"
     transform="matrix(0.00648649,0,0,0.00648649,0.35783798,13.477889)" /><g
     id="g37"
     transform="matrix(0.00648649,0,0,0.00648649,0.35783798,13.477889)" /></svg>