<svg xmlns="http://www.w3.org/2000/svg" viewBox="0 0 14 14" id="libre-map-train"><path style="fill-rule:evenodd" d="M 8.2,11.8 5.8,11.8 4.6,13 2.8,13 4.0000049,11.799995 C 3.3369361,11.798114 2.8,11.263262 2.8,10.602947 l 0,-8.4058934 C 2.8,1.5359391 3.3382361,1 4.0035152,1 L 9.996485,1 C 10.661168,1 11.2,1.5355737 11.2,2.1970536 l 0,8.4058934 c 0,0.65995 -0.536344,1.195167 -1.200005,1.197048 L 11.2,13 9.4,13 8.2,11.8 l 0,0 z M 4,4 10,4 10,7.6 4,7.6 4,4 4,4 Z m 0.9,6.6 C 5.3970563,10.6 5.8,10.197056 5.8,9.7 5.8,9.202944 5.3970563,8.8 4.9,8.8 4.4029437,8.8 4,9.202944 4,9.7 c 0,0.497056 0.4029437,0.9 0.9,0.9 l 0,0 z m 4.2,0 C 9.5970562,10.6 10,10.197056 10,9.7 10,9.202944 9.5970562,8.8 9.1,8.8 8.6029438,8.8 8.2,9.202944 8.2,9.7 c 0,0.497056 0.4029438,0.9 0.9,0.9 l 0,0 z m -3.3,-8.4 2.4,0 0,0.6 -2.4,0 0,-0.6 0,0 z"/></svg>