<svg xmlns="http://www.w3.org/2000/svg" viewBox="0 0 14 14" id="libre-brand-yandex"><path d="m 9.6877704,1 -1.81837,0 c -1.78653,0 -3.30122,1.36041 -3.30122,4.00041 0,1.58449 0.73347,2.75143 2.04122,3.32816 l -2.4404,4.41551 c -0.0796,0.14449 0,0.25592 0.12734,0.25592 l 1.13266,0 c 0.0955,0 0.15918,-0.0318 0.19102,-0.11143 l 2.21755,-4.33592 0.79714,0 0,4.33592 c 0,0.0478 0.0478,0.11143 0.11143,0.11143 l 0.98939,0 c 0.0955,0 0.12734,-0.0478 0.12734,-0.12735 l 0,-11.71224 C 9.8628704,1.04776 9.7991704,1 9.6877704,1 Z m -1.05306,6.52776 -0.6698,0 c -1.05306,0 -2.07306,-0.76776 -2.07306,-2.68776 0,-2.00082 0.95633,-2.81633 1.9298,-2.81633 l 0.81306,0 0,5.50409 z"/></svg>