<svg xmlns="http://www.w3.org/2000/svg" viewBox="0 0 14 14" id="libre-brand-play-station"><path d="m 6.4483103,11.32125 -0.96034,-0.3055 -0.003,-4.3235005 -0.003,-4.3236 0.0329,0.01 c 0.75076,0.139 2.35627,0.6001 3.0453,0.8747 0.19813,0.079 0.56711,0.2617 0.70762,0.3505 0.24315,0.1536 0.47015,0.3483 0.61448,0.5272 0.3642807,0.4515 0.5303907,1.0779 0.5093407,1.9207 -0.0109,0.4346 -0.0717,0.7241 -0.21358,1.0159 -0.13288,0.2734 -0.3458607,0.4864 -0.5925607,0.5928 -0.35936,0.1549 -0.78796,0.1277 -1.27055,-0.081 l -0.0883,-0.038 -0.006,-1.5612 c -0.005,-1.5515 -0.006,-1.5619 -0.0273,-1.656 -0.0558,-0.2433 -0.18599,-0.3897 -0.38331,-0.4309 -0.15986,-0.034 -0.27178,0.048 -0.33986,0.2476 l -0.0224,0.066 -0.003,3.7125 c -0.002,3.5217005 -0.004,3.7124005 -0.0202,3.7119005 -0.01,-3e-4 -0.44976,-0.138 -0.97795,-0.306 z m 5.6942807,0.2769 c -0.12767,-0.041 -0.22164,-0.1225 -0.27984,-0.2433 -0.0355,-0.074 -0.0365,-0.079 -0.0365,-0.1926 0,-0.1142 8.1e-4,-0.1184 0.0373,-0.192 0.0612,-0.1236 0.15326,-0.2034 0.27967,-0.2425 0.26253,-0.081 0.53239,0.088 0.5796,0.3634 0.0377,0.22 -0.0985,0.4402 -0.31342,0.5066 -0.0813,0.025 -0.18907,0.025 -0.26677,4e-4 z m 0.20626,-0.063 c 0.29561,-0.063 0.40739,-0.4289 0.19559,-0.6407 -0.19137,-0.1913 -0.51021,-0.1291 -0.62349,0.1217 -0.0184,0.041 -0.0227,0.068 -0.0227,0.1463 0,0.078 0.004,0.1055 0.0227,0.1462 0.0482,0.1068 0.14719,0.1932 0.25402,0.2217 0.0688,0.018 0.10524,0.019 0.17388,0 z m -0.26486,-0.3829 0,-0.2527 0.14184,0 c 0.15134,0 0.19112,0.01 0.23036,0.051 0.0428,0.046 0.0376,0.1376 -0.0107,0.1892 -0.0117,0.012 -0.0161,0.023 -0.01,0.023 0.0213,0 0.0368,0.045 0.0431,0.1258 0.004,0.047 0.0112,0.082 0.018,0.084 0.006,0 0.0118,0.011 0.0118,0.019 0,0.012 -0.0118,0.014 -0.0531,0.012 l -0.0531,0 -0.007,-0.085 c -0.004,-0.052 -0.0127,-0.091 -0.0217,-0.1 -0.0104,-0.01 -0.0417,-0.015 -0.10921,-0.016 l -0.0946,0 -0.003,0.1037 -0.003,0.1036 -0.0401,0 -0.0401,0 0,-0.2528 z m 0.29315,-0.051 c 0.0247,-0.025 0.0265,-0.077 0.003,-0.1028 -0.014,-0.015 -0.0327,-0.018 -0.11625,-0.018 l -0.0995,0 0,0.071 0,0.071 0.096,0 c 0.0826,0 0.0989,0 0.11625,-0.02 z m -4.5566407,-0.1686 0.003,-0.5628 0.13142,-0.047 c 0.0723,-0.026 0.78646,-0.2806 1.58708,-0.5656005 0.8006207,-0.285 1.4897907,-0.5346 1.5314907,-0.5547 0.0471,-0.023 0.0978,-0.058 0.13395,-0.093 0.0525,-0.051 0.0581,-0.06 0.0581,-0.098 0,-0.1086 -0.16888,-0.1881 -0.45674,-0.2151 -0.2162,-0.02 -0.54003,0.01 -0.75408,0.067 -0.0534,0.015 -0.4135307,0.1379 -0.8002607,0.2742 -0.38673,0.1362 -0.86421,0.3044 -1.06108,0.3736 -0.19686,0.069 -0.36176,0.1282 -0.36644,0.1311 -0.005,0 -0.009,-0.2605 -0.009,-0.5852 l 0,-0.5905 0.18448,-0.057 c 0.61791,-0.1908 1.27611,-0.3016 1.88277,-0.3168 0.5712007,-0.014 1.1858007,0.056 1.7336707,0.1998 0.17531,0.046 0.55333,0.1706 0.72278,0.2386 0.54535,0.2187 0.77157,0.5393 0.60422,0.8562 -0.0411,0.078 -0.19241,0.2231 -0.32117,0.3082 -0.14706,0.097 -0.41522,0.2278 -0.62169,0.3027 -0.0917,0.033 -0.41017,0.1478005 -0.70762,0.2545005 -0.29746,0.1068 -1.06623,0.3829 -1.7084007,0.6136 -0.64216,0.2307 -1.254,0.4504 -1.35964,0.4882 -0.10563,0.038 -0.23696,0.085 -0.29183,0.1051 -0.0549,0.02 -0.10381,0.036 -0.10876,0.036 -0.005,0 -0.008,-0.2391 -0.006,-0.5628 z m -4.22794,-0.3637 c -0.6625,-0.045 -1.08924,-0.1253 -1.7185,-0.3236 -0.24952,-0.079 -0.40829,-0.1497 -0.55325,-0.2475005 -0.14323,-0.097 -0.26155,-0.2357 -0.30252,-0.3554 -0.0263,-0.077 -0.0238,-0.2074 0.005,-0.2822 0.0311,-0.079 0.10034,-0.1703 0.17358,-0.2277 0.15834,-0.1241 0.43622,-0.2747 0.73737,-0.3997 0.0862,-0.036 0.58202,-0.2162 1.10187,-0.4011 0.51984,-0.1849 1.19296,-0.4244 1.49582,-0.5322 0.30285,-0.1078 0.55646,-0.196 0.56357,-0.196 0.0103,0 0.0129,0.1122 0.0129,0.5605 0,0.3171 -0.004,0.5629 -0.009,0.566 -0.008,0.01 -0.48736,0.1773 -1.63873,0.5888 -0.46859,0.1675 -0.51058,0.1851 -0.59497,0.2481 -0.071,0.053 -0.0998,0.1122 -0.0789,0.1621 0.0408,0.098 0.19941,0.158 0.47462,0.1806 0.22004,0.018 0.53555,-0.013 0.75325,-0.073 0.0406,-0.011 0.29897,-0.102 0.57418,-0.2017 0.27522,-0.1 0.50471,-0.1813 0.51,-0.1813 0.014,0 0.0129,0.9975005 -10e-4,1.0061005 -0.0353,0.022 -0.54521,0.087 -0.82332,0.1056 -0.13706,0.01 -0.56884,0.011 -0.68235,0 z"/></svg>