<svg xmlns="http://www.w3.org/2000/svg" viewBox="0 0 14 14" id="libre-brand-joomla"><path d="M 2.2649612,4.179364 C 1.9939009,5.086087 2.2155322,6.108675 2.9314507,6.824593 L 5.6011291,9.491614 6.784759,8.307453 4.1150808,5.640432 C 3.7324074,5.257227 3.7313444,4.632194 4.1172108,4.246331 4.5020102,3.861532 5.1249174,3.861532 5.5091853,4.2458 L 5.6011333,4.33828 6.785826,3.154119 6.693876,3.062169 C 6.0183494,2.386645 5.0707013,2.150663 4.2043712,2.353693 4.0800024,1.591003 3.4182963,1.009021 2.6199971,1.008489 c -0.8865268,0 -1.6045709,0.719107 -1.6051024,1.605634 0,0.764815 0.5341483,1.404199 1.2500665,1.566304 z M 4.4871243,5.730785 5.6718174,6.914947 8.340964,4.247926 c 0.385863,-0.385862 1.007707,-0.3848 1.390912,-0.0021 0.384268,0.384268 0.384268,1.007707 -5.32e-4,1.392506 l -0.09142,0.09142 1.18363,1.184693 0.09248,-0.09248 c 0.707946,-0.709009 0.933298,-1.717778 0.674994,-2.617592 0.786606,-0.103641 1.393569,-0.77704 1.393569,-1.591815 5.31e-4,-0.887059 -0.718576,-1.605634 -1.605103,-1.605634 -0.811586,0 -1.482327,0.602179 -1.59022,1.38347 C 8.886271,2.12518 7.87006,2.349474 7.1568,3.062199 L 6.925601,3.292866 4.4865899,5.729751 Z m 7.1331387,4.0675 C 11.831796,8.927171 11.596873,7.968893 10.916037,7.288053 L 8.250079,4.619438 7.065386,5.803068 9.731344,8.471683 c 0.385863,0.385863 0.385331,1.007176 0.0021,1.390912 -0.384268,0.383736 -1.008238,0.383736 -1.392506,-5.31e-4 l -0.09089,-0.09089 -1.18363,1.184693 0.09089,0.09089 c 0.721233,0.720701 1.753389,0.94127 2.663832,0.661174 0.148286,0.733458 0.796705,1.285145 1.573745,1.285145 0.885995,0 1.605102,-0.718044 1.605102,-1.605102 0,-0.809992 -0.599522,-1.480202 -1.37975,-1.589689 z M 9.359832,8.380267 8.176202,7.195574 5.5091812,9.864189 C 5.1265078,10.247394 4.5014746,10.248457 4.1156123,9.862595 3.7308129,9.477264 3.7308129,8.854888 4.1150808,8.470089 l 0.091416,-0.09089 -1.1846931,-1.18363 -0.090353,0.09035 C 2.2426386,7.974208 2.0109086,8.945773 2.2346662,9.825391 1.5267204,9.992279 1.000013,10.629005 1.000013,11.387974 c 0,0.886526 0.7185756,1.605102 1.6056338,1.605102 0.7626893,-5.31e-4 1.4010098,-0.532022 1.564709,-1.245283 0.8753654,0.21738 1.8394898,-0.01541 2.5235182,-0.699442 L 9.359832,8.380267 Z"/></svg>