<svg xmlns="http://www.w3.org/2000/svg" viewBox="0 0 14 14" id="libre-brand-summernote"><path d="m 12.429845,7.5866 -0.78854,0 c 0.0268,-0.1792 0.042,-0.3794 0.042,-0.5888 0,-0.2049 -0.0147,-0.3963 -0.0403,-0.5754 l 0.78683,0 c 0.3143,0 0.57016,0.2678 0.57016,0.5821 0,0.3143 -0.25586,0.5821 -0.57016,0.5821 z M 10.713165,4.1508 C 10.463915,3.8267 10.173375,3.5362 9.849295,3.2869 l 0.5583,-0.5583 c 0.11495,-0.1149 0.26834,-0.1782 0.43192,-0.1782 0.1636,0 0.31699,0.063 0.43195,0.1782 0.11496,0.115 0.17826,0.2684 0.17826,0.432 0,0.1636 -0.0633,0.317 -0.17826,0.4319 l -0.5583,0.5583 z m -4.79783,3.8139 c -0.0324,0.098 0.0218,0.1522 0.11988,0.1202 l 1.22998,-0.4015 3.19437,-3.1953 c 0.51307,0.7053 0.81649,1.573 0.81649,2.512 0,2.3615 -1.91443,4.276 -4.27601,4.276 -2.36156,0 -4.27599,-1.9145 -4.27599,-4.276 0,-2.3616 1.91443,-4.276 4.27599,-4.276 0.93896,0 1.80661,0.3034 2.51199,0.8164 l -3.19566,3.1946 -0.40104,1.2296 z m 0.50328,-5.6069 0,-0.7876 C 6.418615,1.2559 6.686395,1 7.000695,1 c 0.31432,0 0.5821,0.2559 0.5821,0.5702 l 0,0.7879 c -0.17911,-0.026 -0.37562,-0.041 -0.5831,-0.041 -0.20679,0 -0.40197,0.015 -0.58108,0.041 z M 3.319435,4.1095 2.752455,3.5468 c -0.22231,-0.2223 -0.22726,-0.5671 -0.005,-0.7894 0.22232,-0.2222 0.57392,-0.2224 0.79648,0 l 0.56137,0.5653 c -0.29202,0.2304 -0.55586,0.4945 -0.78591,0.7868 z m -1.74927,3.4771 c -0.3143,0 -0.57016,-0.2678 -0.57016,-0.5821 0,-0.3143 0.25586,-0.5821 0.57016,-0.5821 l 0.78693,0 c -0.0256,0.1791 -0.0403,0.3705 -0.0403,0.5754 0,0.2094 0.0152,0.4096 0.042,0.5888 l -0.78865,0 z m 1.75459,2.3108 c 0.22914,0.2901 0.49163,0.5522 0.78194,0.7811 l -0.56272,0.5672 c -0.11121,0.1111 -0.23734,0.1697 -0.38331,0.1697 -0.14607,0 -0.29203,-0.05 -0.40325,-0.1608 -0.22231,-0.2223 -0.22231,-0.5722 0,-0.7945 l 0.56734,-0.5627 z m 4.25804,1.7446 0,0.7878 c 0,0.3143 -0.26778,0.5702 -0.5821,0.5702 -0.3143,0 -0.58208,-0.2559 -0.58208,-0.5702 l 0,-0.7875 c 0.17911,0.026 0.37429,0.041 0.58108,0.041 0.20748,0 0.40399,-0.015 0.5831,-0.041 z m 3.09349,-1.7458 0.56906,0.5639 c 0.22231,0.2223 0.22491,0.5603 0.003,0.7826 -0.11122,0.1111 -0.25195,0.1668 -0.39791,0.1668 -0.14608,0 -0.2816,-0.056 -0.39281,-0.1668 l -0.56174,-0.5658 c 0.28987,-0.2288 0.55198,-0.4908 0.7808,-0.7807 z"/></svg>