<svg xmlns="http://www.w3.org/2000/svg" viewBox="0 0 14 14" id="libre-brand-mailchimp"><path d="m 12.972409,7.1905493 c -0.03756,-0.04603 -0.08464,-0.0328 -0.126966,-0.0011 -0.03333,0.02486 -0.0656,0.05026 -0.10316,0.07883 0.0085,-0.302603 -0.02804,-0.42904 -0.166114,-0.500459 -0.221662,-0.114798 -0.421634,-0.03862 -0.618432,0.09787 -0.0042,-0.0455 -0.0085,-0.08359 -0.01058,-0.121676 -0.0037,-0.06031 -0.03703,-0.09628 -0.09522,-0.0947 -0.05819,0.0016 -0.09099,0.04021 -0.09099,0.09999 0,0.06454 0.0063,0.128554 0.0042,0.193095 -0.0042,0.11427 -0.0069,0.229068 -0.02328,0.341751 -0.01005,0.06877 -0.06401,0.11374 -0.137017,0.114798 -0.07512,5.29e-4 -0.115328,-0.04761 -0.132786,-0.117443 -0.0058,-0.02434 -0.01164,-0.0492 -0.01481,-0.07353 -0.0127,-0.08888 -0.01852,-0.178811 -0.03862,-0.265571 -0.03386,-0.148127 -0.154475,-0.208436 -0.286732,-0.134373 -0.07036,0.03915 -0.123792,0.10898 -0.182514,0.167701 -0.02063,0.02063 -0.03333,0.0492 -0.05343,0.07935 -0.03545,-0.244939 -0.116915,-0.364499 -0.436447,-0.156062 0.0079,-0.02751 0.0164,-0.04814 0.01957,-0.0693 0.0063,-0.04867 0.02592,-0.106334 -0.04021,-0.128553 -0.06613,-0.02222 -0.09946,0.02328 -0.120618,0.07512 -0.02645,0.06454 -0.04655,0.131727 -0.06983,0.197326 -0.05237,0.148657 -0.110567,0.294139 -0.227482,0.406292 -0.04444,0.04232 -0.09364,0.07406 -0.1581776,0.0492 -0.06877,-0.02645 -0.07565,-0.08835 -0.06824,-0.147598 0.0164,-0.132786 0.04444,-0.264513 0.05713,-0.397828 0.0037,-0.03809 -0.0201,-0.09946 -0.04973,-0.115857 -0.05343,-0.0291 -0.09258,0.01481 -0.11374,0.06666 -0.01164,0.02857 -0.0201,0.05819 -0.03016,0.08676 -0.02962,0.08464 -0.05555,0.170346 -0.0894,0.252874 -0.03016,0.07406 -0.08253,0.133844 -0.170346,0.124321 -0.09046,-0.01005 -0.09046,-0.09364 -0.107393,-0.160294 -0.02328,-0.09152 -0.03597,-0.187805 -0.07142,-0.274565 -0.04073,-0.100515 -0.149715,-0.125379 -0.238062,-0.06137 -0.04708,0.03386 -0.08623,0.07935 -0.125379,0.122734 -0.02857,0.03121 -0.05132,0.06771 -0.08253,0.110037 -0.01852,-0.09364 0.0069,-0.153417 0.06084,-0.212139 0.154475,-0.16823 0.2825,-0.354977 0.36397,-0.569761 0.07142,-0.189392 0.106334,-0.384073 0.05766,-0.584045 -0.03386,-0.139134 -0.162411,-0.186746 -0.280383,-0.104218 -0.0529,0.03703 -0.100515,0.09152 -0.132257,0.148127 -0.04497,0.07988 -0.08729,0.166114 -0.104747,0.254462 -0.05132,0.257106 -0.08941,0.517387 -0.133844,0.776081 -0.0048,0.0291 -0.01164,0.06295 -0.03015,0.08306 -0.185159,0.203675 -0.380899,0.395183 -0.621077,0.535375 -0.218488,0.127495 -0.449672,0.178281 -0.701489,0.124321 -0.36926,-0.07883 -0.610496,-0.38037 -0.576638,-0.725295 0.04444,-0.448614 0.438563,-0.91257 0.875538,-1.030014 0.178282,-0.04814 0.342809,-0.03968 0.48353,0.09946 0.04497,0.04444 0.102102,0.0693 0.155005,0.01375 0.0529,-0.05502 0.01428,-0.109509 -0.02539,-0.14707 -0.05185,-0.0492 -0.111096,-0.09575 -0.175108,-0.12485 -0.134373,-0.06137 -0.277739,-0.05766 -0.420047,-0.02698 -0.740637,0.160824 -1.072336,0.86337 -1.105136,1.372294 -0.0074,0.114798 -0.03068,0.233829 -0.07353,0.339634 -0.05449,0.134373 -0.1941528,0.174579 -0.3063064,0.110567 -0.1063342,-0.06031 -0.1338436,-0.203675 -0.066128,-0.321648 0.1317275,-0.230655 0.2682162,-0.459195 0.3893634,-0.695669 0.08253,-0.160295 0.123263,-0.33699 0.09364,-0.520033 -0.01428,-0.08676 -0.05555,-0.161882 -0.148127,-0.186217 -0.092051,-0.02434 -0.1714043,0.01534 -0.2206038,0.08729 -0.059251,0.08676 -0.1137406,0.180398 -0.1491854,0.278797 -0.1089793,0.299429 -0.1401919,0.615257 -0.1698174,0.930557 -0.016929,0.177224 -0.1132115,0.307893 -0.2486422,0.410524 -0.089935,0.06771 -0.1841012,0.01957 -0.1856882,-0.09258 -0.00159,-0.08306 0.013755,-0.167172 0.022748,-0.250229 0.00794,-0.07777 0.022748,-0.155534 0.022748,-0.2333 0,-0.02645 -0.0328,-0.06983 -0.057664,-0.07512 -0.025922,-0.0058 -0.071948,0.01534 -0.088347,0.03915 -0.026451,0.03756 -0.03809,0.08623 -0.051845,0.131727 -0.025393,0.07988 -0.038619,0.165056 -0.074064,0.240178 -0.033858,0.07089 -0.079883,0.143895 -0.1391339,0.193624 -0.093109,0.07777 -0.1920365,0.04179 -0.2306554,-0.07301 -0.017458,-0.05237 -0.027509,-0.109508 -0.027509,-0.163998 5.291e-4,-0.106334 0.015871,-0.212139 0.015342,-0.318474 -5.29e-4,-0.115856 -0.068244,-0.191507 -0.181985,-0.185159 -0.085702,0.0048 -0.1803979,0.02698 -0.2512874,0.07248 -0.1909785,0.122205 -0.3115964,0.304719 -0.3666152,0.524265 -0.032271,0.128024 -0.014813,0.252874 0.097341,0.343867 0.1100375,0.0894 0.2354167,0.09099 0.3555056,0.03227 0.077767,-0.03809 0.1438951,-0.101044 0.221662,-0.15765 0.056077,0.07777 0.1364887,0.142308 0.2555196,0.136489 0.1147987,-0.0058 0.2036751,-0.06454 0.2840871,-0.140192 0.1052762,0.170876 0.1893913,0.219017 0.3285252,0.191508 0.1481273,-0.0291 0.2348876,-0.140192 0.3211189,-0.256049 0.1147987,0.343338 0.5671155,0.392008 0.7401075,-0.06613 0.286203,0.326938 0.545426,0.44544 0.949602,0.425866 0.328525,-0.01587 0.589335,-0.177753 0.820519,-0.397299 0.0783,-0.07406 0.149186,-0.156062 0.223778,-0.234358 0.01799,0.04761 0.02063,0.08306 0.01799,0.117972 -0.01111,0.142309 -0.02328,0.284617 -0.03544,0.426925 -0.0042,0.0529 -0.0048,0.105805 0.06084,0.120089 0.0656,0.01428 0.107392,-0.02116 0.127495,-0.08147 0.02328,-0.06877 0.04021,-0.140191 0.06613,-0.207907 0.04867,-0.127495 0.09787,-0.255519 0.156592,-0.378783 0.01587,-0.0328 0.06719,-0.04867 0.102102,-0.07195 0.01957,0.03545 0.04655,0.06824 0.05661,0.105805 0.0201,0.07512 0.02434,0.155005 0.04708,0.229598 0.04338,0.144953 0.155005,0.196268 0.296255,0.139662 0.05026,-0.0201 0.09522,-0.05343 0.147069,-0.08306 0.01534,0.110038 0.05079,0.206321 0.165585,0.243881 0.109509,0.03544 0.207378,-0.0011 0.2967836,-0.06243 0.07248,0.109509 0.142837,0.105276 0.199443,-0.0085 0.02381,-0.04761 0.03915,-0.09893 0.06401,-0.146011 0.06137,-0.115857 0.121147,-0.233301 0.192036,-0.343338 0.03333,-0.05185 0.0857,-0.108451 0.160824,-0.07353 0.07089,0.03333 0.06137,0.105805 0.06084,0.170346 0,0.01111 -0.0037,0.02222 -0.0053,0.03333 -0.01428,0.09946 -0.03386,0.198914 -0.03915,0.299429 -0.0016,0.03227 0.03068,0.09046 0.05449,0.09417 0.03439,0.0053 0.07988,-0.02169 0.111095,-0.04655 0.02116,-0.01693 0.02381,-0.05502 0.0365,-0.08306 0.06295,-0.139663 0.122734,-0.281442 0.193624,-0.416872 0.01587,-0.03068 0.07406,-0.05819 0.108979,-0.05449 0.02539,0.0032 0.05608,0.05766 0.06454,0.09364 0.01905,0.08147 0.02222,0.166115 0.03756,0.248643 0.04179,0.228539 0.124321,0.296254 0.324822,0.263455 0.0042,-5.29e-4 0.0095,0.0042 0.0074,0.0032 -0.0164,0.104218 -0.04126,0.205262 -0.04603,0.307364 -0.0053,0.102631 -0.0016,0.208436 0.01852,0.308951 0.01746,0.08465 0.05185,0.172463 0.101573,0.242294 0.05555,0.07777 0.157121,0.05237 0.193095,-0.03703 0.01111,-0.02804 0.01852,-0.05925 0.02063,-0.08941 0.01058,-0.136489 0.02275,-0.273506 0.02751,-0.409995 0.0048,-0.124321 0.0011,-0.248642 0.0011,-0.370847 0.01852,-0.0026 0.02169,-0.0042 0.02434,-0.0032 0.02169,0.0058 0.04285,0.0127 0.06454,0.01852 0.341751,0.0947 0.64065,0.0095 0.906751,-0.214784 0.0455,-0.03809 0.05872,-0.0857 0.02063,-0.132257 z M 8.9459914,5.8166683 c 0.01005,-0.02275 0.02381,-0.0492 0.04338,-0.06031 0.0291,-0.01693 0.06824,-0.03545 0.09681,-0.02804 0.02275,0.0058 0.04814,0.04867 0.04973,0.07618 0.0032,0.06031 -0.0016,0.123263 -0.01481,0.182514 -0.04973,0.225365 -0.156063,0.42375 -0.297842,0.604677 -0.0085,0.01058 -0.01005,0.02645 -0.01481,0.03968 -0.0095,-0.0063 -0.01905,-0.01322 -0.02857,-0.0201 0.03333,-0.269274 0.05079,-0.542251 0.166114,-0.795655 z m -2.8033095,0.158179 c 0.012697,-0.03333 0.028567,-0.07036 0.053961,-0.09311 0.025393,-0.02275 0.073535,-0.05026 0.097341,-0.04074 0.030155,0.0127 0.060837,0.05872 0.063481,0.09311 0.0048,0.05079 -0.0053,0.107921 -0.025391,0.155534 -0.098928,0.229597 -0.203146,0.457078 -0.3052481,0.685089 -0.012168,-0.0042 -0.024335,-0.0085 -0.036503,-0.0127 0.032271,-0.265571 0.053961,-0.533258 0.1523595,-0.786662 z m -1.6436842,1.274953 c -0.023277,0.05079 -0.078296,0.09787 -0.1301405,0.123792 -0.1375468,0.06772 -0.2608099,-0.02169 -0.2417649,-0.172462 0.025922,-0.199972 0.1380758,-0.345983 0.3094803,-0.444911 0.1163857,-0.06719 0.1803979,-0.02275 0.1777528,0.112153 0.00688,0.0026 0.014284,0.0048 0.021161,0.0074 -0.044438,0.12485 -0.08147,0.253403 -0.1364887,0.373492 z m 7.2968573,0.970763 c -0.07406,-0.194682 -0.0619,-0.388834 0,-0.582987 0,0.194153 0,0.388834 0,0.582987 z m 0.615787,-0.853319 c -0.114799,0.04391 -0.229598,0.0365 -0.343338,-0.0085 -0.08147,-0.03227 -0.118502,-0.08888 -0.10898,-0.176165 -0.0011,-0.110567 0.04179,-0.199443 0.148657,-0.23912 0.122205,-0.04603 0.251287,-0.07777 0.367673,0.01217 0.14125,0.108979 0.102631,0.348628 -0.06348,0.412111 z m -8.5141471,0.09681 c -0.088876,-0.0085 -0.1481273,-0.05925 -0.1878043,-0.136489 -0.056077,-0.109509 -0.06507,-0.227481 -0.042851,-0.343867 0.037032,-0.194682 0.085702,-0.386718 0.1269663,-0.580871 0.024864,-0.116915 0.057135,-0.234358 0.064012,-0.35286 0.010051,-0.176695 -0.098399,-0.26081 -0.2735066,-0.232772 -0.1534175,0.02434 -0.263455,0.118502 -0.3623829,0.227481 -0.2343586,0.258165 -0.3867181,0.567117 -0.5380196,0.877126 -0.046025,0.09417 -0.090992,0.188862 -0.1364887,0.283029 -0.00952,-0.0021 -0.018516,-0.0042 -0.028038,-0.0063 0.012697,-0.102632 0.023806,-0.205792 0.039148,-0.308423 0.028567,-0.193094 0.067715,-0.38566 0.08676,-0.579812 0.01058,-0.106864 0.00423,-0.229598 -0.1153277,-0.284087 -0.1195599,-0.05449 -0.2169007,0.01904 -0.2914934,0.09681 -0.1285534,0.135431 -0.2518165,0.278268 -0.3607959,0.429041 -0.1243211,0.171404 -0.2306554,0.356034 -0.3581507,0.554948 0.012697,-0.05079 0.020103,-0.07935 0.02698,-0.107921 0.040206,-0.177224 0.089934,-0.352861 0.1185018,-0.531672 0.02698,-0.168759 0.033329,-0.340163 -0.037561,-0.504162 -0.050787,-0.117972 -0.1359598,-0.192036 -0.2661002,-0.20103 -0.1338436,-0.009 -0.2470552,0.04021 -0.3316994,0.146541 -0.0164,0.02063 -0.029096,0.05026 -0.029625,0.07618 -5.2898e-4,0.02804 0.00794,0.07036 0.026451,0.08041 0.023806,0.01323 0.06507,0.0085 0.09258,-0.0037 0.034916,-0.01534 0.061367,-0.04814 0.093638,-0.06983 0.092051,-0.06084 0.1809269,-0.04074 0.2338295,0.05608 0.021161,0.03862 0.039677,0.08359 0.040735,0.125908 0.00317,0.10845 0.012168,0.220075 -0.00952,0.324822 -0.051845,0.251287 -0.1222051,0.499401 -0.180398,0.74963 -0.022219,0.0947 -0.036503,0.192036 -0.043909,0.288848 -0.00212,0.02698 0.029096,0.07036 0.055548,0.08147 0.026451,0.01111 0.074593,0.0011 0.09787,-0.01852 0.039677,-0.03333 0.071418,-0.07883 0.098928,-0.123792 0.085702,-0.138076 0.16294,-0.280913 0.2523454,-0.416343 0.1587079,-0.240178 0.3195318,-0.478769 0.4882912,-0.71207 0.043909,-0.06137 0.1190309,-0.09999 0.1793398,-0.149185 0.00846,0.0063 0.017458,0.01323 0.025922,0.01957 0,0.03809 0.0037,0.07671 -5.29e-4,0.114799 -0.014284,0.128024 -0.0328,0.25499 -0.047083,0.383015 -0.021161,0.185159 -0.044438,0.370847 -0.057664,0.556535 -0.00476,0.06877 0.027509,0.134902 0.101044,0.158708 0.079883,0.02592 0.1528886,0.0011 0.202088,-0.06507 0.044967,-0.05978 0.083586,-0.125908 0.1169148,-0.193095 0.1026311,-0.204733 0.1962687,-0.414756 0.303132,-0.617373 0.099986,-0.189392 0.2248361,-0.362912 0.4078792,-0.482472 0.046554,-0.03016 0.1105664,-0.0328 0.1666432,-0.04814 0.00317,0.05608 0.017987,0.114799 0.00688,0.168231 -0.041264,0.190978 -0.102102,0.378783 -0.1349016,0.571348 -0.029625,0.171934 -0.051845,0.350215 -0.040735,0.523207 0.013755,0.21161 0.2137266,0.357622 0.4110534,0.33117 0.051315,-0.0069 0.1047472,-0.02063 0.1052762,-0.08623 5.29e-4,-0.06084 -0.047612,-0.0656 -0.094696,-0.07036 z m 5.9213895,-0.864958 c 0.101044,0.0048 0.1846296,-0.07777 0.1872756,-0.18463 0.0016,-0.08306 -0.04655,-0.145482 -0.1153276,-0.148657 -0.09417,-0.0048 -0.176695,0.09364 -0.179869,0.213727 -0.0021,0.07459 0.03544,0.116386 0.10845,0.11956 z m -4.4173681,-0.06666 c 0.093638,0.0011 0.1576498,-0.06454 0.1550047,-0.157121 -0.00265,-0.0783 -0.050257,-0.130141 -0.121147,-0.131728 -0.084115,-0.0016 -0.141779,0.06824 -0.140721,0.170876 5.29e-4,0.07882 0.035445,0.116915 0.1073923,0.117973 z"/></svg>