<svg xmlns="http://www.w3.org/2000/svg" viewBox="0 0 14 14" id="libre-brand-stripe"><path d="m 13.000001,7.10595 c 0,-0.85325 -0.412564,-1.52648 -1.203938,-1.52648 -0.791374,0 -1.273324,0.67323 -1.273324,1.52086 0,1.00328 0.568214,1.46648 1.37834,1.46648 0.397562,0 0.695734,-0.09 0.922644,-0.21566 l 0,-0.62635 c -0.22691,0.11439 -0.487576,0.18378 -0.817627,0.18378 -0.324426,0 -0.609471,-0.11439 -0.646976,-0.50445 l 1.629629,0 c 0.0038,-0.0431 0.01125,-0.21754 0.01125,-0.29818 M 11.351616,6.79091 c 0,-0.37506 0.230661,-0.53259 0.438819,-0.53259 0.204407,0 0.421941,0.15753 0.421941,0.53259 l -0.86076,0 z M 9.2344104,5.57947 c -0.326301,0 -0.5363338,0.15377 -0.6526019,0.26066 l -0.043132,-0.20628 -0.7332396,0 0,3.8406 0.8326301,-0.17628 0.00188,-0.94139 c 0.1200188,0.0881 0.2981716,0.21003 0.588842,0.21003 0.5963432,0 1.140178,-0.43507 1.140178,-1.49274 0.0019,-0.96765 -0.5494607,-1.4946 -1.1345521,-1.4946 M 9.0356339,7.8767 c -0.1950305,0 -0.3112987,-0.0713 -0.3919363,-0.15752 l -0.00563,-1.2377 c 0.086263,-0.0956 0.2062823,-0.16502 0.3975622,-0.16502 0.3037974,0 0.5138303,0.3413 0.5138303,0.77637 0.00188,0.44819 -0.204407,0.78387 -0.5138303,0.78387 m -1.5414909,-3.35115 0,0.67886 -0.8363807,0.17815 0,-0.67886 0.8363807,-0.17815 m -0.8345054,1.11018 0.8363807,0 0,2.87294 -0.8363807,0 0,-2.87294 z m -0.89639,0.24566 C 5.9582739,5.52321 6.3464596,5.59634 6.4589772,5.63573 l 0,0.76511 C 6.3520855,6.36714 6.0201586,6.31644 5.8232528,6.57525 l 0,1.93342 -0.8307548,0 0,-2.87294 0.7201125,0 0.050633,0.24566 m -1.6690108,-0.24566 0.6319737,0 0,0.70886 -0.6319737,0 0,1.18518 c 0,0.49133 0.525082,0.33755 0.6319737,0.29442 l 0,0.63385 c -0.1106423,0.06 -0.3112986,0.11064 -0.5850914,0.11064 -0.4932021,0 -0.8645101,-0.3188 -0.8645101,-0.812 l 0.00375,-2.67042 0.8120019,-0.17252 0.00188,0.72199 z M 1.8401305,6.48148 c 0,0.37506 1.2733239,0.19691 1.2733239,1.18894 0,0.60009 -0.4763244,0.89639 -1.1683075,0.89639 -0.2869198,0 -0.6000938,-0.0563 -0.9095171,-0.18941 l 0,-0.75011 c 0.2794186,0.1519 0.6357243,0.26629 0.9113924,0.26629 0.185654,0 0.3187998,-0.0506 0.3187998,-0.20441 0,-0.39756 -1.2658228,-0.24754 -1.2658228,-1.17018 0,-0.58884 0.4500703,-0.9414 1.1251758,-0.9414 0.2756681,0 0.5513362,0.0431 0.8270042,0.1519 l 0,0.78387 C 2.6990147,6.37647 2.3764643,6.29958 2.1232997,6.29958 1.9488975,6.30158 1.8401305,6.35208 1.8401305,6.48148"/></svg>