<svg xmlns="http://www.w3.org/2000/svg" viewBox="0 0 14 14" id="libre-brand-whmcs"><path d="m 12.998659,4.454595 0,-0.57041 -0.763222,-0.23566 -0.05892,-0.27851 0.538273,-0.55434 -0.278509,-0.51953 -0.776613,0.20085 -0.192814,-0.20085 0.200848,-0.75519 -0.511493,-0.31064 -0.570408,0.56237 -0.286543,-0.0857 -0.187459,-0.70699 -0.6052216,0 -0.1660344,0.70699 -0.3240348,0.0857 -0.5275608,-0.56237 -0.5195269,0.29457 0.2169158,0.7418 -0.2169158,0.22495 -0.7632225,-0.20085 -0.2945771,0.5115 0.5543405,0.56237 -0.077661,0.27851 -0.7632225,0.20888 -0.00803,0.58112 0.7712564,0.20085 0.064271,0.32404 -0.5382727,0.53291 0.2785092,0.49543 0.7926802,-0.20085 0.1928141,0.2303 -0.2169158,0.72038 0.5329167,0.31064 0.5195269,-0.5463 0.310645,0.0777 0.1794242,0.76322 0.6052219,0.008 0.179424,-0.77126 0.310645,-0.0937 0.554341,0.57844 0.546307,-0.32403 -0.235662,-0.74984 0.208882,-0.21691 0.771256,0.23566 0.275832,-0.53827 -0.559697,-0.50346 0.05892,-0.32404 0.77929,-0.18745 z m -3.1921446,1.21044 c -0.8382057,0 -1.521089,-0.68021 -1.521089,-1.52109 0,-0.84088 0.6802053,-1.52109 1.521089,-1.52109 0.8408836,0 1.5210886,0.68021 1.5210886,1.52109 0,0.84356 -0.680205,1.52109 -1.5210886,1.52109 z m 1.9361746,0.43919 1.25597,0.3883 0,1.06852 -1.475563,0.35884 -0.109797,0.6079 1.041731,0.94533 -0.514171,1.01495 -1.446105,-0.44722 -0.390985,0.40705 0.447222,1.40594 -1.0256638,0.6079 -1.0417318,-1.08458 -0.5811203,0.17674 -0.3374246,1.44611 -1.1354609,-0.0134 -0.3374247,-1.43539 -0.5811202,-0.14997 -0.9747825,1.02834 -1.0015621,-0.58112 0.407052,-1.35238 -0.3668824,-0.43115 -1.4862754,0.3776 -0.5275608,-0.93194 1.014952,-1.00156 -0.1285427,-0.61057 -1.4461058,-0.37759 0.01339,-1.0953 1.4327159,-0.39366 0.1526445,-0.52756 -1.0417318,-1.05512 0.5543406,-0.95871 1.4353939,0.37759 0.407052,-0.42044 -0.407052,-1.39255 0.9747824,-0.55434 0.9854943,1.05512 0.6079,-0.16335 0.3106449,-1.39255 1.1354609,0 0.3106449,1.22919 -0.605222,-0.158 -0.1687124,-0.0455 -0.088373,0.15265 -0.2945771,0.51149 -0.088373,0.14997 0.1231868,0.12318 0.4606114,0.46597 -0.00803,0.0268 -0.6373577,0.17407 -0.1660344,0.0455 -0.00268,0.17139 -0.00536,0.34545 c -1.2720375,0.27851 -2.2307521,1.41397 -2.2307521,2.77171 0,1.56126 1.2666816,2.83062 2.8306182,2.83062 1.3523767,0 2.4824816,-0.94801 2.7636688,-2.21737 l 0.353492,0.005 0.184781,0.003 0.04285,-0.17943 0.149966,-0.64271 0.05088,-0.0161 0.457934,0.47668 0.125864,0.13122 0.155323,-0.091 0.546307,-0.32403 0.155322,-0.0937 -0.05356,-0.17407 -0.182103,-0.56773 z"/></svg>