<svg xmlns="http://www.w3.org/2000/svg" viewBox="0 0 14 14" id="libre-brand-plex"><path d="m 7,1.85204 c -2.8436256,0 -5.1488381,2.30421 -5.1488381,5.14832 0,2.84293 2.3052125,5.14811 5.1488381,5.14811 2.842651,0 5.147833,-2.30518 5.147833,-5.14811 C 12.147833,4.15625 9.843626,1.85204 7,1.85204 Z m 0.3682965,8.34626 -2.0357317,0 1.9059275,-3.4438 -1.9059275,-3.44454 2.0357317,0 L 9.275199,6.75401 7.3682965,10.1983 Z M 7,0.99988 c -3.3137239,0 -6,2.68627 -6,6 0,3.31345 2.6862761,6.00024 6,6.00024 3.313175,0 6,-2.68582 6,-5.99976 C 13,3.68664 10.313724,0.99988 7,0.99988 Z M 7,12.4366 c -3.0029556,0 -5.4369972,-2.43401 -5.4369972,-5.43672 0,-3.00247 2.4340416,-5.437 5.4369972,-5.437 3.002468,0 5.437028,2.43404 5.437028,5.437 0,3.00271 -2.43456,5.43672 -5.437028,5.43672 z"/></svg>