<svg xmlns="http://www.w3.org/2000/svg" id="libre-social-instagram" viewBox="0 0 14 14"><path d="m 4.3827222,12.978341 c -1.92328,-0.132877 -3.0665,-1.169296 -3.33525,-3.0236712 -0.0633,-0.4367236 -0.0633,-5.4772412 0,-5.9139648 0.1325,-0.91424 0.44854,-1.5805233 0.9966501,-2.1012322 0.34022,-0.3231434 0.72063,-0.5505036 1.17236,-0.7005773 0.71004,-0.2358587 0.74511,-0.2380584 3.75142,-0.2388582 2.7583199,-7.9986e-4 2.97407,0.01 3.4976107,0.1377759 1.237629,0.3073462 2.07409,1.1458994 2.39584,2.4016795 0.12933,0.5047117 0.13865,0.7361712 0.13865,3.4412977 0,2.8282049 -0.01,3.0293696 -0.17366,3.5950706 -0.11887,0.410229 -0.25778,0.717575 -0.44948,0.994426 -0.346,0.499713 -0.86659,0.91564 -1.40105,1.119304 -0.76677,0.292149 -0.79516,0.294549 -3.6868707,0.306447 -1.37538,0.01 -2.68318,0 -2.90622,-0.018 z M 9.3879023,11.89843 c 0.6422507,-0.03999 0.9290507,-0.102682 1.3204207,-0.290449 0.42826,-0.205364 0.69817,-0.475317 0.90362,-0.903642 0.28804,-0.600395 0.32181,-0.9894272 0.32181,-3.7066516 0,-2.7173243 -0.0338,-3.1062563 -0.32181,-3.7067511 -0.19154,-0.3992302 -0.46348,-0.6812808 -0.85144,-0.8831454 -0.57827,-0.3008474 -1.0330308,-0.3422401 -3.7588008,-0.3422401 -2.7257699,0 -3.1805399,0.040993 -3.7587999,0.3422401 -0.52327,0.2722523 -0.89187,0.765266 -1.04073,1.3920563 -0.10383,0.4372234 -0.13252,1.1296022 -0.13252,3.1978402 0,2.7258228 0.0414,3.1806436 0.34225,3.7588426 0.20172,0.387732 0.48387,0.659884 0.88318,0.851751 0.37392,0.179668 0.7059299,0.256255 1.2521899,0.288749 0.61312,0.03699 4.25412,0.03799 4.8406301,10e-4 z M 6.7313522,10.06965 c -0.73498,-0.05299 -1.3825,-0.3585376 -1.92621,-0.9090412 -0.50557,-0.5119104 -0.80968,-1.1527982 -0.87402,-1.8418776 -0.0903,-0.9668308 0.21519,-1.8227809 0.89202,-2.4996624 0.36734,-0.3673357 0.72178,-0.588797 1.20819,-0.7548679 0.31621,-0.1078811 0.38644,-0.1191791 0.83637,-0.1337766 0.7611,-0.024996 1.25765,0.1091809 1.84851,0.4984128 1.6192908,1.0668132 1.8456308,3.3709099 0.4666,4.7499685 -0.66192,0.6619841 -1.48378,0.9606324 -2.45146,0.8908444 z m 0.92325,-1.1742948 c 0.41932,-0.1508736 0.7933,-0.4489214 1.04216,-0.8305546 0.40134,-0.6153923 0.40151,-1.5173344 4e-4,-2.1343264 -0.2502299,-0.3848326 -0.63327,-0.6885795 -1.05026,-0.8327542 -0.18563,-0.063989 -0.29324,-0.076987 -0.6452,-0.076987 -0.47656,0 -0.72255,0.061989 -1.04281,0.2643537 -0.60739,0.382933 -0.95099,1.0017246 -0.95099,1.7126002 0,0.9691304 0.61242,1.7217986 1.60518,1.9728547 0.0372,0.01 0.24246,0.011998 0.45621,0.01 0.28804,-0.01 0.43952,-0.028995 0.58531,-0.081986 z M 9.9132223,4.4415348 c -0.28379,-0.1444747 -0.42475,-0.3901317 -0.4046801,-0.7053765 0.0251,-0.3947309 0.29993,-0.6572849 0.6936508,-0.6628839 0.42903,-0.01 0.72629,0.2880495 0.72629,0.7185742 0,0.245357 -0.11519,0.4613192 -0.31748,0.5951958 -0.17681,0.1169795 -0.52205,0.1439748 -0.6977807,0.05499 z"/></svg>