<svg xmlns="http://www.w3.org/2000/svg" viewBox="0 0 14 14" id="libre-brand-strava"><path d="m 3.068125,7.10801 c 0.045,0.0788 0.069375,0.17625 0.069375,0.28875 l 0,0.006 C 3.1375,7.51901 3.115,7.62588 3.068125,7.71963 3.02125,7.81333 2.95375,7.89213 2.87125,7.95963 2.785,8.02333 2.681875,8.07401 2.56,8.10963 c -0.121875,0.0356 -0.25875,0.0525 -0.40875,0.0525 -0.22875,0 -0.4425,-0.03 -0.639375,-0.0937 C 1.315,8.00427 1.1425,7.91052 1,7.78489 L 1.40125,7.30864 c 0.121875,0.0937 0.25125,0.16125 0.384375,0.20063 0.133125,0.0412 0.268125,0.0619 0.40125,0.0619 0.069375,0 0.11625,-0.007 0.148125,-0.0244 0.03,-0.0169 0.045,-0.0412 0.045,-0.0694 l 0,-0.006 C 2.38,7.43767 2.3575,7.41327 2.3125,7.39077 2.2675,7.36827 2.186875,7.34577 2.066875,7.32327 1.94125,7.29887 1.82125,7.26707 1.706875,7.23327 1.5925,7.19957 1.493125,7.15447 1.406875,7.10202 1.320625,7.04952 1.25125,6.98202 1.200625,6.90139 1.144375,6.81551 1.12,6.71614 1.12,6.59802 l 0,-0.006 C 1.12,6.48702 1.13875,6.38577 1.181875,6.29389 1.225,6.20199 1.285,6.1214 1.365625,6.0539 1.44625,5.9845 1.545625,5.93202 1.66375,5.89264 1.781875,5.85324 1.916875,5.83454 2.0725,5.83454 c 0.2175,0 0.40875,0.0244 0.57,0.0787 0.165,0.0506 0.309375,0.1275 0.440625,0.23062 L 2.7175,6.64864 C 2.6125,6.56984 2.498125,6.51551 2.38,6.47802 2.26,6.44242 2.149375,6.42552 2.04625,6.42552 1.99,6.42552 1.94875,6.43252 1.924375,6.44992 1.89625,6.46682 1.885,6.48932 1.885,6.51742 l 0,0.006 c 0,0.03 0.01875,0.0563 0.061875,0.0788 0.04125,0.0225 0.12,0.045 0.23625,0.0675 0.1425,0.0244 0.271875,0.0563 0.39,0.0919 0.11625,0.0356 0.2175,0.0844 0.30375,0.13875 0.080625,0.0619 0.14625,0.1275 0.19125,0.20812 z m 0.028125,-0.59437 0.66,0 0,1.60875 0.748125,0 0,-1.60875 0.66,0 0,-0.63375 -2.068125,0 0,0.63375 z m 8.69625,-0.77438 -1.205625,2.38313 0.718125,0 0.4875,-0.96375 0.489375,0.96375 0.718125,0 -1.2075,-2.38313 z m -3.358125,0 -1.11,2.18438 -0.39,-0.56812 C 7.07125,7.28802 7.18,7.19989 7.256875,7.08551 c 0.080625,-0.11062 0.12,-0.25125 0.12,-0.41437 l 0,-0.006 C 7.376875,6.55076 7.36,6.45138 7.32625,6.36513 7.2925,6.27883 7.241875,6.20013 7.1725,6.13451 7.09375,6.05581 6.98875,5.99201 6.86125,5.94889 6.73,5.90199 6.566875,5.87949 6.36625,5.87949 l -1.0875,0 0,2.24438 0.748125,0 0,-0.63938 0.159375,0 0.42375,0.63938 1.3425,0 0.4875,-0.96375 0.4875,0.96375 0.71625,0 -1.209375,-2.38501 z m -1.80375,0.98813 c 0,0.0694 -0.028125,0.12187 -0.07875,0.16125 C 6.50125,6.92804 6.43,6.94674 6.34,6.94674 l -0.3225,0 0,-0.44063 0.32625,0 c 0.09,0 0.159375,0.0169 0.208125,0.0525 0.0525,0.0356 0.07875,0.09 0.07875,0.16125 l 0,0.007 z M 10.60375,5.87801 10.1125,6.84364 9.623125,5.87801 l -0.718125,0 1.2075,2.38313 1.205625,-2.38313 -0.714375,0 z"/></svg>